%TF.GenerationSoftware,KiCad,Pcbnew,10.0.5*%
%TF.CreationDate,2026-08-25T11:17:02+00:00*%
%TF.ProjectId,unni-smartification-c6,756e6e69-2d73-46d6-9172-746966696361,rev?*%
%TF.SameCoordinates,Original*%
%TF.FileFunction,Copper,L3,Inr*%
%TF.FilePolarity,Positive*%
%FSLAX46Y46*%
G04 Gerber Fmt 4.6, Leading zero omitted, Abs format (unit mm)*
G04 Created by KiCad (PCBNEW 10.0.5) date 2026-08-25 11:17:02*
%MOMM*%
%LPD*%
G01*
G04 APERTURE LIST*
G04 Aperture macros list*
%AMRoundRect*
0 Rectangle with rounded corners*
0 $1 Rounding radius*
0 $2 $3 $4 $5 $6 $7 $8 $9 X,Y pos of 4 corners*
0 Add a 4 corners polygon primitive as box body*
4,1,4,$2,$3,$4,$5,$6,$7,$8,$9,$2,$3,0*
0 Add four circle primitives for the rounded corners*
1,1,$1+$1,$2,$3*
1,1,$1+$1,$4,$5*
1,1,$1+$1,$6,$7*
1,1,$1+$1,$8,$9*
0 Add four rect primitives between the rounded corners*
20,1,$1+$1,$2,$3,$4,$5,0*
20,1,$1+$1,$4,$5,$6,$7,0*
20,1,$1+$1,$6,$7,$8,$9,0*
20,1,$1+$1,$8,$9,$2,$3,0*%
G04 Aperture macros list end*
%TA.AperFunction,ComponentPad*%
%ADD10RoundRect,0.250000X-0.625000X0.350000X-0.625000X-0.350000X0.625000X-0.350000X0.625000X0.350000X0*%
%TD*%
%TA.AperFunction,ComponentPad*%
%ADD11O,1.750000X1.200000*%
%TD*%
%TA.AperFunction,ComponentPad*%
%ADD12RoundRect,0.250000X0.625000X-0.350000X0.625000X0.350000X-0.625000X0.350000X-0.625000X-0.350000X0*%
%TD*%
%TA.AperFunction,ComponentPad*%
%ADD13RoundRect,0.250000X-0.350000X-0.625000X0.350000X-0.625000X0.350000X0.625000X-0.350000X0.625000X0*%
%TD*%
%TA.AperFunction,ComponentPad*%
%ADD14O,1.200000X1.750000*%
%TD*%
%TA.AperFunction,ComponentPad*%
%ADD15RoundRect,0.250000X0.350000X0.625000X-0.350000X0.625000X-0.350000X-0.625000X0.350000X-0.625000X0*%
%TD*%
%TA.AperFunction,ComponentPad*%
%ADD16O,1.000000X2.100000*%
%TD*%
%TA.AperFunction,ComponentPad*%
%ADD17O,1.000000X1.800000*%
%TD*%
%TA.AperFunction,ViaPad*%
%ADD18C,0.600000*%
%TD*%
%TA.AperFunction,ViaPad*%
%ADD19C,0.800000*%
%TD*%
G04 APERTURE END LIST*
D10*
%TO.N,CONN_SCL*%
%TO.C,J6*%
X153980000Y-146580000D03*
D11*
%TO.N,CONN_SDA*%
X153980000Y-148580000D03*
%TO.N,CONN_RH*%
X153980000Y-150580000D03*
%TO.N,CONN_RT*%
X153980000Y-152580000D03*
%TO.N,GND*%
X153980000Y-154580000D03*
%TD*%
D12*
%TO.N,CONN_TOUCH*%
%TO.C,J5*%
X125360000Y-137200000D03*
D11*
%TO.N,CONN_LED+*%
X125360000Y-135200000D03*
%TO.N,CONN_BTN*%
X125360000Y-133200000D03*
%TD*%
D13*
%TO.N,GND*%
%TO.C,J2*%
X112440000Y-153750000D03*
D14*
%TO.N,+BATT*%
X114440000Y-153750000D03*
%TD*%
D15*
%TO.N,USB_RAW_P*%
%TO.C,J3*%
X87160000Y-185940000D03*
D14*
%TO.N,USB_RAW_N*%
X85160000Y-185940000D03*
%TO.N,GND*%
X83160000Y-185940000D03*
%TO.N,BOOST_CMD*%
X81160000Y-185940000D03*
%TO.N,VBUS*%
X79160000Y-185940000D03*
%TO.N,+BATT*%
X77160000Y-185940000D03*
%TD*%
D10*
%TO.N,BAT_TEMP_ADC*%
%TO.C,RT1*%
X153640000Y-136680000D03*
D11*
%TO.N,GND*%
X153640000Y-138680000D03*
%TD*%
D15*
%TO.N,USB_RAW_P*%
%TO.C,J10*%
X148230000Y-154630000D03*
D14*
%TO.N,USB_RAW_N*%
X146230000Y-154630000D03*
%TO.N,GND*%
X144230000Y-154630000D03*
%TO.N,BOOST_CMD*%
X142230000Y-154630000D03*
%TO.N,VBUS*%
X140230000Y-154630000D03*
%TO.N,+BATT*%
X138230000Y-154630000D03*
%TD*%
D16*
%TO.N,GND*%
%TO.C,J1*%
X76830000Y-129010000D03*
X85470000Y-129010000D03*
D17*
X76830000Y-124830000D03*
X85470000Y-124830000D03*
%TD*%
D18*
%TO.N,VBUS*%
X132100000Y-151600000D03*
X132750000Y-150300000D03*
X134050000Y-150300000D03*
X78800000Y-131050000D03*
X136650000Y-152900000D03*
X132750000Y-152900000D03*
X136000000Y-151600000D03*
X117150000Y-152900000D03*
X131450000Y-150300000D03*
X119750000Y-152900000D03*
X136650000Y-150300000D03*
X83550000Y-131050000D03*
X139250000Y-152900000D03*
X137950000Y-152900000D03*
X118450000Y-152900000D03*
X135350000Y-150300000D03*
X117800000Y-151600000D03*
X121050000Y-152900000D03*
X130800000Y-151600000D03*
X135350000Y-152900000D03*
X134050000Y-152900000D03*
X137300000Y-151600000D03*
X140550000Y-152900000D03*
X131450000Y-152900000D03*
X139900000Y-151600000D03*
X133400000Y-151600000D03*
X134700000Y-151600000D03*
X138600000Y-151600000D03*
%TO.N,GND*%
X122250000Y-139500000D03*
X76500000Y-159000000D03*
X143556098Y-135350000D03*
D19*
X142734158Y-150552937D03*
D18*
X112500000Y-147000000D03*
D19*
X133420000Y-148000000D03*
D18*
X141606098Y-137300000D03*
X115500000Y-141000000D03*
X76500000Y-162000000D03*
X123750000Y-139500000D03*
X149985290Y-141253949D03*
X86100000Y-135800000D03*
X120000000Y-141000000D03*
X145706098Y-137300000D03*
X84700000Y-135800000D03*
X84700000Y-144200000D03*
X141606098Y-133200000D03*
X139506098Y-137300000D03*
X85400000Y-137200000D03*
X78000000Y-159000000D03*
D19*
X127900000Y-145970000D03*
D18*
X111750000Y-145500000D03*
X114000000Y-147000000D03*
D19*
X138690000Y-146450000D03*
D18*
X75900000Y-150350000D03*
X111750000Y-148500000D03*
X145706098Y-133200000D03*
X145706098Y-135350000D03*
X111000000Y-147000000D03*
X76900000Y-155300000D03*
X120770000Y-147000000D03*
X118500000Y-141000000D03*
D19*
X130820000Y-141960000D03*
D18*
X133217500Y-140340000D03*
X117000000Y-141000000D03*
X77800000Y-152100000D03*
X75950000Y-157850000D03*
X132400000Y-135120000D03*
X120750000Y-145500000D03*
X141606098Y-139400000D03*
X84700000Y-138600000D03*
D19*
X130020000Y-144780000D03*
D18*
X145706098Y-139350000D03*
X84700000Y-141400000D03*
X75900000Y-152100000D03*
X127010000Y-151020000D03*
X143556098Y-139350000D03*
X143556098Y-133200000D03*
X141606098Y-135350000D03*
X143556098Y-137300000D03*
X78000000Y-162000000D03*
D19*
X154660000Y-135310000D03*
D18*
X148600000Y-145650000D03*
X139506098Y-135350000D03*
X123000000Y-141000000D03*
X77250000Y-160500000D03*
X121290000Y-149343823D03*
X86100000Y-138600000D03*
X139506098Y-133200000D03*
X121500000Y-141000000D03*
X76900000Y-153200000D03*
X113250000Y-145500000D03*
X136681098Y-140775000D03*
D19*
X139460000Y-150730000D03*
D18*
X139728683Y-138974998D03*
%TO.N,CHARGE_STAT*%
X144720000Y-143920000D03*
X118320000Y-143780000D03*
%TO.N,BAT_TEMP_ADC*%
X137750000Y-135575000D03*
%TO.N,+BATT*%
X115200000Y-151600000D03*
D19*
X138350000Y-147590000D03*
D18*
X111950000Y-155500000D03*
X117150000Y-155500000D03*
X134700000Y-154200000D03*
X130150000Y-155500000D03*
X136000000Y-154200000D03*
X121050000Y-155500000D03*
X136650000Y-155500000D03*
X128850000Y-155500000D03*
X111300000Y-154200000D03*
X118450000Y-155500000D03*
X124950000Y-155500000D03*
X132100000Y-154200000D03*
X131450000Y-155500000D03*
X134050000Y-155500000D03*
X114550000Y-155500000D03*
X133400000Y-154200000D03*
X123650000Y-155500000D03*
X115850000Y-152900000D03*
X115850000Y-155500000D03*
X122350000Y-155500000D03*
X132750000Y-155500000D03*
X119750000Y-155500000D03*
X127550000Y-155500000D03*
X135350000Y-155500000D03*
X113250000Y-155500000D03*
X111300000Y-151600000D03*
%TO.N,+3V3*%
X145530000Y-142550000D03*
X120000000Y-132000000D03*
X118085000Y-136795000D03*
X123750000Y-133500000D03*
X121500000Y-132000000D03*
X122250000Y-133500000D03*
X135850000Y-133770000D03*
X138490000Y-132960000D03*
X117835000Y-139745000D03*
X137700000Y-132980000D03*
X138500000Y-133810000D03*
X120750000Y-133500000D03*
X123000000Y-132000000D03*
X137720000Y-133810000D03*
%TO.N,SYS*%
X112500000Y-135000000D03*
X119250000Y-142500000D03*
X113250000Y-142500000D03*
X120750000Y-142500000D03*
X123000000Y-144000000D03*
X114000000Y-135000000D03*
X111000000Y-135000000D03*
X113250000Y-136500000D03*
X117750000Y-142500000D03*
X113250000Y-133500000D03*
X111750000Y-136500000D03*
X115330000Y-139880000D03*
X112500000Y-138000000D03*
X111750000Y-133500000D03*
X111000000Y-138000000D03*
X116250000Y-142500000D03*
X114750000Y-142500000D03*
X122250000Y-142500000D03*
X111750000Y-142500000D03*
%TO.N,/USB + Power/BOOST_IN*%
X75750000Y-148500000D03*
X79500000Y-147000000D03*
X79500000Y-144000000D03*
X78750000Y-145500000D03*
X80250000Y-145500000D03*
X78000000Y-147000000D03*
X78000000Y-144000000D03*
X77250000Y-145500000D03*
X76500000Y-147000000D03*
%TO.N,USB_RAW_P*%
X82260000Y-130890000D03*
X80960000Y-131900000D03*
%TO.N,BACKLIGHT_ADC*%
X132070000Y-136760000D03*
X131920000Y-138310000D03*
%TO.N,RT*%
X140243759Y-142406089D03*
X144740000Y-149380000D03*
X142422166Y-145789323D03*
X143060000Y-143320000D03*
%TO.N,RH*%
X143700000Y-146120000D03*
X141210817Y-142136899D03*
X145900000Y-148560000D03*
X143097328Y-142219979D03*
%TO.N,TOUCH_TRIGGER*%
X135600000Y-138540000D03*
X137581100Y-138900000D03*
X147600000Y-139550000D03*
X138833677Y-140277916D03*
%TO.N,BOOST_CMD*%
X81130000Y-181180000D03*
X151899620Y-139339620D03*
%TO.N,CONN_BTN*%
X147200000Y-135530000D03*
X135670000Y-135190000D03*
%TD*%
%TA.AperFunction,Conductor*%
%TO.N,GND*%
G36*
X120946004Y-125328996D02*
G01*
X120975000Y-125399000D01*
X120975000Y-130718901D01*
X120981098Y-130724999D01*
X120981098Y-130725000D01*
X155601000Y-130725000D01*
X155671004Y-130753996D01*
X155700000Y-130824000D01*
X155700000Y-156601000D01*
X155671004Y-156671004D01*
X155601000Y-156700000D01*
X110399000Y-156700000D01*
X110328996Y-156671004D01*
X110300000Y-156601000D01*
X110300000Y-155400444D01*
X111449500Y-155400444D01*
X111449500Y-155599556D01*
X111482557Y-155679361D01*
X111525695Y-155783507D01*
X111525696Y-155783508D01*
X111525697Y-155783510D01*
X111666490Y-155924303D01*
X111850444Y-156000500D01*
X111850446Y-156000500D01*
X112049554Y-156000500D01*
X112049556Y-156000500D01*
X112233510Y-155924303D01*
X112374303Y-155783510D01*
X112450500Y-155599556D01*
X112450500Y-155400444D01*
X112749500Y-155400444D01*
X112749500Y-155599556D01*
X112782557Y-155679361D01*
X112825695Y-155783507D01*
X112825696Y-155783508D01*
X112825697Y-155783510D01*
X112966490Y-155924303D01*
X113150444Y-156000500D01*
X113150446Y-156000500D01*
X113349554Y-156000500D01*
X113349556Y-156000500D01*
X113533510Y-155924303D01*
X113674303Y-155783510D01*
X113750500Y-155599556D01*
X113750500Y-155400444D01*
X113674303Y-155216490D01*
X113533510Y-155075697D01*
X113533508Y-155075696D01*
X113533507Y-155075695D01*
X113445653Y-155039305D01*
X113349556Y-154999500D01*
X113150444Y-154999500D01*
X113074249Y-155031061D01*
X112966492Y-155075695D01*
X112825695Y-155216492D01*
X112791366Y-155299371D01*
X112749500Y-155400444D01*
X112450500Y-155400444D01*
X112374303Y-155216490D01*
X112233510Y-155075697D01*
X112233508Y-155075696D01*
X112233507Y-155075695D01*
X112145653Y-155039305D01*
X112049556Y-154999500D01*
X111850444Y-154999500D01*
X111774249Y-155031061D01*
X111666492Y-155075695D01*
X111525695Y-155216492D01*
X111491366Y-155299371D01*
X111449500Y-155400444D01*
X110300000Y-155400444D01*
X110300000Y-154100444D01*
X110799500Y-154100444D01*
X110799500Y-154299556D01*
X110839305Y-154395653D01*
X110875695Y-154483507D01*
X110875696Y-154483508D01*
X110875697Y-154483510D01*
X111016490Y-154624303D01*
X111200444Y-154700500D01*
X111200446Y-154700500D01*
X111399554Y-154700500D01*
X111399556Y-154700500D01*
X111583510Y-154624303D01*
X111724303Y-154483510D01*
X111800500Y-154299556D01*
X111800500Y-154184228D01*
X113639499Y-154184228D01*
X113761367Y-154478444D01*
X113761368Y-154478445D01*
X113761369Y-154478447D01*
X113986553Y-154703631D01*
X114280771Y-154825500D01*
X114280772Y-154825500D01*
X114372812Y-154825500D01*
X114442816Y-154854496D01*
X114471812Y-154924500D01*
X114442816Y-154994504D01*
X114410699Y-155015962D01*
X114367327Y-155033928D01*
X114266492Y-155075695D01*
X114125695Y-155216492D01*
X114091366Y-155299371D01*
X114049500Y-155400444D01*
X114049500Y-155599556D01*
X114082557Y-155679361D01*
X114125695Y-155783507D01*
X114125696Y-155783508D01*
X114125697Y-155783510D01*
X114266490Y-155924303D01*
X114450444Y-156000500D01*
X114450446Y-156000500D01*
X114649554Y-156000500D01*
X114649556Y-156000500D01*
X114833510Y-155924303D01*
X114974303Y-155783510D01*
X115050500Y-155599556D01*
X115050500Y-155400444D01*
X115349500Y-155400444D01*
X115349500Y-155599556D01*
X115382557Y-155679361D01*
X115425695Y-155783507D01*
X115425696Y-155783508D01*
X115425697Y-155783510D01*
X115566490Y-155924303D01*
X115750444Y-156000500D01*
X115750446Y-156000500D01*
X115949554Y-156000500D01*
X115949556Y-156000500D01*
X116133510Y-155924303D01*
X116274303Y-155783510D01*
X116350500Y-155599556D01*
X116350500Y-155400444D01*
X116649500Y-155400444D01*
X116649500Y-155599556D01*
X116682557Y-155679361D01*
X116725695Y-155783507D01*
X116725696Y-155783508D01*
X116725697Y-155783510D01*
X116866490Y-155924303D01*
X117050444Y-156000500D01*
X117050446Y-156000500D01*
X117249554Y-156000500D01*
X117249556Y-156000500D01*
X117433510Y-155924303D01*
X117574303Y-155783510D01*
X117650500Y-155599556D01*
X117650500Y-155400444D01*
X117949500Y-155400444D01*
X117949500Y-155599556D01*
X117982557Y-155679361D01*
X118025695Y-155783507D01*
X118025696Y-155783508D01*
X118025697Y-155783510D01*
X118166490Y-155924303D01*
X118350444Y-156000500D01*
X118350446Y-156000500D01*
X118549554Y-156000500D01*
X118549556Y-156000500D01*
X118733510Y-155924303D01*
X118874303Y-155783510D01*
X118950500Y-155599556D01*
X118950500Y-155400444D01*
X119249500Y-155400444D01*
X119249500Y-155599556D01*
X119282557Y-155679361D01*
X119325695Y-155783507D01*
X119325696Y-155783508D01*
X119325697Y-155783510D01*
X119466490Y-155924303D01*
X119650444Y-156000500D01*
X119650446Y-156000500D01*
X119849554Y-156000500D01*
X119849556Y-156000500D01*
X120033510Y-155924303D01*
X120174303Y-155783510D01*
X120250500Y-155599556D01*
X120250500Y-155400444D01*
X120549500Y-155400444D01*
X120549500Y-155599556D01*
X120582557Y-155679361D01*
X120625695Y-155783507D01*
X120625696Y-155783508D01*
X120625697Y-155783510D01*
X120766490Y-155924303D01*
X120950444Y-156000500D01*
X120950446Y-156000500D01*
X121149554Y-156000500D01*
X121149556Y-156000500D01*
X121333510Y-155924303D01*
X121474303Y-155783510D01*
X121550500Y-155599556D01*
X121550500Y-155400444D01*
X121849500Y-155400444D01*
X121849500Y-155599556D01*
X121882557Y-155679361D01*
X121925695Y-155783507D01*
X121925696Y-155783508D01*
X121925697Y-155783510D01*
X122066490Y-155924303D01*
X122250444Y-156000500D01*
X122250446Y-156000500D01*
X122449554Y-156000500D01*
X122449556Y-156000500D01*
X122633510Y-155924303D01*
X122774303Y-155783510D01*
X122850500Y-155599556D01*
X122850500Y-155400444D01*
X123149500Y-155400444D01*
X123149500Y-155599556D01*
X123182557Y-155679361D01*
X123225695Y-155783507D01*
X123225696Y-155783508D01*
X123225697Y-155783510D01*
X123366490Y-155924303D01*
X123550444Y-156000500D01*
X123550446Y-156000500D01*
X123749554Y-156000500D01*
X123749556Y-156000500D01*
X123933510Y-155924303D01*
X124074303Y-155783510D01*
X124150500Y-155599556D01*
X124150500Y-155400444D01*
X124449500Y-155400444D01*
X124449500Y-155599556D01*
X124482557Y-155679361D01*
X124525695Y-155783507D01*
X124525696Y-155783508D01*
X124525697Y-155783510D01*
X124666490Y-155924303D01*
X124850444Y-156000500D01*
X124850446Y-156000500D01*
X125049554Y-156000500D01*
X125049556Y-156000500D01*
X125233510Y-155924303D01*
X125374303Y-155783510D01*
X125450500Y-155599556D01*
X125450500Y-155400444D01*
X127049500Y-155400444D01*
X127049500Y-155599556D01*
X127082557Y-155679361D01*
X127125695Y-155783507D01*
X127125696Y-155783508D01*
X127125697Y-155783510D01*
X127266490Y-155924303D01*
X127450444Y-156000500D01*
X127450446Y-156000500D01*
X127649554Y-156000500D01*
X127649556Y-156000500D01*
X127833510Y-155924303D01*
X127974303Y-155783510D01*
X128050500Y-155599556D01*
X128050500Y-155400444D01*
X128349500Y-155400444D01*
X128349500Y-155599556D01*
X128382557Y-155679361D01*
X128425695Y-155783507D01*
X128425696Y-155783508D01*
X128425697Y-155783510D01*
X128566490Y-155924303D01*
X128750444Y-156000500D01*
X128750446Y-156000500D01*
X128949554Y-156000500D01*
X128949556Y-156000500D01*
X129133510Y-155924303D01*
X129274303Y-155783510D01*
X129350500Y-155599556D01*
X129350500Y-155400444D01*
X129649500Y-155400444D01*
X129649500Y-155599556D01*
X129682557Y-155679361D01*
X129725695Y-155783507D01*
X129725696Y-155783508D01*
X129725697Y-155783510D01*
X129866490Y-155924303D01*
X130050444Y-156000500D01*
X130050446Y-156000500D01*
X130249554Y-156000500D01*
X130249556Y-156000500D01*
X130433510Y-155924303D01*
X130574303Y-155783510D01*
X130650500Y-155599556D01*
X130650500Y-155400444D01*
X130949500Y-155400444D01*
X130949500Y-155599556D01*
X130982557Y-155679361D01*
X131025695Y-155783507D01*
X131025696Y-155783508D01*
X131025697Y-155783510D01*
X131166490Y-155924303D01*
X131350444Y-156000500D01*
X131350446Y-156000500D01*
X131549554Y-156000500D01*
X131549556Y-156000500D01*
X131733510Y-155924303D01*
X131874303Y-155783510D01*
X131950500Y-155599556D01*
X131950500Y-155400444D01*
X132249500Y-155400444D01*
X132249500Y-155599556D01*
X132282557Y-155679361D01*
X132325695Y-155783507D01*
X132325696Y-155783508D01*
X132325697Y-155783510D01*
X132466490Y-155924303D01*
X132650444Y-156000500D01*
X132650446Y-156000500D01*
X132849554Y-156000500D01*
X132849556Y-156000500D01*
X133033510Y-155924303D01*
X133174303Y-155783510D01*
X133250500Y-155599556D01*
X133250500Y-155400444D01*
X133549500Y-155400444D01*
X133549500Y-155599556D01*
X133582557Y-155679361D01*
X133625695Y-155783507D01*
X133625696Y-155783508D01*
X133625697Y-155783510D01*
X133766490Y-155924303D01*
X133950444Y-156000500D01*
X133950446Y-156000500D01*
X134149554Y-156000500D01*
X134149556Y-156000500D01*
X134333510Y-155924303D01*
X134474303Y-155783510D01*
X134550500Y-155599556D01*
X134550500Y-155400444D01*
X134849500Y-155400444D01*
X134849500Y-155599556D01*
X134882557Y-155679361D01*
X134925695Y-155783507D01*
X134925696Y-155783508D01*
X134925697Y-155783510D01*
X135066490Y-155924303D01*
X135250444Y-156000500D01*
X135250446Y-156000500D01*
X135449554Y-156000500D01*
X135449556Y-156000500D01*
X135633510Y-155924303D01*
X135774303Y-155783510D01*
X135850500Y-155599556D01*
X135850500Y-155400444D01*
X136149500Y-155400444D01*
X136149500Y-155599556D01*
X136182557Y-155679361D01*
X136225695Y-155783507D01*
X136225696Y-155783508D01*
X136225697Y-155783510D01*
X136366490Y-155924303D01*
X136550444Y-156000500D01*
X136550446Y-156000500D01*
X136749554Y-156000500D01*
X136749556Y-156000500D01*
X136933510Y-155924303D01*
X137074303Y-155783510D01*
X137150500Y-155599556D01*
X137150500Y-155400444D01*
X137074303Y-155216490D01*
X136933510Y-155075697D01*
X136933508Y-155075696D01*
X136933507Y-155075695D01*
X136905823Y-155064228D01*
X137429499Y-155064228D01*
X137551367Y-155358444D01*
X137551368Y-155358445D01*
X137551369Y-155358447D01*
X137776553Y-155583631D01*
X137776554Y-155583631D01*
X137776555Y-155583632D01*
X137814999Y-155599556D01*
X138070771Y-155705500D01*
X138070772Y-155705500D01*
X138389228Y-155705500D01*
X138389229Y-155705500D01*
X138683447Y-155583631D01*
X138908631Y-155358447D01*
X139030500Y-155064229D01*
X139030500Y-155064228D01*
X139429499Y-155064228D01*
X139551367Y-155358444D01*
X139551368Y-155358445D01*
X139551369Y-155358447D01*
X139776553Y-155583631D01*
X139776554Y-155583631D01*
X139776555Y-155583632D01*
X139814999Y-155599556D01*
X140070771Y-155705500D01*
X140070772Y-155705500D01*
X140389228Y-155705500D01*
X140389229Y-155705500D01*
X140683447Y-155583631D01*
X140908631Y-155358447D01*
X141030500Y-155064229D01*
X141030500Y-155064228D01*
X141429499Y-155064228D01*
X141551367Y-155358444D01*
X141551368Y-155358445D01*
X141551369Y-155358447D01*
X141776553Y-155583631D01*
X141776554Y-155583631D01*
X141776555Y-155583632D01*
X141814999Y-155599556D01*
X142070771Y-155705500D01*
X142070772Y-155705500D01*
X142389228Y-155705500D01*
X142389229Y-155705500D01*
X142683447Y-155583631D01*
X142908631Y-155358447D01*
X143030500Y-155064229D01*
X143030500Y-155064228D01*
X145429499Y-155064228D01*
X145551367Y-155358444D01*
X145551368Y-155358445D01*
X145551369Y-155358447D01*
X145776553Y-155583631D01*
X145776554Y-155583631D01*
X145776555Y-155583632D01*
X145814999Y-155599556D01*
X146070771Y-155705500D01*
X146070772Y-155705500D01*
X146389228Y-155705500D01*
X146389229Y-155705500D01*
X146683447Y-155583631D01*
X146908631Y-155358447D01*
X147030500Y-155064229D01*
X147030500Y-154195771D01*
X146991015Y-154100445D01*
X146946780Y-153993651D01*
X146933100Y-153960626D01*
X147429500Y-153960626D01*
X147429500Y-155299367D01*
X147429501Y-155299374D01*
X147455637Y-155430775D01*
X147455638Y-155430776D01*
X147555207Y-155579793D01*
X147704224Y-155679362D01*
X147704223Y-155679362D01*
X147730361Y-155684560D01*
X147835629Y-155705500D01*
X148624370Y-155705499D01*
X148755776Y-155679362D01*
X148904793Y-155579793D01*
X149004362Y-155430776D01*
X149030500Y-155299371D01*
X149030499Y-153960630D01*
X149004362Y-153829224D01*
X148904793Y-153680207D01*
X148755776Y-153580638D01*
X148755775Y-153580637D01*
X148755776Y-153580637D01*
X148624371Y-153554500D01*
X147835632Y-153554500D01*
X147835625Y-153554501D01*
X147704224Y-153580637D01*
X147704223Y-153580638D01*
X147555208Y-153680206D01*
X147555206Y-153680208D01*
X147455637Y-153829224D01*
X147429500Y-153960626D01*
X146933100Y-153960626D01*
X146908632Y-153901555D01*
X146908631Y-153901554D01*
X146908631Y-153901553D01*
X146683447Y-153676369D01*
X146683445Y-153676368D01*
X146683444Y-153676367D01*
X146477261Y-153590964D01*
X146389229Y-153554500D01*
X146070771Y-153554500D01*
X146007671Y-153580637D01*
X145776555Y-153676367D01*
X145551367Y-153901555D01*
X145429500Y-154195771D01*
X145429500Y-155064228D01*
X145429499Y-155064228D01*
X143030500Y-155064228D01*
X143030500Y-154195771D01*
X142933102Y-153960632D01*
X142908632Y-153901555D01*
X142908631Y-153901554D01*
X142908631Y-153901553D01*
X142683447Y-153676369D01*
X142683445Y-153676368D01*
X142683444Y-153676367D01*
X142477261Y-153590964D01*
X142389229Y-153554500D01*
X142070771Y-153554500D01*
X142007671Y-153580637D01*
X141776555Y-153676367D01*
X141551367Y-153901555D01*
X141429500Y-154195771D01*
X141429500Y-155064228D01*
X141429499Y-155064228D01*
X141030500Y-155064228D01*
X141030500Y-154195771D01*
X140933102Y-153960632D01*
X140908632Y-153901555D01*
X140908631Y-153901554D01*
X140908631Y-153901553D01*
X140683447Y-153676369D01*
X140683445Y-153676368D01*
X140683444Y-153676367D01*
X140484860Y-153594111D01*
X140484856Y-153594110D01*
X140389229Y-153554500D01*
X140070771Y-153554500D01*
X140007671Y-153580637D01*
X139776555Y-153676367D01*
X139551367Y-153901555D01*
X139429500Y-154195771D01*
X139429500Y-155064228D01*
X139429499Y-155064228D01*
X139030500Y-155064228D01*
X139030500Y-154195771D01*
X138933102Y-153960632D01*
X138908632Y-153901555D01*
X138908631Y-153901554D01*
X138908631Y-153901553D01*
X138683447Y-153676369D01*
X138683445Y-153676368D01*
X138683444Y-153676367D01*
X138477261Y-153590964D01*
X138389229Y-153554500D01*
X138175472Y-153554500D01*
X138105468Y-153525504D01*
X138076472Y-153455500D01*
X138105468Y-153385496D01*
X138137587Y-153364036D01*
X138145187Y-153360888D01*
X138233510Y-153324303D01*
X138374303Y-153183510D01*
X138450500Y-152999556D01*
X138450500Y-152800444D01*
X138749500Y-152800444D01*
X138749500Y-152999556D01*
X138789305Y-153095653D01*
X138825695Y-153183507D01*
X138825696Y-153183508D01*
X138825697Y-153183510D01*
X138966490Y-153324303D01*
X139150444Y-153400500D01*
X139150446Y-153400500D01*
X139349554Y-153400500D01*
X139349556Y-153400500D01*
X139533510Y-153324303D01*
X139674303Y-153183510D01*
X139750500Y-152999556D01*
X139750500Y-152800444D01*
X140049500Y-152800444D01*
X140049500Y-152999556D01*
X140089305Y-153095653D01*
X140125695Y-153183507D01*
X140125696Y-153183508D01*
X140125697Y-153183510D01*
X140266490Y-153324303D01*
X140450444Y-153400500D01*
X140526421Y-153400500D01*
X140649554Y-153400500D01*
X140649556Y-153400500D01*
X140833510Y-153324303D01*
X140974303Y-153183510D01*
X141050500Y-152999556D01*
X141050500Y-152800444D01*
X141025143Y-152739228D01*
X152904499Y-152739228D01*
X153026367Y-153033444D01*
X153026368Y-153033445D01*
X153026369Y-153033447D01*
X153251553Y-153258631D01*
X153545771Y-153380500D01*
X153545772Y-153380500D01*
X154414228Y-153380500D01*
X154414229Y-153380500D01*
X154708447Y-153258631D01*
X154933631Y-153033447D01*
X155055500Y-152739229D01*
X155055500Y-152420771D01*
X154933631Y-152126553D01*
X154708447Y-151901369D01*
X154708445Y-151901368D01*
X154708444Y-151901367D01*
X154518248Y-151822586D01*
X154414229Y-151779500D01*
X153545771Y-151779500D01*
X153468921Y-151811332D01*
X153251555Y-151901367D01*
X153026367Y-152126555D01*
X152904500Y-152420771D01*
X152904500Y-152739228D01*
X152904499Y-152739228D01*
X141025143Y-152739228D01*
X140974303Y-152616490D01*
X140833510Y-152475697D01*
X140833508Y-152475696D01*
X140833507Y-152475695D01*
X140745653Y-152439305D01*
X140649556Y-152399500D01*
X140450444Y-152399500D01*
X140399092Y-152420771D01*
X140266492Y-152475695D01*
X140125695Y-152616492D01*
X140101668Y-152674500D01*
X140049500Y-152800444D01*
X139750500Y-152800444D01*
X139674303Y-152616490D01*
X139533510Y-152475697D01*
X139533508Y-152475696D01*
X139533507Y-152475695D01*
X139445653Y-152439305D01*
X139349556Y-152399500D01*
X139150444Y-152399500D01*
X139099092Y-152420771D01*
X138966492Y-152475695D01*
X138825695Y-152616492D01*
X138801668Y-152674500D01*
X138749500Y-152800444D01*
X138450500Y-152800444D01*
X138374303Y-152616490D01*
X138233510Y-152475697D01*
X138233508Y-152475696D01*
X138233507Y-152475695D01*
X138145653Y-152439305D01*
X138049556Y-152399500D01*
X137850444Y-152399500D01*
X137799092Y-152420771D01*
X137666492Y-152475695D01*
X137525695Y-152616492D01*
X137501668Y-152674500D01*
X137449500Y-152800444D01*
X137449500Y-152999556D01*
X137489305Y-153095653D01*
X137525695Y-153183507D01*
X137525696Y-153183508D01*
X137525697Y-153183510D01*
X137666490Y-153324303D01*
X137850444Y-153400500D01*
X137850446Y-153400500D01*
X137944854Y-153400500D01*
X138014858Y-153429496D01*
X138043854Y-153499500D01*
X138014858Y-153569504D01*
X137982739Y-153590964D01*
X137776555Y-153676367D01*
X137551367Y-153901555D01*
X137429500Y-154195771D01*
X137429500Y-155064228D01*
X137429499Y-155064228D01*
X136905823Y-155064228D01*
X136845653Y-155039305D01*
X136749556Y-154999500D01*
X136550444Y-154999500D01*
X136474249Y-155031061D01*
X136366492Y-155075695D01*
X136225695Y-155216492D01*
X136191366Y-155299371D01*
X136149500Y-155400444D01*
X135850500Y-155400444D01*
X135774303Y-155216490D01*
X135633510Y-155075697D01*
X135633508Y-155075696D01*
X135633507Y-155075695D01*
X135545653Y-155039305D01*
X135449556Y-154999500D01*
X135250444Y-154999500D01*
X135174249Y-155031061D01*
X135066492Y-155075695D01*
X134925695Y-155216492D01*
X134891366Y-155299371D01*
X134849500Y-155400444D01*
X134550500Y-155400444D01*
X134474303Y-155216490D01*
X134333510Y-155075697D01*
X134333508Y-155075696D01*
X134333507Y-155075695D01*
X134245653Y-155039305D01*
X134149556Y-154999500D01*
X133950444Y-154999500D01*
X133874249Y-155031061D01*
X133766492Y-155075695D01*
X133625695Y-155216492D01*
X133591366Y-155299371D01*
X133549500Y-155400444D01*
X133250500Y-155400444D01*
X133174303Y-155216490D01*
X133033510Y-155075697D01*
X133033508Y-155075696D01*
X133033507Y-155075695D01*
X132945653Y-155039305D01*
X132849556Y-154999500D01*
X132650444Y-154999500D01*
X132574249Y-155031061D01*
X132466492Y-155075695D01*
X132325695Y-155216492D01*
X132291366Y-155299371D01*
X132249500Y-155400444D01*
X131950500Y-155400444D01*
X131874303Y-155216490D01*
X131733510Y-155075697D01*
X131733508Y-155075696D01*
X131733507Y-155075695D01*
X131645653Y-155039305D01*
X131549556Y-154999500D01*
X131350444Y-154999500D01*
X131274249Y-155031061D01*
X131166492Y-155075695D01*
X131025695Y-155216492D01*
X130991366Y-155299371D01*
X130949500Y-155400444D01*
X130650500Y-155400444D01*
X130574303Y-155216490D01*
X130433510Y-155075697D01*
X130433508Y-155075696D01*
X130433507Y-155075695D01*
X130345653Y-155039305D01*
X130249556Y-154999500D01*
X130050444Y-154999500D01*
X129974249Y-155031061D01*
X129866492Y-155075695D01*
X129725695Y-155216492D01*
X129691366Y-155299371D01*
X129649500Y-155400444D01*
X129350500Y-155400444D01*
X129274303Y-155216490D01*
X129133510Y-155075697D01*
X129133508Y-155075696D01*
X129133507Y-155075695D01*
X129045653Y-155039305D01*
X128949556Y-154999500D01*
X128750444Y-154999500D01*
X128674249Y-155031061D01*
X128566492Y-155075695D01*
X128425695Y-155216492D01*
X128391366Y-155299371D01*
X128349500Y-155400444D01*
X128050500Y-155400444D01*
X127974303Y-155216490D01*
X127833510Y-155075697D01*
X127833508Y-155075696D01*
X127833507Y-155075695D01*
X127745653Y-155039305D01*
X127649556Y-154999500D01*
X127450444Y-154999500D01*
X127374249Y-155031061D01*
X127266492Y-155075695D01*
X127125695Y-155216492D01*
X127091366Y-155299371D01*
X127049500Y-155400444D01*
X125450500Y-155400444D01*
X125374303Y-155216490D01*
X125233510Y-155075697D01*
X125233508Y-155075696D01*
X125233507Y-155075695D01*
X125145653Y-155039305D01*
X125049556Y-154999500D01*
X124850444Y-154999500D01*
X124774249Y-155031061D01*
X124666492Y-155075695D01*
X124525695Y-155216492D01*
X124491366Y-155299371D01*
X124449500Y-155400444D01*
X124150500Y-155400444D01*
X124074303Y-155216490D01*
X123933510Y-155075697D01*
X123933508Y-155075696D01*
X123933507Y-155075695D01*
X123845653Y-155039305D01*
X123749556Y-154999500D01*
X123550444Y-154999500D01*
X123474249Y-155031061D01*
X123366492Y-155075695D01*
X123225695Y-155216492D01*
X123191366Y-155299371D01*
X123149500Y-155400444D01*
X122850500Y-155400444D01*
X122774303Y-155216490D01*
X122633510Y-155075697D01*
X122633508Y-155075696D01*
X122633507Y-155075695D01*
X122545653Y-155039305D01*
X122449556Y-154999500D01*
X122250444Y-154999500D01*
X122174249Y-155031061D01*
X122066492Y-155075695D01*
X121925695Y-155216492D01*
X121891366Y-155299371D01*
X121849500Y-155400444D01*
X121550500Y-155400444D01*
X121474303Y-155216490D01*
X121333510Y-155075697D01*
X121333508Y-155075696D01*
X121333507Y-155075695D01*
X121245653Y-155039305D01*
X121149556Y-154999500D01*
X120950444Y-154999500D01*
X120874249Y-155031061D01*
X120766492Y-155075695D01*
X120625695Y-155216492D01*
X120591366Y-155299371D01*
X120549500Y-155400444D01*
X120250500Y-155400444D01*
X120174303Y-155216490D01*
X120033510Y-155075697D01*
X120033508Y-155075696D01*
X120033507Y-155075695D01*
X119945653Y-155039305D01*
X119849556Y-154999500D01*
X119650444Y-154999500D01*
X119574249Y-155031061D01*
X119466492Y-155075695D01*
X119325695Y-155216492D01*
X119291366Y-155299371D01*
X119249500Y-155400444D01*
X118950500Y-155400444D01*
X118874303Y-155216490D01*
X118733510Y-155075697D01*
X118733508Y-155075696D01*
X118733507Y-155075695D01*
X118645653Y-155039305D01*
X118549556Y-154999500D01*
X118350444Y-154999500D01*
X118274249Y-155031061D01*
X118166492Y-155075695D01*
X118025695Y-155216492D01*
X117991366Y-155299371D01*
X117949500Y-155400444D01*
X117650500Y-155400444D01*
X117574303Y-155216490D01*
X117433510Y-155075697D01*
X117433508Y-155075696D01*
X117433507Y-155075695D01*
X117345653Y-155039305D01*
X117249556Y-154999500D01*
X117050444Y-154999500D01*
X116974249Y-155031061D01*
X116866492Y-155075695D01*
X116725695Y-155216492D01*
X116691366Y-155299371D01*
X116649500Y-155400444D01*
X116350500Y-155400444D01*
X116274303Y-155216490D01*
X116133510Y-155075697D01*
X116133508Y-155075696D01*
X116133507Y-155075695D01*
X116045653Y-155039305D01*
X115949556Y-154999500D01*
X115750444Y-154999500D01*
X115674249Y-155031061D01*
X115566492Y-155075695D01*
X115425695Y-155216492D01*
X115391366Y-155299371D01*
X115349500Y-155400444D01*
X115050500Y-155400444D01*
X114974303Y-155216490D01*
X114833510Y-155075697D01*
X114833508Y-155075696D01*
X114833507Y-155075695D01*
X114732336Y-155033789D01*
X114649556Y-154999500D01*
X114649555Y-154999500D01*
X114640547Y-154995769D01*
X114641638Y-154993134D01*
X114588847Y-154957857D01*
X114574068Y-154883541D01*
X114616167Y-154820541D01*
X114633274Y-154811397D01*
X114893447Y-154703631D01*
X115118631Y-154478447D01*
X115240500Y-154184229D01*
X115240500Y-154100444D01*
X131599500Y-154100444D01*
X131599500Y-154299556D01*
X131639305Y-154395653D01*
X131675695Y-154483507D01*
X131675696Y-154483508D01*
X131675697Y-154483510D01*
X131816490Y-154624303D01*
X132000444Y-154700500D01*
X132000446Y-154700500D01*
X132199554Y-154700500D01*
X132199556Y-154700500D01*
X132383510Y-154624303D01*
X132524303Y-154483510D01*
X132600500Y-154299556D01*
X132600500Y-154100444D01*
X132899500Y-154100444D01*
X132899500Y-154299556D01*
X132939305Y-154395653D01*
X132975695Y-154483507D01*
X132975696Y-154483508D01*
X132975697Y-154483510D01*
X133116490Y-154624303D01*
X133300444Y-154700500D01*
X133300446Y-154700500D01*
X133499554Y-154700500D01*
X133499556Y-154700500D01*
X133683510Y-154624303D01*
X133824303Y-154483510D01*
X133900500Y-154299556D01*
X133900500Y-154100444D01*
X134199500Y-154100444D01*
X134199500Y-154299556D01*
X134239305Y-154395653D01*
X134275695Y-154483507D01*
X134275696Y-154483508D01*
X134275697Y-154483510D01*
X134416490Y-154624303D01*
X134600444Y-154700500D01*
X134600446Y-154700500D01*
X134799554Y-154700500D01*
X134799556Y-154700500D01*
X134983510Y-154624303D01*
X135124303Y-154483510D01*
X135200500Y-154299556D01*
X135200500Y-154100444D01*
X135499500Y-154100444D01*
X135499500Y-154299556D01*
X135539305Y-154395653D01*
X135575695Y-154483507D01*
X135575696Y-154483508D01*
X135575697Y-154483510D01*
X135716490Y-154624303D01*
X135900444Y-154700500D01*
X135900446Y-154700500D01*
X136099554Y-154700500D01*
X136099556Y-154700500D01*
X136283510Y-154624303D01*
X136424303Y-154483510D01*
X136500500Y-154299556D01*
X136500500Y-154100444D01*
X136442585Y-153960626D01*
X136424304Y-153916492D01*
X136424303Y-153916491D01*
X136424303Y-153916490D01*
X136283510Y-153775697D01*
X136283508Y-153775696D01*
X136283507Y-153775695D01*
X136195653Y-153739305D01*
X136099556Y-153699500D01*
X135900444Y-153699500D01*
X135824249Y-153731061D01*
X135716492Y-153775695D01*
X135575695Y-153916492D01*
X135519402Y-154052395D01*
X135499500Y-154100444D01*
X135200500Y-154100444D01*
X135142585Y-153960626D01*
X135124304Y-153916492D01*
X135124303Y-153916491D01*
X135124303Y-153916490D01*
X134983510Y-153775697D01*
X134983508Y-153775696D01*
X134983507Y-153775695D01*
X134895653Y-153739305D01*
X134799556Y-153699500D01*
X134600444Y-153699500D01*
X134524249Y-153731061D01*
X134416492Y-153775695D01*
X134275695Y-153916492D01*
X134219402Y-154052395D01*
X134199500Y-154100444D01*
X133900500Y-154100444D01*
X133842585Y-153960626D01*
X133824304Y-153916492D01*
X133824303Y-153916491D01*
X133824303Y-153916490D01*
X133683510Y-153775697D01*
X133683508Y-153775696D01*
X133683507Y-153775695D01*
X133595653Y-153739305D01*
X133499556Y-153699500D01*
X133300444Y-153699500D01*
X133224249Y-153731061D01*
X133116492Y-153775695D01*
X132975695Y-153916492D01*
X132919402Y-154052395D01*
X132899500Y-154100444D01*
X132600500Y-154100444D01*
X132542585Y-153960626D01*
X132524304Y-153916492D01*
X132524303Y-153916491D01*
X132524303Y-153916490D01*
X132383510Y-153775697D01*
X132383508Y-153775696D01*
X132383507Y-153775695D01*
X132295653Y-153739305D01*
X132199556Y-153699500D01*
X132000444Y-153699500D01*
X131924249Y-153731061D01*
X131816492Y-153775695D01*
X131675695Y-153916492D01*
X131619402Y-154052395D01*
X131599500Y-154100444D01*
X115240500Y-154100444D01*
X115240500Y-153315771D01*
X115185716Y-153183510D01*
X115118632Y-153021555D01*
X115118631Y-153021554D01*
X115118631Y-153021553D01*
X114897522Y-152800444D01*
X115349500Y-152800444D01*
X115349500Y-152999556D01*
X115389305Y-153095653D01*
X115425695Y-153183507D01*
X115425696Y-153183508D01*
X115425697Y-153183510D01*
X115566490Y-153324303D01*
X115750444Y-153400500D01*
X115750446Y-153400500D01*
X115949554Y-153400500D01*
X115949556Y-153400500D01*
X116133510Y-153324303D01*
X116274303Y-153183510D01*
X116350500Y-152999556D01*
X116350500Y-152800444D01*
X116649500Y-152800444D01*
X116649500Y-152999556D01*
X116689305Y-153095653D01*
X116725695Y-153183507D01*
X116725696Y-153183508D01*
X116725697Y-153183510D01*
X116866490Y-153324303D01*
X117050444Y-153400500D01*
X117050446Y-153400500D01*
X117249554Y-153400500D01*
X117249556Y-153400500D01*
X117433510Y-153324303D01*
X117574303Y-153183510D01*
X117650500Y-152999556D01*
X117650500Y-152800444D01*
X117949500Y-152800444D01*
X117949500Y-152999556D01*
X117989305Y-153095653D01*
X118025695Y-153183507D01*
X118025696Y-153183508D01*
X118025697Y-153183510D01*
X118166490Y-153324303D01*
X118350444Y-153400500D01*
X118350446Y-153400500D01*
X118549554Y-153400500D01*
X118549556Y-153400500D01*
X118733510Y-153324303D01*
X118874303Y-153183510D01*
X118950500Y-152999556D01*
X118950500Y-152800444D01*
X119249500Y-152800444D01*
X119249500Y-152999556D01*
X119289305Y-153095653D01*
X119325695Y-153183507D01*
X119325696Y-153183508D01*
X119325697Y-153183510D01*
X119466490Y-153324303D01*
X119650444Y-153400500D01*
X119650446Y-153400500D01*
X119849554Y-153400500D01*
X119849556Y-153400500D01*
X120033510Y-153324303D01*
X120174303Y-153183510D01*
X120250500Y-152999556D01*
X120250500Y-152800444D01*
X120549500Y-152800444D01*
X120549500Y-152999556D01*
X120589305Y-153095653D01*
X120625695Y-153183507D01*
X120625696Y-153183508D01*
X120625697Y-153183510D01*
X120766490Y-153324303D01*
X120950444Y-153400500D01*
X120950446Y-153400500D01*
X121149554Y-153400500D01*
X121149556Y-153400500D01*
X121333510Y-153324303D01*
X121474303Y-153183510D01*
X121550500Y-152999556D01*
X121550500Y-152800444D01*
X130949500Y-152800444D01*
X130949500Y-152999556D01*
X130989305Y-153095653D01*
X131025695Y-153183507D01*
X131025696Y-153183508D01*
X131025697Y-153183510D01*
X131166490Y-153324303D01*
X131350444Y-153400500D01*
X131350446Y-153400500D01*
X131549554Y-153400500D01*
X131549556Y-153400500D01*
X131733510Y-153324303D01*
X131874303Y-153183510D01*
X131950500Y-152999556D01*
X131950500Y-152800444D01*
X132249500Y-152800444D01*
X132249500Y-152999556D01*
X132289305Y-153095653D01*
X132325695Y-153183507D01*
X132325696Y-153183508D01*
X132325697Y-153183510D01*
X132466490Y-153324303D01*
X132650444Y-153400500D01*
X132650446Y-153400500D01*
X132849554Y-153400500D01*
X132849556Y-153400500D01*
X133033510Y-153324303D01*
X133174303Y-153183510D01*
X133250500Y-152999556D01*
X133250500Y-152800444D01*
X133549500Y-152800444D01*
X133549500Y-152999556D01*
X133589305Y-153095653D01*
X133625695Y-153183507D01*
X133625696Y-153183508D01*
X133625697Y-153183510D01*
X133766490Y-153324303D01*
X133950444Y-153400500D01*
X133950446Y-153400500D01*
X134149554Y-153400500D01*
X134149556Y-153400500D01*
X134333510Y-153324303D01*
X134474303Y-153183510D01*
X134550500Y-152999556D01*
X134550500Y-152800444D01*
X134849500Y-152800444D01*
X134849500Y-152999556D01*
X134889305Y-153095653D01*
X134925695Y-153183507D01*
X134925696Y-153183508D01*
X134925697Y-153183510D01*
X135066490Y-153324303D01*
X135250444Y-153400500D01*
X135250446Y-153400500D01*
X135449554Y-153400500D01*
X135449556Y-153400500D01*
X135633510Y-153324303D01*
X135774303Y-153183510D01*
X135850500Y-152999556D01*
X135850500Y-152800444D01*
X136149500Y-152800444D01*
X136149500Y-152999556D01*
X136189305Y-153095653D01*
X136225695Y-153183507D01*
X136225696Y-153183508D01*
X136225697Y-153183510D01*
X136366490Y-153324303D01*
X136550444Y-153400500D01*
X136550446Y-153400500D01*
X136749554Y-153400500D01*
X136749556Y-153400500D01*
X136933510Y-153324303D01*
X137074303Y-153183510D01*
X137150500Y-152999556D01*
X137150500Y-152800444D01*
X137074303Y-152616490D01*
X136933510Y-152475697D01*
X136933508Y-152475696D01*
X136933507Y-152475695D01*
X136845653Y-152439305D01*
X136749556Y-152399500D01*
X136550444Y-152399500D01*
X136499092Y-152420771D01*
X136366492Y-152475695D01*
X136225695Y-152616492D01*
X136201668Y-152674500D01*
X136149500Y-152800444D01*
X135850500Y-152800444D01*
X135774303Y-152616490D01*
X135633510Y-152475697D01*
X135633508Y-152475696D01*
X135633507Y-152475695D01*
X135545653Y-152439305D01*
X135449556Y-152399500D01*
X135250444Y-152399500D01*
X135199092Y-152420771D01*
X135066492Y-152475695D01*
X134925695Y-152616492D01*
X134901668Y-152674500D01*
X134849500Y-152800444D01*
X134550500Y-152800444D01*
X134474303Y-152616490D01*
X134333510Y-152475697D01*
X134333508Y-152475696D01*
X134333507Y-152475695D01*
X134245653Y-152439305D01*
X134149556Y-152399500D01*
X133950444Y-152399500D01*
X133899092Y-152420771D01*
X133766492Y-152475695D01*
X133625695Y-152616492D01*
X133601668Y-152674500D01*
X133549500Y-152800444D01*
X133250500Y-152800444D01*
X133174303Y-152616490D01*
X133033510Y-152475697D01*
X133033508Y-152475696D01*
X133033507Y-152475695D01*
X132945653Y-152439305D01*
X132849556Y-152399500D01*
X132650444Y-152399500D01*
X132599092Y-152420771D01*
X132466492Y-152475695D01*
X132325695Y-152616492D01*
X132301668Y-152674500D01*
X132249500Y-152800444D01*
X131950500Y-152800444D01*
X131874303Y-152616490D01*
X131733510Y-152475697D01*
X131733508Y-152475696D01*
X131733507Y-152475695D01*
X131645653Y-152439305D01*
X131549556Y-152399500D01*
X131350444Y-152399500D01*
X131299092Y-152420771D01*
X131166492Y-152475695D01*
X131025695Y-152616492D01*
X131001668Y-152674500D01*
X130949500Y-152800444D01*
X121550500Y-152800444D01*
X121474303Y-152616490D01*
X121333510Y-152475697D01*
X121333508Y-152475696D01*
X121333507Y-152475695D01*
X121245653Y-152439305D01*
X121149556Y-152399500D01*
X120950444Y-152399500D01*
X120899092Y-152420771D01*
X120766492Y-152475695D01*
X120625695Y-152616492D01*
X120601668Y-152674500D01*
X120549500Y-152800444D01*
X120250500Y-152800444D01*
X120174303Y-152616490D01*
X120033510Y-152475697D01*
X120033508Y-152475696D01*
X120033507Y-152475695D01*
X119945653Y-152439305D01*
X119849556Y-152399500D01*
X119650444Y-152399500D01*
X119599092Y-152420771D01*
X119466492Y-152475695D01*
X119325695Y-152616492D01*
X119301668Y-152674500D01*
X119249500Y-152800444D01*
X118950500Y-152800444D01*
X118874303Y-152616490D01*
X118733510Y-152475697D01*
X118733508Y-152475696D01*
X118733507Y-152475695D01*
X118645653Y-152439305D01*
X118549556Y-152399500D01*
X118350444Y-152399500D01*
X118299092Y-152420771D01*
X118166492Y-152475695D01*
X118025695Y-152616492D01*
X118001668Y-152674500D01*
X117949500Y-152800444D01*
X117650500Y-152800444D01*
X117574303Y-152616490D01*
X117433510Y-152475697D01*
X117433508Y-152475696D01*
X117433507Y-152475695D01*
X117345653Y-152439305D01*
X117249556Y-152399500D01*
X117050444Y-152399500D01*
X116999092Y-152420771D01*
X116866492Y-152475695D01*
X116725695Y-152616492D01*
X116701668Y-152674500D01*
X116649500Y-152800444D01*
X116350500Y-152800444D01*
X116274303Y-152616490D01*
X116133510Y-152475697D01*
X116133508Y-152475696D01*
X116133507Y-152475695D01*
X116045653Y-152439305D01*
X115949556Y-152399500D01*
X115750444Y-152399500D01*
X115699092Y-152420771D01*
X115566492Y-152475695D01*
X115425695Y-152616492D01*
X115401668Y-152674500D01*
X115349500Y-152800444D01*
X114897522Y-152800444D01*
X114893447Y-152796369D01*
X114893445Y-152796368D01*
X114893444Y-152796367D01*
X114703248Y-152717586D01*
X114599229Y-152674500D01*
X114280771Y-152674500D01*
X114203921Y-152706332D01*
X113986555Y-152796367D01*
X113761367Y-153021555D01*
X113639500Y-153315771D01*
X113639500Y-154184228D01*
X113639499Y-154184228D01*
X111800500Y-154184228D01*
X111800500Y-154100444D01*
X111742585Y-153960626D01*
X111724304Y-153916492D01*
X111724303Y-153916491D01*
X111724303Y-153916490D01*
X111583510Y-153775697D01*
X111583508Y-153775696D01*
X111583507Y-153775695D01*
X111495653Y-153739305D01*
X111399556Y-153699500D01*
X111200444Y-153699500D01*
X111124249Y-153731061D01*
X111016492Y-153775695D01*
X110875695Y-153916492D01*
X110819402Y-154052395D01*
X110799500Y-154100444D01*
X110300000Y-154100444D01*
X110300000Y-151500444D01*
X110799500Y-151500444D01*
X110799500Y-151699556D01*
X110832614Y-151779500D01*
X110875695Y-151883507D01*
X110875696Y-151883508D01*
X110875697Y-151883510D01*
X111016490Y-152024303D01*
X111200444Y-152100500D01*
X111200446Y-152100500D01*
X111399554Y-152100500D01*
X111399556Y-152100500D01*
X111583510Y-152024303D01*
X111724303Y-151883510D01*
X111800500Y-151699556D01*
X111800500Y-151500444D01*
X114699500Y-151500444D01*
X114699500Y-151699556D01*
X114732614Y-151779500D01*
X114775695Y-151883507D01*
X114775696Y-151883508D01*
X114775697Y-151883510D01*
X114916490Y-152024303D01*
X115100444Y-152100500D01*
X115100446Y-152100500D01*
X115299554Y-152100500D01*
X115299556Y-152100500D01*
X115483510Y-152024303D01*
X115624303Y-151883510D01*
X115700500Y-151699556D01*
X115700500Y-151500444D01*
X117299500Y-151500444D01*
X117299500Y-151699556D01*
X117332614Y-151779500D01*
X117375695Y-151883507D01*
X117375696Y-151883508D01*
X117375697Y-151883510D01*
X117516490Y-152024303D01*
X117700444Y-152100500D01*
X117700446Y-152100500D01*
X117899554Y-152100500D01*
X117899556Y-152100500D01*
X118083510Y-152024303D01*
X118224303Y-151883510D01*
X118300500Y-151699556D01*
X118300500Y-151500444D01*
X130299500Y-151500444D01*
X130299500Y-151699556D01*
X130332614Y-151779500D01*
X130375695Y-151883507D01*
X130375696Y-151883508D01*
X130375697Y-151883510D01*
X130516490Y-152024303D01*
X130700444Y-152100500D01*
X130700446Y-152100500D01*
X130899554Y-152100500D01*
X130899556Y-152100500D01*
X131083510Y-152024303D01*
X131224303Y-151883510D01*
X131300500Y-151699556D01*
X131300500Y-151500444D01*
X131599500Y-151500444D01*
X131599500Y-151699556D01*
X131632614Y-151779500D01*
X131675695Y-151883507D01*
X131675696Y-151883508D01*
X131675697Y-151883510D01*
X131816490Y-152024303D01*
X132000444Y-152100500D01*
X132000446Y-152100500D01*
X132199554Y-152100500D01*
X132199556Y-152100500D01*
X132383510Y-152024303D01*
X132524303Y-151883510D01*
X132600500Y-151699556D01*
X132600500Y-151500444D01*
X132899500Y-151500444D01*
X132899500Y-151699556D01*
X132932614Y-151779500D01*
X132975695Y-151883507D01*
X132975696Y-151883508D01*
X132975697Y-151883510D01*
X133116490Y-152024303D01*
X133300444Y-152100500D01*
X133300446Y-152100500D01*
X133499554Y-152100500D01*
X133499556Y-152100500D01*
X133683510Y-152024303D01*
X133824303Y-151883510D01*
X133900500Y-151699556D01*
X133900500Y-151500444D01*
X134199500Y-151500444D01*
X134199500Y-151699556D01*
X134232614Y-151779500D01*
X134275695Y-151883507D01*
X134275696Y-151883508D01*
X134275697Y-151883510D01*
X134416490Y-152024303D01*
X134600444Y-152100500D01*
X134600446Y-152100500D01*
X134799554Y-152100500D01*
X134799556Y-152100500D01*
X134983510Y-152024303D01*
X135124303Y-151883510D01*
X135200500Y-151699556D01*
X135200500Y-151500444D01*
X135499500Y-151500444D01*
X135499500Y-151699556D01*
X135532614Y-151779500D01*
X135575695Y-151883507D01*
X135575696Y-151883508D01*
X135575697Y-151883510D01*
X135716490Y-152024303D01*
X135900444Y-152100500D01*
X135900446Y-152100500D01*
X136099554Y-152100500D01*
X136099556Y-152100500D01*
X136283510Y-152024303D01*
X136424303Y-151883510D01*
X136500500Y-151699556D01*
X136500500Y-151500444D01*
X136799500Y-151500444D01*
X136799500Y-151699556D01*
X136832614Y-151779500D01*
X136875695Y-151883507D01*
X136875696Y-151883508D01*
X136875697Y-151883510D01*
X137016490Y-152024303D01*
X137200444Y-152100500D01*
X137200446Y-152100500D01*
X137399554Y-152100500D01*
X137399556Y-152100500D01*
X137583510Y-152024303D01*
X137724303Y-151883510D01*
X137800500Y-151699556D01*
X137800500Y-151500444D01*
X138099500Y-151500444D01*
X138099500Y-151699556D01*
X138132614Y-151779500D01*
X138175695Y-151883507D01*
X138175696Y-151883508D01*
X138175697Y-151883510D01*
X138316490Y-152024303D01*
X138500444Y-152100500D01*
X138500446Y-152100500D01*
X138699554Y-152100500D01*
X138699556Y-152100500D01*
X138883510Y-152024303D01*
X139024303Y-151883510D01*
X139100500Y-151699556D01*
X139100500Y-151500444D01*
X139399500Y-151500444D01*
X139399500Y-151699556D01*
X139432614Y-151779500D01*
X139475695Y-151883507D01*
X139475696Y-151883508D01*
X139475697Y-151883510D01*
X139616490Y-152024303D01*
X139800444Y-152100500D01*
X139800446Y-152100500D01*
X139999554Y-152100500D01*
X139999556Y-152100500D01*
X140183510Y-152024303D01*
X140324303Y-151883510D01*
X140400500Y-151699556D01*
X140400500Y-151500444D01*
X140324303Y-151316490D01*
X140183510Y-151175697D01*
X140183508Y-151175696D01*
X140183507Y-151175695D01*
X140095653Y-151139305D01*
X139999556Y-151099500D01*
X139800444Y-151099500D01*
X139724249Y-151131061D01*
X139616492Y-151175695D01*
X139475695Y-151316492D01*
X139419402Y-151452395D01*
X139399500Y-151500444D01*
X139100500Y-151500444D01*
X139024303Y-151316490D01*
X138883510Y-151175697D01*
X138883508Y-151175696D01*
X138883507Y-151175695D01*
X138795653Y-151139305D01*
X138699556Y-151099500D01*
X138500444Y-151099500D01*
X138424249Y-151131061D01*
X138316492Y-151175695D01*
X138175695Y-151316492D01*
X138119402Y-151452395D01*
X138099500Y-151500444D01*
X137800500Y-151500444D01*
X137724303Y-151316490D01*
X137583510Y-151175697D01*
X137583508Y-151175696D01*
X137583507Y-151175695D01*
X137495653Y-151139305D01*
X137399556Y-151099500D01*
X137200444Y-151099500D01*
X137124249Y-151131061D01*
X137016492Y-151175695D01*
X136875695Y-151316492D01*
X136819402Y-151452395D01*
X136799500Y-151500444D01*
X136500500Y-151500444D01*
X136424303Y-151316490D01*
X136283510Y-151175697D01*
X136283508Y-151175696D01*
X136283507Y-151175695D01*
X136195653Y-151139305D01*
X136099556Y-151099500D01*
X135900444Y-151099500D01*
X135824249Y-151131061D01*
X135716492Y-151175695D01*
X135575695Y-151316492D01*
X135519402Y-151452395D01*
X135499500Y-151500444D01*
X135200500Y-151500444D01*
X135124303Y-151316490D01*
X134983510Y-151175697D01*
X134983508Y-151175696D01*
X134983507Y-151175695D01*
X134895653Y-151139305D01*
X134799556Y-151099500D01*
X134600444Y-151099500D01*
X134524249Y-151131061D01*
X134416492Y-151175695D01*
X134275695Y-151316492D01*
X134219402Y-151452395D01*
X134199500Y-151500444D01*
X133900500Y-151500444D01*
X133824303Y-151316490D01*
X133683510Y-151175697D01*
X133683508Y-151175696D01*
X133683507Y-151175695D01*
X133595653Y-151139305D01*
X133499556Y-151099500D01*
X133300444Y-151099500D01*
X133224249Y-151131061D01*
X133116492Y-151175695D01*
X132975695Y-151316492D01*
X132919402Y-151452395D01*
X132899500Y-151500444D01*
X132600500Y-151500444D01*
X132524303Y-151316490D01*
X132383510Y-151175697D01*
X132383508Y-151175696D01*
X132383507Y-151175695D01*
X132295653Y-151139305D01*
X132199556Y-151099500D01*
X132000444Y-151099500D01*
X131924249Y-151131061D01*
X131816492Y-151175695D01*
X131675695Y-151316492D01*
X131619402Y-151452395D01*
X131599500Y-151500444D01*
X131300500Y-151500444D01*
X131224303Y-151316490D01*
X131083510Y-151175697D01*
X131083508Y-151175696D01*
X131083507Y-151175695D01*
X130995653Y-151139305D01*
X130899556Y-151099500D01*
X130700444Y-151099500D01*
X130624249Y-151131061D01*
X130516492Y-151175695D01*
X130375695Y-151316492D01*
X130319402Y-151452395D01*
X130299500Y-151500444D01*
X118300500Y-151500444D01*
X118224303Y-151316490D01*
X118083510Y-151175697D01*
X118083508Y-151175696D01*
X118083507Y-151175695D01*
X117995653Y-151139305D01*
X117899556Y-151099500D01*
X117700444Y-151099500D01*
X117624249Y-151131061D01*
X117516492Y-151175695D01*
X117375695Y-151316492D01*
X117319402Y-151452395D01*
X117299500Y-151500444D01*
X115700500Y-151500444D01*
X115624303Y-151316490D01*
X115483510Y-151175697D01*
X115483508Y-151175696D01*
X115483507Y-151175695D01*
X115395653Y-151139305D01*
X115299556Y-151099500D01*
X115100444Y-151099500D01*
X115024249Y-151131061D01*
X114916492Y-151175695D01*
X114775695Y-151316492D01*
X114719402Y-151452395D01*
X114699500Y-151500444D01*
X111800500Y-151500444D01*
X111724303Y-151316490D01*
X111583510Y-151175697D01*
X111583508Y-151175696D01*
X111583507Y-151175695D01*
X111495653Y-151139305D01*
X111399556Y-151099500D01*
X111200444Y-151099500D01*
X111124249Y-151131061D01*
X111016492Y-151175695D01*
X110875695Y-151316492D01*
X110819402Y-151452395D01*
X110799500Y-151500444D01*
X110300000Y-151500444D01*
X110300000Y-150200444D01*
X130949500Y-150200444D01*
X130949500Y-150399556D01*
X130958288Y-150420771D01*
X131025695Y-150583507D01*
X131025696Y-150583508D01*
X131025697Y-150583510D01*
X131166490Y-150724303D01*
X131350444Y-150800500D01*
X131350446Y-150800500D01*
X131549554Y-150800500D01*
X131549556Y-150800500D01*
X131733510Y-150724303D01*
X131874303Y-150583510D01*
X131950500Y-150399556D01*
X131950500Y-150200444D01*
X132249500Y-150200444D01*
X132249500Y-150399556D01*
X132258288Y-150420771D01*
X132325695Y-150583507D01*
X132325696Y-150583508D01*
X132325697Y-150583510D01*
X132466490Y-150724303D01*
X132650444Y-150800500D01*
X132650446Y-150800500D01*
X132849554Y-150800500D01*
X132849556Y-150800500D01*
X133033510Y-150724303D01*
X133174303Y-150583510D01*
X133250500Y-150399556D01*
X133250500Y-150200444D01*
X133549500Y-150200444D01*
X133549500Y-150399556D01*
X133558288Y-150420771D01*
X133625695Y-150583507D01*
X133625696Y-150583508D01*
X133625697Y-150583510D01*
X133766490Y-150724303D01*
X133950444Y-150800500D01*
X133950446Y-150800500D01*
X134149554Y-150800500D01*
X134149556Y-150800500D01*
X134333510Y-150724303D01*
X134474303Y-150583510D01*
X134550500Y-150399556D01*
X134550500Y-150200444D01*
X134849500Y-150200444D01*
X134849500Y-150399556D01*
X134858288Y-150420771D01*
X134925695Y-150583507D01*
X134925696Y-150583508D01*
X134925697Y-150583510D01*
X135066490Y-150724303D01*
X135250444Y-150800500D01*
X135250446Y-150800500D01*
X135449554Y-150800500D01*
X135449556Y-150800500D01*
X135633510Y-150724303D01*
X135774303Y-150583510D01*
X135850500Y-150399556D01*
X135850500Y-150200444D01*
X136149500Y-150200444D01*
X136149500Y-150399556D01*
X136158288Y-150420771D01*
X136225695Y-150583507D01*
X136225696Y-150583508D01*
X136225697Y-150583510D01*
X136366490Y-150724303D01*
X136550444Y-150800500D01*
X136550446Y-150800500D01*
X136749554Y-150800500D01*
X136749556Y-150800500D01*
X136897478Y-150739228D01*
X152904499Y-150739228D01*
X153026367Y-151033444D01*
X153026368Y-151033445D01*
X153026369Y-151033447D01*
X153251553Y-151258631D01*
X153545771Y-151380500D01*
X153545772Y-151380500D01*
X154414228Y-151380500D01*
X154414229Y-151380500D01*
X154708447Y-151258631D01*
X154933631Y-151033447D01*
X155055500Y-150739229D01*
X155055500Y-150420771D01*
X154933631Y-150126553D01*
X154708447Y-149901369D01*
X154708445Y-149901368D01*
X154708444Y-149901367D01*
X154474111Y-149804304D01*
X154414229Y-149779500D01*
X153545771Y-149779500D01*
X153497487Y-149799500D01*
X153251555Y-149901367D01*
X153026367Y-150126555D01*
X152904500Y-150420771D01*
X152904500Y-150739228D01*
X152904499Y-150739228D01*
X136897478Y-150739228D01*
X136933510Y-150724303D01*
X137074303Y-150583510D01*
X137150500Y-150399556D01*
X137150500Y-150200444D01*
X137074303Y-150016490D01*
X136933510Y-149875697D01*
X136933508Y-149875696D01*
X136933507Y-149875695D01*
X136845653Y-149839305D01*
X136749556Y-149799500D01*
X136550444Y-149799500D01*
X136474249Y-149831061D01*
X136366492Y-149875695D01*
X136225695Y-150016492D01*
X136180107Y-150126553D01*
X136149500Y-150200444D01*
X135850500Y-150200444D01*
X135774303Y-150016490D01*
X135633510Y-149875697D01*
X135633508Y-149875696D01*
X135633507Y-149875695D01*
X135545653Y-149839305D01*
X135449556Y-149799500D01*
X135250444Y-149799500D01*
X135174249Y-149831061D01*
X135066492Y-149875695D01*
X134925695Y-150016492D01*
X134880107Y-150126553D01*
X134849500Y-150200444D01*
X134550500Y-150200444D01*
X134474303Y-150016490D01*
X134333510Y-149875697D01*
X134333508Y-149875696D01*
X134333507Y-149875695D01*
X134245653Y-149839305D01*
X134149556Y-149799500D01*
X133950444Y-149799500D01*
X133874249Y-149831061D01*
X133766492Y-149875695D01*
X133625695Y-150016492D01*
X133580107Y-150126553D01*
X133549500Y-150200444D01*
X133250500Y-150200444D01*
X133174303Y-150016490D01*
X133033510Y-149875697D01*
X133033508Y-149875696D01*
X133033507Y-149875695D01*
X132945653Y-149839305D01*
X132849556Y-149799500D01*
X132650444Y-149799500D01*
X132574249Y-149831061D01*
X132466492Y-149875695D01*
X132325695Y-150016492D01*
X132280107Y-150126553D01*
X132249500Y-150200444D01*
X131950500Y-150200444D01*
X131874303Y-150016490D01*
X131733510Y-149875697D01*
X131733508Y-149875696D01*
X131733507Y-149875695D01*
X131645653Y-149839305D01*
X131549556Y-149799500D01*
X131350444Y-149799500D01*
X131274249Y-149831061D01*
X131166492Y-149875695D01*
X131025695Y-150016492D01*
X130980107Y-150126553D01*
X130949500Y-150200444D01*
X110300000Y-150200444D01*
X110300000Y-149280444D01*
X144239500Y-149280444D01*
X144239500Y-149479556D01*
X144279305Y-149575653D01*
X144315695Y-149663507D01*
X144315696Y-149663508D01*
X144315697Y-149663510D01*
X144456490Y-149804303D01*
X144640444Y-149880500D01*
X144640446Y-149880500D01*
X144839554Y-149880500D01*
X144839556Y-149880500D01*
X145023510Y-149804303D01*
X145164303Y-149663510D01*
X145240500Y-149479556D01*
X145240500Y-149280444D01*
X145164303Y-149096490D01*
X145023510Y-148955697D01*
X145023508Y-148955696D01*
X145023507Y-148955695D01*
X144935653Y-148919305D01*
X144839556Y-148879500D01*
X144640444Y-148879500D01*
X144564249Y-148911061D01*
X144456492Y-148955695D01*
X144315695Y-149096492D01*
X144259402Y-149232395D01*
X144239500Y-149280444D01*
X110300000Y-149280444D01*
X110300000Y-148460444D01*
X145399500Y-148460444D01*
X145399500Y-148659556D01*
X145432502Y-148739228D01*
X145475695Y-148843507D01*
X145475696Y-148843508D01*
X145475697Y-148843510D01*
X145616490Y-148984303D01*
X145800444Y-149060500D01*
X145800446Y-149060500D01*
X145999554Y-149060500D01*
X145999556Y-149060500D01*
X146183510Y-148984303D01*
X146324303Y-148843510D01*
X146367498Y-148739228D01*
X152904499Y-148739228D01*
X153026367Y-149033444D01*
X153026368Y-149033445D01*
X153026369Y-149033447D01*
X153251553Y-149258631D01*
X153545771Y-149380500D01*
X153545772Y-149380500D01*
X154414228Y-149380500D01*
X154414229Y-149380500D01*
X154708447Y-149258631D01*
X154933631Y-149033447D01*
X155055500Y-148739229D01*
X155055500Y-148420771D01*
X154933631Y-148126553D01*
X154708447Y-147901369D01*
X154708445Y-147901368D01*
X154708444Y-147901367D01*
X154518248Y-147822586D01*
X154414229Y-147779500D01*
X153545771Y-147779500D01*
X153468921Y-147811332D01*
X153251555Y-147901367D01*
X153026367Y-148126555D01*
X152904500Y-148420771D01*
X152904500Y-148739228D01*
X152904499Y-148739228D01*
X146367498Y-148739228D01*
X146400500Y-148659556D01*
X146400500Y-148460444D01*
X146324303Y-148276490D01*
X146183510Y-148135697D01*
X146183508Y-148135696D01*
X146183507Y-148135695D01*
X146095107Y-148099079D01*
X145999556Y-148059500D01*
X145800444Y-148059500D01*
X145724249Y-148091061D01*
X145616492Y-148135695D01*
X145475695Y-148276492D01*
X145419402Y-148412395D01*
X145399500Y-148460444D01*
X110300000Y-148460444D01*
X110300000Y-147709446D01*
X137749499Y-147709446D01*
X137840919Y-147930153D01*
X137840920Y-147930154D01*
X137840921Y-147930156D01*
X138009844Y-148099079D01*
X138230553Y-148190500D01*
X138230554Y-148190500D01*
X138469446Y-148190500D01*
X138469447Y-148190500D01*
X138690156Y-148099079D01*
X138859079Y-147930156D01*
X138950500Y-147709447D01*
X138950500Y-147470553D01*
X138859079Y-147249844D01*
X138690156Y-147080921D01*
X138690154Y-147080920D01*
X138690153Y-147080919D01*
X138547478Y-147021821D01*
X138469447Y-146989500D01*
X138230553Y-146989500D01*
X138172903Y-147013379D01*
X138009846Y-147080919D01*
X137840919Y-147249846D01*
X137749500Y-147470553D01*
X137749500Y-147709446D01*
X137749499Y-147709446D01*
X110300000Y-147709446D01*
X110300000Y-145689767D01*
X141921666Y-145689767D01*
X141921666Y-145888879D01*
X141956431Y-145972808D01*
X141997861Y-146072830D01*
X141997862Y-146072831D01*
X141997863Y-146072833D01*
X142138656Y-146213626D01*
X142322610Y-146289823D01*
X142322612Y-146289823D01*
X142521720Y-146289823D01*
X142521722Y-146289823D01*
X142705676Y-146213626D01*
X142846469Y-146072833D01*
X142868169Y-146020444D01*
X143199500Y-146020444D01*
X143199500Y-146219556D01*
X143228606Y-146289823D01*
X143275695Y-146403507D01*
X143275696Y-146403508D01*
X143275697Y-146403510D01*
X143416490Y-146544303D01*
X143600444Y-146620500D01*
X143600446Y-146620500D01*
X143799554Y-146620500D01*
X143799556Y-146620500D01*
X143983510Y-146544303D01*
X144124303Y-146403510D01*
X144200500Y-146219556D01*
X144200500Y-146185626D01*
X152904500Y-146185626D01*
X152904500Y-146974367D01*
X152904501Y-146974374D01*
X152930637Y-147105775D01*
X152930638Y-147105776D01*
X153030207Y-147254793D01*
X153179224Y-147354362D01*
X153179223Y-147354362D01*
X153205361Y-147359560D01*
X153310629Y-147380500D01*
X154649370Y-147380499D01*
X154780776Y-147354362D01*
X154929793Y-147254793D01*
X155029362Y-147105776D01*
X155055500Y-146974371D01*
X155055499Y-146185630D01*
X155029362Y-146054224D01*
X154929793Y-145905207D01*
X154780776Y-145805638D01*
X154780775Y-145805637D01*
X154780776Y-145805637D01*
X154649371Y-145779500D01*
X153310632Y-145779500D01*
X153310625Y-145779501D01*
X153179224Y-145805637D01*
X153179223Y-145805638D01*
X153030208Y-145905206D01*
X153030206Y-145905208D01*
X152930637Y-146054224D01*
X152904500Y-146185626D01*
X144200500Y-146185626D01*
X144200500Y-146020444D01*
X144124303Y-145836490D01*
X143983510Y-145695697D01*
X143983508Y-145695696D01*
X143983507Y-145695695D01*
X143895653Y-145659305D01*
X143799556Y-145619500D01*
X143600444Y-145619500D01*
X143524249Y-145651061D01*
X143416492Y-145695695D01*
X143275695Y-145836492D01*
X143219402Y-145972395D01*
X143199500Y-146020444D01*
X142868169Y-146020444D01*
X142922666Y-145888879D01*
X142922666Y-145689767D01*
X142846469Y-145505813D01*
X142705676Y-145365020D01*
X142705674Y-145365019D01*
X142705673Y-145365018D01*
X142617819Y-145328628D01*
X142521722Y-145288823D01*
X142322610Y-145288823D01*
X142246415Y-145320384D01*
X142138658Y-145365018D01*
X141997861Y-145505815D01*
X141950772Y-145619500D01*
X141921666Y-145689767D01*
X110300000Y-145689767D01*
X110300000Y-143680444D01*
X117819500Y-143680444D01*
X117819500Y-143879556D01*
X117828153Y-143900445D01*
X117895695Y-144063507D01*
X117895696Y-144063508D01*
X117895697Y-144063510D01*
X118036490Y-144204303D01*
X118220444Y-144280500D01*
X118220446Y-144280500D01*
X118419554Y-144280500D01*
X118419556Y-144280500D01*
X118603510Y-144204303D01*
X118744303Y-144063510D01*
X118811848Y-143900444D01*
X122499500Y-143900444D01*
X122499500Y-144099556D01*
X122539305Y-144195653D01*
X122575695Y-144283507D01*
X122575696Y-144283508D01*
X122575697Y-144283510D01*
X122716490Y-144424303D01*
X122900444Y-144500500D01*
X122900446Y-144500500D01*
X123099554Y-144500500D01*
X123099556Y-144500500D01*
X123283510Y-144424303D01*
X123424303Y-144283510D01*
X123500500Y-144099556D01*
X123500500Y-143900444D01*
X123424303Y-143716490D01*
X123283510Y-143575697D01*
X123283508Y-143575696D01*
X123283507Y-143575695D01*
X123195653Y-143539305D01*
X123099556Y-143499500D01*
X122900444Y-143499500D01*
X122824249Y-143531061D01*
X122716492Y-143575695D01*
X122575695Y-143716492D01*
X122532637Y-143820444D01*
X122499500Y-143900444D01*
X118811848Y-143900444D01*
X118820500Y-143879556D01*
X118820500Y-143680444D01*
X118744303Y-143496490D01*
X118603510Y-143355697D01*
X118603508Y-143355696D01*
X118603507Y-143355695D01*
X118527778Y-143324327D01*
X118419556Y-143279500D01*
X118220444Y-143279500D01*
X118165746Y-143302157D01*
X118036492Y-143355695D01*
X117895695Y-143496492D01*
X117851367Y-143603510D01*
X117819500Y-143680444D01*
X110300000Y-143680444D01*
X110300000Y-143220444D01*
X142559500Y-143220444D01*
X142559500Y-143419556D01*
X142591368Y-143496492D01*
X142635695Y-143603507D01*
X142635696Y-143603508D01*
X142635697Y-143603510D01*
X142776490Y-143744303D01*
X142960444Y-143820500D01*
X142960446Y-143820500D01*
X143159554Y-143820500D01*
X143159556Y-143820500D01*
X143159691Y-143820444D01*
X144219500Y-143820444D01*
X144219500Y-144019556D01*
X144259305Y-144115653D01*
X144295695Y-144203507D01*
X144295696Y-144203508D01*
X144295697Y-144203510D01*
X144436490Y-144344303D01*
X144620444Y-144420500D01*
X144620446Y-144420500D01*
X144819554Y-144420500D01*
X144819556Y-144420500D01*
X145003510Y-144344303D01*
X145144303Y-144203510D01*
X145220500Y-144019556D01*
X145220500Y-143820444D01*
X145144303Y-143636490D01*
X145003510Y-143495697D01*
X145003508Y-143495696D01*
X145003507Y-143495695D01*
X144915653Y-143459305D01*
X144819556Y-143419500D01*
X144620444Y-143419500D01*
X144544249Y-143451061D01*
X144436492Y-143495695D01*
X144295695Y-143636492D01*
X144239402Y-143772395D01*
X144219500Y-143820444D01*
X143159691Y-143820444D01*
X143343510Y-143744303D01*
X143484303Y-143603510D01*
X143560500Y-143419556D01*
X143560500Y-143220444D01*
X143484303Y-143036490D01*
X143343510Y-142895697D01*
X143343508Y-142895696D01*
X143343507Y-142895695D01*
X143279503Y-142869184D01*
X143225925Y-142815605D01*
X143225925Y-142739834D01*
X143279503Y-142686256D01*
X143380838Y-142644282D01*
X143521631Y-142503489D01*
X143543603Y-142450444D01*
X145029500Y-142450444D01*
X145029500Y-142649556D01*
X145046087Y-142689599D01*
X145105695Y-142833507D01*
X145105696Y-142833508D01*
X145105697Y-142833510D01*
X145246490Y-142974303D01*
X145430444Y-143050500D01*
X145430446Y-143050500D01*
X145629554Y-143050500D01*
X145629556Y-143050500D01*
X145813510Y-142974303D01*
X145954303Y-142833510D01*
X146030500Y-142649556D01*
X146030500Y-142450444D01*
X145954303Y-142266490D01*
X145813510Y-142125697D01*
X145813508Y-142125696D01*
X145813507Y-142125695D01*
X145725653Y-142089305D01*
X145629556Y-142049500D01*
X145430444Y-142049500D01*
X145354249Y-142081061D01*
X145246492Y-142125695D01*
X145105695Y-142266492D01*
X145077456Y-142334668D01*
X145029500Y-142450444D01*
X143543603Y-142450444D01*
X143597828Y-142319535D01*
X143597828Y-142120423D01*
X143521631Y-141936469D01*
X143380838Y-141795676D01*
X143380836Y-141795675D01*
X143380835Y-141795674D01*
X143292981Y-141759284D01*
X143196884Y-141719479D01*
X142997772Y-141719479D01*
X142921577Y-141751040D01*
X142813820Y-141795674D01*
X142673023Y-141936471D01*
X142616730Y-142072374D01*
X142596828Y-142120423D01*
X142596828Y-142319535D01*
X142630342Y-142400444D01*
X142673023Y-142503486D01*
X142673024Y-142503487D01*
X142673025Y-142503489D01*
X142813818Y-142644282D01*
X142813819Y-142644282D01*
X142813820Y-142644283D01*
X142877823Y-142670794D01*
X142931402Y-142724372D01*
X142931402Y-142800143D01*
X142877824Y-142853722D01*
X142776492Y-142895695D01*
X142635695Y-143036492D01*
X142579402Y-143172395D01*
X142559500Y-143220444D01*
X110300000Y-143220444D01*
X110300000Y-142400444D01*
X111249500Y-142400444D01*
X111249500Y-142599556D01*
X111268027Y-142644283D01*
X111325695Y-142783507D01*
X111325696Y-142783508D01*
X111325697Y-142783510D01*
X111466490Y-142924303D01*
X111650444Y-143000500D01*
X111650446Y-143000500D01*
X111849554Y-143000500D01*
X111849556Y-143000500D01*
X112033510Y-142924303D01*
X112174303Y-142783510D01*
X112250500Y-142599556D01*
X112250500Y-142400444D01*
X112749500Y-142400444D01*
X112749500Y-142599556D01*
X112768027Y-142644283D01*
X112825695Y-142783507D01*
X112825696Y-142783508D01*
X112825697Y-142783510D01*
X112966490Y-142924303D01*
X113150444Y-143000500D01*
X113150446Y-143000500D01*
X113349554Y-143000500D01*
X113349556Y-143000500D01*
X113533510Y-142924303D01*
X113674303Y-142783510D01*
X113750500Y-142599556D01*
X113750500Y-142400444D01*
X114249500Y-142400444D01*
X114249500Y-142599556D01*
X114268027Y-142644283D01*
X114325695Y-142783507D01*
X114325696Y-142783508D01*
X114325697Y-142783510D01*
X114466490Y-142924303D01*
X114650444Y-143000500D01*
X114650446Y-143000500D01*
X114849554Y-143000500D01*
X114849556Y-143000500D01*
X115033510Y-142924303D01*
X115174303Y-142783510D01*
X115250500Y-142599556D01*
X115250500Y-142400444D01*
X115749500Y-142400444D01*
X115749500Y-142599556D01*
X115768027Y-142644283D01*
X115825695Y-142783507D01*
X115825696Y-142783508D01*
X115825697Y-142783510D01*
X115966490Y-142924303D01*
X116150444Y-143000500D01*
X116150446Y-143000500D01*
X116349554Y-143000500D01*
X116349556Y-143000500D01*
X116533510Y-142924303D01*
X116674303Y-142783510D01*
X116750500Y-142599556D01*
X116750500Y-142400444D01*
X117249500Y-142400444D01*
X117249500Y-142599556D01*
X117268027Y-142644283D01*
X117325695Y-142783507D01*
X117325696Y-142783508D01*
X117325697Y-142783510D01*
X117466490Y-142924303D01*
X117650444Y-143000500D01*
X117650446Y-143000500D01*
X117849554Y-143000500D01*
X117849556Y-143000500D01*
X118033510Y-142924303D01*
X118174303Y-142783510D01*
X118250500Y-142599556D01*
X118250500Y-142400444D01*
X118749500Y-142400444D01*
X118749500Y-142599556D01*
X118768027Y-142644283D01*
X118825695Y-142783507D01*
X118825696Y-142783508D01*
X118825697Y-142783510D01*
X118966490Y-142924303D01*
X119150444Y-143000500D01*
X119150446Y-143000500D01*
X119349554Y-143000500D01*
X119349556Y-143000500D01*
X119533510Y-142924303D01*
X119674303Y-142783510D01*
X119750500Y-142599556D01*
X119750500Y-142400444D01*
X120249500Y-142400444D01*
X120249500Y-142599556D01*
X120268027Y-142644283D01*
X120325695Y-142783507D01*
X120325696Y-142783508D01*
X120325697Y-142783510D01*
X120466490Y-142924303D01*
X120650444Y-143000500D01*
X120650446Y-143000500D01*
X120849554Y-143000500D01*
X120849556Y-143000500D01*
X121033510Y-142924303D01*
X121174303Y-142783510D01*
X121250500Y-142599556D01*
X121250500Y-142400444D01*
X121749500Y-142400444D01*
X121749500Y-142599556D01*
X121768027Y-142644283D01*
X121825695Y-142783507D01*
X121825696Y-142783508D01*
X121825697Y-142783510D01*
X121966490Y-142924303D01*
X122150444Y-143000500D01*
X122150446Y-143000500D01*
X122349554Y-143000500D01*
X122349556Y-143000500D01*
X122533510Y-142924303D01*
X122674303Y-142783510D01*
X122750500Y-142599556D01*
X122750500Y-142400444D01*
X122711600Y-142306533D01*
X139743259Y-142306533D01*
X139743259Y-142505645D01*
X139766272Y-142561202D01*
X139819454Y-142689596D01*
X139819455Y-142689597D01*
X139819456Y-142689599D01*
X139960249Y-142830392D01*
X140144203Y-142906589D01*
X140144205Y-142906589D01*
X140343313Y-142906589D01*
X140343315Y-142906589D01*
X140527269Y-142830392D01*
X140668062Y-142689599D01*
X140724900Y-142552379D01*
X140778478Y-142498802D01*
X140854250Y-142498802D01*
X140886364Y-142520259D01*
X140927307Y-142561202D01*
X141111261Y-142637399D01*
X141111263Y-142637399D01*
X141310371Y-142637399D01*
X141310373Y-142637399D01*
X141494327Y-142561202D01*
X141635120Y-142420409D01*
X141711317Y-142236455D01*
X141711317Y-142037343D01*
X141635120Y-141853389D01*
X141494327Y-141712596D01*
X141494325Y-141712595D01*
X141494324Y-141712594D01*
X141406470Y-141676204D01*
X141310373Y-141636399D01*
X141111261Y-141636399D01*
X141035066Y-141667960D01*
X140927309Y-141712594D01*
X140786512Y-141853391D01*
X140729675Y-141990607D01*
X140676096Y-142044185D01*
X140600325Y-142044185D01*
X140568210Y-142022727D01*
X140527269Y-141981786D01*
X140527267Y-141981785D01*
X140527266Y-141981784D01*
X140417865Y-141936469D01*
X140343315Y-141905589D01*
X140144203Y-141905589D01*
X140069653Y-141936469D01*
X139960251Y-141981784D01*
X139819454Y-142122581D01*
X139763161Y-142258484D01*
X139743259Y-142306533D01*
X122711600Y-142306533D01*
X122674303Y-142216490D01*
X122533510Y-142075697D01*
X122533508Y-142075696D01*
X122533507Y-142075695D01*
X122445653Y-142039305D01*
X122349556Y-141999500D01*
X122150444Y-141999500D01*
X122074249Y-142031061D01*
X121966492Y-142075695D01*
X121825695Y-142216492D01*
X121769402Y-142352395D01*
X121749500Y-142400444D01*
X121250500Y-142400444D01*
X121174303Y-142216490D01*
X121033510Y-142075697D01*
X121033508Y-142075696D01*
X121033507Y-142075695D01*
X120945653Y-142039305D01*
X120849556Y-141999500D01*
X120650444Y-141999500D01*
X120574249Y-142031061D01*
X120466492Y-142075695D01*
X120325695Y-142216492D01*
X120269402Y-142352395D01*
X120249500Y-142400444D01*
X119750500Y-142400444D01*
X119674303Y-142216490D01*
X119533510Y-142075697D01*
X119533508Y-142075696D01*
X119533507Y-142075695D01*
X119445653Y-142039305D01*
X119349556Y-141999500D01*
X119150444Y-141999500D01*
X119074249Y-142031061D01*
X118966492Y-142075695D01*
X118825695Y-142216492D01*
X118769402Y-142352395D01*
X118749500Y-142400444D01*
X118250500Y-142400444D01*
X118174303Y-142216490D01*
X118033510Y-142075697D01*
X118033508Y-142075696D01*
X118033507Y-142075695D01*
X117945653Y-142039305D01*
X117849556Y-141999500D01*
X117650444Y-141999500D01*
X117574249Y-142031061D01*
X117466492Y-142075695D01*
X117325695Y-142216492D01*
X117269402Y-142352395D01*
X117249500Y-142400444D01*
X116750500Y-142400444D01*
X116674303Y-142216490D01*
X116533510Y-142075697D01*
X116533508Y-142075696D01*
X116533507Y-142075695D01*
X116445653Y-142039305D01*
X116349556Y-141999500D01*
X116150444Y-141999500D01*
X116074249Y-142031061D01*
X115966492Y-142075695D01*
X115825695Y-142216492D01*
X115769402Y-142352395D01*
X115749500Y-142400444D01*
X115250500Y-142400444D01*
X115174303Y-142216490D01*
X115033510Y-142075697D01*
X115033508Y-142075696D01*
X115033507Y-142075695D01*
X114945653Y-142039305D01*
X114849556Y-141999500D01*
X114650444Y-141999500D01*
X114574249Y-142031061D01*
X114466492Y-142075695D01*
X114325695Y-142216492D01*
X114269402Y-142352395D01*
X114249500Y-142400444D01*
X113750500Y-142400444D01*
X113674303Y-142216490D01*
X113533510Y-142075697D01*
X113533508Y-142075696D01*
X113533507Y-142075695D01*
X113445653Y-142039305D01*
X113349556Y-141999500D01*
X113150444Y-141999500D01*
X113074249Y-142031061D01*
X112966492Y-142075695D01*
X112825695Y-142216492D01*
X112769402Y-142352395D01*
X112749500Y-142400444D01*
X112250500Y-142400444D01*
X112174303Y-142216490D01*
X112033510Y-142075697D01*
X112033508Y-142075696D01*
X112033507Y-142075695D01*
X111945653Y-142039305D01*
X111849556Y-141999500D01*
X111650444Y-141999500D01*
X111574249Y-142031061D01*
X111466492Y-142075695D01*
X111325695Y-142216492D01*
X111269402Y-142352395D01*
X111249500Y-142400444D01*
X110300000Y-142400444D01*
X110300000Y-139780444D01*
X114829500Y-139780444D01*
X114829500Y-139979556D01*
X114849778Y-140028510D01*
X114905695Y-140163507D01*
X114905696Y-140163508D01*
X114905697Y-140163510D01*
X115046490Y-140304303D01*
X115230444Y-140380500D01*
X115230446Y-140380500D01*
X115429554Y-140380500D01*
X115429556Y-140380500D01*
X115613510Y-140304303D01*
X115754303Y-140163510D01*
X115830500Y-139979556D01*
X115830500Y-139780444D01*
X115774581Y-139645444D01*
X117334500Y-139645444D01*
X117334500Y-139844556D01*
X117338251Y-139853611D01*
X117410695Y-140028507D01*
X117410696Y-140028508D01*
X117410697Y-140028510D01*
X117551490Y-140169303D01*
X117735444Y-140245500D01*
X117735446Y-140245500D01*
X117934554Y-140245500D01*
X117934556Y-140245500D01*
X118096645Y-140178360D01*
X138333177Y-140178360D01*
X138333177Y-140377472D01*
X138372982Y-140473569D01*
X138409372Y-140561423D01*
X138409373Y-140561424D01*
X138409374Y-140561426D01*
X138550167Y-140702219D01*
X138734121Y-140778416D01*
X138734123Y-140778416D01*
X138933231Y-140778416D01*
X138933233Y-140778416D01*
X139117187Y-140702219D01*
X139257980Y-140561426D01*
X139334177Y-140377472D01*
X139334177Y-140178360D01*
X139280297Y-140048284D01*
X139257981Y-139994408D01*
X139257980Y-139994407D01*
X139257980Y-139994406D01*
X139117187Y-139853613D01*
X139117185Y-139853612D01*
X139117184Y-139853611D01*
X139029330Y-139817221D01*
X138933233Y-139777416D01*
X138734121Y-139777416D01*
X138657926Y-139808977D01*
X138550169Y-139853611D01*
X138409372Y-139994408D01*
X138366213Y-140098605D01*
X138333177Y-140178360D01*
X118096645Y-140178360D01*
X118118510Y-140169303D01*
X118259303Y-140028510D01*
X118335500Y-139844556D01*
X118335500Y-139645444D01*
X118259303Y-139461490D01*
X118248257Y-139450444D01*
X147099500Y-139450444D01*
X147099500Y-139649556D01*
X147109451Y-139673579D01*
X147175695Y-139833507D01*
X147175696Y-139833508D01*
X147175697Y-139833510D01*
X147316490Y-139974303D01*
X147316491Y-139974303D01*
X147316492Y-139974304D01*
X147348052Y-139987376D01*
X147500444Y-140050500D01*
X147500446Y-140050500D01*
X147699554Y-140050500D01*
X147699556Y-140050500D01*
X147883510Y-139974303D01*
X148024303Y-139833510D01*
X148100500Y-139649556D01*
X148100500Y-139450444D01*
X148025011Y-139268199D01*
X148025011Y-139268198D01*
X148024304Y-139266492D01*
X148024303Y-139266491D01*
X148024303Y-139266490D01*
X147997877Y-139240064D01*
X151399120Y-139240064D01*
X151399120Y-139439176D01*
X151408363Y-139461490D01*
X151475315Y-139623127D01*
X151475316Y-139623128D01*
X151475317Y-139623130D01*
X151616110Y-139763923D01*
X151800064Y-139840120D01*
X151800066Y-139840120D01*
X151999174Y-139840120D01*
X151999176Y-139840120D01*
X152183130Y-139763923D01*
X152323923Y-139623130D01*
X152400120Y-139439176D01*
X152400120Y-139240064D01*
X152323923Y-139056110D01*
X152183130Y-138915317D01*
X152183128Y-138915316D01*
X152183127Y-138915315D01*
X152095273Y-138878925D01*
X151999176Y-138839120D01*
X151800064Y-138839120D01*
X151723869Y-138870681D01*
X151616112Y-138915315D01*
X151475315Y-139056112D01*
X151422547Y-139183507D01*
X151399120Y-139240064D01*
X147997877Y-139240064D01*
X147883510Y-139125697D01*
X147883508Y-139125696D01*
X147883507Y-139125695D01*
X147795653Y-139089305D01*
X147699556Y-139049500D01*
X147500444Y-139049500D01*
X147424249Y-139081061D01*
X147316492Y-139125695D01*
X147175695Y-139266492D01*
X147151749Y-139324304D01*
X147099500Y-139450444D01*
X118248257Y-139450444D01*
X118118510Y-139320697D01*
X118118508Y-139320696D01*
X118118507Y-139320695D01*
X118030653Y-139284305D01*
X117934556Y-139244500D01*
X117735444Y-139244500D01*
X117659249Y-139276061D01*
X117551492Y-139320695D01*
X117410695Y-139461492D01*
X117354778Y-139596490D01*
X117334500Y-139645444D01*
X115774581Y-139645444D01*
X115754303Y-139596490D01*
X115613510Y-139455697D01*
X115613508Y-139455696D01*
X115613507Y-139455695D01*
X115525653Y-139419305D01*
X115429556Y-139379500D01*
X115230444Y-139379500D01*
X115154249Y-139411061D01*
X115046492Y-139455695D01*
X114905695Y-139596492D01*
X114873765Y-139673579D01*
X114829500Y-139780444D01*
X110300000Y-139780444D01*
X110300000Y-137900444D01*
X110499500Y-137900444D01*
X110499500Y-138099556D01*
X110525700Y-138162807D01*
X110575695Y-138283507D01*
X110575696Y-138283508D01*
X110575697Y-138283510D01*
X110716490Y-138424303D01*
X110900444Y-138500500D01*
X110900446Y-138500500D01*
X111099554Y-138500500D01*
X111099556Y-138500500D01*
X111283510Y-138424303D01*
X111424303Y-138283510D01*
X111500500Y-138099556D01*
X111500500Y-137900444D01*
X111999500Y-137900444D01*
X111999500Y-138099556D01*
X112025700Y-138162807D01*
X112075695Y-138283507D01*
X112075696Y-138283508D01*
X112075697Y-138283510D01*
X112216490Y-138424303D01*
X112400444Y-138500500D01*
X112400446Y-138500500D01*
X112599554Y-138500500D01*
X112599556Y-138500500D01*
X112783510Y-138424303D01*
X112924303Y-138283510D01*
X112954568Y-138210444D01*
X131419500Y-138210444D01*
X131419500Y-138409556D01*
X131432295Y-138440445D01*
X131495695Y-138593507D01*
X131495696Y-138593508D01*
X131495697Y-138593510D01*
X131636490Y-138734303D01*
X131820444Y-138810500D01*
X131820446Y-138810500D01*
X132019554Y-138810500D01*
X132019556Y-138810500D01*
X132203510Y-138734303D01*
X132344303Y-138593510D01*
X132407706Y-138440444D01*
X135099500Y-138440444D01*
X135099500Y-138639556D01*
X135138746Y-138734303D01*
X135175695Y-138823507D01*
X135175696Y-138823508D01*
X135175697Y-138823510D01*
X135316490Y-138964303D01*
X135500444Y-139040500D01*
X135500446Y-139040500D01*
X135699554Y-139040500D01*
X135699556Y-139040500D01*
X135883510Y-138964303D01*
X136024303Y-138823510D01*
X136033857Y-138800444D01*
X137080600Y-138800444D01*
X137080600Y-138999556D01*
X137120405Y-139095653D01*
X137156795Y-139183507D01*
X137156796Y-139183508D01*
X137156797Y-139183510D01*
X137297590Y-139324303D01*
X137481544Y-139400500D01*
X137481546Y-139400500D01*
X137680654Y-139400500D01*
X137680656Y-139400500D01*
X137864610Y-139324303D01*
X138005403Y-139183510D01*
X138081600Y-138999556D01*
X138081600Y-138800444D01*
X138005403Y-138616490D01*
X137864610Y-138475697D01*
X137864608Y-138475696D01*
X137864607Y-138475695D01*
X137776753Y-138439305D01*
X137680656Y-138399500D01*
X137481544Y-138399500D01*
X137405349Y-138431061D01*
X137297592Y-138475695D01*
X137156795Y-138616492D01*
X137107997Y-138734303D01*
X137080600Y-138800444D01*
X136033857Y-138800444D01*
X136100500Y-138639556D01*
X136100500Y-138440444D01*
X136024303Y-138256490D01*
X135883510Y-138115697D01*
X135883508Y-138115696D01*
X135883507Y-138115695D01*
X135795653Y-138079305D01*
X135699556Y-138039500D01*
X135500444Y-138039500D01*
X135424249Y-138071061D01*
X135316492Y-138115695D01*
X135175695Y-138256492D01*
X135119402Y-138392395D01*
X135099500Y-138440444D01*
X132407706Y-138440444D01*
X132420500Y-138409556D01*
X132420500Y-138210444D01*
X132344303Y-138026490D01*
X132203510Y-137885697D01*
X132203508Y-137885696D01*
X132203507Y-137885695D01*
X132115653Y-137849305D01*
X132019556Y-137809500D01*
X131820444Y-137809500D01*
X131744249Y-137841061D01*
X131636492Y-137885695D01*
X131495695Y-138026492D01*
X131439402Y-138162395D01*
X131419500Y-138210444D01*
X112954568Y-138210444D01*
X113000500Y-138099556D01*
X113000500Y-137900444D01*
X112946620Y-137770368D01*
X112924304Y-137716492D01*
X112924303Y-137716491D01*
X112924303Y-137716490D01*
X112783510Y-137575697D01*
X112783508Y-137575696D01*
X112783507Y-137575695D01*
X112695653Y-137539305D01*
X112599556Y-137499500D01*
X112400444Y-137499500D01*
X112324249Y-137531061D01*
X112216492Y-137575695D01*
X112075695Y-137716492D01*
X112019402Y-137852395D01*
X111999500Y-137900444D01*
X111500500Y-137900444D01*
X111446620Y-137770368D01*
X111424304Y-137716492D01*
X111424303Y-137716491D01*
X111424303Y-137716490D01*
X111283510Y-137575697D01*
X111283508Y-137575696D01*
X111283507Y-137575695D01*
X111195653Y-137539305D01*
X111099556Y-137499500D01*
X110900444Y-137499500D01*
X110824249Y-137531061D01*
X110716492Y-137575695D01*
X110575695Y-137716492D01*
X110519402Y-137852395D01*
X110499500Y-137900444D01*
X110300000Y-137900444D01*
X110300000Y-136400444D01*
X111249500Y-136400444D01*
X111249500Y-136599556D01*
X111280429Y-136674224D01*
X111325695Y-136783507D01*
X111325696Y-136783508D01*
X111325697Y-136783510D01*
X111466490Y-136924303D01*
X111650444Y-137000500D01*
X111650446Y-137000500D01*
X111849554Y-137000500D01*
X111849556Y-137000500D01*
X112033510Y-136924303D01*
X112174303Y-136783510D01*
X112250500Y-136599556D01*
X112250500Y-136400444D01*
X112749500Y-136400444D01*
X112749500Y-136599556D01*
X112780429Y-136674224D01*
X112825695Y-136783507D01*
X112825696Y-136783508D01*
X112825697Y-136783510D01*
X112966490Y-136924303D01*
X113150444Y-137000500D01*
X113150446Y-137000500D01*
X113349554Y-137000500D01*
X113349556Y-137000500D01*
X113533510Y-136924303D01*
X113674303Y-136783510D01*
X113710781Y-136695444D01*
X117584500Y-136695444D01*
X117584500Y-136894556D01*
X117624305Y-136990653D01*
X117660695Y-137078507D01*
X117660696Y-137078508D01*
X117660697Y-137078510D01*
X117801490Y-137219303D01*
X117985444Y-137295500D01*
X117985446Y-137295500D01*
X118184554Y-137295500D01*
X118184556Y-137295500D01*
X118368510Y-137219303D01*
X118509303Y-137078510D01*
X118585500Y-136894556D01*
X118585500Y-136805626D01*
X124284500Y-136805626D01*
X124284500Y-137594367D01*
X124284501Y-137594374D01*
X124310637Y-137725775D01*
X124310638Y-137725776D01*
X124410207Y-137874793D01*
X124559224Y-137974362D01*
X124559223Y-137974362D01*
X124585361Y-137979560D01*
X124690629Y-138000500D01*
X126029370Y-138000499D01*
X126160776Y-137974362D01*
X126309793Y-137874793D01*
X126409362Y-137725776D01*
X126435500Y-137594371D01*
X126435499Y-136805630D01*
X126409362Y-136674224D01*
X126400155Y-136660444D01*
X131569500Y-136660444D01*
X131569500Y-136859556D01*
X131596320Y-136924304D01*
X131645695Y-137043507D01*
X131645696Y-137043508D01*
X131645697Y-137043510D01*
X131786490Y-137184303D01*
X131970444Y-137260500D01*
X131970446Y-137260500D01*
X132169554Y-137260500D01*
X132169556Y-137260500D01*
X132353510Y-137184303D01*
X132494303Y-137043510D01*
X132570500Y-136859556D01*
X132570500Y-136660444D01*
X132514482Y-136525206D01*
X132494304Y-136476492D01*
X132494303Y-136476491D01*
X132494303Y-136476490D01*
X132353510Y-136335697D01*
X132353508Y-136335696D01*
X132353507Y-136335695D01*
X132265653Y-136299305D01*
X132232629Y-136285626D01*
X152564500Y-136285626D01*
X152564500Y-137074367D01*
X152564501Y-137074374D01*
X152590637Y-137205775D01*
X152590638Y-137205776D01*
X152690207Y-137354793D01*
X152839224Y-137454362D01*
X152839223Y-137454362D01*
X152865361Y-137459560D01*
X152970629Y-137480500D01*
X154309370Y-137480499D01*
X154440776Y-137454362D01*
X154589793Y-137354793D01*
X154689362Y-137205776D01*
X154715500Y-137074371D01*
X154715499Y-136285630D01*
X154689362Y-136154224D01*
X154589793Y-136005207D01*
X154440776Y-135905638D01*
X154440775Y-135905637D01*
X154440776Y-135905637D01*
X154309371Y-135879500D01*
X152970632Y-135879500D01*
X152970625Y-135879501D01*
X152839224Y-135905637D01*
X152839223Y-135905638D01*
X152690208Y-136005206D01*
X152690206Y-136005208D01*
X152590637Y-136154224D01*
X152564500Y-136285626D01*
X132232629Y-136285626D01*
X132169556Y-136259500D01*
X131970444Y-136259500D01*
X131894249Y-136291061D01*
X131786492Y-136335695D01*
X131645695Y-136476492D01*
X131594722Y-136599554D01*
X131569500Y-136660444D01*
X126400155Y-136660444D01*
X126309793Y-136525207D01*
X126160776Y-136425638D01*
X126160775Y-136425637D01*
X126160776Y-136425637D01*
X126029371Y-136399500D01*
X124690632Y-136399500D01*
X124690625Y-136399501D01*
X124559224Y-136425637D01*
X124559223Y-136425638D01*
X124410208Y-136525206D01*
X124410206Y-136525208D01*
X124310637Y-136674224D01*
X124284500Y-136805626D01*
X118585500Y-136805626D01*
X118585500Y-136695444D01*
X118514985Y-136525207D01*
X118509304Y-136511492D01*
X118509303Y-136511491D01*
X118509303Y-136511490D01*
X118368510Y-136370697D01*
X118368508Y-136370696D01*
X118368507Y-136370695D01*
X118280653Y-136334305D01*
X118184556Y-136294500D01*
X117985444Y-136294500D01*
X117909249Y-136326061D01*
X117801492Y-136370695D01*
X117660695Y-136511492D01*
X117604402Y-136647395D01*
X117584500Y-136695444D01*
X113710781Y-136695444D01*
X113750500Y-136599556D01*
X113750500Y-136400444D01*
X113674303Y-136216490D01*
X113533510Y-136075697D01*
X113533508Y-136075696D01*
X113533507Y-136075695D01*
X113445653Y-136039305D01*
X113349556Y-135999500D01*
X113150444Y-135999500D01*
X113075604Y-136030500D01*
X112966492Y-136075695D01*
X112825695Y-136216492D01*
X112776320Y-136335695D01*
X112749500Y-136400444D01*
X112250500Y-136400444D01*
X112174303Y-136216490D01*
X112033510Y-136075697D01*
X112033508Y-136075696D01*
X112033507Y-136075695D01*
X111945653Y-136039305D01*
X111849556Y-135999500D01*
X111650444Y-135999500D01*
X111575604Y-136030500D01*
X111466492Y-136075695D01*
X111325695Y-136216492D01*
X111276320Y-136335695D01*
X111249500Y-136400444D01*
X110300000Y-136400444D01*
X110300000Y-134900444D01*
X110499500Y-134900444D01*
X110499500Y-135099556D01*
X110502044Y-135105697D01*
X110575695Y-135283507D01*
X110575696Y-135283508D01*
X110575697Y-135283510D01*
X110716490Y-135424303D01*
X110716491Y-135424303D01*
X110716492Y-135424304D01*
X110731318Y-135430445D01*
X110900444Y-135500500D01*
X110900446Y-135500500D01*
X111099554Y-135500500D01*
X111099556Y-135500500D01*
X111283510Y-135424303D01*
X111424303Y-135283510D01*
X111500500Y-135099556D01*
X111500500Y-134900444D01*
X111999500Y-134900444D01*
X111999500Y-135099556D01*
X112002044Y-135105697D01*
X112075695Y-135283507D01*
X112075696Y-135283508D01*
X112075697Y-135283510D01*
X112216490Y-135424303D01*
X112216491Y-135424303D01*
X112216492Y-135424304D01*
X112231318Y-135430445D01*
X112400444Y-135500500D01*
X112400446Y-135500500D01*
X112599554Y-135500500D01*
X112599556Y-135500500D01*
X112783510Y-135424303D01*
X112924303Y-135283510D01*
X113000500Y-135099556D01*
X113000500Y-134900444D01*
X113499500Y-134900444D01*
X113499500Y-135099556D01*
X113502044Y-135105697D01*
X113575695Y-135283507D01*
X113575696Y-135283508D01*
X113575697Y-135283510D01*
X113716490Y-135424303D01*
X113716491Y-135424303D01*
X113716492Y-135424304D01*
X113731318Y-135430445D01*
X113900444Y-135500500D01*
X113900446Y-135500500D01*
X114099554Y-135500500D01*
X114099556Y-135500500D01*
X114283510Y-135424303D01*
X114348585Y-135359228D01*
X124284499Y-135359228D01*
X124406367Y-135653444D01*
X124406368Y-135653445D01*
X124406369Y-135653447D01*
X124631553Y-135878631D01*
X124925771Y-136000500D01*
X124925772Y-136000500D01*
X125794228Y-136000500D01*
X125794229Y-136000500D01*
X126088447Y-135878631D01*
X126313631Y-135653447D01*
X126435500Y-135359229D01*
X126435500Y-135090444D01*
X135169500Y-135090444D01*
X135169500Y-135289556D01*
X135198360Y-135359229D01*
X135245695Y-135473507D01*
X135245696Y-135473508D01*
X135245697Y-135473510D01*
X135386490Y-135614303D01*
X135570444Y-135690500D01*
X135570446Y-135690500D01*
X135769554Y-135690500D01*
X135769556Y-135690500D01*
X135953510Y-135614303D01*
X136092369Y-135475444D01*
X137249500Y-135475444D01*
X137249500Y-135674556D01*
X137289305Y-135770653D01*
X137325695Y-135858507D01*
X137325696Y-135858508D01*
X137325697Y-135858510D01*
X137466490Y-135999303D01*
X137466491Y-135999303D01*
X137466492Y-135999304D01*
X137480741Y-136005206D01*
X137650444Y-136075500D01*
X137650446Y-136075500D01*
X137849554Y-136075500D01*
X137849556Y-136075500D01*
X138033510Y-135999303D01*
X138174303Y-135858510D01*
X138250500Y-135674556D01*
X138250500Y-135475444D01*
X138231860Y-135430444D01*
X146699500Y-135430444D01*
X146699500Y-135629556D01*
X146718139Y-135674554D01*
X146775695Y-135813507D01*
X146775696Y-135813508D01*
X146775697Y-135813510D01*
X146916490Y-135954303D01*
X147100444Y-136030500D01*
X147100446Y-136030500D01*
X147299554Y-136030500D01*
X147299556Y-136030500D01*
X147483510Y-135954303D01*
X147624303Y-135813510D01*
X147700500Y-135629556D01*
X147700500Y-135430444D01*
X147624303Y-135246490D01*
X147483510Y-135105697D01*
X147483508Y-135105696D01*
X147483507Y-135105695D01*
X147395653Y-135069305D01*
X147299556Y-135029500D01*
X147100444Y-135029500D01*
X147024249Y-135061061D01*
X146916492Y-135105695D01*
X146775695Y-135246492D01*
X146719402Y-135382395D01*
X146699500Y-135430444D01*
X138231860Y-135430444D01*
X138229317Y-135424304D01*
X138174304Y-135291492D01*
X138174303Y-135291491D01*
X138174303Y-135291490D01*
X138033510Y-135150697D01*
X138033508Y-135150696D01*
X138033507Y-135150695D01*
X137924871Y-135105697D01*
X137849556Y-135074500D01*
X137650444Y-135074500D01*
X137589959Y-135099554D01*
X137466492Y-135150695D01*
X137325695Y-135291492D01*
X137270683Y-135424304D01*
X137249500Y-135475444D01*
X136092369Y-135475444D01*
X136094303Y-135473510D01*
X136170500Y-135289556D01*
X136170500Y-135090444D01*
X136094303Y-134906490D01*
X135953510Y-134765697D01*
X135953508Y-134765696D01*
X135953507Y-134765695D01*
X135865653Y-134729305D01*
X135769556Y-134689500D01*
X135570444Y-134689500D01*
X135505285Y-134716490D01*
X135386492Y-134765695D01*
X135245695Y-134906492D01*
X135194744Y-135029500D01*
X135169500Y-135090444D01*
X126435500Y-135090444D01*
X126435500Y-135040771D01*
X126313631Y-134746553D01*
X126088447Y-134521369D01*
X126088445Y-134521368D01*
X126088444Y-134521367D01*
X125898248Y-134442586D01*
X125794229Y-134399500D01*
X124925771Y-134399500D01*
X124848921Y-134431332D01*
X124631555Y-134521367D01*
X124406367Y-134746555D01*
X124284500Y-135040771D01*
X124284500Y-135359228D01*
X124284499Y-135359228D01*
X114348585Y-135359228D01*
X114424303Y-135283510D01*
X114500500Y-135099556D01*
X114500500Y-134900444D01*
X114444685Y-134765695D01*
X114424304Y-134716492D01*
X114424303Y-134716491D01*
X114424303Y-134716490D01*
X114283510Y-134575697D01*
X114283508Y-134575696D01*
X114283507Y-134575695D01*
X114195653Y-134539305D01*
X114099556Y-134499500D01*
X113900444Y-134499500D01*
X113824249Y-134531061D01*
X113716492Y-134575695D01*
X113575695Y-134716492D01*
X113519402Y-134852395D01*
X113499500Y-134900444D01*
X113000500Y-134900444D01*
X112944685Y-134765695D01*
X112924304Y-134716492D01*
X112924303Y-134716491D01*
X112924303Y-134716490D01*
X112783510Y-134575697D01*
X112783508Y-134575696D01*
X112783507Y-134575695D01*
X112695653Y-134539305D01*
X112599556Y-134499500D01*
X112400444Y-134499500D01*
X112324249Y-134531061D01*
X112216492Y-134575695D01*
X112075695Y-134716492D01*
X112019402Y-134852395D01*
X111999500Y-134900444D01*
X111500500Y-134900444D01*
X111444685Y-134765695D01*
X111424304Y-134716492D01*
X111424303Y-134716491D01*
X111424303Y-134716490D01*
X111283510Y-134575697D01*
X111283508Y-134575696D01*
X111283507Y-134575695D01*
X111195653Y-134539305D01*
X111099556Y-134499500D01*
X110900444Y-134499500D01*
X110824249Y-134531061D01*
X110716492Y-134575695D01*
X110575695Y-134716492D01*
X110519402Y-134852395D01*
X110499500Y-134900444D01*
X110300000Y-134900444D01*
X110300000Y-133400444D01*
X111249500Y-133400444D01*
X111249500Y-133599556D01*
X111289305Y-133695653D01*
X111325695Y-133783507D01*
X111325696Y-133783508D01*
X111325697Y-133783510D01*
X111466490Y-133924303D01*
X111650444Y-134000500D01*
X111650446Y-134000500D01*
X111849554Y-134000500D01*
X111849556Y-134000500D01*
X112033510Y-133924303D01*
X112174303Y-133783510D01*
X112250500Y-133599556D01*
X112250500Y-133400444D01*
X112749500Y-133400444D01*
X112749500Y-133599556D01*
X112789305Y-133695653D01*
X112825695Y-133783507D01*
X112825696Y-133783508D01*
X112825697Y-133783510D01*
X112966490Y-133924303D01*
X113150444Y-134000500D01*
X113150446Y-134000500D01*
X113349554Y-134000500D01*
X113349556Y-134000500D01*
X113533510Y-133924303D01*
X113674303Y-133783510D01*
X113750500Y-133599556D01*
X113750500Y-133400444D01*
X120249500Y-133400444D01*
X120249500Y-133599556D01*
X120289305Y-133695653D01*
X120325695Y-133783507D01*
X120325696Y-133783508D01*
X120325697Y-133783510D01*
X120466490Y-133924303D01*
X120650444Y-134000500D01*
X120650446Y-134000500D01*
X120849554Y-134000500D01*
X120849556Y-134000500D01*
X121033510Y-133924303D01*
X121174303Y-133783510D01*
X121250500Y-133599556D01*
X121250500Y-133400444D01*
X121749500Y-133400444D01*
X121749500Y-133599556D01*
X121789305Y-133695653D01*
X121825695Y-133783507D01*
X121825696Y-133783508D01*
X121825697Y-133783510D01*
X121966490Y-133924303D01*
X122150444Y-134000500D01*
X122150446Y-134000500D01*
X122349554Y-134000500D01*
X122349556Y-134000500D01*
X122533510Y-133924303D01*
X122674303Y-133783510D01*
X122750500Y-133599556D01*
X122750500Y-133400444D01*
X123249500Y-133400444D01*
X123249500Y-133599556D01*
X123289305Y-133695653D01*
X123325695Y-133783507D01*
X123325696Y-133783508D01*
X123325697Y-133783510D01*
X123466490Y-133924303D01*
X123650444Y-134000500D01*
X123650446Y-134000500D01*
X123849554Y-134000500D01*
X123849556Y-134000500D01*
X124033510Y-133924303D01*
X124174303Y-133783510D01*
X124225809Y-133659163D01*
X124279386Y-133605586D01*
X124355157Y-133605586D01*
X124397334Y-133647753D01*
X124400950Y-133645338D01*
X124406365Y-133653442D01*
X124406368Y-133653445D01*
X124406369Y-133653447D01*
X124631553Y-133878631D01*
X124925771Y-134000500D01*
X124925772Y-134000500D01*
X125794228Y-134000500D01*
X125794229Y-134000500D01*
X126088447Y-133878631D01*
X126296634Y-133670444D01*
X135349500Y-133670444D01*
X135349500Y-133869556D01*
X135372178Y-133924304D01*
X135425695Y-134053507D01*
X135425696Y-134053508D01*
X135425697Y-134053510D01*
X135566490Y-134194303D01*
X135750444Y-134270500D01*
X135750446Y-134270500D01*
X135949554Y-134270500D01*
X135949556Y-134270500D01*
X136133510Y-134194303D01*
X136274303Y-134053510D01*
X136350500Y-133869556D01*
X136350500Y-133670444D01*
X136274303Y-133486490D01*
X136133510Y-133345697D01*
X136133508Y-133345696D01*
X136133507Y-133345695D01*
X136045653Y-133309305D01*
X135949556Y-133269500D01*
X135750444Y-133269500D01*
X135674249Y-133301061D01*
X135566492Y-133345695D01*
X135425695Y-133486492D01*
X135409127Y-133526492D01*
X135349500Y-133670444D01*
X126296634Y-133670444D01*
X126313631Y-133653447D01*
X126317748Y-133643506D01*
X126326323Y-133622807D01*
X126326323Y-133622806D01*
X126366218Y-133526490D01*
X126435500Y-133359229D01*
X126435500Y-133040771D01*
X126369091Y-132880445D01*
X126369091Y-132880444D01*
X137199500Y-132880444D01*
X137199500Y-133079556D01*
X137231862Y-133157684D01*
X137275695Y-133263507D01*
X137275696Y-133263508D01*
X137275697Y-133263510D01*
X137347183Y-133334996D01*
X137376179Y-133404999D01*
X137347184Y-133475001D01*
X137295696Y-133526489D01*
X137246468Y-133645338D01*
X137219500Y-133710444D01*
X137219500Y-133909556D01*
X137257171Y-134000500D01*
X137295695Y-134093507D01*
X137295696Y-134093508D01*
X137295697Y-134093510D01*
X137436490Y-134234303D01*
X137620444Y-134310500D01*
X137620446Y-134310500D01*
X137819554Y-134310500D01*
X137819556Y-134310500D01*
X138003510Y-134234303D01*
X138039997Y-134197815D01*
X138110000Y-134168820D01*
X138180002Y-134197815D01*
X138216490Y-134234303D01*
X138400444Y-134310500D01*
X138400446Y-134310500D01*
X138599554Y-134310500D01*
X138599556Y-134310500D01*
X138783510Y-134234303D01*
X138924303Y-134093510D01*
X139000500Y-133909556D01*
X139000500Y-133710444D01*
X138924303Y-133526490D01*
X138847814Y-133450001D01*
X138818819Y-133379999D01*
X138847813Y-133309999D01*
X138914303Y-133243510D01*
X138990500Y-133059556D01*
X138990500Y-132860444D01*
X138914303Y-132676490D01*
X138773510Y-132535697D01*
X138773508Y-132535696D01*
X138773507Y-132535695D01*
X138685653Y-132499305D01*
X138589556Y-132459500D01*
X138390444Y-132459500D01*
X138322492Y-132487646D01*
X138206489Y-132535696D01*
X138155001Y-132587184D01*
X138084997Y-132616179D01*
X138014996Y-132587183D01*
X137983510Y-132555697D01*
X137983508Y-132555696D01*
X137983507Y-132555695D01*
X137895653Y-132519305D01*
X137799556Y-132479500D01*
X137600444Y-132479500D01*
X137524249Y-132511061D01*
X137416492Y-132555695D01*
X137275695Y-132696492D01*
X137219402Y-132832395D01*
X137199500Y-132880444D01*
X126369091Y-132880444D01*
X126313632Y-132746555D01*
X126313631Y-132746554D01*
X126313631Y-132746553D01*
X126088447Y-132521369D01*
X126088445Y-132521368D01*
X126088444Y-132521367D01*
X125854111Y-132424304D01*
X125794229Y-132399500D01*
X124925771Y-132399500D01*
X124865891Y-132424303D01*
X124631555Y-132521367D01*
X124406367Y-132746555D01*
X124284500Y-133040771D01*
X124284500Y-133087680D01*
X124255504Y-133157684D01*
X124185500Y-133186680D01*
X124115497Y-133157684D01*
X124033510Y-133075697D01*
X124033508Y-133075696D01*
X124033507Y-133075695D01*
X123945653Y-133039305D01*
X123849556Y-132999500D01*
X123650444Y-132999500D01*
X123574249Y-133031061D01*
X123466492Y-133075695D01*
X123325695Y-133216492D01*
X123276610Y-133334995D01*
X123249500Y-133400444D01*
X122750500Y-133400444D01*
X122674303Y-133216490D01*
X122533510Y-133075697D01*
X122533508Y-133075696D01*
X122533507Y-133075695D01*
X122445653Y-133039305D01*
X122349556Y-132999500D01*
X122150444Y-132999500D01*
X122074249Y-133031061D01*
X121966492Y-133075695D01*
X121825695Y-133216492D01*
X121776610Y-133334995D01*
X121749500Y-133400444D01*
X121250500Y-133400444D01*
X121174303Y-133216490D01*
X121033510Y-133075697D01*
X121033508Y-133075696D01*
X121033507Y-133075695D01*
X120945653Y-133039305D01*
X120849556Y-132999500D01*
X120650444Y-132999500D01*
X120574249Y-133031061D01*
X120466492Y-133075695D01*
X120325695Y-133216492D01*
X120276610Y-133334995D01*
X120249500Y-133400444D01*
X113750500Y-133400444D01*
X113674303Y-133216490D01*
X113533510Y-133075697D01*
X113533508Y-133075696D01*
X113533507Y-133075695D01*
X113445653Y-133039305D01*
X113349556Y-132999500D01*
X113150444Y-132999500D01*
X113074249Y-133031061D01*
X112966492Y-133075695D01*
X112825695Y-133216492D01*
X112776610Y-133334995D01*
X112749500Y-133400444D01*
X112250500Y-133400444D01*
X112174303Y-133216490D01*
X112033510Y-133075697D01*
X112033508Y-133075696D01*
X112033507Y-133075695D01*
X111945653Y-133039305D01*
X111849556Y-132999500D01*
X111650444Y-132999500D01*
X111574249Y-133031061D01*
X111466492Y-133075695D01*
X111325695Y-133216492D01*
X111276610Y-133334995D01*
X111249500Y-133400444D01*
X110300000Y-133400444D01*
X110300000Y-131900444D01*
X119499500Y-131900444D01*
X119499500Y-132099556D01*
X119539305Y-132195653D01*
X119575695Y-132283507D01*
X119575696Y-132283508D01*
X119575697Y-132283510D01*
X119716490Y-132424303D01*
X119900444Y-132500500D01*
X119900446Y-132500500D01*
X120099554Y-132500500D01*
X120099556Y-132500500D01*
X120283510Y-132424303D01*
X120424303Y-132283510D01*
X120500500Y-132099556D01*
X120500500Y-131900444D01*
X120999500Y-131900444D01*
X120999500Y-132099556D01*
X121039305Y-132195653D01*
X121075695Y-132283507D01*
X121075696Y-132283508D01*
X121075697Y-132283510D01*
X121216490Y-132424303D01*
X121400444Y-132500500D01*
X121400446Y-132500500D01*
X121599554Y-132500500D01*
X121599556Y-132500500D01*
X121783510Y-132424303D01*
X121924303Y-132283510D01*
X122000500Y-132099556D01*
X122000500Y-131900444D01*
X122499500Y-131900444D01*
X122499500Y-132099556D01*
X122539305Y-132195653D01*
X122575695Y-132283507D01*
X122575696Y-132283508D01*
X122575697Y-132283510D01*
X122716490Y-132424303D01*
X122900444Y-132500500D01*
X122900446Y-132500500D01*
X123099554Y-132500500D01*
X123099556Y-132500500D01*
X123283510Y-132424303D01*
X123424303Y-132283510D01*
X123500500Y-132099556D01*
X123500500Y-131900444D01*
X123424303Y-131716490D01*
X123283510Y-131575697D01*
X123283508Y-131575696D01*
X123283507Y-131575695D01*
X123195653Y-131539305D01*
X123099556Y-131499500D01*
X122900444Y-131499500D01*
X122824249Y-131531061D01*
X122716492Y-131575695D01*
X122575695Y-131716492D01*
X122519402Y-131852395D01*
X122499500Y-131900444D01*
X122000500Y-131900444D01*
X121924303Y-131716490D01*
X121783510Y-131575697D01*
X121783508Y-131575696D01*
X121783507Y-131575695D01*
X121695653Y-131539305D01*
X121599556Y-131499500D01*
X121400444Y-131499500D01*
X121324249Y-131531061D01*
X121216492Y-131575695D01*
X121075695Y-131716492D01*
X121019402Y-131852395D01*
X120999500Y-131900444D01*
X120500500Y-131900444D01*
X120424303Y-131716490D01*
X120283510Y-131575697D01*
X120283508Y-131575696D01*
X120283507Y-131575695D01*
X120195653Y-131539305D01*
X120099556Y-131499500D01*
X119900444Y-131499500D01*
X119824249Y-131531061D01*
X119716492Y-131575695D01*
X119575695Y-131716492D01*
X119519402Y-131852395D01*
X119499500Y-131900444D01*
X110300000Y-131900444D01*
X110300000Y-125399000D01*
X110328996Y-125328996D01*
X110399000Y-125300000D01*
X120876000Y-125300000D01*
X120946004Y-125328996D01*
G37*
%TD.AperFunction*%
%TD*%
%TA.AperFunction,Conductor*%
%TO.N,GND*%
G36*
X91370504Y-123479496D02*
G01*
X91399500Y-123549500D01*
X91399500Y-187850500D01*
X91370504Y-187920504D01*
X91300500Y-187949500D01*
X72999500Y-187949500D01*
X72929496Y-187920504D01*
X72900500Y-187850500D01*
X72900500Y-186374228D01*
X76359499Y-186374228D01*
X76481367Y-186668444D01*
X76481368Y-186668445D01*
X76481369Y-186668447D01*
X76706553Y-186893631D01*
X77000771Y-187015500D01*
X77000772Y-187015500D01*
X77319228Y-187015500D01*
X77319229Y-187015500D01*
X77613447Y-186893631D01*
X77838631Y-186668447D01*
X77960500Y-186374229D01*
X77960500Y-186374228D01*
X78359499Y-186374228D01*
X78481367Y-186668444D01*
X78481368Y-186668445D01*
X78481369Y-186668447D01*
X78706553Y-186893631D01*
X79000771Y-187015500D01*
X79000772Y-187015500D01*
X79319228Y-187015500D01*
X79319229Y-187015500D01*
X79613447Y-186893631D01*
X79838631Y-186668447D01*
X79960500Y-186374229D01*
X79960500Y-186374228D01*
X80359499Y-186374228D01*
X80481367Y-186668444D01*
X80481368Y-186668445D01*
X80481369Y-186668447D01*
X80706553Y-186893631D01*
X81000771Y-187015500D01*
X81000772Y-187015500D01*
X81319228Y-187015500D01*
X81319229Y-187015500D01*
X81613447Y-186893631D01*
X81838631Y-186668447D01*
X81960500Y-186374229D01*
X81960500Y-186374228D01*
X84359499Y-186374228D01*
X84481367Y-186668444D01*
X84481368Y-186668445D01*
X84481369Y-186668447D01*
X84706553Y-186893631D01*
X85000771Y-187015500D01*
X85000772Y-187015500D01*
X85319228Y-187015500D01*
X85319229Y-187015500D01*
X85613447Y-186893631D01*
X85838631Y-186668447D01*
X85960500Y-186374229D01*
X85960500Y-185505771D01*
X85876780Y-185303651D01*
X85863100Y-185270626D01*
X86359500Y-185270626D01*
X86359500Y-186609367D01*
X86359501Y-186609374D01*
X86385637Y-186740775D01*
X86385638Y-186740776D01*
X86485207Y-186889793D01*
X86634224Y-186989362D01*
X86634223Y-186989362D01*
X86660361Y-186994560D01*
X86765629Y-187015500D01*
X87554370Y-187015499D01*
X87685776Y-186989362D01*
X87834793Y-186889793D01*
X87934362Y-186740776D01*
X87960500Y-186609371D01*
X87960499Y-185270630D01*
X87934362Y-185139224D01*
X87834793Y-184990207D01*
X87685776Y-184890638D01*
X87685775Y-184890637D01*
X87685776Y-184890637D01*
X87554371Y-184864500D01*
X86765632Y-184864500D01*
X86765625Y-184864501D01*
X86634224Y-184890637D01*
X86634223Y-184890638D01*
X86485208Y-184990206D01*
X86485206Y-184990208D01*
X86385637Y-185139224D01*
X86359500Y-185270626D01*
X85863100Y-185270626D01*
X85838632Y-185211555D01*
X85838631Y-185211554D01*
X85838631Y-185211553D01*
X85613447Y-184986369D01*
X85613445Y-184986368D01*
X85613444Y-184986367D01*
X85423248Y-184907586D01*
X85319229Y-184864500D01*
X85000771Y-184864500D01*
X84937671Y-184890637D01*
X84706555Y-184986367D01*
X84481367Y-185211555D01*
X84359500Y-185505771D01*
X84359500Y-186374228D01*
X84359499Y-186374228D01*
X81960500Y-186374228D01*
X81960500Y-185505771D01*
X81863102Y-185270632D01*
X81838632Y-185211555D01*
X81838631Y-185211554D01*
X81838631Y-185211553D01*
X81613447Y-184986369D01*
X81613445Y-184986368D01*
X81613444Y-184986367D01*
X81423248Y-184907586D01*
X81319229Y-184864500D01*
X81000771Y-184864500D01*
X80937671Y-184890637D01*
X80706555Y-184986367D01*
X80481367Y-185211555D01*
X80359500Y-185505771D01*
X80359500Y-186374228D01*
X80359499Y-186374228D01*
X79960500Y-186374228D01*
X79960500Y-185505771D01*
X79863102Y-185270632D01*
X79838632Y-185211555D01*
X79838631Y-185211554D01*
X79838631Y-185211553D01*
X79613447Y-184986369D01*
X79613445Y-184986368D01*
X79613444Y-184986367D01*
X79423248Y-184907586D01*
X79319229Y-184864500D01*
X79000771Y-184864500D01*
X78937671Y-184890637D01*
X78706555Y-184986367D01*
X78481367Y-185211555D01*
X78359500Y-185505771D01*
X78359500Y-186374228D01*
X78359499Y-186374228D01*
X77960500Y-186374228D01*
X77960500Y-185505771D01*
X77863102Y-185270632D01*
X77838632Y-185211555D01*
X77838631Y-185211554D01*
X77838631Y-185211553D01*
X77613447Y-184986369D01*
X77613445Y-184986368D01*
X77613444Y-184986367D01*
X77423248Y-184907586D01*
X77319229Y-184864500D01*
X77000771Y-184864500D01*
X76937671Y-184890637D01*
X76706555Y-184986367D01*
X76481367Y-185211555D01*
X76359500Y-185505771D01*
X76359500Y-186374228D01*
X76359499Y-186374228D01*
X72900500Y-186374228D01*
X72900500Y-181080444D01*
X80629500Y-181080444D01*
X80629500Y-181279556D01*
X80669305Y-181375653D01*
X80705695Y-181463507D01*
X80705696Y-181463508D01*
X80705697Y-181463510D01*
X80846490Y-181604303D01*
X81030444Y-181680500D01*
X81030446Y-181680500D01*
X81229554Y-181680500D01*
X81229556Y-181680500D01*
X81413510Y-181604303D01*
X81554303Y-181463510D01*
X81630500Y-181279556D01*
X81630500Y-181080444D01*
X81554303Y-180896490D01*
X81413510Y-180755697D01*
X81413508Y-180755696D01*
X81413507Y-180755695D01*
X81325653Y-180719305D01*
X81229556Y-180679500D01*
X81030444Y-180679500D01*
X80954249Y-180711061D01*
X80846492Y-180755695D01*
X80705695Y-180896492D01*
X80649402Y-181032395D01*
X80629500Y-181080444D01*
X72900500Y-181080444D01*
X72900500Y-148400444D01*
X75249500Y-148400444D01*
X75249500Y-148599556D01*
X75289305Y-148695653D01*
X75325695Y-148783507D01*
X75325696Y-148783508D01*
X75325697Y-148783510D01*
X75466490Y-148924303D01*
X75650444Y-149000500D01*
X75650446Y-149000500D01*
X75849554Y-149000500D01*
X75849556Y-149000500D01*
X76033510Y-148924303D01*
X76174303Y-148783510D01*
X76250500Y-148599556D01*
X76250500Y-148400444D01*
X76174303Y-148216490D01*
X76033510Y-148075697D01*
X76033508Y-148075696D01*
X76033507Y-148075695D01*
X75945653Y-148039305D01*
X75849556Y-147999500D01*
X75650444Y-147999500D01*
X75574249Y-148031061D01*
X75466492Y-148075695D01*
X75325695Y-148216492D01*
X75269402Y-148352395D01*
X75249500Y-148400444D01*
X72900500Y-148400444D01*
X72900500Y-146900444D01*
X75999500Y-146900444D01*
X75999500Y-147099556D01*
X76039305Y-147195653D01*
X76075695Y-147283507D01*
X76075696Y-147283508D01*
X76075697Y-147283510D01*
X76216490Y-147424303D01*
X76400444Y-147500500D01*
X76400446Y-147500500D01*
X76599554Y-147500500D01*
X76599556Y-147500500D01*
X76783510Y-147424303D01*
X76924303Y-147283510D01*
X77000500Y-147099556D01*
X77000500Y-146900444D01*
X77499500Y-146900444D01*
X77499500Y-147099556D01*
X77539305Y-147195653D01*
X77575695Y-147283507D01*
X77575696Y-147283508D01*
X77575697Y-147283510D01*
X77716490Y-147424303D01*
X77900444Y-147500500D01*
X77900446Y-147500500D01*
X78099554Y-147500500D01*
X78099556Y-147500500D01*
X78283510Y-147424303D01*
X78424303Y-147283510D01*
X78500500Y-147099556D01*
X78500500Y-146900444D01*
X78999500Y-146900444D01*
X78999500Y-147099556D01*
X79039305Y-147195653D01*
X79075695Y-147283507D01*
X79075696Y-147283508D01*
X79075697Y-147283510D01*
X79216490Y-147424303D01*
X79400444Y-147500500D01*
X79400446Y-147500500D01*
X79599554Y-147500500D01*
X79599556Y-147500500D01*
X79783510Y-147424303D01*
X79924303Y-147283510D01*
X80000500Y-147099556D01*
X80000500Y-146900444D01*
X79924303Y-146716490D01*
X79783510Y-146575697D01*
X79783508Y-146575696D01*
X79783507Y-146575695D01*
X79695653Y-146539305D01*
X79599556Y-146499500D01*
X79400444Y-146499500D01*
X79324249Y-146531061D01*
X79216492Y-146575695D01*
X79075695Y-146716492D01*
X79019402Y-146852395D01*
X78999500Y-146900444D01*
X78500500Y-146900444D01*
X78424303Y-146716490D01*
X78283510Y-146575697D01*
X78283508Y-146575696D01*
X78283507Y-146575695D01*
X78195653Y-146539305D01*
X78099556Y-146499500D01*
X77900444Y-146499500D01*
X77824249Y-146531061D01*
X77716492Y-146575695D01*
X77575695Y-146716492D01*
X77519402Y-146852395D01*
X77499500Y-146900444D01*
X77000500Y-146900444D01*
X76924303Y-146716490D01*
X76783510Y-146575697D01*
X76783508Y-146575696D01*
X76783507Y-146575695D01*
X76695653Y-146539305D01*
X76599556Y-146499500D01*
X76400444Y-146499500D01*
X76324249Y-146531061D01*
X76216492Y-146575695D01*
X76075695Y-146716492D01*
X76019402Y-146852395D01*
X75999500Y-146900444D01*
X72900500Y-146900444D01*
X72900500Y-145400444D01*
X76749500Y-145400444D01*
X76749500Y-145599556D01*
X76789305Y-145695653D01*
X76825695Y-145783507D01*
X76825696Y-145783508D01*
X76825697Y-145783510D01*
X76966490Y-145924303D01*
X77150444Y-146000500D01*
X77150446Y-146000500D01*
X77349554Y-146000500D01*
X77349556Y-146000500D01*
X77533510Y-145924303D01*
X77674303Y-145783510D01*
X77750500Y-145599556D01*
X77750500Y-145400444D01*
X78249500Y-145400444D01*
X78249500Y-145599556D01*
X78289305Y-145695653D01*
X78325695Y-145783507D01*
X78325696Y-145783508D01*
X78325697Y-145783510D01*
X78466490Y-145924303D01*
X78650444Y-146000500D01*
X78650446Y-146000500D01*
X78849554Y-146000500D01*
X78849556Y-146000500D01*
X79033510Y-145924303D01*
X79174303Y-145783510D01*
X79250500Y-145599556D01*
X79250500Y-145400444D01*
X79749500Y-145400444D01*
X79749500Y-145599556D01*
X79789305Y-145695653D01*
X79825695Y-145783507D01*
X79825696Y-145783508D01*
X79825697Y-145783510D01*
X79966490Y-145924303D01*
X80150444Y-146000500D01*
X80150446Y-146000500D01*
X80349554Y-146000500D01*
X80349556Y-146000500D01*
X80533510Y-145924303D01*
X80674303Y-145783510D01*
X80750500Y-145599556D01*
X80750500Y-145400444D01*
X80674303Y-145216490D01*
X80533510Y-145075697D01*
X80533508Y-145075696D01*
X80533507Y-145075695D01*
X80445653Y-145039305D01*
X80349556Y-144999500D01*
X80150444Y-144999500D01*
X80074249Y-145031061D01*
X79966492Y-145075695D01*
X79825695Y-145216492D01*
X79769402Y-145352395D01*
X79749500Y-145400444D01*
X79250500Y-145400444D01*
X79174303Y-145216490D01*
X79033510Y-145075697D01*
X79033508Y-145075696D01*
X79033507Y-145075695D01*
X78945653Y-145039305D01*
X78849556Y-144999500D01*
X78650444Y-144999500D01*
X78574249Y-145031061D01*
X78466492Y-145075695D01*
X78325695Y-145216492D01*
X78269402Y-145352395D01*
X78249500Y-145400444D01*
X77750500Y-145400444D01*
X77674303Y-145216490D01*
X77533510Y-145075697D01*
X77533508Y-145075696D01*
X77533507Y-145075695D01*
X77445653Y-145039305D01*
X77349556Y-144999500D01*
X77150444Y-144999500D01*
X77074249Y-145031061D01*
X76966492Y-145075695D01*
X76825695Y-145216492D01*
X76769402Y-145352395D01*
X76749500Y-145400444D01*
X72900500Y-145400444D01*
X72900500Y-143900444D01*
X77499500Y-143900444D01*
X77499500Y-144099556D01*
X77539305Y-144195653D01*
X77575695Y-144283507D01*
X77575696Y-144283508D01*
X77575697Y-144283510D01*
X77716490Y-144424303D01*
X77900444Y-144500500D01*
X77900446Y-144500500D01*
X78099554Y-144500500D01*
X78099556Y-144500500D01*
X78283510Y-144424303D01*
X78424303Y-144283510D01*
X78500500Y-144099556D01*
X78500500Y-143900444D01*
X78999500Y-143900444D01*
X78999500Y-144099556D01*
X79039305Y-144195653D01*
X79075695Y-144283507D01*
X79075696Y-144283508D01*
X79075697Y-144283510D01*
X79216490Y-144424303D01*
X79400444Y-144500500D01*
X79400446Y-144500500D01*
X79599554Y-144500500D01*
X79599556Y-144500500D01*
X79783510Y-144424303D01*
X79924303Y-144283510D01*
X80000500Y-144099556D01*
X80000500Y-143900444D01*
X79924303Y-143716490D01*
X79783510Y-143575697D01*
X79783508Y-143575696D01*
X79783507Y-143575695D01*
X79695653Y-143539305D01*
X79599556Y-143499500D01*
X79400444Y-143499500D01*
X79324249Y-143531061D01*
X79216492Y-143575695D01*
X79075695Y-143716492D01*
X79019402Y-143852395D01*
X78999500Y-143900444D01*
X78500500Y-143900444D01*
X78424303Y-143716490D01*
X78283510Y-143575697D01*
X78283508Y-143575696D01*
X78283507Y-143575695D01*
X78195653Y-143539305D01*
X78099556Y-143499500D01*
X77900444Y-143499500D01*
X77824249Y-143531061D01*
X77716492Y-143575695D01*
X77575695Y-143716492D01*
X77519402Y-143852395D01*
X77499500Y-143900444D01*
X72900500Y-143900444D01*
X72900500Y-136889065D01*
X74199499Y-136889065D01*
X74344203Y-137238412D01*
X74344204Y-137238413D01*
X74344205Y-137238415D01*
X74611585Y-137505795D01*
X74960934Y-137650500D01*
X74960935Y-137650500D01*
X75339065Y-137650500D01*
X75339066Y-137650500D01*
X75688415Y-137505795D01*
X75955795Y-137238415D01*
X76100500Y-136889066D01*
X76100500Y-136741951D01*
X80949500Y-136741951D01*
X80949500Y-137058049D01*
X80997828Y-137238412D01*
X81031313Y-137363380D01*
X81189357Y-137637119D01*
X81189359Y-137637121D01*
X81189361Y-137637124D01*
X81412876Y-137860639D01*
X81412878Y-137860640D01*
X81412880Y-137860642D01*
X81686620Y-138018686D01*
X81686618Y-138018686D01*
X81686622Y-138018687D01*
X81686624Y-138018688D01*
X81991951Y-138100500D01*
X81991953Y-138100500D01*
X82308047Y-138100500D01*
X82308049Y-138100500D01*
X82613376Y-138018688D01*
X82613378Y-138018686D01*
X82613380Y-138018686D01*
X82887119Y-137860642D01*
X82887119Y-137860641D01*
X82887124Y-137860639D01*
X83110639Y-137637124D01*
X83268688Y-137363376D01*
X83350500Y-137058049D01*
X83350500Y-136741951D01*
X83268688Y-136436624D01*
X83268686Y-136436621D01*
X83268686Y-136436619D01*
X83110642Y-136162880D01*
X83110640Y-136162878D01*
X83110639Y-136162876D01*
X83008423Y-136060660D01*
X89449500Y-136060660D01*
X89449500Y-136339339D01*
X89556142Y-136596799D01*
X89556143Y-136596800D01*
X89556144Y-136596802D01*
X89753198Y-136793856D01*
X89753199Y-136793856D01*
X89753200Y-136793857D01*
X90010660Y-136900500D01*
X90010662Y-136900500D01*
X90289339Y-136900500D01*
X90451696Y-136833249D01*
X90546802Y-136793856D01*
X90743856Y-136596802D01*
X90850500Y-136339338D01*
X90850500Y-136060662D01*
X90850500Y-136060660D01*
X90743857Y-135803200D01*
X90743856Y-135803199D01*
X90743856Y-135803198D01*
X90546802Y-135606144D01*
X90546800Y-135606143D01*
X90546799Y-135606142D01*
X90289340Y-135499500D01*
X90289338Y-135499500D01*
X90010662Y-135499500D01*
X90010660Y-135499500D01*
X89753200Y-135606142D01*
X89556142Y-135803200D01*
X89449500Y-136060660D01*
X83008423Y-136060660D01*
X82887124Y-135939361D01*
X82887121Y-135939359D01*
X82887119Y-135939357D01*
X82613379Y-135781313D01*
X82613381Y-135781313D01*
X82494652Y-135749500D01*
X82308049Y-135699500D01*
X81991951Y-135699500D01*
X81805348Y-135749500D01*
X81686619Y-135781313D01*
X81412880Y-135939357D01*
X81189357Y-136162880D01*
X81031313Y-136436619D01*
X81031312Y-136436624D01*
X80949500Y-136741951D01*
X76100500Y-136741951D01*
X76100500Y-136510934D01*
X76029423Y-136339338D01*
X75955796Y-136161587D01*
X75955795Y-136161586D01*
X75955795Y-136161585D01*
X75688415Y-135894205D01*
X75688413Y-135894204D01*
X75688412Y-135894203D01*
X75415867Y-135781312D01*
X75339066Y-135749500D01*
X74960934Y-135749500D01*
X74884133Y-135781312D01*
X74611587Y-135894203D01*
X74344203Y-136161587D01*
X74199500Y-136510934D01*
X74199500Y-136889065D01*
X74199499Y-136889065D01*
X72900500Y-136889065D01*
X72900500Y-131800444D01*
X80459500Y-131800444D01*
X80459500Y-131999556D01*
X80499305Y-132095653D01*
X80535695Y-132183507D01*
X80535696Y-132183508D01*
X80535697Y-132183510D01*
X80676490Y-132324303D01*
X80860444Y-132400500D01*
X80860446Y-132400500D01*
X81059554Y-132400500D01*
X81059556Y-132400500D01*
X81243510Y-132324303D01*
X81384303Y-132183510D01*
X81442939Y-132041951D01*
X88449500Y-132041951D01*
X88449500Y-132358049D01*
X88460875Y-132400500D01*
X88531313Y-132663380D01*
X88689357Y-132937119D01*
X88689359Y-132937121D01*
X88689361Y-132937124D01*
X88912876Y-133160639D01*
X88912878Y-133160640D01*
X88912880Y-133160642D01*
X89186620Y-133318686D01*
X89186618Y-133318686D01*
X89186622Y-133318687D01*
X89186624Y-133318688D01*
X89491951Y-133400500D01*
X89491953Y-133400500D01*
X89808047Y-133400500D01*
X89808049Y-133400500D01*
X90113376Y-133318688D01*
X90113378Y-133318686D01*
X90113380Y-133318686D01*
X90387119Y-133160642D01*
X90387119Y-133160641D01*
X90387124Y-133160639D01*
X90610639Y-132937124D01*
X90768688Y-132663376D01*
X90850500Y-132358049D01*
X90850500Y-132041951D01*
X90768688Y-131736624D01*
X90768686Y-131736621D01*
X90768686Y-131736619D01*
X90610642Y-131462880D01*
X90610640Y-131462878D01*
X90610639Y-131462876D01*
X90387124Y-131239361D01*
X90387121Y-131239359D01*
X90387119Y-131239357D01*
X90113379Y-131081313D01*
X90113381Y-131081313D01*
X89994913Y-131049570D01*
X89808049Y-130999500D01*
X89491951Y-130999500D01*
X89305086Y-131049570D01*
X89186619Y-131081313D01*
X88912880Y-131239357D01*
X88689357Y-131462880D01*
X88531313Y-131736619D01*
X88514211Y-131800445D01*
X88449500Y-132041951D01*
X81442939Y-132041951D01*
X81460500Y-131999556D01*
X81460500Y-131800444D01*
X81384303Y-131616490D01*
X81243510Y-131475697D01*
X81243508Y-131475696D01*
X81243507Y-131475695D01*
X81155653Y-131439305D01*
X81059556Y-131399500D01*
X80860444Y-131399500D01*
X80784249Y-131431061D01*
X80676492Y-131475695D01*
X80535695Y-131616492D01*
X80485937Y-131736619D01*
X80459500Y-131800444D01*
X72900500Y-131800444D01*
X72900500Y-130950444D01*
X78299500Y-130950444D01*
X78299500Y-131149556D01*
X78336697Y-131239357D01*
X78375695Y-131333507D01*
X78375696Y-131333508D01*
X78375697Y-131333510D01*
X78516490Y-131474303D01*
X78516491Y-131474303D01*
X78516492Y-131474304D01*
X78519855Y-131475697D01*
X78700444Y-131550500D01*
X78700446Y-131550500D01*
X78899554Y-131550500D01*
X78899556Y-131550500D01*
X79083510Y-131474303D01*
X79224303Y-131333510D01*
X79300500Y-131149556D01*
X79300500Y-130950444D01*
X79234225Y-130790444D01*
X81759500Y-130790444D01*
X81759500Y-130989556D01*
X81797507Y-131081312D01*
X81835695Y-131173507D01*
X81835696Y-131173508D01*
X81835697Y-131173510D01*
X81976490Y-131314303D01*
X82160444Y-131390500D01*
X82160446Y-131390500D01*
X82359554Y-131390500D01*
X82359556Y-131390500D01*
X82543510Y-131314303D01*
X82684303Y-131173510D01*
X82760500Y-130989556D01*
X82760500Y-130950444D01*
X83049500Y-130950444D01*
X83049500Y-131149556D01*
X83086697Y-131239357D01*
X83125695Y-131333507D01*
X83125696Y-131333508D01*
X83125697Y-131333510D01*
X83266490Y-131474303D01*
X83266491Y-131474303D01*
X83266492Y-131474304D01*
X83269855Y-131475697D01*
X83450444Y-131550500D01*
X83450446Y-131550500D01*
X83649554Y-131550500D01*
X83649556Y-131550500D01*
X83833510Y-131474303D01*
X83974303Y-131333510D01*
X84050500Y-131149556D01*
X84050500Y-130950444D01*
X83974303Y-130766490D01*
X83833510Y-130625697D01*
X83833508Y-130625696D01*
X83833507Y-130625695D01*
X83745653Y-130589305D01*
X83649556Y-130549500D01*
X83450444Y-130549500D01*
X83374249Y-130581061D01*
X83266492Y-130625695D01*
X83125695Y-130766492D01*
X83069402Y-130902395D01*
X83049500Y-130950444D01*
X82760500Y-130950444D01*
X82760500Y-130790444D01*
X82684303Y-130606490D01*
X82543510Y-130465697D01*
X82543508Y-130465696D01*
X82543507Y-130465695D01*
X82455653Y-130429305D01*
X82359556Y-130389500D01*
X82160444Y-130389500D01*
X82084249Y-130421061D01*
X81976492Y-130465695D01*
X81835695Y-130606492D01*
X81779402Y-130742395D01*
X81759500Y-130790444D01*
X79234225Y-130790444D01*
X79224303Y-130766490D01*
X79083510Y-130625697D01*
X79083508Y-130625696D01*
X79083507Y-130625695D01*
X78995653Y-130589305D01*
X78899556Y-130549500D01*
X78700444Y-130549500D01*
X78624249Y-130581061D01*
X78516492Y-130625695D01*
X78375695Y-130766492D01*
X78319402Y-130902395D01*
X78299500Y-130950444D01*
X72900500Y-130950444D01*
X72900500Y-128614527D01*
X77734499Y-128614527D01*
X77814501Y-128807669D01*
X77814502Y-128807670D01*
X77814503Y-128807672D01*
X77962328Y-128955497D01*
X78155472Y-129035500D01*
X78364527Y-129035500D01*
X78364528Y-129035500D01*
X78557672Y-128955497D01*
X78705497Y-128807672D01*
X78785500Y-128614528D01*
X78785500Y-128614527D01*
X83514499Y-128614527D01*
X83594501Y-128807669D01*
X83594502Y-128807670D01*
X83594503Y-128807672D01*
X83742328Y-128955497D01*
X83935472Y-129035500D01*
X84144527Y-129035500D01*
X84144528Y-129035500D01*
X84337672Y-128955497D01*
X84485497Y-128807672D01*
X84565500Y-128614528D01*
X84565500Y-128405472D01*
X84485497Y-128212328D01*
X84337672Y-128064503D01*
X84337670Y-128064502D01*
X84337669Y-128064501D01*
X84144528Y-127984500D01*
X83935472Y-127984500D01*
X83742330Y-128064501D01*
X83594501Y-128212330D01*
X83514500Y-128405472D01*
X83514500Y-128614527D01*
X83514499Y-128614527D01*
X78785500Y-128614527D01*
X78785500Y-128405472D01*
X78705497Y-128212328D01*
X78557672Y-128064503D01*
X78557670Y-128064502D01*
X78557669Y-128064501D01*
X78364528Y-127984500D01*
X78155472Y-127984500D01*
X77962330Y-128064501D01*
X77814501Y-128212330D01*
X77734500Y-128405472D01*
X77734500Y-128614527D01*
X77734499Y-128614527D01*
X72900500Y-128614527D01*
X72900500Y-123549500D01*
X72929496Y-123479496D01*
X72999500Y-123450500D01*
X91300500Y-123450500D01*
X91370504Y-123479496D01*
G37*
%TD.AperFunction*%
%TD*%
M02*
