%TF.GenerationSoftware,KiCad,Pcbnew,10.0.6-rc2*%
%TF.CreationDate,2026-08-24T12:59:56+02:00*%
%TF.ProjectId,unni-smartification-c6,756e6e69-2d73-46d6-9172-746966696361,rev?*%
%TF.SameCoordinates,Original*%
%TF.FileFunction,Other,User*%
%FSLAX46Y46*%
G04 Gerber Fmt 4.6, Leading zero omitted, Abs format (unit mm)*
G04 Created by KiCad (PCBNEW 10.0.6-rc2) date 2026-08-24 12:59:56*
%MOMM*%
%LPD*%
G01*
G04 APERTURE LIST*
%ADD10C,0.050000*%
G04 APERTURE END LIST*
%TO.C,C1*%
D10*
X119210000Y-148210000D02*
X121170000Y-148210000D01*
X121170000Y-151970000D01*
X119210000Y-151970000D01*
X119210000Y-148210000D01*
%TO.C,R11*%
X114540000Y-143890000D02*
X116440000Y-143890000D01*
X116440000Y-147590000D01*
X114540000Y-147590000D01*
X114540000Y-143890000D01*
%TO.C,R40*%
X152300000Y-142620000D02*
X155600000Y-142620000D01*
X155600000Y-144080000D01*
X152300000Y-144080000D01*
X152300000Y-142620000D01*
%TO.C,Q3*%
X81190000Y-143150000D02*
X86590000Y-143150000D01*
X81190000Y-146650000D02*
X81190000Y-143150000D01*
X86590000Y-143150000D02*
X86590000Y-146650000D01*
X86590000Y-146650000D02*
X81190000Y-146650000D01*
%TO.C,C21*%
X152150000Y-132760000D02*
X155450000Y-132760000D01*
X155450000Y-134220000D01*
X152150000Y-134220000D01*
X152150000Y-132760000D01*
%TO.C,R7*%
X88800000Y-139450000D02*
X90700000Y-139450000D01*
X90700000Y-143150000D01*
X88800000Y-143150000D01*
X88800000Y-139450000D01*
%TO.C,L1*%
X113275000Y-132445000D02*
X117775000Y-132445000D01*
X117775000Y-135745000D01*
X113275000Y-135745000D01*
X113275000Y-132445000D01*
%TO.C,SW2*%
X145825000Y-143175000D02*
X149125000Y-143175000D01*
X149125000Y-148075000D01*
X145825000Y-148075000D01*
X145825000Y-143175000D01*
%TO.C,H3*%
X83400000Y-136900000D02*
G75*
G02*
X80900000Y-136900000I-1250000J0D01*
G01*
X80900000Y-136900000D02*
G75*
G02*
X83400000Y-136900000I1250000J0D01*
G01*
%TO.C,U2*%
X116855000Y-135852500D02*
X116855000Y-136232500D01*
X114095000Y-135852500D02*
X116855000Y-135852500D01*
X116975000Y-136232500D02*
X116975000Y-139232500D01*
X116855000Y-136232500D02*
X116975000Y-136232500D01*
X114095000Y-136232500D02*
X114095000Y-135852500D01*
X113975000Y-136232500D02*
X114095000Y-136232500D01*
X116975000Y-139232500D02*
X116855000Y-139232500D01*
X116855000Y-139232500D02*
X116855000Y-139612500D01*
X114095000Y-139232500D02*
X113975000Y-139232500D01*
X113975000Y-139232500D02*
X113975000Y-136232500D01*
X116855000Y-139612500D02*
X114095000Y-139612500D01*
X114095000Y-139612500D02*
X114095000Y-139232500D01*
%TO.C,Q2*%
X88700000Y-143150000D02*
X83300000Y-143150000D01*
X88700000Y-139650000D02*
X88700000Y-143150000D01*
X83300000Y-143150000D02*
X83300000Y-139650000D01*
X83300000Y-139650000D02*
X88700000Y-139650000D01*
%TO.C,R22*%
X139027500Y-146565000D02*
X140927500Y-146565000D01*
X140927500Y-150265000D01*
X139027500Y-150265000D01*
X139027500Y-146565000D01*
%TO.C,J6*%
X150680000Y-144130000D02*
X156180000Y-144130000D01*
X156180000Y-157030000D01*
X150680000Y-157030000D01*
X150680000Y-144130000D01*
%TO.C,C12*%
X137550000Y-148030000D02*
X139010000Y-148030000D01*
X139010000Y-151330000D01*
X137550000Y-151330000D01*
X137550000Y-148030000D01*
%TO.C,R23*%
X141002500Y-146565000D02*
X142902500Y-146565000D01*
X142902500Y-150265000D01*
X141002500Y-150265000D01*
X141002500Y-146565000D01*
%TO.C,R34*%
X150120000Y-130840000D02*
X153820000Y-130840000D01*
X153820000Y-132740000D01*
X150120000Y-132740000D01*
X150120000Y-130840000D01*
%TO.C,J4*%
X73340000Y-169510000D02*
X73490000Y-169510000D01*
X73340000Y-173920000D02*
X73340000Y-169510000D01*
X73490000Y-165120000D02*
X75940000Y-165120000D01*
X73490000Y-169510000D02*
X73490000Y-165120000D01*
X75850000Y-173720000D02*
X75850000Y-173920000D01*
X75850000Y-173920000D02*
X73340000Y-173920000D01*
X75940000Y-163720000D02*
X81940000Y-163720000D01*
X75940000Y-165120000D02*
X75940000Y-163720000D01*
X81940000Y-163720000D02*
X81940000Y-165120000D01*
X81940000Y-165120000D02*
X84390000Y-165120000D01*
X82030000Y-173720000D02*
X75850000Y-173720000D01*
X82030000Y-173920000D02*
X82030000Y-173720000D01*
X84390000Y-165120000D02*
X84390000Y-169510000D01*
X84390000Y-169510000D02*
X84540000Y-169510000D01*
X84540000Y-169510000D02*
X84540000Y-173920000D01*
X84540000Y-173920000D02*
X82030000Y-173920000D01*
%TO.C,U10*%
X120981098Y-110325000D02*
X164181098Y-110325000D01*
X120981098Y-130725000D02*
X120981098Y-110325000D01*
X135731098Y-130725000D02*
X120981098Y-130725000D01*
X135731098Y-142175000D02*
X135731098Y-130725000D01*
X149431098Y-130725000D02*
X149431098Y-142175000D01*
X149431098Y-130725000D02*
X164181098Y-130725000D01*
X149431098Y-142175000D02*
X135731098Y-142175000D01*
X164181098Y-130725000D02*
X164181098Y-110325000D01*
%TO.C,U3*%
X81000000Y-155950000D02*
X75600000Y-155950000D01*
X81000000Y-152450000D02*
X81000000Y-155950000D01*
X75600000Y-155950000D02*
X75600000Y-152450000D01*
X75600000Y-152450000D02*
X81000000Y-152450000D01*
%TO.C,J5*%
X123168238Y-130720000D02*
X128668238Y-130720000D01*
X128668238Y-137620000D01*
X123168238Y-137620000D01*
X123168238Y-130720000D01*
%TO.C,H2*%
X90900000Y-136200000D02*
G75*
G02*
X89400000Y-136200000I-750000J0D01*
G01*
X89400000Y-136200000D02*
G75*
G02*
X90900000Y-136200000I750000J0D01*
G01*
%TO.C,R32*%
X134160000Y-142560000D02*
X136060000Y-142560000D01*
X136060000Y-146260000D01*
X134160000Y-146260000D01*
X134160000Y-142560000D01*
%TO.C,D3*%
X82400000Y-161550000D02*
X91400000Y-161550000D01*
X82400000Y-165050000D02*
X82400000Y-161550000D01*
X91400000Y-161550000D02*
X91400000Y-165050000D01*
X91400000Y-165050000D02*
X82400000Y-165050000D01*
%TO.C,R9*%
X81650000Y-146750000D02*
X85350000Y-146750000D01*
X85350000Y-148650000D01*
X81650000Y-148650000D01*
X81650000Y-146750000D01*
%TO.C,D1*%
X124760000Y-145220000D02*
X124760000Y-154220000D01*
X121260000Y-145220000D02*
X124760000Y-145220000D01*
X124760000Y-154220000D02*
X121260000Y-154220000D01*
X121260000Y-154220000D02*
X121260000Y-145220000D01*
%TO.C,J2*%
X110010000Y-151790000D02*
X116910000Y-151790000D01*
X116910000Y-157290000D01*
X110010000Y-157290000D01*
X110010000Y-151790000D01*
%TO.C,R20*%
X128670000Y-132380000D02*
X132370000Y-132380000D01*
X132370000Y-134280000D01*
X128670000Y-134280000D01*
X128670000Y-132380000D01*
%TO.C,C11*%
X132370000Y-130870000D02*
X133830000Y-130870000D01*
X133830000Y-134170000D01*
X132370000Y-134170000D01*
X132370000Y-130870000D01*
%TO.C,C20*%
X132430000Y-138800000D02*
X135730000Y-138800000D01*
X135730000Y-140260000D01*
X132430000Y-140260000D01*
X132430000Y-138800000D01*
%TO.C,L2*%
X78300000Y-147400000D02*
X81400000Y-147400000D01*
X81400000Y-152400000D01*
X78300000Y-152400000D01*
X78300000Y-147400000D01*
%TO.C,C32*%
X123017500Y-137680000D02*
X126317500Y-137680000D01*
X126317500Y-139140000D01*
X123017500Y-139140000D01*
X123017500Y-137680000D01*
%TO.C,R12*%
X116490000Y-143890000D02*
X120190000Y-143890000D01*
X120190000Y-145790000D01*
X116490000Y-145790000D01*
X116490000Y-143890000D01*
%TO.C,Q1*%
X128260000Y-151250000D02*
X128260000Y-156650000D01*
X124760000Y-151250000D02*
X128260000Y-151250000D01*
X128260000Y-156650000D02*
X124760000Y-156650000D01*
X124760000Y-156650000D02*
X124760000Y-151250000D01*
%TO.C,Q10*%
X124800000Y-147710000D02*
X124800000Y-142310000D01*
X128300000Y-147710000D02*
X124800000Y-147710000D01*
X124800000Y-142310000D02*
X128300000Y-142310000D01*
X128300000Y-142310000D02*
X128300000Y-147710000D01*
%TO.C,C22*%
X132690000Y-144240000D02*
X134150000Y-144240000D01*
X134150000Y-147540000D01*
X132690000Y-147540000D01*
X132690000Y-144240000D01*
%TO.C,R51*%
X126350000Y-139530000D02*
X130050000Y-139530000D01*
X130050000Y-141430000D01*
X126350000Y-141430000D01*
X126350000Y-139530000D01*
%TO.C,R52*%
X129920000Y-142330000D02*
X133620000Y-142330000D01*
X133620000Y-144230000D01*
X129920000Y-144230000D01*
X129920000Y-142330000D01*
%TO.C,R5*%
X128260000Y-150680000D02*
X130160000Y-150680000D01*
X130160000Y-154380000D01*
X128260000Y-154380000D01*
X128260000Y-150680000D01*
%TO.C,SW1*%
X130150000Y-134780000D02*
X135050000Y-134780000D01*
X135050000Y-138080000D01*
X130150000Y-138080000D01*
X130150000Y-134780000D01*
%TO.C,J3*%
X74710000Y-182640000D02*
X89610000Y-182640000D01*
X89610000Y-188140000D01*
X74710000Y-188140000D01*
X74710000Y-182640000D01*
%TO.C,U1*%
X114422500Y-147840000D02*
X114422500Y-151440000D01*
X114422500Y-147840000D02*
X119182500Y-147840000D01*
X119182500Y-151440000D02*
X114422500Y-151440000D01*
X119182500Y-151440000D02*
X119182500Y-147840000D01*
%TO.C,C10*%
X133850000Y-130870000D02*
X135310000Y-130870000D01*
X135310000Y-134170000D01*
X133850000Y-134170000D01*
X133850000Y-130870000D01*
%TO.C,R3*%
X116540000Y-145840000D02*
X120240000Y-145840000D01*
X120240000Y-147740000D01*
X116540000Y-147740000D01*
X116540000Y-145840000D01*
%TO.C,R33*%
X138006701Y-142557790D02*
X139906701Y-142557790D01*
X139906701Y-146257790D01*
X138006701Y-146257790D01*
X138006701Y-142557790D01*
%TO.C,D4*%
X82000000Y-161450000D02*
X82000000Y-152450000D01*
X85500000Y-161450000D02*
X82000000Y-161450000D01*
X82000000Y-152450000D02*
X85500000Y-152450000D01*
X85500000Y-152450000D02*
X85500000Y-161450000D01*
%TO.C,R42*%
X147330000Y-149530000D02*
X150630000Y-149530000D01*
X150630000Y-150990000D01*
X147330000Y-150990000D01*
X147330000Y-149530000D01*
%TO.C,R8*%
X81650000Y-148700000D02*
X85350000Y-148700000D01*
X85350000Y-150600000D01*
X81650000Y-150600000D01*
X81650000Y-148700000D01*
%TO.C,C2*%
X112460000Y-147947500D02*
X114420000Y-147947500D01*
X114420000Y-151707500D01*
X112460000Y-151707500D01*
X112460000Y-147947500D01*
%TO.C,R31*%
X132010000Y-140390000D02*
X135710000Y-140390000D01*
X135710000Y-142290000D01*
X132010000Y-142290000D01*
X132010000Y-140390000D01*
%TO.C,R43*%
X147340000Y-148070000D02*
X150640000Y-148070000D01*
X150640000Y-149530000D01*
X147340000Y-149530000D01*
X147340000Y-148070000D01*
%TO.C,R50*%
X126320000Y-137630000D02*
X130020000Y-137630000D01*
X130020000Y-139530000D01*
X126320000Y-139530000D01*
X126320000Y-137630000D01*
%TO.C,C8*%
X76507500Y-156070000D02*
X80267500Y-156070000D01*
X80267500Y-158030000D01*
X76507500Y-158030000D01*
X76507500Y-156070000D01*
%TO.C,R6*%
X126300000Y-148680000D02*
X130000000Y-148680000D01*
X130000000Y-150580000D01*
X126300000Y-150580000D01*
X126300000Y-148680000D01*
%TO.C,H1*%
X90900000Y-132200000D02*
G75*
G02*
X88400000Y-132200000I-1250000J0D01*
G01*
X88400000Y-132200000D02*
G75*
G02*
X90900000Y-132200000I1250000J0D01*
G01*
%TO.C,C5*%
X116995000Y-135752500D02*
X118955000Y-135752500D01*
X118955000Y-139512500D01*
X116995000Y-139512500D01*
X116995000Y-135752500D01*
%TO.C,R21*%
X143820000Y-144280000D02*
X145720000Y-144280000D01*
X145720000Y-147980000D01*
X143820000Y-147980000D01*
X143820000Y-144280000D01*
%TO.C,RT1*%
X150340000Y-134230000D02*
X155840000Y-134230000D01*
X155840000Y-141130000D01*
X150340000Y-141130000D01*
X150340000Y-134230000D01*
%TO.C,C6*%
X119095000Y-135765000D02*
X121055000Y-135765000D01*
X121055000Y-139525000D01*
X119095000Y-139525000D01*
X119095000Y-135765000D01*
%TO.C,J10*%
X135780000Y-151360000D02*
X150680000Y-151360000D01*
X150680000Y-156860000D01*
X135780000Y-156860000D01*
X135780000Y-151360000D01*
%TO.C,Q4*%
X89600000Y-147550000D02*
X89600000Y-152950000D01*
X86100000Y-147550000D02*
X89600000Y-147550000D01*
X89600000Y-152950000D02*
X86100000Y-152950000D01*
X86100000Y-152950000D02*
X86100000Y-147550000D01*
%TO.C,R30*%
X136106701Y-142557790D02*
X138006701Y-142557790D01*
X138006701Y-146257790D01*
X136106701Y-146257790D01*
X136106701Y-142557790D01*
%TO.C,R13*%
X86600000Y-145570000D02*
X90300000Y-145570000D01*
X90300000Y-147470000D01*
X86600000Y-147470000D01*
X86600000Y-145570000D01*
%TO.C,H4*%
X76150000Y-136700000D02*
G75*
G02*
X74150000Y-136700000I-1000000J0D01*
G01*
X74150000Y-136700000D02*
G75*
G02*
X76150000Y-136700000I1000000J0D01*
G01*
%TO.C,C4*%
X110662500Y-137015000D02*
X113962500Y-137015000D01*
X113962500Y-138475000D01*
X110662500Y-138475000D01*
X110662500Y-137015000D01*
%TO.C,R41*%
X151520000Y-141150000D02*
X154820000Y-141150000D01*
X154820000Y-142610000D01*
X151520000Y-142610000D01*
X151520000Y-141150000D01*
%TO.C,C3*%
X110170000Y-138565000D02*
X113930000Y-138565000D01*
X113930000Y-140525000D01*
X110170000Y-140525000D01*
X110170000Y-138565000D01*
%TO.C,C7*%
X76070000Y-147920000D02*
X78030000Y-147920000D01*
X78030000Y-151680000D01*
X76070000Y-151680000D01*
X76070000Y-147920000D01*
%TO.C,C9*%
X78250000Y-162250000D02*
X81550000Y-162250000D01*
X81550000Y-163710000D01*
X78250000Y-163710000D01*
X78250000Y-162250000D01*
%TO.C,C33*%
X130060000Y-138350000D02*
X131520000Y-138350000D01*
X131520000Y-141650000D01*
X130060000Y-141650000D01*
X130060000Y-138350000D01*
%TO.C,C13*%
X142920000Y-147990000D02*
X144380000Y-147990000D01*
X144380000Y-151290000D01*
X142920000Y-151290000D01*
X142920000Y-147990000D01*
%TD*%
M02*
