%TF.GenerationSoftware,KiCad,Pcbnew,10.0.6-rc2*%
%TF.CreationDate,2026-08-24T12:59:56+02:00*%
%TF.ProjectId,unni-smartification-c6,756e6e69-2d73-46d6-9172-746966696361,rev?*%
%TF.SameCoordinates,Original*%
%TF.FileFunction,AssemblyDrawing,Bot*%
%FSLAX46Y46*%
G04 Gerber Fmt 4.6, Leading zero omitted, Abs format (unit mm)*
G04 Created by KiCad (PCBNEW 10.0.6-rc2) date 2026-08-24 12:59:56*
%MOMM*%
%LPD*%
G01*
G04 APERTURE LIST*
%ADD10C,0.100000*%
%ADD11C,0.150000*%
%ADD12C,0.127000*%
%ADD13C,0.200000*%
G04 APERTURE END LIST*
D10*
X90264895Y-126783332D02*
X89883942Y-127049999D01*
X90264895Y-127240475D02*
X89464895Y-127240475D01*
X89464895Y-127240475D02*
X89464895Y-126935713D01*
X89464895Y-126935713D02*
X89502990Y-126859523D01*
X89502990Y-126859523D02*
X89541085Y-126821428D01*
X89541085Y-126821428D02*
X89617276Y-126783332D01*
X89617276Y-126783332D02*
X89731561Y-126783332D01*
X89731561Y-126783332D02*
X89807752Y-126821428D01*
X89807752Y-126821428D02*
X89845847Y-126859523D01*
X89845847Y-126859523D02*
X89883942Y-126935713D01*
X89883942Y-126935713D02*
X89883942Y-127240475D01*
X89541085Y-126478571D02*
X89502990Y-126440475D01*
X89502990Y-126440475D02*
X89464895Y-126364285D01*
X89464895Y-126364285D02*
X89464895Y-126173809D01*
X89464895Y-126173809D02*
X89502990Y-126097618D01*
X89502990Y-126097618D02*
X89541085Y-126059523D01*
X89541085Y-126059523D02*
X89617276Y-126021428D01*
X89617276Y-126021428D02*
X89693466Y-126021428D01*
X89693466Y-126021428D02*
X89807752Y-126059523D01*
X89807752Y-126059523D02*
X90264895Y-126516666D01*
X90264895Y-126516666D02*
X90264895Y-126021428D01*
D11*
X75025217Y-107555348D02*
X74237815Y-107555348D01*
X74237815Y-107555348D02*
X74237815Y-107855311D01*
X74237815Y-107855311D02*
X74275310Y-107930302D01*
X74275310Y-107930302D02*
X74312806Y-107967797D01*
X74312806Y-107967797D02*
X74387796Y-108005292D01*
X74387796Y-108005292D02*
X74500282Y-108005292D01*
X74500282Y-108005292D02*
X74575273Y-107967797D01*
X74575273Y-107967797D02*
X74612768Y-107930302D01*
X74612768Y-107930302D02*
X74650264Y-107855311D01*
X74650264Y-107855311D02*
X74650264Y-107555348D01*
X74950226Y-108792694D02*
X74987722Y-108755199D01*
X74987722Y-108755199D02*
X75025217Y-108642713D01*
X75025217Y-108642713D02*
X75025217Y-108567722D01*
X75025217Y-108567722D02*
X74987722Y-108455236D01*
X74987722Y-108455236D02*
X74912731Y-108380246D01*
X74912731Y-108380246D02*
X74837740Y-108342750D01*
X74837740Y-108342750D02*
X74687759Y-108305255D01*
X74687759Y-108305255D02*
X74575273Y-108305255D01*
X74575273Y-108305255D02*
X74425292Y-108342750D01*
X74425292Y-108342750D02*
X74350301Y-108380246D01*
X74350301Y-108380246D02*
X74275310Y-108455236D01*
X74275310Y-108455236D02*
X74237815Y-108567722D01*
X74237815Y-108567722D02*
X74237815Y-108642713D01*
X74237815Y-108642713D02*
X74275310Y-108755199D01*
X74275310Y-108755199D02*
X74312806Y-108792694D01*
X74612768Y-109392620D02*
X74650264Y-109505106D01*
X74650264Y-109505106D02*
X74687759Y-109542601D01*
X74687759Y-109542601D02*
X74762750Y-109580096D01*
X74762750Y-109580096D02*
X74875236Y-109580096D01*
X74875236Y-109580096D02*
X74950226Y-109542601D01*
X74950226Y-109542601D02*
X74987722Y-109505106D01*
X74987722Y-109505106D02*
X75025217Y-109430115D01*
X75025217Y-109430115D02*
X75025217Y-109130152D01*
X75025217Y-109130152D02*
X74237815Y-109130152D01*
X74237815Y-109130152D02*
X74237815Y-109392620D01*
X74237815Y-109392620D02*
X74275310Y-109467610D01*
X74275310Y-109467610D02*
X74312806Y-109505106D01*
X74312806Y-109505106D02*
X74387796Y-109542601D01*
X74387796Y-109542601D02*
X74462787Y-109542601D01*
X74462787Y-109542601D02*
X74537778Y-109505106D01*
X74537778Y-109505106D02*
X74575273Y-109467610D01*
X74575273Y-109467610D02*
X74612768Y-109392620D01*
X74612768Y-109392620D02*
X74612768Y-109130152D01*
X74612768Y-110517479D02*
X74612768Y-110779947D01*
X75025217Y-110892433D02*
X75025217Y-110517479D01*
X75025217Y-110517479D02*
X74237815Y-110517479D01*
X74237815Y-110517479D02*
X74237815Y-110892433D01*
X75025217Y-111229890D02*
X74237815Y-111229890D01*
X74237815Y-111229890D02*
X74237815Y-111417367D01*
X74237815Y-111417367D02*
X74275310Y-111529853D01*
X74275310Y-111529853D02*
X74350301Y-111604844D01*
X74350301Y-111604844D02*
X74425292Y-111642339D01*
X74425292Y-111642339D02*
X74575273Y-111679834D01*
X74575273Y-111679834D02*
X74687759Y-111679834D01*
X74687759Y-111679834D02*
X74837740Y-111642339D01*
X74837740Y-111642339D02*
X74912731Y-111604844D01*
X74912731Y-111604844D02*
X74987722Y-111529853D01*
X74987722Y-111529853D02*
X75025217Y-111417367D01*
X75025217Y-111417367D02*
X75025217Y-111229890D01*
X74275310Y-112429741D02*
X74237815Y-112354750D01*
X74237815Y-112354750D02*
X74237815Y-112242264D01*
X74237815Y-112242264D02*
X74275310Y-112129778D01*
X74275310Y-112129778D02*
X74350301Y-112054788D01*
X74350301Y-112054788D02*
X74425292Y-112017292D01*
X74425292Y-112017292D02*
X74575273Y-111979797D01*
X74575273Y-111979797D02*
X74687759Y-111979797D01*
X74687759Y-111979797D02*
X74837740Y-112017292D01*
X74837740Y-112017292D02*
X74912731Y-112054788D01*
X74912731Y-112054788D02*
X74987722Y-112129778D01*
X74987722Y-112129778D02*
X75025217Y-112242264D01*
X75025217Y-112242264D02*
X75025217Y-112317255D01*
X75025217Y-112317255D02*
X74987722Y-112429741D01*
X74987722Y-112429741D02*
X74950226Y-112467236D01*
X74950226Y-112467236D02*
X74687759Y-112467236D01*
X74687759Y-112467236D02*
X74687759Y-112317255D01*
X74612768Y-112804694D02*
X74612768Y-113067162D01*
X75025217Y-113179648D02*
X75025217Y-112804694D01*
X75025217Y-112804694D02*
X74237815Y-112804694D01*
X74237815Y-112804694D02*
X74237815Y-113179648D01*
D10*
X77724895Y-132620476D02*
X78372514Y-132620476D01*
X78372514Y-132620476D02*
X78448704Y-132658571D01*
X78448704Y-132658571D02*
X78486800Y-132696666D01*
X78486800Y-132696666D02*
X78524895Y-132772857D01*
X78524895Y-132772857D02*
X78524895Y-132925238D01*
X78524895Y-132925238D02*
X78486800Y-133001428D01*
X78486800Y-133001428D02*
X78448704Y-133039523D01*
X78448704Y-133039523D02*
X78372514Y-133077619D01*
X78372514Y-133077619D02*
X77724895Y-133077619D01*
X77991561Y-133801428D02*
X78524895Y-133801428D01*
X77686800Y-133610952D02*
X78258228Y-133420475D01*
X78258228Y-133420475D02*
X78258228Y-133915714D01*
X88214895Y-125783332D02*
X87833942Y-126049999D01*
X88214895Y-126240475D02*
X87414895Y-126240475D01*
X87414895Y-126240475D02*
X87414895Y-125935713D01*
X87414895Y-125935713D02*
X87452990Y-125859523D01*
X87452990Y-125859523D02*
X87491085Y-125821428D01*
X87491085Y-125821428D02*
X87567276Y-125783332D01*
X87567276Y-125783332D02*
X87681561Y-125783332D01*
X87681561Y-125783332D02*
X87757752Y-125821428D01*
X87757752Y-125821428D02*
X87795847Y-125859523D01*
X87795847Y-125859523D02*
X87833942Y-125935713D01*
X87833942Y-125935713D02*
X87833942Y-126240475D01*
X88214895Y-125021428D02*
X88214895Y-125478571D01*
X88214895Y-125249999D02*
X87414895Y-125249999D01*
X87414895Y-125249999D02*
X87529180Y-125326190D01*
X87529180Y-125326190D02*
X87605371Y-125402380D01*
X87605371Y-125402380D02*
X87643466Y-125478571D01*
%TO.C,R2*%
X89275000Y-125650000D02*
X90525000Y-125650000D01*
X90525000Y-127650000D01*
X89275000Y-127650000D01*
X89275000Y-125650000D01*
%TO.C,J1*%
D12*
X76680000Y-122230000D02*
X85620000Y-122230000D01*
X76680000Y-129580000D02*
X76680000Y-122230000D01*
X85620000Y-122230000D02*
X85620000Y-129580000D01*
X85620000Y-122230000D02*
X90400000Y-122230000D01*
X85620000Y-129580000D02*
X76680000Y-129580000D01*
D13*
X78050000Y-130730000D02*
G75*
G02*
X77850000Y-130730000I-100000J0D01*
G01*
X77850000Y-130730000D02*
G75*
G02*
X78050000Y-130730000I100000J0D01*
G01*
%TO.C,U4*%
D10*
X78860000Y-134750000D02*
X77460000Y-134750000D01*
X78860000Y-132280000D02*
X78860000Y-134730000D01*
X78860000Y-132280000D02*
X78310000Y-131710000D01*
X78310000Y-131710000D02*
X77460000Y-131710000D01*
X77460000Y-131710000D02*
X77460000Y-134750000D01*
%TO.C,R1*%
X87225000Y-124650000D02*
X88475000Y-124650000D01*
X88475000Y-126650000D01*
X87225000Y-126650000D01*
X87225000Y-124650000D01*
%TD*%
M02*
