%TF.GenerationSoftware,KiCad,Pcbnew,10.0.6-rc2*%
%TF.CreationDate,2026-08-24T12:59:56+02:00*%
%TF.ProjectId,unni-smartification-c6,756e6e69-2d73-46d6-9172-746966696361,rev?*%
%TF.SameCoordinates,Original*%
%TF.FileFunction,AssemblyDrawing,Top*%
%FSLAX46Y46*%
G04 Gerber Fmt 4.6, Leading zero omitted, Abs format (unit mm)*
G04 Created by KiCad (PCBNEW 10.0.6-rc2) date 2026-08-24 12:59:56*
%MOMM*%
%LPD*%
G01*
G04 APERTURE LIST*
%ADD10C,0.100000*%
G04 APERTURE END LIST*
D10*
X120056667Y-150378704D02*
X120018571Y-150416800D01*
X120018571Y-150416800D02*
X119904286Y-150454895D01*
X119904286Y-150454895D02*
X119828095Y-150454895D01*
X119828095Y-150454895D02*
X119713809Y-150416800D01*
X119713809Y-150416800D02*
X119637619Y-150340609D01*
X119637619Y-150340609D02*
X119599524Y-150264419D01*
X119599524Y-150264419D02*
X119561428Y-150112038D01*
X119561428Y-150112038D02*
X119561428Y-149997752D01*
X119561428Y-149997752D02*
X119599524Y-149845371D01*
X119599524Y-149845371D02*
X119637619Y-149769180D01*
X119637619Y-149769180D02*
X119713809Y-149692990D01*
X119713809Y-149692990D02*
X119828095Y-149654895D01*
X119828095Y-149654895D02*
X119904286Y-149654895D01*
X119904286Y-149654895D02*
X120018571Y-149692990D01*
X120018571Y-149692990D02*
X120056667Y-149731085D01*
X120818571Y-150454895D02*
X120361428Y-150454895D01*
X120590000Y-150454895D02*
X120590000Y-149654895D01*
X120590000Y-149654895D02*
X120513809Y-149769180D01*
X120513809Y-149769180D02*
X120437619Y-149845371D01*
X120437619Y-149845371D02*
X120361428Y-149883466D01*
X115125104Y-145225714D02*
X115506057Y-144959047D01*
X115125104Y-144768571D02*
X115925104Y-144768571D01*
X115925104Y-144768571D02*
X115925104Y-145073333D01*
X115925104Y-145073333D02*
X115887009Y-145149523D01*
X115887009Y-145149523D02*
X115848914Y-145187618D01*
X115848914Y-145187618D02*
X115772723Y-145225714D01*
X115772723Y-145225714D02*
X115658438Y-145225714D01*
X115658438Y-145225714D02*
X115582247Y-145187618D01*
X115582247Y-145187618D02*
X115544152Y-145149523D01*
X115544152Y-145149523D02*
X115506057Y-145073333D01*
X115506057Y-145073333D02*
X115506057Y-144768571D01*
X115125104Y-145987618D02*
X115125104Y-145530475D01*
X115125104Y-145759047D02*
X115925104Y-145759047D01*
X115925104Y-145759047D02*
X115810819Y-145682856D01*
X115810819Y-145682856D02*
X115734628Y-145606666D01*
X115734628Y-145606666D02*
X115696533Y-145530475D01*
X115125104Y-146749523D02*
X115125104Y-146292380D01*
X115125104Y-146520952D02*
X115925104Y-146520952D01*
X115925104Y-146520952D02*
X115810819Y-146444761D01*
X115810819Y-146444761D02*
X115734628Y-146368571D01*
X115734628Y-146368571D02*
X115696533Y-146292380D01*
X153435714Y-143714895D02*
X153169047Y-143333942D01*
X152978571Y-143714895D02*
X152978571Y-142914895D01*
X152978571Y-142914895D02*
X153283333Y-142914895D01*
X153283333Y-142914895D02*
X153359523Y-142952990D01*
X153359523Y-142952990D02*
X153397618Y-142991085D01*
X153397618Y-142991085D02*
X153435714Y-143067276D01*
X153435714Y-143067276D02*
X153435714Y-143181561D01*
X153435714Y-143181561D02*
X153397618Y-143257752D01*
X153397618Y-143257752D02*
X153359523Y-143295847D01*
X153359523Y-143295847D02*
X153283333Y-143333942D01*
X153283333Y-143333942D02*
X152978571Y-143333942D01*
X154121428Y-143181561D02*
X154121428Y-143714895D01*
X153930952Y-142876800D02*
X153740475Y-143448228D01*
X153740475Y-143448228D02*
X154235714Y-143448228D01*
X154692857Y-142914895D02*
X154769047Y-142914895D01*
X154769047Y-142914895D02*
X154845238Y-142952990D01*
X154845238Y-142952990D02*
X154883333Y-142991085D01*
X154883333Y-142991085D02*
X154921428Y-143067276D01*
X154921428Y-143067276D02*
X154959523Y-143219657D01*
X154959523Y-143219657D02*
X154959523Y-143410133D01*
X154959523Y-143410133D02*
X154921428Y-143562514D01*
X154921428Y-143562514D02*
X154883333Y-143638704D01*
X154883333Y-143638704D02*
X154845238Y-143676800D01*
X154845238Y-143676800D02*
X154769047Y-143714895D01*
X154769047Y-143714895D02*
X154692857Y-143714895D01*
X154692857Y-143714895D02*
X154616666Y-143676800D01*
X154616666Y-143676800D02*
X154578571Y-143638704D01*
X154578571Y-143638704D02*
X154540476Y-143562514D01*
X154540476Y-143562514D02*
X154502380Y-143410133D01*
X154502380Y-143410133D02*
X154502380Y-143219657D01*
X154502380Y-143219657D02*
X154540476Y-143067276D01*
X154540476Y-143067276D02*
X154578571Y-142991085D01*
X154578571Y-142991085D02*
X154616666Y-142952990D01*
X154616666Y-142952990D02*
X154692857Y-142914895D01*
X84331085Y-144976190D02*
X84292990Y-145052380D01*
X84292990Y-145052380D02*
X84216800Y-145128571D01*
X84216800Y-145128571D02*
X84102514Y-145242857D01*
X84102514Y-145242857D02*
X84064419Y-145319047D01*
X84064419Y-145319047D02*
X84064419Y-145395238D01*
X84254895Y-145357142D02*
X84216800Y-145433333D01*
X84216800Y-145433333D02*
X84140609Y-145509523D01*
X84140609Y-145509523D02*
X83988228Y-145547619D01*
X83988228Y-145547619D02*
X83721561Y-145547619D01*
X83721561Y-145547619D02*
X83569180Y-145509523D01*
X83569180Y-145509523D02*
X83492990Y-145433333D01*
X83492990Y-145433333D02*
X83454895Y-145357142D01*
X83454895Y-145357142D02*
X83454895Y-145204761D01*
X83454895Y-145204761D02*
X83492990Y-145128571D01*
X83492990Y-145128571D02*
X83569180Y-145052380D01*
X83569180Y-145052380D02*
X83721561Y-145014285D01*
X83721561Y-145014285D02*
X83988228Y-145014285D01*
X83988228Y-145014285D02*
X84140609Y-145052380D01*
X84140609Y-145052380D02*
X84216800Y-145128571D01*
X84216800Y-145128571D02*
X84254895Y-145204761D01*
X84254895Y-145204761D02*
X84254895Y-145357142D01*
X83454895Y-144747619D02*
X83454895Y-144252381D01*
X83454895Y-144252381D02*
X83759657Y-144519047D01*
X83759657Y-144519047D02*
X83759657Y-144404762D01*
X83759657Y-144404762D02*
X83797752Y-144328571D01*
X83797752Y-144328571D02*
X83835847Y-144290476D01*
X83835847Y-144290476D02*
X83912038Y-144252381D01*
X83912038Y-144252381D02*
X84102514Y-144252381D01*
X84102514Y-144252381D02*
X84178704Y-144290476D01*
X84178704Y-144290476D02*
X84216800Y-144328571D01*
X84216800Y-144328571D02*
X84254895Y-144404762D01*
X84254895Y-144404762D02*
X84254895Y-144633333D01*
X84254895Y-144633333D02*
X84216800Y-144709524D01*
X84216800Y-144709524D02*
X84178704Y-144747619D01*
X153285714Y-133778704D02*
X153247618Y-133816800D01*
X153247618Y-133816800D02*
X153133333Y-133854895D01*
X153133333Y-133854895D02*
X153057142Y-133854895D01*
X153057142Y-133854895D02*
X152942856Y-133816800D01*
X152942856Y-133816800D02*
X152866666Y-133740609D01*
X152866666Y-133740609D02*
X152828571Y-133664419D01*
X152828571Y-133664419D02*
X152790475Y-133512038D01*
X152790475Y-133512038D02*
X152790475Y-133397752D01*
X152790475Y-133397752D02*
X152828571Y-133245371D01*
X152828571Y-133245371D02*
X152866666Y-133169180D01*
X152866666Y-133169180D02*
X152942856Y-133092990D01*
X152942856Y-133092990D02*
X153057142Y-133054895D01*
X153057142Y-133054895D02*
X153133333Y-133054895D01*
X153133333Y-133054895D02*
X153247618Y-133092990D01*
X153247618Y-133092990D02*
X153285714Y-133131085D01*
X153590475Y-133131085D02*
X153628571Y-133092990D01*
X153628571Y-133092990D02*
X153704761Y-133054895D01*
X153704761Y-133054895D02*
X153895237Y-133054895D01*
X153895237Y-133054895D02*
X153971428Y-133092990D01*
X153971428Y-133092990D02*
X154009523Y-133131085D01*
X154009523Y-133131085D02*
X154047618Y-133207276D01*
X154047618Y-133207276D02*
X154047618Y-133283466D01*
X154047618Y-133283466D02*
X154009523Y-133397752D01*
X154009523Y-133397752D02*
X153552380Y-133854895D01*
X153552380Y-133854895D02*
X154047618Y-133854895D01*
X154809523Y-133854895D02*
X154352380Y-133854895D01*
X154580952Y-133854895D02*
X154580952Y-133054895D01*
X154580952Y-133054895D02*
X154504761Y-133169180D01*
X154504761Y-133169180D02*
X154428571Y-133245371D01*
X154428571Y-133245371D02*
X154352380Y-133283466D01*
X89616667Y-141664895D02*
X89350000Y-141283942D01*
X89159524Y-141664895D02*
X89159524Y-140864895D01*
X89159524Y-140864895D02*
X89464286Y-140864895D01*
X89464286Y-140864895D02*
X89540476Y-140902990D01*
X89540476Y-140902990D02*
X89578571Y-140941085D01*
X89578571Y-140941085D02*
X89616667Y-141017276D01*
X89616667Y-141017276D02*
X89616667Y-141131561D01*
X89616667Y-141131561D02*
X89578571Y-141207752D01*
X89578571Y-141207752D02*
X89540476Y-141245847D01*
X89540476Y-141245847D02*
X89464286Y-141283942D01*
X89464286Y-141283942D02*
X89159524Y-141283942D01*
X89883333Y-140864895D02*
X90416667Y-140864895D01*
X90416667Y-140864895D02*
X90073809Y-141664895D01*
X115391666Y-134459895D02*
X115010714Y-134459895D01*
X115010714Y-134459895D02*
X115010714Y-133659895D01*
X116077380Y-134459895D02*
X115620237Y-134459895D01*
X115848809Y-134459895D02*
X115848809Y-133659895D01*
X115848809Y-133659895D02*
X115772618Y-133774180D01*
X115772618Y-133774180D02*
X115696428Y-133850371D01*
X115696428Y-133850371D02*
X115620237Y-133888466D01*
X147801800Y-146691667D02*
X147839895Y-146577381D01*
X147839895Y-146577381D02*
X147839895Y-146386905D01*
X147839895Y-146386905D02*
X147801800Y-146310714D01*
X147801800Y-146310714D02*
X147763704Y-146272619D01*
X147763704Y-146272619D02*
X147687514Y-146234524D01*
X147687514Y-146234524D02*
X147611323Y-146234524D01*
X147611323Y-146234524D02*
X147535133Y-146272619D01*
X147535133Y-146272619D02*
X147497038Y-146310714D01*
X147497038Y-146310714D02*
X147458942Y-146386905D01*
X147458942Y-146386905D02*
X147420847Y-146539286D01*
X147420847Y-146539286D02*
X147382752Y-146615476D01*
X147382752Y-146615476D02*
X147344657Y-146653571D01*
X147344657Y-146653571D02*
X147268466Y-146691667D01*
X147268466Y-146691667D02*
X147192276Y-146691667D01*
X147192276Y-146691667D02*
X147116085Y-146653571D01*
X147116085Y-146653571D02*
X147077990Y-146615476D01*
X147077990Y-146615476D02*
X147039895Y-146539286D01*
X147039895Y-146539286D02*
X147039895Y-146348809D01*
X147039895Y-146348809D02*
X147077990Y-146234524D01*
X147039895Y-145967857D02*
X147839895Y-145777381D01*
X147839895Y-145777381D02*
X147268466Y-145625000D01*
X147268466Y-145625000D02*
X147839895Y-145472619D01*
X147839895Y-145472619D02*
X147039895Y-145282143D01*
X147116085Y-145015476D02*
X147077990Y-144977380D01*
X147077990Y-144977380D02*
X147039895Y-144901190D01*
X147039895Y-144901190D02*
X147039895Y-144710714D01*
X147039895Y-144710714D02*
X147077990Y-144634523D01*
X147077990Y-144634523D02*
X147116085Y-144596428D01*
X147116085Y-144596428D02*
X147192276Y-144558333D01*
X147192276Y-144558333D02*
X147268466Y-144558333D01*
X147268466Y-144558333D02*
X147382752Y-144596428D01*
X147382752Y-144596428D02*
X147839895Y-145053571D01*
X147839895Y-145053571D02*
X147839895Y-144558333D01*
X115039895Y-138342023D02*
X115687514Y-138342023D01*
X115687514Y-138342023D02*
X115763704Y-138303928D01*
X115763704Y-138303928D02*
X115801800Y-138265833D01*
X115801800Y-138265833D02*
X115839895Y-138189642D01*
X115839895Y-138189642D02*
X115839895Y-138037261D01*
X115839895Y-138037261D02*
X115801800Y-137961071D01*
X115801800Y-137961071D02*
X115763704Y-137922976D01*
X115763704Y-137922976D02*
X115687514Y-137884880D01*
X115687514Y-137884880D02*
X115039895Y-137884880D01*
X115116085Y-137542024D02*
X115077990Y-137503928D01*
X115077990Y-137503928D02*
X115039895Y-137427738D01*
X115039895Y-137427738D02*
X115039895Y-137237262D01*
X115039895Y-137237262D02*
X115077990Y-137161071D01*
X115077990Y-137161071D02*
X115116085Y-137122976D01*
X115116085Y-137122976D02*
X115192276Y-137084881D01*
X115192276Y-137084881D02*
X115268466Y-137084881D01*
X115268466Y-137084881D02*
X115382752Y-137122976D01*
X115382752Y-137122976D02*
X115839895Y-137580119D01*
X115839895Y-137580119D02*
X115839895Y-137084881D01*
X86441085Y-141476190D02*
X86402990Y-141552380D01*
X86402990Y-141552380D02*
X86326800Y-141628571D01*
X86326800Y-141628571D02*
X86212514Y-141742857D01*
X86212514Y-141742857D02*
X86174419Y-141819047D01*
X86174419Y-141819047D02*
X86174419Y-141895238D01*
X86364895Y-141857142D02*
X86326800Y-141933333D01*
X86326800Y-141933333D02*
X86250609Y-142009523D01*
X86250609Y-142009523D02*
X86098228Y-142047619D01*
X86098228Y-142047619D02*
X85831561Y-142047619D01*
X85831561Y-142047619D02*
X85679180Y-142009523D01*
X85679180Y-142009523D02*
X85602990Y-141933333D01*
X85602990Y-141933333D02*
X85564895Y-141857142D01*
X85564895Y-141857142D02*
X85564895Y-141704761D01*
X85564895Y-141704761D02*
X85602990Y-141628571D01*
X85602990Y-141628571D02*
X85679180Y-141552380D01*
X85679180Y-141552380D02*
X85831561Y-141514285D01*
X85831561Y-141514285D02*
X86098228Y-141514285D01*
X86098228Y-141514285D02*
X86250609Y-141552380D01*
X86250609Y-141552380D02*
X86326800Y-141628571D01*
X86326800Y-141628571D02*
X86364895Y-141704761D01*
X86364895Y-141704761D02*
X86364895Y-141857142D01*
X85641085Y-141209524D02*
X85602990Y-141171428D01*
X85602990Y-141171428D02*
X85564895Y-141095238D01*
X85564895Y-141095238D02*
X85564895Y-140904762D01*
X85564895Y-140904762D02*
X85602990Y-140828571D01*
X85602990Y-140828571D02*
X85641085Y-140790476D01*
X85641085Y-140790476D02*
X85717276Y-140752381D01*
X85717276Y-140752381D02*
X85793466Y-140752381D01*
X85793466Y-140752381D02*
X85907752Y-140790476D01*
X85907752Y-140790476D02*
X86364895Y-141247619D01*
X86364895Y-141247619D02*
X86364895Y-140752381D01*
X140491785Y-148050104D02*
X140758452Y-148431057D01*
X140948928Y-148050104D02*
X140948928Y-148850104D01*
X140948928Y-148850104D02*
X140644166Y-148850104D01*
X140644166Y-148850104D02*
X140567976Y-148812009D01*
X140567976Y-148812009D02*
X140529881Y-148773914D01*
X140529881Y-148773914D02*
X140491785Y-148697723D01*
X140491785Y-148697723D02*
X140491785Y-148583438D01*
X140491785Y-148583438D02*
X140529881Y-148507247D01*
X140529881Y-148507247D02*
X140567976Y-148469152D01*
X140567976Y-148469152D02*
X140644166Y-148431057D01*
X140644166Y-148431057D02*
X140948928Y-148431057D01*
X140187024Y-148773914D02*
X140148928Y-148812009D01*
X140148928Y-148812009D02*
X140072738Y-148850104D01*
X140072738Y-148850104D02*
X139882262Y-148850104D01*
X139882262Y-148850104D02*
X139806071Y-148812009D01*
X139806071Y-148812009D02*
X139767976Y-148773914D01*
X139767976Y-148773914D02*
X139729881Y-148697723D01*
X139729881Y-148697723D02*
X139729881Y-148621533D01*
X139729881Y-148621533D02*
X139767976Y-148507247D01*
X139767976Y-148507247D02*
X140225119Y-148050104D01*
X140225119Y-148050104D02*
X139729881Y-148050104D01*
X139425119Y-148773914D02*
X139387023Y-148812009D01*
X139387023Y-148812009D02*
X139310833Y-148850104D01*
X139310833Y-148850104D02*
X139120357Y-148850104D01*
X139120357Y-148850104D02*
X139044166Y-148812009D01*
X139044166Y-148812009D02*
X139006071Y-148773914D01*
X139006071Y-148773914D02*
X138967976Y-148697723D01*
X138967976Y-148697723D02*
X138967976Y-148621533D01*
X138967976Y-148621533D02*
X139006071Y-148507247D01*
X139006071Y-148507247D02*
X139463214Y-148050104D01*
X139463214Y-148050104D02*
X138967976Y-148050104D01*
X152044895Y-150846666D02*
X152616323Y-150846666D01*
X152616323Y-150846666D02*
X152730609Y-150884761D01*
X152730609Y-150884761D02*
X152806800Y-150960952D01*
X152806800Y-150960952D02*
X152844895Y-151075237D01*
X152844895Y-151075237D02*
X152844895Y-151151428D01*
X152044895Y-150122856D02*
X152044895Y-150275237D01*
X152044895Y-150275237D02*
X152082990Y-150351428D01*
X152082990Y-150351428D02*
X152121085Y-150389523D01*
X152121085Y-150389523D02*
X152235371Y-150465713D01*
X152235371Y-150465713D02*
X152387752Y-150503809D01*
X152387752Y-150503809D02*
X152692514Y-150503809D01*
X152692514Y-150503809D02*
X152768704Y-150465713D01*
X152768704Y-150465713D02*
X152806800Y-150427618D01*
X152806800Y-150427618D02*
X152844895Y-150351428D01*
X152844895Y-150351428D02*
X152844895Y-150199047D01*
X152844895Y-150199047D02*
X152806800Y-150122856D01*
X152806800Y-150122856D02*
X152768704Y-150084761D01*
X152768704Y-150084761D02*
X152692514Y-150046666D01*
X152692514Y-150046666D02*
X152502038Y-150046666D01*
X152502038Y-150046666D02*
X152425847Y-150084761D01*
X152425847Y-150084761D02*
X152387752Y-150122856D01*
X152387752Y-150122856D02*
X152349657Y-150199047D01*
X152349657Y-150199047D02*
X152349657Y-150351428D01*
X152349657Y-150351428D02*
X152387752Y-150427618D01*
X152387752Y-150427618D02*
X152425847Y-150465713D01*
X152425847Y-150465713D02*
X152502038Y-150503809D01*
X137991295Y-149165714D02*
X137953200Y-149127618D01*
X137953200Y-149127618D02*
X137915104Y-149013333D01*
X137915104Y-149013333D02*
X137915104Y-148937142D01*
X137915104Y-148937142D02*
X137953200Y-148822856D01*
X137953200Y-148822856D02*
X138029390Y-148746666D01*
X138029390Y-148746666D02*
X138105580Y-148708571D01*
X138105580Y-148708571D02*
X138257961Y-148670475D01*
X138257961Y-148670475D02*
X138372247Y-148670475D01*
X138372247Y-148670475D02*
X138524628Y-148708571D01*
X138524628Y-148708571D02*
X138600819Y-148746666D01*
X138600819Y-148746666D02*
X138677009Y-148822856D01*
X138677009Y-148822856D02*
X138715104Y-148937142D01*
X138715104Y-148937142D02*
X138715104Y-149013333D01*
X138715104Y-149013333D02*
X138677009Y-149127618D01*
X138677009Y-149127618D02*
X138638914Y-149165714D01*
X137915104Y-149927618D02*
X137915104Y-149470475D01*
X137915104Y-149699047D02*
X138715104Y-149699047D01*
X138715104Y-149699047D02*
X138600819Y-149622856D01*
X138600819Y-149622856D02*
X138524628Y-149546666D01*
X138524628Y-149546666D02*
X138486533Y-149470475D01*
X138638914Y-150232380D02*
X138677009Y-150270476D01*
X138677009Y-150270476D02*
X138715104Y-150346666D01*
X138715104Y-150346666D02*
X138715104Y-150537142D01*
X138715104Y-150537142D02*
X138677009Y-150613333D01*
X138677009Y-150613333D02*
X138638914Y-150651428D01*
X138638914Y-150651428D02*
X138562723Y-150689523D01*
X138562723Y-150689523D02*
X138486533Y-150689523D01*
X138486533Y-150689523D02*
X138372247Y-150651428D01*
X138372247Y-150651428D02*
X137915104Y-150194285D01*
X137915104Y-150194285D02*
X137915104Y-150689523D01*
X142466785Y-148050104D02*
X142733452Y-148431057D01*
X142923928Y-148050104D02*
X142923928Y-148850104D01*
X142923928Y-148850104D02*
X142619166Y-148850104D01*
X142619166Y-148850104D02*
X142542976Y-148812009D01*
X142542976Y-148812009D02*
X142504881Y-148773914D01*
X142504881Y-148773914D02*
X142466785Y-148697723D01*
X142466785Y-148697723D02*
X142466785Y-148583438D01*
X142466785Y-148583438D02*
X142504881Y-148507247D01*
X142504881Y-148507247D02*
X142542976Y-148469152D01*
X142542976Y-148469152D02*
X142619166Y-148431057D01*
X142619166Y-148431057D02*
X142923928Y-148431057D01*
X142162024Y-148773914D02*
X142123928Y-148812009D01*
X142123928Y-148812009D02*
X142047738Y-148850104D01*
X142047738Y-148850104D02*
X141857262Y-148850104D01*
X141857262Y-148850104D02*
X141781071Y-148812009D01*
X141781071Y-148812009D02*
X141742976Y-148773914D01*
X141742976Y-148773914D02*
X141704881Y-148697723D01*
X141704881Y-148697723D02*
X141704881Y-148621533D01*
X141704881Y-148621533D02*
X141742976Y-148507247D01*
X141742976Y-148507247D02*
X142200119Y-148050104D01*
X142200119Y-148050104D02*
X141704881Y-148050104D01*
X141438214Y-148850104D02*
X140942976Y-148850104D01*
X140942976Y-148850104D02*
X141209642Y-148545342D01*
X141209642Y-148545342D02*
X141095357Y-148545342D01*
X141095357Y-148545342D02*
X141019166Y-148507247D01*
X141019166Y-148507247D02*
X140981071Y-148469152D01*
X140981071Y-148469152D02*
X140942976Y-148392961D01*
X140942976Y-148392961D02*
X140942976Y-148202485D01*
X140942976Y-148202485D02*
X140981071Y-148126295D01*
X140981071Y-148126295D02*
X141019166Y-148088200D01*
X141019166Y-148088200D02*
X141095357Y-148050104D01*
X141095357Y-148050104D02*
X141323928Y-148050104D01*
X141323928Y-148050104D02*
X141400119Y-148088200D01*
X141400119Y-148088200D02*
X141438214Y-148126295D01*
X151605104Y-131275714D02*
X151986057Y-131009047D01*
X151605104Y-130818571D02*
X152405104Y-130818571D01*
X152405104Y-130818571D02*
X152405104Y-131123333D01*
X152405104Y-131123333D02*
X152367009Y-131199523D01*
X152367009Y-131199523D02*
X152328914Y-131237618D01*
X152328914Y-131237618D02*
X152252723Y-131275714D01*
X152252723Y-131275714D02*
X152138438Y-131275714D01*
X152138438Y-131275714D02*
X152062247Y-131237618D01*
X152062247Y-131237618D02*
X152024152Y-131199523D01*
X152024152Y-131199523D02*
X151986057Y-131123333D01*
X151986057Y-131123333D02*
X151986057Y-130818571D01*
X152405104Y-131542380D02*
X152405104Y-132037618D01*
X152405104Y-132037618D02*
X152100342Y-131770952D01*
X152100342Y-131770952D02*
X152100342Y-131885237D01*
X152100342Y-131885237D02*
X152062247Y-131961428D01*
X152062247Y-131961428D02*
X152024152Y-131999523D01*
X152024152Y-131999523D02*
X151947961Y-132037618D01*
X151947961Y-132037618D02*
X151757485Y-132037618D01*
X151757485Y-132037618D02*
X151681295Y-131999523D01*
X151681295Y-131999523D02*
X151643200Y-131961428D01*
X151643200Y-131961428D02*
X151605104Y-131885237D01*
X151605104Y-131885237D02*
X151605104Y-131656666D01*
X151605104Y-131656666D02*
X151643200Y-131580475D01*
X151643200Y-131580475D02*
X151681295Y-131542380D01*
X152138438Y-132723333D02*
X151605104Y-132723333D01*
X152443200Y-132532857D02*
X151871771Y-132342380D01*
X151871771Y-132342380D02*
X151871771Y-132837619D01*
X79206666Y-170755104D02*
X79206666Y-170183676D01*
X79206666Y-170183676D02*
X79244761Y-170069390D01*
X79244761Y-170069390D02*
X79320952Y-169993200D01*
X79320952Y-169993200D02*
X79435237Y-169955104D01*
X79435237Y-169955104D02*
X79511428Y-169955104D01*
X78482856Y-170488438D02*
X78482856Y-169955104D01*
X78673332Y-170793200D02*
X78863809Y-170221771D01*
X78863809Y-170221771D02*
X78368570Y-170221771D01*
X141590622Y-135889895D02*
X141590622Y-136537514D01*
X141590622Y-136537514D02*
X141628717Y-136613704D01*
X141628717Y-136613704D02*
X141666812Y-136651800D01*
X141666812Y-136651800D02*
X141743003Y-136689895D01*
X141743003Y-136689895D02*
X141895384Y-136689895D01*
X141895384Y-136689895D02*
X141971574Y-136651800D01*
X141971574Y-136651800D02*
X142009669Y-136613704D01*
X142009669Y-136613704D02*
X142047765Y-136537514D01*
X142047765Y-136537514D02*
X142047765Y-135889895D01*
X142847764Y-136689895D02*
X142390621Y-136689895D01*
X142619193Y-136689895D02*
X142619193Y-135889895D01*
X142619193Y-135889895D02*
X142543002Y-136004180D01*
X142543002Y-136004180D02*
X142466812Y-136080371D01*
X142466812Y-136080371D02*
X142390621Y-136118466D01*
X143343003Y-135889895D02*
X143419193Y-135889895D01*
X143419193Y-135889895D02*
X143495384Y-135927990D01*
X143495384Y-135927990D02*
X143533479Y-135966085D01*
X143533479Y-135966085D02*
X143571574Y-136042276D01*
X143571574Y-136042276D02*
X143609669Y-136194657D01*
X143609669Y-136194657D02*
X143609669Y-136385133D01*
X143609669Y-136385133D02*
X143571574Y-136537514D01*
X143571574Y-136537514D02*
X143533479Y-136613704D01*
X143533479Y-136613704D02*
X143495384Y-136651800D01*
X143495384Y-136651800D02*
X143419193Y-136689895D01*
X143419193Y-136689895D02*
X143343003Y-136689895D01*
X143343003Y-136689895D02*
X143266812Y-136651800D01*
X143266812Y-136651800D02*
X143228717Y-136613704D01*
X143228717Y-136613704D02*
X143190622Y-136537514D01*
X143190622Y-136537514D02*
X143152526Y-136385133D01*
X143152526Y-136385133D02*
X143152526Y-136194657D01*
X143152526Y-136194657D02*
X143190622Y-136042276D01*
X143190622Y-136042276D02*
X143228717Y-135966085D01*
X143228717Y-135966085D02*
X143266812Y-135927990D01*
X143266812Y-135927990D02*
X143343003Y-135889895D01*
X77864895Y-154809523D02*
X78512514Y-154809523D01*
X78512514Y-154809523D02*
X78588704Y-154771428D01*
X78588704Y-154771428D02*
X78626800Y-154733333D01*
X78626800Y-154733333D02*
X78664895Y-154657142D01*
X78664895Y-154657142D02*
X78664895Y-154504761D01*
X78664895Y-154504761D02*
X78626800Y-154428571D01*
X78626800Y-154428571D02*
X78588704Y-154390476D01*
X78588704Y-154390476D02*
X78512514Y-154352380D01*
X78512514Y-154352380D02*
X77864895Y-154352380D01*
X77864895Y-154047619D02*
X77864895Y-153552381D01*
X77864895Y-153552381D02*
X78169657Y-153819047D01*
X78169657Y-153819047D02*
X78169657Y-153704762D01*
X78169657Y-153704762D02*
X78207752Y-153628571D01*
X78207752Y-153628571D02*
X78245847Y-153590476D01*
X78245847Y-153590476D02*
X78322038Y-153552381D01*
X78322038Y-153552381D02*
X78512514Y-153552381D01*
X78512514Y-153552381D02*
X78588704Y-153590476D01*
X78588704Y-153590476D02*
X78626800Y-153628571D01*
X78626800Y-153628571D02*
X78664895Y-153704762D01*
X78664895Y-153704762D02*
X78664895Y-153933333D01*
X78664895Y-153933333D02*
X78626800Y-154009524D01*
X78626800Y-154009524D02*
X78588704Y-154047619D01*
X126433133Y-134436666D02*
X127004561Y-134436666D01*
X127004561Y-134436666D02*
X127118847Y-134474761D01*
X127118847Y-134474761D02*
X127195038Y-134550952D01*
X127195038Y-134550952D02*
X127233133Y-134665237D01*
X127233133Y-134665237D02*
X127233133Y-134741428D01*
X126433133Y-133674761D02*
X126433133Y-134055713D01*
X126433133Y-134055713D02*
X126814085Y-134093809D01*
X126814085Y-134093809D02*
X126775990Y-134055713D01*
X126775990Y-134055713D02*
X126737895Y-133979523D01*
X126737895Y-133979523D02*
X126737895Y-133789047D01*
X126737895Y-133789047D02*
X126775990Y-133712856D01*
X126775990Y-133712856D02*
X126814085Y-133674761D01*
X126814085Y-133674761D02*
X126890276Y-133636666D01*
X126890276Y-133636666D02*
X127080752Y-133636666D01*
X127080752Y-133636666D02*
X127156942Y-133674761D01*
X127156942Y-133674761D02*
X127195038Y-133712856D01*
X127195038Y-133712856D02*
X127233133Y-133789047D01*
X127233133Y-133789047D02*
X127233133Y-133979523D01*
X127233133Y-133979523D02*
X127195038Y-134055713D01*
X127195038Y-134055713D02*
X127156942Y-134093809D01*
X134745104Y-143895714D02*
X135126057Y-143629047D01*
X134745104Y-143438571D02*
X135545104Y-143438571D01*
X135545104Y-143438571D02*
X135545104Y-143743333D01*
X135545104Y-143743333D02*
X135507009Y-143819523D01*
X135507009Y-143819523D02*
X135468914Y-143857618D01*
X135468914Y-143857618D02*
X135392723Y-143895714D01*
X135392723Y-143895714D02*
X135278438Y-143895714D01*
X135278438Y-143895714D02*
X135202247Y-143857618D01*
X135202247Y-143857618D02*
X135164152Y-143819523D01*
X135164152Y-143819523D02*
X135126057Y-143743333D01*
X135126057Y-143743333D02*
X135126057Y-143438571D01*
X135545104Y-144162380D02*
X135545104Y-144657618D01*
X135545104Y-144657618D02*
X135240342Y-144390952D01*
X135240342Y-144390952D02*
X135240342Y-144505237D01*
X135240342Y-144505237D02*
X135202247Y-144581428D01*
X135202247Y-144581428D02*
X135164152Y-144619523D01*
X135164152Y-144619523D02*
X135087961Y-144657618D01*
X135087961Y-144657618D02*
X134897485Y-144657618D01*
X134897485Y-144657618D02*
X134821295Y-144619523D01*
X134821295Y-144619523D02*
X134783200Y-144581428D01*
X134783200Y-144581428D02*
X134745104Y-144505237D01*
X134745104Y-144505237D02*
X134745104Y-144276666D01*
X134745104Y-144276666D02*
X134783200Y-144200475D01*
X134783200Y-144200475D02*
X134821295Y-144162380D01*
X135468914Y-144962380D02*
X135507009Y-145000476D01*
X135507009Y-145000476D02*
X135545104Y-145076666D01*
X135545104Y-145076666D02*
X135545104Y-145267142D01*
X135545104Y-145267142D02*
X135507009Y-145343333D01*
X135507009Y-145343333D02*
X135468914Y-145381428D01*
X135468914Y-145381428D02*
X135392723Y-145419523D01*
X135392723Y-145419523D02*
X135316533Y-145419523D01*
X135316533Y-145419523D02*
X135202247Y-145381428D01*
X135202247Y-145381428D02*
X134745104Y-144924285D01*
X134745104Y-144924285D02*
X134745104Y-145419523D01*
X86309524Y-161164895D02*
X86309524Y-160364895D01*
X86309524Y-160364895D02*
X86500000Y-160364895D01*
X86500000Y-160364895D02*
X86614286Y-160402990D01*
X86614286Y-160402990D02*
X86690476Y-160479180D01*
X86690476Y-160479180D02*
X86728571Y-160555371D01*
X86728571Y-160555371D02*
X86766667Y-160707752D01*
X86766667Y-160707752D02*
X86766667Y-160822038D01*
X86766667Y-160822038D02*
X86728571Y-160974419D01*
X86728571Y-160974419D02*
X86690476Y-161050609D01*
X86690476Y-161050609D02*
X86614286Y-161126800D01*
X86614286Y-161126800D02*
X86500000Y-161164895D01*
X86500000Y-161164895D02*
X86309524Y-161164895D01*
X87033333Y-160364895D02*
X87528571Y-160364895D01*
X87528571Y-160364895D02*
X87261905Y-160669657D01*
X87261905Y-160669657D02*
X87376190Y-160669657D01*
X87376190Y-160669657D02*
X87452381Y-160707752D01*
X87452381Y-160707752D02*
X87490476Y-160745847D01*
X87490476Y-160745847D02*
X87528571Y-160822038D01*
X87528571Y-160822038D02*
X87528571Y-161012514D01*
X87528571Y-161012514D02*
X87490476Y-161088704D01*
X87490476Y-161088704D02*
X87452381Y-161126800D01*
X87452381Y-161126800D02*
X87376190Y-161164895D01*
X87376190Y-161164895D02*
X87147619Y-161164895D01*
X87147619Y-161164895D02*
X87071428Y-161126800D01*
X87071428Y-161126800D02*
X87033333Y-161088704D01*
X83864895Y-147833332D02*
X83483942Y-148099999D01*
X83864895Y-148290475D02*
X83064895Y-148290475D01*
X83064895Y-148290475D02*
X83064895Y-147985713D01*
X83064895Y-147985713D02*
X83102990Y-147909523D01*
X83102990Y-147909523D02*
X83141085Y-147871428D01*
X83141085Y-147871428D02*
X83217276Y-147833332D01*
X83217276Y-147833332D02*
X83331561Y-147833332D01*
X83331561Y-147833332D02*
X83407752Y-147871428D01*
X83407752Y-147871428D02*
X83445847Y-147909523D01*
X83445847Y-147909523D02*
X83483942Y-147985713D01*
X83483942Y-147985713D02*
X83483942Y-148290475D01*
X83864895Y-147452380D02*
X83864895Y-147299999D01*
X83864895Y-147299999D02*
X83826800Y-147223809D01*
X83826800Y-147223809D02*
X83788704Y-147185713D01*
X83788704Y-147185713D02*
X83674419Y-147109523D01*
X83674419Y-147109523D02*
X83522038Y-147071428D01*
X83522038Y-147071428D02*
X83217276Y-147071428D01*
X83217276Y-147071428D02*
X83141085Y-147109523D01*
X83141085Y-147109523D02*
X83102990Y-147147618D01*
X83102990Y-147147618D02*
X83064895Y-147223809D01*
X83064895Y-147223809D02*
X83064895Y-147376190D01*
X83064895Y-147376190D02*
X83102990Y-147452380D01*
X83102990Y-147452380D02*
X83141085Y-147490475D01*
X83141085Y-147490475D02*
X83217276Y-147528571D01*
X83217276Y-147528571D02*
X83407752Y-147528571D01*
X83407752Y-147528571D02*
X83483942Y-147490475D01*
X83483942Y-147490475D02*
X83522038Y-147452380D01*
X83522038Y-147452380D02*
X83560133Y-147376190D01*
X83560133Y-147376190D02*
X83560133Y-147223809D01*
X83560133Y-147223809D02*
X83522038Y-147147618D01*
X83522038Y-147147618D02*
X83483942Y-147109523D01*
X83483942Y-147109523D02*
X83407752Y-147071428D01*
X125145104Y-149129524D02*
X125945104Y-149129524D01*
X125945104Y-149129524D02*
X125945104Y-149320000D01*
X125945104Y-149320000D02*
X125907009Y-149434286D01*
X125907009Y-149434286D02*
X125830819Y-149510476D01*
X125830819Y-149510476D02*
X125754628Y-149548571D01*
X125754628Y-149548571D02*
X125602247Y-149586667D01*
X125602247Y-149586667D02*
X125487961Y-149586667D01*
X125487961Y-149586667D02*
X125335580Y-149548571D01*
X125335580Y-149548571D02*
X125259390Y-149510476D01*
X125259390Y-149510476D02*
X125183200Y-149434286D01*
X125183200Y-149434286D02*
X125145104Y-149320000D01*
X125145104Y-149320000D02*
X125145104Y-149129524D01*
X125145104Y-150348571D02*
X125145104Y-149891428D01*
X125145104Y-150120000D02*
X125945104Y-150120000D01*
X125945104Y-150120000D02*
X125830819Y-150043809D01*
X125830819Y-150043809D02*
X125754628Y-149967619D01*
X125754628Y-149967619D02*
X125716533Y-149891428D01*
X113726666Y-155925104D02*
X113726666Y-155353676D01*
X113726666Y-155353676D02*
X113764761Y-155239390D01*
X113764761Y-155239390D02*
X113840952Y-155163200D01*
X113840952Y-155163200D02*
X113955237Y-155125104D01*
X113955237Y-155125104D02*
X114031428Y-155125104D01*
X113383809Y-155848914D02*
X113345713Y-155887009D01*
X113345713Y-155887009D02*
X113269523Y-155925104D01*
X113269523Y-155925104D02*
X113079047Y-155925104D01*
X113079047Y-155925104D02*
X113002856Y-155887009D01*
X113002856Y-155887009D02*
X112964761Y-155848914D01*
X112964761Y-155848914D02*
X112926666Y-155772723D01*
X112926666Y-155772723D02*
X112926666Y-155696533D01*
X112926666Y-155696533D02*
X112964761Y-155582247D01*
X112964761Y-155582247D02*
X113421904Y-155125104D01*
X113421904Y-155125104D02*
X112926666Y-155125104D01*
X130884895Y-133844285D02*
X130503942Y-134110952D01*
X130884895Y-134301428D02*
X130084895Y-134301428D01*
X130084895Y-134301428D02*
X130084895Y-133996666D01*
X130084895Y-133996666D02*
X130122990Y-133920476D01*
X130122990Y-133920476D02*
X130161085Y-133882381D01*
X130161085Y-133882381D02*
X130237276Y-133844285D01*
X130237276Y-133844285D02*
X130351561Y-133844285D01*
X130351561Y-133844285D02*
X130427752Y-133882381D01*
X130427752Y-133882381D02*
X130465847Y-133920476D01*
X130465847Y-133920476D02*
X130503942Y-133996666D01*
X130503942Y-133996666D02*
X130503942Y-134301428D01*
X130161085Y-133539524D02*
X130122990Y-133501428D01*
X130122990Y-133501428D02*
X130084895Y-133425238D01*
X130084895Y-133425238D02*
X130084895Y-133234762D01*
X130084895Y-133234762D02*
X130122990Y-133158571D01*
X130122990Y-133158571D02*
X130161085Y-133120476D01*
X130161085Y-133120476D02*
X130237276Y-133082381D01*
X130237276Y-133082381D02*
X130313466Y-133082381D01*
X130313466Y-133082381D02*
X130427752Y-133120476D01*
X130427752Y-133120476D02*
X130884895Y-133577619D01*
X130884895Y-133577619D02*
X130884895Y-133082381D01*
X130084895Y-132587142D02*
X130084895Y-132510952D01*
X130084895Y-132510952D02*
X130122990Y-132434761D01*
X130122990Y-132434761D02*
X130161085Y-132396666D01*
X130161085Y-132396666D02*
X130237276Y-132358571D01*
X130237276Y-132358571D02*
X130389657Y-132320476D01*
X130389657Y-132320476D02*
X130580133Y-132320476D01*
X130580133Y-132320476D02*
X130732514Y-132358571D01*
X130732514Y-132358571D02*
X130808704Y-132396666D01*
X130808704Y-132396666D02*
X130846800Y-132434761D01*
X130846800Y-132434761D02*
X130884895Y-132510952D01*
X130884895Y-132510952D02*
X130884895Y-132587142D01*
X130884895Y-132587142D02*
X130846800Y-132663333D01*
X130846800Y-132663333D02*
X130808704Y-132701428D01*
X130808704Y-132701428D02*
X130732514Y-132739523D01*
X130732514Y-132739523D02*
X130580133Y-132777619D01*
X130580133Y-132777619D02*
X130389657Y-132777619D01*
X130389657Y-132777619D02*
X130237276Y-132739523D01*
X130237276Y-132739523D02*
X130161085Y-132701428D01*
X130161085Y-132701428D02*
X130122990Y-132663333D01*
X130122990Y-132663333D02*
X130084895Y-132587142D01*
X133388704Y-133034285D02*
X133426800Y-133072381D01*
X133426800Y-133072381D02*
X133464895Y-133186666D01*
X133464895Y-133186666D02*
X133464895Y-133262857D01*
X133464895Y-133262857D02*
X133426800Y-133377143D01*
X133426800Y-133377143D02*
X133350609Y-133453333D01*
X133350609Y-133453333D02*
X133274419Y-133491428D01*
X133274419Y-133491428D02*
X133122038Y-133529524D01*
X133122038Y-133529524D02*
X133007752Y-133529524D01*
X133007752Y-133529524D02*
X132855371Y-133491428D01*
X132855371Y-133491428D02*
X132779180Y-133453333D01*
X132779180Y-133453333D02*
X132702990Y-133377143D01*
X132702990Y-133377143D02*
X132664895Y-133262857D01*
X132664895Y-133262857D02*
X132664895Y-133186666D01*
X132664895Y-133186666D02*
X132702990Y-133072381D01*
X132702990Y-133072381D02*
X132741085Y-133034285D01*
X133464895Y-132272381D02*
X133464895Y-132729524D01*
X133464895Y-132500952D02*
X132664895Y-132500952D01*
X132664895Y-132500952D02*
X132779180Y-132577143D01*
X132779180Y-132577143D02*
X132855371Y-132653333D01*
X132855371Y-132653333D02*
X132893466Y-132729524D01*
X133464895Y-131510476D02*
X133464895Y-131967619D01*
X133464895Y-131739047D02*
X132664895Y-131739047D01*
X132664895Y-131739047D02*
X132779180Y-131815238D01*
X132779180Y-131815238D02*
X132855371Y-131891428D01*
X132855371Y-131891428D02*
X132893466Y-131967619D01*
X134594285Y-139241295D02*
X134632381Y-139203200D01*
X134632381Y-139203200D02*
X134746666Y-139165104D01*
X134746666Y-139165104D02*
X134822857Y-139165104D01*
X134822857Y-139165104D02*
X134937143Y-139203200D01*
X134937143Y-139203200D02*
X135013333Y-139279390D01*
X135013333Y-139279390D02*
X135051428Y-139355580D01*
X135051428Y-139355580D02*
X135089524Y-139507961D01*
X135089524Y-139507961D02*
X135089524Y-139622247D01*
X135089524Y-139622247D02*
X135051428Y-139774628D01*
X135051428Y-139774628D02*
X135013333Y-139850819D01*
X135013333Y-139850819D02*
X134937143Y-139927009D01*
X134937143Y-139927009D02*
X134822857Y-139965104D01*
X134822857Y-139965104D02*
X134746666Y-139965104D01*
X134746666Y-139965104D02*
X134632381Y-139927009D01*
X134632381Y-139927009D02*
X134594285Y-139888914D01*
X134289524Y-139888914D02*
X134251428Y-139927009D01*
X134251428Y-139927009D02*
X134175238Y-139965104D01*
X134175238Y-139965104D02*
X133984762Y-139965104D01*
X133984762Y-139965104D02*
X133908571Y-139927009D01*
X133908571Y-139927009D02*
X133870476Y-139888914D01*
X133870476Y-139888914D02*
X133832381Y-139812723D01*
X133832381Y-139812723D02*
X133832381Y-139736533D01*
X133832381Y-139736533D02*
X133870476Y-139622247D01*
X133870476Y-139622247D02*
X134327619Y-139165104D01*
X134327619Y-139165104D02*
X133832381Y-139165104D01*
X133337142Y-139965104D02*
X133260952Y-139965104D01*
X133260952Y-139965104D02*
X133184761Y-139927009D01*
X133184761Y-139927009D02*
X133146666Y-139888914D01*
X133146666Y-139888914D02*
X133108571Y-139812723D01*
X133108571Y-139812723D02*
X133070476Y-139660342D01*
X133070476Y-139660342D02*
X133070476Y-139469866D01*
X133070476Y-139469866D02*
X133108571Y-139317485D01*
X133108571Y-139317485D02*
X133146666Y-139241295D01*
X133146666Y-139241295D02*
X133184761Y-139203200D01*
X133184761Y-139203200D02*
X133260952Y-139165104D01*
X133260952Y-139165104D02*
X133337142Y-139165104D01*
X133337142Y-139165104D02*
X133413333Y-139203200D01*
X133413333Y-139203200D02*
X133451428Y-139241295D01*
X133451428Y-139241295D02*
X133489523Y-139317485D01*
X133489523Y-139317485D02*
X133527619Y-139469866D01*
X133527619Y-139469866D02*
X133527619Y-139660342D01*
X133527619Y-139660342D02*
X133489523Y-139812723D01*
X133489523Y-139812723D02*
X133451428Y-139888914D01*
X133451428Y-139888914D02*
X133413333Y-139927009D01*
X133413333Y-139927009D02*
X133337142Y-139965104D01*
X80214895Y-150033333D02*
X80214895Y-150414285D01*
X80214895Y-150414285D02*
X79414895Y-150414285D01*
X79491085Y-149804762D02*
X79452990Y-149766666D01*
X79452990Y-149766666D02*
X79414895Y-149690476D01*
X79414895Y-149690476D02*
X79414895Y-149500000D01*
X79414895Y-149500000D02*
X79452990Y-149423809D01*
X79452990Y-149423809D02*
X79491085Y-149385714D01*
X79491085Y-149385714D02*
X79567276Y-149347619D01*
X79567276Y-149347619D02*
X79643466Y-149347619D01*
X79643466Y-149347619D02*
X79757752Y-149385714D01*
X79757752Y-149385714D02*
X80214895Y-149842857D01*
X80214895Y-149842857D02*
X80214895Y-149347619D01*
X125181785Y-138121295D02*
X125219881Y-138083200D01*
X125219881Y-138083200D02*
X125334166Y-138045104D01*
X125334166Y-138045104D02*
X125410357Y-138045104D01*
X125410357Y-138045104D02*
X125524643Y-138083200D01*
X125524643Y-138083200D02*
X125600833Y-138159390D01*
X125600833Y-138159390D02*
X125638928Y-138235580D01*
X125638928Y-138235580D02*
X125677024Y-138387961D01*
X125677024Y-138387961D02*
X125677024Y-138502247D01*
X125677024Y-138502247D02*
X125638928Y-138654628D01*
X125638928Y-138654628D02*
X125600833Y-138730819D01*
X125600833Y-138730819D02*
X125524643Y-138807009D01*
X125524643Y-138807009D02*
X125410357Y-138845104D01*
X125410357Y-138845104D02*
X125334166Y-138845104D01*
X125334166Y-138845104D02*
X125219881Y-138807009D01*
X125219881Y-138807009D02*
X125181785Y-138768914D01*
X124915119Y-138845104D02*
X124419881Y-138845104D01*
X124419881Y-138845104D02*
X124686547Y-138540342D01*
X124686547Y-138540342D02*
X124572262Y-138540342D01*
X124572262Y-138540342D02*
X124496071Y-138502247D01*
X124496071Y-138502247D02*
X124457976Y-138464152D01*
X124457976Y-138464152D02*
X124419881Y-138387961D01*
X124419881Y-138387961D02*
X124419881Y-138197485D01*
X124419881Y-138197485D02*
X124457976Y-138121295D01*
X124457976Y-138121295D02*
X124496071Y-138083200D01*
X124496071Y-138083200D02*
X124572262Y-138045104D01*
X124572262Y-138045104D02*
X124800833Y-138045104D01*
X124800833Y-138045104D02*
X124877024Y-138083200D01*
X124877024Y-138083200D02*
X124915119Y-138121295D01*
X124115119Y-138768914D02*
X124077023Y-138807009D01*
X124077023Y-138807009D02*
X124000833Y-138845104D01*
X124000833Y-138845104D02*
X123810357Y-138845104D01*
X123810357Y-138845104D02*
X123734166Y-138807009D01*
X123734166Y-138807009D02*
X123696071Y-138768914D01*
X123696071Y-138768914D02*
X123657976Y-138692723D01*
X123657976Y-138692723D02*
X123657976Y-138616533D01*
X123657976Y-138616533D02*
X123696071Y-138502247D01*
X123696071Y-138502247D02*
X124153214Y-138045104D01*
X124153214Y-138045104D02*
X123657976Y-138045104D01*
X117825714Y-145204895D02*
X117559047Y-144823942D01*
X117368571Y-145204895D02*
X117368571Y-144404895D01*
X117368571Y-144404895D02*
X117673333Y-144404895D01*
X117673333Y-144404895D02*
X117749523Y-144442990D01*
X117749523Y-144442990D02*
X117787618Y-144481085D01*
X117787618Y-144481085D02*
X117825714Y-144557276D01*
X117825714Y-144557276D02*
X117825714Y-144671561D01*
X117825714Y-144671561D02*
X117787618Y-144747752D01*
X117787618Y-144747752D02*
X117749523Y-144785847D01*
X117749523Y-144785847D02*
X117673333Y-144823942D01*
X117673333Y-144823942D02*
X117368571Y-144823942D01*
X118587618Y-145204895D02*
X118130475Y-145204895D01*
X118359047Y-145204895D02*
X118359047Y-144404895D01*
X118359047Y-144404895D02*
X118282856Y-144519180D01*
X118282856Y-144519180D02*
X118206666Y-144595371D01*
X118206666Y-144595371D02*
X118130475Y-144633466D01*
X118892380Y-144481085D02*
X118930476Y-144442990D01*
X118930476Y-144442990D02*
X119006666Y-144404895D01*
X119006666Y-144404895D02*
X119197142Y-144404895D01*
X119197142Y-144404895D02*
X119273333Y-144442990D01*
X119273333Y-144442990D02*
X119311428Y-144481085D01*
X119311428Y-144481085D02*
X119349523Y-144557276D01*
X119349523Y-144557276D02*
X119349523Y-144633466D01*
X119349523Y-144633466D02*
X119311428Y-144747752D01*
X119311428Y-144747752D02*
X118854285Y-145204895D01*
X118854285Y-145204895D02*
X119349523Y-145204895D01*
X126433809Y-154391085D02*
X126357619Y-154352990D01*
X126357619Y-154352990D02*
X126281428Y-154276800D01*
X126281428Y-154276800D02*
X126167142Y-154162514D01*
X126167142Y-154162514D02*
X126090952Y-154124419D01*
X126090952Y-154124419D02*
X126014761Y-154124419D01*
X126052857Y-154314895D02*
X125976666Y-154276800D01*
X125976666Y-154276800D02*
X125900476Y-154200609D01*
X125900476Y-154200609D02*
X125862380Y-154048228D01*
X125862380Y-154048228D02*
X125862380Y-153781561D01*
X125862380Y-153781561D02*
X125900476Y-153629180D01*
X125900476Y-153629180D02*
X125976666Y-153552990D01*
X125976666Y-153552990D02*
X126052857Y-153514895D01*
X126052857Y-153514895D02*
X126205238Y-153514895D01*
X126205238Y-153514895D02*
X126281428Y-153552990D01*
X126281428Y-153552990D02*
X126357619Y-153629180D01*
X126357619Y-153629180D02*
X126395714Y-153781561D01*
X126395714Y-153781561D02*
X126395714Y-154048228D01*
X126395714Y-154048228D02*
X126357619Y-154200609D01*
X126357619Y-154200609D02*
X126281428Y-154276800D01*
X126281428Y-154276800D02*
X126205238Y-154314895D01*
X126205238Y-154314895D02*
X126052857Y-154314895D01*
X127157618Y-154314895D02*
X126700475Y-154314895D01*
X126929047Y-154314895D02*
X126929047Y-153514895D01*
X126929047Y-153514895D02*
X126852856Y-153629180D01*
X126852856Y-153629180D02*
X126776666Y-153705371D01*
X126776666Y-153705371D02*
X126700475Y-153743466D01*
X127007142Y-144568914D02*
X127083332Y-144607009D01*
X127083332Y-144607009D02*
X127159523Y-144683200D01*
X127159523Y-144683200D02*
X127273809Y-144797485D01*
X127273809Y-144797485D02*
X127349999Y-144835580D01*
X127349999Y-144835580D02*
X127426190Y-144835580D01*
X127388094Y-144645104D02*
X127464285Y-144683200D01*
X127464285Y-144683200D02*
X127540475Y-144759390D01*
X127540475Y-144759390D02*
X127578571Y-144911771D01*
X127578571Y-144911771D02*
X127578571Y-145178438D01*
X127578571Y-145178438D02*
X127540475Y-145330819D01*
X127540475Y-145330819D02*
X127464285Y-145407009D01*
X127464285Y-145407009D02*
X127388094Y-145445104D01*
X127388094Y-145445104D02*
X127235713Y-145445104D01*
X127235713Y-145445104D02*
X127159523Y-145407009D01*
X127159523Y-145407009D02*
X127083332Y-145330819D01*
X127083332Y-145330819D02*
X127045237Y-145178438D01*
X127045237Y-145178438D02*
X127045237Y-144911771D01*
X127045237Y-144911771D02*
X127083332Y-144759390D01*
X127083332Y-144759390D02*
X127159523Y-144683200D01*
X127159523Y-144683200D02*
X127235713Y-144645104D01*
X127235713Y-144645104D02*
X127388094Y-144645104D01*
X126283333Y-144645104D02*
X126740476Y-144645104D01*
X126511904Y-144645104D02*
X126511904Y-145445104D01*
X126511904Y-145445104D02*
X126588095Y-145330819D01*
X126588095Y-145330819D02*
X126664285Y-145254628D01*
X126664285Y-145254628D02*
X126740476Y-145216533D01*
X125788094Y-145445104D02*
X125711904Y-145445104D01*
X125711904Y-145445104D02*
X125635713Y-145407009D01*
X125635713Y-145407009D02*
X125597618Y-145368914D01*
X125597618Y-145368914D02*
X125559523Y-145292723D01*
X125559523Y-145292723D02*
X125521428Y-145140342D01*
X125521428Y-145140342D02*
X125521428Y-144949866D01*
X125521428Y-144949866D02*
X125559523Y-144797485D01*
X125559523Y-144797485D02*
X125597618Y-144721295D01*
X125597618Y-144721295D02*
X125635713Y-144683200D01*
X125635713Y-144683200D02*
X125711904Y-144645104D01*
X125711904Y-144645104D02*
X125788094Y-144645104D01*
X125788094Y-144645104D02*
X125864285Y-144683200D01*
X125864285Y-144683200D02*
X125902380Y-144721295D01*
X125902380Y-144721295D02*
X125940475Y-144797485D01*
X125940475Y-144797485D02*
X125978571Y-144949866D01*
X125978571Y-144949866D02*
X125978571Y-145140342D01*
X125978571Y-145140342D02*
X125940475Y-145292723D01*
X125940475Y-145292723D02*
X125902380Y-145368914D01*
X125902380Y-145368914D02*
X125864285Y-145407009D01*
X125864285Y-145407009D02*
X125788094Y-145445104D01*
X133708704Y-146404285D02*
X133746800Y-146442381D01*
X133746800Y-146442381D02*
X133784895Y-146556666D01*
X133784895Y-146556666D02*
X133784895Y-146632857D01*
X133784895Y-146632857D02*
X133746800Y-146747143D01*
X133746800Y-146747143D02*
X133670609Y-146823333D01*
X133670609Y-146823333D02*
X133594419Y-146861428D01*
X133594419Y-146861428D02*
X133442038Y-146899524D01*
X133442038Y-146899524D02*
X133327752Y-146899524D01*
X133327752Y-146899524D02*
X133175371Y-146861428D01*
X133175371Y-146861428D02*
X133099180Y-146823333D01*
X133099180Y-146823333D02*
X133022990Y-146747143D01*
X133022990Y-146747143D02*
X132984895Y-146632857D01*
X132984895Y-146632857D02*
X132984895Y-146556666D01*
X132984895Y-146556666D02*
X133022990Y-146442381D01*
X133022990Y-146442381D02*
X133061085Y-146404285D01*
X133061085Y-146099524D02*
X133022990Y-146061428D01*
X133022990Y-146061428D02*
X132984895Y-145985238D01*
X132984895Y-145985238D02*
X132984895Y-145794762D01*
X132984895Y-145794762D02*
X133022990Y-145718571D01*
X133022990Y-145718571D02*
X133061085Y-145680476D01*
X133061085Y-145680476D02*
X133137276Y-145642381D01*
X133137276Y-145642381D02*
X133213466Y-145642381D01*
X133213466Y-145642381D02*
X133327752Y-145680476D01*
X133327752Y-145680476D02*
X133784895Y-146137619D01*
X133784895Y-146137619D02*
X133784895Y-145642381D01*
X133061085Y-145337619D02*
X133022990Y-145299523D01*
X133022990Y-145299523D02*
X132984895Y-145223333D01*
X132984895Y-145223333D02*
X132984895Y-145032857D01*
X132984895Y-145032857D02*
X133022990Y-144956666D01*
X133022990Y-144956666D02*
X133061085Y-144918571D01*
X133061085Y-144918571D02*
X133137276Y-144880476D01*
X133137276Y-144880476D02*
X133213466Y-144880476D01*
X133213466Y-144880476D02*
X133327752Y-144918571D01*
X133327752Y-144918571D02*
X133784895Y-145375714D01*
X133784895Y-145375714D02*
X133784895Y-144880476D01*
X128564895Y-140994285D02*
X128183942Y-141260952D01*
X128564895Y-141451428D02*
X127764895Y-141451428D01*
X127764895Y-141451428D02*
X127764895Y-141146666D01*
X127764895Y-141146666D02*
X127802990Y-141070476D01*
X127802990Y-141070476D02*
X127841085Y-141032381D01*
X127841085Y-141032381D02*
X127917276Y-140994285D01*
X127917276Y-140994285D02*
X128031561Y-140994285D01*
X128031561Y-140994285D02*
X128107752Y-141032381D01*
X128107752Y-141032381D02*
X128145847Y-141070476D01*
X128145847Y-141070476D02*
X128183942Y-141146666D01*
X128183942Y-141146666D02*
X128183942Y-141451428D01*
X127764895Y-140270476D02*
X127764895Y-140651428D01*
X127764895Y-140651428D02*
X128145847Y-140689524D01*
X128145847Y-140689524D02*
X128107752Y-140651428D01*
X128107752Y-140651428D02*
X128069657Y-140575238D01*
X128069657Y-140575238D02*
X128069657Y-140384762D01*
X128069657Y-140384762D02*
X128107752Y-140308571D01*
X128107752Y-140308571D02*
X128145847Y-140270476D01*
X128145847Y-140270476D02*
X128222038Y-140232381D01*
X128222038Y-140232381D02*
X128412514Y-140232381D01*
X128412514Y-140232381D02*
X128488704Y-140270476D01*
X128488704Y-140270476D02*
X128526800Y-140308571D01*
X128526800Y-140308571D02*
X128564895Y-140384762D01*
X128564895Y-140384762D02*
X128564895Y-140575238D01*
X128564895Y-140575238D02*
X128526800Y-140651428D01*
X128526800Y-140651428D02*
X128488704Y-140689524D01*
X128564895Y-139470476D02*
X128564895Y-139927619D01*
X128564895Y-139699047D02*
X127764895Y-139699047D01*
X127764895Y-139699047D02*
X127879180Y-139775238D01*
X127879180Y-139775238D02*
X127955371Y-139851428D01*
X127955371Y-139851428D02*
X127993466Y-139927619D01*
X131405104Y-142765714D02*
X131786057Y-142499047D01*
X131405104Y-142308571D02*
X132205104Y-142308571D01*
X132205104Y-142308571D02*
X132205104Y-142613333D01*
X132205104Y-142613333D02*
X132167009Y-142689523D01*
X132167009Y-142689523D02*
X132128914Y-142727618D01*
X132128914Y-142727618D02*
X132052723Y-142765714D01*
X132052723Y-142765714D02*
X131938438Y-142765714D01*
X131938438Y-142765714D02*
X131862247Y-142727618D01*
X131862247Y-142727618D02*
X131824152Y-142689523D01*
X131824152Y-142689523D02*
X131786057Y-142613333D01*
X131786057Y-142613333D02*
X131786057Y-142308571D01*
X132205104Y-143489523D02*
X132205104Y-143108571D01*
X132205104Y-143108571D02*
X131824152Y-143070475D01*
X131824152Y-143070475D02*
X131862247Y-143108571D01*
X131862247Y-143108571D02*
X131900342Y-143184761D01*
X131900342Y-143184761D02*
X131900342Y-143375237D01*
X131900342Y-143375237D02*
X131862247Y-143451428D01*
X131862247Y-143451428D02*
X131824152Y-143489523D01*
X131824152Y-143489523D02*
X131747961Y-143527618D01*
X131747961Y-143527618D02*
X131557485Y-143527618D01*
X131557485Y-143527618D02*
X131481295Y-143489523D01*
X131481295Y-143489523D02*
X131443200Y-143451428D01*
X131443200Y-143451428D02*
X131405104Y-143375237D01*
X131405104Y-143375237D02*
X131405104Y-143184761D01*
X131405104Y-143184761D02*
X131443200Y-143108571D01*
X131443200Y-143108571D02*
X131481295Y-143070475D01*
X132128914Y-143832380D02*
X132167009Y-143870476D01*
X132167009Y-143870476D02*
X132205104Y-143946666D01*
X132205104Y-143946666D02*
X132205104Y-144137142D01*
X132205104Y-144137142D02*
X132167009Y-144213333D01*
X132167009Y-144213333D02*
X132128914Y-144251428D01*
X132128914Y-144251428D02*
X132052723Y-144289523D01*
X132052723Y-144289523D02*
X131976533Y-144289523D01*
X131976533Y-144289523D02*
X131862247Y-144251428D01*
X131862247Y-144251428D02*
X131405104Y-143794285D01*
X131405104Y-143794285D02*
X131405104Y-144289523D01*
X128845104Y-152396667D02*
X129226057Y-152130000D01*
X128845104Y-151939524D02*
X129645104Y-151939524D01*
X129645104Y-151939524D02*
X129645104Y-152244286D01*
X129645104Y-152244286D02*
X129607009Y-152320476D01*
X129607009Y-152320476D02*
X129568914Y-152358571D01*
X129568914Y-152358571D02*
X129492723Y-152396667D01*
X129492723Y-152396667D02*
X129378438Y-152396667D01*
X129378438Y-152396667D02*
X129302247Y-152358571D01*
X129302247Y-152358571D02*
X129264152Y-152320476D01*
X129264152Y-152320476D02*
X129226057Y-152244286D01*
X129226057Y-152244286D02*
X129226057Y-151939524D01*
X129645104Y-153120476D02*
X129645104Y-152739524D01*
X129645104Y-152739524D02*
X129264152Y-152701428D01*
X129264152Y-152701428D02*
X129302247Y-152739524D01*
X129302247Y-152739524D02*
X129340342Y-152815714D01*
X129340342Y-152815714D02*
X129340342Y-153006190D01*
X129340342Y-153006190D02*
X129302247Y-153082381D01*
X129302247Y-153082381D02*
X129264152Y-153120476D01*
X129264152Y-153120476D02*
X129187961Y-153158571D01*
X129187961Y-153158571D02*
X128997485Y-153158571D01*
X128997485Y-153158571D02*
X128921295Y-153120476D01*
X128921295Y-153120476D02*
X128883200Y-153082381D01*
X128883200Y-153082381D02*
X128845104Y-153006190D01*
X128845104Y-153006190D02*
X128845104Y-152815714D01*
X128845104Y-152815714D02*
X128883200Y-152739524D01*
X128883200Y-152739524D02*
X128921295Y-152701428D01*
X131533332Y-136756800D02*
X131647618Y-136794895D01*
X131647618Y-136794895D02*
X131838094Y-136794895D01*
X131838094Y-136794895D02*
X131914285Y-136756800D01*
X131914285Y-136756800D02*
X131952380Y-136718704D01*
X131952380Y-136718704D02*
X131990475Y-136642514D01*
X131990475Y-136642514D02*
X131990475Y-136566323D01*
X131990475Y-136566323D02*
X131952380Y-136490133D01*
X131952380Y-136490133D02*
X131914285Y-136452038D01*
X131914285Y-136452038D02*
X131838094Y-136413942D01*
X131838094Y-136413942D02*
X131685713Y-136375847D01*
X131685713Y-136375847D02*
X131609523Y-136337752D01*
X131609523Y-136337752D02*
X131571428Y-136299657D01*
X131571428Y-136299657D02*
X131533332Y-136223466D01*
X131533332Y-136223466D02*
X131533332Y-136147276D01*
X131533332Y-136147276D02*
X131571428Y-136071085D01*
X131571428Y-136071085D02*
X131609523Y-136032990D01*
X131609523Y-136032990D02*
X131685713Y-135994895D01*
X131685713Y-135994895D02*
X131876190Y-135994895D01*
X131876190Y-135994895D02*
X131990475Y-136032990D01*
X132257142Y-135994895D02*
X132447618Y-136794895D01*
X132447618Y-136794895D02*
X132599999Y-136223466D01*
X132599999Y-136223466D02*
X132752380Y-136794895D01*
X132752380Y-136794895D02*
X132942857Y-135994895D01*
X133666666Y-136794895D02*
X133209523Y-136794895D01*
X133438095Y-136794895D02*
X133438095Y-135994895D01*
X133438095Y-135994895D02*
X133361904Y-136109180D01*
X133361904Y-136109180D02*
X133285714Y-136185371D01*
X133285714Y-136185371D02*
X133209523Y-136223466D01*
X81893333Y-184004895D02*
X81893333Y-184576323D01*
X81893333Y-184576323D02*
X81855238Y-184690609D01*
X81855238Y-184690609D02*
X81779047Y-184766800D01*
X81779047Y-184766800D02*
X81664762Y-184804895D01*
X81664762Y-184804895D02*
X81588571Y-184804895D01*
X82198095Y-184004895D02*
X82693333Y-184004895D01*
X82693333Y-184004895D02*
X82426667Y-184309657D01*
X82426667Y-184309657D02*
X82540952Y-184309657D01*
X82540952Y-184309657D02*
X82617143Y-184347752D01*
X82617143Y-184347752D02*
X82655238Y-184385847D01*
X82655238Y-184385847D02*
X82693333Y-184462038D01*
X82693333Y-184462038D02*
X82693333Y-184652514D01*
X82693333Y-184652514D02*
X82655238Y-184728704D01*
X82655238Y-184728704D02*
X82617143Y-184766800D01*
X82617143Y-184766800D02*
X82540952Y-184804895D01*
X82540952Y-184804895D02*
X82312381Y-184804895D01*
X82312381Y-184804895D02*
X82236190Y-184766800D01*
X82236190Y-184766800D02*
X82198095Y-184728704D01*
X117237604Y-149030476D02*
X116589985Y-149030476D01*
X116589985Y-149030476D02*
X116513795Y-149068571D01*
X116513795Y-149068571D02*
X116475700Y-149106666D01*
X116475700Y-149106666D02*
X116437604Y-149182857D01*
X116437604Y-149182857D02*
X116437604Y-149335238D01*
X116437604Y-149335238D02*
X116475700Y-149411428D01*
X116475700Y-149411428D02*
X116513795Y-149449523D01*
X116513795Y-149449523D02*
X116589985Y-149487619D01*
X116589985Y-149487619D02*
X117237604Y-149487619D01*
X116437604Y-150287618D02*
X116437604Y-149830475D01*
X116437604Y-150059047D02*
X117237604Y-150059047D01*
X117237604Y-150059047D02*
X117123319Y-149982856D01*
X117123319Y-149982856D02*
X117047128Y-149906666D01*
X117047128Y-149906666D02*
X117009033Y-149830475D01*
X134868704Y-133034285D02*
X134906800Y-133072381D01*
X134906800Y-133072381D02*
X134944895Y-133186666D01*
X134944895Y-133186666D02*
X134944895Y-133262857D01*
X134944895Y-133262857D02*
X134906800Y-133377143D01*
X134906800Y-133377143D02*
X134830609Y-133453333D01*
X134830609Y-133453333D02*
X134754419Y-133491428D01*
X134754419Y-133491428D02*
X134602038Y-133529524D01*
X134602038Y-133529524D02*
X134487752Y-133529524D01*
X134487752Y-133529524D02*
X134335371Y-133491428D01*
X134335371Y-133491428D02*
X134259180Y-133453333D01*
X134259180Y-133453333D02*
X134182990Y-133377143D01*
X134182990Y-133377143D02*
X134144895Y-133262857D01*
X134144895Y-133262857D02*
X134144895Y-133186666D01*
X134144895Y-133186666D02*
X134182990Y-133072381D01*
X134182990Y-133072381D02*
X134221085Y-133034285D01*
X134944895Y-132272381D02*
X134944895Y-132729524D01*
X134944895Y-132500952D02*
X134144895Y-132500952D01*
X134144895Y-132500952D02*
X134259180Y-132577143D01*
X134259180Y-132577143D02*
X134335371Y-132653333D01*
X134335371Y-132653333D02*
X134373466Y-132729524D01*
X134144895Y-131777142D02*
X134144895Y-131700952D01*
X134144895Y-131700952D02*
X134182990Y-131624761D01*
X134182990Y-131624761D02*
X134221085Y-131586666D01*
X134221085Y-131586666D02*
X134297276Y-131548571D01*
X134297276Y-131548571D02*
X134449657Y-131510476D01*
X134449657Y-131510476D02*
X134640133Y-131510476D01*
X134640133Y-131510476D02*
X134792514Y-131548571D01*
X134792514Y-131548571D02*
X134868704Y-131586666D01*
X134868704Y-131586666D02*
X134906800Y-131624761D01*
X134906800Y-131624761D02*
X134944895Y-131700952D01*
X134944895Y-131700952D02*
X134944895Y-131777142D01*
X134944895Y-131777142D02*
X134906800Y-131853333D01*
X134906800Y-131853333D02*
X134868704Y-131891428D01*
X134868704Y-131891428D02*
X134792514Y-131929523D01*
X134792514Y-131929523D02*
X134640133Y-131967619D01*
X134640133Y-131967619D02*
X134449657Y-131967619D01*
X134449657Y-131967619D02*
X134297276Y-131929523D01*
X134297276Y-131929523D02*
X134221085Y-131891428D01*
X134221085Y-131891428D02*
X134182990Y-131853333D01*
X134182990Y-131853333D02*
X134144895Y-131777142D01*
X118256667Y-147154895D02*
X117990000Y-146773942D01*
X117799524Y-147154895D02*
X117799524Y-146354895D01*
X117799524Y-146354895D02*
X118104286Y-146354895D01*
X118104286Y-146354895D02*
X118180476Y-146392990D01*
X118180476Y-146392990D02*
X118218571Y-146431085D01*
X118218571Y-146431085D02*
X118256667Y-146507276D01*
X118256667Y-146507276D02*
X118256667Y-146621561D01*
X118256667Y-146621561D02*
X118218571Y-146697752D01*
X118218571Y-146697752D02*
X118180476Y-146735847D01*
X118180476Y-146735847D02*
X118104286Y-146773942D01*
X118104286Y-146773942D02*
X117799524Y-146773942D01*
X118523333Y-146354895D02*
X119018571Y-146354895D01*
X119018571Y-146354895D02*
X118751905Y-146659657D01*
X118751905Y-146659657D02*
X118866190Y-146659657D01*
X118866190Y-146659657D02*
X118942381Y-146697752D01*
X118942381Y-146697752D02*
X118980476Y-146735847D01*
X118980476Y-146735847D02*
X119018571Y-146812038D01*
X119018571Y-146812038D02*
X119018571Y-147002514D01*
X119018571Y-147002514D02*
X118980476Y-147078704D01*
X118980476Y-147078704D02*
X118942381Y-147116800D01*
X118942381Y-147116800D02*
X118866190Y-147154895D01*
X118866190Y-147154895D02*
X118637619Y-147154895D01*
X118637619Y-147154895D02*
X118561428Y-147116800D01*
X118561428Y-147116800D02*
X118523333Y-147078704D01*
X139321596Y-144922075D02*
X138940643Y-145188742D01*
X139321596Y-145379218D02*
X138521596Y-145379218D01*
X138521596Y-145379218D02*
X138521596Y-145074456D01*
X138521596Y-145074456D02*
X138559691Y-144998266D01*
X138559691Y-144998266D02*
X138597786Y-144960171D01*
X138597786Y-144960171D02*
X138673977Y-144922075D01*
X138673977Y-144922075D02*
X138788262Y-144922075D01*
X138788262Y-144922075D02*
X138864453Y-144960171D01*
X138864453Y-144960171D02*
X138902548Y-144998266D01*
X138902548Y-144998266D02*
X138940643Y-145074456D01*
X138940643Y-145074456D02*
X138940643Y-145379218D01*
X138521596Y-144655409D02*
X138521596Y-144160171D01*
X138521596Y-144160171D02*
X138826358Y-144426837D01*
X138826358Y-144426837D02*
X138826358Y-144312552D01*
X138826358Y-144312552D02*
X138864453Y-144236361D01*
X138864453Y-144236361D02*
X138902548Y-144198266D01*
X138902548Y-144198266D02*
X138978739Y-144160171D01*
X138978739Y-144160171D02*
X139169215Y-144160171D01*
X139169215Y-144160171D02*
X139245405Y-144198266D01*
X139245405Y-144198266D02*
X139283501Y-144236361D01*
X139283501Y-144236361D02*
X139321596Y-144312552D01*
X139321596Y-144312552D02*
X139321596Y-144541123D01*
X139321596Y-144541123D02*
X139283501Y-144617314D01*
X139283501Y-144617314D02*
X139245405Y-144655409D01*
X138521596Y-143893504D02*
X138521596Y-143398266D01*
X138521596Y-143398266D02*
X138826358Y-143664932D01*
X138826358Y-143664932D02*
X138826358Y-143550647D01*
X138826358Y-143550647D02*
X138864453Y-143474456D01*
X138864453Y-143474456D02*
X138902548Y-143436361D01*
X138902548Y-143436361D02*
X138978739Y-143398266D01*
X138978739Y-143398266D02*
X139169215Y-143398266D01*
X139169215Y-143398266D02*
X139245405Y-143436361D01*
X139245405Y-143436361D02*
X139283501Y-143474456D01*
X139283501Y-143474456D02*
X139321596Y-143550647D01*
X139321596Y-143550647D02*
X139321596Y-143779218D01*
X139321596Y-143779218D02*
X139283501Y-143855409D01*
X139283501Y-143855409D02*
X139245405Y-143893504D01*
X81614895Y-157540475D02*
X80814895Y-157540475D01*
X80814895Y-157540475D02*
X80814895Y-157349999D01*
X80814895Y-157349999D02*
X80852990Y-157235713D01*
X80852990Y-157235713D02*
X80929180Y-157159523D01*
X80929180Y-157159523D02*
X81005371Y-157121428D01*
X81005371Y-157121428D02*
X81157752Y-157083332D01*
X81157752Y-157083332D02*
X81272038Y-157083332D01*
X81272038Y-157083332D02*
X81424419Y-157121428D01*
X81424419Y-157121428D02*
X81500609Y-157159523D01*
X81500609Y-157159523D02*
X81576800Y-157235713D01*
X81576800Y-157235713D02*
X81614895Y-157349999D01*
X81614895Y-157349999D02*
X81614895Y-157540475D01*
X81081561Y-156397618D02*
X81614895Y-156397618D01*
X80776800Y-156588094D02*
X81348228Y-156778571D01*
X81348228Y-156778571D02*
X81348228Y-156283332D01*
X148465714Y-150624895D02*
X148199047Y-150243942D01*
X148008571Y-150624895D02*
X148008571Y-149824895D01*
X148008571Y-149824895D02*
X148313333Y-149824895D01*
X148313333Y-149824895D02*
X148389523Y-149862990D01*
X148389523Y-149862990D02*
X148427618Y-149901085D01*
X148427618Y-149901085D02*
X148465714Y-149977276D01*
X148465714Y-149977276D02*
X148465714Y-150091561D01*
X148465714Y-150091561D02*
X148427618Y-150167752D01*
X148427618Y-150167752D02*
X148389523Y-150205847D01*
X148389523Y-150205847D02*
X148313333Y-150243942D01*
X148313333Y-150243942D02*
X148008571Y-150243942D01*
X149151428Y-150091561D02*
X149151428Y-150624895D01*
X148960952Y-149786800D02*
X148770475Y-150358228D01*
X148770475Y-150358228D02*
X149265714Y-150358228D01*
X149532380Y-149901085D02*
X149570476Y-149862990D01*
X149570476Y-149862990D02*
X149646666Y-149824895D01*
X149646666Y-149824895D02*
X149837142Y-149824895D01*
X149837142Y-149824895D02*
X149913333Y-149862990D01*
X149913333Y-149862990D02*
X149951428Y-149901085D01*
X149951428Y-149901085D02*
X149989523Y-149977276D01*
X149989523Y-149977276D02*
X149989523Y-150053466D01*
X149989523Y-150053466D02*
X149951428Y-150167752D01*
X149951428Y-150167752D02*
X149494285Y-150624895D01*
X149494285Y-150624895D02*
X149989523Y-150624895D01*
X83864895Y-149783332D02*
X83483942Y-150049999D01*
X83864895Y-150240475D02*
X83064895Y-150240475D01*
X83064895Y-150240475D02*
X83064895Y-149935713D01*
X83064895Y-149935713D02*
X83102990Y-149859523D01*
X83102990Y-149859523D02*
X83141085Y-149821428D01*
X83141085Y-149821428D02*
X83217276Y-149783332D01*
X83217276Y-149783332D02*
X83331561Y-149783332D01*
X83331561Y-149783332D02*
X83407752Y-149821428D01*
X83407752Y-149821428D02*
X83445847Y-149859523D01*
X83445847Y-149859523D02*
X83483942Y-149935713D01*
X83483942Y-149935713D02*
X83483942Y-150240475D01*
X83407752Y-149326190D02*
X83369657Y-149402380D01*
X83369657Y-149402380D02*
X83331561Y-149440475D01*
X83331561Y-149440475D02*
X83255371Y-149478571D01*
X83255371Y-149478571D02*
X83217276Y-149478571D01*
X83217276Y-149478571D02*
X83141085Y-149440475D01*
X83141085Y-149440475D02*
X83102990Y-149402380D01*
X83102990Y-149402380D02*
X83064895Y-149326190D01*
X83064895Y-149326190D02*
X83064895Y-149173809D01*
X83064895Y-149173809D02*
X83102990Y-149097618D01*
X83102990Y-149097618D02*
X83141085Y-149059523D01*
X83141085Y-149059523D02*
X83217276Y-149021428D01*
X83217276Y-149021428D02*
X83255371Y-149021428D01*
X83255371Y-149021428D02*
X83331561Y-149059523D01*
X83331561Y-149059523D02*
X83369657Y-149097618D01*
X83369657Y-149097618D02*
X83407752Y-149173809D01*
X83407752Y-149173809D02*
X83407752Y-149326190D01*
X83407752Y-149326190D02*
X83445847Y-149402380D01*
X83445847Y-149402380D02*
X83483942Y-149440475D01*
X83483942Y-149440475D02*
X83560133Y-149478571D01*
X83560133Y-149478571D02*
X83712514Y-149478571D01*
X83712514Y-149478571D02*
X83788704Y-149440475D01*
X83788704Y-149440475D02*
X83826800Y-149402380D01*
X83826800Y-149402380D02*
X83864895Y-149326190D01*
X83864895Y-149326190D02*
X83864895Y-149173809D01*
X83864895Y-149173809D02*
X83826800Y-149097618D01*
X83826800Y-149097618D02*
X83788704Y-149059523D01*
X83788704Y-149059523D02*
X83712514Y-149021428D01*
X83712514Y-149021428D02*
X83560133Y-149021428D01*
X83560133Y-149021428D02*
X83483942Y-149059523D01*
X83483942Y-149059523D02*
X83445847Y-149097618D01*
X83445847Y-149097618D02*
X83407752Y-149173809D01*
X113151295Y-149694167D02*
X113113200Y-149656071D01*
X113113200Y-149656071D02*
X113075104Y-149541786D01*
X113075104Y-149541786D02*
X113075104Y-149465595D01*
X113075104Y-149465595D02*
X113113200Y-149351309D01*
X113113200Y-149351309D02*
X113189390Y-149275119D01*
X113189390Y-149275119D02*
X113265580Y-149237024D01*
X113265580Y-149237024D02*
X113417961Y-149198928D01*
X113417961Y-149198928D02*
X113532247Y-149198928D01*
X113532247Y-149198928D02*
X113684628Y-149237024D01*
X113684628Y-149237024D02*
X113760819Y-149275119D01*
X113760819Y-149275119D02*
X113837009Y-149351309D01*
X113837009Y-149351309D02*
X113875104Y-149465595D01*
X113875104Y-149465595D02*
X113875104Y-149541786D01*
X113875104Y-149541786D02*
X113837009Y-149656071D01*
X113837009Y-149656071D02*
X113798914Y-149694167D01*
X113798914Y-149998928D02*
X113837009Y-150037024D01*
X113837009Y-150037024D02*
X113875104Y-150113214D01*
X113875104Y-150113214D02*
X113875104Y-150303690D01*
X113875104Y-150303690D02*
X113837009Y-150379881D01*
X113837009Y-150379881D02*
X113798914Y-150417976D01*
X113798914Y-150417976D02*
X113722723Y-150456071D01*
X113722723Y-150456071D02*
X113646533Y-150456071D01*
X113646533Y-150456071D02*
X113532247Y-150417976D01*
X113532247Y-150417976D02*
X113075104Y-149960833D01*
X113075104Y-149960833D02*
X113075104Y-150456071D01*
X134224895Y-141854285D02*
X133843942Y-142120952D01*
X134224895Y-142311428D02*
X133424895Y-142311428D01*
X133424895Y-142311428D02*
X133424895Y-142006666D01*
X133424895Y-142006666D02*
X133462990Y-141930476D01*
X133462990Y-141930476D02*
X133501085Y-141892381D01*
X133501085Y-141892381D02*
X133577276Y-141854285D01*
X133577276Y-141854285D02*
X133691561Y-141854285D01*
X133691561Y-141854285D02*
X133767752Y-141892381D01*
X133767752Y-141892381D02*
X133805847Y-141930476D01*
X133805847Y-141930476D02*
X133843942Y-142006666D01*
X133843942Y-142006666D02*
X133843942Y-142311428D01*
X133424895Y-141587619D02*
X133424895Y-141092381D01*
X133424895Y-141092381D02*
X133729657Y-141359047D01*
X133729657Y-141359047D02*
X133729657Y-141244762D01*
X133729657Y-141244762D02*
X133767752Y-141168571D01*
X133767752Y-141168571D02*
X133805847Y-141130476D01*
X133805847Y-141130476D02*
X133882038Y-141092381D01*
X133882038Y-141092381D02*
X134072514Y-141092381D01*
X134072514Y-141092381D02*
X134148704Y-141130476D01*
X134148704Y-141130476D02*
X134186800Y-141168571D01*
X134186800Y-141168571D02*
X134224895Y-141244762D01*
X134224895Y-141244762D02*
X134224895Y-141473333D01*
X134224895Y-141473333D02*
X134186800Y-141549524D01*
X134186800Y-141549524D02*
X134148704Y-141587619D01*
X134224895Y-140330476D02*
X134224895Y-140787619D01*
X134224895Y-140559047D02*
X133424895Y-140559047D01*
X133424895Y-140559047D02*
X133539180Y-140635238D01*
X133539180Y-140635238D02*
X133615371Y-140711428D01*
X133615371Y-140711428D02*
X133653466Y-140787619D01*
X148475714Y-149164895D02*
X148209047Y-148783942D01*
X148018571Y-149164895D02*
X148018571Y-148364895D01*
X148018571Y-148364895D02*
X148323333Y-148364895D01*
X148323333Y-148364895D02*
X148399523Y-148402990D01*
X148399523Y-148402990D02*
X148437618Y-148441085D01*
X148437618Y-148441085D02*
X148475714Y-148517276D01*
X148475714Y-148517276D02*
X148475714Y-148631561D01*
X148475714Y-148631561D02*
X148437618Y-148707752D01*
X148437618Y-148707752D02*
X148399523Y-148745847D01*
X148399523Y-148745847D02*
X148323333Y-148783942D01*
X148323333Y-148783942D02*
X148018571Y-148783942D01*
X149161428Y-148631561D02*
X149161428Y-149164895D01*
X148970952Y-148326800D02*
X148780475Y-148898228D01*
X148780475Y-148898228D02*
X149275714Y-148898228D01*
X149504285Y-148364895D02*
X149999523Y-148364895D01*
X149999523Y-148364895D02*
X149732857Y-148669657D01*
X149732857Y-148669657D02*
X149847142Y-148669657D01*
X149847142Y-148669657D02*
X149923333Y-148707752D01*
X149923333Y-148707752D02*
X149961428Y-148745847D01*
X149961428Y-148745847D02*
X149999523Y-148822038D01*
X149999523Y-148822038D02*
X149999523Y-149012514D01*
X149999523Y-149012514D02*
X149961428Y-149088704D01*
X149961428Y-149088704D02*
X149923333Y-149126800D01*
X149923333Y-149126800D02*
X149847142Y-149164895D01*
X149847142Y-149164895D02*
X149618571Y-149164895D01*
X149618571Y-149164895D02*
X149542380Y-149126800D01*
X149542380Y-149126800D02*
X149504285Y-149088704D01*
X127805104Y-138065714D02*
X128186057Y-137799047D01*
X127805104Y-137608571D02*
X128605104Y-137608571D01*
X128605104Y-137608571D02*
X128605104Y-137913333D01*
X128605104Y-137913333D02*
X128567009Y-137989523D01*
X128567009Y-137989523D02*
X128528914Y-138027618D01*
X128528914Y-138027618D02*
X128452723Y-138065714D01*
X128452723Y-138065714D02*
X128338438Y-138065714D01*
X128338438Y-138065714D02*
X128262247Y-138027618D01*
X128262247Y-138027618D02*
X128224152Y-137989523D01*
X128224152Y-137989523D02*
X128186057Y-137913333D01*
X128186057Y-137913333D02*
X128186057Y-137608571D01*
X128605104Y-138789523D02*
X128605104Y-138408571D01*
X128605104Y-138408571D02*
X128224152Y-138370475D01*
X128224152Y-138370475D02*
X128262247Y-138408571D01*
X128262247Y-138408571D02*
X128300342Y-138484761D01*
X128300342Y-138484761D02*
X128300342Y-138675237D01*
X128300342Y-138675237D02*
X128262247Y-138751428D01*
X128262247Y-138751428D02*
X128224152Y-138789523D01*
X128224152Y-138789523D02*
X128147961Y-138827618D01*
X128147961Y-138827618D02*
X127957485Y-138827618D01*
X127957485Y-138827618D02*
X127881295Y-138789523D01*
X127881295Y-138789523D02*
X127843200Y-138751428D01*
X127843200Y-138751428D02*
X127805104Y-138675237D01*
X127805104Y-138675237D02*
X127805104Y-138484761D01*
X127805104Y-138484761D02*
X127843200Y-138408571D01*
X127843200Y-138408571D02*
X127881295Y-138370475D01*
X128605104Y-139322857D02*
X128605104Y-139399047D01*
X128605104Y-139399047D02*
X128567009Y-139475238D01*
X128567009Y-139475238D02*
X128528914Y-139513333D01*
X128528914Y-139513333D02*
X128452723Y-139551428D01*
X128452723Y-139551428D02*
X128300342Y-139589523D01*
X128300342Y-139589523D02*
X128109866Y-139589523D01*
X128109866Y-139589523D02*
X127957485Y-139551428D01*
X127957485Y-139551428D02*
X127881295Y-139513333D01*
X127881295Y-139513333D02*
X127843200Y-139475238D01*
X127843200Y-139475238D02*
X127805104Y-139399047D01*
X127805104Y-139399047D02*
X127805104Y-139322857D01*
X127805104Y-139322857D02*
X127843200Y-139246666D01*
X127843200Y-139246666D02*
X127881295Y-139208571D01*
X127881295Y-139208571D02*
X127957485Y-139170476D01*
X127957485Y-139170476D02*
X128109866Y-139132380D01*
X128109866Y-139132380D02*
X128300342Y-139132380D01*
X128300342Y-139132380D02*
X128452723Y-139170476D01*
X128452723Y-139170476D02*
X128528914Y-139208571D01*
X128528914Y-139208571D02*
X128567009Y-139246666D01*
X128567009Y-139246666D02*
X128605104Y-139322857D01*
X78676204Y-157183332D02*
X78714300Y-157221428D01*
X78714300Y-157221428D02*
X78752395Y-157335713D01*
X78752395Y-157335713D02*
X78752395Y-157411904D01*
X78752395Y-157411904D02*
X78714300Y-157526190D01*
X78714300Y-157526190D02*
X78638109Y-157602380D01*
X78638109Y-157602380D02*
X78561919Y-157640475D01*
X78561919Y-157640475D02*
X78409538Y-157678571D01*
X78409538Y-157678571D02*
X78295252Y-157678571D01*
X78295252Y-157678571D02*
X78142871Y-157640475D01*
X78142871Y-157640475D02*
X78066680Y-157602380D01*
X78066680Y-157602380D02*
X77990490Y-157526190D01*
X77990490Y-157526190D02*
X77952395Y-157411904D01*
X77952395Y-157411904D02*
X77952395Y-157335713D01*
X77952395Y-157335713D02*
X77990490Y-157221428D01*
X77990490Y-157221428D02*
X78028585Y-157183332D01*
X78295252Y-156726190D02*
X78257157Y-156802380D01*
X78257157Y-156802380D02*
X78219061Y-156840475D01*
X78219061Y-156840475D02*
X78142871Y-156878571D01*
X78142871Y-156878571D02*
X78104776Y-156878571D01*
X78104776Y-156878571D02*
X78028585Y-156840475D01*
X78028585Y-156840475D02*
X77990490Y-156802380D01*
X77990490Y-156802380D02*
X77952395Y-156726190D01*
X77952395Y-156726190D02*
X77952395Y-156573809D01*
X77952395Y-156573809D02*
X77990490Y-156497618D01*
X77990490Y-156497618D02*
X78028585Y-156459523D01*
X78028585Y-156459523D02*
X78104776Y-156421428D01*
X78104776Y-156421428D02*
X78142871Y-156421428D01*
X78142871Y-156421428D02*
X78219061Y-156459523D01*
X78219061Y-156459523D02*
X78257157Y-156497618D01*
X78257157Y-156497618D02*
X78295252Y-156573809D01*
X78295252Y-156573809D02*
X78295252Y-156726190D01*
X78295252Y-156726190D02*
X78333347Y-156802380D01*
X78333347Y-156802380D02*
X78371442Y-156840475D01*
X78371442Y-156840475D02*
X78447633Y-156878571D01*
X78447633Y-156878571D02*
X78600014Y-156878571D01*
X78600014Y-156878571D02*
X78676204Y-156840475D01*
X78676204Y-156840475D02*
X78714300Y-156802380D01*
X78714300Y-156802380D02*
X78752395Y-156726190D01*
X78752395Y-156726190D02*
X78752395Y-156573809D01*
X78752395Y-156573809D02*
X78714300Y-156497618D01*
X78714300Y-156497618D02*
X78676204Y-156459523D01*
X78676204Y-156459523D02*
X78600014Y-156421428D01*
X78600014Y-156421428D02*
X78447633Y-156421428D01*
X78447633Y-156421428D02*
X78371442Y-156459523D01*
X78371442Y-156459523D02*
X78333347Y-156497618D01*
X78333347Y-156497618D02*
X78295252Y-156573809D01*
X128283332Y-149265104D02*
X128549999Y-149646057D01*
X128740475Y-149265104D02*
X128740475Y-150065104D01*
X128740475Y-150065104D02*
X128435713Y-150065104D01*
X128435713Y-150065104D02*
X128359523Y-150027009D01*
X128359523Y-150027009D02*
X128321428Y-149988914D01*
X128321428Y-149988914D02*
X128283332Y-149912723D01*
X128283332Y-149912723D02*
X128283332Y-149798438D01*
X128283332Y-149798438D02*
X128321428Y-149722247D01*
X128321428Y-149722247D02*
X128359523Y-149684152D01*
X128359523Y-149684152D02*
X128435713Y-149646057D01*
X128435713Y-149646057D02*
X128740475Y-149646057D01*
X127597618Y-150065104D02*
X127749999Y-150065104D01*
X127749999Y-150065104D02*
X127826190Y-150027009D01*
X127826190Y-150027009D02*
X127864285Y-149988914D01*
X127864285Y-149988914D02*
X127940475Y-149874628D01*
X127940475Y-149874628D02*
X127978571Y-149722247D01*
X127978571Y-149722247D02*
X127978571Y-149417485D01*
X127978571Y-149417485D02*
X127940475Y-149341295D01*
X127940475Y-149341295D02*
X127902380Y-149303200D01*
X127902380Y-149303200D02*
X127826190Y-149265104D01*
X127826190Y-149265104D02*
X127673809Y-149265104D01*
X127673809Y-149265104D02*
X127597618Y-149303200D01*
X127597618Y-149303200D02*
X127559523Y-149341295D01*
X127559523Y-149341295D02*
X127521428Y-149417485D01*
X127521428Y-149417485D02*
X127521428Y-149607961D01*
X127521428Y-149607961D02*
X127559523Y-149684152D01*
X127559523Y-149684152D02*
X127597618Y-149722247D01*
X127597618Y-149722247D02*
X127673809Y-149760342D01*
X127673809Y-149760342D02*
X127826190Y-149760342D01*
X127826190Y-149760342D02*
X127902380Y-149722247D01*
X127902380Y-149722247D02*
X127940475Y-149684152D01*
X127940475Y-149684152D02*
X127978571Y-149607961D01*
X117841667Y-137921204D02*
X117803571Y-137959300D01*
X117803571Y-137959300D02*
X117689286Y-137997395D01*
X117689286Y-137997395D02*
X117613095Y-137997395D01*
X117613095Y-137997395D02*
X117498809Y-137959300D01*
X117498809Y-137959300D02*
X117422619Y-137883109D01*
X117422619Y-137883109D02*
X117384524Y-137806919D01*
X117384524Y-137806919D02*
X117346428Y-137654538D01*
X117346428Y-137654538D02*
X117346428Y-137540252D01*
X117346428Y-137540252D02*
X117384524Y-137387871D01*
X117384524Y-137387871D02*
X117422619Y-137311680D01*
X117422619Y-137311680D02*
X117498809Y-137235490D01*
X117498809Y-137235490D02*
X117613095Y-137197395D01*
X117613095Y-137197395D02*
X117689286Y-137197395D01*
X117689286Y-137197395D02*
X117803571Y-137235490D01*
X117803571Y-137235490D02*
X117841667Y-137273585D01*
X118565476Y-137197395D02*
X118184524Y-137197395D01*
X118184524Y-137197395D02*
X118146428Y-137578347D01*
X118146428Y-137578347D02*
X118184524Y-137540252D01*
X118184524Y-137540252D02*
X118260714Y-137502157D01*
X118260714Y-137502157D02*
X118451190Y-137502157D01*
X118451190Y-137502157D02*
X118527381Y-137540252D01*
X118527381Y-137540252D02*
X118565476Y-137578347D01*
X118565476Y-137578347D02*
X118603571Y-137654538D01*
X118603571Y-137654538D02*
X118603571Y-137845014D01*
X118603571Y-137845014D02*
X118565476Y-137921204D01*
X118565476Y-137921204D02*
X118527381Y-137959300D01*
X118527381Y-137959300D02*
X118451190Y-137997395D01*
X118451190Y-137997395D02*
X118260714Y-137997395D01*
X118260714Y-137997395D02*
X118184524Y-137959300D01*
X118184524Y-137959300D02*
X118146428Y-137921204D01*
X145284285Y-145765104D02*
X145550952Y-146146057D01*
X145741428Y-145765104D02*
X145741428Y-146565104D01*
X145741428Y-146565104D02*
X145436666Y-146565104D01*
X145436666Y-146565104D02*
X145360476Y-146527009D01*
X145360476Y-146527009D02*
X145322381Y-146488914D01*
X145322381Y-146488914D02*
X145284285Y-146412723D01*
X145284285Y-146412723D02*
X145284285Y-146298438D01*
X145284285Y-146298438D02*
X145322381Y-146222247D01*
X145322381Y-146222247D02*
X145360476Y-146184152D01*
X145360476Y-146184152D02*
X145436666Y-146146057D01*
X145436666Y-146146057D02*
X145741428Y-146146057D01*
X144979524Y-146488914D02*
X144941428Y-146527009D01*
X144941428Y-146527009D02*
X144865238Y-146565104D01*
X144865238Y-146565104D02*
X144674762Y-146565104D01*
X144674762Y-146565104D02*
X144598571Y-146527009D01*
X144598571Y-146527009D02*
X144560476Y-146488914D01*
X144560476Y-146488914D02*
X144522381Y-146412723D01*
X144522381Y-146412723D02*
X144522381Y-146336533D01*
X144522381Y-146336533D02*
X144560476Y-146222247D01*
X144560476Y-146222247D02*
X145017619Y-145765104D01*
X145017619Y-145765104D02*
X144522381Y-145765104D01*
X143760476Y-145765104D02*
X144217619Y-145765104D01*
X143989047Y-145765104D02*
X143989047Y-146565104D01*
X143989047Y-146565104D02*
X144065238Y-146450819D01*
X144065238Y-146450819D02*
X144141428Y-146374628D01*
X144141428Y-146374628D02*
X144217619Y-146336533D01*
X152504895Y-138118094D02*
X152123942Y-138384761D01*
X152504895Y-138575237D02*
X151704895Y-138575237D01*
X151704895Y-138575237D02*
X151704895Y-138270475D01*
X151704895Y-138270475D02*
X151742990Y-138194285D01*
X151742990Y-138194285D02*
X151781085Y-138156190D01*
X151781085Y-138156190D02*
X151857276Y-138118094D01*
X151857276Y-138118094D02*
X151971561Y-138118094D01*
X151971561Y-138118094D02*
X152047752Y-138156190D01*
X152047752Y-138156190D02*
X152085847Y-138194285D01*
X152085847Y-138194285D02*
X152123942Y-138270475D01*
X152123942Y-138270475D02*
X152123942Y-138575237D01*
X151704895Y-137889523D02*
X151704895Y-137432380D01*
X152504895Y-137660952D02*
X151704895Y-137660952D01*
X152504895Y-136746666D02*
X152504895Y-137203809D01*
X152504895Y-136975237D02*
X151704895Y-136975237D01*
X151704895Y-136975237D02*
X151819180Y-137051428D01*
X151819180Y-137051428D02*
X151895371Y-137127618D01*
X151895371Y-137127618D02*
X151933466Y-137203809D01*
X119941667Y-137933704D02*
X119903571Y-137971800D01*
X119903571Y-137971800D02*
X119789286Y-138009895D01*
X119789286Y-138009895D02*
X119713095Y-138009895D01*
X119713095Y-138009895D02*
X119598809Y-137971800D01*
X119598809Y-137971800D02*
X119522619Y-137895609D01*
X119522619Y-137895609D02*
X119484524Y-137819419D01*
X119484524Y-137819419D02*
X119446428Y-137667038D01*
X119446428Y-137667038D02*
X119446428Y-137552752D01*
X119446428Y-137552752D02*
X119484524Y-137400371D01*
X119484524Y-137400371D02*
X119522619Y-137324180D01*
X119522619Y-137324180D02*
X119598809Y-137247990D01*
X119598809Y-137247990D02*
X119713095Y-137209895D01*
X119713095Y-137209895D02*
X119789286Y-137209895D01*
X119789286Y-137209895D02*
X119903571Y-137247990D01*
X119903571Y-137247990D02*
X119941667Y-137286085D01*
X120627381Y-137209895D02*
X120475000Y-137209895D01*
X120475000Y-137209895D02*
X120398809Y-137247990D01*
X120398809Y-137247990D02*
X120360714Y-137286085D01*
X120360714Y-137286085D02*
X120284524Y-137400371D01*
X120284524Y-137400371D02*
X120246428Y-137552752D01*
X120246428Y-137552752D02*
X120246428Y-137857514D01*
X120246428Y-137857514D02*
X120284524Y-137933704D01*
X120284524Y-137933704D02*
X120322619Y-137971800D01*
X120322619Y-137971800D02*
X120398809Y-138009895D01*
X120398809Y-138009895D02*
X120551190Y-138009895D01*
X120551190Y-138009895D02*
X120627381Y-137971800D01*
X120627381Y-137971800D02*
X120665476Y-137933704D01*
X120665476Y-137933704D02*
X120703571Y-137857514D01*
X120703571Y-137857514D02*
X120703571Y-137667038D01*
X120703571Y-137667038D02*
X120665476Y-137590847D01*
X120665476Y-137590847D02*
X120627381Y-137552752D01*
X120627381Y-137552752D02*
X120551190Y-137514657D01*
X120551190Y-137514657D02*
X120398809Y-137514657D01*
X120398809Y-137514657D02*
X120322619Y-137552752D01*
X120322619Y-137552752D02*
X120284524Y-137590847D01*
X120284524Y-137590847D02*
X120246428Y-137667038D01*
X142582380Y-152724895D02*
X142582380Y-153296323D01*
X142582380Y-153296323D02*
X142544285Y-153410609D01*
X142544285Y-153410609D02*
X142468094Y-153486800D01*
X142468094Y-153486800D02*
X142353809Y-153524895D01*
X142353809Y-153524895D02*
X142277618Y-153524895D01*
X143382380Y-153524895D02*
X142925237Y-153524895D01*
X143153809Y-153524895D02*
X143153809Y-152724895D01*
X143153809Y-152724895D02*
X143077618Y-152839180D01*
X143077618Y-152839180D02*
X143001428Y-152915371D01*
X143001428Y-152915371D02*
X142925237Y-152953466D01*
X143877619Y-152724895D02*
X143953809Y-152724895D01*
X143953809Y-152724895D02*
X144030000Y-152762990D01*
X144030000Y-152762990D02*
X144068095Y-152801085D01*
X144068095Y-152801085D02*
X144106190Y-152877276D01*
X144106190Y-152877276D02*
X144144285Y-153029657D01*
X144144285Y-153029657D02*
X144144285Y-153220133D01*
X144144285Y-153220133D02*
X144106190Y-153372514D01*
X144106190Y-153372514D02*
X144068095Y-153448704D01*
X144068095Y-153448704D02*
X144030000Y-153486800D01*
X144030000Y-153486800D02*
X143953809Y-153524895D01*
X143953809Y-153524895D02*
X143877619Y-153524895D01*
X143877619Y-153524895D02*
X143801428Y-153486800D01*
X143801428Y-153486800D02*
X143763333Y-153448704D01*
X143763333Y-153448704D02*
X143725238Y-153372514D01*
X143725238Y-153372514D02*
X143687142Y-153220133D01*
X143687142Y-153220133D02*
X143687142Y-153029657D01*
X143687142Y-153029657D02*
X143725238Y-152877276D01*
X143725238Y-152877276D02*
X143763333Y-152801085D01*
X143763333Y-152801085D02*
X143801428Y-152762990D01*
X143801428Y-152762990D02*
X143877619Y-152724895D01*
X87773809Y-150691085D02*
X87697619Y-150652990D01*
X87697619Y-150652990D02*
X87621428Y-150576800D01*
X87621428Y-150576800D02*
X87507142Y-150462514D01*
X87507142Y-150462514D02*
X87430952Y-150424419D01*
X87430952Y-150424419D02*
X87354761Y-150424419D01*
X87392857Y-150614895D02*
X87316666Y-150576800D01*
X87316666Y-150576800D02*
X87240476Y-150500609D01*
X87240476Y-150500609D02*
X87202380Y-150348228D01*
X87202380Y-150348228D02*
X87202380Y-150081561D01*
X87202380Y-150081561D02*
X87240476Y-149929180D01*
X87240476Y-149929180D02*
X87316666Y-149852990D01*
X87316666Y-149852990D02*
X87392857Y-149814895D01*
X87392857Y-149814895D02*
X87545238Y-149814895D01*
X87545238Y-149814895D02*
X87621428Y-149852990D01*
X87621428Y-149852990D02*
X87697619Y-149929180D01*
X87697619Y-149929180D02*
X87735714Y-150081561D01*
X87735714Y-150081561D02*
X87735714Y-150348228D01*
X87735714Y-150348228D02*
X87697619Y-150500609D01*
X87697619Y-150500609D02*
X87621428Y-150576800D01*
X87621428Y-150576800D02*
X87545238Y-150614895D01*
X87545238Y-150614895D02*
X87392857Y-150614895D01*
X88421428Y-150081561D02*
X88421428Y-150614895D01*
X88230952Y-149776800D02*
X88040475Y-150348228D01*
X88040475Y-150348228D02*
X88535714Y-150348228D01*
X136542415Y-144772685D02*
X136275748Y-144391732D01*
X136085272Y-144772685D02*
X136085272Y-143972685D01*
X136085272Y-143972685D02*
X136390034Y-143972685D01*
X136390034Y-143972685D02*
X136466224Y-144010780D01*
X136466224Y-144010780D02*
X136504319Y-144048875D01*
X136504319Y-144048875D02*
X136542415Y-144125066D01*
X136542415Y-144125066D02*
X136542415Y-144239351D01*
X136542415Y-144239351D02*
X136504319Y-144315542D01*
X136504319Y-144315542D02*
X136466224Y-144353637D01*
X136466224Y-144353637D02*
X136390034Y-144391732D01*
X136390034Y-144391732D02*
X136085272Y-144391732D01*
X136809081Y-143972685D02*
X137304319Y-143972685D01*
X137304319Y-143972685D02*
X137037653Y-144277447D01*
X137037653Y-144277447D02*
X137151938Y-144277447D01*
X137151938Y-144277447D02*
X137228129Y-144315542D01*
X137228129Y-144315542D02*
X137266224Y-144353637D01*
X137266224Y-144353637D02*
X137304319Y-144429828D01*
X137304319Y-144429828D02*
X137304319Y-144620304D01*
X137304319Y-144620304D02*
X137266224Y-144696494D01*
X137266224Y-144696494D02*
X137228129Y-144734590D01*
X137228129Y-144734590D02*
X137151938Y-144772685D01*
X137151938Y-144772685D02*
X136923367Y-144772685D01*
X136923367Y-144772685D02*
X136847176Y-144734590D01*
X136847176Y-144734590D02*
X136809081Y-144696494D01*
X137799558Y-143972685D02*
X137875748Y-143972685D01*
X137875748Y-143972685D02*
X137951939Y-144010780D01*
X137951939Y-144010780D02*
X137990034Y-144048875D01*
X137990034Y-144048875D02*
X138028129Y-144125066D01*
X138028129Y-144125066D02*
X138066224Y-144277447D01*
X138066224Y-144277447D02*
X138066224Y-144467923D01*
X138066224Y-144467923D02*
X138028129Y-144620304D01*
X138028129Y-144620304D02*
X137990034Y-144696494D01*
X137990034Y-144696494D02*
X137951939Y-144734590D01*
X137951939Y-144734590D02*
X137875748Y-144772685D01*
X137875748Y-144772685D02*
X137799558Y-144772685D01*
X137799558Y-144772685D02*
X137723367Y-144734590D01*
X137723367Y-144734590D02*
X137685272Y-144696494D01*
X137685272Y-144696494D02*
X137647177Y-144620304D01*
X137647177Y-144620304D02*
X137609081Y-144467923D01*
X137609081Y-144467923D02*
X137609081Y-144277447D01*
X137609081Y-144277447D02*
X137647177Y-144125066D01*
X137647177Y-144125066D02*
X137685272Y-144048875D01*
X137685272Y-144048875D02*
X137723367Y-144010780D01*
X137723367Y-144010780D02*
X137799558Y-143972685D01*
X88814895Y-147034285D02*
X88433942Y-147300952D01*
X88814895Y-147491428D02*
X88014895Y-147491428D01*
X88014895Y-147491428D02*
X88014895Y-147186666D01*
X88014895Y-147186666D02*
X88052990Y-147110476D01*
X88052990Y-147110476D02*
X88091085Y-147072381D01*
X88091085Y-147072381D02*
X88167276Y-147034285D01*
X88167276Y-147034285D02*
X88281561Y-147034285D01*
X88281561Y-147034285D02*
X88357752Y-147072381D01*
X88357752Y-147072381D02*
X88395847Y-147110476D01*
X88395847Y-147110476D02*
X88433942Y-147186666D01*
X88433942Y-147186666D02*
X88433942Y-147491428D01*
X88814895Y-146272381D02*
X88814895Y-146729524D01*
X88814895Y-146500952D02*
X88014895Y-146500952D01*
X88014895Y-146500952D02*
X88129180Y-146577143D01*
X88129180Y-146577143D02*
X88205371Y-146653333D01*
X88205371Y-146653333D02*
X88243466Y-146729524D01*
X88014895Y-146005714D02*
X88014895Y-145510476D01*
X88014895Y-145510476D02*
X88319657Y-145777142D01*
X88319657Y-145777142D02*
X88319657Y-145662857D01*
X88319657Y-145662857D02*
X88357752Y-145586666D01*
X88357752Y-145586666D02*
X88395847Y-145548571D01*
X88395847Y-145548571D02*
X88472038Y-145510476D01*
X88472038Y-145510476D02*
X88662514Y-145510476D01*
X88662514Y-145510476D02*
X88738704Y-145548571D01*
X88738704Y-145548571D02*
X88776800Y-145586666D01*
X88776800Y-145586666D02*
X88814895Y-145662857D01*
X88814895Y-145662857D02*
X88814895Y-145891428D01*
X88814895Y-145891428D02*
X88776800Y-145967619D01*
X88776800Y-145967619D02*
X88738704Y-146005714D01*
X112601204Y-137878332D02*
X112639300Y-137916428D01*
X112639300Y-137916428D02*
X112677395Y-138030713D01*
X112677395Y-138030713D02*
X112677395Y-138106904D01*
X112677395Y-138106904D02*
X112639300Y-138221190D01*
X112639300Y-138221190D02*
X112563109Y-138297380D01*
X112563109Y-138297380D02*
X112486919Y-138335475D01*
X112486919Y-138335475D02*
X112334538Y-138373571D01*
X112334538Y-138373571D02*
X112220252Y-138373571D01*
X112220252Y-138373571D02*
X112067871Y-138335475D01*
X112067871Y-138335475D02*
X111991680Y-138297380D01*
X111991680Y-138297380D02*
X111915490Y-138221190D01*
X111915490Y-138221190D02*
X111877395Y-138106904D01*
X111877395Y-138106904D02*
X111877395Y-138030713D01*
X111877395Y-138030713D02*
X111915490Y-137916428D01*
X111915490Y-137916428D02*
X111953585Y-137878332D01*
X112144061Y-137192618D02*
X112677395Y-137192618D01*
X111839300Y-137383094D02*
X112410728Y-137573571D01*
X112410728Y-137573571D02*
X112410728Y-137078332D01*
X152655714Y-142244895D02*
X152389047Y-141863942D01*
X152198571Y-142244895D02*
X152198571Y-141444895D01*
X152198571Y-141444895D02*
X152503333Y-141444895D01*
X152503333Y-141444895D02*
X152579523Y-141482990D01*
X152579523Y-141482990D02*
X152617618Y-141521085D01*
X152617618Y-141521085D02*
X152655714Y-141597276D01*
X152655714Y-141597276D02*
X152655714Y-141711561D01*
X152655714Y-141711561D02*
X152617618Y-141787752D01*
X152617618Y-141787752D02*
X152579523Y-141825847D01*
X152579523Y-141825847D02*
X152503333Y-141863942D01*
X152503333Y-141863942D02*
X152198571Y-141863942D01*
X153341428Y-141711561D02*
X153341428Y-142244895D01*
X153150952Y-141406800D02*
X152960475Y-141978228D01*
X152960475Y-141978228D02*
X153455714Y-141978228D01*
X154179523Y-142244895D02*
X153722380Y-142244895D01*
X153950952Y-142244895D02*
X153950952Y-141444895D01*
X153950952Y-141444895D02*
X153874761Y-141559180D01*
X153874761Y-141559180D02*
X153798571Y-141635371D01*
X153798571Y-141635371D02*
X153722380Y-141673466D01*
X112338704Y-139678332D02*
X112376800Y-139716428D01*
X112376800Y-139716428D02*
X112414895Y-139830713D01*
X112414895Y-139830713D02*
X112414895Y-139906904D01*
X112414895Y-139906904D02*
X112376800Y-140021190D01*
X112376800Y-140021190D02*
X112300609Y-140097380D01*
X112300609Y-140097380D02*
X112224419Y-140135475D01*
X112224419Y-140135475D02*
X112072038Y-140173571D01*
X112072038Y-140173571D02*
X111957752Y-140173571D01*
X111957752Y-140173571D02*
X111805371Y-140135475D01*
X111805371Y-140135475D02*
X111729180Y-140097380D01*
X111729180Y-140097380D02*
X111652990Y-140021190D01*
X111652990Y-140021190D02*
X111614895Y-139906904D01*
X111614895Y-139906904D02*
X111614895Y-139830713D01*
X111614895Y-139830713D02*
X111652990Y-139716428D01*
X111652990Y-139716428D02*
X111691085Y-139678332D01*
X111614895Y-139411666D02*
X111614895Y-138916428D01*
X111614895Y-138916428D02*
X111919657Y-139183094D01*
X111919657Y-139183094D02*
X111919657Y-139068809D01*
X111919657Y-139068809D02*
X111957752Y-138992618D01*
X111957752Y-138992618D02*
X111995847Y-138954523D01*
X111995847Y-138954523D02*
X112072038Y-138916428D01*
X112072038Y-138916428D02*
X112262514Y-138916428D01*
X112262514Y-138916428D02*
X112338704Y-138954523D01*
X112338704Y-138954523D02*
X112376800Y-138992618D01*
X112376800Y-138992618D02*
X112414895Y-139068809D01*
X112414895Y-139068809D02*
X112414895Y-139297380D01*
X112414895Y-139297380D02*
X112376800Y-139373571D01*
X112376800Y-139373571D02*
X112338704Y-139411666D01*
X76916667Y-150088704D02*
X76878571Y-150126800D01*
X76878571Y-150126800D02*
X76764286Y-150164895D01*
X76764286Y-150164895D02*
X76688095Y-150164895D01*
X76688095Y-150164895D02*
X76573809Y-150126800D01*
X76573809Y-150126800D02*
X76497619Y-150050609D01*
X76497619Y-150050609D02*
X76459524Y-149974419D01*
X76459524Y-149974419D02*
X76421428Y-149822038D01*
X76421428Y-149822038D02*
X76421428Y-149707752D01*
X76421428Y-149707752D02*
X76459524Y-149555371D01*
X76459524Y-149555371D02*
X76497619Y-149479180D01*
X76497619Y-149479180D02*
X76573809Y-149402990D01*
X76573809Y-149402990D02*
X76688095Y-149364895D01*
X76688095Y-149364895D02*
X76764286Y-149364895D01*
X76764286Y-149364895D02*
X76878571Y-149402990D01*
X76878571Y-149402990D02*
X76916667Y-149441085D01*
X77183333Y-149364895D02*
X77716667Y-149364895D01*
X77716667Y-149364895D02*
X77373809Y-150164895D01*
X80188704Y-163113332D02*
X80226800Y-163151428D01*
X80226800Y-163151428D02*
X80264895Y-163265713D01*
X80264895Y-163265713D02*
X80264895Y-163341904D01*
X80264895Y-163341904D02*
X80226800Y-163456190D01*
X80226800Y-163456190D02*
X80150609Y-163532380D01*
X80150609Y-163532380D02*
X80074419Y-163570475D01*
X80074419Y-163570475D02*
X79922038Y-163608571D01*
X79922038Y-163608571D02*
X79807752Y-163608571D01*
X79807752Y-163608571D02*
X79655371Y-163570475D01*
X79655371Y-163570475D02*
X79579180Y-163532380D01*
X79579180Y-163532380D02*
X79502990Y-163456190D01*
X79502990Y-163456190D02*
X79464895Y-163341904D01*
X79464895Y-163341904D02*
X79464895Y-163265713D01*
X79464895Y-163265713D02*
X79502990Y-163151428D01*
X79502990Y-163151428D02*
X79541085Y-163113332D01*
X80264895Y-162732380D02*
X80264895Y-162579999D01*
X80264895Y-162579999D02*
X80226800Y-162503809D01*
X80226800Y-162503809D02*
X80188704Y-162465713D01*
X80188704Y-162465713D02*
X80074419Y-162389523D01*
X80074419Y-162389523D02*
X79922038Y-162351428D01*
X79922038Y-162351428D02*
X79617276Y-162351428D01*
X79617276Y-162351428D02*
X79541085Y-162389523D01*
X79541085Y-162389523D02*
X79502990Y-162427618D01*
X79502990Y-162427618D02*
X79464895Y-162503809D01*
X79464895Y-162503809D02*
X79464895Y-162656190D01*
X79464895Y-162656190D02*
X79502990Y-162732380D01*
X79502990Y-162732380D02*
X79541085Y-162770475D01*
X79541085Y-162770475D02*
X79617276Y-162808571D01*
X79617276Y-162808571D02*
X79807752Y-162808571D01*
X79807752Y-162808571D02*
X79883942Y-162770475D01*
X79883942Y-162770475D02*
X79922038Y-162732380D01*
X79922038Y-162732380D02*
X79960133Y-162656190D01*
X79960133Y-162656190D02*
X79960133Y-162503809D01*
X79960133Y-162503809D02*
X79922038Y-162427618D01*
X79922038Y-162427618D02*
X79883942Y-162389523D01*
X79883942Y-162389523D02*
X79807752Y-162351428D01*
X130501295Y-139485714D02*
X130463200Y-139447618D01*
X130463200Y-139447618D02*
X130425104Y-139333333D01*
X130425104Y-139333333D02*
X130425104Y-139257142D01*
X130425104Y-139257142D02*
X130463200Y-139142856D01*
X130463200Y-139142856D02*
X130539390Y-139066666D01*
X130539390Y-139066666D02*
X130615580Y-139028571D01*
X130615580Y-139028571D02*
X130767961Y-138990475D01*
X130767961Y-138990475D02*
X130882247Y-138990475D01*
X130882247Y-138990475D02*
X131034628Y-139028571D01*
X131034628Y-139028571D02*
X131110819Y-139066666D01*
X131110819Y-139066666D02*
X131187009Y-139142856D01*
X131187009Y-139142856D02*
X131225104Y-139257142D01*
X131225104Y-139257142D02*
X131225104Y-139333333D01*
X131225104Y-139333333D02*
X131187009Y-139447618D01*
X131187009Y-139447618D02*
X131148914Y-139485714D01*
X131225104Y-139752380D02*
X131225104Y-140247618D01*
X131225104Y-140247618D02*
X130920342Y-139980952D01*
X130920342Y-139980952D02*
X130920342Y-140095237D01*
X130920342Y-140095237D02*
X130882247Y-140171428D01*
X130882247Y-140171428D02*
X130844152Y-140209523D01*
X130844152Y-140209523D02*
X130767961Y-140247618D01*
X130767961Y-140247618D02*
X130577485Y-140247618D01*
X130577485Y-140247618D02*
X130501295Y-140209523D01*
X130501295Y-140209523D02*
X130463200Y-140171428D01*
X130463200Y-140171428D02*
X130425104Y-140095237D01*
X130425104Y-140095237D02*
X130425104Y-139866666D01*
X130425104Y-139866666D02*
X130463200Y-139790475D01*
X130463200Y-139790475D02*
X130501295Y-139752380D01*
X131225104Y-140514285D02*
X131225104Y-141009523D01*
X131225104Y-141009523D02*
X130920342Y-140742857D01*
X130920342Y-140742857D02*
X130920342Y-140857142D01*
X130920342Y-140857142D02*
X130882247Y-140933333D01*
X130882247Y-140933333D02*
X130844152Y-140971428D01*
X130844152Y-140971428D02*
X130767961Y-141009523D01*
X130767961Y-141009523D02*
X130577485Y-141009523D01*
X130577485Y-141009523D02*
X130501295Y-140971428D01*
X130501295Y-140971428D02*
X130463200Y-140933333D01*
X130463200Y-140933333D02*
X130425104Y-140857142D01*
X130425104Y-140857142D02*
X130425104Y-140628571D01*
X130425104Y-140628571D02*
X130463200Y-140552380D01*
X130463200Y-140552380D02*
X130501295Y-140514285D01*
X143361295Y-149125714D02*
X143323200Y-149087618D01*
X143323200Y-149087618D02*
X143285104Y-148973333D01*
X143285104Y-148973333D02*
X143285104Y-148897142D01*
X143285104Y-148897142D02*
X143323200Y-148782856D01*
X143323200Y-148782856D02*
X143399390Y-148706666D01*
X143399390Y-148706666D02*
X143475580Y-148668571D01*
X143475580Y-148668571D02*
X143627961Y-148630475D01*
X143627961Y-148630475D02*
X143742247Y-148630475D01*
X143742247Y-148630475D02*
X143894628Y-148668571D01*
X143894628Y-148668571D02*
X143970819Y-148706666D01*
X143970819Y-148706666D02*
X144047009Y-148782856D01*
X144047009Y-148782856D02*
X144085104Y-148897142D01*
X144085104Y-148897142D02*
X144085104Y-148973333D01*
X144085104Y-148973333D02*
X144047009Y-149087618D01*
X144047009Y-149087618D02*
X144008914Y-149125714D01*
X143285104Y-149887618D02*
X143285104Y-149430475D01*
X143285104Y-149659047D02*
X144085104Y-149659047D01*
X144085104Y-149659047D02*
X143970819Y-149582856D01*
X143970819Y-149582856D02*
X143894628Y-149506666D01*
X143894628Y-149506666D02*
X143856533Y-149430475D01*
X144085104Y-150154285D02*
X144085104Y-150649523D01*
X144085104Y-150649523D02*
X143780342Y-150382857D01*
X143780342Y-150382857D02*
X143780342Y-150497142D01*
X143780342Y-150497142D02*
X143742247Y-150573333D01*
X143742247Y-150573333D02*
X143704152Y-150611428D01*
X143704152Y-150611428D02*
X143627961Y-150649523D01*
X143627961Y-150649523D02*
X143437485Y-150649523D01*
X143437485Y-150649523D02*
X143361295Y-150611428D01*
X143361295Y-150611428D02*
X143323200Y-150573333D01*
X143323200Y-150573333D02*
X143285104Y-150497142D01*
X143285104Y-150497142D02*
X143285104Y-150268571D01*
X143285104Y-150268571D02*
X143323200Y-150192380D01*
X143323200Y-150192380D02*
X143361295Y-150154285D01*
%TO.C,C1*%
X119565000Y-149090000D02*
X120815000Y-149090000D01*
X120815000Y-151090000D01*
X119565000Y-151090000D01*
X119565000Y-149090000D01*
%TO.C,R11*%
X114865000Y-144740000D02*
X116115000Y-144740000D01*
X116115000Y-146740000D01*
X114865000Y-146740000D01*
X114865000Y-144740000D01*
%TO.C,R40*%
X153150000Y-142937500D02*
X154750000Y-142937500D01*
X154750000Y-143762500D01*
X153150000Y-143762500D01*
X153150000Y-142937500D01*
%TO.C,Q3*%
X83190000Y-143950000D02*
X83190000Y-146400000D01*
X83190000Y-143950000D02*
X83740000Y-143380000D01*
X83190000Y-146420000D02*
X84590000Y-146420000D01*
X83740000Y-143380000D02*
X84590000Y-143380000D01*
X84590000Y-143380000D02*
X84590000Y-146420000D01*
%TO.C,C21*%
X153000000Y-133090000D02*
X154600000Y-133090000D01*
X154600000Y-133890000D01*
X153000000Y-133890000D01*
X153000000Y-133090000D01*
%TO.C,R7*%
X89125000Y-140300000D02*
X90375000Y-140300000D01*
X90375000Y-142300000D01*
X89125000Y-142300000D01*
X89125000Y-140300000D01*
%TO.C,L1*%
X114025000Y-132595000D02*
X117025000Y-132595000D01*
X117025000Y-135595000D01*
X114025000Y-135595000D01*
X114025000Y-132595000D01*
%TO.C,SW2*%
X146100000Y-144125000D02*
X148850000Y-144125000D01*
X148850000Y-147125000D01*
X146100000Y-147125000D01*
X146100000Y-144125000D01*
X148125000Y-145625000D02*
G75*
G02*
X146825000Y-145625000I-650000J0D01*
G01*
X146825000Y-145625000D02*
G75*
G02*
X148125000Y-145625000I650000J0D01*
G01*
%TO.C,H3*%
X83150000Y-136900000D02*
G75*
G02*
X81150000Y-136900000I-1000000J0D01*
G01*
X81150000Y-136900000D02*
G75*
G02*
X83150000Y-136900000I1000000J0D01*
G01*
%TO.C,U2*%
X116725000Y-137107500D02*
X116725000Y-138982500D01*
X114225000Y-138982500D01*
X114225000Y-136482500D01*
X116100000Y-136482500D01*
X116725000Y-137107500D01*
%TO.C,Q2*%
X86700000Y-142350000D02*
X86700000Y-139900000D01*
X86700000Y-142350000D02*
X86150000Y-142920000D01*
X86700000Y-139880000D02*
X85300000Y-139880000D01*
X86150000Y-142920000D02*
X85300000Y-142920000D01*
X85300000Y-142920000D02*
X85300000Y-139880000D01*
%TO.C,R22*%
X139352500Y-147415000D02*
X140602500Y-147415000D01*
X140602500Y-149415000D01*
X139352500Y-149415000D01*
X139352500Y-147415000D01*
%TO.C,J6*%
X156090000Y-144220000D02*
X154840000Y-144220000D01*
X156090000Y-145470000D02*
X156090000Y-144220000D01*
X151180000Y-144630000D02*
X155680000Y-144630000D01*
X155680000Y-156530000D01*
X151180000Y-156530000D01*
X151180000Y-144630000D01*
%TO.C,C12*%
X137880000Y-148880000D02*
X138680000Y-148880000D01*
X138680000Y-150480000D01*
X137880000Y-150480000D01*
X137880000Y-148880000D01*
%TO.C,R23*%
X141327500Y-147415000D02*
X142577500Y-147415000D01*
X142577500Y-149415000D01*
X141327500Y-149415000D01*
X141327500Y-147415000D01*
%TO.C,R34*%
X150970000Y-131165000D02*
X152970000Y-131165000D01*
X152970000Y-132415000D01*
X150970000Y-132415000D01*
X150970000Y-131165000D01*
%TO.C,J4*%
X73990000Y-165620000D02*
X73990000Y-173220000D01*
X73990000Y-165620000D02*
X74790000Y-165620000D01*
X73990000Y-173220000D02*
X83890000Y-173220000D01*
X74790000Y-165620000D02*
X74790000Y-167220000D01*
X74790000Y-167220000D02*
X83090000Y-167220000D01*
X76440000Y-167220000D02*
X76940000Y-167927107D01*
X76940000Y-167927107D02*
X77440000Y-167220000D01*
X83090000Y-165620000D02*
X83890000Y-165620000D01*
X83090000Y-167220000D02*
X83090000Y-165620000D01*
X83890000Y-165620000D02*
X83890000Y-173220000D01*
%TO.C,U10*%
X135981098Y-125325000D02*
X149181098Y-125325000D01*
X135981098Y-130725000D02*
X149181098Y-130725000D01*
X135981098Y-140925000D02*
X135981098Y-125325000D01*
X136981098Y-141925000D02*
X135981098Y-140925000D01*
X149181098Y-125325000D02*
X149181098Y-141925000D01*
X149181098Y-141925000D02*
X136981098Y-141925000D01*
%TO.C,U3*%
X79000000Y-155150000D02*
X79000000Y-152700000D01*
X79000000Y-155150000D02*
X78450000Y-155720000D01*
X79000000Y-152680000D02*
X77600000Y-152680000D01*
X78450000Y-155720000D02*
X77600000Y-155720000D01*
X77600000Y-155720000D02*
X77600000Y-152680000D01*
%TO.C,J5*%
X123258238Y-137530000D02*
X124508238Y-137530000D01*
X123258238Y-136280000D02*
X123258238Y-137530000D01*
X123668238Y-131220000D02*
X128168238Y-131220000D01*
X128168238Y-137120000D01*
X123668238Y-137120000D01*
X123668238Y-131220000D01*
%TO.C,H2*%
X90650000Y-136200000D02*
G75*
G02*
X89650000Y-136200000I-500000J0D01*
G01*
X89650000Y-136200000D02*
G75*
G02*
X90650000Y-136200000I500000J0D01*
G01*
%TO.C,R32*%
X134485000Y-143410000D02*
X135735000Y-143410000D01*
X135735000Y-145410000D01*
X134485000Y-145410000D01*
X134485000Y-143410000D01*
%TO.C,D3*%
X84600000Y-164800000D02*
X84600000Y-161800000D01*
X86250560Y-162500920D02*
X86250560Y-164101120D01*
X86250560Y-163301020D02*
X85348860Y-163301020D01*
X86250560Y-163301020D02*
X87401180Y-162500920D01*
X86250560Y-163301020D02*
X87401180Y-164050320D01*
X87401180Y-163301020D02*
X88399400Y-163301020D01*
X87401180Y-164050320D02*
X87401180Y-162500920D01*
X89200000Y-161800000D02*
X84600000Y-161800000D01*
X89200000Y-161800000D02*
X89200000Y-164800000D01*
X89200000Y-164800000D02*
X84600000Y-164800000D01*
%TO.C,R9*%
X82500000Y-147075000D02*
X84500000Y-147075000D01*
X84500000Y-148325000D01*
X82500000Y-148325000D01*
X82500000Y-147075000D01*
%TO.C,D1*%
X121510000Y-147420000D02*
X124510000Y-147420000D01*
X123809080Y-149070560D02*
X122208880Y-149070560D01*
X123008980Y-149070560D02*
X123008980Y-148168860D01*
X123008980Y-149070560D02*
X123809080Y-150221180D01*
X123008980Y-149070560D02*
X122259680Y-150221180D01*
X123008980Y-150221180D02*
X123008980Y-151219400D01*
X122259680Y-150221180D02*
X123809080Y-150221180D01*
X124510000Y-152020000D02*
X124510000Y-147420000D01*
X124510000Y-152020000D02*
X121510000Y-152020000D01*
X121510000Y-152020000D02*
X121510000Y-147420000D01*
%TO.C,J2*%
X110100000Y-151880000D02*
X110100000Y-153130000D01*
X111350000Y-151880000D02*
X110100000Y-151880000D01*
X110510000Y-152290000D02*
X116410000Y-152290000D01*
X116410000Y-156790000D01*
X110510000Y-156790000D01*
X110510000Y-152290000D01*
%TO.C,R20*%
X129520000Y-132705000D02*
X131520000Y-132705000D01*
X131520000Y-133955000D01*
X129520000Y-133955000D01*
X129520000Y-132705000D01*
%TO.C,C11*%
X132700000Y-131720000D02*
X133500000Y-131720000D01*
X133500000Y-133320000D01*
X132700000Y-133320000D01*
X132700000Y-131720000D01*
%TO.C,C20*%
X133280000Y-139130000D02*
X134880000Y-139130000D01*
X134880000Y-139930000D01*
X133280000Y-139930000D01*
X133280000Y-139130000D01*
%TO.C,L2*%
X78600000Y-148300000D02*
X81100000Y-148300000D01*
X81100000Y-151500000D01*
X78600000Y-151500000D01*
X78600000Y-148300000D01*
%TO.C,C32*%
X123867500Y-138010000D02*
X125467500Y-138010000D01*
X125467500Y-138810000D01*
X123867500Y-138810000D01*
X123867500Y-138010000D01*
%TO.C,R12*%
X117340000Y-144215000D02*
X119340000Y-144215000D01*
X119340000Y-145465000D01*
X117340000Y-145465000D01*
X117340000Y-144215000D01*
%TO.C,Q1*%
X127460000Y-153250000D02*
X125010000Y-153250000D01*
X127460000Y-153250000D02*
X128030000Y-153800000D01*
X124990000Y-153250000D02*
X124990000Y-154650000D01*
X128030000Y-153800000D02*
X128030000Y-154650000D01*
X128030000Y-154650000D02*
X124990000Y-154650000D01*
%TO.C,Q10*%
X125600000Y-145710000D02*
X128050000Y-145710000D01*
X125600000Y-145710000D02*
X125030000Y-145160000D01*
X128070000Y-145710000D02*
X128070000Y-144310000D01*
X125030000Y-145160000D02*
X125030000Y-144310000D01*
X125030000Y-144310000D02*
X128070000Y-144310000D01*
%TO.C,C22*%
X133020000Y-145090000D02*
X133820000Y-145090000D01*
X133820000Y-146690000D01*
X133020000Y-146690000D01*
X133020000Y-145090000D01*
%TO.C,R51*%
X127200000Y-139855000D02*
X129200000Y-139855000D01*
X129200000Y-141105000D01*
X127200000Y-141105000D01*
X127200000Y-139855000D01*
%TO.C,R52*%
X130770000Y-142655000D02*
X132770000Y-142655000D01*
X132770000Y-143905000D01*
X130770000Y-143905000D01*
X130770000Y-142655000D01*
%TO.C,R5*%
X128585000Y-151530000D02*
X129835000Y-151530000D01*
X129835000Y-153530000D01*
X128585000Y-153530000D01*
X128585000Y-151530000D01*
%TO.C,SW1*%
X131100000Y-135055000D02*
X134100000Y-135055000D01*
X134100000Y-137805000D01*
X131100000Y-137805000D01*
X131100000Y-135055000D01*
X133250000Y-136430000D02*
G75*
G02*
X131950000Y-136430000I-650000J0D01*
G01*
X131950000Y-136430000D02*
G75*
G02*
X133250000Y-136430000I650000J0D01*
G01*
%TO.C,J3*%
X89520000Y-188050000D02*
X89520000Y-186800000D01*
X88270000Y-188050000D02*
X89520000Y-188050000D01*
X75210000Y-183140000D02*
X89110000Y-183140000D01*
X89110000Y-187640000D01*
X75210000Y-187640000D01*
X75210000Y-183140000D01*
%TO.C,U1*%
X115902500Y-148740000D02*
X115902500Y-151190000D01*
X115902500Y-148740000D02*
X116552500Y-148090000D01*
X117702500Y-148090000D02*
X116552500Y-148090000D01*
X117702500Y-148090000D02*
X117702500Y-151190000D01*
X117702500Y-151190000D02*
X115902500Y-151190000D01*
%TO.C,C10*%
X134180000Y-131720000D02*
X134980000Y-131720000D01*
X134980000Y-133320000D01*
X134180000Y-133320000D01*
X134180000Y-131720000D01*
%TO.C,R3*%
X117390000Y-146165000D02*
X119390000Y-146165000D01*
X119390000Y-147415000D01*
X117390000Y-147415000D01*
X117390000Y-146165000D01*
%TO.C,R33*%
X138331701Y-143407790D02*
X139581701Y-143407790D01*
X139581701Y-145407790D01*
X138331701Y-145407790D01*
X138331701Y-143407790D01*
%TO.C,D4*%
X85250000Y-159250000D02*
X82250000Y-159250000D01*
X82950920Y-157599440D02*
X84551120Y-157599440D01*
X83751020Y-157599440D02*
X83751020Y-158501140D01*
X83751020Y-157599440D02*
X82950920Y-156448820D01*
X83751020Y-157599440D02*
X84500320Y-156448820D01*
X83751020Y-156448820D02*
X83751020Y-155450600D01*
X84500320Y-156448820D02*
X82950920Y-156448820D01*
X82250000Y-154650000D02*
X82250000Y-159250000D01*
X82250000Y-154650000D02*
X85250000Y-154650000D01*
X85250000Y-154650000D02*
X85250000Y-159250000D01*
%TO.C,R42*%
X148180000Y-149847500D02*
X149780000Y-149847500D01*
X149780000Y-150672500D01*
X148180000Y-150672500D01*
X148180000Y-149847500D01*
%TO.C,R8*%
X82500000Y-149025000D02*
X84500000Y-149025000D01*
X84500000Y-150275000D01*
X82500000Y-150275000D01*
X82500000Y-149025000D01*
%TO.C,C2*%
X112815000Y-148827500D02*
X114065000Y-148827500D01*
X114065000Y-150827500D01*
X112815000Y-150827500D01*
X112815000Y-148827500D01*
%TO.C,R31*%
X132860000Y-140715000D02*
X134860000Y-140715000D01*
X134860000Y-141965000D01*
X132860000Y-141965000D01*
X132860000Y-140715000D01*
%TO.C,R43*%
X148190000Y-148387500D02*
X149790000Y-148387500D01*
X149790000Y-149212500D01*
X148190000Y-149212500D01*
X148190000Y-148387500D01*
%TO.C,R50*%
X127170000Y-137955000D02*
X129170000Y-137955000D01*
X129170000Y-139205000D01*
X127170000Y-139205000D01*
X127170000Y-137955000D01*
%TO.C,C8*%
X77387500Y-156425000D02*
X79387500Y-156425000D01*
X79387500Y-157675000D01*
X77387500Y-157675000D01*
X77387500Y-156425000D01*
%TO.C,R6*%
X127150000Y-149005000D02*
X129150000Y-149005000D01*
X129150000Y-150255000D01*
X127150000Y-150255000D01*
X127150000Y-149005000D01*
%TO.C,H1*%
X90650000Y-132200000D02*
G75*
G02*
X88650000Y-132200000I-1000000J0D01*
G01*
X88650000Y-132200000D02*
G75*
G02*
X90650000Y-132200000I1000000J0D01*
G01*
%TO.C,C5*%
X117350000Y-136632500D02*
X118600000Y-136632500D01*
X118600000Y-138632500D01*
X117350000Y-138632500D01*
X117350000Y-136632500D01*
%TO.C,R21*%
X144145000Y-145130000D02*
X145395000Y-145130000D01*
X145395000Y-147130000D01*
X144145000Y-147130000D01*
X144145000Y-145130000D01*
%TO.C,RT1*%
X155750000Y-134320000D02*
X154500000Y-134320000D01*
X155750000Y-135570000D02*
X155750000Y-134320000D01*
X150840000Y-134730000D02*
X155340000Y-134730000D01*
X155340000Y-140630000D01*
X150840000Y-140630000D01*
X150840000Y-134730000D01*
%TO.C,C6*%
X119450000Y-136645000D02*
X120700000Y-136645000D01*
X120700000Y-138645000D01*
X119450000Y-138645000D01*
X119450000Y-136645000D01*
%TO.C,J10*%
X150590000Y-156770000D02*
X150590000Y-155520000D01*
X149340000Y-156770000D02*
X150590000Y-156770000D01*
X136280000Y-151860000D02*
X150180000Y-151860000D01*
X150180000Y-156360000D01*
X136280000Y-156360000D01*
X136280000Y-151860000D01*
%TO.C,Q4*%
X88800000Y-149550000D02*
X86350000Y-149550000D01*
X88800000Y-149550000D02*
X89370000Y-150100000D01*
X86330000Y-149550000D02*
X86330000Y-150950000D01*
X89370000Y-150100000D02*
X89370000Y-150950000D01*
X89370000Y-150950000D02*
X86330000Y-150950000D01*
%TO.C,R30*%
X136431701Y-143407790D02*
X137681701Y-143407790D01*
X137681701Y-145407790D01*
X136431701Y-145407790D01*
X136431701Y-143407790D01*
%TO.C,R13*%
X87450000Y-145895000D02*
X89450000Y-145895000D01*
X89450000Y-147145000D01*
X87450000Y-147145000D01*
X87450000Y-145895000D01*
%TO.C,H4*%
X75900000Y-136700000D02*
G75*
G02*
X74400000Y-136700000I-750000J0D01*
G01*
X74400000Y-136700000D02*
G75*
G02*
X75900000Y-136700000I750000J0D01*
G01*
%TO.C,C4*%
X111512500Y-137345000D02*
X113112500Y-137345000D01*
X113112500Y-138145000D01*
X111512500Y-138145000D01*
X111512500Y-137345000D01*
%TO.C,R41*%
X152370000Y-141467500D02*
X153970000Y-141467500D01*
X153970000Y-142292500D01*
X152370000Y-142292500D01*
X152370000Y-141467500D01*
%TO.C,C3*%
X111050000Y-138920000D02*
X113050000Y-138920000D01*
X113050000Y-140170000D01*
X111050000Y-140170000D01*
X111050000Y-138920000D01*
%TO.C,C7*%
X76425000Y-148800000D02*
X77675000Y-148800000D01*
X77675000Y-150800000D01*
X76425000Y-150800000D01*
X76425000Y-148800000D01*
%TO.C,C9*%
X79100000Y-162580000D02*
X80700000Y-162580000D01*
X80700000Y-163380000D01*
X79100000Y-163380000D01*
X79100000Y-162580000D01*
%TO.C,C33*%
X130390000Y-139200000D02*
X131190000Y-139200000D01*
X131190000Y-140800000D01*
X130390000Y-140800000D01*
X130390000Y-139200000D01*
%TO.C,C13*%
X143250000Y-148840000D02*
X144050000Y-148840000D01*
X144050000Y-150440000D01*
X143250000Y-150440000D01*
X143250000Y-148840000D01*
%TD*%
M02*
