%TF.GenerationSoftware,KiCad,Pcbnew,10.0.6-rc2*%
%TF.CreationDate,2026-08-24T12:59:56+02:00*%
%TF.ProjectId,unni-smartification-c6,756e6e69-2d73-46d6-9172-746966696361,rev?*%
%TF.SameCoordinates,Original*%
%TF.FileFunction,OtherDrawing,Comment*%
%FSLAX46Y46*%
G04 Gerber Fmt 4.6, Leading zero omitted, Abs format (unit mm)*
G04 Created by KiCad (PCBNEW 10.0.6-rc2) date 2026-08-24 12:59:56*
%MOMM*%
%LPD*%
G01*
G04 APERTURE LIST*
%ADD10C,0.300000*%
%ADD11C,0.200000*%
G04 APERTURE END LIST*
D10*
X86328328Y-122271427D02*
X86328328Y-123128570D01*
X86328328Y-122699999D02*
X84828328Y-122699999D01*
X84828328Y-122699999D02*
X85042614Y-122842856D01*
X85042614Y-122842856D02*
X85185471Y-122985713D01*
X85185471Y-122985713D02*
X85256900Y-123128570D01*
D11*
X86700000Y-123200000D02*
X88036420Y-123200000D01*
X88036420Y-122200000D02*
X86700000Y-122200000D01*
X87450000Y-123200000D02*
X87450000Y-122200000D01*
X87450000Y-123200000D02*
X86863579Y-122073496D01*
X87450000Y-123200000D02*
X88036421Y-122073496D01*
X87450000Y-122200000D02*
X88036421Y-123326504D01*
X87450000Y-122200000D02*
X86863579Y-123326504D01*
D10*
X88935715Y-118428328D02*
X88650000Y-118428328D01*
X88650000Y-118428328D02*
X88507143Y-118499757D01*
X88507143Y-118499757D02*
X88435715Y-118571185D01*
X88435715Y-118571185D02*
X88292857Y-118785471D01*
X88292857Y-118785471D02*
X88221429Y-119071185D01*
X88221429Y-119071185D02*
X88221429Y-119642614D01*
X88221429Y-119642614D02*
X88292857Y-119785471D01*
X88292857Y-119785471D02*
X88364286Y-119856900D01*
X88364286Y-119856900D02*
X88507143Y-119928328D01*
X88507143Y-119928328D02*
X88792857Y-119928328D01*
X88792857Y-119928328D02*
X88935715Y-119856900D01*
X88935715Y-119856900D02*
X89007143Y-119785471D01*
X89007143Y-119785471D02*
X89078572Y-119642614D01*
X89078572Y-119642614D02*
X89078572Y-119285471D01*
X89078572Y-119285471D02*
X89007143Y-119142614D01*
X89007143Y-119142614D02*
X88935715Y-119071185D01*
X88935715Y-119071185D02*
X88792857Y-118999757D01*
X88792857Y-118999757D02*
X88507143Y-118999757D01*
X88507143Y-118999757D02*
X88364286Y-119071185D01*
X88364286Y-119071185D02*
X88292857Y-119142614D01*
X88292857Y-119142614D02*
X88221429Y-119285471D01*
D11*
X91650000Y-122700000D02*
X91650000Y-120463580D01*
X85650000Y-120463580D02*
X85650000Y-122700000D01*
X91650000Y-121050000D02*
X85650000Y-121050000D01*
X91650000Y-121050000D02*
X90523496Y-121636421D01*
X91650000Y-121050000D02*
X90523496Y-120463579D01*
X85650000Y-121050000D02*
X86776504Y-120463579D01*
X85650000Y-121050000D02*
X86776504Y-121636421D01*
D10*
X74935715Y-118928328D02*
X74935715Y-119928328D01*
X74578572Y-118356900D02*
X74221429Y-119428328D01*
X74221429Y-119428328D02*
X75150000Y-119428328D01*
D11*
X72650000Y-122700000D02*
X72650000Y-120463580D01*
X76650000Y-120463580D02*
X76650000Y-122850000D01*
X72650000Y-121050000D02*
X76650000Y-121050000D01*
X72650000Y-121050000D02*
X73776504Y-120463579D01*
X72650000Y-121050000D02*
X73776504Y-121636421D01*
X76650000Y-121050000D02*
X75523496Y-121636421D01*
X76650000Y-121050000D02*
X75523496Y-120463579D01*
M02*
