%TF.GenerationSoftware,KiCad,Pcbnew,10.0.6-rc2*%
%TF.CreationDate,2026-08-24T12:59:56+02:00*%
%TF.ProjectId,unni-smartification-c6,756e6e69-2d73-46d6-9172-746966696361,rev?*%
%TF.SameCoordinates,Original*%
%TF.FileFunction,Copper,L2,Inr*%
%TF.FilePolarity,Positive*%
%FSLAX46Y46*%
G04 Gerber Fmt 4.6, Leading zero omitted, Abs format (unit mm)*
G04 Created by KiCad (PCBNEW 10.0.6-rc2) date 2026-08-24 12:59:56*
%MOMM*%
%LPD*%
G01*
G04 APERTURE LIST*
G04 Aperture macros list*
%AMRoundRect*
0 Rectangle with rounded corners*
0 $1 Rounding radius*
0 $2 $3 $4 $5 $6 $7 $8 $9 X,Y pos of 4 corners*
0 Add a 4 corners polygon primitive as box body*
4,1,4,$2,$3,$4,$5,$6,$7,$8,$9,$2,$3,0*
0 Add four circle primitives for the rounded corners*
1,1,$1+$1,$2,$3*
1,1,$1+$1,$4,$5*
1,1,$1+$1,$6,$7*
1,1,$1+$1,$8,$9*
0 Add four rect primitives between the rounded corners*
20,1,$1+$1,$2,$3,$4,$5,0*
20,1,$1+$1,$4,$5,$6,$7,0*
20,1,$1+$1,$6,$7,$8,$9,0*
20,1,$1+$1,$8,$9,$2,$3,0*%
G04 Aperture macros list end*
%TA.AperFunction,ComponentPad*%
%ADD10RoundRect,0.250000X-0.625000X0.350000X-0.625000X-0.350000X0.625000X-0.350000X0.625000X0.350000X0*%
%TD*%
%TA.AperFunction,ComponentPad*%
%ADD11O,1.750000X1.200000*%
%TD*%
%TA.AperFunction,ComponentPad*%
%ADD12RoundRect,0.250000X0.625000X-0.350000X0.625000X0.350000X-0.625000X0.350000X-0.625000X-0.350000X0*%
%TD*%
%TA.AperFunction,ComponentPad*%
%ADD13RoundRect,0.250000X-0.350000X-0.625000X0.350000X-0.625000X0.350000X0.625000X-0.350000X0.625000X0*%
%TD*%
%TA.AperFunction,ComponentPad*%
%ADD14O,1.200000X1.750000*%
%TD*%
%TA.AperFunction,ComponentPad*%
%ADD15RoundRect,0.250000X0.350000X0.625000X-0.350000X0.625000X-0.350000X-0.625000X0.350000X-0.625000X0*%
%TD*%
%TA.AperFunction,ComponentPad*%
%ADD16O,1.000000X2.100000*%
%TD*%
%TA.AperFunction,ComponentPad*%
%ADD17O,1.000000X1.800000*%
%TD*%
%TA.AperFunction,ViaPad*%
%ADD18C,0.600000*%
%TD*%
%TA.AperFunction,ViaPad*%
%ADD19C,0.800000*%
%TD*%
G04 APERTURE END LIST*
D10*
%TO.N,CONN_SCL*%
%TO.C,J6*%
X153980000Y-146580000D03*
D11*
%TO.N,CONN_SDA*%
X153980000Y-148580000D03*
%TO.N,CONN_RH*%
X153980000Y-150580000D03*
%TO.N,CONN_RT*%
X153980000Y-152580000D03*
%TO.N,GND*%
X153980000Y-154580000D03*
%TD*%
D12*
%TO.N,CONN_TOUCH*%
%TO.C,J5*%
X125368238Y-135170000D03*
D11*
%TO.N,CONN_LED+*%
X125368238Y-133170000D03*
%TD*%
D13*
%TO.N,GND*%
%TO.C,J2*%
X112460000Y-153990000D03*
D14*
%TO.N,+BATT*%
X114460000Y-153990000D03*
%TD*%
D15*
%TO.N,USB_RAW_P*%
%TO.C,J3*%
X87160000Y-185940000D03*
D14*
%TO.N,USB_RAW_N*%
X85160000Y-185940000D03*
%TO.N,GND*%
X83160000Y-185940000D03*
%TO.N,BOOST_CMD*%
X81160000Y-185940000D03*
%TO.N,VBUS*%
X79160000Y-185940000D03*
%TO.N,+BATT*%
X77160000Y-185940000D03*
%TD*%
D10*
%TO.N,BAT_TEMP_ADC*%
%TO.C,RT1*%
X153640000Y-136680000D03*
D11*
%TO.N,GND*%
X153640000Y-138680000D03*
%TD*%
D15*
%TO.N,USB_RAW_P*%
%TO.C,J10*%
X148230000Y-154660000D03*
D14*
%TO.N,USB_RAW_N*%
X146230000Y-154660000D03*
%TO.N,GND*%
X144230000Y-154660000D03*
%TO.N,BOOST_CMD*%
X142230000Y-154660000D03*
%TO.N,VBUS*%
X140230000Y-154660000D03*
%TO.N,+BATT*%
X138230000Y-154660000D03*
%TD*%
D16*
%TO.N,GND*%
%TO.C,J1*%
X76830000Y-129010000D03*
X85470000Y-129010000D03*
D17*
X76830000Y-124830000D03*
X85470000Y-124830000D03*
%TD*%
D18*
%TO.N,VBUS*%
X90850000Y-146500000D03*
X89650000Y-151300000D03*
X132100000Y-151600000D03*
X90850000Y-148900000D03*
X132750000Y-150300000D03*
X134050000Y-150300000D03*
X78800000Y-131050000D03*
X136650000Y-152900000D03*
X132750000Y-152900000D03*
X89650000Y-158500000D03*
X88450000Y-160900000D03*
X90250000Y-152500000D03*
X136000000Y-151600000D03*
X90850000Y-160900000D03*
X90850000Y-151300000D03*
X117150000Y-152900000D03*
X131450000Y-150300000D03*
X89050000Y-155500000D03*
X119750000Y-152900000D03*
X136650000Y-150300000D03*
X83550000Y-131050000D03*
X139250000Y-152900000D03*
X137950000Y-152900000D03*
X118450000Y-152900000D03*
X135350000Y-150300000D03*
X117800000Y-151600000D03*
X90250000Y-147700000D03*
X90850000Y-158500000D03*
X121050000Y-152900000D03*
X90250000Y-159700000D03*
X88450000Y-158500000D03*
X90250000Y-150100000D03*
X89050000Y-159700000D03*
X88450000Y-156100000D03*
X90850000Y-153700000D03*
X90250000Y-154900000D03*
X130800000Y-151600000D03*
X90850000Y-156100000D03*
X89650000Y-153700000D03*
X89650000Y-156100000D03*
X89050000Y-157300000D03*
X135350000Y-152900000D03*
X134050000Y-152900000D03*
X137300000Y-151600000D03*
X140550000Y-152900000D03*
X131450000Y-152900000D03*
X139900000Y-151600000D03*
X90250000Y-157300000D03*
X133400000Y-151600000D03*
X134700000Y-151600000D03*
X138600000Y-151600000D03*
X89650000Y-160900000D03*
%TO.N,GND*%
X84850000Y-146500000D03*
X122250000Y-139500000D03*
X76500000Y-159000000D03*
X143556098Y-135350000D03*
D19*
X142390000Y-150830000D03*
D18*
X89850000Y-124250000D03*
D19*
X127320000Y-141800000D03*
D18*
X112500000Y-147000000D03*
D19*
X133420000Y-148000000D03*
D18*
X141606098Y-137300000D03*
X115500000Y-141000000D03*
X76500000Y-162000000D03*
X149985290Y-141253949D03*
X86600000Y-124100000D03*
X120000000Y-141000000D03*
X145706098Y-137300000D03*
X141606098Y-133200000D03*
X114000000Y-141000000D03*
X139506098Y-137300000D03*
X78000000Y-159000000D03*
X85900000Y-147650000D03*
X111750000Y-145500000D03*
X114000000Y-147000000D03*
D19*
X140065000Y-144479015D03*
D18*
X75900000Y-150350000D03*
X111750000Y-148500000D03*
X145706098Y-133200000D03*
X145706098Y-135350000D03*
X111000000Y-147000000D03*
X76900000Y-155300000D03*
X120770000Y-147000000D03*
X118500000Y-141000000D03*
D19*
X130240000Y-141910000D03*
D18*
X133217500Y-140340000D03*
X117000000Y-141000000D03*
X77800000Y-152100000D03*
X75950000Y-157850000D03*
X86050000Y-146500000D03*
X132400000Y-135120000D03*
X120750000Y-145500000D03*
X112500000Y-141000000D03*
X141606098Y-139400000D03*
X145706098Y-139350000D03*
X75900000Y-152100000D03*
D19*
X127480000Y-148010000D03*
D18*
X127010000Y-151020000D03*
X143556098Y-139350000D03*
X143556098Y-133200000D03*
X141606098Y-135350000D03*
X143556098Y-137300000D03*
X78000000Y-162000000D03*
D19*
X154660000Y-135310000D03*
D18*
X148600000Y-145650000D03*
X139506098Y-135350000D03*
X77250000Y-160500000D03*
X121290000Y-149343823D03*
X139506098Y-133200000D03*
X121500000Y-141000000D03*
X76900000Y-153200000D03*
X113250000Y-145500000D03*
X136681098Y-140775000D03*
D19*
X139460000Y-150730000D03*
D18*
X139728683Y-138974998D03*
%TO.N,CHARGE_STAT*%
X144720000Y-143920000D03*
X118320000Y-143780000D03*
%TO.N,Net-(Q3-G)*%
X82500000Y-146800000D03*
X82400000Y-144750000D03*
%TO.N,BAT_TEMP_ADC*%
X137750000Y-135575000D03*
%TO.N,+BATT*%
X115200000Y-151600000D03*
D19*
X138350000Y-147590000D03*
D18*
X111950000Y-155500000D03*
X117150000Y-155500000D03*
X134700000Y-154200000D03*
X130150000Y-155500000D03*
X136000000Y-154200000D03*
X121050000Y-155500000D03*
X136650000Y-155500000D03*
X128850000Y-155500000D03*
X111300000Y-154200000D03*
X118450000Y-155500000D03*
X124950000Y-155500000D03*
X132100000Y-154200000D03*
X131450000Y-155500000D03*
X134050000Y-155500000D03*
X114550000Y-155500000D03*
X133400000Y-154200000D03*
X123650000Y-155500000D03*
X115850000Y-152900000D03*
X115850000Y-155500000D03*
X122350000Y-155500000D03*
X132750000Y-155500000D03*
X119750000Y-155500000D03*
X127550000Y-155500000D03*
X135350000Y-155500000D03*
X113250000Y-155500000D03*
X111300000Y-151600000D03*
%TO.N,+3V3*%
X145530000Y-142550000D03*
X119250000Y-130500000D03*
X119250000Y-133500000D03*
X120000000Y-132000000D03*
X117075000Y-136795000D03*
X121500000Y-132000000D03*
X122250000Y-133500000D03*
X135850000Y-133770000D03*
X138490000Y-132960000D03*
X116825000Y-139745000D03*
X137700000Y-132980000D03*
X138500000Y-133810000D03*
X118500000Y-132000000D03*
X120750000Y-133500000D03*
X137720000Y-133810000D03*
%TO.N,SYS*%
X119250000Y-142500000D03*
X113250000Y-142500000D03*
X120750000Y-142500000D03*
X123000000Y-144000000D03*
X113975000Y-136495000D03*
X117750000Y-142500000D03*
X114822975Y-140002131D03*
X111000000Y-141000000D03*
X116250000Y-142500000D03*
X114750000Y-142500000D03*
X122250000Y-142500000D03*
X111750000Y-142500000D03*
X111750000Y-136500000D03*
%TO.N,/USB + Power/BOOST_IN*%
X79500000Y-147000000D03*
X79500000Y-144000000D03*
X78750000Y-145500000D03*
X80250000Y-145500000D03*
X78000000Y-147000000D03*
X78000000Y-144000000D03*
X77250000Y-145500000D03*
X76500000Y-144000000D03*
X76500000Y-147000000D03*
%TO.N,USB_RAW_P*%
X82260000Y-130890000D03*
X80960000Y-131900000D03*
%TO.N,BACKLIGHT_ADC*%
X132070000Y-136760000D03*
X131920000Y-138310000D03*
%TO.N,RT*%
X140243759Y-142406089D03*
X144740000Y-149380000D03*
X142422166Y-145789323D03*
X143060000Y-143320000D03*
%TO.N,RH*%
X143700000Y-146120000D03*
X141210817Y-142136899D03*
X145900000Y-148560000D03*
X143097328Y-142219979D03*
%TO.N,TOUCH_TRIGGER*%
X135600000Y-138540000D03*
X137581100Y-138900000D03*
X147600000Y-139550000D03*
X138833677Y-140277916D03*
%TO.N,BOOST_CMD*%
X81130000Y-181180000D03*
X151899620Y-139339620D03*
%TD*%
%TA.AperFunction,Conductor*%
%TO.N,GND*%
G36*
X120946004Y-125328996D02*
G01*
X120975000Y-125399000D01*
X120975000Y-130718901D01*
X120981098Y-130724999D01*
X120981098Y-130725000D01*
X155601000Y-130725000D01*
X155671004Y-130753996D01*
X155700000Y-130824000D01*
X155700000Y-156601000D01*
X155671004Y-156671004D01*
X155601000Y-156700000D01*
X110399000Y-156700000D01*
X110328996Y-156671004D01*
X110300000Y-156601000D01*
X110300000Y-155400444D01*
X111449500Y-155400444D01*
X111449500Y-155599556D01*
X111455331Y-155613632D01*
X111525695Y-155783507D01*
X111525696Y-155783508D01*
X111525697Y-155783510D01*
X111666490Y-155924303D01*
X111850444Y-156000500D01*
X111850446Y-156000500D01*
X112049554Y-156000500D01*
X112049556Y-156000500D01*
X112233510Y-155924303D01*
X112374303Y-155783510D01*
X112450500Y-155599556D01*
X112450500Y-155400444D01*
X112749500Y-155400444D01*
X112749500Y-155599556D01*
X112755331Y-155613632D01*
X112825695Y-155783507D01*
X112825696Y-155783508D01*
X112825697Y-155783510D01*
X112966490Y-155924303D01*
X113150444Y-156000500D01*
X113150446Y-156000500D01*
X113349554Y-156000500D01*
X113349556Y-156000500D01*
X113533510Y-155924303D01*
X113674303Y-155783510D01*
X113750500Y-155599556D01*
X113750500Y-155400444D01*
X113674303Y-155216490D01*
X113533510Y-155075697D01*
X113533508Y-155075696D01*
X113533507Y-155075695D01*
X113445653Y-155039305D01*
X113349556Y-154999500D01*
X113150444Y-154999500D01*
X113074249Y-155031061D01*
X112966492Y-155075695D01*
X112825695Y-155216492D01*
X112778939Y-155329373D01*
X112749500Y-155400444D01*
X112450500Y-155400444D01*
X112374303Y-155216490D01*
X112233510Y-155075697D01*
X112233508Y-155075696D01*
X112233507Y-155075695D01*
X112145653Y-155039305D01*
X112049556Y-154999500D01*
X111850444Y-154999500D01*
X111774249Y-155031061D01*
X111666492Y-155075695D01*
X111525695Y-155216492D01*
X111478939Y-155329373D01*
X111449500Y-155400444D01*
X110300000Y-155400444D01*
X110300000Y-154100444D01*
X110799500Y-154100444D01*
X110799500Y-154299556D01*
X110839305Y-154395653D01*
X110875695Y-154483507D01*
X110875696Y-154483508D01*
X110875697Y-154483510D01*
X111016490Y-154624303D01*
X111200444Y-154700500D01*
X111200446Y-154700500D01*
X111399554Y-154700500D01*
X111399556Y-154700500D01*
X111583510Y-154624303D01*
X111724303Y-154483510D01*
X111748859Y-154424228D01*
X113659499Y-154424228D01*
X113781367Y-154718444D01*
X113781368Y-154718445D01*
X113781369Y-154718447D01*
X114006553Y-154943631D01*
X114006554Y-154943631D01*
X114006555Y-154943632D01*
X114146855Y-155001746D01*
X114200433Y-155055324D01*
X114200433Y-155131096D01*
X114178973Y-155163213D01*
X114125696Y-155216490D01*
X114078941Y-155329367D01*
X114049500Y-155400444D01*
X114049500Y-155599556D01*
X114055331Y-155613632D01*
X114125695Y-155783507D01*
X114125696Y-155783508D01*
X114125697Y-155783510D01*
X114266490Y-155924303D01*
X114450444Y-156000500D01*
X114450446Y-156000500D01*
X114649554Y-156000500D01*
X114649556Y-156000500D01*
X114833510Y-155924303D01*
X114974303Y-155783510D01*
X115050500Y-155599556D01*
X115050500Y-155400444D01*
X115349500Y-155400444D01*
X115349500Y-155599556D01*
X115355331Y-155613632D01*
X115425695Y-155783507D01*
X115425696Y-155783508D01*
X115425697Y-155783510D01*
X115566490Y-155924303D01*
X115750444Y-156000500D01*
X115750446Y-156000500D01*
X115949554Y-156000500D01*
X115949556Y-156000500D01*
X116133510Y-155924303D01*
X116274303Y-155783510D01*
X116350500Y-155599556D01*
X116350500Y-155400444D01*
X116649500Y-155400444D01*
X116649500Y-155599556D01*
X116655331Y-155613632D01*
X116725695Y-155783507D01*
X116725696Y-155783508D01*
X116725697Y-155783510D01*
X116866490Y-155924303D01*
X117050444Y-156000500D01*
X117050446Y-156000500D01*
X117249554Y-156000500D01*
X117249556Y-156000500D01*
X117433510Y-155924303D01*
X117574303Y-155783510D01*
X117650500Y-155599556D01*
X117650500Y-155400444D01*
X117949500Y-155400444D01*
X117949500Y-155599556D01*
X117955331Y-155613632D01*
X118025695Y-155783507D01*
X118025696Y-155783508D01*
X118025697Y-155783510D01*
X118166490Y-155924303D01*
X118350444Y-156000500D01*
X118350446Y-156000500D01*
X118549554Y-156000500D01*
X118549556Y-156000500D01*
X118733510Y-155924303D01*
X118874303Y-155783510D01*
X118950500Y-155599556D01*
X118950500Y-155400444D01*
X119249500Y-155400444D01*
X119249500Y-155599556D01*
X119255331Y-155613632D01*
X119325695Y-155783507D01*
X119325696Y-155783508D01*
X119325697Y-155783510D01*
X119466490Y-155924303D01*
X119650444Y-156000500D01*
X119650446Y-156000500D01*
X119849554Y-156000500D01*
X119849556Y-156000500D01*
X120033510Y-155924303D01*
X120174303Y-155783510D01*
X120250500Y-155599556D01*
X120250500Y-155400444D01*
X120549500Y-155400444D01*
X120549500Y-155599556D01*
X120555331Y-155613632D01*
X120625695Y-155783507D01*
X120625696Y-155783508D01*
X120625697Y-155783510D01*
X120766490Y-155924303D01*
X120950444Y-156000500D01*
X120950446Y-156000500D01*
X121149554Y-156000500D01*
X121149556Y-156000500D01*
X121333510Y-155924303D01*
X121474303Y-155783510D01*
X121550500Y-155599556D01*
X121550500Y-155400444D01*
X121849500Y-155400444D01*
X121849500Y-155599556D01*
X121855331Y-155613632D01*
X121925695Y-155783507D01*
X121925696Y-155783508D01*
X121925697Y-155783510D01*
X122066490Y-155924303D01*
X122250444Y-156000500D01*
X122250446Y-156000500D01*
X122449554Y-156000500D01*
X122449556Y-156000500D01*
X122633510Y-155924303D01*
X122774303Y-155783510D01*
X122850500Y-155599556D01*
X122850500Y-155400444D01*
X123149500Y-155400444D01*
X123149500Y-155599556D01*
X123155331Y-155613632D01*
X123225695Y-155783507D01*
X123225696Y-155783508D01*
X123225697Y-155783510D01*
X123366490Y-155924303D01*
X123550444Y-156000500D01*
X123550446Y-156000500D01*
X123749554Y-156000500D01*
X123749556Y-156000500D01*
X123933510Y-155924303D01*
X124074303Y-155783510D01*
X124150500Y-155599556D01*
X124150500Y-155400444D01*
X124449500Y-155400444D01*
X124449500Y-155599556D01*
X124455331Y-155613632D01*
X124525695Y-155783507D01*
X124525696Y-155783508D01*
X124525697Y-155783510D01*
X124666490Y-155924303D01*
X124850444Y-156000500D01*
X124850446Y-156000500D01*
X125049554Y-156000500D01*
X125049556Y-156000500D01*
X125233510Y-155924303D01*
X125374303Y-155783510D01*
X125450500Y-155599556D01*
X125450500Y-155400444D01*
X127049500Y-155400444D01*
X127049500Y-155599556D01*
X127055331Y-155613632D01*
X127125695Y-155783507D01*
X127125696Y-155783508D01*
X127125697Y-155783510D01*
X127266490Y-155924303D01*
X127450444Y-156000500D01*
X127450446Y-156000500D01*
X127649554Y-156000500D01*
X127649556Y-156000500D01*
X127833510Y-155924303D01*
X127974303Y-155783510D01*
X128050500Y-155599556D01*
X128050500Y-155400444D01*
X128349500Y-155400444D01*
X128349500Y-155599556D01*
X128355331Y-155613632D01*
X128425695Y-155783507D01*
X128425696Y-155783508D01*
X128425697Y-155783510D01*
X128566490Y-155924303D01*
X128750444Y-156000500D01*
X128750446Y-156000500D01*
X128949554Y-156000500D01*
X128949556Y-156000500D01*
X129133510Y-155924303D01*
X129274303Y-155783510D01*
X129350500Y-155599556D01*
X129350500Y-155400444D01*
X129649500Y-155400444D01*
X129649500Y-155599556D01*
X129655331Y-155613632D01*
X129725695Y-155783507D01*
X129725696Y-155783508D01*
X129725697Y-155783510D01*
X129866490Y-155924303D01*
X130050444Y-156000500D01*
X130050446Y-156000500D01*
X130249554Y-156000500D01*
X130249556Y-156000500D01*
X130433510Y-155924303D01*
X130574303Y-155783510D01*
X130650500Y-155599556D01*
X130650500Y-155400444D01*
X130949500Y-155400444D01*
X130949500Y-155599556D01*
X130955331Y-155613632D01*
X131025695Y-155783507D01*
X131025696Y-155783508D01*
X131025697Y-155783510D01*
X131166490Y-155924303D01*
X131350444Y-156000500D01*
X131350446Y-156000500D01*
X131549554Y-156000500D01*
X131549556Y-156000500D01*
X131733510Y-155924303D01*
X131874303Y-155783510D01*
X131950500Y-155599556D01*
X131950500Y-155400444D01*
X132249500Y-155400444D01*
X132249500Y-155599556D01*
X132255331Y-155613632D01*
X132325695Y-155783507D01*
X132325696Y-155783508D01*
X132325697Y-155783510D01*
X132466490Y-155924303D01*
X132650444Y-156000500D01*
X132650446Y-156000500D01*
X132849554Y-156000500D01*
X132849556Y-156000500D01*
X133033510Y-155924303D01*
X133174303Y-155783510D01*
X133250500Y-155599556D01*
X133250500Y-155400444D01*
X133549500Y-155400444D01*
X133549500Y-155599556D01*
X133555331Y-155613632D01*
X133625695Y-155783507D01*
X133625696Y-155783508D01*
X133625697Y-155783510D01*
X133766490Y-155924303D01*
X133950444Y-156000500D01*
X133950446Y-156000500D01*
X134149554Y-156000500D01*
X134149556Y-156000500D01*
X134333510Y-155924303D01*
X134474303Y-155783510D01*
X134550500Y-155599556D01*
X134550500Y-155400444D01*
X134849500Y-155400444D01*
X134849500Y-155599556D01*
X134855331Y-155613632D01*
X134925695Y-155783507D01*
X134925696Y-155783508D01*
X134925697Y-155783510D01*
X135066490Y-155924303D01*
X135250444Y-156000500D01*
X135250446Y-156000500D01*
X135449554Y-156000500D01*
X135449556Y-156000500D01*
X135633510Y-155924303D01*
X135774303Y-155783510D01*
X135850500Y-155599556D01*
X135850500Y-155400444D01*
X136149500Y-155400444D01*
X136149500Y-155599556D01*
X136155331Y-155613632D01*
X136225695Y-155783507D01*
X136225696Y-155783508D01*
X136225697Y-155783510D01*
X136366490Y-155924303D01*
X136550444Y-156000500D01*
X136550446Y-156000500D01*
X136749554Y-156000500D01*
X136749556Y-156000500D01*
X136933510Y-155924303D01*
X137074303Y-155783510D01*
X137150500Y-155599556D01*
X137150500Y-155400444D01*
X137074303Y-155216490D01*
X136952041Y-155094228D01*
X137429499Y-155094228D01*
X137551367Y-155388444D01*
X137551368Y-155388445D01*
X137551369Y-155388447D01*
X137776553Y-155613631D01*
X138070771Y-155735500D01*
X138070772Y-155735500D01*
X138389228Y-155735500D01*
X138389229Y-155735500D01*
X138683447Y-155613631D01*
X138908631Y-155388447D01*
X139030500Y-155094229D01*
X139030500Y-155094228D01*
X139429499Y-155094228D01*
X139551367Y-155388444D01*
X139551368Y-155388445D01*
X139551369Y-155388447D01*
X139776553Y-155613631D01*
X140070771Y-155735500D01*
X140070772Y-155735500D01*
X140389228Y-155735500D01*
X140389229Y-155735500D01*
X140683447Y-155613631D01*
X140908631Y-155388447D01*
X141030500Y-155094229D01*
X141030500Y-155094228D01*
X141429499Y-155094228D01*
X141551367Y-155388444D01*
X141551368Y-155388445D01*
X141551369Y-155388447D01*
X141776553Y-155613631D01*
X142070771Y-155735500D01*
X142070772Y-155735500D01*
X142389228Y-155735500D01*
X142389229Y-155735500D01*
X142683447Y-155613631D01*
X142908631Y-155388447D01*
X143030500Y-155094229D01*
X143030500Y-155094228D01*
X145429499Y-155094228D01*
X145551367Y-155388444D01*
X145551368Y-155388445D01*
X145551369Y-155388447D01*
X145776553Y-155613631D01*
X146070771Y-155735500D01*
X146070772Y-155735500D01*
X146389228Y-155735500D01*
X146389229Y-155735500D01*
X146683447Y-155613631D01*
X146908631Y-155388447D01*
X147030500Y-155094229D01*
X147030500Y-154225771D01*
X146946780Y-154023651D01*
X146933100Y-153990626D01*
X147429500Y-153990626D01*
X147429500Y-155329367D01*
X147429501Y-155329374D01*
X147455637Y-155460775D01*
X147455638Y-155460776D01*
X147555207Y-155609793D01*
X147704224Y-155709362D01*
X147704223Y-155709362D01*
X147730361Y-155714560D01*
X147835629Y-155735500D01*
X148624370Y-155735499D01*
X148755776Y-155709362D01*
X148904793Y-155609793D01*
X149004362Y-155460776D01*
X149030500Y-155329371D01*
X149030499Y-153990630D01*
X149004362Y-153859224D01*
X148904793Y-153710207D01*
X148755776Y-153610638D01*
X148755775Y-153610637D01*
X148755776Y-153610637D01*
X148624371Y-153584500D01*
X147835632Y-153584500D01*
X147835625Y-153584501D01*
X147704224Y-153610637D01*
X147704223Y-153610638D01*
X147555208Y-153710206D01*
X147555206Y-153710208D01*
X147455637Y-153859224D01*
X147429500Y-153990626D01*
X146933100Y-153990626D01*
X146908632Y-153931555D01*
X146908631Y-153931554D01*
X146908631Y-153931553D01*
X146683447Y-153706369D01*
X146683445Y-153706368D01*
X146683444Y-153706367D01*
X146493248Y-153627586D01*
X146389229Y-153584500D01*
X146070771Y-153584500D01*
X146007671Y-153610637D01*
X145776555Y-153706367D01*
X145551367Y-153931555D01*
X145429500Y-154225771D01*
X145429500Y-155094228D01*
X145429499Y-155094228D01*
X143030500Y-155094228D01*
X143030500Y-154225771D01*
X142933102Y-153990632D01*
X142908632Y-153931555D01*
X142908631Y-153931554D01*
X142908631Y-153931553D01*
X142683447Y-153706369D01*
X142683445Y-153706368D01*
X142683444Y-153706367D01*
X142493248Y-153627586D01*
X142389229Y-153584500D01*
X142070771Y-153584500D01*
X142007671Y-153610637D01*
X141776555Y-153706367D01*
X141551367Y-153931555D01*
X141429500Y-154225771D01*
X141429500Y-155094228D01*
X141429499Y-155094228D01*
X141030500Y-155094228D01*
X141030500Y-154225771D01*
X140933102Y-153990632D01*
X140908632Y-153931555D01*
X140908631Y-153931554D01*
X140908631Y-153931553D01*
X140683447Y-153706369D01*
X140683445Y-153706368D01*
X140683444Y-153706367D01*
X140409217Y-153592779D01*
X140409214Y-153592778D01*
X140389229Y-153584500D01*
X140070771Y-153584500D01*
X140007671Y-153610637D01*
X139776555Y-153706367D01*
X139551367Y-153931555D01*
X139429500Y-154225771D01*
X139429500Y-155094228D01*
X139429499Y-155094228D01*
X139030500Y-155094228D01*
X139030500Y-154225771D01*
X138933102Y-153990632D01*
X138908632Y-153931555D01*
X138908631Y-153931554D01*
X138908631Y-153931553D01*
X138683447Y-153706369D01*
X138683445Y-153706368D01*
X138683444Y-153706367D01*
X138493248Y-153627586D01*
X138389229Y-153584500D01*
X138070771Y-153584500D01*
X138044561Y-153595356D01*
X138044558Y-153595357D01*
X137776555Y-153706367D01*
X137551367Y-153931555D01*
X137429500Y-154225771D01*
X137429500Y-155094228D01*
X137429499Y-155094228D01*
X136952041Y-155094228D01*
X136933510Y-155075697D01*
X136933508Y-155075696D01*
X136933507Y-155075695D01*
X136845653Y-155039305D01*
X136749556Y-154999500D01*
X136550444Y-154999500D01*
X136474249Y-155031061D01*
X136366492Y-155075695D01*
X136225695Y-155216492D01*
X136178939Y-155329373D01*
X136149500Y-155400444D01*
X135850500Y-155400444D01*
X135774303Y-155216490D01*
X135633510Y-155075697D01*
X135633508Y-155075696D01*
X135633507Y-155075695D01*
X135545653Y-155039305D01*
X135449556Y-154999500D01*
X135250444Y-154999500D01*
X135174249Y-155031061D01*
X135066492Y-155075695D01*
X134925695Y-155216492D01*
X134878939Y-155329373D01*
X134849500Y-155400444D01*
X134550500Y-155400444D01*
X134474303Y-155216490D01*
X134333510Y-155075697D01*
X134333508Y-155075696D01*
X134333507Y-155075695D01*
X134245653Y-155039305D01*
X134149556Y-154999500D01*
X133950444Y-154999500D01*
X133874249Y-155031061D01*
X133766492Y-155075695D01*
X133625695Y-155216492D01*
X133578939Y-155329373D01*
X133549500Y-155400444D01*
X133250500Y-155400444D01*
X133174303Y-155216490D01*
X133033510Y-155075697D01*
X133033508Y-155075696D01*
X133033507Y-155075695D01*
X132945653Y-155039305D01*
X132849556Y-154999500D01*
X132650444Y-154999500D01*
X132574249Y-155031061D01*
X132466492Y-155075695D01*
X132325695Y-155216492D01*
X132278939Y-155329373D01*
X132249500Y-155400444D01*
X131950500Y-155400444D01*
X131874303Y-155216490D01*
X131733510Y-155075697D01*
X131733508Y-155075696D01*
X131733507Y-155075695D01*
X131645653Y-155039305D01*
X131549556Y-154999500D01*
X131350444Y-154999500D01*
X131274249Y-155031061D01*
X131166492Y-155075695D01*
X131025695Y-155216492D01*
X130978939Y-155329373D01*
X130949500Y-155400444D01*
X130650500Y-155400444D01*
X130574303Y-155216490D01*
X130433510Y-155075697D01*
X130433508Y-155075696D01*
X130433507Y-155075695D01*
X130345653Y-155039305D01*
X130249556Y-154999500D01*
X130050444Y-154999500D01*
X129974249Y-155031061D01*
X129866492Y-155075695D01*
X129725695Y-155216492D01*
X129678939Y-155329373D01*
X129649500Y-155400444D01*
X129350500Y-155400444D01*
X129274303Y-155216490D01*
X129133510Y-155075697D01*
X129133508Y-155075696D01*
X129133507Y-155075695D01*
X129045653Y-155039305D01*
X128949556Y-154999500D01*
X128750444Y-154999500D01*
X128674249Y-155031061D01*
X128566492Y-155075695D01*
X128425695Y-155216492D01*
X128378939Y-155329373D01*
X128349500Y-155400444D01*
X128050500Y-155400444D01*
X127974303Y-155216490D01*
X127833510Y-155075697D01*
X127833508Y-155075696D01*
X127833507Y-155075695D01*
X127745653Y-155039305D01*
X127649556Y-154999500D01*
X127450444Y-154999500D01*
X127374249Y-155031061D01*
X127266492Y-155075695D01*
X127125695Y-155216492D01*
X127078939Y-155329373D01*
X127049500Y-155400444D01*
X125450500Y-155400444D01*
X125374303Y-155216490D01*
X125233510Y-155075697D01*
X125233508Y-155075696D01*
X125233507Y-155075695D01*
X125145653Y-155039305D01*
X125049556Y-154999500D01*
X124850444Y-154999500D01*
X124774249Y-155031061D01*
X124666492Y-155075695D01*
X124525695Y-155216492D01*
X124478939Y-155329373D01*
X124449500Y-155400444D01*
X124150500Y-155400444D01*
X124074303Y-155216490D01*
X123933510Y-155075697D01*
X123933508Y-155075696D01*
X123933507Y-155075695D01*
X123845653Y-155039305D01*
X123749556Y-154999500D01*
X123550444Y-154999500D01*
X123474249Y-155031061D01*
X123366492Y-155075695D01*
X123225695Y-155216492D01*
X123178939Y-155329373D01*
X123149500Y-155400444D01*
X122850500Y-155400444D01*
X122774303Y-155216490D01*
X122633510Y-155075697D01*
X122633508Y-155075696D01*
X122633507Y-155075695D01*
X122545653Y-155039305D01*
X122449556Y-154999500D01*
X122250444Y-154999500D01*
X122174249Y-155031061D01*
X122066492Y-155075695D01*
X121925695Y-155216492D01*
X121878939Y-155329373D01*
X121849500Y-155400444D01*
X121550500Y-155400444D01*
X121474303Y-155216490D01*
X121333510Y-155075697D01*
X121333508Y-155075696D01*
X121333507Y-155075695D01*
X121245653Y-155039305D01*
X121149556Y-154999500D01*
X120950444Y-154999500D01*
X120874249Y-155031061D01*
X120766492Y-155075695D01*
X120625695Y-155216492D01*
X120578939Y-155329373D01*
X120549500Y-155400444D01*
X120250500Y-155400444D01*
X120174303Y-155216490D01*
X120033510Y-155075697D01*
X120033508Y-155075696D01*
X120033507Y-155075695D01*
X119945653Y-155039305D01*
X119849556Y-154999500D01*
X119650444Y-154999500D01*
X119574249Y-155031061D01*
X119466492Y-155075695D01*
X119325695Y-155216492D01*
X119278939Y-155329373D01*
X119249500Y-155400444D01*
X118950500Y-155400444D01*
X118874303Y-155216490D01*
X118733510Y-155075697D01*
X118733508Y-155075696D01*
X118733507Y-155075695D01*
X118645653Y-155039305D01*
X118549556Y-154999500D01*
X118350444Y-154999500D01*
X118274249Y-155031061D01*
X118166492Y-155075695D01*
X118025695Y-155216492D01*
X117978939Y-155329373D01*
X117949500Y-155400444D01*
X117650500Y-155400444D01*
X117574303Y-155216490D01*
X117433510Y-155075697D01*
X117433508Y-155075696D01*
X117433507Y-155075695D01*
X117345653Y-155039305D01*
X117249556Y-154999500D01*
X117050444Y-154999500D01*
X116974249Y-155031061D01*
X116866492Y-155075695D01*
X116725695Y-155216492D01*
X116678939Y-155329373D01*
X116649500Y-155400444D01*
X116350500Y-155400444D01*
X116274303Y-155216490D01*
X116133510Y-155075697D01*
X116133508Y-155075696D01*
X116133507Y-155075695D01*
X116045653Y-155039305D01*
X115949556Y-154999500D01*
X115750444Y-154999500D01*
X115674249Y-155031061D01*
X115566492Y-155075695D01*
X115425695Y-155216492D01*
X115378939Y-155329373D01*
X115349500Y-155400444D01*
X115050500Y-155400444D01*
X114974303Y-155216490D01*
X114868304Y-155110491D01*
X114839309Y-155040489D01*
X114868305Y-154970485D01*
X114900427Y-154949024D01*
X114913447Y-154943631D01*
X115138631Y-154718447D01*
X115260500Y-154424229D01*
X115260500Y-154100444D01*
X131599500Y-154100444D01*
X131599500Y-154299556D01*
X131639305Y-154395653D01*
X131675695Y-154483507D01*
X131675696Y-154483508D01*
X131675697Y-154483510D01*
X131816490Y-154624303D01*
X132000444Y-154700500D01*
X132000446Y-154700500D01*
X132199554Y-154700500D01*
X132199556Y-154700500D01*
X132383510Y-154624303D01*
X132524303Y-154483510D01*
X132600500Y-154299556D01*
X132600500Y-154100444D01*
X132899500Y-154100444D01*
X132899500Y-154299556D01*
X132939305Y-154395653D01*
X132975695Y-154483507D01*
X132975696Y-154483508D01*
X132975697Y-154483510D01*
X133116490Y-154624303D01*
X133300444Y-154700500D01*
X133300446Y-154700500D01*
X133499554Y-154700500D01*
X133499556Y-154700500D01*
X133683510Y-154624303D01*
X133824303Y-154483510D01*
X133900500Y-154299556D01*
X133900500Y-154100444D01*
X134199500Y-154100444D01*
X134199500Y-154299556D01*
X134239305Y-154395653D01*
X134275695Y-154483507D01*
X134275696Y-154483508D01*
X134275697Y-154483510D01*
X134416490Y-154624303D01*
X134600444Y-154700500D01*
X134600446Y-154700500D01*
X134799554Y-154700500D01*
X134799556Y-154700500D01*
X134983510Y-154624303D01*
X135124303Y-154483510D01*
X135200500Y-154299556D01*
X135200500Y-154100444D01*
X135499500Y-154100444D01*
X135499500Y-154299556D01*
X135539305Y-154395653D01*
X135575695Y-154483507D01*
X135575696Y-154483508D01*
X135575697Y-154483510D01*
X135716490Y-154624303D01*
X135900444Y-154700500D01*
X135900446Y-154700500D01*
X136099554Y-154700500D01*
X136099556Y-154700500D01*
X136283510Y-154624303D01*
X136424303Y-154483510D01*
X136500500Y-154299556D01*
X136500500Y-154100444D01*
X136424303Y-153916490D01*
X136283510Y-153775697D01*
X136283508Y-153775696D01*
X136283507Y-153775695D01*
X136195653Y-153739305D01*
X136099556Y-153699500D01*
X135900444Y-153699500D01*
X135824249Y-153731061D01*
X135716492Y-153775695D01*
X135575695Y-153916492D01*
X135544986Y-153990632D01*
X135499500Y-154100444D01*
X135200500Y-154100444D01*
X135124303Y-153916490D01*
X134983510Y-153775697D01*
X134983508Y-153775696D01*
X134983507Y-153775695D01*
X134895653Y-153739305D01*
X134799556Y-153699500D01*
X134600444Y-153699500D01*
X134524249Y-153731061D01*
X134416492Y-153775695D01*
X134275695Y-153916492D01*
X134244986Y-153990632D01*
X134199500Y-154100444D01*
X133900500Y-154100444D01*
X133824303Y-153916490D01*
X133683510Y-153775697D01*
X133683508Y-153775696D01*
X133683507Y-153775695D01*
X133595653Y-153739305D01*
X133499556Y-153699500D01*
X133300444Y-153699500D01*
X133224249Y-153731061D01*
X133116492Y-153775695D01*
X132975695Y-153916492D01*
X132944986Y-153990632D01*
X132899500Y-154100444D01*
X132600500Y-154100444D01*
X132524303Y-153916490D01*
X132383510Y-153775697D01*
X132383508Y-153775696D01*
X132383507Y-153775695D01*
X132295653Y-153739305D01*
X132199556Y-153699500D01*
X132000444Y-153699500D01*
X131924249Y-153731061D01*
X131816492Y-153775695D01*
X131675695Y-153916492D01*
X131644986Y-153990632D01*
X131599500Y-154100444D01*
X115260500Y-154100444D01*
X115260500Y-153555771D01*
X115196185Y-153400500D01*
X115138632Y-153261555D01*
X115138631Y-153261554D01*
X115138631Y-153261553D01*
X114913447Y-153036369D01*
X114913445Y-153036368D01*
X114913444Y-153036367D01*
X114723248Y-152957586D01*
X114619229Y-152914500D01*
X114300771Y-152914500D01*
X114223921Y-152946332D01*
X114006555Y-153036367D01*
X113781367Y-153261555D01*
X113659500Y-153555771D01*
X113659500Y-154424228D01*
X113659499Y-154424228D01*
X111748859Y-154424228D01*
X111800500Y-154299556D01*
X111800500Y-154100444D01*
X111724303Y-153916490D01*
X111583510Y-153775697D01*
X111583508Y-153775696D01*
X111583507Y-153775695D01*
X111495653Y-153739305D01*
X111399556Y-153699500D01*
X111200444Y-153699500D01*
X111124249Y-153731061D01*
X111016492Y-153775695D01*
X110875695Y-153916492D01*
X110844986Y-153990632D01*
X110799500Y-154100444D01*
X110300000Y-154100444D01*
X110300000Y-152800444D01*
X115349500Y-152800444D01*
X115349500Y-152999556D01*
X115364748Y-153036367D01*
X115425695Y-153183507D01*
X115425696Y-153183508D01*
X115425697Y-153183510D01*
X115566490Y-153324303D01*
X115750444Y-153400500D01*
X115750446Y-153400500D01*
X115949554Y-153400500D01*
X115949556Y-153400500D01*
X116133510Y-153324303D01*
X116274303Y-153183510D01*
X116350500Y-152999556D01*
X116350500Y-152800444D01*
X116649500Y-152800444D01*
X116649500Y-152999556D01*
X116664748Y-153036367D01*
X116725695Y-153183507D01*
X116725696Y-153183508D01*
X116725697Y-153183510D01*
X116866490Y-153324303D01*
X117050444Y-153400500D01*
X117050446Y-153400500D01*
X117249554Y-153400500D01*
X117249556Y-153400500D01*
X117433510Y-153324303D01*
X117574303Y-153183510D01*
X117650500Y-152999556D01*
X117650500Y-152800444D01*
X117949500Y-152800444D01*
X117949500Y-152999556D01*
X117964748Y-153036367D01*
X118025695Y-153183507D01*
X118025696Y-153183508D01*
X118025697Y-153183510D01*
X118166490Y-153324303D01*
X118350444Y-153400500D01*
X118350446Y-153400500D01*
X118549554Y-153400500D01*
X118549556Y-153400500D01*
X118733510Y-153324303D01*
X118874303Y-153183510D01*
X118950500Y-152999556D01*
X118950500Y-152800444D01*
X119249500Y-152800444D01*
X119249500Y-152999556D01*
X119264748Y-153036367D01*
X119325695Y-153183507D01*
X119325696Y-153183508D01*
X119325697Y-153183510D01*
X119466490Y-153324303D01*
X119650444Y-153400500D01*
X119650446Y-153400500D01*
X119849554Y-153400500D01*
X119849556Y-153400500D01*
X120033510Y-153324303D01*
X120174303Y-153183510D01*
X120250500Y-152999556D01*
X120250500Y-152800444D01*
X120549500Y-152800444D01*
X120549500Y-152999556D01*
X120564748Y-153036367D01*
X120625695Y-153183507D01*
X120625696Y-153183508D01*
X120625697Y-153183510D01*
X120766490Y-153324303D01*
X120950444Y-153400500D01*
X120950446Y-153400500D01*
X121149554Y-153400500D01*
X121149556Y-153400500D01*
X121333510Y-153324303D01*
X121474303Y-153183510D01*
X121550500Y-152999556D01*
X121550500Y-152800444D01*
X130949500Y-152800444D01*
X130949500Y-152999556D01*
X130964748Y-153036367D01*
X131025695Y-153183507D01*
X131025696Y-153183508D01*
X131025697Y-153183510D01*
X131166490Y-153324303D01*
X131350444Y-153400500D01*
X131350446Y-153400500D01*
X131549554Y-153400500D01*
X131549556Y-153400500D01*
X131733510Y-153324303D01*
X131874303Y-153183510D01*
X131950500Y-152999556D01*
X131950500Y-152800444D01*
X132249500Y-152800444D01*
X132249500Y-152999556D01*
X132264748Y-153036367D01*
X132325695Y-153183507D01*
X132325696Y-153183508D01*
X132325697Y-153183510D01*
X132466490Y-153324303D01*
X132650444Y-153400500D01*
X132650446Y-153400500D01*
X132849554Y-153400500D01*
X132849556Y-153400500D01*
X133033510Y-153324303D01*
X133174303Y-153183510D01*
X133250500Y-152999556D01*
X133250500Y-152800444D01*
X133549500Y-152800444D01*
X133549500Y-152999556D01*
X133564748Y-153036367D01*
X133625695Y-153183507D01*
X133625696Y-153183508D01*
X133625697Y-153183510D01*
X133766490Y-153324303D01*
X133950444Y-153400500D01*
X133950446Y-153400500D01*
X134149554Y-153400500D01*
X134149556Y-153400500D01*
X134333510Y-153324303D01*
X134474303Y-153183510D01*
X134550500Y-152999556D01*
X134550500Y-152800444D01*
X134849500Y-152800444D01*
X134849500Y-152999556D01*
X134864748Y-153036367D01*
X134925695Y-153183507D01*
X134925696Y-153183508D01*
X134925697Y-153183510D01*
X135066490Y-153324303D01*
X135250444Y-153400500D01*
X135250446Y-153400500D01*
X135449554Y-153400500D01*
X135449556Y-153400500D01*
X135633510Y-153324303D01*
X135774303Y-153183510D01*
X135850500Y-152999556D01*
X135850500Y-152800444D01*
X136149500Y-152800444D01*
X136149500Y-152999556D01*
X136164748Y-153036367D01*
X136225695Y-153183507D01*
X136225696Y-153183508D01*
X136225697Y-153183510D01*
X136366490Y-153324303D01*
X136550444Y-153400500D01*
X136550446Y-153400500D01*
X136749554Y-153400500D01*
X136749556Y-153400500D01*
X136933510Y-153324303D01*
X137074303Y-153183510D01*
X137150500Y-152999556D01*
X137150500Y-152800444D01*
X137449500Y-152800444D01*
X137449500Y-152999556D01*
X137464748Y-153036367D01*
X137525695Y-153183507D01*
X137525696Y-153183508D01*
X137525697Y-153183510D01*
X137666490Y-153324303D01*
X137850444Y-153400500D01*
X137850446Y-153400500D01*
X138009253Y-153400500D01*
X138049556Y-153400500D01*
X138233510Y-153324303D01*
X138374303Y-153183510D01*
X138450500Y-152999556D01*
X138450500Y-152800444D01*
X138749500Y-152800444D01*
X138749500Y-152999556D01*
X138764748Y-153036367D01*
X138825695Y-153183507D01*
X138825696Y-153183508D01*
X138825697Y-153183510D01*
X138966490Y-153324303D01*
X139150444Y-153400500D01*
X139150446Y-153400500D01*
X139349554Y-153400500D01*
X139349556Y-153400500D01*
X139533510Y-153324303D01*
X139674303Y-153183510D01*
X139750500Y-152999556D01*
X139750500Y-152800444D01*
X140049500Y-152800444D01*
X140049500Y-152999556D01*
X140064748Y-153036367D01*
X140125695Y-153183507D01*
X140125696Y-153183508D01*
X140125697Y-153183510D01*
X140266490Y-153324303D01*
X140450444Y-153400500D01*
X140457521Y-153400500D01*
X140649554Y-153400500D01*
X140649556Y-153400500D01*
X140833510Y-153324303D01*
X140974303Y-153183510D01*
X141050500Y-152999556D01*
X141050500Y-152800444D01*
X141025143Y-152739228D01*
X152904499Y-152739228D01*
X153026367Y-153033444D01*
X153026368Y-153033445D01*
X153026369Y-153033447D01*
X153251553Y-153258631D01*
X153545771Y-153380500D01*
X153545772Y-153380500D01*
X154414228Y-153380500D01*
X154414229Y-153380500D01*
X154708447Y-153258631D01*
X154933631Y-153033447D01*
X155055500Y-152739229D01*
X155055500Y-152420771D01*
X154933631Y-152126553D01*
X154708447Y-151901369D01*
X154708445Y-151901368D01*
X154708444Y-151901367D01*
X154518248Y-151822586D01*
X154414229Y-151779500D01*
X153545771Y-151779500D01*
X153468921Y-151811332D01*
X153251555Y-151901367D01*
X153026367Y-152126555D01*
X152904500Y-152420771D01*
X152904500Y-152739228D01*
X152904499Y-152739228D01*
X141025143Y-152739228D01*
X140974303Y-152616490D01*
X140833510Y-152475697D01*
X140833508Y-152475696D01*
X140833507Y-152475695D01*
X140745653Y-152439305D01*
X140649556Y-152399500D01*
X140450444Y-152399500D01*
X140399092Y-152420771D01*
X140266492Y-152475695D01*
X140125695Y-152616492D01*
X140074857Y-152739228D01*
X140049500Y-152800444D01*
X139750500Y-152800444D01*
X139674303Y-152616490D01*
X139533510Y-152475697D01*
X139533508Y-152475696D01*
X139533507Y-152475695D01*
X139445653Y-152439305D01*
X139349556Y-152399500D01*
X139150444Y-152399500D01*
X139099092Y-152420771D01*
X138966492Y-152475695D01*
X138825695Y-152616492D01*
X138774857Y-152739228D01*
X138749500Y-152800444D01*
X138450500Y-152800444D01*
X138374303Y-152616490D01*
X138233510Y-152475697D01*
X138233508Y-152475696D01*
X138233507Y-152475695D01*
X138145653Y-152439305D01*
X138049556Y-152399500D01*
X137850444Y-152399500D01*
X137799092Y-152420771D01*
X137666492Y-152475695D01*
X137525695Y-152616492D01*
X137474857Y-152739228D01*
X137449500Y-152800444D01*
X137150500Y-152800444D01*
X137074303Y-152616490D01*
X136933510Y-152475697D01*
X136933508Y-152475696D01*
X136933507Y-152475695D01*
X136845653Y-152439305D01*
X136749556Y-152399500D01*
X136550444Y-152399500D01*
X136499092Y-152420771D01*
X136366492Y-152475695D01*
X136225695Y-152616492D01*
X136174857Y-152739228D01*
X136149500Y-152800444D01*
X135850500Y-152800444D01*
X135774303Y-152616490D01*
X135633510Y-152475697D01*
X135633508Y-152475696D01*
X135633507Y-152475695D01*
X135545653Y-152439305D01*
X135449556Y-152399500D01*
X135250444Y-152399500D01*
X135199092Y-152420771D01*
X135066492Y-152475695D01*
X134925695Y-152616492D01*
X134874857Y-152739228D01*
X134849500Y-152800444D01*
X134550500Y-152800444D01*
X134474303Y-152616490D01*
X134333510Y-152475697D01*
X134333508Y-152475696D01*
X134333507Y-152475695D01*
X134245653Y-152439305D01*
X134149556Y-152399500D01*
X133950444Y-152399500D01*
X133899092Y-152420771D01*
X133766492Y-152475695D01*
X133625695Y-152616492D01*
X133574857Y-152739228D01*
X133549500Y-152800444D01*
X133250500Y-152800444D01*
X133174303Y-152616490D01*
X133033510Y-152475697D01*
X133033508Y-152475696D01*
X133033507Y-152475695D01*
X132945653Y-152439305D01*
X132849556Y-152399500D01*
X132650444Y-152399500D01*
X132599092Y-152420771D01*
X132466492Y-152475695D01*
X132325695Y-152616492D01*
X132274857Y-152739228D01*
X132249500Y-152800444D01*
X131950500Y-152800444D01*
X131874303Y-152616490D01*
X131733510Y-152475697D01*
X131733508Y-152475696D01*
X131733507Y-152475695D01*
X131645653Y-152439305D01*
X131549556Y-152399500D01*
X131350444Y-152399500D01*
X131299092Y-152420771D01*
X131166492Y-152475695D01*
X131025695Y-152616492D01*
X130974857Y-152739228D01*
X130949500Y-152800444D01*
X121550500Y-152800444D01*
X121474303Y-152616490D01*
X121333510Y-152475697D01*
X121333508Y-152475696D01*
X121333507Y-152475695D01*
X121245653Y-152439305D01*
X121149556Y-152399500D01*
X120950444Y-152399500D01*
X120899092Y-152420771D01*
X120766492Y-152475695D01*
X120625695Y-152616492D01*
X120574857Y-152739228D01*
X120549500Y-152800444D01*
X120250500Y-152800444D01*
X120174303Y-152616490D01*
X120033510Y-152475697D01*
X120033508Y-152475696D01*
X120033507Y-152475695D01*
X119945653Y-152439305D01*
X119849556Y-152399500D01*
X119650444Y-152399500D01*
X119599092Y-152420771D01*
X119466492Y-152475695D01*
X119325695Y-152616492D01*
X119274857Y-152739228D01*
X119249500Y-152800444D01*
X118950500Y-152800444D01*
X118874303Y-152616490D01*
X118733510Y-152475697D01*
X118733508Y-152475696D01*
X118733507Y-152475695D01*
X118645653Y-152439305D01*
X118549556Y-152399500D01*
X118350444Y-152399500D01*
X118299092Y-152420771D01*
X118166492Y-152475695D01*
X118025695Y-152616492D01*
X117974857Y-152739228D01*
X117949500Y-152800444D01*
X117650500Y-152800444D01*
X117574303Y-152616490D01*
X117433510Y-152475697D01*
X117433508Y-152475696D01*
X117433507Y-152475695D01*
X117345653Y-152439305D01*
X117249556Y-152399500D01*
X117050444Y-152399500D01*
X116999092Y-152420771D01*
X116866492Y-152475695D01*
X116725695Y-152616492D01*
X116674857Y-152739228D01*
X116649500Y-152800444D01*
X116350500Y-152800444D01*
X116274303Y-152616490D01*
X116133510Y-152475697D01*
X116133508Y-152475696D01*
X116133507Y-152475695D01*
X116045653Y-152439305D01*
X115949556Y-152399500D01*
X115750444Y-152399500D01*
X115699092Y-152420771D01*
X115566492Y-152475695D01*
X115425695Y-152616492D01*
X115374857Y-152739228D01*
X115349500Y-152800444D01*
X110300000Y-152800444D01*
X110300000Y-151500444D01*
X110799500Y-151500444D01*
X110799500Y-151699556D01*
X110832614Y-151779500D01*
X110875695Y-151883507D01*
X110875696Y-151883508D01*
X110875697Y-151883510D01*
X111016490Y-152024303D01*
X111200444Y-152100500D01*
X111200446Y-152100500D01*
X111399554Y-152100500D01*
X111399556Y-152100500D01*
X111583510Y-152024303D01*
X111724303Y-151883510D01*
X111800500Y-151699556D01*
X111800500Y-151500444D01*
X114699500Y-151500444D01*
X114699500Y-151699556D01*
X114732614Y-151779500D01*
X114775695Y-151883507D01*
X114775696Y-151883508D01*
X114775697Y-151883510D01*
X114916490Y-152024303D01*
X115100444Y-152100500D01*
X115100446Y-152100500D01*
X115299554Y-152100500D01*
X115299556Y-152100500D01*
X115483510Y-152024303D01*
X115624303Y-151883510D01*
X115700500Y-151699556D01*
X115700500Y-151500444D01*
X117299500Y-151500444D01*
X117299500Y-151699556D01*
X117332614Y-151779500D01*
X117375695Y-151883507D01*
X117375696Y-151883508D01*
X117375697Y-151883510D01*
X117516490Y-152024303D01*
X117700444Y-152100500D01*
X117700446Y-152100500D01*
X117899554Y-152100500D01*
X117899556Y-152100500D01*
X118083510Y-152024303D01*
X118224303Y-151883510D01*
X118300500Y-151699556D01*
X118300500Y-151500444D01*
X130299500Y-151500444D01*
X130299500Y-151699556D01*
X130332614Y-151779500D01*
X130375695Y-151883507D01*
X130375696Y-151883508D01*
X130375697Y-151883510D01*
X130516490Y-152024303D01*
X130700444Y-152100500D01*
X130700446Y-152100500D01*
X130899554Y-152100500D01*
X130899556Y-152100500D01*
X131083510Y-152024303D01*
X131224303Y-151883510D01*
X131300500Y-151699556D01*
X131300500Y-151500444D01*
X131599500Y-151500444D01*
X131599500Y-151699556D01*
X131632614Y-151779500D01*
X131675695Y-151883507D01*
X131675696Y-151883508D01*
X131675697Y-151883510D01*
X131816490Y-152024303D01*
X132000444Y-152100500D01*
X132000446Y-152100500D01*
X132199554Y-152100500D01*
X132199556Y-152100500D01*
X132383510Y-152024303D01*
X132524303Y-151883510D01*
X132600500Y-151699556D01*
X132600500Y-151500444D01*
X132899500Y-151500444D01*
X132899500Y-151699556D01*
X132932614Y-151779500D01*
X132975695Y-151883507D01*
X132975696Y-151883508D01*
X132975697Y-151883510D01*
X133116490Y-152024303D01*
X133300444Y-152100500D01*
X133300446Y-152100500D01*
X133499554Y-152100500D01*
X133499556Y-152100500D01*
X133683510Y-152024303D01*
X133824303Y-151883510D01*
X133900500Y-151699556D01*
X133900500Y-151500444D01*
X134199500Y-151500444D01*
X134199500Y-151699556D01*
X134232614Y-151779500D01*
X134275695Y-151883507D01*
X134275696Y-151883508D01*
X134275697Y-151883510D01*
X134416490Y-152024303D01*
X134600444Y-152100500D01*
X134600446Y-152100500D01*
X134799554Y-152100500D01*
X134799556Y-152100500D01*
X134983510Y-152024303D01*
X135124303Y-151883510D01*
X135200500Y-151699556D01*
X135200500Y-151500444D01*
X135499500Y-151500444D01*
X135499500Y-151699556D01*
X135532614Y-151779500D01*
X135575695Y-151883507D01*
X135575696Y-151883508D01*
X135575697Y-151883510D01*
X135716490Y-152024303D01*
X135900444Y-152100500D01*
X135900446Y-152100500D01*
X136099554Y-152100500D01*
X136099556Y-152100500D01*
X136283510Y-152024303D01*
X136424303Y-151883510D01*
X136500500Y-151699556D01*
X136500500Y-151500444D01*
X136799500Y-151500444D01*
X136799500Y-151699556D01*
X136832614Y-151779500D01*
X136875695Y-151883507D01*
X136875696Y-151883508D01*
X136875697Y-151883510D01*
X137016490Y-152024303D01*
X137200444Y-152100500D01*
X137200446Y-152100500D01*
X137399554Y-152100500D01*
X137399556Y-152100500D01*
X137583510Y-152024303D01*
X137724303Y-151883510D01*
X137800500Y-151699556D01*
X137800500Y-151500444D01*
X138099500Y-151500444D01*
X138099500Y-151699556D01*
X138132614Y-151779500D01*
X138175695Y-151883507D01*
X138175696Y-151883508D01*
X138175697Y-151883510D01*
X138316490Y-152024303D01*
X138500444Y-152100500D01*
X138500446Y-152100500D01*
X138699554Y-152100500D01*
X138699556Y-152100500D01*
X138883510Y-152024303D01*
X139024303Y-151883510D01*
X139100500Y-151699556D01*
X139100500Y-151500444D01*
X139399500Y-151500444D01*
X139399500Y-151699556D01*
X139432614Y-151779500D01*
X139475695Y-151883507D01*
X139475696Y-151883508D01*
X139475697Y-151883510D01*
X139616490Y-152024303D01*
X139800444Y-152100500D01*
X139800446Y-152100500D01*
X139999554Y-152100500D01*
X139999556Y-152100500D01*
X140183510Y-152024303D01*
X140324303Y-151883510D01*
X140400500Y-151699556D01*
X140400500Y-151500444D01*
X140324303Y-151316490D01*
X140183510Y-151175697D01*
X140183508Y-151175696D01*
X140183507Y-151175695D01*
X140095653Y-151139305D01*
X139999556Y-151099500D01*
X139800444Y-151099500D01*
X139724249Y-151131061D01*
X139616492Y-151175695D01*
X139475695Y-151316492D01*
X139419402Y-151452395D01*
X139399500Y-151500444D01*
X139100500Y-151500444D01*
X139024303Y-151316490D01*
X138883510Y-151175697D01*
X138883508Y-151175696D01*
X138883507Y-151175695D01*
X138795653Y-151139305D01*
X138699556Y-151099500D01*
X138500444Y-151099500D01*
X138424249Y-151131061D01*
X138316492Y-151175695D01*
X138175695Y-151316492D01*
X138119402Y-151452395D01*
X138099500Y-151500444D01*
X137800500Y-151500444D01*
X137724303Y-151316490D01*
X137583510Y-151175697D01*
X137583508Y-151175696D01*
X137583507Y-151175695D01*
X137495653Y-151139305D01*
X137399556Y-151099500D01*
X137200444Y-151099500D01*
X137124249Y-151131061D01*
X137016492Y-151175695D01*
X136875695Y-151316492D01*
X136819402Y-151452395D01*
X136799500Y-151500444D01*
X136500500Y-151500444D01*
X136424303Y-151316490D01*
X136283510Y-151175697D01*
X136283508Y-151175696D01*
X136283507Y-151175695D01*
X136195653Y-151139305D01*
X136099556Y-151099500D01*
X135900444Y-151099500D01*
X135824249Y-151131061D01*
X135716492Y-151175695D01*
X135575695Y-151316492D01*
X135519402Y-151452395D01*
X135499500Y-151500444D01*
X135200500Y-151500444D01*
X135124303Y-151316490D01*
X134983510Y-151175697D01*
X134983508Y-151175696D01*
X134983507Y-151175695D01*
X134895653Y-151139305D01*
X134799556Y-151099500D01*
X134600444Y-151099500D01*
X134524249Y-151131061D01*
X134416492Y-151175695D01*
X134275695Y-151316492D01*
X134219402Y-151452395D01*
X134199500Y-151500444D01*
X133900500Y-151500444D01*
X133824303Y-151316490D01*
X133683510Y-151175697D01*
X133683508Y-151175696D01*
X133683507Y-151175695D01*
X133595653Y-151139305D01*
X133499556Y-151099500D01*
X133300444Y-151099500D01*
X133224249Y-151131061D01*
X133116492Y-151175695D01*
X132975695Y-151316492D01*
X132919402Y-151452395D01*
X132899500Y-151500444D01*
X132600500Y-151500444D01*
X132524303Y-151316490D01*
X132383510Y-151175697D01*
X132383508Y-151175696D01*
X132383507Y-151175695D01*
X132295653Y-151139305D01*
X132199556Y-151099500D01*
X132000444Y-151099500D01*
X131924249Y-151131061D01*
X131816492Y-151175695D01*
X131675695Y-151316492D01*
X131619402Y-151452395D01*
X131599500Y-151500444D01*
X131300500Y-151500444D01*
X131224303Y-151316490D01*
X131083510Y-151175697D01*
X131083508Y-151175696D01*
X131083507Y-151175695D01*
X130995653Y-151139305D01*
X130899556Y-151099500D01*
X130700444Y-151099500D01*
X130624249Y-151131061D01*
X130516492Y-151175695D01*
X130375695Y-151316492D01*
X130319402Y-151452395D01*
X130299500Y-151500444D01*
X118300500Y-151500444D01*
X118224303Y-151316490D01*
X118083510Y-151175697D01*
X118083508Y-151175696D01*
X118083507Y-151175695D01*
X117995653Y-151139305D01*
X117899556Y-151099500D01*
X117700444Y-151099500D01*
X117624249Y-151131061D01*
X117516492Y-151175695D01*
X117375695Y-151316492D01*
X117319402Y-151452395D01*
X117299500Y-151500444D01*
X115700500Y-151500444D01*
X115624303Y-151316490D01*
X115483510Y-151175697D01*
X115483508Y-151175696D01*
X115483507Y-151175695D01*
X115395653Y-151139305D01*
X115299556Y-151099500D01*
X115100444Y-151099500D01*
X115024249Y-151131061D01*
X114916492Y-151175695D01*
X114775695Y-151316492D01*
X114719402Y-151452395D01*
X114699500Y-151500444D01*
X111800500Y-151500444D01*
X111724303Y-151316490D01*
X111583510Y-151175697D01*
X111583508Y-151175696D01*
X111583507Y-151175695D01*
X111495653Y-151139305D01*
X111399556Y-151099500D01*
X111200444Y-151099500D01*
X111124249Y-151131061D01*
X111016492Y-151175695D01*
X110875695Y-151316492D01*
X110819402Y-151452395D01*
X110799500Y-151500444D01*
X110300000Y-151500444D01*
X110300000Y-150200444D01*
X130949500Y-150200444D01*
X130949500Y-150399556D01*
X130958288Y-150420771D01*
X131025695Y-150583507D01*
X131025696Y-150583508D01*
X131025697Y-150583510D01*
X131166490Y-150724303D01*
X131350444Y-150800500D01*
X131350446Y-150800500D01*
X131549554Y-150800500D01*
X131549556Y-150800500D01*
X131733510Y-150724303D01*
X131874303Y-150583510D01*
X131950500Y-150399556D01*
X131950500Y-150200444D01*
X132249500Y-150200444D01*
X132249500Y-150399556D01*
X132258288Y-150420771D01*
X132325695Y-150583507D01*
X132325696Y-150583508D01*
X132325697Y-150583510D01*
X132466490Y-150724303D01*
X132650444Y-150800500D01*
X132650446Y-150800500D01*
X132849554Y-150800500D01*
X132849556Y-150800500D01*
X133033510Y-150724303D01*
X133174303Y-150583510D01*
X133250500Y-150399556D01*
X133250500Y-150200444D01*
X133549500Y-150200444D01*
X133549500Y-150399556D01*
X133558288Y-150420771D01*
X133625695Y-150583507D01*
X133625696Y-150583508D01*
X133625697Y-150583510D01*
X133766490Y-150724303D01*
X133950444Y-150800500D01*
X133950446Y-150800500D01*
X134149554Y-150800500D01*
X134149556Y-150800500D01*
X134333510Y-150724303D01*
X134474303Y-150583510D01*
X134550500Y-150399556D01*
X134550500Y-150200444D01*
X134849500Y-150200444D01*
X134849500Y-150399556D01*
X134858288Y-150420771D01*
X134925695Y-150583507D01*
X134925696Y-150583508D01*
X134925697Y-150583510D01*
X135066490Y-150724303D01*
X135250444Y-150800500D01*
X135250446Y-150800500D01*
X135449554Y-150800500D01*
X135449556Y-150800500D01*
X135633510Y-150724303D01*
X135774303Y-150583510D01*
X135850500Y-150399556D01*
X135850500Y-150200444D01*
X136149500Y-150200444D01*
X136149500Y-150399556D01*
X136158288Y-150420771D01*
X136225695Y-150583507D01*
X136225696Y-150583508D01*
X136225697Y-150583510D01*
X136366490Y-150724303D01*
X136550444Y-150800500D01*
X136550446Y-150800500D01*
X136749554Y-150800500D01*
X136749556Y-150800500D01*
X136897478Y-150739228D01*
X152904499Y-150739228D01*
X153026367Y-151033444D01*
X153026368Y-151033445D01*
X153026369Y-151033447D01*
X153251553Y-151258631D01*
X153545771Y-151380500D01*
X153545772Y-151380500D01*
X154414228Y-151380500D01*
X154414229Y-151380500D01*
X154708447Y-151258631D01*
X154933631Y-151033447D01*
X155055500Y-150739229D01*
X155055500Y-150420771D01*
X154933631Y-150126553D01*
X154708447Y-149901369D01*
X154708445Y-149901368D01*
X154708444Y-149901367D01*
X154474111Y-149804304D01*
X154414229Y-149779500D01*
X153545771Y-149779500D01*
X153497487Y-149799500D01*
X153251555Y-149901367D01*
X153026367Y-150126555D01*
X152904500Y-150420771D01*
X152904500Y-150739228D01*
X152904499Y-150739228D01*
X136897478Y-150739228D01*
X136933510Y-150724303D01*
X137074303Y-150583510D01*
X137150500Y-150399556D01*
X137150500Y-150200444D01*
X137074303Y-150016490D01*
X136933510Y-149875697D01*
X136933508Y-149875696D01*
X136933507Y-149875695D01*
X136845653Y-149839305D01*
X136749556Y-149799500D01*
X136550444Y-149799500D01*
X136474249Y-149831061D01*
X136366492Y-149875695D01*
X136225695Y-150016492D01*
X136180107Y-150126553D01*
X136149500Y-150200444D01*
X135850500Y-150200444D01*
X135774303Y-150016490D01*
X135633510Y-149875697D01*
X135633508Y-149875696D01*
X135633507Y-149875695D01*
X135545653Y-149839305D01*
X135449556Y-149799500D01*
X135250444Y-149799500D01*
X135174249Y-149831061D01*
X135066492Y-149875695D01*
X134925695Y-150016492D01*
X134880107Y-150126553D01*
X134849500Y-150200444D01*
X134550500Y-150200444D01*
X134474303Y-150016490D01*
X134333510Y-149875697D01*
X134333508Y-149875696D01*
X134333507Y-149875695D01*
X134245653Y-149839305D01*
X134149556Y-149799500D01*
X133950444Y-149799500D01*
X133874249Y-149831061D01*
X133766492Y-149875695D01*
X133625695Y-150016492D01*
X133580107Y-150126553D01*
X133549500Y-150200444D01*
X133250500Y-150200444D01*
X133174303Y-150016490D01*
X133033510Y-149875697D01*
X133033508Y-149875696D01*
X133033507Y-149875695D01*
X132945653Y-149839305D01*
X132849556Y-149799500D01*
X132650444Y-149799500D01*
X132574249Y-149831061D01*
X132466492Y-149875695D01*
X132325695Y-150016492D01*
X132280107Y-150126553D01*
X132249500Y-150200444D01*
X131950500Y-150200444D01*
X131874303Y-150016490D01*
X131733510Y-149875697D01*
X131733508Y-149875696D01*
X131733507Y-149875695D01*
X131645653Y-149839305D01*
X131549556Y-149799500D01*
X131350444Y-149799500D01*
X131274249Y-149831061D01*
X131166492Y-149875695D01*
X131025695Y-150016492D01*
X130980107Y-150126553D01*
X130949500Y-150200444D01*
X110300000Y-150200444D01*
X110300000Y-149280444D01*
X144239500Y-149280444D01*
X144239500Y-149479556D01*
X144279305Y-149575653D01*
X144315695Y-149663507D01*
X144315696Y-149663508D01*
X144315697Y-149663510D01*
X144456490Y-149804303D01*
X144640444Y-149880500D01*
X144640446Y-149880500D01*
X144839554Y-149880500D01*
X144839556Y-149880500D01*
X145023510Y-149804303D01*
X145164303Y-149663510D01*
X145240500Y-149479556D01*
X145240500Y-149280444D01*
X145164303Y-149096490D01*
X145023510Y-148955697D01*
X145023508Y-148955696D01*
X145023507Y-148955695D01*
X144935653Y-148919305D01*
X144839556Y-148879500D01*
X144640444Y-148879500D01*
X144564249Y-148911061D01*
X144456492Y-148955695D01*
X144315695Y-149096492D01*
X144259402Y-149232395D01*
X144239500Y-149280444D01*
X110300000Y-149280444D01*
X110300000Y-148460444D01*
X145399500Y-148460444D01*
X145399500Y-148659556D01*
X145432502Y-148739228D01*
X145475695Y-148843507D01*
X145475696Y-148843508D01*
X145475697Y-148843510D01*
X145616490Y-148984303D01*
X145800444Y-149060500D01*
X145800446Y-149060500D01*
X145999554Y-149060500D01*
X145999556Y-149060500D01*
X146183510Y-148984303D01*
X146324303Y-148843510D01*
X146367498Y-148739228D01*
X152904499Y-148739228D01*
X153026367Y-149033444D01*
X153026368Y-149033445D01*
X153026369Y-149033447D01*
X153251553Y-149258631D01*
X153545771Y-149380500D01*
X153545772Y-149380500D01*
X154414228Y-149380500D01*
X154414229Y-149380500D01*
X154708447Y-149258631D01*
X154933631Y-149033447D01*
X155055500Y-148739229D01*
X155055500Y-148420771D01*
X154933631Y-148126553D01*
X154708447Y-147901369D01*
X154708445Y-147901368D01*
X154708444Y-147901367D01*
X154518248Y-147822586D01*
X154414229Y-147779500D01*
X153545771Y-147779500D01*
X153468921Y-147811332D01*
X153251555Y-147901367D01*
X153026367Y-148126555D01*
X152904500Y-148420771D01*
X152904500Y-148739228D01*
X152904499Y-148739228D01*
X146367498Y-148739228D01*
X146400500Y-148659556D01*
X146400500Y-148460444D01*
X146324303Y-148276490D01*
X146183510Y-148135697D01*
X146183508Y-148135696D01*
X146183507Y-148135695D01*
X146095107Y-148099079D01*
X145999556Y-148059500D01*
X145800444Y-148059500D01*
X145724249Y-148091061D01*
X145616492Y-148135695D01*
X145475695Y-148276492D01*
X145419402Y-148412395D01*
X145399500Y-148460444D01*
X110300000Y-148460444D01*
X110300000Y-147709446D01*
X137749499Y-147709446D01*
X137840919Y-147930153D01*
X137840920Y-147930154D01*
X137840921Y-147930156D01*
X138009844Y-148099079D01*
X138230553Y-148190500D01*
X138230554Y-148190500D01*
X138469446Y-148190500D01*
X138469447Y-148190500D01*
X138690156Y-148099079D01*
X138859079Y-147930156D01*
X138950500Y-147709447D01*
X138950500Y-147470553D01*
X138859079Y-147249844D01*
X138690156Y-147080921D01*
X138690154Y-147080920D01*
X138690153Y-147080919D01*
X138547478Y-147021821D01*
X138469447Y-146989500D01*
X138230553Y-146989500D01*
X138172903Y-147013379D01*
X138009846Y-147080919D01*
X137840919Y-147249846D01*
X137749500Y-147470553D01*
X137749500Y-147709446D01*
X137749499Y-147709446D01*
X110300000Y-147709446D01*
X110300000Y-145689767D01*
X141921666Y-145689767D01*
X141921666Y-145888879D01*
X141956431Y-145972808D01*
X141997861Y-146072830D01*
X141997862Y-146072831D01*
X141997863Y-146072833D01*
X142138656Y-146213626D01*
X142322610Y-146289823D01*
X142322612Y-146289823D01*
X142521720Y-146289823D01*
X142521722Y-146289823D01*
X142705676Y-146213626D01*
X142846469Y-146072833D01*
X142868169Y-146020444D01*
X143199500Y-146020444D01*
X143199500Y-146219556D01*
X143228606Y-146289823D01*
X143275695Y-146403507D01*
X143275696Y-146403508D01*
X143275697Y-146403510D01*
X143416490Y-146544303D01*
X143600444Y-146620500D01*
X143600446Y-146620500D01*
X143799554Y-146620500D01*
X143799556Y-146620500D01*
X143983510Y-146544303D01*
X144124303Y-146403510D01*
X144200500Y-146219556D01*
X144200500Y-146185626D01*
X152904500Y-146185626D01*
X152904500Y-146974367D01*
X152904501Y-146974374D01*
X152930637Y-147105775D01*
X152930638Y-147105776D01*
X153030207Y-147254793D01*
X153179224Y-147354362D01*
X153179223Y-147354362D01*
X153205361Y-147359560D01*
X153310629Y-147380500D01*
X154649370Y-147380499D01*
X154780776Y-147354362D01*
X154929793Y-147254793D01*
X155029362Y-147105776D01*
X155055500Y-146974371D01*
X155055499Y-146185630D01*
X155029362Y-146054224D01*
X154929793Y-145905207D01*
X154780776Y-145805638D01*
X154780775Y-145805637D01*
X154780776Y-145805637D01*
X154649371Y-145779500D01*
X153310632Y-145779500D01*
X153310625Y-145779501D01*
X153179224Y-145805637D01*
X153179223Y-145805638D01*
X153030208Y-145905206D01*
X153030206Y-145905208D01*
X152930637Y-146054224D01*
X152904500Y-146185626D01*
X144200500Y-146185626D01*
X144200500Y-146020444D01*
X144124303Y-145836490D01*
X143983510Y-145695697D01*
X143983508Y-145695696D01*
X143983507Y-145695695D01*
X143895653Y-145659305D01*
X143799556Y-145619500D01*
X143600444Y-145619500D01*
X143524249Y-145651061D01*
X143416492Y-145695695D01*
X143275695Y-145836492D01*
X143219402Y-145972395D01*
X143199500Y-146020444D01*
X142868169Y-146020444D01*
X142922666Y-145888879D01*
X142922666Y-145689767D01*
X142846469Y-145505813D01*
X142705676Y-145365020D01*
X142705674Y-145365019D01*
X142705673Y-145365018D01*
X142617819Y-145328628D01*
X142521722Y-145288823D01*
X142322610Y-145288823D01*
X142246415Y-145320384D01*
X142138658Y-145365018D01*
X141997861Y-145505815D01*
X141950772Y-145619500D01*
X141921666Y-145689767D01*
X110300000Y-145689767D01*
X110300000Y-143680444D01*
X117819500Y-143680444D01*
X117819500Y-143879556D01*
X117828153Y-143900445D01*
X117895695Y-144063507D01*
X117895696Y-144063508D01*
X117895697Y-144063510D01*
X118036490Y-144204303D01*
X118220444Y-144280500D01*
X118220446Y-144280500D01*
X118419554Y-144280500D01*
X118419556Y-144280500D01*
X118603510Y-144204303D01*
X118744303Y-144063510D01*
X118811848Y-143900444D01*
X122499500Y-143900444D01*
X122499500Y-144099556D01*
X122539305Y-144195653D01*
X122575695Y-144283507D01*
X122575696Y-144283508D01*
X122575697Y-144283510D01*
X122716490Y-144424303D01*
X122900444Y-144500500D01*
X122900446Y-144500500D01*
X123099554Y-144500500D01*
X123099556Y-144500500D01*
X123283510Y-144424303D01*
X123424303Y-144283510D01*
X123500500Y-144099556D01*
X123500500Y-143900444D01*
X123424303Y-143716490D01*
X123283510Y-143575697D01*
X123283508Y-143575696D01*
X123283507Y-143575695D01*
X123195653Y-143539305D01*
X123099556Y-143499500D01*
X122900444Y-143499500D01*
X122824249Y-143531061D01*
X122716492Y-143575695D01*
X122575695Y-143716492D01*
X122532637Y-143820444D01*
X122499500Y-143900444D01*
X118811848Y-143900444D01*
X118820500Y-143879556D01*
X118820500Y-143680444D01*
X118744303Y-143496490D01*
X118603510Y-143355697D01*
X118603508Y-143355696D01*
X118603507Y-143355695D01*
X118527778Y-143324327D01*
X118419556Y-143279500D01*
X118220444Y-143279500D01*
X118165746Y-143302157D01*
X118036492Y-143355695D01*
X117895695Y-143496492D01*
X117851367Y-143603510D01*
X117819500Y-143680444D01*
X110300000Y-143680444D01*
X110300000Y-143220444D01*
X142559500Y-143220444D01*
X142559500Y-143419556D01*
X142591368Y-143496492D01*
X142635695Y-143603507D01*
X142635696Y-143603508D01*
X142635697Y-143603510D01*
X142776490Y-143744303D01*
X142960444Y-143820500D01*
X142960446Y-143820500D01*
X143159554Y-143820500D01*
X143159556Y-143820500D01*
X143159691Y-143820444D01*
X144219500Y-143820444D01*
X144219500Y-144019556D01*
X144259305Y-144115653D01*
X144295695Y-144203507D01*
X144295696Y-144203508D01*
X144295697Y-144203510D01*
X144436490Y-144344303D01*
X144620444Y-144420500D01*
X144620446Y-144420500D01*
X144819554Y-144420500D01*
X144819556Y-144420500D01*
X145003510Y-144344303D01*
X145144303Y-144203510D01*
X145220500Y-144019556D01*
X145220500Y-143820444D01*
X145144303Y-143636490D01*
X145003510Y-143495697D01*
X145003508Y-143495696D01*
X145003507Y-143495695D01*
X144915653Y-143459305D01*
X144819556Y-143419500D01*
X144620444Y-143419500D01*
X144544249Y-143451061D01*
X144436492Y-143495695D01*
X144295695Y-143636492D01*
X144239402Y-143772395D01*
X144219500Y-143820444D01*
X143159691Y-143820444D01*
X143343510Y-143744303D01*
X143484303Y-143603510D01*
X143560500Y-143419556D01*
X143560500Y-143220444D01*
X143484303Y-143036490D01*
X143343510Y-142895697D01*
X143343508Y-142895696D01*
X143343507Y-142895695D01*
X143279503Y-142869184D01*
X143225925Y-142815605D01*
X143225925Y-142739834D01*
X143279503Y-142686256D01*
X143380838Y-142644282D01*
X143521631Y-142503489D01*
X143543603Y-142450444D01*
X145029500Y-142450444D01*
X145029500Y-142649556D01*
X145046087Y-142689599D01*
X145105695Y-142833507D01*
X145105696Y-142833508D01*
X145105697Y-142833510D01*
X145246490Y-142974303D01*
X145430444Y-143050500D01*
X145430446Y-143050500D01*
X145629554Y-143050500D01*
X145629556Y-143050500D01*
X145813510Y-142974303D01*
X145954303Y-142833510D01*
X146030500Y-142649556D01*
X146030500Y-142450444D01*
X145954303Y-142266490D01*
X145813510Y-142125697D01*
X145813508Y-142125696D01*
X145813507Y-142125695D01*
X145725653Y-142089305D01*
X145629556Y-142049500D01*
X145430444Y-142049500D01*
X145354249Y-142081061D01*
X145246492Y-142125695D01*
X145105695Y-142266492D01*
X145077456Y-142334668D01*
X145029500Y-142450444D01*
X143543603Y-142450444D01*
X143597828Y-142319535D01*
X143597828Y-142120423D01*
X143521631Y-141936469D01*
X143380838Y-141795676D01*
X143380836Y-141795675D01*
X143380835Y-141795674D01*
X143292981Y-141759284D01*
X143196884Y-141719479D01*
X142997772Y-141719479D01*
X142921577Y-141751040D01*
X142813820Y-141795674D01*
X142673023Y-141936471D01*
X142616730Y-142072374D01*
X142596828Y-142120423D01*
X142596828Y-142319535D01*
X142630342Y-142400444D01*
X142673023Y-142503486D01*
X142673024Y-142503487D01*
X142673025Y-142503489D01*
X142813818Y-142644282D01*
X142813819Y-142644282D01*
X142813820Y-142644283D01*
X142877823Y-142670794D01*
X142931402Y-142724372D01*
X142931402Y-142800143D01*
X142877824Y-142853722D01*
X142776492Y-142895695D01*
X142635695Y-143036492D01*
X142579402Y-143172395D01*
X142559500Y-143220444D01*
X110300000Y-143220444D01*
X110300000Y-142400444D01*
X111249500Y-142400444D01*
X111249500Y-142599556D01*
X111268027Y-142644283D01*
X111325695Y-142783507D01*
X111325696Y-142783508D01*
X111325697Y-142783510D01*
X111466490Y-142924303D01*
X111650444Y-143000500D01*
X111650446Y-143000500D01*
X111849554Y-143000500D01*
X111849556Y-143000500D01*
X112033510Y-142924303D01*
X112174303Y-142783510D01*
X112250500Y-142599556D01*
X112250500Y-142400444D01*
X112749500Y-142400444D01*
X112749500Y-142599556D01*
X112768027Y-142644283D01*
X112825695Y-142783507D01*
X112825696Y-142783508D01*
X112825697Y-142783510D01*
X112966490Y-142924303D01*
X113150444Y-143000500D01*
X113150446Y-143000500D01*
X113349554Y-143000500D01*
X113349556Y-143000500D01*
X113533510Y-142924303D01*
X113674303Y-142783510D01*
X113750500Y-142599556D01*
X113750500Y-142400444D01*
X114249500Y-142400444D01*
X114249500Y-142599556D01*
X114268027Y-142644283D01*
X114325695Y-142783507D01*
X114325696Y-142783508D01*
X114325697Y-142783510D01*
X114466490Y-142924303D01*
X114650444Y-143000500D01*
X114650446Y-143000500D01*
X114849554Y-143000500D01*
X114849556Y-143000500D01*
X115033510Y-142924303D01*
X115174303Y-142783510D01*
X115250500Y-142599556D01*
X115250500Y-142400444D01*
X115749500Y-142400444D01*
X115749500Y-142599556D01*
X115768027Y-142644283D01*
X115825695Y-142783507D01*
X115825696Y-142783508D01*
X115825697Y-142783510D01*
X115966490Y-142924303D01*
X116150444Y-143000500D01*
X116150446Y-143000500D01*
X116349554Y-143000500D01*
X116349556Y-143000500D01*
X116533510Y-142924303D01*
X116674303Y-142783510D01*
X116750500Y-142599556D01*
X116750500Y-142400444D01*
X117249500Y-142400444D01*
X117249500Y-142599556D01*
X117268027Y-142644283D01*
X117325695Y-142783507D01*
X117325696Y-142783508D01*
X117325697Y-142783510D01*
X117466490Y-142924303D01*
X117650444Y-143000500D01*
X117650446Y-143000500D01*
X117849554Y-143000500D01*
X117849556Y-143000500D01*
X118033510Y-142924303D01*
X118174303Y-142783510D01*
X118250500Y-142599556D01*
X118250500Y-142400444D01*
X118749500Y-142400444D01*
X118749500Y-142599556D01*
X118768027Y-142644283D01*
X118825695Y-142783507D01*
X118825696Y-142783508D01*
X118825697Y-142783510D01*
X118966490Y-142924303D01*
X119150444Y-143000500D01*
X119150446Y-143000500D01*
X119349554Y-143000500D01*
X119349556Y-143000500D01*
X119533510Y-142924303D01*
X119674303Y-142783510D01*
X119750500Y-142599556D01*
X119750500Y-142400444D01*
X120249500Y-142400444D01*
X120249500Y-142599556D01*
X120268027Y-142644283D01*
X120325695Y-142783507D01*
X120325696Y-142783508D01*
X120325697Y-142783510D01*
X120466490Y-142924303D01*
X120650444Y-143000500D01*
X120650446Y-143000500D01*
X120849554Y-143000500D01*
X120849556Y-143000500D01*
X121033510Y-142924303D01*
X121174303Y-142783510D01*
X121250500Y-142599556D01*
X121250500Y-142400444D01*
X121749500Y-142400444D01*
X121749500Y-142599556D01*
X121768027Y-142644283D01*
X121825695Y-142783507D01*
X121825696Y-142783508D01*
X121825697Y-142783510D01*
X121966490Y-142924303D01*
X122150444Y-143000500D01*
X122150446Y-143000500D01*
X122349554Y-143000500D01*
X122349556Y-143000500D01*
X122533510Y-142924303D01*
X122674303Y-142783510D01*
X122750500Y-142599556D01*
X122750500Y-142400444D01*
X122711600Y-142306533D01*
X139743259Y-142306533D01*
X139743259Y-142505645D01*
X139766272Y-142561202D01*
X139819454Y-142689596D01*
X139819455Y-142689597D01*
X139819456Y-142689599D01*
X139960249Y-142830392D01*
X140144203Y-142906589D01*
X140144205Y-142906589D01*
X140343313Y-142906589D01*
X140343315Y-142906589D01*
X140527269Y-142830392D01*
X140668062Y-142689599D01*
X140724900Y-142552379D01*
X140778478Y-142498802D01*
X140854250Y-142498802D01*
X140886364Y-142520259D01*
X140927307Y-142561202D01*
X141111261Y-142637399D01*
X141111263Y-142637399D01*
X141310371Y-142637399D01*
X141310373Y-142637399D01*
X141494327Y-142561202D01*
X141635120Y-142420409D01*
X141711317Y-142236455D01*
X141711317Y-142037343D01*
X141635120Y-141853389D01*
X141494327Y-141712596D01*
X141494325Y-141712595D01*
X141494324Y-141712594D01*
X141406470Y-141676204D01*
X141310373Y-141636399D01*
X141111261Y-141636399D01*
X141035066Y-141667960D01*
X140927309Y-141712594D01*
X140786512Y-141853391D01*
X140729675Y-141990607D01*
X140676096Y-142044185D01*
X140600325Y-142044185D01*
X140568210Y-142022727D01*
X140527269Y-141981786D01*
X140527267Y-141981785D01*
X140527266Y-141981784D01*
X140417865Y-141936469D01*
X140343315Y-141905589D01*
X140144203Y-141905589D01*
X140069653Y-141936469D01*
X139960251Y-141981784D01*
X139819454Y-142122581D01*
X139763161Y-142258484D01*
X139743259Y-142306533D01*
X122711600Y-142306533D01*
X122674303Y-142216490D01*
X122533510Y-142075697D01*
X122533508Y-142075696D01*
X122533507Y-142075695D01*
X122445653Y-142039305D01*
X122349556Y-141999500D01*
X122150444Y-141999500D01*
X122074249Y-142031061D01*
X121966492Y-142075695D01*
X121825695Y-142216492D01*
X121769402Y-142352395D01*
X121749500Y-142400444D01*
X121250500Y-142400444D01*
X121174303Y-142216490D01*
X121033510Y-142075697D01*
X121033508Y-142075696D01*
X121033507Y-142075695D01*
X120945653Y-142039305D01*
X120849556Y-141999500D01*
X120650444Y-141999500D01*
X120574249Y-142031061D01*
X120466492Y-142075695D01*
X120325695Y-142216492D01*
X120269402Y-142352395D01*
X120249500Y-142400444D01*
X119750500Y-142400444D01*
X119674303Y-142216490D01*
X119533510Y-142075697D01*
X119533508Y-142075696D01*
X119533507Y-142075695D01*
X119445653Y-142039305D01*
X119349556Y-141999500D01*
X119150444Y-141999500D01*
X119074249Y-142031061D01*
X118966492Y-142075695D01*
X118825695Y-142216492D01*
X118769402Y-142352395D01*
X118749500Y-142400444D01*
X118250500Y-142400444D01*
X118174303Y-142216490D01*
X118033510Y-142075697D01*
X118033508Y-142075696D01*
X118033507Y-142075695D01*
X117945653Y-142039305D01*
X117849556Y-141999500D01*
X117650444Y-141999500D01*
X117574249Y-142031061D01*
X117466492Y-142075695D01*
X117325695Y-142216492D01*
X117269402Y-142352395D01*
X117249500Y-142400444D01*
X116750500Y-142400444D01*
X116674303Y-142216490D01*
X116533510Y-142075697D01*
X116533508Y-142075696D01*
X116533507Y-142075695D01*
X116445653Y-142039305D01*
X116349556Y-141999500D01*
X116150444Y-141999500D01*
X116074249Y-142031061D01*
X115966492Y-142075695D01*
X115825695Y-142216492D01*
X115769402Y-142352395D01*
X115749500Y-142400444D01*
X115250500Y-142400444D01*
X115174303Y-142216490D01*
X115033510Y-142075697D01*
X115033508Y-142075696D01*
X115033507Y-142075695D01*
X114945653Y-142039305D01*
X114849556Y-141999500D01*
X114650444Y-141999500D01*
X114574249Y-142031061D01*
X114466492Y-142075695D01*
X114325695Y-142216492D01*
X114269402Y-142352395D01*
X114249500Y-142400444D01*
X113750500Y-142400444D01*
X113674303Y-142216490D01*
X113533510Y-142075697D01*
X113533508Y-142075696D01*
X113533507Y-142075695D01*
X113445653Y-142039305D01*
X113349556Y-141999500D01*
X113150444Y-141999500D01*
X113074249Y-142031061D01*
X112966492Y-142075695D01*
X112825695Y-142216492D01*
X112769402Y-142352395D01*
X112749500Y-142400444D01*
X112250500Y-142400444D01*
X112174303Y-142216490D01*
X112033510Y-142075697D01*
X112033508Y-142075696D01*
X112033507Y-142075695D01*
X111945653Y-142039305D01*
X111849556Y-141999500D01*
X111650444Y-141999500D01*
X111574249Y-142031061D01*
X111466492Y-142075695D01*
X111325695Y-142216492D01*
X111269402Y-142352395D01*
X111249500Y-142400444D01*
X110300000Y-142400444D01*
X110300000Y-140900444D01*
X110499500Y-140900444D01*
X110499500Y-141099556D01*
X110539305Y-141195653D01*
X110575695Y-141283507D01*
X110575696Y-141283508D01*
X110575697Y-141283510D01*
X110716490Y-141424303D01*
X110900444Y-141500500D01*
X110900446Y-141500500D01*
X111099554Y-141500500D01*
X111099556Y-141500500D01*
X111283510Y-141424303D01*
X111424303Y-141283510D01*
X111500500Y-141099556D01*
X111500500Y-140900444D01*
X111424303Y-140716490D01*
X111283510Y-140575697D01*
X111283508Y-140575696D01*
X111283507Y-140575695D01*
X111195653Y-140539305D01*
X111099556Y-140499500D01*
X110900444Y-140499500D01*
X110824249Y-140531061D01*
X110716492Y-140575695D01*
X110575695Y-140716492D01*
X110550046Y-140778416D01*
X110499500Y-140900444D01*
X110300000Y-140900444D01*
X110300000Y-139902575D01*
X114322475Y-139902575D01*
X114322475Y-140101687D01*
X114350483Y-140169303D01*
X114398670Y-140285638D01*
X114398671Y-140285639D01*
X114398672Y-140285641D01*
X114539465Y-140426434D01*
X114723419Y-140502631D01*
X114723421Y-140502631D01*
X114922529Y-140502631D01*
X114922531Y-140502631D01*
X115106485Y-140426434D01*
X115247278Y-140285641D01*
X115323475Y-140101687D01*
X115323475Y-139902575D01*
X115247278Y-139718621D01*
X115174101Y-139645444D01*
X116324500Y-139645444D01*
X116324500Y-139844556D01*
X116348533Y-139902576D01*
X116400695Y-140028507D01*
X116400696Y-140028508D01*
X116400697Y-140028510D01*
X116541490Y-140169303D01*
X116725444Y-140245500D01*
X116725446Y-140245500D01*
X116924554Y-140245500D01*
X116924556Y-140245500D01*
X117086645Y-140178360D01*
X138333177Y-140178360D01*
X138333177Y-140377472D01*
X138372982Y-140473569D01*
X138409372Y-140561423D01*
X138409373Y-140561424D01*
X138409374Y-140561426D01*
X138550167Y-140702219D01*
X138734121Y-140778416D01*
X138734123Y-140778416D01*
X138933231Y-140778416D01*
X138933233Y-140778416D01*
X139117187Y-140702219D01*
X139257980Y-140561426D01*
X139334177Y-140377472D01*
X139334177Y-140178360D01*
X139280297Y-140048284D01*
X139257981Y-139994408D01*
X139257980Y-139994407D01*
X139257980Y-139994406D01*
X139117187Y-139853613D01*
X139117185Y-139853612D01*
X139117184Y-139853611D01*
X139029330Y-139817221D01*
X138933233Y-139777416D01*
X138734121Y-139777416D01*
X138657926Y-139808977D01*
X138550169Y-139853611D01*
X138409372Y-139994408D01*
X138366213Y-140098605D01*
X138333177Y-140178360D01*
X117086645Y-140178360D01*
X117108510Y-140169303D01*
X117249303Y-140028510D01*
X117325500Y-139844556D01*
X117325500Y-139645444D01*
X117249303Y-139461490D01*
X117238257Y-139450444D01*
X147099500Y-139450444D01*
X147099500Y-139649556D01*
X147128108Y-139718621D01*
X147175695Y-139833507D01*
X147175696Y-139833508D01*
X147175697Y-139833510D01*
X147316490Y-139974303D01*
X147500444Y-140050500D01*
X147500446Y-140050500D01*
X147699554Y-140050500D01*
X147699556Y-140050500D01*
X147883510Y-139974303D01*
X148024303Y-139833510D01*
X148100500Y-139649556D01*
X148100500Y-139450444D01*
X148025011Y-139268199D01*
X148025011Y-139268198D01*
X148024304Y-139266492D01*
X148024303Y-139266491D01*
X148024303Y-139266490D01*
X147997877Y-139240064D01*
X151399120Y-139240064D01*
X151399120Y-139439176D01*
X151408363Y-139461490D01*
X151475315Y-139623127D01*
X151475316Y-139623128D01*
X151475317Y-139623130D01*
X151616110Y-139763923D01*
X151800064Y-139840120D01*
X151800066Y-139840120D01*
X151999174Y-139840120D01*
X151999176Y-139840120D01*
X152183130Y-139763923D01*
X152323923Y-139623130D01*
X152400120Y-139439176D01*
X152400120Y-139240064D01*
X152323923Y-139056110D01*
X152183130Y-138915317D01*
X152183128Y-138915316D01*
X152183127Y-138915315D01*
X152095273Y-138878925D01*
X151999176Y-138839120D01*
X151800064Y-138839120D01*
X151723869Y-138870681D01*
X151616112Y-138915315D01*
X151475315Y-139056112D01*
X151422547Y-139183507D01*
X151399120Y-139240064D01*
X147997877Y-139240064D01*
X147883510Y-139125697D01*
X147883508Y-139125696D01*
X147883507Y-139125695D01*
X147795653Y-139089305D01*
X147699556Y-139049500D01*
X147500444Y-139049500D01*
X147424249Y-139081061D01*
X147316492Y-139125695D01*
X147175695Y-139266492D01*
X147151749Y-139324304D01*
X147099500Y-139450444D01*
X117238257Y-139450444D01*
X117108510Y-139320697D01*
X117108508Y-139320696D01*
X117108507Y-139320695D01*
X117020653Y-139284305D01*
X116924556Y-139244500D01*
X116725444Y-139244500D01*
X116649249Y-139276061D01*
X116541492Y-139320695D01*
X116400695Y-139461492D01*
X116352508Y-139577828D01*
X116324500Y-139645444D01*
X115174101Y-139645444D01*
X115106485Y-139577828D01*
X115106483Y-139577827D01*
X115106482Y-139577826D01*
X115018628Y-139541436D01*
X114922531Y-139501631D01*
X114723419Y-139501631D01*
X114647224Y-139533192D01*
X114539467Y-139577826D01*
X114398670Y-139718623D01*
X114351084Y-139833507D01*
X114322475Y-139902575D01*
X110300000Y-139902575D01*
X110300000Y-138210444D01*
X131419500Y-138210444D01*
X131419500Y-138409556D01*
X131432295Y-138440445D01*
X131495695Y-138593507D01*
X131495696Y-138593508D01*
X131495697Y-138593510D01*
X131636490Y-138734303D01*
X131820444Y-138810500D01*
X131820446Y-138810500D01*
X132019554Y-138810500D01*
X132019556Y-138810500D01*
X132203510Y-138734303D01*
X132344303Y-138593510D01*
X132407706Y-138440444D01*
X135099500Y-138440444D01*
X135099500Y-138639556D01*
X135138746Y-138734303D01*
X135175695Y-138823507D01*
X135175696Y-138823508D01*
X135175697Y-138823510D01*
X135316490Y-138964303D01*
X135500444Y-139040500D01*
X135500446Y-139040500D01*
X135699554Y-139040500D01*
X135699556Y-139040500D01*
X135883510Y-138964303D01*
X136024303Y-138823510D01*
X136033857Y-138800444D01*
X137080600Y-138800444D01*
X137080600Y-138999556D01*
X137120405Y-139095653D01*
X137156795Y-139183507D01*
X137156796Y-139183508D01*
X137156797Y-139183510D01*
X137297590Y-139324303D01*
X137481544Y-139400500D01*
X137481546Y-139400500D01*
X137680654Y-139400500D01*
X137680656Y-139400500D01*
X137864610Y-139324303D01*
X138005403Y-139183510D01*
X138081600Y-138999556D01*
X138081600Y-138800444D01*
X138005403Y-138616490D01*
X137864610Y-138475697D01*
X137864608Y-138475696D01*
X137864607Y-138475695D01*
X137776753Y-138439305D01*
X137680656Y-138399500D01*
X137481544Y-138399500D01*
X137405349Y-138431061D01*
X137297592Y-138475695D01*
X137156795Y-138616492D01*
X137107997Y-138734303D01*
X137080600Y-138800444D01*
X136033857Y-138800444D01*
X136100500Y-138639556D01*
X136100500Y-138440444D01*
X136024303Y-138256490D01*
X135883510Y-138115697D01*
X135883508Y-138115696D01*
X135883507Y-138115695D01*
X135795653Y-138079305D01*
X135699556Y-138039500D01*
X135500444Y-138039500D01*
X135424249Y-138071061D01*
X135316492Y-138115695D01*
X135175695Y-138256492D01*
X135119402Y-138392395D01*
X135099500Y-138440444D01*
X132407706Y-138440444D01*
X132420500Y-138409556D01*
X132420500Y-138210444D01*
X132344303Y-138026490D01*
X132203510Y-137885697D01*
X132203508Y-137885696D01*
X132203507Y-137885695D01*
X132115653Y-137849305D01*
X132019556Y-137809500D01*
X131820444Y-137809500D01*
X131744249Y-137841061D01*
X131636492Y-137885695D01*
X131495695Y-138026492D01*
X131439402Y-138162395D01*
X131419500Y-138210444D01*
X110300000Y-138210444D01*
X110300000Y-136400444D01*
X111249500Y-136400444D01*
X111249500Y-136599556D01*
X111289219Y-136695444D01*
X111325695Y-136783507D01*
X111325696Y-136783508D01*
X111325697Y-136783510D01*
X111466490Y-136924303D01*
X111650444Y-137000500D01*
X111650446Y-137000500D01*
X111849554Y-137000500D01*
X111849556Y-137000500D01*
X112033510Y-136924303D01*
X112174303Y-136783510D01*
X112250500Y-136599556D01*
X112250500Y-136400444D01*
X112248429Y-136395444D01*
X113474500Y-136395444D01*
X113474500Y-136594556D01*
X113513445Y-136688576D01*
X113550695Y-136778507D01*
X113550696Y-136778508D01*
X113550697Y-136778510D01*
X113691490Y-136919303D01*
X113875444Y-136995500D01*
X113875446Y-136995500D01*
X114074554Y-136995500D01*
X114074556Y-136995500D01*
X114258510Y-136919303D01*
X114399303Y-136778510D01*
X114433710Y-136695444D01*
X116574500Y-136695444D01*
X116574500Y-136894556D01*
X116614305Y-136990653D01*
X116650695Y-137078507D01*
X116650696Y-137078508D01*
X116650697Y-137078510D01*
X116791490Y-137219303D01*
X116975444Y-137295500D01*
X116975446Y-137295500D01*
X117174554Y-137295500D01*
X117174556Y-137295500D01*
X117358510Y-137219303D01*
X117499303Y-137078510D01*
X117575500Y-136894556D01*
X117575500Y-136695444D01*
X117561002Y-136660444D01*
X131569500Y-136660444D01*
X131569500Y-136859556D01*
X131596320Y-136924304D01*
X131645695Y-137043507D01*
X131645696Y-137043508D01*
X131645697Y-137043510D01*
X131786490Y-137184303D01*
X131970444Y-137260500D01*
X131970446Y-137260500D01*
X132169554Y-137260500D01*
X132169556Y-137260500D01*
X132353510Y-137184303D01*
X132494303Y-137043510D01*
X132570500Y-136859556D01*
X132570500Y-136660444D01*
X132516620Y-136530368D01*
X132494304Y-136476492D01*
X132494303Y-136476491D01*
X132494303Y-136476490D01*
X132353510Y-136335697D01*
X132353508Y-136335696D01*
X132353507Y-136335695D01*
X132265653Y-136299305D01*
X132232629Y-136285626D01*
X152564500Y-136285626D01*
X152564500Y-137074367D01*
X152564501Y-137074374D01*
X152590637Y-137205775D01*
X152590638Y-137205776D01*
X152690207Y-137354793D01*
X152839224Y-137454362D01*
X152839223Y-137454362D01*
X152865361Y-137459560D01*
X152970629Y-137480500D01*
X154309370Y-137480499D01*
X154440776Y-137454362D01*
X154589793Y-137354793D01*
X154689362Y-137205776D01*
X154715500Y-137074371D01*
X154715499Y-136285630D01*
X154689362Y-136154224D01*
X154589793Y-136005207D01*
X154440776Y-135905638D01*
X154440775Y-135905637D01*
X154440776Y-135905637D01*
X154309371Y-135879500D01*
X152970632Y-135879500D01*
X152970625Y-135879501D01*
X152839224Y-135905637D01*
X152839223Y-135905638D01*
X152690208Y-136005206D01*
X152690206Y-136005208D01*
X152590637Y-136154224D01*
X152564500Y-136285626D01*
X132232629Y-136285626D01*
X132169556Y-136259500D01*
X131970444Y-136259500D01*
X131894249Y-136291061D01*
X131786492Y-136335695D01*
X131645695Y-136476492D01*
X131596793Y-136594554D01*
X131569500Y-136660444D01*
X117561002Y-136660444D01*
X117538084Y-136605115D01*
X117499304Y-136511492D01*
X117499303Y-136511491D01*
X117499303Y-136511490D01*
X117358510Y-136370697D01*
X117358508Y-136370696D01*
X117358507Y-136370695D01*
X117270653Y-136334305D01*
X117174556Y-136294500D01*
X116975444Y-136294500D01*
X116899249Y-136326061D01*
X116791492Y-136370695D01*
X116650695Y-136511492D01*
X116594402Y-136647395D01*
X116574500Y-136695444D01*
X114433710Y-136695444D01*
X114475500Y-136594556D01*
X114475500Y-136395444D01*
X114399303Y-136211490D01*
X114258510Y-136070697D01*
X114258508Y-136070696D01*
X114258507Y-136070695D01*
X114170653Y-136034305D01*
X114074556Y-135994500D01*
X113875444Y-135994500D01*
X113799249Y-136026061D01*
X113691492Y-136070695D01*
X113550695Y-136211492D01*
X113499249Y-136335695D01*
X113474500Y-136395444D01*
X112248429Y-136395444D01*
X112174303Y-136216490D01*
X112033510Y-136075697D01*
X112033508Y-136075696D01*
X112033507Y-136075695D01*
X111945653Y-136039305D01*
X111849556Y-135999500D01*
X111650444Y-135999500D01*
X111574249Y-136031061D01*
X111466492Y-136075695D01*
X111325695Y-136216492D01*
X111276320Y-136335695D01*
X111249500Y-136400444D01*
X110300000Y-136400444D01*
X110300000Y-134775626D01*
X124292738Y-134775626D01*
X124292738Y-135564367D01*
X124292739Y-135564374D01*
X124318875Y-135695775D01*
X124318876Y-135695776D01*
X124418445Y-135844793D01*
X124567462Y-135944362D01*
X124567461Y-135944362D01*
X124593599Y-135949560D01*
X124698867Y-135970500D01*
X126037608Y-135970499D01*
X126169014Y-135944362D01*
X126318031Y-135844793D01*
X126417600Y-135695776D01*
X126443738Y-135564371D01*
X126443738Y-135475444D01*
X137249500Y-135475444D01*
X137249500Y-135674556D01*
X137258290Y-135695776D01*
X137325695Y-135858507D01*
X137325696Y-135858508D01*
X137325697Y-135858510D01*
X137466490Y-135999303D01*
X137466491Y-135999303D01*
X137466492Y-135999304D01*
X137480741Y-136005206D01*
X137650444Y-136075500D01*
X137650446Y-136075500D01*
X137849554Y-136075500D01*
X137849556Y-136075500D01*
X138033510Y-135999303D01*
X138174303Y-135858510D01*
X138250500Y-135674556D01*
X138250500Y-135475444D01*
X138174303Y-135291490D01*
X138033510Y-135150697D01*
X138033508Y-135150696D01*
X138033507Y-135150695D01*
X137945653Y-135114305D01*
X137849556Y-135074500D01*
X137650444Y-135074500D01*
X137574249Y-135106061D01*
X137466492Y-135150695D01*
X137325695Y-135291492D01*
X137269402Y-135427395D01*
X137249500Y-135475444D01*
X126443738Y-135475444D01*
X126443737Y-135150697D01*
X126443737Y-134775632D01*
X126443736Y-134775625D01*
X126417600Y-134644224D01*
X126417599Y-134644223D01*
X126318031Y-134495207D01*
X126169014Y-134395638D01*
X126169013Y-134395637D01*
X126169014Y-134395637D01*
X126037609Y-134369500D01*
X124698870Y-134369500D01*
X124698863Y-134369501D01*
X124567462Y-134395637D01*
X124567461Y-134395638D01*
X124418446Y-134495206D01*
X124418444Y-134495208D01*
X124318875Y-134644224D01*
X124292738Y-134775626D01*
X110300000Y-134775626D01*
X110300000Y-133400444D01*
X118749500Y-133400444D01*
X118749500Y-133599556D01*
X118789305Y-133695653D01*
X118825695Y-133783507D01*
X118825696Y-133783508D01*
X118825697Y-133783510D01*
X118966490Y-133924303D01*
X119150444Y-134000500D01*
X119150446Y-134000500D01*
X119349554Y-134000500D01*
X119349556Y-134000500D01*
X119533510Y-133924303D01*
X119674303Y-133783510D01*
X119750500Y-133599556D01*
X119750500Y-133400444D01*
X120249500Y-133400444D01*
X120249500Y-133599556D01*
X120289305Y-133695653D01*
X120325695Y-133783507D01*
X120325696Y-133783508D01*
X120325697Y-133783510D01*
X120466490Y-133924303D01*
X120650444Y-134000500D01*
X120650446Y-134000500D01*
X120849554Y-134000500D01*
X120849556Y-134000500D01*
X121033510Y-133924303D01*
X121174303Y-133783510D01*
X121250500Y-133599556D01*
X121250500Y-133400444D01*
X121749500Y-133400444D01*
X121749500Y-133599556D01*
X121789305Y-133695653D01*
X121825695Y-133783507D01*
X121825696Y-133783508D01*
X121825697Y-133783510D01*
X121966490Y-133924303D01*
X122150444Y-134000500D01*
X122150446Y-134000500D01*
X122349554Y-134000500D01*
X122349556Y-134000500D01*
X122533510Y-133924303D01*
X122674303Y-133783510D01*
X122750500Y-133599556D01*
X122750500Y-133400444D01*
X122721001Y-133329228D01*
X124292737Y-133329228D01*
X124414605Y-133623444D01*
X124414606Y-133623445D01*
X124414607Y-133623447D01*
X124639791Y-133848631D01*
X124639792Y-133848631D01*
X124639793Y-133848632D01*
X124690308Y-133869556D01*
X124934009Y-133970500D01*
X124934010Y-133970500D01*
X125802466Y-133970500D01*
X125802467Y-133970500D01*
X126096685Y-133848631D01*
X126274872Y-133670444D01*
X135349500Y-133670444D01*
X135349500Y-133869556D01*
X135372178Y-133924304D01*
X135425695Y-134053507D01*
X135425696Y-134053508D01*
X135425697Y-134053510D01*
X135566490Y-134194303D01*
X135750444Y-134270500D01*
X135750446Y-134270500D01*
X135949554Y-134270500D01*
X135949556Y-134270500D01*
X136133510Y-134194303D01*
X136274303Y-134053510D01*
X136350500Y-133869556D01*
X136350500Y-133670444D01*
X136274303Y-133486490D01*
X136133510Y-133345697D01*
X136133508Y-133345696D01*
X136133507Y-133345695D01*
X136045653Y-133309305D01*
X135949556Y-133269500D01*
X135750444Y-133269500D01*
X135674249Y-133301061D01*
X135566492Y-133345695D01*
X135425695Y-133486492D01*
X135409127Y-133526492D01*
X135349500Y-133670444D01*
X126274872Y-133670444D01*
X126321869Y-133623447D01*
X126443738Y-133329229D01*
X126443738Y-133010771D01*
X126389755Y-132880444D01*
X137199500Y-132880444D01*
X137199500Y-133079556D01*
X137239305Y-133175653D01*
X137275695Y-133263507D01*
X137275696Y-133263508D01*
X137275697Y-133263510D01*
X137347183Y-133334996D01*
X137376179Y-133404999D01*
X137347184Y-133475001D01*
X137295696Y-133526489D01*
X137236761Y-133668771D01*
X137219500Y-133710444D01*
X137219500Y-133909556D01*
X137244744Y-133970500D01*
X137295695Y-134093507D01*
X137295696Y-134093508D01*
X137295697Y-134093510D01*
X137436490Y-134234303D01*
X137620444Y-134310500D01*
X137620446Y-134310500D01*
X137819554Y-134310500D01*
X137819556Y-134310500D01*
X138003510Y-134234303D01*
X138039997Y-134197815D01*
X138110000Y-134168820D01*
X138180002Y-134197815D01*
X138216490Y-134234303D01*
X138400444Y-134310500D01*
X138400446Y-134310500D01*
X138599554Y-134310500D01*
X138599556Y-134310500D01*
X138783510Y-134234303D01*
X138924303Y-134093510D01*
X139000500Y-133909556D01*
X139000500Y-133710444D01*
X138924303Y-133526490D01*
X138847814Y-133450001D01*
X138818819Y-133379999D01*
X138847813Y-133309999D01*
X138914303Y-133243510D01*
X138990500Y-133059556D01*
X138990500Y-132860444D01*
X138914303Y-132676490D01*
X138773510Y-132535697D01*
X138773508Y-132535696D01*
X138773507Y-132535695D01*
X138685653Y-132499305D01*
X138589556Y-132459500D01*
X138390444Y-132459500D01*
X138322492Y-132487646D01*
X138206489Y-132535696D01*
X138155001Y-132587184D01*
X138084997Y-132616179D01*
X138014996Y-132587183D01*
X137983510Y-132555697D01*
X137983508Y-132555696D01*
X137983507Y-132555695D01*
X137895653Y-132519305D01*
X137799556Y-132479500D01*
X137600444Y-132479500D01*
X137524249Y-132511061D01*
X137416492Y-132555695D01*
X137275695Y-132696492D01*
X137219402Y-132832395D01*
X137199500Y-132880444D01*
X126389755Y-132880444D01*
X126321869Y-132716553D01*
X126096685Y-132491369D01*
X126096683Y-132491368D01*
X126096682Y-132491367D01*
X125906486Y-132412586D01*
X125802467Y-132369500D01*
X124934009Y-132369500D01*
X124857159Y-132401332D01*
X124639793Y-132491367D01*
X124414605Y-132716555D01*
X124292738Y-133010771D01*
X124292738Y-133329228D01*
X124292737Y-133329228D01*
X122721001Y-133329228D01*
X122674303Y-133216490D01*
X122533510Y-133075697D01*
X122533508Y-133075696D01*
X122533507Y-133075695D01*
X122445653Y-133039305D01*
X122349556Y-132999500D01*
X122150444Y-132999500D01*
X122074249Y-133031061D01*
X121966492Y-133075695D01*
X121825695Y-133216492D01*
X121776610Y-133334995D01*
X121749500Y-133400444D01*
X121250500Y-133400444D01*
X121174303Y-133216490D01*
X121033510Y-133075697D01*
X121033508Y-133075696D01*
X121033507Y-133075695D01*
X120945653Y-133039305D01*
X120849556Y-132999500D01*
X120650444Y-132999500D01*
X120574249Y-133031061D01*
X120466492Y-133075695D01*
X120325695Y-133216492D01*
X120276610Y-133334995D01*
X120249500Y-133400444D01*
X119750500Y-133400444D01*
X119674303Y-133216490D01*
X119533510Y-133075697D01*
X119533508Y-133075696D01*
X119533507Y-133075695D01*
X119445653Y-133039305D01*
X119349556Y-132999500D01*
X119150444Y-132999500D01*
X119074249Y-133031061D01*
X118966492Y-133075695D01*
X118825695Y-133216492D01*
X118776610Y-133334995D01*
X118749500Y-133400444D01*
X110300000Y-133400444D01*
X110300000Y-131900444D01*
X117999500Y-131900444D01*
X117999500Y-132099556D01*
X118039305Y-132195653D01*
X118075695Y-132283507D01*
X118075696Y-132283508D01*
X118075697Y-132283510D01*
X118216490Y-132424303D01*
X118400444Y-132500500D01*
X118400446Y-132500500D01*
X118599554Y-132500500D01*
X118599556Y-132500500D01*
X118783510Y-132424303D01*
X118924303Y-132283510D01*
X119000500Y-132099556D01*
X119000500Y-131900444D01*
X119499500Y-131900444D01*
X119499500Y-132099556D01*
X119539305Y-132195653D01*
X119575695Y-132283507D01*
X119575696Y-132283508D01*
X119575697Y-132283510D01*
X119716490Y-132424303D01*
X119900444Y-132500500D01*
X119900446Y-132500500D01*
X120099554Y-132500500D01*
X120099556Y-132500500D01*
X120283510Y-132424303D01*
X120424303Y-132283510D01*
X120500500Y-132099556D01*
X120500500Y-131900444D01*
X120999500Y-131900444D01*
X120999500Y-132099556D01*
X121039305Y-132195653D01*
X121075695Y-132283507D01*
X121075696Y-132283508D01*
X121075697Y-132283510D01*
X121216490Y-132424303D01*
X121400444Y-132500500D01*
X121400446Y-132500500D01*
X121599554Y-132500500D01*
X121599556Y-132500500D01*
X121783510Y-132424303D01*
X121924303Y-132283510D01*
X122000500Y-132099556D01*
X122000500Y-131900444D01*
X121924303Y-131716490D01*
X121783510Y-131575697D01*
X121783508Y-131575696D01*
X121783507Y-131575695D01*
X121695653Y-131539305D01*
X121599556Y-131499500D01*
X121400444Y-131499500D01*
X121324249Y-131531061D01*
X121216492Y-131575695D01*
X121075695Y-131716492D01*
X121019402Y-131852395D01*
X120999500Y-131900444D01*
X120500500Y-131900444D01*
X120424303Y-131716490D01*
X120283510Y-131575697D01*
X120283508Y-131575696D01*
X120283507Y-131575695D01*
X120195653Y-131539305D01*
X120099556Y-131499500D01*
X119900444Y-131499500D01*
X119824249Y-131531061D01*
X119716492Y-131575695D01*
X119575695Y-131716492D01*
X119519402Y-131852395D01*
X119499500Y-131900444D01*
X119000500Y-131900444D01*
X118924303Y-131716490D01*
X118783510Y-131575697D01*
X118783508Y-131575696D01*
X118783507Y-131575695D01*
X118695653Y-131539305D01*
X118599556Y-131499500D01*
X118400444Y-131499500D01*
X118324249Y-131531061D01*
X118216492Y-131575695D01*
X118075695Y-131716492D01*
X118019402Y-131852395D01*
X117999500Y-131900444D01*
X110300000Y-131900444D01*
X110300000Y-130400444D01*
X118749500Y-130400444D01*
X118749500Y-130599556D01*
X118789305Y-130695653D01*
X118825695Y-130783507D01*
X118825696Y-130783508D01*
X118825697Y-130783510D01*
X118966490Y-130924303D01*
X119150444Y-131000500D01*
X119150446Y-131000500D01*
X119349554Y-131000500D01*
X119349556Y-131000500D01*
X119533510Y-130924303D01*
X119674303Y-130783510D01*
X119750500Y-130599556D01*
X119750500Y-130400444D01*
X119674303Y-130216490D01*
X119533510Y-130075697D01*
X119533508Y-130075696D01*
X119533507Y-130075695D01*
X119445653Y-130039305D01*
X119349556Y-129999500D01*
X119150444Y-129999500D01*
X119074249Y-130031061D01*
X118966492Y-130075695D01*
X118825695Y-130216492D01*
X118769402Y-130352395D01*
X118749500Y-130400444D01*
X110300000Y-130400444D01*
X110300000Y-125399000D01*
X110328996Y-125328996D01*
X110399000Y-125300000D01*
X120876000Y-125300000D01*
X120946004Y-125328996D01*
G37*
%TD.AperFunction*%
%TD*%
%TA.AperFunction,Conductor*%
%TO.N,GND*%
G36*
X91370504Y-123479496D02*
G01*
X91399500Y-123549500D01*
X91399500Y-146102680D01*
X91370504Y-146172684D01*
X91300500Y-146201680D01*
X91230497Y-146172684D01*
X91133510Y-146075697D01*
X91133508Y-146075696D01*
X91133507Y-146075695D01*
X91045653Y-146039305D01*
X90949556Y-145999500D01*
X90750444Y-145999500D01*
X90674249Y-146031061D01*
X90566492Y-146075695D01*
X90425695Y-146216492D01*
X90369402Y-146352395D01*
X90349500Y-146400444D01*
X90349500Y-146599556D01*
X90389305Y-146695653D01*
X90425695Y-146783507D01*
X90425696Y-146783508D01*
X90425697Y-146783510D01*
X90566490Y-146924303D01*
X90750444Y-147000500D01*
X90750446Y-147000500D01*
X90949554Y-147000500D01*
X90949556Y-147000500D01*
X91133510Y-146924303D01*
X91230497Y-146827315D01*
X91300500Y-146798320D01*
X91370504Y-146827316D01*
X91399500Y-146897320D01*
X91399500Y-148502680D01*
X91370504Y-148572684D01*
X91300500Y-148601680D01*
X91230497Y-148572684D01*
X91133510Y-148475697D01*
X91133508Y-148475696D01*
X91133507Y-148475695D01*
X91045653Y-148439305D01*
X90949556Y-148399500D01*
X90750444Y-148399500D01*
X90674249Y-148431061D01*
X90566492Y-148475695D01*
X90425695Y-148616492D01*
X90369402Y-148752395D01*
X90349500Y-148800444D01*
X90349500Y-148999556D01*
X90389305Y-149095653D01*
X90425695Y-149183507D01*
X90425696Y-149183508D01*
X90425697Y-149183510D01*
X90566490Y-149324303D01*
X90750444Y-149400500D01*
X90750446Y-149400500D01*
X90949554Y-149400500D01*
X90949556Y-149400500D01*
X91133510Y-149324303D01*
X91230497Y-149227315D01*
X91300500Y-149198320D01*
X91370504Y-149227316D01*
X91399500Y-149297320D01*
X91399500Y-150902680D01*
X91370504Y-150972684D01*
X91300500Y-151001680D01*
X91230497Y-150972684D01*
X91133510Y-150875697D01*
X91133508Y-150875696D01*
X91133507Y-150875695D01*
X91045653Y-150839305D01*
X90949556Y-150799500D01*
X90750444Y-150799500D01*
X90674249Y-150831061D01*
X90566492Y-150875695D01*
X90425695Y-151016492D01*
X90369402Y-151152395D01*
X90349500Y-151200444D01*
X90349500Y-151399556D01*
X90389305Y-151495653D01*
X90425695Y-151583507D01*
X90425696Y-151583508D01*
X90425697Y-151583510D01*
X90566490Y-151724303D01*
X90750444Y-151800500D01*
X90750446Y-151800500D01*
X90949554Y-151800500D01*
X90949556Y-151800500D01*
X91133510Y-151724303D01*
X91230497Y-151627315D01*
X91300500Y-151598320D01*
X91370504Y-151627316D01*
X91399500Y-151697320D01*
X91399500Y-153302680D01*
X91370504Y-153372684D01*
X91300500Y-153401680D01*
X91230497Y-153372684D01*
X91133510Y-153275697D01*
X91133508Y-153275696D01*
X91133507Y-153275695D01*
X91045653Y-153239305D01*
X90949556Y-153199500D01*
X90750444Y-153199500D01*
X90674249Y-153231061D01*
X90566492Y-153275695D01*
X90425695Y-153416492D01*
X90369402Y-153552395D01*
X90349500Y-153600444D01*
X90349500Y-153799556D01*
X90389305Y-153895653D01*
X90425695Y-153983507D01*
X90425696Y-153983508D01*
X90425697Y-153983510D01*
X90566490Y-154124303D01*
X90750444Y-154200500D01*
X90750446Y-154200500D01*
X90949554Y-154200500D01*
X90949556Y-154200500D01*
X91133510Y-154124303D01*
X91230497Y-154027315D01*
X91300500Y-153998320D01*
X91370504Y-154027316D01*
X91399500Y-154097320D01*
X91399500Y-155702680D01*
X91370504Y-155772684D01*
X91300500Y-155801680D01*
X91230497Y-155772684D01*
X91133510Y-155675697D01*
X91133508Y-155675696D01*
X91133507Y-155675695D01*
X91045653Y-155639305D01*
X90949556Y-155599500D01*
X90750444Y-155599500D01*
X90674249Y-155631061D01*
X90566492Y-155675695D01*
X90425695Y-155816492D01*
X90369402Y-155952395D01*
X90349500Y-156000444D01*
X90349500Y-156199556D01*
X90389305Y-156295653D01*
X90425695Y-156383507D01*
X90425696Y-156383508D01*
X90425697Y-156383510D01*
X90566490Y-156524303D01*
X90750444Y-156600500D01*
X90750446Y-156600500D01*
X90949554Y-156600500D01*
X90949556Y-156600500D01*
X91133510Y-156524303D01*
X91230497Y-156427315D01*
X91300500Y-156398320D01*
X91370504Y-156427316D01*
X91399500Y-156497320D01*
X91399500Y-158102680D01*
X91370504Y-158172684D01*
X91300500Y-158201680D01*
X91230497Y-158172684D01*
X91133510Y-158075697D01*
X91133508Y-158075696D01*
X91133507Y-158075695D01*
X91045653Y-158039305D01*
X90949556Y-157999500D01*
X90750444Y-157999500D01*
X90674249Y-158031061D01*
X90566492Y-158075695D01*
X90425695Y-158216492D01*
X90369402Y-158352395D01*
X90349500Y-158400444D01*
X90349500Y-158599556D01*
X90389305Y-158695653D01*
X90425695Y-158783507D01*
X90425696Y-158783508D01*
X90425697Y-158783510D01*
X90566490Y-158924303D01*
X90750444Y-159000500D01*
X90750446Y-159000500D01*
X90949554Y-159000500D01*
X90949556Y-159000500D01*
X91133510Y-158924303D01*
X91230497Y-158827315D01*
X91300500Y-158798320D01*
X91370504Y-158827316D01*
X91399500Y-158897320D01*
X91399500Y-160502680D01*
X91370504Y-160572684D01*
X91300500Y-160601680D01*
X91230497Y-160572684D01*
X91133510Y-160475697D01*
X91133508Y-160475696D01*
X91133507Y-160475695D01*
X91045653Y-160439305D01*
X90949556Y-160399500D01*
X90750444Y-160399500D01*
X90674249Y-160431061D01*
X90566492Y-160475695D01*
X90425695Y-160616492D01*
X90369402Y-160752395D01*
X90349500Y-160800444D01*
X90349500Y-160999556D01*
X90389305Y-161095653D01*
X90425695Y-161183507D01*
X90425696Y-161183508D01*
X90425697Y-161183510D01*
X90566490Y-161324303D01*
X90750444Y-161400500D01*
X90750446Y-161400500D01*
X90949554Y-161400500D01*
X90949556Y-161400500D01*
X91133510Y-161324303D01*
X91230497Y-161227315D01*
X91300500Y-161198320D01*
X91370504Y-161227316D01*
X91399500Y-161297320D01*
X91399500Y-187850500D01*
X91370504Y-187920504D01*
X91300500Y-187949500D01*
X72999500Y-187949500D01*
X72929496Y-187920504D01*
X72900500Y-187850500D01*
X72900500Y-186374228D01*
X76359499Y-186374228D01*
X76481367Y-186668444D01*
X76481368Y-186668445D01*
X76481369Y-186668447D01*
X76706553Y-186893631D01*
X77000771Y-187015500D01*
X77000772Y-187015500D01*
X77319228Y-187015500D01*
X77319229Y-187015500D01*
X77613447Y-186893631D01*
X77838631Y-186668447D01*
X77960500Y-186374229D01*
X77960500Y-186374228D01*
X78359499Y-186374228D01*
X78481367Y-186668444D01*
X78481368Y-186668445D01*
X78481369Y-186668447D01*
X78706553Y-186893631D01*
X79000771Y-187015500D01*
X79000772Y-187015500D01*
X79319228Y-187015500D01*
X79319229Y-187015500D01*
X79613447Y-186893631D01*
X79838631Y-186668447D01*
X79960500Y-186374229D01*
X79960500Y-186374228D01*
X80359499Y-186374228D01*
X80481367Y-186668444D01*
X80481368Y-186668445D01*
X80481369Y-186668447D01*
X80706553Y-186893631D01*
X81000771Y-187015500D01*
X81000772Y-187015500D01*
X81319228Y-187015500D01*
X81319229Y-187015500D01*
X81613447Y-186893631D01*
X81838631Y-186668447D01*
X81960500Y-186374229D01*
X81960500Y-186374228D01*
X84359499Y-186374228D01*
X84481367Y-186668444D01*
X84481368Y-186668445D01*
X84481369Y-186668447D01*
X84706553Y-186893631D01*
X85000771Y-187015500D01*
X85000772Y-187015500D01*
X85319228Y-187015500D01*
X85319229Y-187015500D01*
X85613447Y-186893631D01*
X85838631Y-186668447D01*
X85960500Y-186374229D01*
X85960500Y-185505771D01*
X85876780Y-185303651D01*
X85863100Y-185270626D01*
X86359500Y-185270626D01*
X86359500Y-186609367D01*
X86359501Y-186609374D01*
X86385637Y-186740775D01*
X86385638Y-186740776D01*
X86485207Y-186889793D01*
X86634224Y-186989362D01*
X86634223Y-186989362D01*
X86660361Y-186994560D01*
X86765629Y-187015500D01*
X87554370Y-187015499D01*
X87685776Y-186989362D01*
X87834793Y-186889793D01*
X87934362Y-186740776D01*
X87960500Y-186609371D01*
X87960499Y-185270630D01*
X87934362Y-185139224D01*
X87834793Y-184990207D01*
X87685776Y-184890638D01*
X87685775Y-184890637D01*
X87685776Y-184890637D01*
X87554371Y-184864500D01*
X86765632Y-184864500D01*
X86765625Y-184864501D01*
X86634224Y-184890637D01*
X86634223Y-184890638D01*
X86485208Y-184990206D01*
X86485206Y-184990208D01*
X86385637Y-185139224D01*
X86359500Y-185270626D01*
X85863100Y-185270626D01*
X85838632Y-185211555D01*
X85838631Y-185211554D01*
X85838631Y-185211553D01*
X85613447Y-184986369D01*
X85613445Y-184986368D01*
X85613444Y-184986367D01*
X85423248Y-184907586D01*
X85319229Y-184864500D01*
X85000771Y-184864500D01*
X84937671Y-184890637D01*
X84706555Y-184986367D01*
X84481367Y-185211555D01*
X84359500Y-185505771D01*
X84359500Y-186374228D01*
X84359499Y-186374228D01*
X81960500Y-186374228D01*
X81960500Y-185505771D01*
X81863102Y-185270632D01*
X81838632Y-185211555D01*
X81838631Y-185211554D01*
X81838631Y-185211553D01*
X81613447Y-184986369D01*
X81613445Y-184986368D01*
X81613444Y-184986367D01*
X81423248Y-184907586D01*
X81319229Y-184864500D01*
X81000771Y-184864500D01*
X80937671Y-184890637D01*
X80706555Y-184986367D01*
X80481367Y-185211555D01*
X80359500Y-185505771D01*
X80359500Y-186374228D01*
X80359499Y-186374228D01*
X79960500Y-186374228D01*
X79960500Y-185505771D01*
X79863102Y-185270632D01*
X79838632Y-185211555D01*
X79838631Y-185211554D01*
X79838631Y-185211553D01*
X79613447Y-184986369D01*
X79613445Y-184986368D01*
X79613444Y-184986367D01*
X79423248Y-184907586D01*
X79319229Y-184864500D01*
X79000771Y-184864500D01*
X78937671Y-184890637D01*
X78706555Y-184986367D01*
X78481367Y-185211555D01*
X78359500Y-185505771D01*
X78359500Y-186374228D01*
X78359499Y-186374228D01*
X77960500Y-186374228D01*
X77960500Y-185505771D01*
X77863102Y-185270632D01*
X77838632Y-185211555D01*
X77838631Y-185211554D01*
X77838631Y-185211553D01*
X77613447Y-184986369D01*
X77613445Y-184986368D01*
X77613444Y-184986367D01*
X77423248Y-184907586D01*
X77319229Y-184864500D01*
X77000771Y-184864500D01*
X76937671Y-184890637D01*
X76706555Y-184986367D01*
X76481367Y-185211555D01*
X76359500Y-185505771D01*
X76359500Y-186374228D01*
X76359499Y-186374228D01*
X72900500Y-186374228D01*
X72900500Y-181080444D01*
X80629500Y-181080444D01*
X80629500Y-181279556D01*
X80669305Y-181375653D01*
X80705695Y-181463507D01*
X80705696Y-181463508D01*
X80705697Y-181463510D01*
X80846490Y-181604303D01*
X81030444Y-181680500D01*
X81030446Y-181680500D01*
X81229554Y-181680500D01*
X81229556Y-181680500D01*
X81413510Y-181604303D01*
X81554303Y-181463510D01*
X81630500Y-181279556D01*
X81630500Y-181080444D01*
X81554303Y-180896490D01*
X81413510Y-180755697D01*
X81413508Y-180755696D01*
X81413507Y-180755695D01*
X81325653Y-180719305D01*
X81229556Y-180679500D01*
X81030444Y-180679500D01*
X80954249Y-180711061D01*
X80846492Y-180755695D01*
X80705695Y-180896492D01*
X80649402Y-181032395D01*
X80629500Y-181080444D01*
X72900500Y-181080444D01*
X72900500Y-160800444D01*
X87949500Y-160800444D01*
X87949500Y-160999556D01*
X87989305Y-161095653D01*
X88025695Y-161183507D01*
X88025696Y-161183508D01*
X88025697Y-161183510D01*
X88166490Y-161324303D01*
X88350444Y-161400500D01*
X88350446Y-161400500D01*
X88549554Y-161400500D01*
X88549556Y-161400500D01*
X88733510Y-161324303D01*
X88874303Y-161183510D01*
X88950500Y-160999556D01*
X88950500Y-160800444D01*
X89149500Y-160800444D01*
X89149500Y-160999556D01*
X89189305Y-161095653D01*
X89225695Y-161183507D01*
X89225696Y-161183508D01*
X89225697Y-161183510D01*
X89366490Y-161324303D01*
X89550444Y-161400500D01*
X89550446Y-161400500D01*
X89749554Y-161400500D01*
X89749556Y-161400500D01*
X89933510Y-161324303D01*
X90074303Y-161183510D01*
X90150500Y-160999556D01*
X90150500Y-160800444D01*
X90074303Y-160616490D01*
X89933510Y-160475697D01*
X89933508Y-160475696D01*
X89933507Y-160475695D01*
X89845653Y-160439305D01*
X89749556Y-160399500D01*
X89550444Y-160399500D01*
X89474249Y-160431061D01*
X89366492Y-160475695D01*
X89225695Y-160616492D01*
X89169402Y-160752395D01*
X89149500Y-160800444D01*
X88950500Y-160800444D01*
X88874303Y-160616490D01*
X88733510Y-160475697D01*
X88733508Y-160475696D01*
X88733507Y-160475695D01*
X88645653Y-160439305D01*
X88549556Y-160399500D01*
X88350444Y-160399500D01*
X88274249Y-160431061D01*
X88166492Y-160475695D01*
X88025695Y-160616492D01*
X87969402Y-160752395D01*
X87949500Y-160800444D01*
X72900500Y-160800444D01*
X72900500Y-159600444D01*
X88549500Y-159600444D01*
X88549500Y-159799556D01*
X88589305Y-159895653D01*
X88625695Y-159983507D01*
X88625696Y-159983508D01*
X88625697Y-159983510D01*
X88766490Y-160124303D01*
X88950444Y-160200500D01*
X88950446Y-160200500D01*
X89149554Y-160200500D01*
X89149556Y-160200500D01*
X89333510Y-160124303D01*
X89474303Y-159983510D01*
X89550500Y-159799556D01*
X89550500Y-159600444D01*
X89749500Y-159600444D01*
X89749500Y-159799556D01*
X89789305Y-159895653D01*
X89825695Y-159983507D01*
X89825696Y-159983508D01*
X89825697Y-159983510D01*
X89966490Y-160124303D01*
X90150444Y-160200500D01*
X90150446Y-160200500D01*
X90349554Y-160200500D01*
X90349556Y-160200500D01*
X90533510Y-160124303D01*
X90674303Y-159983510D01*
X90750500Y-159799556D01*
X90750500Y-159600444D01*
X90674303Y-159416490D01*
X90533510Y-159275697D01*
X90533508Y-159275696D01*
X90533507Y-159275695D01*
X90445653Y-159239305D01*
X90349556Y-159199500D01*
X90150444Y-159199500D01*
X90074249Y-159231061D01*
X89966492Y-159275695D01*
X89825695Y-159416492D01*
X89769402Y-159552395D01*
X89749500Y-159600444D01*
X89550500Y-159600444D01*
X89474303Y-159416490D01*
X89333510Y-159275697D01*
X89333508Y-159275696D01*
X89333507Y-159275695D01*
X89245653Y-159239305D01*
X89149556Y-159199500D01*
X88950444Y-159199500D01*
X88874249Y-159231061D01*
X88766492Y-159275695D01*
X88625695Y-159416492D01*
X88569402Y-159552395D01*
X88549500Y-159600444D01*
X72900500Y-159600444D01*
X72900500Y-158400444D01*
X87949500Y-158400444D01*
X87949500Y-158599556D01*
X87989305Y-158695653D01*
X88025695Y-158783507D01*
X88025696Y-158783508D01*
X88025697Y-158783510D01*
X88166490Y-158924303D01*
X88350444Y-159000500D01*
X88350446Y-159000500D01*
X88549554Y-159000500D01*
X88549556Y-159000500D01*
X88733510Y-158924303D01*
X88874303Y-158783510D01*
X88950500Y-158599556D01*
X88950500Y-158400444D01*
X89149500Y-158400444D01*
X89149500Y-158599556D01*
X89189305Y-158695653D01*
X89225695Y-158783507D01*
X89225696Y-158783508D01*
X89225697Y-158783510D01*
X89366490Y-158924303D01*
X89550444Y-159000500D01*
X89550446Y-159000500D01*
X89749554Y-159000500D01*
X89749556Y-159000500D01*
X89933510Y-158924303D01*
X90074303Y-158783510D01*
X90150500Y-158599556D01*
X90150500Y-158400444D01*
X90074303Y-158216490D01*
X89933510Y-158075697D01*
X89933508Y-158075696D01*
X89933507Y-158075695D01*
X89845653Y-158039305D01*
X89749556Y-157999500D01*
X89550444Y-157999500D01*
X89474249Y-158031061D01*
X89366492Y-158075695D01*
X89225695Y-158216492D01*
X89169402Y-158352395D01*
X89149500Y-158400444D01*
X88950500Y-158400444D01*
X88874303Y-158216490D01*
X88733510Y-158075697D01*
X88733508Y-158075696D01*
X88733507Y-158075695D01*
X88645653Y-158039305D01*
X88549556Y-157999500D01*
X88350444Y-157999500D01*
X88274249Y-158031061D01*
X88166492Y-158075695D01*
X88025695Y-158216492D01*
X87969402Y-158352395D01*
X87949500Y-158400444D01*
X72900500Y-158400444D01*
X72900500Y-157200444D01*
X88549500Y-157200444D01*
X88549500Y-157399556D01*
X88589305Y-157495653D01*
X88625695Y-157583507D01*
X88625696Y-157583508D01*
X88625697Y-157583510D01*
X88766490Y-157724303D01*
X88950444Y-157800500D01*
X88950446Y-157800500D01*
X89149554Y-157800500D01*
X89149556Y-157800500D01*
X89333510Y-157724303D01*
X89474303Y-157583510D01*
X89550500Y-157399556D01*
X89550500Y-157200444D01*
X89749500Y-157200444D01*
X89749500Y-157399556D01*
X89789305Y-157495653D01*
X89825695Y-157583507D01*
X89825696Y-157583508D01*
X89825697Y-157583510D01*
X89966490Y-157724303D01*
X90150444Y-157800500D01*
X90150446Y-157800500D01*
X90349554Y-157800500D01*
X90349556Y-157800500D01*
X90533510Y-157724303D01*
X90674303Y-157583510D01*
X90750500Y-157399556D01*
X90750500Y-157200444D01*
X90674303Y-157016490D01*
X90533510Y-156875697D01*
X90533508Y-156875696D01*
X90533507Y-156875695D01*
X90445653Y-156839305D01*
X90349556Y-156799500D01*
X90150444Y-156799500D01*
X90074249Y-156831061D01*
X89966492Y-156875695D01*
X89825695Y-157016492D01*
X89769402Y-157152395D01*
X89749500Y-157200444D01*
X89550500Y-157200444D01*
X89474303Y-157016490D01*
X89333510Y-156875697D01*
X89333508Y-156875696D01*
X89333507Y-156875695D01*
X89245653Y-156839305D01*
X89149556Y-156799500D01*
X88950444Y-156799500D01*
X88874249Y-156831061D01*
X88766492Y-156875695D01*
X88625695Y-157016492D01*
X88569402Y-157152395D01*
X88549500Y-157200444D01*
X72900500Y-157200444D01*
X72900500Y-156000444D01*
X87949500Y-156000444D01*
X87949500Y-156199556D01*
X87989305Y-156295653D01*
X88025695Y-156383507D01*
X88025696Y-156383508D01*
X88025697Y-156383510D01*
X88166490Y-156524303D01*
X88350444Y-156600500D01*
X88350446Y-156600500D01*
X88549554Y-156600500D01*
X88549556Y-156600500D01*
X88733510Y-156524303D01*
X88874303Y-156383510D01*
X88950500Y-156199556D01*
X88950500Y-156099500D01*
X88979496Y-156029496D01*
X89049500Y-156000500D01*
X89050500Y-156000500D01*
X89120504Y-156029496D01*
X89149500Y-156099500D01*
X89149500Y-156199556D01*
X89189305Y-156295653D01*
X89225695Y-156383507D01*
X89225696Y-156383508D01*
X89225697Y-156383510D01*
X89366490Y-156524303D01*
X89550444Y-156600500D01*
X89550446Y-156600500D01*
X89749554Y-156600500D01*
X89749556Y-156600500D01*
X89933510Y-156524303D01*
X90074303Y-156383510D01*
X90150500Y-156199556D01*
X90150500Y-156000444D01*
X90074303Y-155816490D01*
X89933510Y-155675697D01*
X89933508Y-155675696D01*
X89933507Y-155675695D01*
X89845653Y-155639305D01*
X89749556Y-155599500D01*
X89749554Y-155599500D01*
X89649500Y-155599500D01*
X89579496Y-155570504D01*
X89550500Y-155500500D01*
X89550500Y-155400445D01*
X89474304Y-155216492D01*
X89474303Y-155216491D01*
X89474303Y-155216490D01*
X89333510Y-155075697D01*
X89333508Y-155075696D01*
X89333507Y-155075695D01*
X89245653Y-155039305D01*
X89149556Y-154999500D01*
X88950444Y-154999500D01*
X88874249Y-155031061D01*
X88766492Y-155075695D01*
X88625695Y-155216492D01*
X88549500Y-155400445D01*
X88549500Y-155500500D01*
X88520504Y-155570504D01*
X88450500Y-155599500D01*
X88350444Y-155599500D01*
X88274249Y-155631061D01*
X88166492Y-155675695D01*
X88025695Y-155816492D01*
X87969402Y-155952395D01*
X87949500Y-156000444D01*
X72900500Y-156000444D01*
X72900500Y-154800444D01*
X89749500Y-154800444D01*
X89749500Y-154999556D01*
X89781038Y-155075695D01*
X89825695Y-155183507D01*
X89825696Y-155183508D01*
X89825697Y-155183510D01*
X89966490Y-155324303D01*
X90150444Y-155400500D01*
X90150446Y-155400500D01*
X90349554Y-155400500D01*
X90349556Y-155400500D01*
X90533510Y-155324303D01*
X90674303Y-155183510D01*
X90750500Y-154999556D01*
X90750500Y-154800444D01*
X90674303Y-154616490D01*
X90533510Y-154475697D01*
X90533508Y-154475696D01*
X90533507Y-154475695D01*
X90445653Y-154439305D01*
X90349556Y-154399500D01*
X90150444Y-154399500D01*
X90074249Y-154431061D01*
X89966492Y-154475695D01*
X89825695Y-154616492D01*
X89769402Y-154752395D01*
X89749500Y-154800444D01*
X72900500Y-154800444D01*
X72900500Y-153600444D01*
X89149500Y-153600444D01*
X89149500Y-153799556D01*
X89189305Y-153895653D01*
X89225695Y-153983507D01*
X89225696Y-153983508D01*
X89225697Y-153983510D01*
X89366490Y-154124303D01*
X89550444Y-154200500D01*
X89550446Y-154200500D01*
X89749554Y-154200500D01*
X89749556Y-154200500D01*
X89933510Y-154124303D01*
X90074303Y-153983510D01*
X90150500Y-153799556D01*
X90150500Y-153600444D01*
X90074303Y-153416490D01*
X89933510Y-153275697D01*
X89933508Y-153275696D01*
X89933507Y-153275695D01*
X89845653Y-153239305D01*
X89749556Y-153199500D01*
X89550444Y-153199500D01*
X89474249Y-153231061D01*
X89366492Y-153275695D01*
X89225695Y-153416492D01*
X89169402Y-153552395D01*
X89149500Y-153600444D01*
X72900500Y-153600444D01*
X72900500Y-152400444D01*
X89749500Y-152400444D01*
X89749500Y-152599556D01*
X89789305Y-152695653D01*
X89825695Y-152783507D01*
X89825696Y-152783508D01*
X89825697Y-152783510D01*
X89966490Y-152924303D01*
X90150444Y-153000500D01*
X90150446Y-153000500D01*
X90349554Y-153000500D01*
X90349556Y-153000500D01*
X90533510Y-152924303D01*
X90674303Y-152783510D01*
X90750500Y-152599556D01*
X90750500Y-152400444D01*
X90674303Y-152216490D01*
X90533510Y-152075697D01*
X90533508Y-152075696D01*
X90533507Y-152075695D01*
X90445653Y-152039305D01*
X90349556Y-151999500D01*
X90150444Y-151999500D01*
X90074249Y-152031061D01*
X89966492Y-152075695D01*
X89825695Y-152216492D01*
X89769402Y-152352395D01*
X89749500Y-152400444D01*
X72900500Y-152400444D01*
X72900500Y-151200444D01*
X89149500Y-151200444D01*
X89149500Y-151399556D01*
X89189305Y-151495653D01*
X89225695Y-151583507D01*
X89225696Y-151583508D01*
X89225697Y-151583510D01*
X89366490Y-151724303D01*
X89550444Y-151800500D01*
X89550446Y-151800500D01*
X89749554Y-151800500D01*
X89749556Y-151800500D01*
X89933510Y-151724303D01*
X90074303Y-151583510D01*
X90150500Y-151399556D01*
X90150500Y-151200444D01*
X90074303Y-151016490D01*
X89933510Y-150875697D01*
X89933508Y-150875696D01*
X89933507Y-150875695D01*
X89845653Y-150839305D01*
X89749556Y-150799500D01*
X89550444Y-150799500D01*
X89474249Y-150831061D01*
X89366492Y-150875695D01*
X89225695Y-151016492D01*
X89169402Y-151152395D01*
X89149500Y-151200444D01*
X72900500Y-151200444D01*
X72900500Y-150000444D01*
X89749500Y-150000444D01*
X89749500Y-150199556D01*
X89789305Y-150295653D01*
X89825695Y-150383507D01*
X89825696Y-150383508D01*
X89825697Y-150383510D01*
X89966490Y-150524303D01*
X90150444Y-150600500D01*
X90150446Y-150600500D01*
X90349554Y-150600500D01*
X90349556Y-150600500D01*
X90533510Y-150524303D01*
X90674303Y-150383510D01*
X90750500Y-150199556D01*
X90750500Y-150000444D01*
X90674303Y-149816490D01*
X90533510Y-149675697D01*
X90533508Y-149675696D01*
X90533507Y-149675695D01*
X90445653Y-149639305D01*
X90349556Y-149599500D01*
X90150444Y-149599500D01*
X90074249Y-149631061D01*
X89966492Y-149675695D01*
X89825695Y-149816492D01*
X89769402Y-149952395D01*
X89749500Y-150000444D01*
X72900500Y-150000444D01*
X72900500Y-147600444D01*
X89749500Y-147600444D01*
X89749500Y-147799556D01*
X89789305Y-147895653D01*
X89825695Y-147983507D01*
X89825696Y-147983508D01*
X89825697Y-147983510D01*
X89966490Y-148124303D01*
X90150444Y-148200500D01*
X90150446Y-148200500D01*
X90349554Y-148200500D01*
X90349556Y-148200500D01*
X90533510Y-148124303D01*
X90674303Y-147983510D01*
X90750500Y-147799556D01*
X90750500Y-147600444D01*
X90674303Y-147416490D01*
X90533510Y-147275697D01*
X90533508Y-147275696D01*
X90533507Y-147275695D01*
X90445653Y-147239305D01*
X90349556Y-147199500D01*
X90150444Y-147199500D01*
X90074249Y-147231061D01*
X89966492Y-147275695D01*
X89825695Y-147416492D01*
X89769402Y-147552395D01*
X89749500Y-147600444D01*
X72900500Y-147600444D01*
X72900500Y-146900444D01*
X75999500Y-146900444D01*
X75999500Y-147099556D01*
X76039305Y-147195653D01*
X76075695Y-147283507D01*
X76075696Y-147283508D01*
X76075697Y-147283510D01*
X76216490Y-147424303D01*
X76400444Y-147500500D01*
X76400446Y-147500500D01*
X76599554Y-147500500D01*
X76599556Y-147500500D01*
X76783510Y-147424303D01*
X76924303Y-147283510D01*
X77000500Y-147099556D01*
X77000500Y-146900444D01*
X77499500Y-146900444D01*
X77499500Y-147099556D01*
X77539305Y-147195653D01*
X77575695Y-147283507D01*
X77575696Y-147283508D01*
X77575697Y-147283510D01*
X77716490Y-147424303D01*
X77900444Y-147500500D01*
X77900446Y-147500500D01*
X78099554Y-147500500D01*
X78099556Y-147500500D01*
X78283510Y-147424303D01*
X78424303Y-147283510D01*
X78500500Y-147099556D01*
X78500500Y-146900444D01*
X78999500Y-146900444D01*
X78999500Y-147099556D01*
X79039305Y-147195653D01*
X79075695Y-147283507D01*
X79075696Y-147283508D01*
X79075697Y-147283510D01*
X79216490Y-147424303D01*
X79400444Y-147500500D01*
X79400446Y-147500500D01*
X79599555Y-147500500D01*
X79599556Y-147500500D01*
X79783510Y-147424303D01*
X79924303Y-147283510D01*
X80000500Y-147099556D01*
X80000500Y-146900444D01*
X79970209Y-146827316D01*
X79929313Y-146728583D01*
X79929311Y-146728580D01*
X79928273Y-146726076D01*
X79924303Y-146716490D01*
X79908257Y-146700444D01*
X81999500Y-146700444D01*
X81999500Y-146899556D01*
X82039305Y-146995653D01*
X82075695Y-147083507D01*
X82075696Y-147083508D01*
X82075697Y-147083510D01*
X82216490Y-147224303D01*
X82400444Y-147300500D01*
X82400446Y-147300500D01*
X82599554Y-147300500D01*
X82599556Y-147300500D01*
X82783510Y-147224303D01*
X82924303Y-147083510D01*
X83000500Y-146899556D01*
X83000500Y-146700444D01*
X82924303Y-146516490D01*
X82783510Y-146375697D01*
X82783508Y-146375696D01*
X82783507Y-146375695D01*
X82695653Y-146339305D01*
X82599556Y-146299500D01*
X82400444Y-146299500D01*
X82324249Y-146331061D01*
X82216492Y-146375695D01*
X82075695Y-146516492D01*
X82019402Y-146652395D01*
X81999500Y-146700444D01*
X79908257Y-146700444D01*
X79783510Y-146575697D01*
X79783508Y-146575696D01*
X79783507Y-146575695D01*
X79695653Y-146539305D01*
X79599556Y-146499500D01*
X79400444Y-146499500D01*
X79324249Y-146531061D01*
X79216492Y-146575695D01*
X79075695Y-146716492D01*
X79029791Y-146827316D01*
X78999500Y-146900444D01*
X78500500Y-146900444D01*
X78424303Y-146716490D01*
X78283510Y-146575697D01*
X78283508Y-146575696D01*
X78283507Y-146575695D01*
X78195653Y-146539305D01*
X78099556Y-146499500D01*
X77900444Y-146499500D01*
X77824249Y-146531061D01*
X77716492Y-146575695D01*
X77575695Y-146716492D01*
X77529791Y-146827316D01*
X77499500Y-146900444D01*
X77000500Y-146900444D01*
X76924303Y-146716490D01*
X76783510Y-146575697D01*
X76783508Y-146575696D01*
X76783507Y-146575695D01*
X76695653Y-146539305D01*
X76599556Y-146499500D01*
X76400444Y-146499500D01*
X76324249Y-146531061D01*
X76216492Y-146575695D01*
X76075695Y-146716492D01*
X76029791Y-146827316D01*
X75999500Y-146900444D01*
X72900500Y-146900444D01*
X72900500Y-145400444D01*
X76749500Y-145400444D01*
X76749500Y-145599556D01*
X76789305Y-145695653D01*
X76825695Y-145783507D01*
X76825696Y-145783508D01*
X76825697Y-145783510D01*
X76966490Y-145924303D01*
X77150444Y-146000500D01*
X77150446Y-146000500D01*
X77349554Y-146000500D01*
X77349556Y-146000500D01*
X77533510Y-145924303D01*
X77674303Y-145783510D01*
X77750500Y-145599556D01*
X77750500Y-145400444D01*
X78249500Y-145400444D01*
X78249500Y-145599556D01*
X78289305Y-145695653D01*
X78325695Y-145783507D01*
X78325696Y-145783508D01*
X78325697Y-145783510D01*
X78466490Y-145924303D01*
X78650444Y-146000500D01*
X78650446Y-146000500D01*
X78849554Y-146000500D01*
X78849556Y-146000500D01*
X79033510Y-145924303D01*
X79174303Y-145783510D01*
X79250500Y-145599556D01*
X79250500Y-145400444D01*
X79749500Y-145400444D01*
X79749500Y-145599556D01*
X79789305Y-145695653D01*
X79825695Y-145783507D01*
X79825696Y-145783508D01*
X79825697Y-145783510D01*
X79966490Y-145924303D01*
X80150444Y-146000500D01*
X80150446Y-146000500D01*
X80349554Y-146000500D01*
X80349556Y-146000500D01*
X80533510Y-145924303D01*
X80674303Y-145783510D01*
X80750500Y-145599556D01*
X80750500Y-145400444D01*
X80674303Y-145216490D01*
X80533510Y-145075697D01*
X80533508Y-145075696D01*
X80533507Y-145075695D01*
X80445653Y-145039305D01*
X80349556Y-144999500D01*
X80150444Y-144999500D01*
X80074249Y-145031061D01*
X79966492Y-145075695D01*
X79825695Y-145216492D01*
X79811609Y-145250500D01*
X79749500Y-145400444D01*
X79250500Y-145400444D01*
X79174303Y-145216490D01*
X79033510Y-145075697D01*
X79033508Y-145075696D01*
X79033507Y-145075695D01*
X78945653Y-145039305D01*
X78849556Y-144999500D01*
X78650444Y-144999500D01*
X78574249Y-145031061D01*
X78466492Y-145075695D01*
X78325695Y-145216492D01*
X78311609Y-145250500D01*
X78249500Y-145400444D01*
X77750500Y-145400444D01*
X77674303Y-145216490D01*
X77533510Y-145075697D01*
X77533508Y-145075696D01*
X77533507Y-145075695D01*
X77445653Y-145039305D01*
X77349556Y-144999500D01*
X77150444Y-144999500D01*
X77074249Y-145031061D01*
X76966492Y-145075695D01*
X76825695Y-145216492D01*
X76811609Y-145250500D01*
X76749500Y-145400444D01*
X72900500Y-145400444D01*
X72900500Y-144650444D01*
X81899500Y-144650444D01*
X81899500Y-144849556D01*
X81939305Y-144945653D01*
X81975695Y-145033507D01*
X81975696Y-145033508D01*
X81975697Y-145033510D01*
X82116490Y-145174303D01*
X82300444Y-145250500D01*
X82300446Y-145250500D01*
X82499554Y-145250500D01*
X82499556Y-145250500D01*
X82683510Y-145174303D01*
X82824303Y-145033510D01*
X82900500Y-144849556D01*
X82900500Y-144650444D01*
X82824303Y-144466490D01*
X82683510Y-144325697D01*
X82683508Y-144325696D01*
X82683507Y-144325695D01*
X82595653Y-144289305D01*
X82499556Y-144249500D01*
X82300444Y-144249500D01*
X82224249Y-144281061D01*
X82116492Y-144325695D01*
X81975695Y-144466492D01*
X81961609Y-144500500D01*
X81899500Y-144650444D01*
X72900500Y-144650444D01*
X72900500Y-143900444D01*
X75999500Y-143900444D01*
X75999500Y-144099556D01*
X76039305Y-144195653D01*
X76075695Y-144283507D01*
X76075696Y-144283508D01*
X76075697Y-144283510D01*
X76216490Y-144424303D01*
X76400444Y-144500500D01*
X76400446Y-144500500D01*
X76599554Y-144500500D01*
X76599556Y-144500500D01*
X76783510Y-144424303D01*
X76924303Y-144283510D01*
X77000500Y-144099556D01*
X77000500Y-143900444D01*
X77499500Y-143900444D01*
X77499500Y-144099556D01*
X77539305Y-144195653D01*
X77575695Y-144283507D01*
X77575696Y-144283508D01*
X77575697Y-144283510D01*
X77716490Y-144424303D01*
X77900444Y-144500500D01*
X77900446Y-144500500D01*
X78099554Y-144500500D01*
X78099556Y-144500500D01*
X78283510Y-144424303D01*
X78424303Y-144283510D01*
X78500500Y-144099556D01*
X78500500Y-143900444D01*
X78999500Y-143900444D01*
X78999500Y-144099556D01*
X79039305Y-144195653D01*
X79075695Y-144283507D01*
X79075696Y-144283508D01*
X79075697Y-144283510D01*
X79216490Y-144424303D01*
X79400444Y-144500500D01*
X79400446Y-144500500D01*
X79599554Y-144500500D01*
X79599556Y-144500500D01*
X79783510Y-144424303D01*
X79924303Y-144283510D01*
X80000500Y-144099556D01*
X80000500Y-143900444D01*
X79924303Y-143716490D01*
X79783510Y-143575697D01*
X79783508Y-143575696D01*
X79783507Y-143575695D01*
X79695653Y-143539305D01*
X79599556Y-143499500D01*
X79400444Y-143499500D01*
X79324249Y-143531061D01*
X79216492Y-143575695D01*
X79075695Y-143716492D01*
X79019402Y-143852395D01*
X78999500Y-143900444D01*
X78500500Y-143900444D01*
X78424303Y-143716490D01*
X78283510Y-143575697D01*
X78283508Y-143575696D01*
X78283507Y-143575695D01*
X78195653Y-143539305D01*
X78099556Y-143499500D01*
X77900444Y-143499500D01*
X77824249Y-143531061D01*
X77716492Y-143575695D01*
X77575695Y-143716492D01*
X77519402Y-143852395D01*
X77499500Y-143900444D01*
X77000500Y-143900444D01*
X76924303Y-143716490D01*
X76783510Y-143575697D01*
X76783508Y-143575696D01*
X76783507Y-143575695D01*
X76695653Y-143539305D01*
X76599556Y-143499500D01*
X76400444Y-143499500D01*
X76324249Y-143531061D01*
X76216492Y-143575695D01*
X76075695Y-143716492D01*
X76019402Y-143852395D01*
X75999500Y-143900444D01*
X72900500Y-143900444D01*
X72900500Y-136889065D01*
X74199499Y-136889065D01*
X74344203Y-137238412D01*
X74344204Y-137238413D01*
X74344205Y-137238415D01*
X74611585Y-137505795D01*
X74960934Y-137650500D01*
X74960935Y-137650500D01*
X75339065Y-137650500D01*
X75339066Y-137650500D01*
X75688415Y-137505795D01*
X75955795Y-137238415D01*
X76100500Y-136889066D01*
X76100500Y-136741951D01*
X80949500Y-136741951D01*
X80949500Y-137058049D01*
X80997828Y-137238412D01*
X81031313Y-137363380D01*
X81189357Y-137637119D01*
X81189359Y-137637121D01*
X81189361Y-137637124D01*
X81412876Y-137860639D01*
X81412878Y-137860640D01*
X81412880Y-137860642D01*
X81686620Y-138018686D01*
X81686618Y-138018686D01*
X81686622Y-138018687D01*
X81686624Y-138018688D01*
X81991951Y-138100500D01*
X81991953Y-138100500D01*
X82308047Y-138100500D01*
X82308049Y-138100500D01*
X82613376Y-138018688D01*
X82613378Y-138018686D01*
X82613380Y-138018686D01*
X82887119Y-137860642D01*
X82887119Y-137860641D01*
X82887124Y-137860639D01*
X83110639Y-137637124D01*
X83268688Y-137363376D01*
X83350500Y-137058049D01*
X83350500Y-136741951D01*
X83268688Y-136436624D01*
X83268686Y-136436621D01*
X83268686Y-136436619D01*
X83110642Y-136162880D01*
X83110640Y-136162878D01*
X83110639Y-136162876D01*
X83008423Y-136060660D01*
X89449500Y-136060660D01*
X89449500Y-136339339D01*
X89556142Y-136596799D01*
X89556143Y-136596800D01*
X89556144Y-136596802D01*
X89753198Y-136793856D01*
X89753199Y-136793856D01*
X89753200Y-136793857D01*
X90010660Y-136900500D01*
X90010662Y-136900500D01*
X90289339Y-136900500D01*
X90451696Y-136833249D01*
X90546802Y-136793856D01*
X90743856Y-136596802D01*
X90850500Y-136339338D01*
X90850500Y-136060662D01*
X90850500Y-136060660D01*
X90743857Y-135803200D01*
X90743856Y-135803199D01*
X90743856Y-135803198D01*
X90546802Y-135606144D01*
X90546800Y-135606143D01*
X90546799Y-135606142D01*
X90289340Y-135499500D01*
X90289338Y-135499500D01*
X90010662Y-135499500D01*
X90010660Y-135499500D01*
X89753200Y-135606142D01*
X89556142Y-135803200D01*
X89449500Y-136060660D01*
X83008423Y-136060660D01*
X82887124Y-135939361D01*
X82887121Y-135939359D01*
X82887119Y-135939357D01*
X82613379Y-135781313D01*
X82613381Y-135781313D01*
X82494652Y-135749500D01*
X82308049Y-135699500D01*
X81991951Y-135699500D01*
X81805348Y-135749500D01*
X81686619Y-135781313D01*
X81412880Y-135939357D01*
X81189357Y-136162880D01*
X81031313Y-136436619D01*
X81031312Y-136436624D01*
X80949500Y-136741951D01*
X76100500Y-136741951D01*
X76100500Y-136510934D01*
X76029423Y-136339338D01*
X75955796Y-136161587D01*
X75955795Y-136161586D01*
X75955795Y-136161585D01*
X75688415Y-135894205D01*
X75688413Y-135894204D01*
X75688412Y-135894203D01*
X75415867Y-135781312D01*
X75339066Y-135749500D01*
X74960934Y-135749500D01*
X74884133Y-135781312D01*
X74611587Y-135894203D01*
X74344203Y-136161587D01*
X74199500Y-136510934D01*
X74199500Y-136889065D01*
X74199499Y-136889065D01*
X72900500Y-136889065D01*
X72900500Y-131800444D01*
X80459500Y-131800444D01*
X80459500Y-131999556D01*
X80499305Y-132095653D01*
X80535695Y-132183507D01*
X80535696Y-132183508D01*
X80535697Y-132183510D01*
X80676490Y-132324303D01*
X80860444Y-132400500D01*
X80860446Y-132400500D01*
X81059554Y-132400500D01*
X81059556Y-132400500D01*
X81243510Y-132324303D01*
X81384303Y-132183510D01*
X81442939Y-132041951D01*
X88449500Y-132041951D01*
X88449500Y-132358049D01*
X88460875Y-132400500D01*
X88531313Y-132663380D01*
X88689357Y-132937119D01*
X88689359Y-132937121D01*
X88689361Y-132937124D01*
X88912876Y-133160639D01*
X88912878Y-133160640D01*
X88912880Y-133160642D01*
X89186620Y-133318686D01*
X89186618Y-133318686D01*
X89186622Y-133318687D01*
X89186624Y-133318688D01*
X89491951Y-133400500D01*
X89491953Y-133400500D01*
X89808047Y-133400500D01*
X89808049Y-133400500D01*
X90113376Y-133318688D01*
X90113378Y-133318686D01*
X90113380Y-133318686D01*
X90387119Y-133160642D01*
X90387119Y-133160641D01*
X90387124Y-133160639D01*
X90610639Y-132937124D01*
X90768688Y-132663376D01*
X90850500Y-132358049D01*
X90850500Y-132041951D01*
X90768688Y-131736624D01*
X90768686Y-131736621D01*
X90768686Y-131736619D01*
X90610642Y-131462880D01*
X90610640Y-131462878D01*
X90610639Y-131462876D01*
X90387124Y-131239361D01*
X90387121Y-131239359D01*
X90387119Y-131239357D01*
X90113379Y-131081313D01*
X90113381Y-131081313D01*
X89994913Y-131049570D01*
X89808049Y-130999500D01*
X89491951Y-130999500D01*
X89305086Y-131049570D01*
X89186619Y-131081313D01*
X88912880Y-131239357D01*
X88689357Y-131462880D01*
X88531313Y-131736619D01*
X88514211Y-131800445D01*
X88449500Y-132041951D01*
X81442939Y-132041951D01*
X81460500Y-131999556D01*
X81460500Y-131800444D01*
X81384303Y-131616490D01*
X81243510Y-131475697D01*
X81243508Y-131475696D01*
X81243507Y-131475695D01*
X81155653Y-131439305D01*
X81059556Y-131399500D01*
X80860444Y-131399500D01*
X80784249Y-131431061D01*
X80676492Y-131475695D01*
X80535695Y-131616492D01*
X80485937Y-131736619D01*
X80459500Y-131800444D01*
X72900500Y-131800444D01*
X72900500Y-130950444D01*
X78299500Y-130950444D01*
X78299500Y-131149556D01*
X78336697Y-131239357D01*
X78375695Y-131333507D01*
X78375696Y-131333508D01*
X78375697Y-131333510D01*
X78516490Y-131474303D01*
X78516491Y-131474303D01*
X78516492Y-131474304D01*
X78519855Y-131475697D01*
X78700444Y-131550500D01*
X78700446Y-131550500D01*
X78899554Y-131550500D01*
X78899556Y-131550500D01*
X79083510Y-131474303D01*
X79224303Y-131333510D01*
X79300500Y-131149556D01*
X79300500Y-130950444D01*
X79234225Y-130790444D01*
X81759500Y-130790444D01*
X81759500Y-130989556D01*
X81797507Y-131081312D01*
X81835695Y-131173507D01*
X81835696Y-131173508D01*
X81835697Y-131173510D01*
X81976490Y-131314303D01*
X82160444Y-131390500D01*
X82160446Y-131390500D01*
X82359554Y-131390500D01*
X82359556Y-131390500D01*
X82543510Y-131314303D01*
X82684303Y-131173510D01*
X82760500Y-130989556D01*
X82760500Y-130950444D01*
X83049500Y-130950444D01*
X83049500Y-131149556D01*
X83086697Y-131239357D01*
X83125695Y-131333507D01*
X83125696Y-131333508D01*
X83125697Y-131333510D01*
X83266490Y-131474303D01*
X83266491Y-131474303D01*
X83266492Y-131474304D01*
X83269855Y-131475697D01*
X83450444Y-131550500D01*
X83450446Y-131550500D01*
X83649554Y-131550500D01*
X83649556Y-131550500D01*
X83833510Y-131474303D01*
X83974303Y-131333510D01*
X84050500Y-131149556D01*
X84050500Y-130950444D01*
X83974303Y-130766490D01*
X83833510Y-130625697D01*
X83833508Y-130625696D01*
X83833507Y-130625695D01*
X83745653Y-130589305D01*
X83649556Y-130549500D01*
X83450444Y-130549500D01*
X83374249Y-130581061D01*
X83266492Y-130625695D01*
X83125695Y-130766492D01*
X83069402Y-130902395D01*
X83049500Y-130950444D01*
X82760500Y-130950444D01*
X82760500Y-130790444D01*
X82684303Y-130606490D01*
X82543510Y-130465697D01*
X82543508Y-130465696D01*
X82543507Y-130465695D01*
X82455653Y-130429305D01*
X82359556Y-130389500D01*
X82160444Y-130389500D01*
X82084249Y-130421061D01*
X81976492Y-130465695D01*
X81835695Y-130606492D01*
X81779402Y-130742395D01*
X81759500Y-130790444D01*
X79234225Y-130790444D01*
X79224303Y-130766490D01*
X79083510Y-130625697D01*
X79083508Y-130625696D01*
X79083507Y-130625695D01*
X78995653Y-130589305D01*
X78899556Y-130549500D01*
X78700444Y-130549500D01*
X78624249Y-130581061D01*
X78516492Y-130625695D01*
X78375695Y-130766492D01*
X78319402Y-130902395D01*
X78299500Y-130950444D01*
X72900500Y-130950444D01*
X72900500Y-128614527D01*
X77734499Y-128614527D01*
X77814501Y-128807669D01*
X77814502Y-128807670D01*
X77814503Y-128807672D01*
X77962328Y-128955497D01*
X78155472Y-129035500D01*
X78364527Y-129035500D01*
X78364528Y-129035500D01*
X78557672Y-128955497D01*
X78705497Y-128807672D01*
X78785500Y-128614528D01*
X78785500Y-128614527D01*
X83514499Y-128614527D01*
X83594501Y-128807669D01*
X83594502Y-128807670D01*
X83594503Y-128807672D01*
X83742328Y-128955497D01*
X83935472Y-129035500D01*
X84144527Y-129035500D01*
X84144528Y-129035500D01*
X84337672Y-128955497D01*
X84485497Y-128807672D01*
X84565500Y-128614528D01*
X84565500Y-128405472D01*
X84485497Y-128212328D01*
X84337672Y-128064503D01*
X84337670Y-128064502D01*
X84337669Y-128064501D01*
X84144528Y-127984500D01*
X83935472Y-127984500D01*
X83742330Y-128064501D01*
X83594501Y-128212330D01*
X83514500Y-128405472D01*
X83514500Y-128614527D01*
X83514499Y-128614527D01*
X78785500Y-128614527D01*
X78785500Y-128405472D01*
X78705497Y-128212328D01*
X78557672Y-128064503D01*
X78557670Y-128064502D01*
X78557669Y-128064501D01*
X78364528Y-127984500D01*
X78155472Y-127984500D01*
X77962330Y-128064501D01*
X77814501Y-128212330D01*
X77734500Y-128405472D01*
X77734500Y-128614527D01*
X77734499Y-128614527D01*
X72900500Y-128614527D01*
X72900500Y-123549500D01*
X72929496Y-123479496D01*
X72999500Y-123450500D01*
X91300500Y-123450500D01*
X91370504Y-123479496D01*
G37*
%TD.AperFunction*%
%TD*%
M02*
