%TF.GenerationSoftware,KiCad,Pcbnew,10.0.5*%
%TF.CreationDate,2026-08-25T11:17:02+00:00*%
%TF.ProjectId,unni-smartification-c6,756e6e69-2d73-46d6-9172-746966696361,rev?*%
%TF.SameCoordinates,Original*%
%TF.FileFunction,Other,Comment*%
%FSLAX46Y46*%
G04 Gerber Fmt 4.6, Leading zero omitted, Abs format (unit mm)*
G04 Created by KiCad (PCBNEW 10.0.5) date 2026-08-25 11:17:02*
%MOMM*%
%LPD*%
G01*
G04 APERTURE LIST*
%ADD10C,0.150000*%
G04 APERTURE END LIST*
D10*
X137809192Y-121419819D02*
X137809192Y-120419819D01*
X138380620Y-121419819D02*
X137952049Y-120848390D01*
X138380620Y-120419819D02*
X137809192Y-120991247D01*
X139190144Y-121372200D02*
X139094906Y-121419819D01*
X139094906Y-121419819D02*
X138904430Y-121419819D01*
X138904430Y-121419819D02*
X138809192Y-121372200D01*
X138809192Y-121372200D02*
X138761573Y-121276961D01*
X138761573Y-121276961D02*
X138761573Y-120896009D01*
X138761573Y-120896009D02*
X138809192Y-120800771D01*
X138809192Y-120800771D02*
X138904430Y-120753152D01*
X138904430Y-120753152D02*
X139094906Y-120753152D01*
X139094906Y-120753152D02*
X139190144Y-120800771D01*
X139190144Y-120800771D02*
X139237763Y-120896009D01*
X139237763Y-120896009D02*
X139237763Y-120991247D01*
X139237763Y-120991247D02*
X138761573Y-121086485D01*
X140047287Y-121372200D02*
X139952049Y-121419819D01*
X139952049Y-121419819D02*
X139761573Y-121419819D01*
X139761573Y-121419819D02*
X139666335Y-121372200D01*
X139666335Y-121372200D02*
X139618716Y-121276961D01*
X139618716Y-121276961D02*
X139618716Y-120896009D01*
X139618716Y-120896009D02*
X139666335Y-120800771D01*
X139666335Y-120800771D02*
X139761573Y-120753152D01*
X139761573Y-120753152D02*
X139952049Y-120753152D01*
X139952049Y-120753152D02*
X140047287Y-120800771D01*
X140047287Y-120800771D02*
X140094906Y-120896009D01*
X140094906Y-120896009D02*
X140094906Y-120991247D01*
X140094906Y-120991247D02*
X139618716Y-121086485D01*
X140523478Y-120753152D02*
X140523478Y-121753152D01*
X140523478Y-120800771D02*
X140618716Y-120753152D01*
X140618716Y-120753152D02*
X140809192Y-120753152D01*
X140809192Y-120753152D02*
X140904430Y-120800771D01*
X140904430Y-120800771D02*
X140952049Y-120848390D01*
X140952049Y-120848390D02*
X140999668Y-120943628D01*
X140999668Y-120943628D02*
X140999668Y-121229342D01*
X140999668Y-121229342D02*
X140952049Y-121324580D01*
X140952049Y-121324580D02*
X140904430Y-121372200D01*
X140904430Y-121372200D02*
X140809192Y-121419819D01*
X140809192Y-121419819D02*
X140618716Y-121419819D01*
X140618716Y-121419819D02*
X140523478Y-121372200D01*
X141571097Y-121419819D02*
X141475859Y-121372200D01*
X141475859Y-121372200D02*
X141428240Y-121324580D01*
X141428240Y-121324580D02*
X141380621Y-121229342D01*
X141380621Y-121229342D02*
X141380621Y-120943628D01*
X141380621Y-120943628D02*
X141428240Y-120848390D01*
X141428240Y-120848390D02*
X141475859Y-120800771D01*
X141475859Y-120800771D02*
X141571097Y-120753152D01*
X141571097Y-120753152D02*
X141713954Y-120753152D01*
X141713954Y-120753152D02*
X141809192Y-120800771D01*
X141809192Y-120800771D02*
X141856811Y-120848390D01*
X141856811Y-120848390D02*
X141904430Y-120943628D01*
X141904430Y-120943628D02*
X141904430Y-121229342D01*
X141904430Y-121229342D02*
X141856811Y-121324580D01*
X141856811Y-121324580D02*
X141809192Y-121372200D01*
X141809192Y-121372200D02*
X141713954Y-121419819D01*
X141713954Y-121419819D02*
X141571097Y-121419819D01*
X142761573Y-120753152D02*
X142761573Y-121419819D01*
X142333002Y-120753152D02*
X142333002Y-121276961D01*
X142333002Y-121276961D02*
X142380621Y-121372200D01*
X142380621Y-121372200D02*
X142475859Y-121419819D01*
X142475859Y-121419819D02*
X142618716Y-121419819D01*
X142618716Y-121419819D02*
X142713954Y-121372200D01*
X142713954Y-121372200D02*
X142761573Y-121324580D01*
X143094907Y-120753152D02*
X143475859Y-120753152D01*
X143237764Y-120419819D02*
X143237764Y-121276961D01*
X143237764Y-121276961D02*
X143285383Y-121372200D01*
X143285383Y-121372200D02*
X143380621Y-121419819D01*
X143380621Y-121419819D02*
X143475859Y-121419819D01*
X144523479Y-121134104D02*
X144999669Y-121134104D01*
X144428241Y-121419819D02*
X144761574Y-120419819D01*
X144761574Y-120419819D02*
X145094907Y-121419819D01*
X145428241Y-121419819D02*
X145428241Y-120753152D01*
X145428241Y-120943628D02*
X145475860Y-120848390D01*
X145475860Y-120848390D02*
X145523479Y-120800771D01*
X145523479Y-120800771D02*
X145618717Y-120753152D01*
X145618717Y-120753152D02*
X145713955Y-120753152D01*
X146428241Y-121372200D02*
X146333003Y-121419819D01*
X146333003Y-121419819D02*
X146142527Y-121419819D01*
X146142527Y-121419819D02*
X146047289Y-121372200D01*
X146047289Y-121372200D02*
X145999670Y-121276961D01*
X145999670Y-121276961D02*
X145999670Y-120896009D01*
X145999670Y-120896009D02*
X146047289Y-120800771D01*
X146047289Y-120800771D02*
X146142527Y-120753152D01*
X146142527Y-120753152D02*
X146333003Y-120753152D01*
X146333003Y-120753152D02*
X146428241Y-120800771D01*
X146428241Y-120800771D02*
X146475860Y-120896009D01*
X146475860Y-120896009D02*
X146475860Y-120991247D01*
X146475860Y-120991247D02*
X145999670Y-121086485D01*
X147333003Y-121419819D02*
X147333003Y-120896009D01*
X147333003Y-120896009D02*
X147285384Y-120800771D01*
X147285384Y-120800771D02*
X147190146Y-120753152D01*
X147190146Y-120753152D02*
X146999670Y-120753152D01*
X146999670Y-120753152D02*
X146904432Y-120800771D01*
X147333003Y-121372200D02*
X147237765Y-121419819D01*
X147237765Y-121419819D02*
X146999670Y-121419819D01*
X146999670Y-121419819D02*
X146904432Y-121372200D01*
X146904432Y-121372200D02*
X146856813Y-121276961D01*
X146856813Y-121276961D02*
X146856813Y-121181723D01*
X146856813Y-121181723D02*
X146904432Y-121086485D01*
X146904432Y-121086485D02*
X146999670Y-121038866D01*
X146999670Y-121038866D02*
X147237765Y-121038866D01*
X147237765Y-121038866D02*
X147333003Y-120991247D01*
X139819193Y-128819104D02*
X140295383Y-128819104D01*
X139723955Y-129104819D02*
X140057288Y-128104819D01*
X140057288Y-128104819D02*
X140390621Y-129104819D01*
X140723955Y-128438152D02*
X140723955Y-129104819D01*
X140723955Y-128533390D02*
X140771574Y-128485771D01*
X140771574Y-128485771D02*
X140866812Y-128438152D01*
X140866812Y-128438152D02*
X141009669Y-128438152D01*
X141009669Y-128438152D02*
X141104907Y-128485771D01*
X141104907Y-128485771D02*
X141152526Y-128581009D01*
X141152526Y-128581009D02*
X141152526Y-129104819D01*
X141485860Y-128438152D02*
X141866812Y-128438152D01*
X141628717Y-128104819D02*
X141628717Y-128961961D01*
X141628717Y-128961961D02*
X141676336Y-129057200D01*
X141676336Y-129057200D02*
X141771574Y-129104819D01*
X141771574Y-129104819D02*
X141866812Y-129104819D01*
X142581098Y-129057200D02*
X142485860Y-129104819D01*
X142485860Y-129104819D02*
X142295384Y-129104819D01*
X142295384Y-129104819D02*
X142200146Y-129057200D01*
X142200146Y-129057200D02*
X142152527Y-128961961D01*
X142152527Y-128961961D02*
X142152527Y-128581009D01*
X142152527Y-128581009D02*
X142200146Y-128485771D01*
X142200146Y-128485771D02*
X142295384Y-128438152D01*
X142295384Y-128438152D02*
X142485860Y-128438152D01*
X142485860Y-128438152D02*
X142581098Y-128485771D01*
X142581098Y-128485771D02*
X142628717Y-128581009D01*
X142628717Y-128581009D02*
X142628717Y-128676247D01*
X142628717Y-128676247D02*
X142152527Y-128771485D01*
X143057289Y-128438152D02*
X143057289Y-129104819D01*
X143057289Y-128533390D02*
X143104908Y-128485771D01*
X143104908Y-128485771D02*
X143200146Y-128438152D01*
X143200146Y-128438152D02*
X143343003Y-128438152D01*
X143343003Y-128438152D02*
X143438241Y-128485771D01*
X143438241Y-128485771D02*
X143485860Y-128581009D01*
X143485860Y-128581009D02*
X143485860Y-129104819D01*
X143962051Y-128438152D02*
X143962051Y-129104819D01*
X143962051Y-128533390D02*
X144009670Y-128485771D01*
X144009670Y-128485771D02*
X144104908Y-128438152D01*
X144104908Y-128438152D02*
X144247765Y-128438152D01*
X144247765Y-128438152D02*
X144343003Y-128485771D01*
X144343003Y-128485771D02*
X144390622Y-128581009D01*
X144390622Y-128581009D02*
X144390622Y-129104819D01*
X145295384Y-129104819D02*
X145295384Y-128581009D01*
X145295384Y-128581009D02*
X145247765Y-128485771D01*
X145247765Y-128485771D02*
X145152527Y-128438152D01*
X145152527Y-128438152D02*
X144962051Y-128438152D01*
X144962051Y-128438152D02*
X144866813Y-128485771D01*
X145295384Y-129057200D02*
X145200146Y-129104819D01*
X145200146Y-129104819D02*
X144962051Y-129104819D01*
X144962051Y-129104819D02*
X144866813Y-129057200D01*
X144866813Y-129057200D02*
X144819194Y-128961961D01*
X144819194Y-128961961D02*
X144819194Y-128866723D01*
X144819194Y-128866723D02*
X144866813Y-128771485D01*
X144866813Y-128771485D02*
X144962051Y-128723866D01*
X144962051Y-128723866D02*
X145200146Y-128723866D01*
X145200146Y-128723866D02*
X145295384Y-128676247D01*
M02*
