%TF.GenerationSoftware,KiCad,Pcbnew,10.0.5*%
%TF.CreationDate,2026-08-25T11:17:02+00:00*%
%TF.ProjectId,unni-smartification-c6,756e6e69-2d73-46d6-9172-746966696361,rev?*%
%TF.SameCoordinates,Original*%
%TF.FileFunction,AssemblyDrawing,Top*%
%FSLAX46Y46*%
G04 Gerber Fmt 4.6, Leading zero omitted, Abs format (unit mm)*
G04 Created by KiCad (PCBNEW 10.0.5) date 2026-08-25 11:17:02*
%MOMM*%
%LPD*%
G01*
G04 APERTURE LIST*
%ADD10C,0.100000*%
G04 APERTURE END LIST*
D10*
X120056667Y-150378704D02*
X120018571Y-150416800D01*
X120018571Y-150416800D02*
X119904286Y-150454895D01*
X119904286Y-150454895D02*
X119828095Y-150454895D01*
X119828095Y-150454895D02*
X119713809Y-150416800D01*
X119713809Y-150416800D02*
X119637619Y-150340609D01*
X119637619Y-150340609D02*
X119599524Y-150264419D01*
X119599524Y-150264419D02*
X119561428Y-150112038D01*
X119561428Y-150112038D02*
X119561428Y-149997752D01*
X119561428Y-149997752D02*
X119599524Y-149845371D01*
X119599524Y-149845371D02*
X119637619Y-149769180D01*
X119637619Y-149769180D02*
X119713809Y-149692990D01*
X119713809Y-149692990D02*
X119828095Y-149654895D01*
X119828095Y-149654895D02*
X119904286Y-149654895D01*
X119904286Y-149654895D02*
X120018571Y-149692990D01*
X120018571Y-149692990D02*
X120056667Y-149731085D01*
X120818571Y-150454895D02*
X120361428Y-150454895D01*
X120590000Y-150454895D02*
X120590000Y-149654895D01*
X120590000Y-149654895D02*
X120513809Y-149769180D01*
X120513809Y-149769180D02*
X120437619Y-149845371D01*
X120437619Y-149845371D02*
X120361428Y-149883466D01*
X115854895Y-146254285D02*
X115473942Y-146520952D01*
X115854895Y-146711428D02*
X115054895Y-146711428D01*
X115054895Y-146711428D02*
X115054895Y-146406666D01*
X115054895Y-146406666D02*
X115092990Y-146330476D01*
X115092990Y-146330476D02*
X115131085Y-146292381D01*
X115131085Y-146292381D02*
X115207276Y-146254285D01*
X115207276Y-146254285D02*
X115321561Y-146254285D01*
X115321561Y-146254285D02*
X115397752Y-146292381D01*
X115397752Y-146292381D02*
X115435847Y-146330476D01*
X115435847Y-146330476D02*
X115473942Y-146406666D01*
X115473942Y-146406666D02*
X115473942Y-146711428D01*
X115854895Y-145492381D02*
X115854895Y-145949524D01*
X115854895Y-145720952D02*
X115054895Y-145720952D01*
X115054895Y-145720952D02*
X115169180Y-145797143D01*
X115169180Y-145797143D02*
X115245371Y-145873333D01*
X115245371Y-145873333D02*
X115283466Y-145949524D01*
X115854895Y-144730476D02*
X115854895Y-145187619D01*
X115854895Y-144959047D02*
X115054895Y-144959047D01*
X115054895Y-144959047D02*
X115169180Y-145035238D01*
X115169180Y-145035238D02*
X115245371Y-145111428D01*
X115245371Y-145111428D02*
X115283466Y-145187619D01*
X153435714Y-143714895D02*
X153169047Y-143333942D01*
X152978571Y-143714895D02*
X152978571Y-142914895D01*
X152978571Y-142914895D02*
X153283333Y-142914895D01*
X153283333Y-142914895D02*
X153359523Y-142952990D01*
X153359523Y-142952990D02*
X153397618Y-142991085D01*
X153397618Y-142991085D02*
X153435714Y-143067276D01*
X153435714Y-143067276D02*
X153435714Y-143181561D01*
X153435714Y-143181561D02*
X153397618Y-143257752D01*
X153397618Y-143257752D02*
X153359523Y-143295847D01*
X153359523Y-143295847D02*
X153283333Y-143333942D01*
X153283333Y-143333942D02*
X152978571Y-143333942D01*
X154121428Y-143181561D02*
X154121428Y-143714895D01*
X153930952Y-142876800D02*
X153740475Y-143448228D01*
X153740475Y-143448228D02*
X154235714Y-143448228D01*
X154692857Y-142914895D02*
X154769047Y-142914895D01*
X154769047Y-142914895D02*
X154845238Y-142952990D01*
X154845238Y-142952990D02*
X154883333Y-142991085D01*
X154883333Y-142991085D02*
X154921428Y-143067276D01*
X154921428Y-143067276D02*
X154959523Y-143219657D01*
X154959523Y-143219657D02*
X154959523Y-143410133D01*
X154959523Y-143410133D02*
X154921428Y-143562514D01*
X154921428Y-143562514D02*
X154883333Y-143638704D01*
X154883333Y-143638704D02*
X154845238Y-143676800D01*
X154845238Y-143676800D02*
X154769047Y-143714895D01*
X154769047Y-143714895D02*
X154692857Y-143714895D01*
X154692857Y-143714895D02*
X154616666Y-143676800D01*
X154616666Y-143676800D02*
X154578571Y-143638704D01*
X154578571Y-143638704D02*
X154540476Y-143562514D01*
X154540476Y-143562514D02*
X154502380Y-143410133D01*
X154502380Y-143410133D02*
X154502380Y-143219657D01*
X154502380Y-143219657D02*
X154540476Y-143067276D01*
X154540476Y-143067276D02*
X154578571Y-142991085D01*
X154578571Y-142991085D02*
X154616666Y-142952990D01*
X154616666Y-142952990D02*
X154692857Y-142914895D01*
X81201085Y-140346190D02*
X81162990Y-140422380D01*
X81162990Y-140422380D02*
X81086800Y-140498571D01*
X81086800Y-140498571D02*
X80972514Y-140612857D01*
X80972514Y-140612857D02*
X80934419Y-140689047D01*
X80934419Y-140689047D02*
X80934419Y-140765238D01*
X81124895Y-140727142D02*
X81086800Y-140803333D01*
X81086800Y-140803333D02*
X81010609Y-140879523D01*
X81010609Y-140879523D02*
X80858228Y-140917619D01*
X80858228Y-140917619D02*
X80591561Y-140917619D01*
X80591561Y-140917619D02*
X80439180Y-140879523D01*
X80439180Y-140879523D02*
X80362990Y-140803333D01*
X80362990Y-140803333D02*
X80324895Y-140727142D01*
X80324895Y-140727142D02*
X80324895Y-140574761D01*
X80324895Y-140574761D02*
X80362990Y-140498571D01*
X80362990Y-140498571D02*
X80439180Y-140422380D01*
X80439180Y-140422380D02*
X80591561Y-140384285D01*
X80591561Y-140384285D02*
X80858228Y-140384285D01*
X80858228Y-140384285D02*
X81010609Y-140422380D01*
X81010609Y-140422380D02*
X81086800Y-140498571D01*
X81086800Y-140498571D02*
X81124895Y-140574761D01*
X81124895Y-140574761D02*
X81124895Y-140727142D01*
X80324895Y-140117619D02*
X80324895Y-139622381D01*
X80324895Y-139622381D02*
X80629657Y-139889047D01*
X80629657Y-139889047D02*
X80629657Y-139774762D01*
X80629657Y-139774762D02*
X80667752Y-139698571D01*
X80667752Y-139698571D02*
X80705847Y-139660476D01*
X80705847Y-139660476D02*
X80782038Y-139622381D01*
X80782038Y-139622381D02*
X80972514Y-139622381D01*
X80972514Y-139622381D02*
X81048704Y-139660476D01*
X81048704Y-139660476D02*
X81086800Y-139698571D01*
X81086800Y-139698571D02*
X81124895Y-139774762D01*
X81124895Y-139774762D02*
X81124895Y-140003333D01*
X81124895Y-140003333D02*
X81086800Y-140079524D01*
X81086800Y-140079524D02*
X81048704Y-140117619D01*
X153285714Y-133778704D02*
X153247618Y-133816800D01*
X153247618Y-133816800D02*
X153133333Y-133854895D01*
X153133333Y-133854895D02*
X153057142Y-133854895D01*
X153057142Y-133854895D02*
X152942856Y-133816800D01*
X152942856Y-133816800D02*
X152866666Y-133740609D01*
X152866666Y-133740609D02*
X152828571Y-133664419D01*
X152828571Y-133664419D02*
X152790475Y-133512038D01*
X152790475Y-133512038D02*
X152790475Y-133397752D01*
X152790475Y-133397752D02*
X152828571Y-133245371D01*
X152828571Y-133245371D02*
X152866666Y-133169180D01*
X152866666Y-133169180D02*
X152942856Y-133092990D01*
X152942856Y-133092990D02*
X153057142Y-133054895D01*
X153057142Y-133054895D02*
X153133333Y-133054895D01*
X153133333Y-133054895D02*
X153247618Y-133092990D01*
X153247618Y-133092990D02*
X153285714Y-133131085D01*
X153590475Y-133131085D02*
X153628571Y-133092990D01*
X153628571Y-133092990D02*
X153704761Y-133054895D01*
X153704761Y-133054895D02*
X153895237Y-133054895D01*
X153895237Y-133054895D02*
X153971428Y-133092990D01*
X153971428Y-133092990D02*
X154009523Y-133131085D01*
X154009523Y-133131085D02*
X154047618Y-133207276D01*
X154047618Y-133207276D02*
X154047618Y-133283466D01*
X154047618Y-133283466D02*
X154009523Y-133397752D01*
X154009523Y-133397752D02*
X153552380Y-133854895D01*
X153552380Y-133854895D02*
X154047618Y-133854895D01*
X154809523Y-133854895D02*
X154352380Y-133854895D01*
X154580952Y-133854895D02*
X154580952Y-133054895D01*
X154580952Y-133054895D02*
X154504761Y-133169180D01*
X154504761Y-133169180D02*
X154428571Y-133245371D01*
X154428571Y-133245371D02*
X154352380Y-133283466D01*
X76474895Y-139233332D02*
X76093942Y-139499999D01*
X76474895Y-139690475D02*
X75674895Y-139690475D01*
X75674895Y-139690475D02*
X75674895Y-139385713D01*
X75674895Y-139385713D02*
X75712990Y-139309523D01*
X75712990Y-139309523D02*
X75751085Y-139271428D01*
X75751085Y-139271428D02*
X75827276Y-139233332D01*
X75827276Y-139233332D02*
X75941561Y-139233332D01*
X75941561Y-139233332D02*
X76017752Y-139271428D01*
X76017752Y-139271428D02*
X76055847Y-139309523D01*
X76055847Y-139309523D02*
X76093942Y-139385713D01*
X76093942Y-139385713D02*
X76093942Y-139690475D01*
X75674895Y-138966666D02*
X75674895Y-138433332D01*
X75674895Y-138433332D02*
X76474895Y-138776190D01*
X116401666Y-134459895D02*
X116020714Y-134459895D01*
X116020714Y-134459895D02*
X116020714Y-133659895D01*
X117087380Y-134459895D02*
X116630237Y-134459895D01*
X116858809Y-134459895D02*
X116858809Y-133659895D01*
X116858809Y-133659895D02*
X116782618Y-133774180D01*
X116782618Y-133774180D02*
X116706428Y-133850371D01*
X116706428Y-133850371D02*
X116630237Y-133888466D01*
X147801800Y-146691667D02*
X147839895Y-146577381D01*
X147839895Y-146577381D02*
X147839895Y-146386905D01*
X147839895Y-146386905D02*
X147801800Y-146310714D01*
X147801800Y-146310714D02*
X147763704Y-146272619D01*
X147763704Y-146272619D02*
X147687514Y-146234524D01*
X147687514Y-146234524D02*
X147611323Y-146234524D01*
X147611323Y-146234524D02*
X147535133Y-146272619D01*
X147535133Y-146272619D02*
X147497038Y-146310714D01*
X147497038Y-146310714D02*
X147458942Y-146386905D01*
X147458942Y-146386905D02*
X147420847Y-146539286D01*
X147420847Y-146539286D02*
X147382752Y-146615476D01*
X147382752Y-146615476D02*
X147344657Y-146653571D01*
X147344657Y-146653571D02*
X147268466Y-146691667D01*
X147268466Y-146691667D02*
X147192276Y-146691667D01*
X147192276Y-146691667D02*
X147116085Y-146653571D01*
X147116085Y-146653571D02*
X147077990Y-146615476D01*
X147077990Y-146615476D02*
X147039895Y-146539286D01*
X147039895Y-146539286D02*
X147039895Y-146348809D01*
X147039895Y-146348809D02*
X147077990Y-146234524D01*
X147039895Y-145967857D02*
X147839895Y-145777381D01*
X147839895Y-145777381D02*
X147268466Y-145625000D01*
X147268466Y-145625000D02*
X147839895Y-145472619D01*
X147839895Y-145472619D02*
X147039895Y-145282143D01*
X147116085Y-145015476D02*
X147077990Y-144977380D01*
X147077990Y-144977380D02*
X147039895Y-144901190D01*
X147039895Y-144901190D02*
X147039895Y-144710714D01*
X147039895Y-144710714D02*
X147077990Y-144634523D01*
X147077990Y-144634523D02*
X147116085Y-144596428D01*
X147116085Y-144596428D02*
X147192276Y-144558333D01*
X147192276Y-144558333D02*
X147268466Y-144558333D01*
X147268466Y-144558333D02*
X147382752Y-144596428D01*
X147382752Y-144596428D02*
X147839895Y-145053571D01*
X147839895Y-145053571D02*
X147839895Y-144558333D01*
X116049895Y-138342023D02*
X116697514Y-138342023D01*
X116697514Y-138342023D02*
X116773704Y-138303928D01*
X116773704Y-138303928D02*
X116811800Y-138265833D01*
X116811800Y-138265833D02*
X116849895Y-138189642D01*
X116849895Y-138189642D02*
X116849895Y-138037261D01*
X116849895Y-138037261D02*
X116811800Y-137961071D01*
X116811800Y-137961071D02*
X116773704Y-137922976D01*
X116773704Y-137922976D02*
X116697514Y-137884880D01*
X116697514Y-137884880D02*
X116049895Y-137884880D01*
X116126085Y-137542024D02*
X116087990Y-137503928D01*
X116087990Y-137503928D02*
X116049895Y-137427738D01*
X116049895Y-137427738D02*
X116049895Y-137237262D01*
X116049895Y-137237262D02*
X116087990Y-137161071D01*
X116087990Y-137161071D02*
X116126085Y-137122976D01*
X116126085Y-137122976D02*
X116202276Y-137084881D01*
X116202276Y-137084881D02*
X116278466Y-137084881D01*
X116278466Y-137084881D02*
X116392752Y-137122976D01*
X116392752Y-137122976D02*
X116849895Y-137580119D01*
X116849895Y-137580119D02*
X116849895Y-137084881D01*
X75993809Y-143221085D02*
X75917619Y-143182990D01*
X75917619Y-143182990D02*
X75841428Y-143106800D01*
X75841428Y-143106800D02*
X75727142Y-142992514D01*
X75727142Y-142992514D02*
X75650952Y-142954419D01*
X75650952Y-142954419D02*
X75574761Y-142954419D01*
X75612857Y-143144895D02*
X75536666Y-143106800D01*
X75536666Y-143106800D02*
X75460476Y-143030609D01*
X75460476Y-143030609D02*
X75422380Y-142878228D01*
X75422380Y-142878228D02*
X75422380Y-142611561D01*
X75422380Y-142611561D02*
X75460476Y-142459180D01*
X75460476Y-142459180D02*
X75536666Y-142382990D01*
X75536666Y-142382990D02*
X75612857Y-142344895D01*
X75612857Y-142344895D02*
X75765238Y-142344895D01*
X75765238Y-142344895D02*
X75841428Y-142382990D01*
X75841428Y-142382990D02*
X75917619Y-142459180D01*
X75917619Y-142459180D02*
X75955714Y-142611561D01*
X75955714Y-142611561D02*
X75955714Y-142878228D01*
X75955714Y-142878228D02*
X75917619Y-143030609D01*
X75917619Y-143030609D02*
X75841428Y-143106800D01*
X75841428Y-143106800D02*
X75765238Y-143144895D01*
X75765238Y-143144895D02*
X75612857Y-143144895D01*
X76260475Y-142421085D02*
X76298571Y-142382990D01*
X76298571Y-142382990D02*
X76374761Y-142344895D01*
X76374761Y-142344895D02*
X76565237Y-142344895D01*
X76565237Y-142344895D02*
X76641428Y-142382990D01*
X76641428Y-142382990D02*
X76679523Y-142421085D01*
X76679523Y-142421085D02*
X76717618Y-142497276D01*
X76717618Y-142497276D02*
X76717618Y-142573466D01*
X76717618Y-142573466D02*
X76679523Y-142687752D01*
X76679523Y-142687752D02*
X76222380Y-143144895D01*
X76222380Y-143144895D02*
X76717618Y-143144895D01*
X139463214Y-148779895D02*
X139196547Y-148398942D01*
X139006071Y-148779895D02*
X139006071Y-147979895D01*
X139006071Y-147979895D02*
X139310833Y-147979895D01*
X139310833Y-147979895D02*
X139387023Y-148017990D01*
X139387023Y-148017990D02*
X139425118Y-148056085D01*
X139425118Y-148056085D02*
X139463214Y-148132276D01*
X139463214Y-148132276D02*
X139463214Y-148246561D01*
X139463214Y-148246561D02*
X139425118Y-148322752D01*
X139425118Y-148322752D02*
X139387023Y-148360847D01*
X139387023Y-148360847D02*
X139310833Y-148398942D01*
X139310833Y-148398942D02*
X139006071Y-148398942D01*
X139767975Y-148056085D02*
X139806071Y-148017990D01*
X139806071Y-148017990D02*
X139882261Y-147979895D01*
X139882261Y-147979895D02*
X140072737Y-147979895D01*
X140072737Y-147979895D02*
X140148928Y-148017990D01*
X140148928Y-148017990D02*
X140187023Y-148056085D01*
X140187023Y-148056085D02*
X140225118Y-148132276D01*
X140225118Y-148132276D02*
X140225118Y-148208466D01*
X140225118Y-148208466D02*
X140187023Y-148322752D01*
X140187023Y-148322752D02*
X139729880Y-148779895D01*
X139729880Y-148779895D02*
X140225118Y-148779895D01*
X140529880Y-148056085D02*
X140567976Y-148017990D01*
X140567976Y-148017990D02*
X140644166Y-147979895D01*
X140644166Y-147979895D02*
X140834642Y-147979895D01*
X140834642Y-147979895D02*
X140910833Y-148017990D01*
X140910833Y-148017990D02*
X140948928Y-148056085D01*
X140948928Y-148056085D02*
X140987023Y-148132276D01*
X140987023Y-148132276D02*
X140987023Y-148208466D01*
X140987023Y-148208466D02*
X140948928Y-148322752D01*
X140948928Y-148322752D02*
X140491785Y-148779895D01*
X140491785Y-148779895D02*
X140987023Y-148779895D01*
X152044895Y-150846666D02*
X152616323Y-150846666D01*
X152616323Y-150846666D02*
X152730609Y-150884761D01*
X152730609Y-150884761D02*
X152806800Y-150960952D01*
X152806800Y-150960952D02*
X152844895Y-151075237D01*
X152844895Y-151075237D02*
X152844895Y-151151428D01*
X152044895Y-150122856D02*
X152044895Y-150275237D01*
X152044895Y-150275237D02*
X152082990Y-150351428D01*
X152082990Y-150351428D02*
X152121085Y-150389523D01*
X152121085Y-150389523D02*
X152235371Y-150465713D01*
X152235371Y-150465713D02*
X152387752Y-150503809D01*
X152387752Y-150503809D02*
X152692514Y-150503809D01*
X152692514Y-150503809D02*
X152768704Y-150465713D01*
X152768704Y-150465713D02*
X152806800Y-150427618D01*
X152806800Y-150427618D02*
X152844895Y-150351428D01*
X152844895Y-150351428D02*
X152844895Y-150199047D01*
X152844895Y-150199047D02*
X152806800Y-150122856D01*
X152806800Y-150122856D02*
X152768704Y-150084761D01*
X152768704Y-150084761D02*
X152692514Y-150046666D01*
X152692514Y-150046666D02*
X152502038Y-150046666D01*
X152502038Y-150046666D02*
X152425847Y-150084761D01*
X152425847Y-150084761D02*
X152387752Y-150122856D01*
X152387752Y-150122856D02*
X152349657Y-150199047D01*
X152349657Y-150199047D02*
X152349657Y-150351428D01*
X152349657Y-150351428D02*
X152387752Y-150427618D01*
X152387752Y-150427618D02*
X152425847Y-150465713D01*
X152425847Y-150465713D02*
X152502038Y-150503809D01*
X138568704Y-150194285D02*
X138606800Y-150232381D01*
X138606800Y-150232381D02*
X138644895Y-150346666D01*
X138644895Y-150346666D02*
X138644895Y-150422857D01*
X138644895Y-150422857D02*
X138606800Y-150537143D01*
X138606800Y-150537143D02*
X138530609Y-150613333D01*
X138530609Y-150613333D02*
X138454419Y-150651428D01*
X138454419Y-150651428D02*
X138302038Y-150689524D01*
X138302038Y-150689524D02*
X138187752Y-150689524D01*
X138187752Y-150689524D02*
X138035371Y-150651428D01*
X138035371Y-150651428D02*
X137959180Y-150613333D01*
X137959180Y-150613333D02*
X137882990Y-150537143D01*
X137882990Y-150537143D02*
X137844895Y-150422857D01*
X137844895Y-150422857D02*
X137844895Y-150346666D01*
X137844895Y-150346666D02*
X137882990Y-150232381D01*
X137882990Y-150232381D02*
X137921085Y-150194285D01*
X138644895Y-149432381D02*
X138644895Y-149889524D01*
X138644895Y-149660952D02*
X137844895Y-149660952D01*
X137844895Y-149660952D02*
X137959180Y-149737143D01*
X137959180Y-149737143D02*
X138035371Y-149813333D01*
X138035371Y-149813333D02*
X138073466Y-149889524D01*
X137921085Y-149127619D02*
X137882990Y-149089523D01*
X137882990Y-149089523D02*
X137844895Y-149013333D01*
X137844895Y-149013333D02*
X137844895Y-148822857D01*
X137844895Y-148822857D02*
X137882990Y-148746666D01*
X137882990Y-148746666D02*
X137921085Y-148708571D01*
X137921085Y-148708571D02*
X137997276Y-148670476D01*
X137997276Y-148670476D02*
X138073466Y-148670476D01*
X138073466Y-148670476D02*
X138187752Y-148708571D01*
X138187752Y-148708571D02*
X138644895Y-149165714D01*
X138644895Y-149165714D02*
X138644895Y-148670476D01*
X141438214Y-148779895D02*
X141171547Y-148398942D01*
X140981071Y-148779895D02*
X140981071Y-147979895D01*
X140981071Y-147979895D02*
X141285833Y-147979895D01*
X141285833Y-147979895D02*
X141362023Y-148017990D01*
X141362023Y-148017990D02*
X141400118Y-148056085D01*
X141400118Y-148056085D02*
X141438214Y-148132276D01*
X141438214Y-148132276D02*
X141438214Y-148246561D01*
X141438214Y-148246561D02*
X141400118Y-148322752D01*
X141400118Y-148322752D02*
X141362023Y-148360847D01*
X141362023Y-148360847D02*
X141285833Y-148398942D01*
X141285833Y-148398942D02*
X140981071Y-148398942D01*
X141742975Y-148056085D02*
X141781071Y-148017990D01*
X141781071Y-148017990D02*
X141857261Y-147979895D01*
X141857261Y-147979895D02*
X142047737Y-147979895D01*
X142047737Y-147979895D02*
X142123928Y-148017990D01*
X142123928Y-148017990D02*
X142162023Y-148056085D01*
X142162023Y-148056085D02*
X142200118Y-148132276D01*
X142200118Y-148132276D02*
X142200118Y-148208466D01*
X142200118Y-148208466D02*
X142162023Y-148322752D01*
X142162023Y-148322752D02*
X141704880Y-148779895D01*
X141704880Y-148779895D02*
X142200118Y-148779895D01*
X142466785Y-147979895D02*
X142962023Y-147979895D01*
X142962023Y-147979895D02*
X142695357Y-148284657D01*
X142695357Y-148284657D02*
X142809642Y-148284657D01*
X142809642Y-148284657D02*
X142885833Y-148322752D01*
X142885833Y-148322752D02*
X142923928Y-148360847D01*
X142923928Y-148360847D02*
X142962023Y-148437038D01*
X142962023Y-148437038D02*
X142962023Y-148627514D01*
X142962023Y-148627514D02*
X142923928Y-148703704D01*
X142923928Y-148703704D02*
X142885833Y-148741800D01*
X142885833Y-148741800D02*
X142809642Y-148779895D01*
X142809642Y-148779895D02*
X142581071Y-148779895D01*
X142581071Y-148779895D02*
X142504880Y-148741800D01*
X142504880Y-148741800D02*
X142466785Y-148703704D01*
X152334895Y-132304285D02*
X151953942Y-132570952D01*
X152334895Y-132761428D02*
X151534895Y-132761428D01*
X151534895Y-132761428D02*
X151534895Y-132456666D01*
X151534895Y-132456666D02*
X151572990Y-132380476D01*
X151572990Y-132380476D02*
X151611085Y-132342381D01*
X151611085Y-132342381D02*
X151687276Y-132304285D01*
X151687276Y-132304285D02*
X151801561Y-132304285D01*
X151801561Y-132304285D02*
X151877752Y-132342381D01*
X151877752Y-132342381D02*
X151915847Y-132380476D01*
X151915847Y-132380476D02*
X151953942Y-132456666D01*
X151953942Y-132456666D02*
X151953942Y-132761428D01*
X151534895Y-132037619D02*
X151534895Y-131542381D01*
X151534895Y-131542381D02*
X151839657Y-131809047D01*
X151839657Y-131809047D02*
X151839657Y-131694762D01*
X151839657Y-131694762D02*
X151877752Y-131618571D01*
X151877752Y-131618571D02*
X151915847Y-131580476D01*
X151915847Y-131580476D02*
X151992038Y-131542381D01*
X151992038Y-131542381D02*
X152182514Y-131542381D01*
X152182514Y-131542381D02*
X152258704Y-131580476D01*
X152258704Y-131580476D02*
X152296800Y-131618571D01*
X152296800Y-131618571D02*
X152334895Y-131694762D01*
X152334895Y-131694762D02*
X152334895Y-131923333D01*
X152334895Y-131923333D02*
X152296800Y-131999524D01*
X152296800Y-131999524D02*
X152258704Y-132037619D01*
X151801561Y-130856666D02*
X152334895Y-130856666D01*
X151496800Y-131047142D02*
X152068228Y-131237619D01*
X152068228Y-131237619D02*
X152068228Y-130742380D01*
X78673333Y-169884895D02*
X78673333Y-170456323D01*
X78673333Y-170456323D02*
X78635238Y-170570609D01*
X78635238Y-170570609D02*
X78559047Y-170646800D01*
X78559047Y-170646800D02*
X78444762Y-170684895D01*
X78444762Y-170684895D02*
X78368571Y-170684895D01*
X79397143Y-170151561D02*
X79397143Y-170684895D01*
X79206667Y-169846800D02*
X79016190Y-170418228D01*
X79016190Y-170418228D02*
X79511429Y-170418228D01*
X141590622Y-135889895D02*
X141590622Y-136537514D01*
X141590622Y-136537514D02*
X141628717Y-136613704D01*
X141628717Y-136613704D02*
X141666812Y-136651800D01*
X141666812Y-136651800D02*
X141743003Y-136689895D01*
X141743003Y-136689895D02*
X141895384Y-136689895D01*
X141895384Y-136689895D02*
X141971574Y-136651800D01*
X141971574Y-136651800D02*
X142009669Y-136613704D01*
X142009669Y-136613704D02*
X142047765Y-136537514D01*
X142047765Y-136537514D02*
X142047765Y-135889895D01*
X142847764Y-136689895D02*
X142390621Y-136689895D01*
X142619193Y-136689895D02*
X142619193Y-135889895D01*
X142619193Y-135889895D02*
X142543002Y-136004180D01*
X142543002Y-136004180D02*
X142466812Y-136080371D01*
X142466812Y-136080371D02*
X142390621Y-136118466D01*
X143343003Y-135889895D02*
X143419193Y-135889895D01*
X143419193Y-135889895D02*
X143495384Y-135927990D01*
X143495384Y-135927990D02*
X143533479Y-135966085D01*
X143533479Y-135966085D02*
X143571574Y-136042276D01*
X143571574Y-136042276D02*
X143609669Y-136194657D01*
X143609669Y-136194657D02*
X143609669Y-136385133D01*
X143609669Y-136385133D02*
X143571574Y-136537514D01*
X143571574Y-136537514D02*
X143533479Y-136613704D01*
X143533479Y-136613704D02*
X143495384Y-136651800D01*
X143495384Y-136651800D02*
X143419193Y-136689895D01*
X143419193Y-136689895D02*
X143343003Y-136689895D01*
X143343003Y-136689895D02*
X143266812Y-136651800D01*
X143266812Y-136651800D02*
X143228717Y-136613704D01*
X143228717Y-136613704D02*
X143190622Y-136537514D01*
X143190622Y-136537514D02*
X143152526Y-136385133D01*
X143152526Y-136385133D02*
X143152526Y-136194657D01*
X143152526Y-136194657D02*
X143190622Y-136042276D01*
X143190622Y-136042276D02*
X143228717Y-135966085D01*
X143228717Y-135966085D02*
X143266812Y-135927990D01*
X143266812Y-135927990D02*
X143343003Y-135889895D01*
X77864895Y-154809523D02*
X78512514Y-154809523D01*
X78512514Y-154809523D02*
X78588704Y-154771428D01*
X78588704Y-154771428D02*
X78626800Y-154733333D01*
X78626800Y-154733333D02*
X78664895Y-154657142D01*
X78664895Y-154657142D02*
X78664895Y-154504761D01*
X78664895Y-154504761D02*
X78626800Y-154428571D01*
X78626800Y-154428571D02*
X78588704Y-154390476D01*
X78588704Y-154390476D02*
X78512514Y-154352380D01*
X78512514Y-154352380D02*
X77864895Y-154352380D01*
X77864895Y-154047619D02*
X77864895Y-153552381D01*
X77864895Y-153552381D02*
X78169657Y-153819047D01*
X78169657Y-153819047D02*
X78169657Y-153704762D01*
X78169657Y-153704762D02*
X78207752Y-153628571D01*
X78207752Y-153628571D02*
X78245847Y-153590476D01*
X78245847Y-153590476D02*
X78322038Y-153552381D01*
X78322038Y-153552381D02*
X78512514Y-153552381D01*
X78512514Y-153552381D02*
X78588704Y-153590476D01*
X78588704Y-153590476D02*
X78626800Y-153628571D01*
X78626800Y-153628571D02*
X78664895Y-153704762D01*
X78664895Y-153704762D02*
X78664895Y-153933333D01*
X78664895Y-153933333D02*
X78626800Y-154009524D01*
X78626800Y-154009524D02*
X78588704Y-154047619D01*
X126424895Y-135466666D02*
X126996323Y-135466666D01*
X126996323Y-135466666D02*
X127110609Y-135504761D01*
X127110609Y-135504761D02*
X127186800Y-135580952D01*
X127186800Y-135580952D02*
X127224895Y-135695237D01*
X127224895Y-135695237D02*
X127224895Y-135771428D01*
X126424895Y-134704761D02*
X126424895Y-135085713D01*
X126424895Y-135085713D02*
X126805847Y-135123809D01*
X126805847Y-135123809D02*
X126767752Y-135085713D01*
X126767752Y-135085713D02*
X126729657Y-135009523D01*
X126729657Y-135009523D02*
X126729657Y-134819047D01*
X126729657Y-134819047D02*
X126767752Y-134742856D01*
X126767752Y-134742856D02*
X126805847Y-134704761D01*
X126805847Y-134704761D02*
X126882038Y-134666666D01*
X126882038Y-134666666D02*
X127072514Y-134666666D01*
X127072514Y-134666666D02*
X127148704Y-134704761D01*
X127148704Y-134704761D02*
X127186800Y-134742856D01*
X127186800Y-134742856D02*
X127224895Y-134819047D01*
X127224895Y-134819047D02*
X127224895Y-135009523D01*
X127224895Y-135009523D02*
X127186800Y-135085713D01*
X127186800Y-135085713D02*
X127148704Y-135123809D01*
X135474895Y-144924285D02*
X135093942Y-145190952D01*
X135474895Y-145381428D02*
X134674895Y-145381428D01*
X134674895Y-145381428D02*
X134674895Y-145076666D01*
X134674895Y-145076666D02*
X134712990Y-145000476D01*
X134712990Y-145000476D02*
X134751085Y-144962381D01*
X134751085Y-144962381D02*
X134827276Y-144924285D01*
X134827276Y-144924285D02*
X134941561Y-144924285D01*
X134941561Y-144924285D02*
X135017752Y-144962381D01*
X135017752Y-144962381D02*
X135055847Y-145000476D01*
X135055847Y-145000476D02*
X135093942Y-145076666D01*
X135093942Y-145076666D02*
X135093942Y-145381428D01*
X134674895Y-144657619D02*
X134674895Y-144162381D01*
X134674895Y-144162381D02*
X134979657Y-144429047D01*
X134979657Y-144429047D02*
X134979657Y-144314762D01*
X134979657Y-144314762D02*
X135017752Y-144238571D01*
X135017752Y-144238571D02*
X135055847Y-144200476D01*
X135055847Y-144200476D02*
X135132038Y-144162381D01*
X135132038Y-144162381D02*
X135322514Y-144162381D01*
X135322514Y-144162381D02*
X135398704Y-144200476D01*
X135398704Y-144200476D02*
X135436800Y-144238571D01*
X135436800Y-144238571D02*
X135474895Y-144314762D01*
X135474895Y-144314762D02*
X135474895Y-144543333D01*
X135474895Y-144543333D02*
X135436800Y-144619524D01*
X135436800Y-144619524D02*
X135398704Y-144657619D01*
X134751085Y-143857619D02*
X134712990Y-143819523D01*
X134712990Y-143819523D02*
X134674895Y-143743333D01*
X134674895Y-143743333D02*
X134674895Y-143552857D01*
X134674895Y-143552857D02*
X134712990Y-143476666D01*
X134712990Y-143476666D02*
X134751085Y-143438571D01*
X134751085Y-143438571D02*
X134827276Y-143400476D01*
X134827276Y-143400476D02*
X134903466Y-143400476D01*
X134903466Y-143400476D02*
X135017752Y-143438571D01*
X135017752Y-143438571D02*
X135474895Y-143895714D01*
X135474895Y-143895714D02*
X135474895Y-143400476D01*
X86309524Y-161164895D02*
X86309524Y-160364895D01*
X86309524Y-160364895D02*
X86500000Y-160364895D01*
X86500000Y-160364895D02*
X86614286Y-160402990D01*
X86614286Y-160402990D02*
X86690476Y-160479180D01*
X86690476Y-160479180D02*
X86728571Y-160555371D01*
X86728571Y-160555371D02*
X86766667Y-160707752D01*
X86766667Y-160707752D02*
X86766667Y-160822038D01*
X86766667Y-160822038D02*
X86728571Y-160974419D01*
X86728571Y-160974419D02*
X86690476Y-161050609D01*
X86690476Y-161050609D02*
X86614286Y-161126800D01*
X86614286Y-161126800D02*
X86500000Y-161164895D01*
X86500000Y-161164895D02*
X86309524Y-161164895D01*
X87033333Y-160364895D02*
X87528571Y-160364895D01*
X87528571Y-160364895D02*
X87261905Y-160669657D01*
X87261905Y-160669657D02*
X87376190Y-160669657D01*
X87376190Y-160669657D02*
X87452381Y-160707752D01*
X87452381Y-160707752D02*
X87490476Y-160745847D01*
X87490476Y-160745847D02*
X87528571Y-160822038D01*
X87528571Y-160822038D02*
X87528571Y-161012514D01*
X87528571Y-161012514D02*
X87490476Y-161088704D01*
X87490476Y-161088704D02*
X87452381Y-161126800D01*
X87452381Y-161126800D02*
X87376190Y-161164895D01*
X87376190Y-161164895D02*
X87147619Y-161164895D01*
X87147619Y-161164895D02*
X87071428Y-161126800D01*
X87071428Y-161126800D02*
X87033333Y-161088704D01*
X83484895Y-143143332D02*
X83103942Y-143409999D01*
X83484895Y-143600475D02*
X82684895Y-143600475D01*
X82684895Y-143600475D02*
X82684895Y-143295713D01*
X82684895Y-143295713D02*
X82722990Y-143219523D01*
X82722990Y-143219523D02*
X82761085Y-143181428D01*
X82761085Y-143181428D02*
X82837276Y-143143332D01*
X82837276Y-143143332D02*
X82951561Y-143143332D01*
X82951561Y-143143332D02*
X83027752Y-143181428D01*
X83027752Y-143181428D02*
X83065847Y-143219523D01*
X83065847Y-143219523D02*
X83103942Y-143295713D01*
X83103942Y-143295713D02*
X83103942Y-143600475D01*
X83484895Y-142762380D02*
X83484895Y-142609999D01*
X83484895Y-142609999D02*
X83446800Y-142533809D01*
X83446800Y-142533809D02*
X83408704Y-142495713D01*
X83408704Y-142495713D02*
X83294419Y-142419523D01*
X83294419Y-142419523D02*
X83142038Y-142381428D01*
X83142038Y-142381428D02*
X82837276Y-142381428D01*
X82837276Y-142381428D02*
X82761085Y-142419523D01*
X82761085Y-142419523D02*
X82722990Y-142457618D01*
X82722990Y-142457618D02*
X82684895Y-142533809D01*
X82684895Y-142533809D02*
X82684895Y-142686190D01*
X82684895Y-142686190D02*
X82722990Y-142762380D01*
X82722990Y-142762380D02*
X82761085Y-142800475D01*
X82761085Y-142800475D02*
X82837276Y-142838571D01*
X82837276Y-142838571D02*
X83027752Y-142838571D01*
X83027752Y-142838571D02*
X83103942Y-142800475D01*
X83103942Y-142800475D02*
X83142038Y-142762380D01*
X83142038Y-142762380D02*
X83180133Y-142686190D01*
X83180133Y-142686190D02*
X83180133Y-142533809D01*
X83180133Y-142533809D02*
X83142038Y-142457618D01*
X83142038Y-142457618D02*
X83103942Y-142419523D01*
X83103942Y-142419523D02*
X83027752Y-142381428D01*
X125874895Y-150310475D02*
X125074895Y-150310475D01*
X125074895Y-150310475D02*
X125074895Y-150119999D01*
X125074895Y-150119999D02*
X125112990Y-150005713D01*
X125112990Y-150005713D02*
X125189180Y-149929523D01*
X125189180Y-149929523D02*
X125265371Y-149891428D01*
X125265371Y-149891428D02*
X125417752Y-149853332D01*
X125417752Y-149853332D02*
X125532038Y-149853332D01*
X125532038Y-149853332D02*
X125684419Y-149891428D01*
X125684419Y-149891428D02*
X125760609Y-149929523D01*
X125760609Y-149929523D02*
X125836800Y-150005713D01*
X125836800Y-150005713D02*
X125874895Y-150119999D01*
X125874895Y-150119999D02*
X125874895Y-150310475D01*
X125874895Y-149091428D02*
X125874895Y-149548571D01*
X125874895Y-149319999D02*
X125074895Y-149319999D01*
X125074895Y-149319999D02*
X125189180Y-149396190D01*
X125189180Y-149396190D02*
X125265371Y-149472380D01*
X125265371Y-149472380D02*
X125303466Y-149548571D01*
X113173333Y-154814895D02*
X113173333Y-155386323D01*
X113173333Y-155386323D02*
X113135238Y-155500609D01*
X113135238Y-155500609D02*
X113059047Y-155576800D01*
X113059047Y-155576800D02*
X112944762Y-155614895D01*
X112944762Y-155614895D02*
X112868571Y-155614895D01*
X113516190Y-154891085D02*
X113554286Y-154852990D01*
X113554286Y-154852990D02*
X113630476Y-154814895D01*
X113630476Y-154814895D02*
X113820952Y-154814895D01*
X113820952Y-154814895D02*
X113897143Y-154852990D01*
X113897143Y-154852990D02*
X113935238Y-154891085D01*
X113935238Y-154891085D02*
X113973333Y-154967276D01*
X113973333Y-154967276D02*
X113973333Y-155043466D01*
X113973333Y-155043466D02*
X113935238Y-155157752D01*
X113935238Y-155157752D02*
X113478095Y-155614895D01*
X113478095Y-155614895D02*
X113973333Y-155614895D01*
X130884895Y-133844285D02*
X130503942Y-134110952D01*
X130884895Y-134301428D02*
X130084895Y-134301428D01*
X130084895Y-134301428D02*
X130084895Y-133996666D01*
X130084895Y-133996666D02*
X130122990Y-133920476D01*
X130122990Y-133920476D02*
X130161085Y-133882381D01*
X130161085Y-133882381D02*
X130237276Y-133844285D01*
X130237276Y-133844285D02*
X130351561Y-133844285D01*
X130351561Y-133844285D02*
X130427752Y-133882381D01*
X130427752Y-133882381D02*
X130465847Y-133920476D01*
X130465847Y-133920476D02*
X130503942Y-133996666D01*
X130503942Y-133996666D02*
X130503942Y-134301428D01*
X130161085Y-133539524D02*
X130122990Y-133501428D01*
X130122990Y-133501428D02*
X130084895Y-133425238D01*
X130084895Y-133425238D02*
X130084895Y-133234762D01*
X130084895Y-133234762D02*
X130122990Y-133158571D01*
X130122990Y-133158571D02*
X130161085Y-133120476D01*
X130161085Y-133120476D02*
X130237276Y-133082381D01*
X130237276Y-133082381D02*
X130313466Y-133082381D01*
X130313466Y-133082381D02*
X130427752Y-133120476D01*
X130427752Y-133120476D02*
X130884895Y-133577619D01*
X130884895Y-133577619D02*
X130884895Y-133082381D01*
X130084895Y-132587142D02*
X130084895Y-132510952D01*
X130084895Y-132510952D02*
X130122990Y-132434761D01*
X130122990Y-132434761D02*
X130161085Y-132396666D01*
X130161085Y-132396666D02*
X130237276Y-132358571D01*
X130237276Y-132358571D02*
X130389657Y-132320476D01*
X130389657Y-132320476D02*
X130580133Y-132320476D01*
X130580133Y-132320476D02*
X130732514Y-132358571D01*
X130732514Y-132358571D02*
X130808704Y-132396666D01*
X130808704Y-132396666D02*
X130846800Y-132434761D01*
X130846800Y-132434761D02*
X130884895Y-132510952D01*
X130884895Y-132510952D02*
X130884895Y-132587142D01*
X130884895Y-132587142D02*
X130846800Y-132663333D01*
X130846800Y-132663333D02*
X130808704Y-132701428D01*
X130808704Y-132701428D02*
X130732514Y-132739523D01*
X130732514Y-132739523D02*
X130580133Y-132777619D01*
X130580133Y-132777619D02*
X130389657Y-132777619D01*
X130389657Y-132777619D02*
X130237276Y-132739523D01*
X130237276Y-132739523D02*
X130161085Y-132701428D01*
X130161085Y-132701428D02*
X130122990Y-132663333D01*
X130122990Y-132663333D02*
X130084895Y-132587142D01*
X133388704Y-133034285D02*
X133426800Y-133072381D01*
X133426800Y-133072381D02*
X133464895Y-133186666D01*
X133464895Y-133186666D02*
X133464895Y-133262857D01*
X133464895Y-133262857D02*
X133426800Y-133377143D01*
X133426800Y-133377143D02*
X133350609Y-133453333D01*
X133350609Y-133453333D02*
X133274419Y-133491428D01*
X133274419Y-133491428D02*
X133122038Y-133529524D01*
X133122038Y-133529524D02*
X133007752Y-133529524D01*
X133007752Y-133529524D02*
X132855371Y-133491428D01*
X132855371Y-133491428D02*
X132779180Y-133453333D01*
X132779180Y-133453333D02*
X132702990Y-133377143D01*
X132702990Y-133377143D02*
X132664895Y-133262857D01*
X132664895Y-133262857D02*
X132664895Y-133186666D01*
X132664895Y-133186666D02*
X132702990Y-133072381D01*
X132702990Y-133072381D02*
X132741085Y-133034285D01*
X133464895Y-132272381D02*
X133464895Y-132729524D01*
X133464895Y-132500952D02*
X132664895Y-132500952D01*
X132664895Y-132500952D02*
X132779180Y-132577143D01*
X132779180Y-132577143D02*
X132855371Y-132653333D01*
X132855371Y-132653333D02*
X132893466Y-132729524D01*
X133464895Y-131510476D02*
X133464895Y-131967619D01*
X133464895Y-131739047D02*
X132664895Y-131739047D01*
X132664895Y-131739047D02*
X132779180Y-131815238D01*
X132779180Y-131815238D02*
X132855371Y-131891428D01*
X132855371Y-131891428D02*
X132893466Y-131967619D01*
X133565714Y-139818704D02*
X133527618Y-139856800D01*
X133527618Y-139856800D02*
X133413333Y-139894895D01*
X133413333Y-139894895D02*
X133337142Y-139894895D01*
X133337142Y-139894895D02*
X133222856Y-139856800D01*
X133222856Y-139856800D02*
X133146666Y-139780609D01*
X133146666Y-139780609D02*
X133108571Y-139704419D01*
X133108571Y-139704419D02*
X133070475Y-139552038D01*
X133070475Y-139552038D02*
X133070475Y-139437752D01*
X133070475Y-139437752D02*
X133108571Y-139285371D01*
X133108571Y-139285371D02*
X133146666Y-139209180D01*
X133146666Y-139209180D02*
X133222856Y-139132990D01*
X133222856Y-139132990D02*
X133337142Y-139094895D01*
X133337142Y-139094895D02*
X133413333Y-139094895D01*
X133413333Y-139094895D02*
X133527618Y-139132990D01*
X133527618Y-139132990D02*
X133565714Y-139171085D01*
X133870475Y-139171085D02*
X133908571Y-139132990D01*
X133908571Y-139132990D02*
X133984761Y-139094895D01*
X133984761Y-139094895D02*
X134175237Y-139094895D01*
X134175237Y-139094895D02*
X134251428Y-139132990D01*
X134251428Y-139132990D02*
X134289523Y-139171085D01*
X134289523Y-139171085D02*
X134327618Y-139247276D01*
X134327618Y-139247276D02*
X134327618Y-139323466D01*
X134327618Y-139323466D02*
X134289523Y-139437752D01*
X134289523Y-139437752D02*
X133832380Y-139894895D01*
X133832380Y-139894895D02*
X134327618Y-139894895D01*
X134822857Y-139094895D02*
X134899047Y-139094895D01*
X134899047Y-139094895D02*
X134975238Y-139132990D01*
X134975238Y-139132990D02*
X135013333Y-139171085D01*
X135013333Y-139171085D02*
X135051428Y-139247276D01*
X135051428Y-139247276D02*
X135089523Y-139399657D01*
X135089523Y-139399657D02*
X135089523Y-139590133D01*
X135089523Y-139590133D02*
X135051428Y-139742514D01*
X135051428Y-139742514D02*
X135013333Y-139818704D01*
X135013333Y-139818704D02*
X134975238Y-139856800D01*
X134975238Y-139856800D02*
X134899047Y-139894895D01*
X134899047Y-139894895D02*
X134822857Y-139894895D01*
X134822857Y-139894895D02*
X134746666Y-139856800D01*
X134746666Y-139856800D02*
X134708571Y-139818704D01*
X134708571Y-139818704D02*
X134670476Y-139742514D01*
X134670476Y-139742514D02*
X134632380Y-139590133D01*
X134632380Y-139590133D02*
X134632380Y-139399657D01*
X134632380Y-139399657D02*
X134670476Y-139247276D01*
X134670476Y-139247276D02*
X134708571Y-139171085D01*
X134708571Y-139171085D02*
X134746666Y-139132990D01*
X134746666Y-139132990D02*
X134822857Y-139094895D01*
X80214895Y-150033333D02*
X80214895Y-150414285D01*
X80214895Y-150414285D02*
X79414895Y-150414285D01*
X79491085Y-149804762D02*
X79452990Y-149766666D01*
X79452990Y-149766666D02*
X79414895Y-149690476D01*
X79414895Y-149690476D02*
X79414895Y-149500000D01*
X79414895Y-149500000D02*
X79452990Y-149423809D01*
X79452990Y-149423809D02*
X79491085Y-149385714D01*
X79491085Y-149385714D02*
X79567276Y-149347619D01*
X79567276Y-149347619D02*
X79643466Y-149347619D01*
X79643466Y-149347619D02*
X79757752Y-149385714D01*
X79757752Y-149385714D02*
X80214895Y-149842857D01*
X80214895Y-149842857D02*
X80214895Y-149347619D01*
X125518704Y-143654285D02*
X125556800Y-143692381D01*
X125556800Y-143692381D02*
X125594895Y-143806666D01*
X125594895Y-143806666D02*
X125594895Y-143882857D01*
X125594895Y-143882857D02*
X125556800Y-143997143D01*
X125556800Y-143997143D02*
X125480609Y-144073333D01*
X125480609Y-144073333D02*
X125404419Y-144111428D01*
X125404419Y-144111428D02*
X125252038Y-144149524D01*
X125252038Y-144149524D02*
X125137752Y-144149524D01*
X125137752Y-144149524D02*
X124985371Y-144111428D01*
X124985371Y-144111428D02*
X124909180Y-144073333D01*
X124909180Y-144073333D02*
X124832990Y-143997143D01*
X124832990Y-143997143D02*
X124794895Y-143882857D01*
X124794895Y-143882857D02*
X124794895Y-143806666D01*
X124794895Y-143806666D02*
X124832990Y-143692381D01*
X124832990Y-143692381D02*
X124871085Y-143654285D01*
X124794895Y-143387619D02*
X124794895Y-142892381D01*
X124794895Y-142892381D02*
X125099657Y-143159047D01*
X125099657Y-143159047D02*
X125099657Y-143044762D01*
X125099657Y-143044762D02*
X125137752Y-142968571D01*
X125137752Y-142968571D02*
X125175847Y-142930476D01*
X125175847Y-142930476D02*
X125252038Y-142892381D01*
X125252038Y-142892381D02*
X125442514Y-142892381D01*
X125442514Y-142892381D02*
X125518704Y-142930476D01*
X125518704Y-142930476D02*
X125556800Y-142968571D01*
X125556800Y-142968571D02*
X125594895Y-143044762D01*
X125594895Y-143044762D02*
X125594895Y-143273333D01*
X125594895Y-143273333D02*
X125556800Y-143349524D01*
X125556800Y-143349524D02*
X125518704Y-143387619D01*
X124871085Y-142587619D02*
X124832990Y-142549523D01*
X124832990Y-142549523D02*
X124794895Y-142473333D01*
X124794895Y-142473333D02*
X124794895Y-142282857D01*
X124794895Y-142282857D02*
X124832990Y-142206666D01*
X124832990Y-142206666D02*
X124871085Y-142168571D01*
X124871085Y-142168571D02*
X124947276Y-142130476D01*
X124947276Y-142130476D02*
X125023466Y-142130476D01*
X125023466Y-142130476D02*
X125137752Y-142168571D01*
X125137752Y-142168571D02*
X125594895Y-142625714D01*
X125594895Y-142625714D02*
X125594895Y-142130476D01*
X117825714Y-145204895D02*
X117559047Y-144823942D01*
X117368571Y-145204895D02*
X117368571Y-144404895D01*
X117368571Y-144404895D02*
X117673333Y-144404895D01*
X117673333Y-144404895D02*
X117749523Y-144442990D01*
X117749523Y-144442990D02*
X117787618Y-144481085D01*
X117787618Y-144481085D02*
X117825714Y-144557276D01*
X117825714Y-144557276D02*
X117825714Y-144671561D01*
X117825714Y-144671561D02*
X117787618Y-144747752D01*
X117787618Y-144747752D02*
X117749523Y-144785847D01*
X117749523Y-144785847D02*
X117673333Y-144823942D01*
X117673333Y-144823942D02*
X117368571Y-144823942D01*
X118587618Y-145204895D02*
X118130475Y-145204895D01*
X118359047Y-145204895D02*
X118359047Y-144404895D01*
X118359047Y-144404895D02*
X118282856Y-144519180D01*
X118282856Y-144519180D02*
X118206666Y-144595371D01*
X118206666Y-144595371D02*
X118130475Y-144633466D01*
X118892380Y-144481085D02*
X118930476Y-144442990D01*
X118930476Y-144442990D02*
X119006666Y-144404895D01*
X119006666Y-144404895D02*
X119197142Y-144404895D01*
X119197142Y-144404895D02*
X119273333Y-144442990D01*
X119273333Y-144442990D02*
X119311428Y-144481085D01*
X119311428Y-144481085D02*
X119349523Y-144557276D01*
X119349523Y-144557276D02*
X119349523Y-144633466D01*
X119349523Y-144633466D02*
X119311428Y-144747752D01*
X119311428Y-144747752D02*
X118854285Y-145204895D01*
X118854285Y-145204895D02*
X119349523Y-145204895D01*
X126433809Y-154391085D02*
X126357619Y-154352990D01*
X126357619Y-154352990D02*
X126281428Y-154276800D01*
X126281428Y-154276800D02*
X126167142Y-154162514D01*
X126167142Y-154162514D02*
X126090952Y-154124419D01*
X126090952Y-154124419D02*
X126014761Y-154124419D01*
X126052857Y-154314895D02*
X125976666Y-154276800D01*
X125976666Y-154276800D02*
X125900476Y-154200609D01*
X125900476Y-154200609D02*
X125862380Y-154048228D01*
X125862380Y-154048228D02*
X125862380Y-153781561D01*
X125862380Y-153781561D02*
X125900476Y-153629180D01*
X125900476Y-153629180D02*
X125976666Y-153552990D01*
X125976666Y-153552990D02*
X126052857Y-153514895D01*
X126052857Y-153514895D02*
X126205238Y-153514895D01*
X126205238Y-153514895D02*
X126281428Y-153552990D01*
X126281428Y-153552990D02*
X126357619Y-153629180D01*
X126357619Y-153629180D02*
X126395714Y-153781561D01*
X126395714Y-153781561D02*
X126395714Y-154048228D01*
X126395714Y-154048228D02*
X126357619Y-154200609D01*
X126357619Y-154200609D02*
X126281428Y-154276800D01*
X126281428Y-154276800D02*
X126205238Y-154314895D01*
X126205238Y-154314895D02*
X126052857Y-154314895D01*
X127157618Y-154314895D02*
X126700475Y-154314895D01*
X126929047Y-154314895D02*
X126929047Y-153514895D01*
X126929047Y-153514895D02*
X126852856Y-153629180D01*
X126852856Y-153629180D02*
X126776666Y-153705371D01*
X126776666Y-153705371D02*
X126700475Y-153743466D01*
X128321085Y-147297142D02*
X128282990Y-147373332D01*
X128282990Y-147373332D02*
X128206800Y-147449523D01*
X128206800Y-147449523D02*
X128092514Y-147563809D01*
X128092514Y-147563809D02*
X128054419Y-147639999D01*
X128054419Y-147639999D02*
X128054419Y-147716190D01*
X128244895Y-147678094D02*
X128206800Y-147754285D01*
X128206800Y-147754285D02*
X128130609Y-147830475D01*
X128130609Y-147830475D02*
X127978228Y-147868571D01*
X127978228Y-147868571D02*
X127711561Y-147868571D01*
X127711561Y-147868571D02*
X127559180Y-147830475D01*
X127559180Y-147830475D02*
X127482990Y-147754285D01*
X127482990Y-147754285D02*
X127444895Y-147678094D01*
X127444895Y-147678094D02*
X127444895Y-147525713D01*
X127444895Y-147525713D02*
X127482990Y-147449523D01*
X127482990Y-147449523D02*
X127559180Y-147373332D01*
X127559180Y-147373332D02*
X127711561Y-147335237D01*
X127711561Y-147335237D02*
X127978228Y-147335237D01*
X127978228Y-147335237D02*
X128130609Y-147373332D01*
X128130609Y-147373332D02*
X128206800Y-147449523D01*
X128206800Y-147449523D02*
X128244895Y-147525713D01*
X128244895Y-147525713D02*
X128244895Y-147678094D01*
X128244895Y-146573333D02*
X128244895Y-147030476D01*
X128244895Y-146801904D02*
X127444895Y-146801904D01*
X127444895Y-146801904D02*
X127559180Y-146878095D01*
X127559180Y-146878095D02*
X127635371Y-146954285D01*
X127635371Y-146954285D02*
X127673466Y-147030476D01*
X127444895Y-146078094D02*
X127444895Y-146001904D01*
X127444895Y-146001904D02*
X127482990Y-145925713D01*
X127482990Y-145925713D02*
X127521085Y-145887618D01*
X127521085Y-145887618D02*
X127597276Y-145849523D01*
X127597276Y-145849523D02*
X127749657Y-145811428D01*
X127749657Y-145811428D02*
X127940133Y-145811428D01*
X127940133Y-145811428D02*
X128092514Y-145849523D01*
X128092514Y-145849523D02*
X128168704Y-145887618D01*
X128168704Y-145887618D02*
X128206800Y-145925713D01*
X128206800Y-145925713D02*
X128244895Y-146001904D01*
X128244895Y-146001904D02*
X128244895Y-146078094D01*
X128244895Y-146078094D02*
X128206800Y-146154285D01*
X128206800Y-146154285D02*
X128168704Y-146192380D01*
X128168704Y-146192380D02*
X128092514Y-146230475D01*
X128092514Y-146230475D02*
X127940133Y-146268571D01*
X127940133Y-146268571D02*
X127749657Y-146268571D01*
X127749657Y-146268571D02*
X127597276Y-146230475D01*
X127597276Y-146230475D02*
X127521085Y-146192380D01*
X127521085Y-146192380D02*
X127482990Y-146154285D01*
X127482990Y-146154285D02*
X127444895Y-146078094D01*
X133708704Y-146404285D02*
X133746800Y-146442381D01*
X133746800Y-146442381D02*
X133784895Y-146556666D01*
X133784895Y-146556666D02*
X133784895Y-146632857D01*
X133784895Y-146632857D02*
X133746800Y-146747143D01*
X133746800Y-146747143D02*
X133670609Y-146823333D01*
X133670609Y-146823333D02*
X133594419Y-146861428D01*
X133594419Y-146861428D02*
X133442038Y-146899524D01*
X133442038Y-146899524D02*
X133327752Y-146899524D01*
X133327752Y-146899524D02*
X133175371Y-146861428D01*
X133175371Y-146861428D02*
X133099180Y-146823333D01*
X133099180Y-146823333D02*
X133022990Y-146747143D01*
X133022990Y-146747143D02*
X132984895Y-146632857D01*
X132984895Y-146632857D02*
X132984895Y-146556666D01*
X132984895Y-146556666D02*
X133022990Y-146442381D01*
X133022990Y-146442381D02*
X133061085Y-146404285D01*
X133061085Y-146099524D02*
X133022990Y-146061428D01*
X133022990Y-146061428D02*
X132984895Y-145985238D01*
X132984895Y-145985238D02*
X132984895Y-145794762D01*
X132984895Y-145794762D02*
X133022990Y-145718571D01*
X133022990Y-145718571D02*
X133061085Y-145680476D01*
X133061085Y-145680476D02*
X133137276Y-145642381D01*
X133137276Y-145642381D02*
X133213466Y-145642381D01*
X133213466Y-145642381D02*
X133327752Y-145680476D01*
X133327752Y-145680476D02*
X133784895Y-146137619D01*
X133784895Y-146137619D02*
X133784895Y-145642381D01*
X133061085Y-145337619D02*
X133022990Y-145299523D01*
X133022990Y-145299523D02*
X132984895Y-145223333D01*
X132984895Y-145223333D02*
X132984895Y-145032857D01*
X132984895Y-145032857D02*
X133022990Y-144956666D01*
X133022990Y-144956666D02*
X133061085Y-144918571D01*
X133061085Y-144918571D02*
X133137276Y-144880476D01*
X133137276Y-144880476D02*
X133213466Y-144880476D01*
X133213466Y-144880476D02*
X133327752Y-144918571D01*
X133327752Y-144918571D02*
X133784895Y-145375714D01*
X133784895Y-145375714D02*
X133784895Y-144880476D01*
X128425714Y-143474895D02*
X128159047Y-143093942D01*
X127968571Y-143474895D02*
X127968571Y-142674895D01*
X127968571Y-142674895D02*
X128273333Y-142674895D01*
X128273333Y-142674895D02*
X128349523Y-142712990D01*
X128349523Y-142712990D02*
X128387618Y-142751085D01*
X128387618Y-142751085D02*
X128425714Y-142827276D01*
X128425714Y-142827276D02*
X128425714Y-142941561D01*
X128425714Y-142941561D02*
X128387618Y-143017752D01*
X128387618Y-143017752D02*
X128349523Y-143055847D01*
X128349523Y-143055847D02*
X128273333Y-143093942D01*
X128273333Y-143093942D02*
X127968571Y-143093942D01*
X129149523Y-142674895D02*
X128768571Y-142674895D01*
X128768571Y-142674895D02*
X128730475Y-143055847D01*
X128730475Y-143055847D02*
X128768571Y-143017752D01*
X128768571Y-143017752D02*
X128844761Y-142979657D01*
X128844761Y-142979657D02*
X129035237Y-142979657D01*
X129035237Y-142979657D02*
X129111428Y-143017752D01*
X129111428Y-143017752D02*
X129149523Y-143055847D01*
X129149523Y-143055847D02*
X129187618Y-143132038D01*
X129187618Y-143132038D02*
X129187618Y-143322514D01*
X129187618Y-143322514D02*
X129149523Y-143398704D01*
X129149523Y-143398704D02*
X129111428Y-143436800D01*
X129111428Y-143436800D02*
X129035237Y-143474895D01*
X129035237Y-143474895D02*
X128844761Y-143474895D01*
X128844761Y-143474895D02*
X128768571Y-143436800D01*
X128768571Y-143436800D02*
X128730475Y-143398704D01*
X129949523Y-143474895D02*
X129492380Y-143474895D01*
X129720952Y-143474895D02*
X129720952Y-142674895D01*
X129720952Y-142674895D02*
X129644761Y-142789180D01*
X129644761Y-142789180D02*
X129568571Y-142865371D01*
X129568571Y-142865371D02*
X129492380Y-142903466D01*
X132134895Y-143794285D02*
X131753942Y-144060952D01*
X132134895Y-144251428D02*
X131334895Y-144251428D01*
X131334895Y-144251428D02*
X131334895Y-143946666D01*
X131334895Y-143946666D02*
X131372990Y-143870476D01*
X131372990Y-143870476D02*
X131411085Y-143832381D01*
X131411085Y-143832381D02*
X131487276Y-143794285D01*
X131487276Y-143794285D02*
X131601561Y-143794285D01*
X131601561Y-143794285D02*
X131677752Y-143832381D01*
X131677752Y-143832381D02*
X131715847Y-143870476D01*
X131715847Y-143870476D02*
X131753942Y-143946666D01*
X131753942Y-143946666D02*
X131753942Y-144251428D01*
X131334895Y-143070476D02*
X131334895Y-143451428D01*
X131334895Y-143451428D02*
X131715847Y-143489524D01*
X131715847Y-143489524D02*
X131677752Y-143451428D01*
X131677752Y-143451428D02*
X131639657Y-143375238D01*
X131639657Y-143375238D02*
X131639657Y-143184762D01*
X131639657Y-143184762D02*
X131677752Y-143108571D01*
X131677752Y-143108571D02*
X131715847Y-143070476D01*
X131715847Y-143070476D02*
X131792038Y-143032381D01*
X131792038Y-143032381D02*
X131982514Y-143032381D01*
X131982514Y-143032381D02*
X132058704Y-143070476D01*
X132058704Y-143070476D02*
X132096800Y-143108571D01*
X132096800Y-143108571D02*
X132134895Y-143184762D01*
X132134895Y-143184762D02*
X132134895Y-143375238D01*
X132134895Y-143375238D02*
X132096800Y-143451428D01*
X132096800Y-143451428D02*
X132058704Y-143489524D01*
X131411085Y-142727619D02*
X131372990Y-142689523D01*
X131372990Y-142689523D02*
X131334895Y-142613333D01*
X131334895Y-142613333D02*
X131334895Y-142422857D01*
X131334895Y-142422857D02*
X131372990Y-142346666D01*
X131372990Y-142346666D02*
X131411085Y-142308571D01*
X131411085Y-142308571D02*
X131487276Y-142270476D01*
X131487276Y-142270476D02*
X131563466Y-142270476D01*
X131563466Y-142270476D02*
X131677752Y-142308571D01*
X131677752Y-142308571D02*
X132134895Y-142765714D01*
X132134895Y-142765714D02*
X132134895Y-142270476D01*
X129574895Y-152663332D02*
X129193942Y-152929999D01*
X129574895Y-153120475D02*
X128774895Y-153120475D01*
X128774895Y-153120475D02*
X128774895Y-152815713D01*
X128774895Y-152815713D02*
X128812990Y-152739523D01*
X128812990Y-152739523D02*
X128851085Y-152701428D01*
X128851085Y-152701428D02*
X128927276Y-152663332D01*
X128927276Y-152663332D02*
X129041561Y-152663332D01*
X129041561Y-152663332D02*
X129117752Y-152701428D01*
X129117752Y-152701428D02*
X129155847Y-152739523D01*
X129155847Y-152739523D02*
X129193942Y-152815713D01*
X129193942Y-152815713D02*
X129193942Y-153120475D01*
X128774895Y-151939523D02*
X128774895Y-152320475D01*
X128774895Y-152320475D02*
X129155847Y-152358571D01*
X129155847Y-152358571D02*
X129117752Y-152320475D01*
X129117752Y-152320475D02*
X129079657Y-152244285D01*
X129079657Y-152244285D02*
X129079657Y-152053809D01*
X129079657Y-152053809D02*
X129117752Y-151977618D01*
X129117752Y-151977618D02*
X129155847Y-151939523D01*
X129155847Y-151939523D02*
X129232038Y-151901428D01*
X129232038Y-151901428D02*
X129422514Y-151901428D01*
X129422514Y-151901428D02*
X129498704Y-151939523D01*
X129498704Y-151939523D02*
X129536800Y-151977618D01*
X129536800Y-151977618D02*
X129574895Y-152053809D01*
X129574895Y-152053809D02*
X129574895Y-152244285D01*
X129574895Y-152244285D02*
X129536800Y-152320475D01*
X129536800Y-152320475D02*
X129498704Y-152358571D01*
X131533332Y-136756800D02*
X131647618Y-136794895D01*
X131647618Y-136794895D02*
X131838094Y-136794895D01*
X131838094Y-136794895D02*
X131914285Y-136756800D01*
X131914285Y-136756800D02*
X131952380Y-136718704D01*
X131952380Y-136718704D02*
X131990475Y-136642514D01*
X131990475Y-136642514D02*
X131990475Y-136566323D01*
X131990475Y-136566323D02*
X131952380Y-136490133D01*
X131952380Y-136490133D02*
X131914285Y-136452038D01*
X131914285Y-136452038D02*
X131838094Y-136413942D01*
X131838094Y-136413942D02*
X131685713Y-136375847D01*
X131685713Y-136375847D02*
X131609523Y-136337752D01*
X131609523Y-136337752D02*
X131571428Y-136299657D01*
X131571428Y-136299657D02*
X131533332Y-136223466D01*
X131533332Y-136223466D02*
X131533332Y-136147276D01*
X131533332Y-136147276D02*
X131571428Y-136071085D01*
X131571428Y-136071085D02*
X131609523Y-136032990D01*
X131609523Y-136032990D02*
X131685713Y-135994895D01*
X131685713Y-135994895D02*
X131876190Y-135994895D01*
X131876190Y-135994895D02*
X131990475Y-136032990D01*
X132257142Y-135994895D02*
X132447618Y-136794895D01*
X132447618Y-136794895D02*
X132599999Y-136223466D01*
X132599999Y-136223466D02*
X132752380Y-136794895D01*
X132752380Y-136794895D02*
X132942857Y-135994895D01*
X133666666Y-136794895D02*
X133209523Y-136794895D01*
X133438095Y-136794895D02*
X133438095Y-135994895D01*
X133438095Y-135994895D02*
X133361904Y-136109180D01*
X133361904Y-136109180D02*
X133285714Y-136185371D01*
X133285714Y-136185371D02*
X133209523Y-136223466D01*
X81893333Y-184004895D02*
X81893333Y-184576323D01*
X81893333Y-184576323D02*
X81855238Y-184690609D01*
X81855238Y-184690609D02*
X81779047Y-184766800D01*
X81779047Y-184766800D02*
X81664762Y-184804895D01*
X81664762Y-184804895D02*
X81588571Y-184804895D01*
X82198095Y-184004895D02*
X82693333Y-184004895D01*
X82693333Y-184004895D02*
X82426667Y-184309657D01*
X82426667Y-184309657D02*
X82540952Y-184309657D01*
X82540952Y-184309657D02*
X82617143Y-184347752D01*
X82617143Y-184347752D02*
X82655238Y-184385847D01*
X82655238Y-184385847D02*
X82693333Y-184462038D01*
X82693333Y-184462038D02*
X82693333Y-184652514D01*
X82693333Y-184652514D02*
X82655238Y-184728704D01*
X82655238Y-184728704D02*
X82617143Y-184766800D01*
X82617143Y-184766800D02*
X82540952Y-184804895D01*
X82540952Y-184804895D02*
X82312381Y-184804895D01*
X82312381Y-184804895D02*
X82236190Y-184766800D01*
X82236190Y-184766800D02*
X82198095Y-184728704D01*
X116367395Y-150249523D02*
X117015014Y-150249523D01*
X117015014Y-150249523D02*
X117091204Y-150211428D01*
X117091204Y-150211428D02*
X117129300Y-150173333D01*
X117129300Y-150173333D02*
X117167395Y-150097142D01*
X117167395Y-150097142D02*
X117167395Y-149944761D01*
X117167395Y-149944761D02*
X117129300Y-149868571D01*
X117129300Y-149868571D02*
X117091204Y-149830476D01*
X117091204Y-149830476D02*
X117015014Y-149792380D01*
X117015014Y-149792380D02*
X116367395Y-149792380D01*
X117167395Y-148992381D02*
X117167395Y-149449524D01*
X117167395Y-149220952D02*
X116367395Y-149220952D01*
X116367395Y-149220952D02*
X116481680Y-149297143D01*
X116481680Y-149297143D02*
X116557871Y-149373333D01*
X116557871Y-149373333D02*
X116595966Y-149449524D01*
X134868704Y-133034285D02*
X134906800Y-133072381D01*
X134906800Y-133072381D02*
X134944895Y-133186666D01*
X134944895Y-133186666D02*
X134944895Y-133262857D01*
X134944895Y-133262857D02*
X134906800Y-133377143D01*
X134906800Y-133377143D02*
X134830609Y-133453333D01*
X134830609Y-133453333D02*
X134754419Y-133491428D01*
X134754419Y-133491428D02*
X134602038Y-133529524D01*
X134602038Y-133529524D02*
X134487752Y-133529524D01*
X134487752Y-133529524D02*
X134335371Y-133491428D01*
X134335371Y-133491428D02*
X134259180Y-133453333D01*
X134259180Y-133453333D02*
X134182990Y-133377143D01*
X134182990Y-133377143D02*
X134144895Y-133262857D01*
X134144895Y-133262857D02*
X134144895Y-133186666D01*
X134144895Y-133186666D02*
X134182990Y-133072381D01*
X134182990Y-133072381D02*
X134221085Y-133034285D01*
X134944895Y-132272381D02*
X134944895Y-132729524D01*
X134944895Y-132500952D02*
X134144895Y-132500952D01*
X134144895Y-132500952D02*
X134259180Y-132577143D01*
X134259180Y-132577143D02*
X134335371Y-132653333D01*
X134335371Y-132653333D02*
X134373466Y-132729524D01*
X134144895Y-131777142D02*
X134144895Y-131700952D01*
X134144895Y-131700952D02*
X134182990Y-131624761D01*
X134182990Y-131624761D02*
X134221085Y-131586666D01*
X134221085Y-131586666D02*
X134297276Y-131548571D01*
X134297276Y-131548571D02*
X134449657Y-131510476D01*
X134449657Y-131510476D02*
X134640133Y-131510476D01*
X134640133Y-131510476D02*
X134792514Y-131548571D01*
X134792514Y-131548571D02*
X134868704Y-131586666D01*
X134868704Y-131586666D02*
X134906800Y-131624761D01*
X134906800Y-131624761D02*
X134944895Y-131700952D01*
X134944895Y-131700952D02*
X134944895Y-131777142D01*
X134944895Y-131777142D02*
X134906800Y-131853333D01*
X134906800Y-131853333D02*
X134868704Y-131891428D01*
X134868704Y-131891428D02*
X134792514Y-131929523D01*
X134792514Y-131929523D02*
X134640133Y-131967619D01*
X134640133Y-131967619D02*
X134449657Y-131967619D01*
X134449657Y-131967619D02*
X134297276Y-131929523D01*
X134297276Y-131929523D02*
X134221085Y-131891428D01*
X134221085Y-131891428D02*
X134182990Y-131853333D01*
X134182990Y-131853333D02*
X134144895Y-131777142D01*
X118256667Y-147154895D02*
X117990000Y-146773942D01*
X117799524Y-147154895D02*
X117799524Y-146354895D01*
X117799524Y-146354895D02*
X118104286Y-146354895D01*
X118104286Y-146354895D02*
X118180476Y-146392990D01*
X118180476Y-146392990D02*
X118218571Y-146431085D01*
X118218571Y-146431085D02*
X118256667Y-146507276D01*
X118256667Y-146507276D02*
X118256667Y-146621561D01*
X118256667Y-146621561D02*
X118218571Y-146697752D01*
X118218571Y-146697752D02*
X118180476Y-146735847D01*
X118180476Y-146735847D02*
X118104286Y-146773942D01*
X118104286Y-146773942D02*
X117799524Y-146773942D01*
X118523333Y-146354895D02*
X119018571Y-146354895D01*
X119018571Y-146354895D02*
X118751905Y-146659657D01*
X118751905Y-146659657D02*
X118866190Y-146659657D01*
X118866190Y-146659657D02*
X118942381Y-146697752D01*
X118942381Y-146697752D02*
X118980476Y-146735847D01*
X118980476Y-146735847D02*
X119018571Y-146812038D01*
X119018571Y-146812038D02*
X119018571Y-147002514D01*
X119018571Y-147002514D02*
X118980476Y-147078704D01*
X118980476Y-147078704D02*
X118942381Y-147116800D01*
X118942381Y-147116800D02*
X118866190Y-147154895D01*
X118866190Y-147154895D02*
X118637619Y-147154895D01*
X118637619Y-147154895D02*
X118561428Y-147116800D01*
X118561428Y-147116800D02*
X118523333Y-147078704D01*
X139321596Y-144922075D02*
X138940643Y-145188742D01*
X139321596Y-145379218D02*
X138521596Y-145379218D01*
X138521596Y-145379218D02*
X138521596Y-145074456D01*
X138521596Y-145074456D02*
X138559691Y-144998266D01*
X138559691Y-144998266D02*
X138597786Y-144960171D01*
X138597786Y-144960171D02*
X138673977Y-144922075D01*
X138673977Y-144922075D02*
X138788262Y-144922075D01*
X138788262Y-144922075D02*
X138864453Y-144960171D01*
X138864453Y-144960171D02*
X138902548Y-144998266D01*
X138902548Y-144998266D02*
X138940643Y-145074456D01*
X138940643Y-145074456D02*
X138940643Y-145379218D01*
X138521596Y-144655409D02*
X138521596Y-144160171D01*
X138521596Y-144160171D02*
X138826358Y-144426837D01*
X138826358Y-144426837D02*
X138826358Y-144312552D01*
X138826358Y-144312552D02*
X138864453Y-144236361D01*
X138864453Y-144236361D02*
X138902548Y-144198266D01*
X138902548Y-144198266D02*
X138978739Y-144160171D01*
X138978739Y-144160171D02*
X139169215Y-144160171D01*
X139169215Y-144160171D02*
X139245405Y-144198266D01*
X139245405Y-144198266D02*
X139283501Y-144236361D01*
X139283501Y-144236361D02*
X139321596Y-144312552D01*
X139321596Y-144312552D02*
X139321596Y-144541123D01*
X139321596Y-144541123D02*
X139283501Y-144617314D01*
X139283501Y-144617314D02*
X139245405Y-144655409D01*
X138521596Y-143893504D02*
X138521596Y-143398266D01*
X138521596Y-143398266D02*
X138826358Y-143664932D01*
X138826358Y-143664932D02*
X138826358Y-143550647D01*
X138826358Y-143550647D02*
X138864453Y-143474456D01*
X138864453Y-143474456D02*
X138902548Y-143436361D01*
X138902548Y-143436361D02*
X138978739Y-143398266D01*
X138978739Y-143398266D02*
X139169215Y-143398266D01*
X139169215Y-143398266D02*
X139245405Y-143436361D01*
X139245405Y-143436361D02*
X139283501Y-143474456D01*
X139283501Y-143474456D02*
X139321596Y-143550647D01*
X139321596Y-143550647D02*
X139321596Y-143779218D01*
X139321596Y-143779218D02*
X139283501Y-143855409D01*
X139283501Y-143855409D02*
X139245405Y-143893504D01*
X81614895Y-157540475D02*
X80814895Y-157540475D01*
X80814895Y-157540475D02*
X80814895Y-157349999D01*
X80814895Y-157349999D02*
X80852990Y-157235713D01*
X80852990Y-157235713D02*
X80929180Y-157159523D01*
X80929180Y-157159523D02*
X81005371Y-157121428D01*
X81005371Y-157121428D02*
X81157752Y-157083332D01*
X81157752Y-157083332D02*
X81272038Y-157083332D01*
X81272038Y-157083332D02*
X81424419Y-157121428D01*
X81424419Y-157121428D02*
X81500609Y-157159523D01*
X81500609Y-157159523D02*
X81576800Y-157235713D01*
X81576800Y-157235713D02*
X81614895Y-157349999D01*
X81614895Y-157349999D02*
X81614895Y-157540475D01*
X81081561Y-156397618D02*
X81614895Y-156397618D01*
X80776800Y-156588094D02*
X81348228Y-156778571D01*
X81348228Y-156778571D02*
X81348228Y-156283332D01*
X148465714Y-150624895D02*
X148199047Y-150243942D01*
X148008571Y-150624895D02*
X148008571Y-149824895D01*
X148008571Y-149824895D02*
X148313333Y-149824895D01*
X148313333Y-149824895D02*
X148389523Y-149862990D01*
X148389523Y-149862990D02*
X148427618Y-149901085D01*
X148427618Y-149901085D02*
X148465714Y-149977276D01*
X148465714Y-149977276D02*
X148465714Y-150091561D01*
X148465714Y-150091561D02*
X148427618Y-150167752D01*
X148427618Y-150167752D02*
X148389523Y-150205847D01*
X148389523Y-150205847D02*
X148313333Y-150243942D01*
X148313333Y-150243942D02*
X148008571Y-150243942D01*
X149151428Y-150091561D02*
X149151428Y-150624895D01*
X148960952Y-149786800D02*
X148770475Y-150358228D01*
X148770475Y-150358228D02*
X149265714Y-150358228D01*
X149532380Y-149901085D02*
X149570476Y-149862990D01*
X149570476Y-149862990D02*
X149646666Y-149824895D01*
X149646666Y-149824895D02*
X149837142Y-149824895D01*
X149837142Y-149824895D02*
X149913333Y-149862990D01*
X149913333Y-149862990D02*
X149951428Y-149901085D01*
X149951428Y-149901085D02*
X149989523Y-149977276D01*
X149989523Y-149977276D02*
X149989523Y-150053466D01*
X149989523Y-150053466D02*
X149951428Y-150167752D01*
X149951428Y-150167752D02*
X149494285Y-150624895D01*
X149494285Y-150624895D02*
X149989523Y-150624895D01*
X82536667Y-147304895D02*
X82270000Y-146923942D01*
X82079524Y-147304895D02*
X82079524Y-146504895D01*
X82079524Y-146504895D02*
X82384286Y-146504895D01*
X82384286Y-146504895D02*
X82460476Y-146542990D01*
X82460476Y-146542990D02*
X82498571Y-146581085D01*
X82498571Y-146581085D02*
X82536667Y-146657276D01*
X82536667Y-146657276D02*
X82536667Y-146771561D01*
X82536667Y-146771561D02*
X82498571Y-146847752D01*
X82498571Y-146847752D02*
X82460476Y-146885847D01*
X82460476Y-146885847D02*
X82384286Y-146923942D01*
X82384286Y-146923942D02*
X82079524Y-146923942D01*
X82993809Y-146847752D02*
X82917619Y-146809657D01*
X82917619Y-146809657D02*
X82879524Y-146771561D01*
X82879524Y-146771561D02*
X82841428Y-146695371D01*
X82841428Y-146695371D02*
X82841428Y-146657276D01*
X82841428Y-146657276D02*
X82879524Y-146581085D01*
X82879524Y-146581085D02*
X82917619Y-146542990D01*
X82917619Y-146542990D02*
X82993809Y-146504895D01*
X82993809Y-146504895D02*
X83146190Y-146504895D01*
X83146190Y-146504895D02*
X83222381Y-146542990D01*
X83222381Y-146542990D02*
X83260476Y-146581085D01*
X83260476Y-146581085D02*
X83298571Y-146657276D01*
X83298571Y-146657276D02*
X83298571Y-146695371D01*
X83298571Y-146695371D02*
X83260476Y-146771561D01*
X83260476Y-146771561D02*
X83222381Y-146809657D01*
X83222381Y-146809657D02*
X83146190Y-146847752D01*
X83146190Y-146847752D02*
X82993809Y-146847752D01*
X82993809Y-146847752D02*
X82917619Y-146885847D01*
X82917619Y-146885847D02*
X82879524Y-146923942D01*
X82879524Y-146923942D02*
X82841428Y-147000133D01*
X82841428Y-147000133D02*
X82841428Y-147152514D01*
X82841428Y-147152514D02*
X82879524Y-147228704D01*
X82879524Y-147228704D02*
X82917619Y-147266800D01*
X82917619Y-147266800D02*
X82993809Y-147304895D01*
X82993809Y-147304895D02*
X83146190Y-147304895D01*
X83146190Y-147304895D02*
X83222381Y-147266800D01*
X83222381Y-147266800D02*
X83260476Y-147228704D01*
X83260476Y-147228704D02*
X83298571Y-147152514D01*
X83298571Y-147152514D02*
X83298571Y-147000133D01*
X83298571Y-147000133D02*
X83260476Y-146923942D01*
X83260476Y-146923942D02*
X83222381Y-146885847D01*
X83222381Y-146885847D02*
X83146190Y-146847752D01*
X113708704Y-149783332D02*
X113746800Y-149821428D01*
X113746800Y-149821428D02*
X113784895Y-149935713D01*
X113784895Y-149935713D02*
X113784895Y-150011904D01*
X113784895Y-150011904D02*
X113746800Y-150126190D01*
X113746800Y-150126190D02*
X113670609Y-150202380D01*
X113670609Y-150202380D02*
X113594419Y-150240475D01*
X113594419Y-150240475D02*
X113442038Y-150278571D01*
X113442038Y-150278571D02*
X113327752Y-150278571D01*
X113327752Y-150278571D02*
X113175371Y-150240475D01*
X113175371Y-150240475D02*
X113099180Y-150202380D01*
X113099180Y-150202380D02*
X113022990Y-150126190D01*
X113022990Y-150126190D02*
X112984895Y-150011904D01*
X112984895Y-150011904D02*
X112984895Y-149935713D01*
X112984895Y-149935713D02*
X113022990Y-149821428D01*
X113022990Y-149821428D02*
X113061085Y-149783332D01*
X113061085Y-149478571D02*
X113022990Y-149440475D01*
X113022990Y-149440475D02*
X112984895Y-149364285D01*
X112984895Y-149364285D02*
X112984895Y-149173809D01*
X112984895Y-149173809D02*
X113022990Y-149097618D01*
X113022990Y-149097618D02*
X113061085Y-149059523D01*
X113061085Y-149059523D02*
X113137276Y-149021428D01*
X113137276Y-149021428D02*
X113213466Y-149021428D01*
X113213466Y-149021428D02*
X113327752Y-149059523D01*
X113327752Y-149059523D02*
X113784895Y-149516666D01*
X113784895Y-149516666D02*
X113784895Y-149021428D01*
X134224895Y-141854285D02*
X133843942Y-142120952D01*
X134224895Y-142311428D02*
X133424895Y-142311428D01*
X133424895Y-142311428D02*
X133424895Y-142006666D01*
X133424895Y-142006666D02*
X133462990Y-141930476D01*
X133462990Y-141930476D02*
X133501085Y-141892381D01*
X133501085Y-141892381D02*
X133577276Y-141854285D01*
X133577276Y-141854285D02*
X133691561Y-141854285D01*
X133691561Y-141854285D02*
X133767752Y-141892381D01*
X133767752Y-141892381D02*
X133805847Y-141930476D01*
X133805847Y-141930476D02*
X133843942Y-142006666D01*
X133843942Y-142006666D02*
X133843942Y-142311428D01*
X133424895Y-141587619D02*
X133424895Y-141092381D01*
X133424895Y-141092381D02*
X133729657Y-141359047D01*
X133729657Y-141359047D02*
X133729657Y-141244762D01*
X133729657Y-141244762D02*
X133767752Y-141168571D01*
X133767752Y-141168571D02*
X133805847Y-141130476D01*
X133805847Y-141130476D02*
X133882038Y-141092381D01*
X133882038Y-141092381D02*
X134072514Y-141092381D01*
X134072514Y-141092381D02*
X134148704Y-141130476D01*
X134148704Y-141130476D02*
X134186800Y-141168571D01*
X134186800Y-141168571D02*
X134224895Y-141244762D01*
X134224895Y-141244762D02*
X134224895Y-141473333D01*
X134224895Y-141473333D02*
X134186800Y-141549524D01*
X134186800Y-141549524D02*
X134148704Y-141587619D01*
X134224895Y-140330476D02*
X134224895Y-140787619D01*
X134224895Y-140559047D02*
X133424895Y-140559047D01*
X133424895Y-140559047D02*
X133539180Y-140635238D01*
X133539180Y-140635238D02*
X133615371Y-140711428D01*
X133615371Y-140711428D02*
X133653466Y-140787619D01*
X148475714Y-149164895D02*
X148209047Y-148783942D01*
X148018571Y-149164895D02*
X148018571Y-148364895D01*
X148018571Y-148364895D02*
X148323333Y-148364895D01*
X148323333Y-148364895D02*
X148399523Y-148402990D01*
X148399523Y-148402990D02*
X148437618Y-148441085D01*
X148437618Y-148441085D02*
X148475714Y-148517276D01*
X148475714Y-148517276D02*
X148475714Y-148631561D01*
X148475714Y-148631561D02*
X148437618Y-148707752D01*
X148437618Y-148707752D02*
X148399523Y-148745847D01*
X148399523Y-148745847D02*
X148323333Y-148783942D01*
X148323333Y-148783942D02*
X148018571Y-148783942D01*
X149161428Y-148631561D02*
X149161428Y-149164895D01*
X148970952Y-148326800D02*
X148780475Y-148898228D01*
X148780475Y-148898228D02*
X149275714Y-148898228D01*
X149504285Y-148364895D02*
X149999523Y-148364895D01*
X149999523Y-148364895D02*
X149732857Y-148669657D01*
X149732857Y-148669657D02*
X149847142Y-148669657D01*
X149847142Y-148669657D02*
X149923333Y-148707752D01*
X149923333Y-148707752D02*
X149961428Y-148745847D01*
X149961428Y-148745847D02*
X149999523Y-148822038D01*
X149999523Y-148822038D02*
X149999523Y-149012514D01*
X149999523Y-149012514D02*
X149961428Y-149088704D01*
X149961428Y-149088704D02*
X149923333Y-149126800D01*
X149923333Y-149126800D02*
X149847142Y-149164895D01*
X149847142Y-149164895D02*
X149618571Y-149164895D01*
X149618571Y-149164895D02*
X149542380Y-149126800D01*
X149542380Y-149126800D02*
X149504285Y-149088704D01*
X126505714Y-143524895D02*
X126239047Y-143143942D01*
X126048571Y-143524895D02*
X126048571Y-142724895D01*
X126048571Y-142724895D02*
X126353333Y-142724895D01*
X126353333Y-142724895D02*
X126429523Y-142762990D01*
X126429523Y-142762990D02*
X126467618Y-142801085D01*
X126467618Y-142801085D02*
X126505714Y-142877276D01*
X126505714Y-142877276D02*
X126505714Y-142991561D01*
X126505714Y-142991561D02*
X126467618Y-143067752D01*
X126467618Y-143067752D02*
X126429523Y-143105847D01*
X126429523Y-143105847D02*
X126353333Y-143143942D01*
X126353333Y-143143942D02*
X126048571Y-143143942D01*
X127229523Y-142724895D02*
X126848571Y-142724895D01*
X126848571Y-142724895D02*
X126810475Y-143105847D01*
X126810475Y-143105847D02*
X126848571Y-143067752D01*
X126848571Y-143067752D02*
X126924761Y-143029657D01*
X126924761Y-143029657D02*
X127115237Y-143029657D01*
X127115237Y-143029657D02*
X127191428Y-143067752D01*
X127191428Y-143067752D02*
X127229523Y-143105847D01*
X127229523Y-143105847D02*
X127267618Y-143182038D01*
X127267618Y-143182038D02*
X127267618Y-143372514D01*
X127267618Y-143372514D02*
X127229523Y-143448704D01*
X127229523Y-143448704D02*
X127191428Y-143486800D01*
X127191428Y-143486800D02*
X127115237Y-143524895D01*
X127115237Y-143524895D02*
X126924761Y-143524895D01*
X126924761Y-143524895D02*
X126848571Y-143486800D01*
X126848571Y-143486800D02*
X126810475Y-143448704D01*
X127762857Y-142724895D02*
X127839047Y-142724895D01*
X127839047Y-142724895D02*
X127915238Y-142762990D01*
X127915238Y-142762990D02*
X127953333Y-142801085D01*
X127953333Y-142801085D02*
X127991428Y-142877276D01*
X127991428Y-142877276D02*
X128029523Y-143029657D01*
X128029523Y-143029657D02*
X128029523Y-143220133D01*
X128029523Y-143220133D02*
X127991428Y-143372514D01*
X127991428Y-143372514D02*
X127953333Y-143448704D01*
X127953333Y-143448704D02*
X127915238Y-143486800D01*
X127915238Y-143486800D02*
X127839047Y-143524895D01*
X127839047Y-143524895D02*
X127762857Y-143524895D01*
X127762857Y-143524895D02*
X127686666Y-143486800D01*
X127686666Y-143486800D02*
X127648571Y-143448704D01*
X127648571Y-143448704D02*
X127610476Y-143372514D01*
X127610476Y-143372514D02*
X127572380Y-143220133D01*
X127572380Y-143220133D02*
X127572380Y-143029657D01*
X127572380Y-143029657D02*
X127610476Y-142877276D01*
X127610476Y-142877276D02*
X127648571Y-142801085D01*
X127648571Y-142801085D02*
X127686666Y-142762990D01*
X127686666Y-142762990D02*
X127762857Y-142724895D01*
X78676204Y-157183332D02*
X78714300Y-157221428D01*
X78714300Y-157221428D02*
X78752395Y-157335713D01*
X78752395Y-157335713D02*
X78752395Y-157411904D01*
X78752395Y-157411904D02*
X78714300Y-157526190D01*
X78714300Y-157526190D02*
X78638109Y-157602380D01*
X78638109Y-157602380D02*
X78561919Y-157640475D01*
X78561919Y-157640475D02*
X78409538Y-157678571D01*
X78409538Y-157678571D02*
X78295252Y-157678571D01*
X78295252Y-157678571D02*
X78142871Y-157640475D01*
X78142871Y-157640475D02*
X78066680Y-157602380D01*
X78066680Y-157602380D02*
X77990490Y-157526190D01*
X77990490Y-157526190D02*
X77952395Y-157411904D01*
X77952395Y-157411904D02*
X77952395Y-157335713D01*
X77952395Y-157335713D02*
X77990490Y-157221428D01*
X77990490Y-157221428D02*
X78028585Y-157183332D01*
X78295252Y-156726190D02*
X78257157Y-156802380D01*
X78257157Y-156802380D02*
X78219061Y-156840475D01*
X78219061Y-156840475D02*
X78142871Y-156878571D01*
X78142871Y-156878571D02*
X78104776Y-156878571D01*
X78104776Y-156878571D02*
X78028585Y-156840475D01*
X78028585Y-156840475D02*
X77990490Y-156802380D01*
X77990490Y-156802380D02*
X77952395Y-156726190D01*
X77952395Y-156726190D02*
X77952395Y-156573809D01*
X77952395Y-156573809D02*
X77990490Y-156497618D01*
X77990490Y-156497618D02*
X78028585Y-156459523D01*
X78028585Y-156459523D02*
X78104776Y-156421428D01*
X78104776Y-156421428D02*
X78142871Y-156421428D01*
X78142871Y-156421428D02*
X78219061Y-156459523D01*
X78219061Y-156459523D02*
X78257157Y-156497618D01*
X78257157Y-156497618D02*
X78295252Y-156573809D01*
X78295252Y-156573809D02*
X78295252Y-156726190D01*
X78295252Y-156726190D02*
X78333347Y-156802380D01*
X78333347Y-156802380D02*
X78371442Y-156840475D01*
X78371442Y-156840475D02*
X78447633Y-156878571D01*
X78447633Y-156878571D02*
X78600014Y-156878571D01*
X78600014Y-156878571D02*
X78676204Y-156840475D01*
X78676204Y-156840475D02*
X78714300Y-156802380D01*
X78714300Y-156802380D02*
X78752395Y-156726190D01*
X78752395Y-156726190D02*
X78752395Y-156573809D01*
X78752395Y-156573809D02*
X78714300Y-156497618D01*
X78714300Y-156497618D02*
X78676204Y-156459523D01*
X78676204Y-156459523D02*
X78600014Y-156421428D01*
X78600014Y-156421428D02*
X78447633Y-156421428D01*
X78447633Y-156421428D02*
X78371442Y-156459523D01*
X78371442Y-156459523D02*
X78333347Y-156497618D01*
X78333347Y-156497618D02*
X78295252Y-156573809D01*
X128016667Y-149994895D02*
X127750000Y-149613942D01*
X127559524Y-149994895D02*
X127559524Y-149194895D01*
X127559524Y-149194895D02*
X127864286Y-149194895D01*
X127864286Y-149194895D02*
X127940476Y-149232990D01*
X127940476Y-149232990D02*
X127978571Y-149271085D01*
X127978571Y-149271085D02*
X128016667Y-149347276D01*
X128016667Y-149347276D02*
X128016667Y-149461561D01*
X128016667Y-149461561D02*
X127978571Y-149537752D01*
X127978571Y-149537752D02*
X127940476Y-149575847D01*
X127940476Y-149575847D02*
X127864286Y-149613942D01*
X127864286Y-149613942D02*
X127559524Y-149613942D01*
X128702381Y-149194895D02*
X128550000Y-149194895D01*
X128550000Y-149194895D02*
X128473809Y-149232990D01*
X128473809Y-149232990D02*
X128435714Y-149271085D01*
X128435714Y-149271085D02*
X128359524Y-149385371D01*
X128359524Y-149385371D02*
X128321428Y-149537752D01*
X128321428Y-149537752D02*
X128321428Y-149842514D01*
X128321428Y-149842514D02*
X128359524Y-149918704D01*
X128359524Y-149918704D02*
X128397619Y-149956800D01*
X128397619Y-149956800D02*
X128473809Y-149994895D01*
X128473809Y-149994895D02*
X128626190Y-149994895D01*
X128626190Y-149994895D02*
X128702381Y-149956800D01*
X128702381Y-149956800D02*
X128740476Y-149918704D01*
X128740476Y-149918704D02*
X128778571Y-149842514D01*
X128778571Y-149842514D02*
X128778571Y-149652038D01*
X128778571Y-149652038D02*
X128740476Y-149575847D01*
X128740476Y-149575847D02*
X128702381Y-149537752D01*
X128702381Y-149537752D02*
X128626190Y-149499657D01*
X128626190Y-149499657D02*
X128473809Y-149499657D01*
X128473809Y-149499657D02*
X128397619Y-149537752D01*
X128397619Y-149537752D02*
X128359524Y-149575847D01*
X128359524Y-149575847D02*
X128321428Y-149652038D01*
X118851667Y-137921204D02*
X118813571Y-137959300D01*
X118813571Y-137959300D02*
X118699286Y-137997395D01*
X118699286Y-137997395D02*
X118623095Y-137997395D01*
X118623095Y-137997395D02*
X118508809Y-137959300D01*
X118508809Y-137959300D02*
X118432619Y-137883109D01*
X118432619Y-137883109D02*
X118394524Y-137806919D01*
X118394524Y-137806919D02*
X118356428Y-137654538D01*
X118356428Y-137654538D02*
X118356428Y-137540252D01*
X118356428Y-137540252D02*
X118394524Y-137387871D01*
X118394524Y-137387871D02*
X118432619Y-137311680D01*
X118432619Y-137311680D02*
X118508809Y-137235490D01*
X118508809Y-137235490D02*
X118623095Y-137197395D01*
X118623095Y-137197395D02*
X118699286Y-137197395D01*
X118699286Y-137197395D02*
X118813571Y-137235490D01*
X118813571Y-137235490D02*
X118851667Y-137273585D01*
X119575476Y-137197395D02*
X119194524Y-137197395D01*
X119194524Y-137197395D02*
X119156428Y-137578347D01*
X119156428Y-137578347D02*
X119194524Y-137540252D01*
X119194524Y-137540252D02*
X119270714Y-137502157D01*
X119270714Y-137502157D02*
X119461190Y-137502157D01*
X119461190Y-137502157D02*
X119537381Y-137540252D01*
X119537381Y-137540252D02*
X119575476Y-137578347D01*
X119575476Y-137578347D02*
X119613571Y-137654538D01*
X119613571Y-137654538D02*
X119613571Y-137845014D01*
X119613571Y-137845014D02*
X119575476Y-137921204D01*
X119575476Y-137921204D02*
X119537381Y-137959300D01*
X119537381Y-137959300D02*
X119461190Y-137997395D01*
X119461190Y-137997395D02*
X119270714Y-137997395D01*
X119270714Y-137997395D02*
X119194524Y-137959300D01*
X119194524Y-137959300D02*
X119156428Y-137921204D01*
X144255714Y-146494895D02*
X143989047Y-146113942D01*
X143798571Y-146494895D02*
X143798571Y-145694895D01*
X143798571Y-145694895D02*
X144103333Y-145694895D01*
X144103333Y-145694895D02*
X144179523Y-145732990D01*
X144179523Y-145732990D02*
X144217618Y-145771085D01*
X144217618Y-145771085D02*
X144255714Y-145847276D01*
X144255714Y-145847276D02*
X144255714Y-145961561D01*
X144255714Y-145961561D02*
X144217618Y-146037752D01*
X144217618Y-146037752D02*
X144179523Y-146075847D01*
X144179523Y-146075847D02*
X144103333Y-146113942D01*
X144103333Y-146113942D02*
X143798571Y-146113942D01*
X144560475Y-145771085D02*
X144598571Y-145732990D01*
X144598571Y-145732990D02*
X144674761Y-145694895D01*
X144674761Y-145694895D02*
X144865237Y-145694895D01*
X144865237Y-145694895D02*
X144941428Y-145732990D01*
X144941428Y-145732990D02*
X144979523Y-145771085D01*
X144979523Y-145771085D02*
X145017618Y-145847276D01*
X145017618Y-145847276D02*
X145017618Y-145923466D01*
X145017618Y-145923466D02*
X144979523Y-146037752D01*
X144979523Y-146037752D02*
X144522380Y-146494895D01*
X144522380Y-146494895D02*
X145017618Y-146494895D01*
X145779523Y-146494895D02*
X145322380Y-146494895D01*
X145550952Y-146494895D02*
X145550952Y-145694895D01*
X145550952Y-145694895D02*
X145474761Y-145809180D01*
X145474761Y-145809180D02*
X145398571Y-145885371D01*
X145398571Y-145885371D02*
X145322380Y-145923466D01*
X152504895Y-138118094D02*
X152123942Y-138384761D01*
X152504895Y-138575237D02*
X151704895Y-138575237D01*
X151704895Y-138575237D02*
X151704895Y-138270475D01*
X151704895Y-138270475D02*
X151742990Y-138194285D01*
X151742990Y-138194285D02*
X151781085Y-138156190D01*
X151781085Y-138156190D02*
X151857276Y-138118094D01*
X151857276Y-138118094D02*
X151971561Y-138118094D01*
X151971561Y-138118094D02*
X152047752Y-138156190D01*
X152047752Y-138156190D02*
X152085847Y-138194285D01*
X152085847Y-138194285D02*
X152123942Y-138270475D01*
X152123942Y-138270475D02*
X152123942Y-138575237D01*
X151704895Y-137889523D02*
X151704895Y-137432380D01*
X152504895Y-137660952D02*
X151704895Y-137660952D01*
X152504895Y-136746666D02*
X152504895Y-137203809D01*
X152504895Y-136975237D02*
X151704895Y-136975237D01*
X151704895Y-136975237D02*
X151819180Y-137051428D01*
X151819180Y-137051428D02*
X151895371Y-137127618D01*
X151895371Y-137127618D02*
X151933466Y-137203809D01*
X120951667Y-137933704D02*
X120913571Y-137971800D01*
X120913571Y-137971800D02*
X120799286Y-138009895D01*
X120799286Y-138009895D02*
X120723095Y-138009895D01*
X120723095Y-138009895D02*
X120608809Y-137971800D01*
X120608809Y-137971800D02*
X120532619Y-137895609D01*
X120532619Y-137895609D02*
X120494524Y-137819419D01*
X120494524Y-137819419D02*
X120456428Y-137667038D01*
X120456428Y-137667038D02*
X120456428Y-137552752D01*
X120456428Y-137552752D02*
X120494524Y-137400371D01*
X120494524Y-137400371D02*
X120532619Y-137324180D01*
X120532619Y-137324180D02*
X120608809Y-137247990D01*
X120608809Y-137247990D02*
X120723095Y-137209895D01*
X120723095Y-137209895D02*
X120799286Y-137209895D01*
X120799286Y-137209895D02*
X120913571Y-137247990D01*
X120913571Y-137247990D02*
X120951667Y-137286085D01*
X121637381Y-137209895D02*
X121485000Y-137209895D01*
X121485000Y-137209895D02*
X121408809Y-137247990D01*
X121408809Y-137247990D02*
X121370714Y-137286085D01*
X121370714Y-137286085D02*
X121294524Y-137400371D01*
X121294524Y-137400371D02*
X121256428Y-137552752D01*
X121256428Y-137552752D02*
X121256428Y-137857514D01*
X121256428Y-137857514D02*
X121294524Y-137933704D01*
X121294524Y-137933704D02*
X121332619Y-137971800D01*
X121332619Y-137971800D02*
X121408809Y-138009895D01*
X121408809Y-138009895D02*
X121561190Y-138009895D01*
X121561190Y-138009895D02*
X121637381Y-137971800D01*
X121637381Y-137971800D02*
X121675476Y-137933704D01*
X121675476Y-137933704D02*
X121713571Y-137857514D01*
X121713571Y-137857514D02*
X121713571Y-137667038D01*
X121713571Y-137667038D02*
X121675476Y-137590847D01*
X121675476Y-137590847D02*
X121637381Y-137552752D01*
X121637381Y-137552752D02*
X121561190Y-137514657D01*
X121561190Y-137514657D02*
X121408809Y-137514657D01*
X121408809Y-137514657D02*
X121332619Y-137552752D01*
X121332619Y-137552752D02*
X121294524Y-137590847D01*
X121294524Y-137590847D02*
X121256428Y-137667038D01*
X142582380Y-152694895D02*
X142582380Y-153266323D01*
X142582380Y-153266323D02*
X142544285Y-153380609D01*
X142544285Y-153380609D02*
X142468094Y-153456800D01*
X142468094Y-153456800D02*
X142353809Y-153494895D01*
X142353809Y-153494895D02*
X142277618Y-153494895D01*
X143382380Y-153494895D02*
X142925237Y-153494895D01*
X143153809Y-153494895D02*
X143153809Y-152694895D01*
X143153809Y-152694895D02*
X143077618Y-152809180D01*
X143077618Y-152809180D02*
X143001428Y-152885371D01*
X143001428Y-152885371D02*
X142925237Y-152923466D01*
X143877619Y-152694895D02*
X143953809Y-152694895D01*
X143953809Y-152694895D02*
X144030000Y-152732990D01*
X144030000Y-152732990D02*
X144068095Y-152771085D01*
X144068095Y-152771085D02*
X144106190Y-152847276D01*
X144106190Y-152847276D02*
X144144285Y-152999657D01*
X144144285Y-152999657D02*
X144144285Y-153190133D01*
X144144285Y-153190133D02*
X144106190Y-153342514D01*
X144106190Y-153342514D02*
X144068095Y-153418704D01*
X144068095Y-153418704D02*
X144030000Y-153456800D01*
X144030000Y-153456800D02*
X143953809Y-153494895D01*
X143953809Y-153494895D02*
X143877619Y-153494895D01*
X143877619Y-153494895D02*
X143801428Y-153456800D01*
X143801428Y-153456800D02*
X143763333Y-153418704D01*
X143763333Y-153418704D02*
X143725238Y-153342514D01*
X143725238Y-153342514D02*
X143687142Y-153190133D01*
X143687142Y-153190133D02*
X143687142Y-152999657D01*
X143687142Y-152999657D02*
X143725238Y-152847276D01*
X143725238Y-152847276D02*
X143763333Y-152771085D01*
X143763333Y-152771085D02*
X143801428Y-152732990D01*
X143801428Y-152732990D02*
X143877619Y-152694895D01*
X86813809Y-145061085D02*
X86737619Y-145022990D01*
X86737619Y-145022990D02*
X86661428Y-144946800D01*
X86661428Y-144946800D02*
X86547142Y-144832514D01*
X86547142Y-144832514D02*
X86470952Y-144794419D01*
X86470952Y-144794419D02*
X86394761Y-144794419D01*
X86432857Y-144984895D02*
X86356666Y-144946800D01*
X86356666Y-144946800D02*
X86280476Y-144870609D01*
X86280476Y-144870609D02*
X86242380Y-144718228D01*
X86242380Y-144718228D02*
X86242380Y-144451561D01*
X86242380Y-144451561D02*
X86280476Y-144299180D01*
X86280476Y-144299180D02*
X86356666Y-144222990D01*
X86356666Y-144222990D02*
X86432857Y-144184895D01*
X86432857Y-144184895D02*
X86585238Y-144184895D01*
X86585238Y-144184895D02*
X86661428Y-144222990D01*
X86661428Y-144222990D02*
X86737619Y-144299180D01*
X86737619Y-144299180D02*
X86775714Y-144451561D01*
X86775714Y-144451561D02*
X86775714Y-144718228D01*
X86775714Y-144718228D02*
X86737619Y-144870609D01*
X86737619Y-144870609D02*
X86661428Y-144946800D01*
X86661428Y-144946800D02*
X86585238Y-144984895D01*
X86585238Y-144984895D02*
X86432857Y-144984895D01*
X87461428Y-144451561D02*
X87461428Y-144984895D01*
X87270952Y-144146800D02*
X87080475Y-144718228D01*
X87080475Y-144718228D02*
X87575714Y-144718228D01*
X136542415Y-144772685D02*
X136275748Y-144391732D01*
X136085272Y-144772685D02*
X136085272Y-143972685D01*
X136085272Y-143972685D02*
X136390034Y-143972685D01*
X136390034Y-143972685D02*
X136466224Y-144010780D01*
X136466224Y-144010780D02*
X136504319Y-144048875D01*
X136504319Y-144048875D02*
X136542415Y-144125066D01*
X136542415Y-144125066D02*
X136542415Y-144239351D01*
X136542415Y-144239351D02*
X136504319Y-144315542D01*
X136504319Y-144315542D02*
X136466224Y-144353637D01*
X136466224Y-144353637D02*
X136390034Y-144391732D01*
X136390034Y-144391732D02*
X136085272Y-144391732D01*
X136809081Y-143972685D02*
X137304319Y-143972685D01*
X137304319Y-143972685D02*
X137037653Y-144277447D01*
X137037653Y-144277447D02*
X137151938Y-144277447D01*
X137151938Y-144277447D02*
X137228129Y-144315542D01*
X137228129Y-144315542D02*
X137266224Y-144353637D01*
X137266224Y-144353637D02*
X137304319Y-144429828D01*
X137304319Y-144429828D02*
X137304319Y-144620304D01*
X137304319Y-144620304D02*
X137266224Y-144696494D01*
X137266224Y-144696494D02*
X137228129Y-144734590D01*
X137228129Y-144734590D02*
X137151938Y-144772685D01*
X137151938Y-144772685D02*
X136923367Y-144772685D01*
X136923367Y-144772685D02*
X136847176Y-144734590D01*
X136847176Y-144734590D02*
X136809081Y-144696494D01*
X137799558Y-143972685D02*
X137875748Y-143972685D01*
X137875748Y-143972685D02*
X137951939Y-144010780D01*
X137951939Y-144010780D02*
X137990034Y-144048875D01*
X137990034Y-144048875D02*
X138028129Y-144125066D01*
X138028129Y-144125066D02*
X138066224Y-144277447D01*
X138066224Y-144277447D02*
X138066224Y-144467923D01*
X138066224Y-144467923D02*
X138028129Y-144620304D01*
X138028129Y-144620304D02*
X137990034Y-144696494D01*
X137990034Y-144696494D02*
X137951939Y-144734590D01*
X137951939Y-144734590D02*
X137875748Y-144772685D01*
X137875748Y-144772685D02*
X137799558Y-144772685D01*
X137799558Y-144772685D02*
X137723367Y-144734590D01*
X137723367Y-144734590D02*
X137685272Y-144696494D01*
X137685272Y-144696494D02*
X137647177Y-144620304D01*
X137647177Y-144620304D02*
X137609081Y-144467923D01*
X137609081Y-144467923D02*
X137609081Y-144277447D01*
X137609081Y-144277447D02*
X137647177Y-144125066D01*
X137647177Y-144125066D02*
X137685272Y-144048875D01*
X137685272Y-144048875D02*
X137723367Y-144010780D01*
X137723367Y-144010780D02*
X137799558Y-143972685D01*
X87264895Y-141394285D02*
X86883942Y-141660952D01*
X87264895Y-141851428D02*
X86464895Y-141851428D01*
X86464895Y-141851428D02*
X86464895Y-141546666D01*
X86464895Y-141546666D02*
X86502990Y-141470476D01*
X86502990Y-141470476D02*
X86541085Y-141432381D01*
X86541085Y-141432381D02*
X86617276Y-141394285D01*
X86617276Y-141394285D02*
X86731561Y-141394285D01*
X86731561Y-141394285D02*
X86807752Y-141432381D01*
X86807752Y-141432381D02*
X86845847Y-141470476D01*
X86845847Y-141470476D02*
X86883942Y-141546666D01*
X86883942Y-141546666D02*
X86883942Y-141851428D01*
X87264895Y-140632381D02*
X87264895Y-141089524D01*
X87264895Y-140860952D02*
X86464895Y-140860952D01*
X86464895Y-140860952D02*
X86579180Y-140937143D01*
X86579180Y-140937143D02*
X86655371Y-141013333D01*
X86655371Y-141013333D02*
X86693466Y-141089524D01*
X86464895Y-140365714D02*
X86464895Y-139870476D01*
X86464895Y-139870476D02*
X86769657Y-140137142D01*
X86769657Y-140137142D02*
X86769657Y-140022857D01*
X86769657Y-140022857D02*
X86807752Y-139946666D01*
X86807752Y-139946666D02*
X86845847Y-139908571D01*
X86845847Y-139908571D02*
X86922038Y-139870476D01*
X86922038Y-139870476D02*
X87112514Y-139870476D01*
X87112514Y-139870476D02*
X87188704Y-139908571D01*
X87188704Y-139908571D02*
X87226800Y-139946666D01*
X87226800Y-139946666D02*
X87264895Y-140022857D01*
X87264895Y-140022857D02*
X87264895Y-140251428D01*
X87264895Y-140251428D02*
X87226800Y-140327619D01*
X87226800Y-140327619D02*
X87188704Y-140365714D01*
X114116667Y-137678704D02*
X114078571Y-137716800D01*
X114078571Y-137716800D02*
X113964286Y-137754895D01*
X113964286Y-137754895D02*
X113888095Y-137754895D01*
X113888095Y-137754895D02*
X113773809Y-137716800D01*
X113773809Y-137716800D02*
X113697619Y-137640609D01*
X113697619Y-137640609D02*
X113659524Y-137564419D01*
X113659524Y-137564419D02*
X113621428Y-137412038D01*
X113621428Y-137412038D02*
X113621428Y-137297752D01*
X113621428Y-137297752D02*
X113659524Y-137145371D01*
X113659524Y-137145371D02*
X113697619Y-137069180D01*
X113697619Y-137069180D02*
X113773809Y-136992990D01*
X113773809Y-136992990D02*
X113888095Y-136954895D01*
X113888095Y-136954895D02*
X113964286Y-136954895D01*
X113964286Y-136954895D02*
X114078571Y-136992990D01*
X114078571Y-136992990D02*
X114116667Y-137031085D01*
X114802381Y-137221561D02*
X114802381Y-137754895D01*
X114611905Y-136916800D02*
X114421428Y-137488228D01*
X114421428Y-137488228D02*
X114916667Y-137488228D01*
X152655714Y-142244895D02*
X152389047Y-141863942D01*
X152198571Y-142244895D02*
X152198571Y-141444895D01*
X152198571Y-141444895D02*
X152503333Y-141444895D01*
X152503333Y-141444895D02*
X152579523Y-141482990D01*
X152579523Y-141482990D02*
X152617618Y-141521085D01*
X152617618Y-141521085D02*
X152655714Y-141597276D01*
X152655714Y-141597276D02*
X152655714Y-141711561D01*
X152655714Y-141711561D02*
X152617618Y-141787752D01*
X152617618Y-141787752D02*
X152579523Y-141825847D01*
X152579523Y-141825847D02*
X152503333Y-141863942D01*
X152503333Y-141863942D02*
X152198571Y-141863942D01*
X153341428Y-141711561D02*
X153341428Y-142244895D01*
X153150952Y-141406800D02*
X152960475Y-141978228D01*
X152960475Y-141978228D02*
X153455714Y-141978228D01*
X154179523Y-142244895D02*
X153722380Y-142244895D01*
X153950952Y-142244895D02*
X153950952Y-141444895D01*
X153950952Y-141444895D02*
X153874761Y-141559180D01*
X153874761Y-141559180D02*
X153798571Y-141635371D01*
X153798571Y-141635371D02*
X153722380Y-141673466D01*
X113338704Y-140353332D02*
X113376800Y-140391428D01*
X113376800Y-140391428D02*
X113414895Y-140505713D01*
X113414895Y-140505713D02*
X113414895Y-140581904D01*
X113414895Y-140581904D02*
X113376800Y-140696190D01*
X113376800Y-140696190D02*
X113300609Y-140772380D01*
X113300609Y-140772380D02*
X113224419Y-140810475D01*
X113224419Y-140810475D02*
X113072038Y-140848571D01*
X113072038Y-140848571D02*
X112957752Y-140848571D01*
X112957752Y-140848571D02*
X112805371Y-140810475D01*
X112805371Y-140810475D02*
X112729180Y-140772380D01*
X112729180Y-140772380D02*
X112652990Y-140696190D01*
X112652990Y-140696190D02*
X112614895Y-140581904D01*
X112614895Y-140581904D02*
X112614895Y-140505713D01*
X112614895Y-140505713D02*
X112652990Y-140391428D01*
X112652990Y-140391428D02*
X112691085Y-140353332D01*
X112614895Y-140086666D02*
X112614895Y-139591428D01*
X112614895Y-139591428D02*
X112919657Y-139858094D01*
X112919657Y-139858094D02*
X112919657Y-139743809D01*
X112919657Y-139743809D02*
X112957752Y-139667618D01*
X112957752Y-139667618D02*
X112995847Y-139629523D01*
X112995847Y-139629523D02*
X113072038Y-139591428D01*
X113072038Y-139591428D02*
X113262514Y-139591428D01*
X113262514Y-139591428D02*
X113338704Y-139629523D01*
X113338704Y-139629523D02*
X113376800Y-139667618D01*
X113376800Y-139667618D02*
X113414895Y-139743809D01*
X113414895Y-139743809D02*
X113414895Y-139972380D01*
X113414895Y-139972380D02*
X113376800Y-140048571D01*
X113376800Y-140048571D02*
X113338704Y-140086666D01*
X76916667Y-150088704D02*
X76878571Y-150126800D01*
X76878571Y-150126800D02*
X76764286Y-150164895D01*
X76764286Y-150164895D02*
X76688095Y-150164895D01*
X76688095Y-150164895D02*
X76573809Y-150126800D01*
X76573809Y-150126800D02*
X76497619Y-150050609D01*
X76497619Y-150050609D02*
X76459524Y-149974419D01*
X76459524Y-149974419D02*
X76421428Y-149822038D01*
X76421428Y-149822038D02*
X76421428Y-149707752D01*
X76421428Y-149707752D02*
X76459524Y-149555371D01*
X76459524Y-149555371D02*
X76497619Y-149479180D01*
X76497619Y-149479180D02*
X76573809Y-149402990D01*
X76573809Y-149402990D02*
X76688095Y-149364895D01*
X76688095Y-149364895D02*
X76764286Y-149364895D01*
X76764286Y-149364895D02*
X76878571Y-149402990D01*
X76878571Y-149402990D02*
X76916667Y-149441085D01*
X77183333Y-149364895D02*
X77716667Y-149364895D01*
X77716667Y-149364895D02*
X77373809Y-150164895D01*
X80188704Y-163113332D02*
X80226800Y-163151428D01*
X80226800Y-163151428D02*
X80264895Y-163265713D01*
X80264895Y-163265713D02*
X80264895Y-163341904D01*
X80264895Y-163341904D02*
X80226800Y-163456190D01*
X80226800Y-163456190D02*
X80150609Y-163532380D01*
X80150609Y-163532380D02*
X80074419Y-163570475D01*
X80074419Y-163570475D02*
X79922038Y-163608571D01*
X79922038Y-163608571D02*
X79807752Y-163608571D01*
X79807752Y-163608571D02*
X79655371Y-163570475D01*
X79655371Y-163570475D02*
X79579180Y-163532380D01*
X79579180Y-163532380D02*
X79502990Y-163456190D01*
X79502990Y-163456190D02*
X79464895Y-163341904D01*
X79464895Y-163341904D02*
X79464895Y-163265713D01*
X79464895Y-163265713D02*
X79502990Y-163151428D01*
X79502990Y-163151428D02*
X79541085Y-163113332D01*
X80264895Y-162732380D02*
X80264895Y-162579999D01*
X80264895Y-162579999D02*
X80226800Y-162503809D01*
X80226800Y-162503809D02*
X80188704Y-162465713D01*
X80188704Y-162465713D02*
X80074419Y-162389523D01*
X80074419Y-162389523D02*
X79922038Y-162351428D01*
X79922038Y-162351428D02*
X79617276Y-162351428D01*
X79617276Y-162351428D02*
X79541085Y-162389523D01*
X79541085Y-162389523D02*
X79502990Y-162427618D01*
X79502990Y-162427618D02*
X79464895Y-162503809D01*
X79464895Y-162503809D02*
X79464895Y-162656190D01*
X79464895Y-162656190D02*
X79502990Y-162732380D01*
X79502990Y-162732380D02*
X79541085Y-162770475D01*
X79541085Y-162770475D02*
X79617276Y-162808571D01*
X79617276Y-162808571D02*
X79807752Y-162808571D01*
X79807752Y-162808571D02*
X79883942Y-162770475D01*
X79883942Y-162770475D02*
X79922038Y-162732380D01*
X79922038Y-162732380D02*
X79960133Y-162656190D01*
X79960133Y-162656190D02*
X79960133Y-162503809D01*
X79960133Y-162503809D02*
X79922038Y-162427618D01*
X79922038Y-162427618D02*
X79883942Y-162389523D01*
X79883942Y-162389523D02*
X79807752Y-162351428D01*
X131078704Y-140514285D02*
X131116800Y-140552381D01*
X131116800Y-140552381D02*
X131154895Y-140666666D01*
X131154895Y-140666666D02*
X131154895Y-140742857D01*
X131154895Y-140742857D02*
X131116800Y-140857143D01*
X131116800Y-140857143D02*
X131040609Y-140933333D01*
X131040609Y-140933333D02*
X130964419Y-140971428D01*
X130964419Y-140971428D02*
X130812038Y-141009524D01*
X130812038Y-141009524D02*
X130697752Y-141009524D01*
X130697752Y-141009524D02*
X130545371Y-140971428D01*
X130545371Y-140971428D02*
X130469180Y-140933333D01*
X130469180Y-140933333D02*
X130392990Y-140857143D01*
X130392990Y-140857143D02*
X130354895Y-140742857D01*
X130354895Y-140742857D02*
X130354895Y-140666666D01*
X130354895Y-140666666D02*
X130392990Y-140552381D01*
X130392990Y-140552381D02*
X130431085Y-140514285D01*
X130354895Y-140247619D02*
X130354895Y-139752381D01*
X130354895Y-139752381D02*
X130659657Y-140019047D01*
X130659657Y-140019047D02*
X130659657Y-139904762D01*
X130659657Y-139904762D02*
X130697752Y-139828571D01*
X130697752Y-139828571D02*
X130735847Y-139790476D01*
X130735847Y-139790476D02*
X130812038Y-139752381D01*
X130812038Y-139752381D02*
X131002514Y-139752381D01*
X131002514Y-139752381D02*
X131078704Y-139790476D01*
X131078704Y-139790476D02*
X131116800Y-139828571D01*
X131116800Y-139828571D02*
X131154895Y-139904762D01*
X131154895Y-139904762D02*
X131154895Y-140133333D01*
X131154895Y-140133333D02*
X131116800Y-140209524D01*
X131116800Y-140209524D02*
X131078704Y-140247619D01*
X130354895Y-139485714D02*
X130354895Y-138990476D01*
X130354895Y-138990476D02*
X130659657Y-139257142D01*
X130659657Y-139257142D02*
X130659657Y-139142857D01*
X130659657Y-139142857D02*
X130697752Y-139066666D01*
X130697752Y-139066666D02*
X130735847Y-139028571D01*
X130735847Y-139028571D02*
X130812038Y-138990476D01*
X130812038Y-138990476D02*
X131002514Y-138990476D01*
X131002514Y-138990476D02*
X131078704Y-139028571D01*
X131078704Y-139028571D02*
X131116800Y-139066666D01*
X131116800Y-139066666D02*
X131154895Y-139142857D01*
X131154895Y-139142857D02*
X131154895Y-139371428D01*
X131154895Y-139371428D02*
X131116800Y-139447619D01*
X131116800Y-139447619D02*
X131078704Y-139485714D01*
X143938704Y-150154285D02*
X143976800Y-150192381D01*
X143976800Y-150192381D02*
X144014895Y-150306666D01*
X144014895Y-150306666D02*
X144014895Y-150382857D01*
X144014895Y-150382857D02*
X143976800Y-150497143D01*
X143976800Y-150497143D02*
X143900609Y-150573333D01*
X143900609Y-150573333D02*
X143824419Y-150611428D01*
X143824419Y-150611428D02*
X143672038Y-150649524D01*
X143672038Y-150649524D02*
X143557752Y-150649524D01*
X143557752Y-150649524D02*
X143405371Y-150611428D01*
X143405371Y-150611428D02*
X143329180Y-150573333D01*
X143329180Y-150573333D02*
X143252990Y-150497143D01*
X143252990Y-150497143D02*
X143214895Y-150382857D01*
X143214895Y-150382857D02*
X143214895Y-150306666D01*
X143214895Y-150306666D02*
X143252990Y-150192381D01*
X143252990Y-150192381D02*
X143291085Y-150154285D01*
X144014895Y-149392381D02*
X144014895Y-149849524D01*
X144014895Y-149620952D02*
X143214895Y-149620952D01*
X143214895Y-149620952D02*
X143329180Y-149697143D01*
X143329180Y-149697143D02*
X143405371Y-149773333D01*
X143405371Y-149773333D02*
X143443466Y-149849524D01*
X143214895Y-149125714D02*
X143214895Y-148630476D01*
X143214895Y-148630476D02*
X143519657Y-148897142D01*
X143519657Y-148897142D02*
X143519657Y-148782857D01*
X143519657Y-148782857D02*
X143557752Y-148706666D01*
X143557752Y-148706666D02*
X143595847Y-148668571D01*
X143595847Y-148668571D02*
X143672038Y-148630476D01*
X143672038Y-148630476D02*
X143862514Y-148630476D01*
X143862514Y-148630476D02*
X143938704Y-148668571D01*
X143938704Y-148668571D02*
X143976800Y-148706666D01*
X143976800Y-148706666D02*
X144014895Y-148782857D01*
X144014895Y-148782857D02*
X144014895Y-149011428D01*
X144014895Y-149011428D02*
X143976800Y-149087619D01*
X143976800Y-149087619D02*
X143938704Y-149125714D01*
%TO.C,C1*%
X119565000Y-149090000D02*
X120815000Y-149090000D01*
X120815000Y-151090000D01*
X119565000Y-151090000D01*
X119565000Y-149090000D01*
%TO.C,R11*%
X114865000Y-144740000D02*
X116115000Y-144740000D01*
X116115000Y-146740000D01*
X114865000Y-146740000D01*
X114865000Y-144740000D01*
%TO.C,R40*%
X153150000Y-142937500D02*
X154750000Y-142937500D01*
X154750000Y-143762500D01*
X153150000Y-143762500D01*
X153150000Y-142937500D01*
%TO.C,Q3*%
X81460000Y-141220000D02*
X81460000Y-138770000D01*
X81460000Y-141220000D02*
X80910000Y-141790000D01*
X81460000Y-138750000D02*
X80060000Y-138750000D01*
X80910000Y-141790000D02*
X80060000Y-141790000D01*
X80060000Y-141790000D02*
X80060000Y-138750000D01*
%TO.C,C21*%
X153000000Y-133090000D02*
X154600000Y-133090000D01*
X154600000Y-133890000D01*
X153000000Y-133890000D01*
X153000000Y-133090000D01*
%TO.C,R7*%
X75110000Y-138475000D02*
X77110000Y-138475000D01*
X77110000Y-139725000D01*
X75110000Y-139725000D01*
X75110000Y-138475000D01*
%TO.C,L1*%
X115035000Y-132595000D02*
X118035000Y-132595000D01*
X118035000Y-135595000D01*
X115035000Y-135595000D01*
X115035000Y-132595000D01*
%TO.C,SW2*%
X146100000Y-144125000D02*
X148850000Y-144125000D01*
X148850000Y-147125000D01*
X146100000Y-147125000D01*
X146100000Y-144125000D01*
X148125000Y-145625000D02*
G75*
G02*
X146825000Y-145625000I-650000J0D01*
G01*
X146825000Y-145625000D02*
G75*
G02*
X148125000Y-145625000I650000J0D01*
G01*
%TO.C,H3*%
X83150000Y-136900000D02*
G75*
G02*
X81150000Y-136900000I-1000000J0D01*
G01*
X81150000Y-136900000D02*
G75*
G02*
X83150000Y-136900000I1000000J0D01*
G01*
%TO.C,U2*%
X117735000Y-137107500D02*
X117735000Y-138982500D01*
X115235000Y-138982500D01*
X115235000Y-136482500D01*
X117110000Y-136482500D01*
X117735000Y-137107500D01*
%TO.C,Q2*%
X77020000Y-142080000D02*
X74570000Y-142080000D01*
X77020000Y-142080000D02*
X77590000Y-142630000D01*
X74550000Y-142080000D02*
X74550000Y-143480000D01*
X77590000Y-142630000D02*
X77590000Y-143480000D01*
X77590000Y-143480000D02*
X74550000Y-143480000D01*
%TO.C,R22*%
X139352500Y-147415000D02*
X140602500Y-147415000D01*
X140602500Y-149415000D01*
X139352500Y-149415000D01*
X139352500Y-147415000D01*
%TO.C,J6*%
X156090000Y-144220000D02*
X154840000Y-144220000D01*
X156090000Y-145470000D02*
X156090000Y-144220000D01*
X151180000Y-144630000D02*
X155680000Y-144630000D01*
X155680000Y-156530000D01*
X151180000Y-156530000D01*
X151180000Y-144630000D01*
%TO.C,C12*%
X137880000Y-148880000D02*
X138680000Y-148880000D01*
X138680000Y-150480000D01*
X137880000Y-150480000D01*
X137880000Y-148880000D01*
%TO.C,R23*%
X141327500Y-147415000D02*
X142577500Y-147415000D01*
X142577500Y-149415000D01*
X141327500Y-149415000D01*
X141327500Y-147415000D01*
%TO.C,R34*%
X150970000Y-131165000D02*
X152970000Y-131165000D01*
X152970000Y-132415000D01*
X150970000Y-132415000D01*
X150970000Y-131165000D01*
%TO.C,J4*%
X73990000Y-165620000D02*
X73990000Y-173220000D01*
X73990000Y-165620000D02*
X74790000Y-165620000D01*
X73990000Y-173220000D02*
X83890000Y-173220000D01*
X74790000Y-165620000D02*
X74790000Y-167220000D01*
X74790000Y-167220000D02*
X83090000Y-167220000D01*
X76440000Y-167220000D02*
X76940000Y-167927107D01*
X76940000Y-167927107D02*
X77440000Y-167220000D01*
X83090000Y-165620000D02*
X83890000Y-165620000D01*
X83090000Y-167220000D02*
X83090000Y-165620000D01*
X83890000Y-165620000D02*
X83890000Y-173220000D01*
%TO.C,U10*%
X135981098Y-125325000D02*
X149181098Y-125325000D01*
X135981098Y-130725000D02*
X149181098Y-130725000D01*
X135981098Y-140925000D02*
X135981098Y-125325000D01*
X136981098Y-141925000D02*
X135981098Y-140925000D01*
X149181098Y-125325000D02*
X149181098Y-141925000D01*
X149181098Y-141925000D02*
X136981098Y-141925000D01*
%TO.C,U3*%
X79000000Y-155150000D02*
X79000000Y-152700000D01*
X79000000Y-155150000D02*
X78450000Y-155720000D01*
X79000000Y-152680000D02*
X77600000Y-152680000D01*
X78450000Y-155720000D02*
X77600000Y-155720000D01*
X77600000Y-155720000D02*
X77600000Y-152680000D01*
%TO.C,J5*%
X123250000Y-139560000D02*
X124500000Y-139560000D01*
X123250000Y-138310000D02*
X123250000Y-139560000D01*
X123660000Y-131250000D02*
X128160000Y-131250000D01*
X128160000Y-139150000D01*
X123660000Y-139150000D01*
X123660000Y-131250000D01*
%TO.C,H2*%
X90650000Y-136200000D02*
G75*
G02*
X89650000Y-136200000I-500000J0D01*
G01*
X89650000Y-136200000D02*
G75*
G02*
X90650000Y-136200000I500000J0D01*
G01*
%TO.C,R32*%
X134485000Y-143410000D02*
X135735000Y-143410000D01*
X135735000Y-145410000D01*
X134485000Y-145410000D01*
X134485000Y-143410000D01*
%TO.C,D3*%
X84600000Y-164800000D02*
X84600000Y-161800000D01*
X86250560Y-162500920D02*
X86250560Y-164101120D01*
X86250560Y-163301020D02*
X85348860Y-163301020D01*
X86250560Y-163301020D02*
X87401180Y-162500920D01*
X86250560Y-163301020D02*
X87401180Y-164050320D01*
X87401180Y-163301020D02*
X88399400Y-163301020D01*
X87401180Y-164050320D02*
X87401180Y-162500920D01*
X89200000Y-161800000D02*
X84600000Y-161800000D01*
X89200000Y-161800000D02*
X89200000Y-164800000D01*
X89200000Y-164800000D02*
X84600000Y-164800000D01*
%TO.C,R9*%
X82120000Y-142385000D02*
X84120000Y-142385000D01*
X84120000Y-143635000D01*
X82120000Y-143635000D01*
X82120000Y-142385000D01*
%TO.C,D1*%
X121510000Y-147420000D02*
X124510000Y-147420000D01*
X123809080Y-149070560D02*
X122208880Y-149070560D01*
X123008980Y-149070560D02*
X123008980Y-148168860D01*
X123008980Y-149070560D02*
X123809080Y-150221180D01*
X123008980Y-149070560D02*
X122259680Y-150221180D01*
X123008980Y-150221180D02*
X123008980Y-151219400D01*
X122259680Y-150221180D02*
X123809080Y-150221180D01*
X124510000Y-152020000D02*
X124510000Y-147420000D01*
X124510000Y-152020000D02*
X121510000Y-152020000D01*
X121510000Y-152020000D02*
X121510000Y-147420000D01*
%TO.C,J2*%
X110080000Y-151640000D02*
X110080000Y-152890000D01*
X111330000Y-151640000D02*
X110080000Y-151640000D01*
X110490000Y-152050000D02*
X116390000Y-152050000D01*
X116390000Y-156550000D01*
X110490000Y-156550000D01*
X110490000Y-152050000D01*
%TO.C,R20*%
X129520000Y-132705000D02*
X131520000Y-132705000D01*
X131520000Y-133955000D01*
X129520000Y-133955000D01*
X129520000Y-132705000D01*
%TO.C,C11*%
X132700000Y-131720000D02*
X133500000Y-131720000D01*
X133500000Y-133320000D01*
X132700000Y-133320000D01*
X132700000Y-131720000D01*
%TO.C,C20*%
X133280000Y-139130000D02*
X134880000Y-139130000D01*
X134880000Y-139930000D01*
X133280000Y-139930000D01*
X133280000Y-139130000D01*
%TO.C,L2*%
X78600000Y-148300000D02*
X81100000Y-148300000D01*
X81100000Y-151500000D01*
X78600000Y-151500000D01*
X78600000Y-148300000D01*
%TO.C,C32*%
X124830000Y-142340000D02*
X125630000Y-142340000D01*
X125630000Y-143940000D01*
X124830000Y-143940000D01*
X124830000Y-142340000D01*
%TO.C,R12*%
X117340000Y-144215000D02*
X119340000Y-144215000D01*
X119340000Y-145465000D01*
X117340000Y-145465000D01*
X117340000Y-144215000D01*
%TO.C,Q1*%
X127460000Y-153250000D02*
X125010000Y-153250000D01*
X127460000Y-153250000D02*
X128030000Y-153800000D01*
X124990000Y-153250000D02*
X124990000Y-154650000D01*
X128030000Y-153800000D02*
X128030000Y-154650000D01*
X128030000Y-154650000D02*
X124990000Y-154650000D01*
%TO.C,Q10*%
X128580000Y-147790000D02*
X128580000Y-145340000D01*
X128580000Y-147790000D02*
X128030000Y-148360000D01*
X128580000Y-145320000D02*
X127180000Y-145320000D01*
X128030000Y-148360000D02*
X127180000Y-148360000D01*
X127180000Y-148360000D02*
X127180000Y-145320000D01*
%TO.C,C22*%
X133020000Y-145090000D02*
X133820000Y-145090000D01*
X133820000Y-146690000D01*
X133020000Y-146690000D01*
X133020000Y-145090000D01*
%TO.C,R51*%
X128315000Y-142110000D02*
X129565000Y-142110000D01*
X129565000Y-144110000D01*
X128315000Y-144110000D01*
X128315000Y-142110000D01*
%TO.C,R52*%
X130770000Y-142655000D02*
X132770000Y-142655000D01*
X132770000Y-143905000D01*
X130770000Y-143905000D01*
X130770000Y-142655000D01*
%TO.C,R5*%
X128585000Y-151530000D02*
X129835000Y-151530000D01*
X129835000Y-153530000D01*
X128585000Y-153530000D01*
X128585000Y-151530000D01*
%TO.C,SW1*%
X131100000Y-135055000D02*
X134100000Y-135055000D01*
X134100000Y-137805000D01*
X131100000Y-137805000D01*
X131100000Y-135055000D01*
X133250000Y-136430000D02*
G75*
G02*
X131950000Y-136430000I-650000J0D01*
G01*
X131950000Y-136430000D02*
G75*
G02*
X133250000Y-136430000I650000J0D01*
G01*
%TO.C,J3*%
X89520000Y-188050000D02*
X89520000Y-186800000D01*
X88270000Y-188050000D02*
X89520000Y-188050000D01*
X75210000Y-183140000D02*
X89110000Y-183140000D01*
X89110000Y-187640000D01*
X75210000Y-187640000D01*
X75210000Y-183140000D01*
%TO.C,U1*%
X115902500Y-148740000D02*
X115902500Y-151190000D01*
X115902500Y-148740000D02*
X116552500Y-148090000D01*
X117702500Y-148090000D02*
X116552500Y-148090000D01*
X117702500Y-148090000D02*
X117702500Y-151190000D01*
X117702500Y-151190000D02*
X115902500Y-151190000D01*
%TO.C,C10*%
X134180000Y-131720000D02*
X134980000Y-131720000D01*
X134980000Y-133320000D01*
X134180000Y-133320000D01*
X134180000Y-131720000D01*
%TO.C,R3*%
X117390000Y-146165000D02*
X119390000Y-146165000D01*
X119390000Y-147415000D01*
X117390000Y-147415000D01*
X117390000Y-146165000D01*
%TO.C,R33*%
X138331701Y-143407790D02*
X139581701Y-143407790D01*
X139581701Y-145407790D01*
X138331701Y-145407790D01*
X138331701Y-143407790D01*
%TO.C,D4*%
X85250000Y-159250000D02*
X82250000Y-159250000D01*
X82950920Y-157599440D02*
X84551120Y-157599440D01*
X83751020Y-157599440D02*
X83751020Y-158501140D01*
X83751020Y-157599440D02*
X82950920Y-156448820D01*
X83751020Y-157599440D02*
X84500320Y-156448820D01*
X83751020Y-156448820D02*
X83751020Y-155450600D01*
X84500320Y-156448820D02*
X82950920Y-156448820D01*
X82250000Y-154650000D02*
X82250000Y-159250000D01*
X82250000Y-154650000D02*
X85250000Y-154650000D01*
X85250000Y-154650000D02*
X85250000Y-159250000D01*
%TO.C,R42*%
X148180000Y-149847500D02*
X149780000Y-149847500D01*
X149780000Y-150672500D01*
X148180000Y-150672500D01*
X148180000Y-149847500D01*
%TO.C,R8*%
X82045000Y-145940000D02*
X83295000Y-145940000D01*
X83295000Y-147940000D01*
X82045000Y-147940000D01*
X82045000Y-145940000D01*
%TO.C,C2*%
X112795000Y-148650000D02*
X114045000Y-148650000D01*
X114045000Y-150650000D01*
X112795000Y-150650000D01*
X112795000Y-148650000D01*
%TO.C,R31*%
X132860000Y-140715000D02*
X134860000Y-140715000D01*
X134860000Y-141965000D01*
X132860000Y-141965000D01*
X132860000Y-140715000D01*
%TO.C,R43*%
X148190000Y-148387500D02*
X149790000Y-148387500D01*
X149790000Y-149212500D01*
X148190000Y-149212500D01*
X148190000Y-148387500D01*
%TO.C,R50*%
X126395000Y-142160000D02*
X127645000Y-142160000D01*
X127645000Y-144160000D01*
X126395000Y-144160000D01*
X126395000Y-142160000D01*
%TO.C,C8*%
X77387500Y-156425000D02*
X79387500Y-156425000D01*
X79387500Y-157675000D01*
X77387500Y-157675000D01*
X77387500Y-156425000D01*
%TO.C,R6*%
X127150000Y-149005000D02*
X129150000Y-149005000D01*
X129150000Y-150255000D01*
X127150000Y-150255000D01*
X127150000Y-149005000D01*
%TO.C,H1*%
X90650000Y-132200000D02*
G75*
G02*
X88650000Y-132200000I-1000000J0D01*
G01*
X88650000Y-132200000D02*
G75*
G02*
X90650000Y-132200000I1000000J0D01*
G01*
%TO.C,C5*%
X118360000Y-136632500D02*
X119610000Y-136632500D01*
X119610000Y-138632500D01*
X118360000Y-138632500D01*
X118360000Y-136632500D01*
%TO.C,R21*%
X144145000Y-145130000D02*
X145395000Y-145130000D01*
X145395000Y-147130000D01*
X144145000Y-147130000D01*
X144145000Y-145130000D01*
%TO.C,RT1*%
X155750000Y-134320000D02*
X154500000Y-134320000D01*
X155750000Y-135570000D02*
X155750000Y-134320000D01*
X150840000Y-134730000D02*
X155340000Y-134730000D01*
X155340000Y-140630000D01*
X150840000Y-140630000D01*
X150840000Y-134730000D01*
%TO.C,C6*%
X120460000Y-136645000D02*
X121710000Y-136645000D01*
X121710000Y-138645000D01*
X120460000Y-138645000D01*
X120460000Y-136645000D01*
%TO.C,J10*%
X150590000Y-156740000D02*
X150590000Y-155490000D01*
X149340000Y-156740000D02*
X150590000Y-156740000D01*
X136280000Y-151830000D02*
X150180000Y-151830000D01*
X150180000Y-156330000D01*
X136280000Y-156330000D01*
X136280000Y-151830000D01*
%TO.C,Q4*%
X87840000Y-143920000D02*
X85390000Y-143920000D01*
X87840000Y-143920000D02*
X88410000Y-144470000D01*
X85370000Y-143920000D02*
X85370000Y-145320000D01*
X88410000Y-144470000D02*
X88410000Y-145320000D01*
X88410000Y-145320000D02*
X85370000Y-145320000D01*
%TO.C,R30*%
X136431701Y-143407790D02*
X137681701Y-143407790D01*
X137681701Y-145407790D01*
X136431701Y-145407790D01*
X136431701Y-143407790D01*
%TO.C,R13*%
X85900000Y-140255000D02*
X87900000Y-140255000D01*
X87900000Y-141505000D01*
X85900000Y-141505000D01*
X85900000Y-140255000D01*
%TO.C,H4*%
X75900000Y-136700000D02*
G75*
G02*
X74400000Y-136700000I-750000J0D01*
G01*
X74400000Y-136700000D02*
G75*
G02*
X75900000Y-136700000I750000J0D01*
G01*
%TO.C,C4*%
X113850000Y-136590000D02*
X114650000Y-136590000D01*
X114650000Y-138190000D01*
X113850000Y-138190000D01*
X113850000Y-136590000D01*
%TO.C,R41*%
X152370000Y-141467500D02*
X153970000Y-141467500D01*
X153970000Y-142292500D01*
X152370000Y-142292500D01*
X152370000Y-141467500D01*
%TO.C,C3*%
X112050000Y-139595000D02*
X114050000Y-139595000D01*
X114050000Y-140845000D01*
X112050000Y-140845000D01*
X112050000Y-139595000D01*
%TO.C,C7*%
X76425000Y-148800000D02*
X77675000Y-148800000D01*
X77675000Y-150800000D01*
X76425000Y-150800000D01*
X76425000Y-148800000D01*
%TO.C,C9*%
X79100000Y-162580000D02*
X80700000Y-162580000D01*
X80700000Y-163380000D01*
X79100000Y-163380000D01*
X79100000Y-162580000D01*
%TO.C,C33*%
X130390000Y-139200000D02*
X131190000Y-139200000D01*
X131190000Y-140800000D01*
X130390000Y-140800000D01*
X130390000Y-139200000D01*
%TO.C,C13*%
X143250000Y-148840000D02*
X144050000Y-148840000D01*
X144050000Y-150440000D01*
X143250000Y-150440000D01*
X143250000Y-148840000D01*
%TD*%
M02*
