%TF.GenerationSoftware,KiCad,Pcbnew,10.0.6-rc2*%
%TF.CreationDate,2026-08-24T12:59:56+02:00*%
%TF.ProjectId,unni-smartification-c6,756e6e69-2d73-46d6-9172-746966696361,rev?*%
%TF.SameCoordinates,Original*%
%TF.FileFunction,Other,User*%
%FSLAX46Y46*%
G04 Gerber Fmt 4.6, Leading zero omitted, Abs format (unit mm)*
G04 Created by KiCad (PCBNEW 10.0.6-rc2) date 2026-08-24 12:59:56*
%MOMM*%
%LPD*%
G01*
G04 APERTURE LIST*
%ADD10C,0.137500*%
%ADD11C,0.150000*%
G04 APERTURE END LIST*
D10*
X78365475Y-123697290D02*
X78679761Y-123697290D01*
X78522618Y-124247290D02*
X78522618Y-123697290D01*
X78967857Y-123697290D02*
X79072619Y-123697290D01*
X79072619Y-123697290D02*
X79125000Y-123723480D01*
X79125000Y-123723480D02*
X79177381Y-123775861D01*
X79177381Y-123775861D02*
X79203571Y-123880623D01*
X79203571Y-123880623D02*
X79203571Y-124063957D01*
X79203571Y-124063957D02*
X79177381Y-124168719D01*
X79177381Y-124168719D02*
X79125000Y-124221100D01*
X79125000Y-124221100D02*
X79072619Y-124247290D01*
X79072619Y-124247290D02*
X78967857Y-124247290D01*
X78967857Y-124247290D02*
X78915476Y-124221100D01*
X78915476Y-124221100D02*
X78863095Y-124168719D01*
X78863095Y-124168719D02*
X78836904Y-124063957D01*
X78836904Y-124063957D02*
X78836904Y-123880623D01*
X78836904Y-123880623D02*
X78863095Y-123775861D01*
X78863095Y-123775861D02*
X78915476Y-123723480D01*
X78915476Y-123723480D02*
X78967857Y-123697290D01*
X79439285Y-124247290D02*
X79439285Y-123697290D01*
X79439285Y-123697290D02*
X79648809Y-123697290D01*
X79648809Y-123697290D02*
X79701190Y-123723480D01*
X79701190Y-123723480D02*
X79727380Y-123749671D01*
X79727380Y-123749671D02*
X79753571Y-123802052D01*
X79753571Y-123802052D02*
X79753571Y-123880623D01*
X79753571Y-123880623D02*
X79727380Y-123933004D01*
X79727380Y-123933004D02*
X79701190Y-123959195D01*
X79701190Y-123959195D02*
X79648809Y-123985385D01*
X79648809Y-123985385D02*
X79439285Y-123985385D01*
X80408333Y-124247290D02*
X80408333Y-123697290D01*
X80408333Y-123697290D02*
X80539285Y-123697290D01*
X80539285Y-123697290D02*
X80617857Y-123723480D01*
X80617857Y-123723480D02*
X80670238Y-123775861D01*
X80670238Y-123775861D02*
X80696428Y-123828242D01*
X80696428Y-123828242D02*
X80722619Y-123933004D01*
X80722619Y-123933004D02*
X80722619Y-124011576D01*
X80722619Y-124011576D02*
X80696428Y-124116338D01*
X80696428Y-124116338D02*
X80670238Y-124168719D01*
X80670238Y-124168719D02*
X80617857Y-124221100D01*
X80617857Y-124221100D02*
X80539285Y-124247290D01*
X80539285Y-124247290D02*
X80408333Y-124247290D01*
X80932142Y-124090147D02*
X81194047Y-124090147D01*
X80879761Y-124247290D02*
X81063095Y-123697290D01*
X81063095Y-123697290D02*
X81246428Y-124247290D01*
X81351190Y-123697290D02*
X81665476Y-123697290D01*
X81508333Y-124247290D02*
X81508333Y-123697290D01*
X81848810Y-123697290D02*
X81848810Y-124142528D01*
X81848810Y-124142528D02*
X81875000Y-124194909D01*
X81875000Y-124194909D02*
X81901191Y-124221100D01*
X81901191Y-124221100D02*
X81953572Y-124247290D01*
X81953572Y-124247290D02*
X82058334Y-124247290D01*
X82058334Y-124247290D02*
X82110715Y-124221100D01*
X82110715Y-124221100D02*
X82136905Y-124194909D01*
X82136905Y-124194909D02*
X82163096Y-124142528D01*
X82163096Y-124142528D02*
X82163096Y-123697290D01*
X82425000Y-124247290D02*
X82425000Y-123697290D01*
X82425000Y-123697290D02*
X82608333Y-124090147D01*
X82608333Y-124090147D02*
X82791667Y-123697290D01*
X82791667Y-123697290D02*
X82791667Y-124247290D01*
X83865476Y-123671100D02*
X83394047Y-124378242D01*
X84467857Y-123697290D02*
X84467857Y-124142528D01*
X84467857Y-124142528D02*
X84494047Y-124194909D01*
X84494047Y-124194909D02*
X84520238Y-124221100D01*
X84520238Y-124221100D02*
X84572619Y-124247290D01*
X84572619Y-124247290D02*
X84677381Y-124247290D01*
X84677381Y-124247290D02*
X84729762Y-124221100D01*
X84729762Y-124221100D02*
X84755952Y-124194909D01*
X84755952Y-124194909D02*
X84782143Y-124142528D01*
X84782143Y-124142528D02*
X84782143Y-123697290D01*
X85017856Y-124221100D02*
X85096428Y-124247290D01*
X85096428Y-124247290D02*
X85227380Y-124247290D01*
X85227380Y-124247290D02*
X85279761Y-124221100D01*
X85279761Y-124221100D02*
X85305952Y-124194909D01*
X85305952Y-124194909D02*
X85332142Y-124142528D01*
X85332142Y-124142528D02*
X85332142Y-124090147D01*
X85332142Y-124090147D02*
X85305952Y-124037766D01*
X85305952Y-124037766D02*
X85279761Y-124011576D01*
X85279761Y-124011576D02*
X85227380Y-123985385D01*
X85227380Y-123985385D02*
X85122618Y-123959195D01*
X85122618Y-123959195D02*
X85070237Y-123933004D01*
X85070237Y-123933004D02*
X85044047Y-123906814D01*
X85044047Y-123906814D02*
X85017856Y-123854433D01*
X85017856Y-123854433D02*
X85017856Y-123802052D01*
X85017856Y-123802052D02*
X85044047Y-123749671D01*
X85044047Y-123749671D02*
X85070237Y-123723480D01*
X85070237Y-123723480D02*
X85122618Y-123697290D01*
X85122618Y-123697290D02*
X85253571Y-123697290D01*
X85253571Y-123697290D02*
X85332142Y-123723480D01*
X85751190Y-123959195D02*
X85829762Y-123985385D01*
X85829762Y-123985385D02*
X85855952Y-124011576D01*
X85855952Y-124011576D02*
X85882143Y-124063957D01*
X85882143Y-124063957D02*
X85882143Y-124142528D01*
X85882143Y-124142528D02*
X85855952Y-124194909D01*
X85855952Y-124194909D02*
X85829762Y-124221100D01*
X85829762Y-124221100D02*
X85777381Y-124247290D01*
X85777381Y-124247290D02*
X85567857Y-124247290D01*
X85567857Y-124247290D02*
X85567857Y-123697290D01*
X85567857Y-123697290D02*
X85751190Y-123697290D01*
X85751190Y-123697290D02*
X85803571Y-123723480D01*
X85803571Y-123723480D02*
X85829762Y-123749671D01*
X85829762Y-123749671D02*
X85855952Y-123802052D01*
X85855952Y-123802052D02*
X85855952Y-123854433D01*
X85855952Y-123854433D02*
X85829762Y-123906814D01*
X85829762Y-123906814D02*
X85803571Y-123933004D01*
X85803571Y-123933004D02*
X85751190Y-123959195D01*
X85751190Y-123959195D02*
X85567857Y-123959195D01*
D11*
X72833333Y-186242902D02*
X72833333Y-186769092D01*
X72833333Y-186769092D02*
X72864286Y-186830997D01*
X72864286Y-186830997D02*
X72895238Y-186861950D01*
X72895238Y-186861950D02*
X72957143Y-186892902D01*
X72957143Y-186892902D02*
X73080952Y-186892902D01*
X73080952Y-186892902D02*
X73142857Y-186861950D01*
X73142857Y-186861950D02*
X73173810Y-186830997D01*
X73173810Y-186830997D02*
X73204762Y-186769092D01*
X73204762Y-186769092D02*
X73204762Y-186242902D01*
X73483333Y-186861950D02*
X73576190Y-186892902D01*
X73576190Y-186892902D02*
X73730952Y-186892902D01*
X73730952Y-186892902D02*
X73792857Y-186861950D01*
X73792857Y-186861950D02*
X73823809Y-186830997D01*
X73823809Y-186830997D02*
X73854762Y-186769092D01*
X73854762Y-186769092D02*
X73854762Y-186707188D01*
X73854762Y-186707188D02*
X73823809Y-186645283D01*
X73823809Y-186645283D02*
X73792857Y-186614330D01*
X73792857Y-186614330D02*
X73730952Y-186583378D01*
X73730952Y-186583378D02*
X73607143Y-186552426D01*
X73607143Y-186552426D02*
X73545238Y-186521473D01*
X73545238Y-186521473D02*
X73514285Y-186490521D01*
X73514285Y-186490521D02*
X73483333Y-186428616D01*
X73483333Y-186428616D02*
X73483333Y-186366711D01*
X73483333Y-186366711D02*
X73514285Y-186304807D01*
X73514285Y-186304807D02*
X73545238Y-186273854D01*
X73545238Y-186273854D02*
X73607143Y-186242902D01*
X73607143Y-186242902D02*
X73761904Y-186242902D01*
X73761904Y-186242902D02*
X73854762Y-186273854D01*
X74350000Y-186552426D02*
X74442857Y-186583378D01*
X74442857Y-186583378D02*
X74473810Y-186614330D01*
X74473810Y-186614330D02*
X74504762Y-186676235D01*
X74504762Y-186676235D02*
X74504762Y-186769092D01*
X74504762Y-186769092D02*
X74473810Y-186830997D01*
X74473810Y-186830997D02*
X74442857Y-186861950D01*
X74442857Y-186861950D02*
X74380952Y-186892902D01*
X74380952Y-186892902D02*
X74133333Y-186892902D01*
X74133333Y-186892902D02*
X74133333Y-186242902D01*
X74133333Y-186242902D02*
X74350000Y-186242902D01*
X74350000Y-186242902D02*
X74411905Y-186273854D01*
X74411905Y-186273854D02*
X74442857Y-186304807D01*
X74442857Y-186304807D02*
X74473810Y-186366711D01*
X74473810Y-186366711D02*
X74473810Y-186428616D01*
X74473810Y-186428616D02*
X74442857Y-186490521D01*
X74442857Y-186490521D02*
X74411905Y-186521473D01*
X74411905Y-186521473D02*
X74350000Y-186552426D01*
X74350000Y-186552426D02*
X74133333Y-186552426D01*
X75742857Y-186211950D02*
X75185714Y-187047664D01*
X76454761Y-186892902D02*
X76454761Y-186242902D01*
X76454761Y-186242902D02*
X76702380Y-186242902D01*
X76702380Y-186242902D02*
X76764285Y-186273854D01*
X76764285Y-186273854D02*
X76795238Y-186304807D01*
X76795238Y-186304807D02*
X76826190Y-186366711D01*
X76826190Y-186366711D02*
X76826190Y-186459569D01*
X76826190Y-186459569D02*
X76795238Y-186521473D01*
X76795238Y-186521473D02*
X76764285Y-186552426D01*
X76764285Y-186552426D02*
X76702380Y-186583378D01*
X76702380Y-186583378D02*
X76454761Y-186583378D01*
X77228571Y-186242902D02*
X77352380Y-186242902D01*
X77352380Y-186242902D02*
X77414285Y-186273854D01*
X77414285Y-186273854D02*
X77476190Y-186335759D01*
X77476190Y-186335759D02*
X77507142Y-186459569D01*
X77507142Y-186459569D02*
X77507142Y-186676235D01*
X77507142Y-186676235D02*
X77476190Y-186800045D01*
X77476190Y-186800045D02*
X77414285Y-186861950D01*
X77414285Y-186861950D02*
X77352380Y-186892902D01*
X77352380Y-186892902D02*
X77228571Y-186892902D01*
X77228571Y-186892902D02*
X77166666Y-186861950D01*
X77166666Y-186861950D02*
X77104761Y-186800045D01*
X77104761Y-186800045D02*
X77073809Y-186676235D01*
X77073809Y-186676235D02*
X77073809Y-186459569D01*
X77073809Y-186459569D02*
X77104761Y-186335759D01*
X77104761Y-186335759D02*
X77166666Y-186273854D01*
X77166666Y-186273854D02*
X77228571Y-186242902D01*
X77723809Y-186242902D02*
X77878571Y-186892902D01*
X77878571Y-186892902D02*
X78002380Y-186428616D01*
X78002380Y-186428616D02*
X78126190Y-186892902D01*
X78126190Y-186892902D02*
X78280952Y-186242902D01*
X78528570Y-186552426D02*
X78745237Y-186552426D01*
X78838094Y-186892902D02*
X78528570Y-186892902D01*
X78528570Y-186892902D02*
X78528570Y-186242902D01*
X78528570Y-186242902D02*
X78838094Y-186242902D01*
X79488094Y-186892902D02*
X79271427Y-186583378D01*
X79116665Y-186892902D02*
X79116665Y-186242902D01*
X79116665Y-186242902D02*
X79364284Y-186242902D01*
X79364284Y-186242902D02*
X79426189Y-186273854D01*
X79426189Y-186273854D02*
X79457142Y-186304807D01*
X79457142Y-186304807D02*
X79488094Y-186366711D01*
X79488094Y-186366711D02*
X79488094Y-186459569D01*
X79488094Y-186459569D02*
X79457142Y-186521473D01*
X79457142Y-186521473D02*
X79426189Y-186552426D01*
X79426189Y-186552426D02*
X79364284Y-186583378D01*
X79364284Y-186583378D02*
X79116665Y-186583378D01*
X80478570Y-186552426D02*
X80571427Y-186583378D01*
X80571427Y-186583378D02*
X80602380Y-186614330D01*
X80602380Y-186614330D02*
X80633332Y-186676235D01*
X80633332Y-186676235D02*
X80633332Y-186769092D01*
X80633332Y-186769092D02*
X80602380Y-186830997D01*
X80602380Y-186830997D02*
X80571427Y-186861950D01*
X80571427Y-186861950D02*
X80509522Y-186892902D01*
X80509522Y-186892902D02*
X80261903Y-186892902D01*
X80261903Y-186892902D02*
X80261903Y-186242902D01*
X80261903Y-186242902D02*
X80478570Y-186242902D01*
X80478570Y-186242902D02*
X80540475Y-186273854D01*
X80540475Y-186273854D02*
X80571427Y-186304807D01*
X80571427Y-186304807D02*
X80602380Y-186366711D01*
X80602380Y-186366711D02*
X80602380Y-186428616D01*
X80602380Y-186428616D02*
X80571427Y-186490521D01*
X80571427Y-186490521D02*
X80540475Y-186521473D01*
X80540475Y-186521473D02*
X80478570Y-186552426D01*
X80478570Y-186552426D02*
X80261903Y-186552426D01*
X81035713Y-186242902D02*
X81159522Y-186242902D01*
X81159522Y-186242902D02*
X81221427Y-186273854D01*
X81221427Y-186273854D02*
X81283332Y-186335759D01*
X81283332Y-186335759D02*
X81314284Y-186459569D01*
X81314284Y-186459569D02*
X81314284Y-186676235D01*
X81314284Y-186676235D02*
X81283332Y-186800045D01*
X81283332Y-186800045D02*
X81221427Y-186861950D01*
X81221427Y-186861950D02*
X81159522Y-186892902D01*
X81159522Y-186892902D02*
X81035713Y-186892902D01*
X81035713Y-186892902D02*
X80973808Y-186861950D01*
X80973808Y-186861950D02*
X80911903Y-186800045D01*
X80911903Y-186800045D02*
X80880951Y-186676235D01*
X80880951Y-186676235D02*
X80880951Y-186459569D01*
X80880951Y-186459569D02*
X80911903Y-186335759D01*
X80911903Y-186335759D02*
X80973808Y-186273854D01*
X80973808Y-186273854D02*
X81035713Y-186242902D01*
X81561903Y-186707188D02*
X81871427Y-186707188D01*
X81499998Y-186892902D02*
X81716665Y-186242902D01*
X81716665Y-186242902D02*
X81933332Y-186892902D01*
X82521427Y-186892902D02*
X82304760Y-186583378D01*
X82149998Y-186892902D02*
X82149998Y-186242902D01*
X82149998Y-186242902D02*
X82397617Y-186242902D01*
X82397617Y-186242902D02*
X82459522Y-186273854D01*
X82459522Y-186273854D02*
X82490475Y-186304807D01*
X82490475Y-186304807D02*
X82521427Y-186366711D01*
X82521427Y-186366711D02*
X82521427Y-186459569D01*
X82521427Y-186459569D02*
X82490475Y-186521473D01*
X82490475Y-186521473D02*
X82459522Y-186552426D01*
X82459522Y-186552426D02*
X82397617Y-186583378D01*
X82397617Y-186583378D02*
X82149998Y-186583378D01*
X82799998Y-186892902D02*
X82799998Y-186242902D01*
X82799998Y-186242902D02*
X82954760Y-186242902D01*
X82954760Y-186242902D02*
X83047617Y-186273854D01*
X83047617Y-186273854D02*
X83109522Y-186335759D01*
X83109522Y-186335759D02*
X83140475Y-186397664D01*
X83140475Y-186397664D02*
X83171427Y-186521473D01*
X83171427Y-186521473D02*
X83171427Y-186614330D01*
X83171427Y-186614330D02*
X83140475Y-186738140D01*
X83140475Y-186738140D02*
X83109522Y-186800045D01*
X83109522Y-186800045D02*
X83047617Y-186861950D01*
X83047617Y-186861950D02*
X82954760Y-186892902D01*
X82954760Y-186892902D02*
X82799998Y-186892902D01*
X84285713Y-186892902D02*
X83914284Y-186892902D01*
X84099998Y-186892902D02*
X84099998Y-186242902D01*
X84099998Y-186242902D02*
X84038094Y-186335759D01*
X84038094Y-186335759D02*
X83976189Y-186397664D01*
X83976189Y-186397664D02*
X83914284Y-186428616D01*
X84595237Y-186892902D02*
X84719046Y-186892902D01*
X84719046Y-186892902D02*
X84780951Y-186861950D01*
X84780951Y-186861950D02*
X84811903Y-186830997D01*
X84811903Y-186830997D02*
X84873808Y-186738140D01*
X84873808Y-186738140D02*
X84904761Y-186614330D01*
X84904761Y-186614330D02*
X84904761Y-186366711D01*
X84904761Y-186366711D02*
X84873808Y-186304807D01*
X84873808Y-186304807D02*
X84842856Y-186273854D01*
X84842856Y-186273854D02*
X84780951Y-186242902D01*
X84780951Y-186242902D02*
X84657142Y-186242902D01*
X84657142Y-186242902D02*
X84595237Y-186273854D01*
X84595237Y-186273854D02*
X84564284Y-186304807D01*
X84564284Y-186304807D02*
X84533332Y-186366711D01*
X84533332Y-186366711D02*
X84533332Y-186521473D01*
X84533332Y-186521473D02*
X84564284Y-186583378D01*
X84564284Y-186583378D02*
X84595237Y-186614330D01*
X84595237Y-186614330D02*
X84657142Y-186645283D01*
X84657142Y-186645283D02*
X84780951Y-186645283D01*
X84780951Y-186645283D02*
X84842856Y-186614330D01*
X84842856Y-186614330D02*
X84873808Y-186583378D01*
X84873808Y-186583378D02*
X84904761Y-186521473D01*
X85616666Y-186892902D02*
X85957142Y-186459569D01*
X85616666Y-186459569D02*
X85957142Y-186892902D01*
X87195237Y-186459569D02*
X86699998Y-186645283D01*
X86699998Y-186645283D02*
X87195237Y-186830997D01*
X87504760Y-186552426D02*
X87999999Y-186552426D01*
X87999999Y-186738140D02*
X87504760Y-186738140D01*
X88588094Y-186242902D02*
X88464284Y-186242902D01*
X88464284Y-186242902D02*
X88402380Y-186273854D01*
X88402380Y-186273854D02*
X88371427Y-186304807D01*
X88371427Y-186304807D02*
X88309522Y-186397664D01*
X88309522Y-186397664D02*
X88278570Y-186521473D01*
X88278570Y-186521473D02*
X88278570Y-186769092D01*
X88278570Y-186769092D02*
X88309522Y-186830997D01*
X88309522Y-186830997D02*
X88340475Y-186861950D01*
X88340475Y-186861950D02*
X88402380Y-186892902D01*
X88402380Y-186892902D02*
X88526189Y-186892902D01*
X88526189Y-186892902D02*
X88588094Y-186861950D01*
X88588094Y-186861950D02*
X88619046Y-186830997D01*
X88619046Y-186830997D02*
X88649999Y-186769092D01*
X88649999Y-186769092D02*
X88649999Y-186614330D01*
X88649999Y-186614330D02*
X88619046Y-186552426D01*
X88619046Y-186552426D02*
X88588094Y-186521473D01*
X88588094Y-186521473D02*
X88526189Y-186490521D01*
X88526189Y-186490521D02*
X88402380Y-186490521D01*
X88402380Y-186490521D02*
X88340475Y-186521473D01*
X88340475Y-186521473D02*
X88309522Y-186552426D01*
X88309522Y-186552426D02*
X88278570Y-186614330D01*
X89238094Y-186242902D02*
X88928570Y-186242902D01*
X88928570Y-186242902D02*
X88897618Y-186552426D01*
X88897618Y-186552426D02*
X88928570Y-186521473D01*
X88928570Y-186521473D02*
X88990475Y-186490521D01*
X88990475Y-186490521D02*
X89145237Y-186490521D01*
X89145237Y-186490521D02*
X89207142Y-186521473D01*
X89207142Y-186521473D02*
X89238094Y-186552426D01*
X89238094Y-186552426D02*
X89269047Y-186614330D01*
X89269047Y-186614330D02*
X89269047Y-186769092D01*
X89269047Y-186769092D02*
X89238094Y-186830997D01*
X89238094Y-186830997D02*
X89207142Y-186861950D01*
X89207142Y-186861950D02*
X89145237Y-186892902D01*
X89145237Y-186892902D02*
X88990475Y-186892902D01*
X88990475Y-186892902D02*
X88928570Y-186861950D01*
X88928570Y-186861950D02*
X88897618Y-186830997D01*
X90042856Y-186892902D02*
X90042856Y-186459569D01*
X90042856Y-186521473D02*
X90073809Y-186490521D01*
X90073809Y-186490521D02*
X90135714Y-186459569D01*
X90135714Y-186459569D02*
X90228571Y-186459569D01*
X90228571Y-186459569D02*
X90290475Y-186490521D01*
X90290475Y-186490521D02*
X90321428Y-186552426D01*
X90321428Y-186552426D02*
X90321428Y-186892902D01*
X90321428Y-186552426D02*
X90352380Y-186490521D01*
X90352380Y-186490521D02*
X90414285Y-186459569D01*
X90414285Y-186459569D02*
X90507142Y-186459569D01*
X90507142Y-186459569D02*
X90569047Y-186490521D01*
X90569047Y-186490521D02*
X90599999Y-186552426D01*
X90599999Y-186552426D02*
X90599999Y-186892902D01*
X90909523Y-186892902D02*
X90909523Y-186459569D01*
X90909523Y-186521473D02*
X90940476Y-186490521D01*
X90940476Y-186490521D02*
X91002381Y-186459569D01*
X91002381Y-186459569D02*
X91095238Y-186459569D01*
X91095238Y-186459569D02*
X91157142Y-186490521D01*
X91157142Y-186490521D02*
X91188095Y-186552426D01*
X91188095Y-186552426D02*
X91188095Y-186892902D01*
X91188095Y-186552426D02*
X91219047Y-186490521D01*
X91219047Y-186490521D02*
X91280952Y-186459569D01*
X91280952Y-186459569D02*
X91373809Y-186459569D01*
X91373809Y-186459569D02*
X91435714Y-186490521D01*
X91435714Y-186490521D02*
X91466666Y-186552426D01*
X91466666Y-186552426D02*
X91466666Y-186892902D01*
X122445237Y-155752426D02*
X122661904Y-155752426D01*
X122754761Y-156092902D02*
X122445237Y-156092902D01*
X122445237Y-156092902D02*
X122445237Y-155442902D01*
X122445237Y-155442902D02*
X122754761Y-155442902D01*
X123002380Y-156061950D02*
X123095237Y-156092902D01*
X123095237Y-156092902D02*
X123249999Y-156092902D01*
X123249999Y-156092902D02*
X123311904Y-156061950D01*
X123311904Y-156061950D02*
X123342856Y-156030997D01*
X123342856Y-156030997D02*
X123373809Y-155969092D01*
X123373809Y-155969092D02*
X123373809Y-155907188D01*
X123373809Y-155907188D02*
X123342856Y-155845283D01*
X123342856Y-155845283D02*
X123311904Y-155814330D01*
X123311904Y-155814330D02*
X123249999Y-155783378D01*
X123249999Y-155783378D02*
X123126190Y-155752426D01*
X123126190Y-155752426D02*
X123064285Y-155721473D01*
X123064285Y-155721473D02*
X123033332Y-155690521D01*
X123033332Y-155690521D02*
X123002380Y-155628616D01*
X123002380Y-155628616D02*
X123002380Y-155566711D01*
X123002380Y-155566711D02*
X123033332Y-155504807D01*
X123033332Y-155504807D02*
X123064285Y-155473854D01*
X123064285Y-155473854D02*
X123126190Y-155442902D01*
X123126190Y-155442902D02*
X123280951Y-155442902D01*
X123280951Y-155442902D02*
X123373809Y-155473854D01*
X123652380Y-156092902D02*
X123652380Y-155442902D01*
X123652380Y-155442902D02*
X123899999Y-155442902D01*
X123899999Y-155442902D02*
X123961904Y-155473854D01*
X123961904Y-155473854D02*
X123992857Y-155504807D01*
X123992857Y-155504807D02*
X124023809Y-155566711D01*
X124023809Y-155566711D02*
X124023809Y-155659569D01*
X124023809Y-155659569D02*
X123992857Y-155721473D01*
X123992857Y-155721473D02*
X123961904Y-155752426D01*
X123961904Y-155752426D02*
X123899999Y-155783378D01*
X123899999Y-155783378D02*
X123652380Y-155783378D01*
X125261904Y-155411950D02*
X124704761Y-156247664D01*
X125973808Y-156092902D02*
X125973808Y-155442902D01*
X126283332Y-156092902D02*
X126283332Y-155442902D01*
X126283332Y-155442902D02*
X126654761Y-156092902D01*
X126654761Y-156092902D02*
X126654761Y-155442902D01*
X126871427Y-155442902D02*
X127242856Y-155442902D01*
X127057142Y-156092902D02*
X127057142Y-155442902D01*
X127459522Y-155752426D02*
X127676189Y-155752426D01*
X127769046Y-156092902D02*
X127459522Y-156092902D01*
X127459522Y-156092902D02*
X127459522Y-155442902D01*
X127459522Y-155442902D02*
X127769046Y-155442902D01*
X128419046Y-156092902D02*
X128202379Y-155783378D01*
X128047617Y-156092902D02*
X128047617Y-155442902D01*
X128047617Y-155442902D02*
X128295236Y-155442902D01*
X128295236Y-155442902D02*
X128357141Y-155473854D01*
X128357141Y-155473854D02*
X128388094Y-155504807D01*
X128388094Y-155504807D02*
X128419046Y-155566711D01*
X128419046Y-155566711D02*
X128419046Y-155659569D01*
X128419046Y-155659569D02*
X128388094Y-155721473D01*
X128388094Y-155721473D02*
X128357141Y-155752426D01*
X128357141Y-155752426D02*
X128295236Y-155783378D01*
X128295236Y-155783378D02*
X128047617Y-155783378D01*
X128914284Y-155752426D02*
X128697617Y-155752426D01*
X128697617Y-156092902D02*
X128697617Y-155442902D01*
X128697617Y-155442902D02*
X129007141Y-155442902D01*
X129223808Y-155907188D02*
X129533332Y-155907188D01*
X129161903Y-156092902D02*
X129378570Y-155442902D01*
X129378570Y-155442902D02*
X129595237Y-156092902D01*
X130183332Y-156030997D02*
X130152380Y-156061950D01*
X130152380Y-156061950D02*
X130059522Y-156092902D01*
X130059522Y-156092902D02*
X129997618Y-156092902D01*
X129997618Y-156092902D02*
X129904761Y-156061950D01*
X129904761Y-156061950D02*
X129842856Y-156000045D01*
X129842856Y-156000045D02*
X129811903Y-155938140D01*
X129811903Y-155938140D02*
X129780951Y-155814330D01*
X129780951Y-155814330D02*
X129780951Y-155721473D01*
X129780951Y-155721473D02*
X129811903Y-155597664D01*
X129811903Y-155597664D02*
X129842856Y-155535759D01*
X129842856Y-155535759D02*
X129904761Y-155473854D01*
X129904761Y-155473854D02*
X129997618Y-155442902D01*
X129997618Y-155442902D02*
X130059522Y-155442902D01*
X130059522Y-155442902D02*
X130152380Y-155473854D01*
X130152380Y-155473854D02*
X130183332Y-155504807D01*
X130461903Y-155752426D02*
X130678570Y-155752426D01*
X130771427Y-156092902D02*
X130461903Y-156092902D01*
X130461903Y-156092902D02*
X130461903Y-155442902D01*
X130461903Y-155442902D02*
X130771427Y-155442902D01*
X131761903Y-155752426D02*
X131854760Y-155783378D01*
X131854760Y-155783378D02*
X131885713Y-155814330D01*
X131885713Y-155814330D02*
X131916665Y-155876235D01*
X131916665Y-155876235D02*
X131916665Y-155969092D01*
X131916665Y-155969092D02*
X131885713Y-156030997D01*
X131885713Y-156030997D02*
X131854760Y-156061950D01*
X131854760Y-156061950D02*
X131792855Y-156092902D01*
X131792855Y-156092902D02*
X131545236Y-156092902D01*
X131545236Y-156092902D02*
X131545236Y-155442902D01*
X131545236Y-155442902D02*
X131761903Y-155442902D01*
X131761903Y-155442902D02*
X131823808Y-155473854D01*
X131823808Y-155473854D02*
X131854760Y-155504807D01*
X131854760Y-155504807D02*
X131885713Y-155566711D01*
X131885713Y-155566711D02*
X131885713Y-155628616D01*
X131885713Y-155628616D02*
X131854760Y-155690521D01*
X131854760Y-155690521D02*
X131823808Y-155721473D01*
X131823808Y-155721473D02*
X131761903Y-155752426D01*
X131761903Y-155752426D02*
X131545236Y-155752426D01*
X132319046Y-155442902D02*
X132442855Y-155442902D01*
X132442855Y-155442902D02*
X132504760Y-155473854D01*
X132504760Y-155473854D02*
X132566665Y-155535759D01*
X132566665Y-155535759D02*
X132597617Y-155659569D01*
X132597617Y-155659569D02*
X132597617Y-155876235D01*
X132597617Y-155876235D02*
X132566665Y-156000045D01*
X132566665Y-156000045D02*
X132504760Y-156061950D01*
X132504760Y-156061950D02*
X132442855Y-156092902D01*
X132442855Y-156092902D02*
X132319046Y-156092902D01*
X132319046Y-156092902D02*
X132257141Y-156061950D01*
X132257141Y-156061950D02*
X132195236Y-156000045D01*
X132195236Y-156000045D02*
X132164284Y-155876235D01*
X132164284Y-155876235D02*
X132164284Y-155659569D01*
X132164284Y-155659569D02*
X132195236Y-155535759D01*
X132195236Y-155535759D02*
X132257141Y-155473854D01*
X132257141Y-155473854D02*
X132319046Y-155442902D01*
X132845236Y-155907188D02*
X133154760Y-155907188D01*
X132783331Y-156092902D02*
X132999998Y-155442902D01*
X132999998Y-155442902D02*
X133216665Y-156092902D01*
X133804760Y-156092902D02*
X133588093Y-155783378D01*
X133433331Y-156092902D02*
X133433331Y-155442902D01*
X133433331Y-155442902D02*
X133680950Y-155442902D01*
X133680950Y-155442902D02*
X133742855Y-155473854D01*
X133742855Y-155473854D02*
X133773808Y-155504807D01*
X133773808Y-155504807D02*
X133804760Y-155566711D01*
X133804760Y-155566711D02*
X133804760Y-155659569D01*
X133804760Y-155659569D02*
X133773808Y-155721473D01*
X133773808Y-155721473D02*
X133742855Y-155752426D01*
X133742855Y-155752426D02*
X133680950Y-155783378D01*
X133680950Y-155783378D02*
X133433331Y-155783378D01*
X134083331Y-156092902D02*
X134083331Y-155442902D01*
X134083331Y-155442902D02*
X134238093Y-155442902D01*
X134238093Y-155442902D02*
X134330950Y-155473854D01*
X134330950Y-155473854D02*
X134392855Y-155535759D01*
X134392855Y-155535759D02*
X134423808Y-155597664D01*
X134423808Y-155597664D02*
X134454760Y-155721473D01*
X134454760Y-155721473D02*
X134454760Y-155814330D01*
X134454760Y-155814330D02*
X134423808Y-155938140D01*
X134423808Y-155938140D02*
X134392855Y-156000045D01*
X134392855Y-156000045D02*
X134330950Y-156061950D01*
X134330950Y-156061950D02*
X134238093Y-156092902D01*
X134238093Y-156092902D02*
X134083331Y-156092902D01*
X135507141Y-155659569D02*
X135507141Y-156092902D01*
X135352379Y-155411950D02*
X135197617Y-155876235D01*
X135197617Y-155876235D02*
X135599998Y-155876235D01*
X136126189Y-155442902D02*
X136002379Y-155442902D01*
X136002379Y-155442902D02*
X135940475Y-155473854D01*
X135940475Y-155473854D02*
X135909522Y-155504807D01*
X135909522Y-155504807D02*
X135847617Y-155597664D01*
X135847617Y-155597664D02*
X135816665Y-155721473D01*
X135816665Y-155721473D02*
X135816665Y-155969092D01*
X135816665Y-155969092D02*
X135847617Y-156030997D01*
X135847617Y-156030997D02*
X135878570Y-156061950D01*
X135878570Y-156061950D02*
X135940475Y-156092902D01*
X135940475Y-156092902D02*
X136064284Y-156092902D01*
X136064284Y-156092902D02*
X136126189Y-156061950D01*
X136126189Y-156061950D02*
X136157141Y-156030997D01*
X136157141Y-156030997D02*
X136188094Y-155969092D01*
X136188094Y-155969092D02*
X136188094Y-155814330D01*
X136188094Y-155814330D02*
X136157141Y-155752426D01*
X136157141Y-155752426D02*
X136126189Y-155721473D01*
X136126189Y-155721473D02*
X136064284Y-155690521D01*
X136064284Y-155690521D02*
X135940475Y-155690521D01*
X135940475Y-155690521D02*
X135878570Y-155721473D01*
X135878570Y-155721473D02*
X135847617Y-155752426D01*
X135847617Y-155752426D02*
X135816665Y-155814330D01*
X136899999Y-156092902D02*
X137240475Y-155659569D01*
X136899999Y-155659569D02*
X137240475Y-156092902D01*
X137921427Y-155442902D02*
X138323808Y-155442902D01*
X138323808Y-155442902D02*
X138107141Y-155690521D01*
X138107141Y-155690521D02*
X138199998Y-155690521D01*
X138199998Y-155690521D02*
X138261903Y-155721473D01*
X138261903Y-155721473D02*
X138292855Y-155752426D01*
X138292855Y-155752426D02*
X138323808Y-155814330D01*
X138323808Y-155814330D02*
X138323808Y-155969092D01*
X138323808Y-155969092D02*
X138292855Y-156030997D01*
X138292855Y-156030997D02*
X138261903Y-156061950D01*
X138261903Y-156061950D02*
X138199998Y-156092902D01*
X138199998Y-156092902D02*
X138014284Y-156092902D01*
X138014284Y-156092902D02*
X137952379Y-156061950D01*
X137952379Y-156061950D02*
X137921427Y-156030997D01*
X138571427Y-155504807D02*
X138602379Y-155473854D01*
X138602379Y-155473854D02*
X138664284Y-155442902D01*
X138664284Y-155442902D02*
X138819046Y-155442902D01*
X138819046Y-155442902D02*
X138880951Y-155473854D01*
X138880951Y-155473854D02*
X138911903Y-155504807D01*
X138911903Y-155504807D02*
X138942856Y-155566711D01*
X138942856Y-155566711D02*
X138942856Y-155628616D01*
X138942856Y-155628616D02*
X138911903Y-155721473D01*
X138911903Y-155721473D02*
X138540475Y-156092902D01*
X138540475Y-156092902D02*
X138942856Y-156092902D01*
X139716665Y-156092902D02*
X139716665Y-155659569D01*
X139716665Y-155721473D02*
X139747618Y-155690521D01*
X139747618Y-155690521D02*
X139809523Y-155659569D01*
X139809523Y-155659569D02*
X139902380Y-155659569D01*
X139902380Y-155659569D02*
X139964284Y-155690521D01*
X139964284Y-155690521D02*
X139995237Y-155752426D01*
X139995237Y-155752426D02*
X139995237Y-156092902D01*
X139995237Y-155752426D02*
X140026189Y-155690521D01*
X140026189Y-155690521D02*
X140088094Y-155659569D01*
X140088094Y-155659569D02*
X140180951Y-155659569D01*
X140180951Y-155659569D02*
X140242856Y-155690521D01*
X140242856Y-155690521D02*
X140273808Y-155752426D01*
X140273808Y-155752426D02*
X140273808Y-156092902D01*
X140583332Y-156092902D02*
X140583332Y-155659569D01*
X140583332Y-155721473D02*
X140614285Y-155690521D01*
X140614285Y-155690521D02*
X140676190Y-155659569D01*
X140676190Y-155659569D02*
X140769047Y-155659569D01*
X140769047Y-155659569D02*
X140830951Y-155690521D01*
X140830951Y-155690521D02*
X140861904Y-155752426D01*
X140861904Y-155752426D02*
X140861904Y-156092902D01*
X140861904Y-155752426D02*
X140892856Y-155690521D01*
X140892856Y-155690521D02*
X140954761Y-155659569D01*
X140954761Y-155659569D02*
X141047618Y-155659569D01*
X141047618Y-155659569D02*
X141109523Y-155690521D01*
X141109523Y-155690521D02*
X141140475Y-155752426D01*
X141140475Y-155752426D02*
X141140475Y-156092902D01*
X141945237Y-156092902D02*
X141945237Y-155442902D01*
X141945237Y-155442902D02*
X142161904Y-155907188D01*
X142161904Y-155907188D02*
X142378571Y-155442902D01*
X142378571Y-155442902D02*
X142378571Y-156092902D01*
X142657142Y-155907188D02*
X142966666Y-155907188D01*
X142595237Y-156092902D02*
X142811904Y-155442902D01*
X142811904Y-155442902D02*
X143028571Y-156092902D01*
X143183333Y-155442902D02*
X143616666Y-156092902D01*
X143616666Y-155442902D02*
X143183333Y-156092902D01*
M02*
