M48
; DRILL file KiCad 10.0.6-rc2 date 2026-08-24T12:59:57
; FORMAT={-:-/ absolute / metric / decimal}
; #@! TF.CreationDate,2026-08-24T12:59:57+02:00
; #@! TF.GenerationSoftware,Kicad,Pcbnew,10.0.6-rc2
; #@! TF.FileFunction,MixedPlating,1,4
FMAT,2
METRIC
; #@! TA.AperFunction,Plated,PTH,ViaDrill
T1C0.300
; #@! TA.AperFunction,Plated,PTH,ViaDrill
T2C0.400
; #@! TA.AperFunction,Plated,PTH,ComponentDrill
T3C0.600
; #@! TA.AperFunction,Plated,PTH,ComponentDrill
T4C0.750
; #@! TA.AperFunction,NonPlated,NPTH,ComponentDrill
T5C0.650
; #@! TA.AperFunction,NonPlated,NPTH,ComponentDrill
T6C1.000
; #@! TA.AperFunction,NonPlated,NPTH,ComponentDrill
T7C1.500
; #@! TA.AperFunction,NonPlated,NPTH,ComponentDrill
T8C2.000
%
G90
G05
T1
X75.9Y-150.35
X75.9Y-152.1
X75.95Y-157.85
X76.5Y-144.0
X76.5Y-147.0
X76.5Y-159.0
X76.5Y-162.0
X76.9Y-153.2
X76.9Y-155.3
X77.25Y-145.5
X77.25Y-160.5
X77.8Y-152.1
X78.0Y-144.0
X78.0Y-147.0
X78.0Y-159.0
X78.0Y-162.0
X78.75Y-145.5
X78.8Y-131.05
X79.5Y-144.0
X79.5Y-147.0
X80.25Y-145.5
X80.96Y-131.9
X81.13Y-181.18
X82.26Y-130.89
X82.4Y-144.75
X82.5Y-146.8
X83.55Y-131.05
X84.85Y-146.5
X85.9Y-147.65
X86.05Y-146.5
X86.6Y-124.1
X88.45Y-156.1
X88.45Y-158.5
X88.45Y-160.9
X89.05Y-155.5
X89.05Y-157.3
X89.05Y-159.7
X89.65Y-151.3
X89.65Y-153.7
X89.65Y-156.1
X89.65Y-158.5
X89.65Y-160.9
X89.85Y-124.25
X90.25Y-147.7
X90.25Y-150.1
X90.25Y-152.5
X90.25Y-154.9
X90.25Y-157.3
X90.25Y-159.7
X90.85Y-146.5
X90.85Y-148.9
X90.85Y-151.3
X90.85Y-153.7
X90.85Y-156.1
X90.85Y-158.5
X90.85Y-160.9
X111.0Y-141.0
X111.0Y-147.0
X111.3Y-151.6
X111.3Y-154.2
X111.75Y-136.5
X111.75Y-142.5
X111.75Y-145.5
X111.75Y-148.5
X111.95Y-155.5
X112.5Y-141.0
X112.5Y-147.0
X113.25Y-142.5
X113.25Y-145.5
X113.25Y-155.5
X113.975Y-136.495
X114.0Y-141.0
X114.0Y-147.0
X114.55Y-155.5
X114.75Y-142.5
X114.823Y-140.002
X115.2Y-151.6
X115.5Y-141.0
X115.85Y-152.9
X115.85Y-155.5
X116.25Y-142.5
X116.825Y-139.745
X117.0Y-141.0
X117.075Y-136.795
X117.15Y-152.9
X117.15Y-155.5
X117.75Y-142.5
X117.8Y-151.6
X118.32Y-143.78
X118.45Y-152.9
X118.45Y-155.5
X118.5Y-132.0
X118.5Y-141.0
X119.25Y-130.5
X119.25Y-133.5
X119.25Y-142.5
X119.75Y-152.9
X119.75Y-155.5
X120.0Y-132.0
X120.0Y-141.0
X120.75Y-133.5
X120.75Y-142.5
X120.75Y-145.5
X120.77Y-147.0
X121.05Y-152.9
X121.05Y-155.5
X121.29Y-149.344
X121.5Y-132.0
X121.5Y-141.0
X122.25Y-133.5
X122.25Y-139.5
X122.25Y-142.5
X122.35Y-155.5
X123.0Y-144.0
X123.65Y-155.5
X124.95Y-155.5
X127.01Y-151.02
X127.55Y-155.5
X128.85Y-155.5
X130.15Y-155.5
X130.8Y-151.6
X131.45Y-150.3
X131.45Y-152.9
X131.45Y-155.5
X131.92Y-138.31
X132.07Y-136.76
X132.1Y-151.6
X132.1Y-154.2
X132.4Y-135.12
X132.75Y-150.3
X132.75Y-152.9
X132.75Y-155.5
X133.218Y-140.34
X133.4Y-151.6
X133.4Y-154.2
X134.05Y-150.3
X134.05Y-152.9
X134.05Y-155.5
X134.7Y-151.6
X134.7Y-154.2
X135.35Y-150.3
X135.35Y-152.9
X135.35Y-155.5
X135.6Y-138.54
X135.85Y-133.77
X136.0Y-151.6
X136.0Y-154.2
X136.65Y-150.3
X136.65Y-152.9
X136.65Y-155.5
X136.681Y-140.775
X137.3Y-151.6
X137.581Y-138.9
X137.7Y-132.98
X137.72Y-133.81
X137.75Y-135.575
X137.95Y-152.9
X138.49Y-132.96
X138.5Y-133.81
X138.6Y-151.6
X138.834Y-140.278
X139.25Y-152.9
X139.506Y-133.2
X139.506Y-135.35
X139.506Y-137.3
X139.729Y-138.975
X139.9Y-151.6
X140.244Y-142.406
X140.55Y-152.9
X141.211Y-142.137
X141.606Y-133.2
X141.606Y-135.35
X141.606Y-137.3
X141.606Y-139.4
X142.422Y-145.789
X143.06Y-143.32
X143.097Y-142.22
X143.556Y-133.2
X143.556Y-135.35
X143.556Y-137.3
X143.556Y-139.35
X143.7Y-146.12
X144.72Y-143.92
X144.74Y-149.38
X145.53Y-142.55
X145.706Y-133.2
X145.706Y-135.35
X145.706Y-137.3
X145.706Y-139.35
X145.9Y-148.56
X147.6Y-139.55
X148.6Y-145.65
X149.985Y-141.254
X151.9Y-139.34
T2
X127.32Y-141.8
X127.48Y-148.01
X130.24Y-141.91
X133.42Y-148.0
X138.35Y-147.59
X139.46Y-150.73
X140.065Y-144.479
X142.39Y-150.83
X154.66Y-135.31
T4
X77.16Y-185.94
X79.16Y-185.94
X81.16Y-185.94
X83.16Y-185.94
X85.16Y-185.94
X87.16Y-185.94
X112.46Y-153.99
X114.46Y-153.99
X125.368Y-133.17
X125.368Y-135.17
X138.23Y-154.66
X140.23Y-154.66
X142.23Y-154.66
X144.23Y-154.66
X146.23Y-154.66
X148.23Y-154.66
X153.64Y-136.68
X153.64Y-138.68
X153.98Y-146.58
X153.98Y-148.58
X153.98Y-150.58
X153.98Y-152.58
X153.98Y-154.58
T5
X78.26Y-128.51
X84.04Y-128.51
T6
X90.15Y-136.2
T7
X75.15Y-136.7
T8
X82.15Y-136.9
X89.65Y-132.2
T3
X76.83Y-124.43G85X76.83Y-125.23
G05
X76.83Y-128.46G85X76.83Y-129.56
G05
X85.47Y-124.43G85X85.47Y-125.23
G05
X85.47Y-128.46G85X85.47Y-129.56
G05
M30
