G04 #@! TF.GenerationSoftware,KiCad,Pcbnew,10.0.6-rc2*
G04 #@! TF.CreationDate,2026-08-24T12:59:33+02:00*
G04 #@! TF.ProjectId,unni-usb-power,756e6e69-2d75-4736-922d-706f7765722e,rev?*
G04 #@! TF.SameCoordinates,Original*
G04 #@! TF.FileFunction,Legend,Bot*
G04 #@! TF.FilePolarity,Positive*
%FSLAX46Y46*%
G04 Gerber Fmt 4.6, Leading zero omitted, Abs format (unit mm)*
G04 Created by KiCad (PCBNEW 10.0.6-rc2) date 2026-08-24 12:59:33*
%MOMM*%
%LPD*%
G01*
G04 APERTURE LIST*
%ADD10C,0.100000*%
%ADD11C,0.120000*%
%ADD12C,0.127000*%
%ADD13C,0.200000*%
G04 APERTURE END LIST*
D10*
X90883332Y-124614895D02*
X91149999Y-124233942D01*
X91340475Y-124614895D02*
X91340475Y-123814895D01*
X91340475Y-123814895D02*
X91035713Y-123814895D01*
X91035713Y-123814895D02*
X90959523Y-123852990D01*
X90959523Y-123852990D02*
X90921428Y-123891085D01*
X90921428Y-123891085D02*
X90883332Y-123967276D01*
X90883332Y-123967276D02*
X90883332Y-124081561D01*
X90883332Y-124081561D02*
X90921428Y-124157752D01*
X90921428Y-124157752D02*
X90959523Y-124195847D01*
X90959523Y-124195847D02*
X91035713Y-124233942D01*
X91035713Y-124233942D02*
X91340475Y-124233942D01*
X90578571Y-123891085D02*
X90540475Y-123852990D01*
X90540475Y-123852990D02*
X90464285Y-123814895D01*
X90464285Y-123814895D02*
X90273809Y-123814895D01*
X90273809Y-123814895D02*
X90197618Y-123852990D01*
X90197618Y-123852990D02*
X90159523Y-123891085D01*
X90159523Y-123891085D02*
X90121428Y-123967276D01*
X90121428Y-123967276D02*
X90121428Y-124043466D01*
X90121428Y-124043466D02*
X90159523Y-124157752D01*
X90159523Y-124157752D02*
X90616666Y-124614895D01*
X90616666Y-124614895D02*
X90121428Y-124614895D01*
X75566666Y-129524895D02*
X75566666Y-130096323D01*
X75566666Y-130096323D02*
X75604761Y-130210609D01*
X75604761Y-130210609D02*
X75680952Y-130286800D01*
X75680952Y-130286800D02*
X75795237Y-130324895D01*
X75795237Y-130324895D02*
X75871428Y-130324895D01*
X74766666Y-130324895D02*
X75223809Y-130324895D01*
X74995237Y-130324895D02*
X74995237Y-129524895D01*
X74995237Y-129524895D02*
X75071428Y-129639180D01*
X75071428Y-129639180D02*
X75147618Y-129715371D01*
X75147618Y-129715371D02*
X75223809Y-129753466D01*
X76689523Y-131294895D02*
X76689523Y-131942514D01*
X76689523Y-131942514D02*
X76651428Y-132018704D01*
X76651428Y-132018704D02*
X76613333Y-132056800D01*
X76613333Y-132056800D02*
X76537142Y-132094895D01*
X76537142Y-132094895D02*
X76384761Y-132094895D01*
X76384761Y-132094895D02*
X76308571Y-132056800D01*
X76308571Y-132056800D02*
X76270476Y-132018704D01*
X76270476Y-132018704D02*
X76232380Y-131942514D01*
X76232380Y-131942514D02*
X76232380Y-131294895D01*
X75508571Y-131561561D02*
X75508571Y-132094895D01*
X75699047Y-131256800D02*
X75889524Y-131828228D01*
X75889524Y-131828228D02*
X75394285Y-131828228D01*
X87033332Y-128164895D02*
X87299999Y-127783942D01*
X87490475Y-128164895D02*
X87490475Y-127364895D01*
X87490475Y-127364895D02*
X87185713Y-127364895D01*
X87185713Y-127364895D02*
X87109523Y-127402990D01*
X87109523Y-127402990D02*
X87071428Y-127441085D01*
X87071428Y-127441085D02*
X87033332Y-127517276D01*
X87033332Y-127517276D02*
X87033332Y-127631561D01*
X87033332Y-127631561D02*
X87071428Y-127707752D01*
X87071428Y-127707752D02*
X87109523Y-127745847D01*
X87109523Y-127745847D02*
X87185713Y-127783942D01*
X87185713Y-127783942D02*
X87490475Y-127783942D01*
X86271428Y-128164895D02*
X86728571Y-128164895D01*
X86499999Y-128164895D02*
X86499999Y-127364895D01*
X86499999Y-127364895D02*
X86576190Y-127479180D01*
X86576190Y-127479180D02*
X86652380Y-127555371D01*
X86652380Y-127555371D02*
X86728571Y-127593466D01*
D11*
X89165000Y-126877064D02*
X89165000Y-126422936D01*
X90635000Y-126877064D02*
X90635000Y-126422936D01*
D12*
X76680000Y-123580000D02*
X76680000Y-122230000D01*
X76680000Y-127580000D02*
X76680000Y-126080000D01*
X85620000Y-123580000D02*
X85620000Y-122230000D01*
X85620000Y-127580000D02*
X85620000Y-126080000D01*
D13*
X78050000Y-130730000D02*
G75*
G02*
X77850000Y-130730000I-100000J0D01*
G01*
X77850000Y-130730000D02*
G75*
G02*
X78050000Y-130730000I100000J0D01*
G01*
D11*
X77400000Y-131650000D02*
X77400000Y-132580000D01*
X77400000Y-134810000D02*
X77400000Y-133880000D01*
X77400000Y-134810000D02*
X78860000Y-134810000D01*
X78200000Y-131650000D02*
X77400000Y-131650000D01*
X78200000Y-131650000D02*
X79000000Y-131650000D01*
X79500000Y-131620000D02*
X79740000Y-131290000D01*
X79260000Y-131290000D01*
X79500000Y-131620000D01*
G36*
X79500000Y-131620000D02*
G01*
X79260000Y-131290000D01*
X79740000Y-131290000D01*
X79500000Y-131620000D01*
G37*
X87115000Y-125877064D02*
X87115000Y-125422936D01*
X88585000Y-125877064D02*
X88585000Y-125422936D01*
M02*
