M48
; DRILL file KiCad 10.0.6-rc2 date 2026-08-25T12:55:29
; FORMAT={-:-/ absolute / metric / decimal}
; #@! TF.CreationDate,2026-08-25T12:55:29+02:00
; #@! TF.GenerationSoftware,Kicad,Pcbnew,10.0.6-rc2
; #@! TF.FileFunction,Plated,1,4,PTH
FMAT,2
METRIC
; #@! TA.AperFunction,Plated,PTH,ViaDrill
T1C0.300
; #@! TA.AperFunction,Plated,PTH,ComponentDrill
T2C0.600
; #@! TA.AperFunction,Plated,PTH,ComponentDrill
T3C0.750
%
G90
G05
T1
X75.75Y-148.5
X75.9Y-150.35
X75.9Y-152.1
X75.95Y-157.85
X76.5Y-147.0
X76.5Y-159.0
X76.5Y-162.0
X76.9Y-153.2
X76.9Y-155.3
X77.25Y-145.5
X77.25Y-160.5
X77.8Y-152.1
X78.0Y-144.0
X78.0Y-147.0
X78.0Y-159.0
X78.0Y-162.0
X78.75Y-145.5
X78.8Y-131.05
X79.5Y-144.0
X79.5Y-147.0
X80.25Y-145.5
X80.96Y-131.9
X81.13Y-181.18
X82.26Y-130.89
X83.55Y-131.05
X84.7Y-135.8
X84.7Y-138.6
X84.7Y-141.4
X84.7Y-144.2
X85.4Y-137.2
X86.1Y-135.8
X86.1Y-138.6
T3
X77.16Y-185.94
X79.16Y-185.94
X81.16Y-185.94
X83.16Y-185.94
X85.16Y-185.94
X87.16Y-185.94
T2
X76.83Y-124.43G85X76.83Y-125.23
G05
X76.83Y-128.46G85X76.83Y-129.56
G05
X85.47Y-124.43G85X85.47Y-125.23
G05
X85.47Y-128.46G85X85.47Y-129.56
G05
M30
