G04 #@! TF.GenerationSoftware,KiCad,Pcbnew,10.0.6-rc2*
G04 #@! TF.CreationDate,2026-08-25T12:55:28+02:00*
G04 #@! TF.ProjectId,unni-usb-power,756e6e69-2d75-4736-922d-706f7765722e,rev?*
G04 #@! TF.SameCoordinates,Original*
G04 #@! TF.FileFunction,Copper,L4,Bot*
G04 #@! TF.FilePolarity,Positive*
%FSLAX46Y46*%
G04 Gerber Fmt 4.6, Leading zero omitted, Abs format (unit mm)*
G04 Created by KiCad (PCBNEW 10.0.6-rc2) date 2026-08-25 12:55:28*
%MOMM*%
%LPD*%
G01*
G04 APERTURE LIST*
G04 Aperture macros list*
%AMRoundRect*
0 Rectangle with rounded corners*
0 $1 Rounding radius*
0 $2 $3 $4 $5 $6 $7 $8 $9 X,Y pos of 4 corners*
0 Add a 4 corners polygon primitive as box body*
4,1,4,$2,$3,$4,$5,$6,$7,$8,$9,$2,$3,0*
0 Add four circle primitives for the rounded corners*
1,1,$1+$1,$2,$3*
1,1,$1+$1,$4,$5*
1,1,$1+$1,$6,$7*
1,1,$1+$1,$8,$9*
0 Add four rect primitives between the rounded corners*
20,1,$1+$1,$2,$3,$4,$5,0*
20,1,$1+$1,$4,$5,$6,$7,0*
20,1,$1+$1,$6,$7,$8,$9,0*
20,1,$1+$1,$8,$9,$2,$3,0*%
G04 Aperture macros list end*
G04 #@! TA.AperFunction,ComponentPad*
%ADD10RoundRect,0.250000X0.350000X0.625000X-0.350000X0.625000X-0.350000X-0.625000X0.350000X-0.625000X0*%
G04 #@! TD*
G04 #@! TA.AperFunction,ComponentPad*
%ADD11O,1.200000X1.750000*%
G04 #@! TD*
G04 #@! TA.AperFunction,SMDPad,CuDef*
%ADD12RoundRect,0.250000X0.450000X-0.350000X0.450000X0.350000X-0.450000X0.350000X-0.450000X-0.350000X0*%
G04 #@! TD*
G04 #@! TA.AperFunction,SMDPad,CuDef*
%ADD13R,0.600000X1.150000*%
G04 #@! TD*
G04 #@! TA.AperFunction,SMDPad,CuDef*
%ADD14R,0.300000X1.150000*%
G04 #@! TD*
G04 #@! TA.AperFunction,ComponentPad*
%ADD15O,1.000000X2.100000*%
G04 #@! TD*
G04 #@! TA.AperFunction,ComponentPad*
%ADD16O,1.000000X1.800000*%
G04 #@! TD*
G04 #@! TA.AperFunction,SMDPad,CuDef*
%ADD17RoundRect,0.200000X0.750000X0.200000X-0.750000X0.200000X-0.750000X-0.200000X0.750000X-0.200000X0*%
G04 #@! TD*
G04 #@! TA.AperFunction,ViaPad*
%ADD18C,0.600000*%
G04 #@! TD*
G04 #@! TA.AperFunction,Conductor*
%ADD19C,0.500000*%
G04 #@! TD*
G04 #@! TA.AperFunction,Conductor*
%ADD20C,0.200000*%
G04 #@! TD*
G04 APERTURE END LIST*
D10*
X87160000Y-185940000D03*
D11*
X85160000Y-185940000D03*
X83160000Y-185940000D03*
X81160000Y-185940000D03*
X79160000Y-185940000D03*
X77160000Y-185940000D03*
D12*
X87270000Y-131830000D03*
X87270000Y-129830000D03*
D13*
X77950000Y-129575000D03*
X78750000Y-129575000D03*
D14*
X79900000Y-129575000D03*
X80900000Y-129575000D03*
X81400000Y-129575000D03*
X82400000Y-129575000D03*
D13*
X84350000Y-129575000D03*
X83550000Y-129575000D03*
D14*
X82900000Y-129575000D03*
X81900000Y-129575000D03*
X80400000Y-129575000D03*
X79400000Y-129575000D03*
D15*
X76830000Y-129010000D03*
X85470000Y-129010000D03*
D16*
X76830000Y-124830000D03*
X85470000Y-124830000D03*
D17*
X79660000Y-132280000D03*
X79660000Y-134180000D03*
X76660000Y-133230000D03*
D12*
X87280000Y-126410000D03*
X87280000Y-124410000D03*
D18*
X76500000Y-159000000D03*
X76500000Y-162000000D03*
X86100000Y-135800000D03*
X84700000Y-135800000D03*
X84700000Y-144200000D03*
X85400000Y-137200000D03*
X78000000Y-159000000D03*
X75900000Y-150350000D03*
X76900000Y-155300000D03*
X77800000Y-152100000D03*
X75950000Y-157850000D03*
X84700000Y-138600000D03*
X84700000Y-141400000D03*
X75900000Y-152100000D03*
X78000000Y-162000000D03*
X77250000Y-160500000D03*
X86100000Y-138600000D03*
X76900000Y-153200000D03*
X75750000Y-148500000D03*
X79500000Y-147000000D03*
X79500000Y-144000000D03*
X78750000Y-145500000D03*
X80250000Y-145500000D03*
X78000000Y-147000000D03*
X78000000Y-144000000D03*
X77250000Y-145500000D03*
X76500000Y-147000000D03*
X78800000Y-131050000D03*
X83550000Y-131050000D03*
X82260000Y-130890000D03*
X80960000Y-131900000D03*
X81130000Y-181180000D03*
D19*
X78770000Y-129595000D02*
X78770000Y-131020000D01*
X83570000Y-131030000D02*
X83550000Y-131050000D01*
X83570000Y-129595000D02*
X83570000Y-131030000D01*
X78770000Y-131020000D02*
X78800000Y-131050000D01*
D20*
X81900000Y-130470000D02*
X81900000Y-130770000D01*
X87160000Y-184627499D02*
X87160000Y-185940000D01*
X83880000Y-177527156D02*
X86360000Y-180007156D01*
X79660000Y-132280000D02*
X80580000Y-132280000D01*
X81900000Y-130770000D02*
X82020000Y-130890000D01*
X83880000Y-133377156D02*
X83880000Y-177527156D01*
X80850000Y-130050000D02*
X80850000Y-130347156D01*
X80580000Y-132280000D02*
X80960000Y-131900000D01*
X81950000Y-130420000D02*
X81900000Y-130470000D01*
X80900000Y-130000000D02*
X80850000Y-130050000D01*
X80950000Y-130420000D02*
X80950000Y-129595000D01*
X80850000Y-130347156D02*
X83880000Y-133377156D01*
X82020000Y-130890000D02*
X82260000Y-130890000D01*
X86360000Y-180007156D02*
X86360000Y-183827499D01*
X86360000Y-183827499D02*
X87160000Y-184627499D01*
X81950000Y-129595000D02*
X81950000Y-130420000D01*
X80900000Y-129575000D02*
X80900000Y-130000000D01*
X81000000Y-130470000D02*
X80950000Y-130420000D01*
X81900000Y-130470000D02*
X81000000Y-130470000D01*
X85960000Y-183827499D02*
X85160000Y-184627499D01*
X81400000Y-129575000D02*
X81400000Y-128750000D01*
X85160000Y-184627499D02*
X85160000Y-185940000D01*
X85960000Y-180172844D02*
X85960000Y-183827499D01*
X79660000Y-134180000D02*
X81868578Y-131971422D01*
X80400000Y-129575000D02*
X80400000Y-130000000D01*
X81868578Y-131931422D02*
X83480000Y-133542844D01*
X81400000Y-128750000D02*
X81350000Y-128700000D01*
X83480000Y-177692844D02*
X85960000Y-180172844D01*
X83480000Y-133542844D02*
X83480000Y-177692844D01*
X80450000Y-130512844D02*
X81868578Y-131931422D01*
X80450000Y-130050000D02*
X80450000Y-130512844D01*
X80400000Y-130000000D02*
X80450000Y-130050000D01*
X80555686Y-128700000D02*
X80400000Y-128855686D01*
X80400000Y-128855686D02*
X80400000Y-129575000D01*
X81350000Y-128700000D02*
X80555686Y-128700000D01*
X81868578Y-131971422D02*
X81868578Y-131931422D01*
X81130000Y-181180000D02*
X81160000Y-181210000D01*
X81160000Y-181210000D02*
X81160000Y-185940000D01*
X87270000Y-131830000D02*
X83100000Y-131830000D01*
X82920000Y-131650000D02*
X82920000Y-129595000D01*
X83100000Y-131830000D02*
X82920000Y-131650000D01*
X87120000Y-126250000D02*
X80750000Y-126250000D01*
X79920000Y-127080000D02*
X79920000Y-129595000D01*
X87280000Y-126410000D02*
X87120000Y-126250000D01*
X80750000Y-126250000D02*
X79920000Y-127080000D01*
G04 #@! TA.AperFunction,Conductor*
G36*
X78509191Y-149918907D02*
G01*
X78545155Y-149968407D01*
X78550000Y-149999000D01*
X78550000Y-163431000D01*
X78531093Y-163489191D01*
X78481593Y-163525155D01*
X78451000Y-163530000D01*
X75599000Y-163530000D01*
X75540809Y-163511093D01*
X75504845Y-163461593D01*
X75500000Y-163431000D01*
X75500000Y-149999000D01*
X75518907Y-149940809D01*
X75568407Y-149904845D01*
X75599000Y-149900000D01*
X78451000Y-149900000D01*
X78509191Y-149918907D01*
G37*
G04 #@! TD.AperFunction*
G04 #@! TA.AperFunction,Conductor*
G36*
X81215908Y-142584843D02*
G01*
X81228595Y-142588966D01*
X81278095Y-142624927D01*
X81278096Y-142624928D01*
X81281091Y-142629050D01*
X81300000Y-142687240D01*
X81300000Y-149585319D01*
X81295154Y-149615912D01*
X81291032Y-149628598D01*
X81255080Y-149678089D01*
X81250959Y-149681084D01*
X81192771Y-149700000D01*
X78656990Y-149700000D01*
X78608618Y-149687378D01*
X78588145Y-149675913D01*
X78588144Y-149675912D01*
X78588143Y-149675912D01*
X78560059Y-149666787D01*
X78529947Y-149657003D01*
X78451003Y-149644500D01*
X78451000Y-149644500D01*
X75599000Y-149644500D01*
X75559035Y-149647645D01*
X75536150Y-149651269D01*
X75528434Y-149652491D01*
X75508759Y-149656405D01*
X75500442Y-149660239D01*
X75439680Y-149667427D01*
X75386298Y-149637527D01*
X75360685Y-149581960D01*
X75360000Y-149570330D01*
X75360000Y-142694680D01*
X75364843Y-142664094D01*
X75368965Y-142651405D01*
X75404923Y-142601906D01*
X75405522Y-142601471D01*
X75409063Y-142598900D01*
X75467243Y-142580000D01*
X81185320Y-142580000D01*
X81215908Y-142584843D01*
G37*
G04 #@! TD.AperFunction*
G04 #@! TA.AperFunction,Conductor*
G36*
X91108691Y-123719407D02*
G01*
X91144655Y-123768907D01*
X91149500Y-123799500D01*
X91149500Y-130651000D01*
X91130593Y-130709191D01*
X91081093Y-130745155D01*
X91050500Y-130750000D01*
X84169500Y-130750000D01*
X84111309Y-130731093D01*
X84075345Y-130681593D01*
X84070500Y-130651000D01*
X84070500Y-130300917D01*
X84083713Y-130257362D01*
X84082234Y-130256749D01*
X84085961Y-130247746D01*
X84085966Y-130247740D01*
X84100500Y-130174674D01*
X84100500Y-129165555D01*
X84119407Y-129107364D01*
X84168907Y-129071400D01*
X84173838Y-129069939D01*
X84262135Y-129046281D01*
X84393365Y-128970515D01*
X84500515Y-128863365D01*
X84559823Y-128760641D01*
X84576279Y-128732139D01*
X84576279Y-128732137D01*
X84576281Y-128732135D01*
X84615500Y-128585766D01*
X84615500Y-128434234D01*
X84576281Y-128287865D01*
X84576279Y-128287862D01*
X84576279Y-128287860D01*
X84500518Y-128156639D01*
X84500516Y-128156637D01*
X84500515Y-128156635D01*
X84393365Y-128049485D01*
X84393362Y-128049483D01*
X84393360Y-128049481D01*
X84262138Y-127973720D01*
X84262140Y-127973720D01*
X84205347Y-127958503D01*
X84115766Y-127934500D01*
X83964234Y-127934500D01*
X83874652Y-127958503D01*
X83817860Y-127973720D01*
X83686639Y-128049481D01*
X83579481Y-128156639D01*
X83503720Y-128287860D01*
X83498046Y-128309036D01*
X83464500Y-128434234D01*
X83464500Y-128585766D01*
X83464501Y-128585768D01*
X83474980Y-128624877D01*
X83471777Y-128685979D01*
X83433272Y-128733529D01*
X83379353Y-128749500D01*
X83225320Y-128749500D01*
X83169313Y-128760641D01*
X83130687Y-128760641D01*
X83074679Y-128749500D01*
X83074674Y-128749500D01*
X82725326Y-128749500D01*
X82725320Y-128749500D01*
X82669313Y-128760641D01*
X82630687Y-128760641D01*
X82574679Y-128749500D01*
X82574674Y-128749500D01*
X82225326Y-128749500D01*
X82225320Y-128749500D01*
X82169313Y-128760641D01*
X82130687Y-128760641D01*
X82074679Y-128749500D01*
X82074674Y-128749500D01*
X81838695Y-128749500D01*
X81780504Y-128730593D01*
X81744540Y-128681093D01*
X81743075Y-128676147D01*
X81726614Y-128614712D01*
X81709902Y-128585766D01*
X81709901Y-128585764D01*
X81709901Y-128585763D01*
X81693446Y-128557264D01*
X81680470Y-128534788D01*
X81565212Y-128419530D01*
X81485288Y-128373386D01*
X81396144Y-128349500D01*
X80509542Y-128349500D01*
X80420398Y-128373386D01*
X80420397Y-128373386D01*
X80420395Y-128373387D01*
X80418998Y-128374194D01*
X80417865Y-128374434D01*
X80414400Y-128375870D01*
X80414133Y-128375227D01*
X80359149Y-128386913D01*
X80303254Y-128362025D01*
X80272663Y-128309036D01*
X80270500Y-128288456D01*
X80270500Y-127266189D01*
X80289407Y-127207998D01*
X80299496Y-127196185D01*
X80866185Y-126629496D01*
X80920702Y-126601719D01*
X80936189Y-126600500D01*
X86230501Y-126600500D01*
X86288692Y-126619407D01*
X86324656Y-126668907D01*
X86329501Y-126699500D01*
X86329501Y-126807870D01*
X86335908Y-126867480D01*
X86335909Y-126867485D01*
X86386202Y-127002329D01*
X86409804Y-127033857D01*
X86472454Y-127117546D01*
X86472457Y-127117548D01*
X86472458Y-127117549D01*
X86587670Y-127203797D01*
X86722511Y-127254089D01*
X86722512Y-127254089D01*
X86722517Y-127254091D01*
X86782127Y-127260500D01*
X87777872Y-127260499D01*
X87837483Y-127254091D01*
X87961065Y-127207998D01*
X87972329Y-127203797D01*
X87972329Y-127203796D01*
X87972331Y-127203796D01*
X88087546Y-127117546D01*
X88173796Y-127002331D01*
X88195287Y-126944712D01*
X88224089Y-126867488D01*
X88224090Y-126867485D01*
X88224091Y-126867483D01*
X88230500Y-126807873D01*
X88230499Y-126012128D01*
X88224091Y-125952517D01*
X88198167Y-125883010D01*
X88173797Y-125817670D01*
X88087549Y-125702458D01*
X88087548Y-125702457D01*
X88087546Y-125702454D01*
X88087541Y-125702450D01*
X87972329Y-125616202D01*
X87837488Y-125565910D01*
X87837483Y-125565909D01*
X87837481Y-125565908D01*
X87837477Y-125565908D01*
X87806249Y-125562550D01*
X87777873Y-125559500D01*
X87777870Y-125559500D01*
X86782133Y-125559500D01*
X86782129Y-125559500D01*
X86782128Y-125559501D01*
X86774949Y-125560272D01*
X86722519Y-125565908D01*
X86722514Y-125565909D01*
X86587670Y-125616202D01*
X86472458Y-125702450D01*
X86472450Y-125702458D01*
X86386204Y-125817668D01*
X86379705Y-125835095D01*
X86341655Y-125883010D01*
X86286946Y-125899500D01*
X80703856Y-125899500D01*
X80614712Y-125923386D01*
X80614711Y-125923386D01*
X80614709Y-125923387D01*
X80534790Y-125969529D01*
X79639530Y-126864788D01*
X79593386Y-126944712D01*
X79569500Y-127033857D01*
X79569500Y-128650500D01*
X79550593Y-128708691D01*
X79501093Y-128744655D01*
X79470500Y-128749500D01*
X79225320Y-128749500D01*
X79169313Y-128760641D01*
X79130687Y-128760641D01*
X79074679Y-128749500D01*
X79074674Y-128749500D01*
X78920647Y-128749500D01*
X78862456Y-128730593D01*
X78826492Y-128681093D01*
X78825020Y-128624877D01*
X78835499Y-128585768D01*
X78835500Y-128585766D01*
X78835500Y-128434234D01*
X78796281Y-128287865D01*
X78796279Y-128287862D01*
X78796279Y-128287860D01*
X78720518Y-128156639D01*
X78720516Y-128156637D01*
X78720515Y-128156635D01*
X78613365Y-128049485D01*
X78613362Y-128049483D01*
X78613360Y-128049481D01*
X78482138Y-127973720D01*
X78482140Y-127973720D01*
X78425347Y-127958503D01*
X78335766Y-127934500D01*
X78184234Y-127934500D01*
X78094652Y-127958503D01*
X78037860Y-127973720D01*
X77906639Y-128049481D01*
X77799481Y-128156639D01*
X77723720Y-128287860D01*
X77718046Y-128309036D01*
X77684500Y-128434234D01*
X77684500Y-128585766D01*
X77711352Y-128685979D01*
X77723720Y-128732139D01*
X77799481Y-128863360D01*
X77799483Y-128863362D01*
X77799485Y-128863365D01*
X77906635Y-128970515D01*
X77906637Y-128970516D01*
X77906639Y-128970518D01*
X78037861Y-129046279D01*
X78037862Y-129046279D01*
X78037865Y-129046281D01*
X78126124Y-129069929D01*
X78177437Y-129103251D01*
X78199364Y-129160373D01*
X78199500Y-129165555D01*
X78199500Y-130174672D01*
X78199501Y-130174684D01*
X78214033Y-130247736D01*
X78214035Y-130247742D01*
X78252816Y-130305782D01*
X78269500Y-130360783D01*
X78269500Y-130651000D01*
X78250593Y-130709191D01*
X78201093Y-130745155D01*
X78170500Y-130750000D01*
X77670000Y-130750000D01*
X77670000Y-130750001D01*
X77670000Y-133751000D01*
X77651093Y-133809191D01*
X77601593Y-133845155D01*
X77571000Y-133850000D01*
X73249500Y-133850000D01*
X73191309Y-133831093D01*
X73155345Y-133781593D01*
X73150500Y-133751000D01*
X73150500Y-123799500D01*
X73169407Y-123741309D01*
X73218907Y-123705345D01*
X73249500Y-123700500D01*
X91050500Y-123700500D01*
X91108691Y-123719407D01*
G37*
G04 #@! TD.AperFunction*
M02*
