G04 #@! TF.GenerationSoftware,KiCad,Pcbnew,10.0.6-rc2*
G04 #@! TF.CreationDate,2026-08-25T13:57:13+02:00*
G04 #@! TF.ProjectId,unni-usb-power,756e6e69-2d75-4736-922d-706f7765722e,rev?*
G04 #@! TF.SameCoordinates,Original*
G04 #@! TF.FileFunction,Copper,L1,Top*
G04 #@! TF.FilePolarity,Positive*
%FSLAX46Y46*%
G04 Gerber Fmt 4.6, Leading zero omitted, Abs format (unit mm)*
G04 Created by KiCad (PCBNEW 10.0.6-rc2) date 2026-08-25 13:57:13*
%MOMM*%
%LPD*%
G01*
G04 APERTURE LIST*
G04 Aperture macros list*
%AMRoundRect*
0 Rectangle with rounded corners*
0 $1 Rounding radius*
0 $2 $3 $4 $5 $6 $7 $8 $9 X,Y pos of 4 corners*
0 Add a 4 corners polygon primitive as box body*
4,1,4,$2,$3,$4,$5,$6,$7,$8,$9,$2,$3,0*
0 Add four circle primitives for the rounded corners*
1,1,$1+$1,$2,$3*
1,1,$1+$1,$4,$5*
1,1,$1+$1,$6,$7*
1,1,$1+$1,$8,$9*
0 Add four rect primitives between the rounded corners*
20,1,$1+$1,$2,$3,$4,$5,0*
20,1,$1+$1,$4,$5,$6,$7,0*
20,1,$1+$1,$6,$7,$8,$9,0*
20,1,$1+$1,$8,$9,$2,$3,0*%
G04 Aperture macros list end*
G04 #@! TA.AperFunction,SMDPad,CuDef*
%ADD10RoundRect,0.200000X0.750000X0.200000X-0.750000X0.200000X-0.750000X-0.200000X0.750000X-0.200000X0*%
G04 #@! TD*
G04 #@! TA.AperFunction,SMDPad,CuDef*
%ADD11RoundRect,0.250000X0.350000X0.450000X-0.350000X0.450000X-0.350000X-0.450000X0.350000X-0.450000X0*%
G04 #@! TD*
G04 #@! TA.AperFunction,SMDPad,CuDef*
%ADD12RoundRect,0.200000X-0.200000X0.750000X-0.200000X-0.750000X0.200000X-0.750000X0.200000X0.750000X0*%
G04 #@! TD*
G04 #@! TA.AperFunction,SMDPad,CuDef*
%ADD13RoundRect,0.250000X-0.250000X-1.500000X0.250000X-1.500000X0.250000X1.500000X-0.250000X1.500000X0*%
G04 #@! TD*
G04 #@! TA.AperFunction,SMDPad,CuDef*
%ADD14RoundRect,0.250001X-0.499999X-1.449999X0.499999X-1.449999X0.499999X1.449999X-0.499999X1.449999X0*%
G04 #@! TD*
G04 #@! TA.AperFunction,SMDPad,CuDef*
%ADD15RoundRect,0.250000X-1.500000X-0.650000X1.500000X-0.650000X1.500000X0.650000X-1.500000X0.650000X0*%
G04 #@! TD*
G04 #@! TA.AperFunction,SMDPad,CuDef*
%ADD16RoundRect,0.250000X-0.350000X-0.450000X0.350000X-0.450000X0.350000X0.450000X-0.350000X0.450000X0*%
G04 #@! TD*
G04 #@! TA.AperFunction,SMDPad,CuDef*
%ADD17RoundRect,0.162000X-1.238000X0.513000X-1.238000X-0.513000X1.238000X-0.513000X1.238000X0.513000X0*%
G04 #@! TD*
G04 #@! TA.AperFunction,ComponentPad*
%ADD18RoundRect,0.250000X0.350000X0.625000X-0.350000X0.625000X-0.350000X-0.625000X0.350000X-0.625000X0*%
G04 #@! TD*
G04 #@! TA.AperFunction,ComponentPad*
%ADD19O,1.200000X1.750000*%
G04 #@! TD*
G04 #@! TA.AperFunction,SMDPad,CuDef*
%ADD20RoundRect,0.250000X0.650000X-1.500000X0.650000X1.500000X-0.650000X1.500000X-0.650000X-1.500000X0*%
G04 #@! TD*
G04 #@! TA.AperFunction,SMDPad,CuDef*
%ADD21RoundRect,0.250000X0.450000X-0.350000X0.450000X0.350000X-0.450000X0.350000X-0.450000X-0.350000X0*%
G04 #@! TD*
G04 #@! TA.AperFunction,SMDPad,CuDef*
%ADD22RoundRect,0.250000X0.337500X0.475000X-0.337500X0.475000X-0.337500X-0.475000X0.337500X-0.475000X0*%
G04 #@! TD*
G04 #@! TA.AperFunction,SMDPad,CuDef*
%ADD23RoundRect,0.250000X-0.475000X0.337500X-0.475000X-0.337500X0.475000X-0.337500X0.475000X0.337500X0*%
G04 #@! TD*
G04 #@! TA.AperFunction,SMDPad,CuDef*
%ADD24RoundRect,0.237500X0.300000X0.237500X-0.300000X0.237500X-0.300000X-0.237500X0.300000X-0.237500X0*%
G04 #@! TD*
G04 #@! TA.AperFunction,ComponentPad*
%ADD25O,1.000000X2.100000*%
G04 #@! TD*
G04 #@! TA.AperFunction,ComponentPad*
%ADD26O,1.000000X1.800000*%
G04 #@! TD*
G04 #@! TA.AperFunction,ViaPad*
%ADD27C,0.600000*%
G04 #@! TD*
G04 #@! TA.AperFunction,Conductor*
%ADD28C,0.200000*%
G04 #@! TD*
G04 APERTURE END LIST*
D10*
X82260000Y-141220000D03*
X82260000Y-139320000D03*
X79260000Y-140270000D03*
D11*
X77110000Y-139100000D03*
X75110000Y-139100000D03*
D12*
X77020000Y-141280000D03*
X75120000Y-141280000D03*
X76070000Y-144280000D03*
D13*
X76940000Y-165970000D03*
X78940000Y-165970000D03*
X80940000Y-165970000D03*
D14*
X74590000Y-171720000D03*
X83290000Y-171720000D03*
D10*
X79800000Y-155150000D03*
X79800000Y-153250000D03*
X76800000Y-154200000D03*
D15*
X84400000Y-163300000D03*
X89400000Y-163300000D03*
D16*
X82120000Y-143010000D03*
X84120000Y-143010000D03*
D17*
X79850000Y-148325000D03*
X79850000Y-151475000D03*
D18*
X87160000Y-185940000D03*
D19*
X85160000Y-185940000D03*
X83160000Y-185940000D03*
X81160000Y-185940000D03*
X79160000Y-185940000D03*
X77160000Y-185940000D03*
D20*
X83750000Y-159450000D03*
X83750000Y-154450000D03*
D21*
X82670000Y-147940000D03*
X82670000Y-145940000D03*
D22*
X79425000Y-157050000D03*
X77350000Y-157050000D03*
D12*
X87840000Y-143120000D03*
X85940000Y-143120000D03*
X86890000Y-146120000D03*
D16*
X85900000Y-140880000D03*
X87900000Y-140880000D03*
D23*
X77050000Y-148762500D03*
X77050000Y-150837500D03*
D24*
X80762500Y-162980000D03*
X79037500Y-162980000D03*
D25*
X76830000Y-129010000D03*
X85470000Y-129010000D03*
D26*
X76830000Y-124830000D03*
X85470000Y-124830000D03*
D27*
X76500000Y-159000000D03*
X76500000Y-162000000D03*
X86100000Y-135800000D03*
X84700000Y-135800000D03*
X84700000Y-144200000D03*
X85400000Y-137200000D03*
X78000000Y-159000000D03*
X75900000Y-150350000D03*
X76900000Y-155300000D03*
X77800000Y-152100000D03*
X75950000Y-157850000D03*
X84700000Y-138600000D03*
X84700000Y-141400000D03*
X75900000Y-152100000D03*
X78000000Y-162000000D03*
X77250000Y-160500000D03*
X86100000Y-138600000D03*
X76900000Y-153200000D03*
X75750000Y-148500000D03*
X79500000Y-147000000D03*
X79500000Y-144000000D03*
X78750000Y-145500000D03*
X80250000Y-145500000D03*
X78000000Y-147000000D03*
X78000000Y-144000000D03*
X77250000Y-145500000D03*
X76500000Y-147000000D03*
X78800000Y-131050000D03*
X83550000Y-131050000D03*
X82260000Y-130890000D03*
X80960000Y-131900000D03*
X81130000Y-181180000D03*
D28*
X81970000Y-130890000D02*
X82260000Y-130890000D01*
X80960000Y-131900000D02*
X81970000Y-130890000D01*
X85360000Y-186460000D02*
X84925000Y-186025000D01*
X82670000Y-147940000D02*
X87000000Y-152270000D01*
X81160000Y-181150000D02*
X81130000Y-181180000D01*
X87000000Y-175310000D02*
X81130000Y-181180000D01*
X87000000Y-152270000D02*
X87000000Y-175310000D01*
G04 #@! TA.AperFunction,Conductor*
G36*
X80501608Y-138318907D02*
G01*
X80537572Y-138368407D01*
X80542396Y-138401007D01*
X80506604Y-140163803D01*
X80509303Y-140206387D01*
X80514130Y-140239005D01*
X80518436Y-140261238D01*
X80518438Y-140261244D01*
X80560170Y-140351770D01*
X80560301Y-140351993D01*
X80560326Y-140352108D01*
X80562208Y-140356190D01*
X80561312Y-140356602D01*
X80573410Y-140411757D01*
X80562216Y-140448681D01*
X80538098Y-140493845D01*
X80538096Y-140493851D01*
X80520360Y-140552401D01*
X80520358Y-140552407D01*
X80509436Y-140631596D01*
X80509436Y-140631603D01*
X80532998Y-141808230D01*
X80532998Y-141808239D01*
X80541314Y-142223518D01*
X80523576Y-142282076D01*
X80474806Y-142319023D01*
X80442334Y-142324500D01*
X76484500Y-142324500D01*
X76426309Y-142305593D01*
X76390345Y-142256093D01*
X76385500Y-142225500D01*
X76385500Y-138407230D01*
X76385463Y-138406760D01*
X76385500Y-138406605D01*
X76385500Y-138403350D01*
X76386282Y-138403350D01*
X76399751Y-138347266D01*
X76446280Y-138307533D01*
X76484158Y-138300000D01*
X80443417Y-138300000D01*
X80501608Y-138318907D01*
G37*
G04 #@! TD.AperFunction*
G04 #@! TA.AperFunction,Conductor*
G36*
X84715908Y-152154843D02*
G01*
X84728595Y-152158966D01*
X84778095Y-152194927D01*
X84778096Y-152194928D01*
X84781091Y-152199050D01*
X84800000Y-152257240D01*
X84800000Y-157410775D01*
X84799025Y-157413773D01*
X84795154Y-157441369D01*
X84791633Y-157452205D01*
X84782417Y-157464888D01*
X84781093Y-157468966D01*
X84777624Y-157471486D01*
X84755669Y-157501705D01*
X84697479Y-157520611D01*
X84694548Y-157520611D01*
X84648976Y-157509498D01*
X84627247Y-157498231D01*
X84620773Y-157498125D01*
X84618307Y-157497242D01*
X84535803Y-157466470D01*
X84535794Y-157466467D01*
X84507488Y-157455910D01*
X84507483Y-157455909D01*
X84507481Y-157455908D01*
X84507477Y-157455908D01*
X84493736Y-157454430D01*
X84493735Y-157454430D01*
X84480869Y-157453046D01*
X84476249Y-157452550D01*
X84476248Y-157452549D01*
X84447876Y-157449500D01*
X84447873Y-157449500D01*
X84447870Y-157449500D01*
X83052133Y-157449500D01*
X83052129Y-157449500D01*
X83043938Y-157449500D01*
X83037975Y-157451021D01*
X83029069Y-157451978D01*
X82992520Y-157455907D01*
X82992514Y-157455908D01*
X82992514Y-157455909D01*
X82992506Y-157455912D01*
X82857671Y-157506200D01*
X82742458Y-157592450D01*
X82742450Y-157592458D01*
X82656139Y-157707754D01*
X82655582Y-157709335D01*
X82651266Y-157720906D01*
X82636037Y-157747873D01*
X82627015Y-157759234D01*
X82578061Y-157792455D01*
X82567008Y-157795787D01*
X82538434Y-157800000D01*
X78764680Y-157800000D01*
X78734087Y-157795154D01*
X78721401Y-157791032D01*
X78671901Y-157755068D01*
X78671894Y-157755058D01*
X78668900Y-157750936D01*
X78650000Y-157692756D01*
X78650000Y-154564680D01*
X78654843Y-154534094D01*
X78658965Y-154521405D01*
X78694923Y-154471906D01*
X78695522Y-154471471D01*
X78699063Y-154468900D01*
X78757243Y-154450000D01*
X81849999Y-154450000D01*
X81850000Y-154450000D01*
X81850000Y-152264680D01*
X81854843Y-152234094D01*
X81858965Y-152221405D01*
X81894923Y-152171906D01*
X81895522Y-152171471D01*
X81899063Y-152168900D01*
X81957243Y-152150000D01*
X84685320Y-152150000D01*
X84715908Y-152154843D01*
G37*
G04 #@! TD.AperFunction*
G04 #@! TA.AperFunction,Conductor*
G36*
X79978978Y-159008907D02*
G01*
X80014942Y-159058407D01*
X80019787Y-159089212D01*
X80012392Y-162535212D01*
X80006150Y-162569596D01*
X79980750Y-162637695D01*
X79980748Y-162637706D01*
X79974500Y-162695829D01*
X79974500Y-163264170D01*
X79974499Y-163264170D01*
X79980748Y-163322293D01*
X79980750Y-163322304D01*
X80004250Y-163385310D01*
X80010492Y-163420118D01*
X80000212Y-168211212D01*
X79981180Y-168269362D01*
X79931603Y-168305220D01*
X79901212Y-168310000D01*
X78029000Y-168310000D01*
X77970809Y-168291093D01*
X77934845Y-168241593D01*
X77930000Y-168211000D01*
X77930000Y-163530001D01*
X77930000Y-158990000D01*
X78550000Y-158990000D01*
X78550001Y-158990000D01*
X79920787Y-158990000D01*
X79978978Y-159008907D01*
G37*
G04 #@! TD.AperFunction*
G04 #@! TA.AperFunction,Conductor*
G36*
X81165908Y-150804843D02*
G01*
X81178595Y-150808966D01*
X81228095Y-150844927D01*
X81228096Y-150844928D01*
X81231091Y-150849050D01*
X81250000Y-150907240D01*
X81250000Y-152055366D01*
X81245751Y-152084057D01*
X81237619Y-152110913D01*
X81225241Y-152137137D01*
X80750000Y-152849998D01*
X80750000Y-153535319D01*
X80745154Y-153565912D01*
X80741032Y-153578598D01*
X80705080Y-153628089D01*
X80700959Y-153631084D01*
X80642771Y-153650000D01*
X78964680Y-153650000D01*
X78934087Y-153645154D01*
X78921401Y-153641032D01*
X78871901Y-153605068D01*
X78871894Y-153605058D01*
X78868900Y-153600936D01*
X78850000Y-153542756D01*
X78850000Y-152850000D01*
X78846578Y-152841740D01*
X78843066Y-152836999D01*
X78467382Y-152132591D01*
X78458691Y-152110014D01*
X78452956Y-152087074D01*
X78450000Y-152063063D01*
X78450000Y-150914680D01*
X78454843Y-150884094D01*
X78458965Y-150871405D01*
X78494923Y-150821906D01*
X78495522Y-150821471D01*
X78499063Y-150818900D01*
X78557243Y-150800000D01*
X81135320Y-150800000D01*
X81165908Y-150804843D01*
G37*
G04 #@! TD.AperFunction*
G04 #@! TA.AperFunction,Conductor*
G36*
X83555770Y-140544407D02*
G01*
X83591734Y-140593907D01*
X83596577Y-140623918D01*
X83602406Y-141614924D01*
X83583842Y-141673225D01*
X83534554Y-141709479D01*
X83503410Y-141714506D01*
X83368994Y-141714508D01*
X83333384Y-141717311D01*
X83329015Y-141717656D01*
X83329014Y-141717656D01*
X83329003Y-141717657D01*
X83298432Y-141722500D01*
X83278769Y-141726412D01*
X83278765Y-141726413D01*
X83278762Y-141726414D01*
X83229963Y-141748910D01*
X83188227Y-141768150D01*
X83138731Y-141804110D01*
X83138729Y-141804113D01*
X83094626Y-141844881D01*
X83094625Y-141844881D01*
X83045913Y-141931862D01*
X83045913Y-141931864D01*
X83027008Y-141990044D01*
X83027004Y-141990061D01*
X83014500Y-142069003D01*
X83014500Y-144401024D01*
X83017641Y-144440967D01*
X83017643Y-144440985D01*
X83022479Y-144471535D01*
X83026390Y-144491207D01*
X83026391Y-144491210D01*
X83068113Y-144581751D01*
X83068114Y-144581752D01*
X83068115Y-144581754D01*
X83101106Y-144627177D01*
X83120004Y-144685355D01*
X83120004Y-144880242D01*
X83126179Y-144880382D01*
X83391717Y-144886417D01*
X87246049Y-144974021D01*
X87303794Y-144994245D01*
X87338623Y-145044550D01*
X87342798Y-145073022D01*
X87342299Y-146930523D01*
X87323376Y-146988708D01*
X87273866Y-147024659D01*
X87241967Y-147029487D01*
X81464675Y-146951773D01*
X81434153Y-146946517D01*
X81421523Y-146942225D01*
X81372511Y-146905601D01*
X81369364Y-146901145D01*
X81351237Y-146845170D01*
X81300000Y-142380000D01*
X80912717Y-142380000D01*
X80882124Y-142375154D01*
X80869438Y-142371032D01*
X80819938Y-142335068D01*
X80819931Y-142335059D01*
X80816767Y-142330703D01*
X80797887Y-142274504D01*
X80788467Y-141804114D01*
X80764885Y-140626481D01*
X80782623Y-140567924D01*
X80831393Y-140530977D01*
X80863865Y-140525500D01*
X83497579Y-140525500D01*
X83555770Y-140544407D01*
G37*
G04 #@! TD.AperFunction*
G04 #@! TA.AperFunction,Conductor*
G36*
X76045908Y-138304843D02*
G01*
X76058595Y-138308966D01*
X76108095Y-138344927D01*
X76108096Y-138344928D01*
X76111091Y-138349050D01*
X76130000Y-138407240D01*
X76130000Y-142325877D01*
X76125154Y-142356470D01*
X76121032Y-142369156D01*
X76085069Y-142418656D01*
X76080955Y-142421645D01*
X76022764Y-142440552D01*
X76022699Y-142440552D01*
X75175000Y-142439998D01*
X75175000Y-142439999D01*
X75175000Y-142440000D01*
X75175000Y-164185000D01*
X77575500Y-164185000D01*
X77633691Y-164203907D01*
X77669655Y-164253407D01*
X77674500Y-164284000D01*
X77674500Y-168211000D01*
X77677645Y-168250965D01*
X77682490Y-168281558D01*
X77682492Y-168281570D01*
X77686405Y-168301240D01*
X77728138Y-168391768D01*
X77728141Y-168391773D01*
X77764105Y-168441273D01*
X77793698Y-168473286D01*
X77819314Y-168528850D01*
X77820000Y-168540487D01*
X77820000Y-182125000D01*
X77955320Y-182125000D01*
X77985908Y-182129843D01*
X77998595Y-182133966D01*
X78048095Y-182169927D01*
X78048096Y-182169928D01*
X78051091Y-182174050D01*
X78070000Y-182232240D01*
X78070000Y-187584819D01*
X78065154Y-187615412D01*
X78061032Y-187628098D01*
X78025080Y-187677589D01*
X78020959Y-187680584D01*
X77962771Y-187699500D01*
X75994680Y-187699500D01*
X75964087Y-187694654D01*
X75951401Y-187690532D01*
X75901901Y-187654568D01*
X75901894Y-187654558D01*
X75898900Y-187650436D01*
X75880000Y-187592256D01*
X75880000Y-184800001D01*
X75880000Y-184800000D01*
X75879999Y-184800000D01*
X73265180Y-184800000D01*
X73234587Y-184795154D01*
X73221901Y-184791032D01*
X73172401Y-184755068D01*
X73172394Y-184755058D01*
X73169400Y-184750936D01*
X73150500Y-184692756D01*
X73150500Y-173217865D01*
X73589499Y-173217865D01*
X73595908Y-173277476D01*
X73595908Y-173277477D01*
X73595912Y-173277493D01*
X73646200Y-173412326D01*
X73732451Y-173527543D01*
X73732525Y-173527635D01*
X73732802Y-173527882D01*
X73734606Y-173529156D01*
X73801129Y-173578956D01*
X73847669Y-173613796D01*
X73847670Y-173613796D01*
X73847671Y-173613797D01*
X73981545Y-173663728D01*
X73982986Y-173664285D01*
X73984248Y-173664466D01*
X73987768Y-173664655D01*
X74042128Y-173670500D01*
X74042131Y-173670500D01*
X75137869Y-173670500D01*
X75137872Y-173670500D01*
X75197482Y-173664091D01*
X75244304Y-173646627D01*
X75330717Y-173614397D01*
X75334023Y-173613232D01*
X75337581Y-173612047D01*
X75345166Y-173604186D01*
X75447546Y-173527546D01*
X75533796Y-173412330D01*
X75533798Y-173412326D01*
X75584089Y-173277487D01*
X75584088Y-173277487D01*
X75584091Y-173277482D01*
X75590500Y-173217872D01*
X75590500Y-170222128D01*
X75584091Y-170162518D01*
X75584089Y-170162512D01*
X75582818Y-170159104D01*
X75533798Y-170027672D01*
X75511679Y-169998125D01*
X75449156Y-169914606D01*
X75447882Y-169912802D01*
X75447635Y-169912525D01*
X75447543Y-169912451D01*
X75332326Y-169826200D01*
X75202427Y-169777752D01*
X75198938Y-169776234D01*
X75198024Y-169775996D01*
X75195926Y-169775540D01*
X75192205Y-169775341D01*
X75175311Y-169773524D01*
X75166248Y-169772550D01*
X75166247Y-169772549D01*
X75137875Y-169769500D01*
X75137872Y-169769500D01*
X74042128Y-169769500D01*
X74039751Y-169769755D01*
X74017637Y-169772132D01*
X74017637Y-169772133D01*
X74008858Y-169773076D01*
X73982520Y-169775908D01*
X73982514Y-169775909D01*
X73982512Y-169775910D01*
X73982509Y-169775910D01*
X73982505Y-169775912D01*
X73847672Y-169826200D01*
X73732460Y-169912448D01*
X73732448Y-169912460D01*
X73646200Y-170027672D01*
X73595912Y-170162505D01*
X73595910Y-170162509D01*
X73595910Y-170162512D01*
X73595908Y-170162523D01*
X73589501Y-170222128D01*
X73589500Y-170222133D01*
X73589500Y-173217865D01*
X73589499Y-173217865D01*
X73150500Y-173217865D01*
X73150500Y-138414680D01*
X73155343Y-138384094D01*
X73159465Y-138371405D01*
X73195423Y-138321906D01*
X73196022Y-138321471D01*
X73199563Y-138318900D01*
X73257743Y-138300000D01*
X76015320Y-138300000D01*
X76045908Y-138304843D01*
G37*
G04 #@! TD.AperFunction*
G04 #@! TA.AperFunction,Conductor*
G36*
X91149500Y-184563810D02*
G01*
X91144654Y-184594403D01*
X91140532Y-184607089D01*
X91104568Y-184656589D01*
X91104565Y-184656591D01*
X91100452Y-184659579D01*
X91042261Y-184678484D01*
X91042188Y-184678484D01*
X80160000Y-184669998D01*
X80160000Y-187584819D01*
X80155154Y-187615412D01*
X80151032Y-187628098D01*
X80115080Y-187677589D01*
X80110959Y-187680584D01*
X80052771Y-187699500D01*
X78423572Y-187699500D01*
X78365381Y-187680593D01*
X78329417Y-187631093D01*
X78324877Y-187592736D01*
X78325500Y-187584816D01*
X78325500Y-182232238D01*
X78317936Y-182184489D01*
X78327506Y-182124057D01*
X78370770Y-182080791D01*
X78415717Y-182070000D01*
X87588366Y-182070000D01*
X87598402Y-144692949D01*
X87149718Y-144416794D01*
X87110071Y-144370191D01*
X87105389Y-144309185D01*
X87137460Y-144257078D01*
X87142404Y-144253138D01*
X87160141Y-144239915D01*
X87203740Y-144198604D01*
X87251375Y-144111030D01*
X87269564Y-144052610D01*
X87281096Y-143973510D01*
X87197323Y-137173742D01*
X91149500Y-137134449D01*
X91149500Y-184563810D01*
G37*
G04 #@! TD.AperFunction*
G04 #@! TA.AperFunction,Conductor*
G36*
X86365908Y-157254843D02*
G01*
X86378595Y-157258966D01*
X86428095Y-157294927D01*
X86428096Y-157294928D01*
X86431091Y-157299050D01*
X86450000Y-157357240D01*
X86450000Y-168195319D01*
X86445154Y-168225912D01*
X86441032Y-168238598D01*
X86405080Y-168288089D01*
X86400959Y-168291084D01*
X86342771Y-168310000D01*
X80354712Y-168310000D01*
X80296521Y-168291093D01*
X80260557Y-168241593D01*
X80255713Y-168210794D01*
X80265991Y-163420666D01*
X80261980Y-163375019D01*
X80255738Y-163340211D01*
X80243641Y-163296022D01*
X80236242Y-163276184D01*
X80230000Y-163241587D01*
X80230000Y-162718409D01*
X80236243Y-162683809D01*
X80245540Y-162658885D01*
X80257541Y-162615233D01*
X80263783Y-162580849D01*
X80267891Y-162535760D01*
X80275286Y-159089760D01*
X80272184Y-159049515D01*
X80267339Y-159018710D01*
X80263382Y-158998761D01*
X80245534Y-158960046D01*
X80221648Y-158908230D01*
X80221645Y-158908226D01*
X80185685Y-158858730D01*
X80185682Y-158858727D01*
X80144911Y-158814622D01*
X80057930Y-158765912D01*
X80057929Y-158765911D01*
X80053687Y-158763536D01*
X80054441Y-158762189D01*
X80013576Y-158725856D01*
X80000000Y-158675819D01*
X80000000Y-158664680D01*
X80004843Y-158634094D01*
X80008965Y-158621405D01*
X80044923Y-158571906D01*
X80045522Y-158571471D01*
X80049063Y-158568900D01*
X80107243Y-158550000D01*
X80250000Y-158550000D01*
X80482752Y-158317247D01*
X80715505Y-158084496D01*
X80770021Y-158056719D01*
X80785508Y-158055500D01*
X82538426Y-158055500D01*
X82538434Y-158055500D01*
X82575702Y-158052767D01*
X82597505Y-158049552D01*
X82604257Y-158048557D01*
X82604259Y-158048556D01*
X82604276Y-158048554D01*
X82640752Y-158040413D01*
X82651805Y-158037081D01*
X82721531Y-158003871D01*
X82770485Y-157970650D01*
X82827100Y-157918125D01*
X82836122Y-157906764D01*
X82858513Y-157873511D01*
X82873742Y-157846544D01*
X82873749Y-157846527D01*
X82874621Y-157844833D01*
X82874689Y-157844868D01*
X82874700Y-157844849D01*
X82874852Y-157844935D01*
X82883749Y-157830048D01*
X82916448Y-157786367D01*
X82936370Y-157766446D01*
X82969982Y-157741284D01*
X82994717Y-157727778D01*
X83039058Y-157711241D01*
X83073652Y-157705000D01*
X84426345Y-157705000D01*
X84460939Y-157711241D01*
X84483224Y-157719553D01*
X84528985Y-157736621D01*
X84529021Y-157736634D01*
X84532175Y-157737786D01*
X84532231Y-157737806D01*
X84532261Y-157737817D01*
X84533438Y-157738238D01*
X84534641Y-157738669D01*
X84534648Y-157738670D01*
X84538554Y-157739718D01*
X84538477Y-157740003D01*
X84548747Y-157742837D01*
X84588445Y-157757724D01*
X84634017Y-157768837D01*
X84634020Y-157768837D01*
X84634023Y-157768838D01*
X84646091Y-157770287D01*
X84694548Y-157776111D01*
X84694549Y-157776111D01*
X84697479Y-157776111D01*
X84697482Y-157776111D01*
X84758504Y-157766446D01*
X84776429Y-157763607D01*
X84834619Y-157744701D01*
X84889169Y-157719553D01*
X84962374Y-157651882D01*
X84967639Y-157644633D01*
X84970761Y-157641124D01*
X84970584Y-157640984D01*
X84975882Y-157634262D01*
X84981108Y-157626095D01*
X84984329Y-157621663D01*
X84984328Y-157621662D01*
X84989111Y-157615081D01*
X84998327Y-157602398D01*
X84998328Y-157602394D01*
X84999730Y-157600466D01*
X84999920Y-157599272D01*
X85002218Y-157594762D01*
X85034627Y-157531162D01*
X85038148Y-157520326D01*
X85048177Y-157476862D01*
X85052048Y-157449266D01*
X85052047Y-157449265D01*
X85055656Y-157423544D01*
X85055084Y-157421884D01*
X85055375Y-157412362D01*
X85055500Y-157410775D01*
X85055500Y-157349000D01*
X85074407Y-157290809D01*
X85123907Y-157254845D01*
X85154500Y-157250000D01*
X86335320Y-157250000D01*
X86365908Y-157254843D01*
G37*
G04 #@! TD.AperFunction*
G04 #@! TA.AperFunction,Conductor*
G36*
X86880474Y-135428770D02*
G01*
X86916439Y-135478269D01*
X86921278Y-135507645D01*
X87025615Y-143976657D01*
X87007426Y-144035077D01*
X86958373Y-144071648D01*
X86944880Y-144075179D01*
X86138194Y-144226538D01*
X86137010Y-144402111D01*
X86117710Y-144460173D01*
X86067969Y-144495802D01*
X86037997Y-144500443D01*
X83368985Y-144500027D01*
X83310797Y-144481111D01*
X83274841Y-144431605D01*
X83270000Y-144401027D01*
X83270000Y-143976657D01*
X83270001Y-142069006D01*
X83288908Y-142010818D01*
X83338408Y-141974854D01*
X83368992Y-141970009D01*
X83860000Y-141970000D01*
X83850000Y-140270000D01*
X80861031Y-140270000D01*
X80802840Y-140251093D01*
X80766876Y-140201593D01*
X80762051Y-140168990D01*
X80799237Y-138337569D01*
X80819322Y-138279774D01*
X80825492Y-138272407D01*
X81201954Y-137864925D01*
X81255328Y-137835016D01*
X81316091Y-137842190D01*
X81332860Y-137852016D01*
X81335354Y-137853828D01*
X81494595Y-137969524D01*
X81669975Y-138058884D01*
X81857174Y-138119709D01*
X81857175Y-138119709D01*
X81857178Y-138119710D01*
X82051580Y-138150500D01*
X82051583Y-138150500D01*
X82248420Y-138150500D01*
X82442821Y-138119710D01*
X82442822Y-138119709D01*
X82442826Y-138119709D01*
X82630025Y-138058884D01*
X82805405Y-137969524D01*
X82964646Y-137853828D01*
X83103828Y-137714646D01*
X83219524Y-137555405D01*
X83308884Y-137380025D01*
X83369709Y-137192826D01*
X83400500Y-136998417D01*
X83400500Y-136801583D01*
X83400500Y-136801579D01*
X83369710Y-136607178D01*
X83369709Y-136607174D01*
X83308884Y-136419975D01*
X83219524Y-136244595D01*
X83103828Y-136085354D01*
X83103825Y-136085351D01*
X83037130Y-136018655D01*
X83009353Y-135964138D01*
X83018925Y-135903706D01*
X83034413Y-135881477D01*
X83440605Y-135441816D01*
X83493980Y-135411906D01*
X83513314Y-135409998D01*
X86822284Y-135409865D01*
X86880474Y-135428770D01*
G37*
G04 #@! TD.AperFunction*
G04 #@! TA.AperFunction,Conductor*
G36*
X91065408Y-126604843D02*
G01*
X91078095Y-126608966D01*
X91127595Y-126644927D01*
X91127596Y-126644928D01*
X91130591Y-126649050D01*
X91149500Y-126707240D01*
X91149500Y-137134449D01*
X87197323Y-137173741D01*
X87184417Y-136126078D01*
X89399500Y-136126078D01*
X89399500Y-136273920D01*
X89428341Y-136418912D01*
X89484915Y-136555493D01*
X89484915Y-136555494D01*
X89484916Y-136555495D01*
X89567049Y-136678416D01*
X89671584Y-136782951D01*
X89794505Y-136865084D01*
X89931087Y-136921658D01*
X90076082Y-136950500D01*
X90076083Y-136950500D01*
X90223917Y-136950500D01*
X90223918Y-136950500D01*
X90368913Y-136921658D01*
X90505495Y-136865084D01*
X90628416Y-136782951D01*
X90732951Y-136678416D01*
X90815084Y-136555495D01*
X90871658Y-136418913D01*
X90900500Y-136273918D01*
X90900500Y-136126082D01*
X90871658Y-135981087D01*
X90815084Y-135844505D01*
X90732951Y-135721584D01*
X90628416Y-135617049D01*
X90505495Y-135534916D01*
X90505493Y-135534915D01*
X90368914Y-135478342D01*
X90368912Y-135478341D01*
X90223920Y-135449500D01*
X90223918Y-135449500D01*
X90076082Y-135449500D01*
X90076081Y-135449500D01*
X90076078Y-135449500D01*
X89931085Y-135478342D01*
X89931083Y-135478342D01*
X89794510Y-135534912D01*
X89794498Y-135534918D01*
X89671586Y-135617047D01*
X89567047Y-135721586D01*
X89484918Y-135844498D01*
X89484912Y-135844510D01*
X89428342Y-135981083D01*
X89428342Y-135981085D01*
X89399500Y-136126078D01*
X87184417Y-136126078D01*
X87184372Y-136122437D01*
X87181913Y-135922858D01*
X87176759Y-135504498D01*
X87173381Y-135466117D01*
X87168542Y-135436741D01*
X87164878Y-135418618D01*
X87156458Y-135400355D01*
X87123141Y-135328088D01*
X87123139Y-135328086D01*
X87123139Y-135328085D01*
X87087174Y-135278586D01*
X87046402Y-135234481D01*
X87046401Y-135234480D01*
X87046400Y-135234479D01*
X86959420Y-135185773D01*
X86901230Y-135166868D01*
X86822274Y-135154365D01*
X86822272Y-135154365D01*
X83513310Y-135154497D01*
X83513296Y-135154498D01*
X83488217Y-135155733D01*
X83488207Y-135155734D01*
X83468878Y-135157642D01*
X83463887Y-135158184D01*
X83463885Y-135158184D01*
X83463882Y-135158185D01*
X83369078Y-135189016D01*
X83342390Y-135203971D01*
X83315706Y-135218924D01*
X83315698Y-135218929D01*
X83252940Y-135268432D01*
X83252936Y-135268435D01*
X82846748Y-135708092D01*
X82824774Y-135735421D01*
X82820133Y-135742082D01*
X82771352Y-135779016D01*
X82710179Y-135780223D01*
X82693964Y-135773693D01*
X82630028Y-135741117D01*
X82442815Y-135680287D01*
X82248424Y-135649500D01*
X82248420Y-135649500D01*
X82248417Y-135649500D01*
X82051583Y-135649500D01*
X82051580Y-135649500D01*
X82051576Y-135649500D01*
X81857182Y-135680287D01*
X81669973Y-135741116D01*
X81494597Y-135830473D01*
X81494591Y-135830477D01*
X81335360Y-135946166D01*
X81196166Y-136085360D01*
X81080477Y-136244591D01*
X81080473Y-136244597D01*
X80991116Y-136419973D01*
X80930287Y-136607183D01*
X80899500Y-136801574D01*
X80899500Y-136998423D01*
X80930288Y-137192818D01*
X80930662Y-137194173D01*
X80931302Y-137195942D01*
X80978865Y-137342322D01*
X80983145Y-137355494D01*
X80987991Y-137386088D01*
X80987991Y-137397479D01*
X80969084Y-137455670D01*
X80919588Y-137491632D01*
X80908753Y-137495153D01*
X80878156Y-137500000D01*
X76019008Y-137500000D01*
X75988411Y-137495153D01*
X75977576Y-137491632D01*
X75928078Y-137455666D01*
X75909173Y-137397479D01*
X75909173Y-137395719D01*
X75921315Y-137348214D01*
X75924402Y-137342571D01*
X75928922Y-137335113D01*
X76036632Y-137173914D01*
X76112051Y-136991835D01*
X76150500Y-136798541D01*
X76150500Y-136601459D01*
X76112051Y-136408165D01*
X76036632Y-136226086D01*
X75927139Y-136062218D01*
X75787782Y-135922861D01*
X75681053Y-135851547D01*
X75668547Y-135835683D01*
X75623915Y-135813367D01*
X75441836Y-135737949D01*
X75441835Y-135737949D01*
X75377404Y-135725132D01*
X75248545Y-135699500D01*
X75248543Y-135699500D01*
X75248541Y-135699500D01*
X75051459Y-135699500D01*
X75051456Y-135699500D01*
X75051455Y-135699500D01*
X75008262Y-135708092D01*
X74867727Y-135736047D01*
X74867720Y-135736047D01*
X74858161Y-135737948D01*
X74676088Y-135813365D01*
X74676087Y-135813365D01*
X74512220Y-135922858D01*
X74372858Y-136062220D01*
X74263365Y-136226087D01*
X74263365Y-136226088D01*
X74187950Y-136408158D01*
X74187950Y-136408159D01*
X74187949Y-136408166D01*
X74149500Y-136601455D01*
X74149500Y-136798543D01*
X74186047Y-136982271D01*
X74186047Y-136982275D01*
X74187948Y-136991837D01*
X74263364Y-137173908D01*
X74263370Y-137173920D01*
X74367331Y-137329507D01*
X74377209Y-137348433D01*
X74383070Y-137363411D01*
X74386667Y-137424491D01*
X74353676Y-137476020D01*
X74353644Y-137476046D01*
X74352284Y-137477161D01*
X74307909Y-137497879D01*
X74305804Y-137498277D01*
X74287412Y-137500000D01*
X73265180Y-137500000D01*
X73234587Y-137495154D01*
X73221901Y-137491032D01*
X73172401Y-137455068D01*
X73172394Y-137455058D01*
X73169400Y-137450936D01*
X73150500Y-137392756D01*
X73150500Y-131827525D01*
X80409500Y-131827525D01*
X80409500Y-131972474D01*
X80437589Y-132077302D01*
X80447018Y-132112493D01*
X80519485Y-132238008D01*
X80519487Y-132238010D01*
X80519489Y-132238012D01*
X80519491Y-132238015D01*
X80621985Y-132340509D01*
X80621987Y-132340510D01*
X80622094Y-132340617D01*
X80622345Y-132340803D01*
X80624538Y-132341984D01*
X80737107Y-132406975D01*
X80744757Y-132411392D01*
X80747170Y-132412890D01*
X80747508Y-132412980D01*
X80747511Y-132412982D01*
X80747512Y-132412982D01*
X80747515Y-132412984D01*
X80887525Y-132450500D01*
X80887526Y-132450500D01*
X81032474Y-132450500D01*
X81032475Y-132450500D01*
X81172485Y-132412984D01*
X81172486Y-132412983D01*
X81172488Y-132412982D01*
X81172489Y-132412982D01*
X81291880Y-132344051D01*
X81294768Y-132342648D01*
X81295554Y-132342131D01*
X81300563Y-132339037D01*
X81301862Y-132338286D01*
X81307220Y-132331303D01*
X81400509Y-132238015D01*
X81472984Y-132112485D01*
X81475908Y-132101574D01*
X88399500Y-132101574D01*
X88399500Y-132298423D01*
X88430288Y-132492818D01*
X88430662Y-132494173D01*
X88431302Y-132495942D01*
X88491112Y-132680018D01*
X88491114Y-132680021D01*
X88491115Y-132680024D01*
X88491116Y-132680025D01*
X88580476Y-132855405D01*
X88696172Y-133014646D01*
X88835354Y-133153828D01*
X88994595Y-133269524D01*
X89169975Y-133358884D01*
X89356974Y-133419644D01*
X89357169Y-133419708D01*
X89357172Y-133419708D01*
X89357174Y-133419709D01*
X89357175Y-133419709D01*
X89357178Y-133419710D01*
X89463577Y-133436561D01*
X89551577Y-133450500D01*
X89748420Y-133450500D01*
X89748423Y-133450500D01*
X89825711Y-133438258D01*
X89942821Y-133419710D01*
X89942821Y-133419709D01*
X89942823Y-133419709D01*
X89942826Y-133419709D01*
X89942829Y-133419708D01*
X89945405Y-133419300D01*
X89950212Y-133417308D01*
X90130025Y-133358884D01*
X90305405Y-133269524D01*
X90464646Y-133153828D01*
X90603828Y-133014646D01*
X90719524Y-132855405D01*
X90808884Y-132680025D01*
X90869709Y-132492826D01*
X90893817Y-132340617D01*
X90893833Y-132340513D01*
X90893833Y-132340511D01*
X90894067Y-132339037D01*
X90900500Y-132298420D01*
X90900500Y-132101579D01*
X90900500Y-132101575D01*
X90869710Y-131907176D01*
X90856280Y-131865847D01*
X90849566Y-131845182D01*
X90808884Y-131719975D01*
X90719524Y-131544595D01*
X90603828Y-131385354D01*
X90464646Y-131246172D01*
X90464642Y-131246169D01*
X90464640Y-131246167D01*
X90311706Y-131135053D01*
X90311438Y-131134824D01*
X90305405Y-131130476D01*
X90305404Y-131130475D01*
X90305402Y-131130474D01*
X90305401Y-131130473D01*
X90305395Y-131130469D01*
X90305139Y-131130340D01*
X90130025Y-131041116D01*
X89942815Y-130980287D01*
X89748424Y-130949500D01*
X89748420Y-130949500D01*
X89748417Y-130949500D01*
X89551583Y-130949500D01*
X89551580Y-130949500D01*
X89551576Y-130949500D01*
X89357182Y-130980287D01*
X89169973Y-131041116D01*
X88994597Y-131130473D01*
X88994591Y-131130477D01*
X88835360Y-131246166D01*
X88696166Y-131385360D01*
X88580477Y-131544591D01*
X88580473Y-131544597D01*
X88491116Y-131719973D01*
X88430287Y-131907183D01*
X88399500Y-132101574D01*
X81475908Y-132101574D01*
X81510500Y-131972475D01*
X81510500Y-131894312D01*
X81511646Y-131886847D01*
X81513444Y-131883275D01*
X81515344Y-131871279D01*
X81522891Y-131848048D01*
X81547040Y-131808640D01*
X81922608Y-131433071D01*
X81947664Y-131414867D01*
X81961456Y-131407840D01*
X82018022Y-131397738D01*
X82028689Y-131399000D01*
X82042084Y-131403933D01*
X82042686Y-131401690D01*
X82047514Y-131402983D01*
X82047515Y-131402984D01*
X82187522Y-131440499D01*
X82187524Y-131440500D01*
X82187525Y-131440500D01*
X82187526Y-131440500D01*
X82332474Y-131440500D01*
X82332475Y-131440500D01*
X82472485Y-131402984D01*
X82472486Y-131402983D01*
X82472488Y-131402982D01*
X82472489Y-131402982D01*
X82591880Y-131334051D01*
X82594768Y-131332648D01*
X82595554Y-131332131D01*
X82600563Y-131329037D01*
X82601862Y-131328286D01*
X82607220Y-131321303D01*
X82700509Y-131228015D01*
X82700512Y-131228010D01*
X82772982Y-131102489D01*
X82772982Y-131102487D01*
X82772984Y-131102485D01*
X82810500Y-130962475D01*
X82810500Y-130817525D01*
X82772984Y-130677515D01*
X82772982Y-130677512D01*
X82772982Y-130677510D01*
X82772981Y-130677508D01*
X82772890Y-130677168D01*
X82771397Y-130674764D01*
X82701985Y-130554539D01*
X82700805Y-130552347D01*
X82700617Y-130552094D01*
X82700510Y-130551987D01*
X82700509Y-130551985D01*
X82598015Y-130449491D01*
X82598012Y-130449489D01*
X82598010Y-130449487D01*
X82529774Y-130410091D01*
X82508741Y-130386731D01*
X82442897Y-130369087D01*
X82442896Y-130369087D01*
X82332475Y-130339500D01*
X82332473Y-130339500D01*
X82187523Y-130339500D01*
X82125788Y-130356041D01*
X82125787Y-130356040D01*
X82047512Y-130377015D01*
X82047506Y-130377018D01*
X81921993Y-130449483D01*
X81921988Y-130449487D01*
X81819487Y-130551987D01*
X81815539Y-130557134D01*
X81815065Y-130556771D01*
X81806051Y-130568513D01*
X81788250Y-130586314D01*
X81767749Y-130602045D01*
X81754791Y-130609526D01*
X81054899Y-131309417D01*
X81029843Y-131327621D01*
X81008085Y-131338708D01*
X80963138Y-131349500D01*
X80887523Y-131349500D01*
X80825788Y-131366041D01*
X80825787Y-131366040D01*
X80747512Y-131387015D01*
X80747506Y-131387018D01*
X80621993Y-131459483D01*
X80519483Y-131561993D01*
X80447018Y-131687505D01*
X80438318Y-131719974D01*
X80409500Y-131827525D01*
X73150500Y-131827525D01*
X73150500Y-128386079D01*
X76079500Y-128386079D01*
X76079500Y-128386081D01*
X76079500Y-128386082D01*
X76079500Y-129633918D01*
X76108342Y-129778913D01*
X76164916Y-129915495D01*
X76247049Y-130038416D01*
X76351584Y-130142951D01*
X76474505Y-130225084D01*
X76611087Y-130281658D01*
X76756082Y-130310500D01*
X76756083Y-130310500D01*
X76903917Y-130310500D01*
X76903918Y-130310500D01*
X77048913Y-130281658D01*
X77185495Y-130225084D01*
X77308416Y-130142951D01*
X77412951Y-130038416D01*
X77495084Y-129915495D01*
X77551658Y-129778913D01*
X77580500Y-129633918D01*
X77580500Y-128869225D01*
X77585344Y-128838636D01*
X77587891Y-128830796D01*
X77623853Y-128781295D01*
X77682043Y-128762385D01*
X77740233Y-128781289D01*
X77743640Y-128783764D01*
X77771190Y-128814359D01*
X77799485Y-128863366D01*
X77897425Y-128961305D01*
X77906635Y-128970515D01*
X77906637Y-128970516D01*
X77906639Y-128970518D01*
X78037861Y-129046279D01*
X78037859Y-129046279D01*
X78037863Y-129046280D01*
X78037865Y-129046281D01*
X78184234Y-129085500D01*
X78184236Y-129085500D01*
X78335764Y-129085500D01*
X78335766Y-129085500D01*
X78482135Y-129046281D01*
X78482137Y-129046279D01*
X78482139Y-129046279D01*
X78607220Y-128974063D01*
X78610114Y-128972657D01*
X78610904Y-128972137D01*
X78615913Y-128969043D01*
X78617212Y-128968292D01*
X78622570Y-128961309D01*
X78720515Y-128863365D01*
X78754764Y-128804045D01*
X78796279Y-128732139D01*
X78796279Y-128732137D01*
X78796281Y-128732135D01*
X78835500Y-128585766D01*
X78835500Y-128434234D01*
X83464500Y-128434234D01*
X83464500Y-128585766D01*
X83499086Y-128714847D01*
X83503720Y-128732139D01*
X83579481Y-128863360D01*
X83579483Y-128863362D01*
X83579485Y-128863365D01*
X83686635Y-128970515D01*
X83686637Y-128970516D01*
X83686639Y-128970518D01*
X83817861Y-129046279D01*
X83817859Y-129046279D01*
X83817863Y-129046280D01*
X83817865Y-129046281D01*
X83964234Y-129085500D01*
X83964236Y-129085500D01*
X84115764Y-129085500D01*
X84115766Y-129085500D01*
X84262135Y-129046281D01*
X84262137Y-129046279D01*
X84262139Y-129046279D01*
X84387220Y-128974063D01*
X84390114Y-128972657D01*
X84390904Y-128972137D01*
X84395913Y-128969043D01*
X84397212Y-128968292D01*
X84402570Y-128961309D01*
X84500515Y-128863365D01*
X84526926Y-128817617D01*
X84546415Y-128793552D01*
X84552547Y-128788031D01*
X84608444Y-128763150D01*
X84668291Y-128775875D01*
X84709218Y-128821324D01*
X84710933Y-128825174D01*
X84719500Y-128865458D01*
X84719500Y-129633918D01*
X84748342Y-129778913D01*
X84804916Y-129915495D01*
X84887049Y-130038416D01*
X84991584Y-130142951D01*
X85114505Y-130225084D01*
X85251087Y-130281658D01*
X85396082Y-130310500D01*
X85396083Y-130310500D01*
X85543917Y-130310500D01*
X85543918Y-130310500D01*
X85688913Y-130281658D01*
X85825495Y-130225084D01*
X85948416Y-130142951D01*
X86052951Y-130038416D01*
X86135084Y-129915495D01*
X86191658Y-129778913D01*
X86220500Y-129633918D01*
X86220500Y-128386082D01*
X86191658Y-128241087D01*
X86135084Y-128104505D01*
X86052951Y-127981584D01*
X85948416Y-127877049D01*
X85825495Y-127794916D01*
X85825493Y-127794915D01*
X85688914Y-127738342D01*
X85688912Y-127738341D01*
X85543920Y-127709500D01*
X85543918Y-127709500D01*
X85396082Y-127709500D01*
X85396081Y-127709500D01*
X85396078Y-127709500D01*
X85251085Y-127738342D01*
X85251083Y-127738342D01*
X85114510Y-127794912D01*
X85114498Y-127794918D01*
X84991586Y-127877047D01*
X84887047Y-127981586D01*
X84804918Y-128104498D01*
X84804914Y-128104507D01*
X84752148Y-128231896D01*
X84747057Y-128242391D01*
X84736141Y-128261879D01*
X84691208Y-128303408D01*
X84630446Y-128310594D01*
X84580226Y-128283960D01*
X84577983Y-128281746D01*
X84575325Y-128279122D01*
X84559137Y-128258170D01*
X84501986Y-128159182D01*
X84500809Y-128156994D01*
X84500623Y-128156744D01*
X84500516Y-128156637D01*
X84500515Y-128156635D01*
X84393365Y-128049485D01*
X84393362Y-128049483D01*
X84393360Y-128049481D01*
X84393359Y-128049480D01*
X84319426Y-128006795D01*
X84298390Y-127983432D01*
X84205347Y-127958503D01*
X84205346Y-127958502D01*
X84139768Y-127940931D01*
X84115766Y-127934500D01*
X84115765Y-127934500D01*
X83964235Y-127934500D01*
X83964234Y-127934500D01*
X83945304Y-127939572D01*
X83874652Y-127958502D01*
X83874652Y-127958503D01*
X83817860Y-127973720D01*
X83817858Y-127973720D01*
X83817854Y-127973722D01*
X83686643Y-128049477D01*
X83579477Y-128156643D01*
X83503721Y-128287856D01*
X83503719Y-128287860D01*
X83495496Y-128318547D01*
X83495497Y-128318548D01*
X83477403Y-128386079D01*
X83464500Y-128434234D01*
X78835500Y-128434234D01*
X78796281Y-128287865D01*
X78796279Y-128287862D01*
X78796279Y-128287860D01*
X78791236Y-128279125D01*
X78721991Y-128159189D01*
X78720811Y-128156997D01*
X78720623Y-128156744D01*
X78720516Y-128156637D01*
X78720515Y-128156635D01*
X78613365Y-128049485D01*
X78613362Y-128049483D01*
X78613360Y-128049481D01*
X78613359Y-128049480D01*
X78539426Y-128006795D01*
X78518390Y-127983432D01*
X78425347Y-127958503D01*
X78425346Y-127958502D01*
X78359768Y-127940931D01*
X78335766Y-127934500D01*
X78335765Y-127934500D01*
X78184235Y-127934500D01*
X78184234Y-127934500D01*
X78165304Y-127939572D01*
X78094652Y-127958502D01*
X78094652Y-127958503D01*
X78037860Y-127973720D01*
X78037858Y-127973720D01*
X78037854Y-127973722D01*
X77906643Y-128049477D01*
X77799481Y-128156639D01*
X77742025Y-128256155D01*
X77722528Y-128280230D01*
X77715168Y-128286856D01*
X77659270Y-128311738D01*
X77599423Y-128299013D01*
X77560425Y-128257641D01*
X77554279Y-128245378D01*
X77554277Y-128245378D01*
X77551010Y-128238858D01*
X77548062Y-128232406D01*
X77495084Y-128104505D01*
X77412951Y-127981584D01*
X77308416Y-127877049D01*
X77185495Y-127794916D01*
X77185493Y-127794915D01*
X77048914Y-127738342D01*
X77048912Y-127738341D01*
X76903920Y-127709500D01*
X76903918Y-127709500D01*
X76756082Y-127709500D01*
X76756081Y-127709500D01*
X76756078Y-127709500D01*
X76611085Y-127738342D01*
X76611083Y-127738342D01*
X76474510Y-127794912D01*
X76474498Y-127794918D01*
X76351586Y-127877047D01*
X76247047Y-127981586D01*
X76164918Y-128104498D01*
X76164914Y-128104507D01*
X76108343Y-128241081D01*
X76108342Y-128241084D01*
X76108342Y-128241085D01*
X76092934Y-128318547D01*
X76092933Y-128318550D01*
X76079500Y-128386079D01*
X73150500Y-128386079D01*
X73150500Y-126714680D01*
X73155343Y-126684094D01*
X73159465Y-126671405D01*
X73195423Y-126621906D01*
X73196022Y-126621471D01*
X73199563Y-126618900D01*
X73257743Y-126600000D01*
X91034820Y-126600000D01*
X91065408Y-126604843D01*
G37*
G04 #@! TD.AperFunction*
G04 #@! TA.AperFunction,Conductor*
G36*
X78465908Y-149904843D02*
G01*
X78478595Y-149908966D01*
X78528095Y-149944927D01*
X78528096Y-149944928D01*
X78531091Y-149949050D01*
X78550000Y-150007240D01*
X78550000Y-150455401D01*
X78545155Y-150485993D01*
X78542839Y-150493121D01*
X78506875Y-150542621D01*
X78479271Y-150556685D01*
X78420129Y-150575897D01*
X78420122Y-150575900D01*
X78348948Y-150612148D01*
X78344803Y-150615157D01*
X78344784Y-150615174D01*
X78288209Y-150671740D01*
X78252252Y-150721238D01*
X78215963Y-150792471D01*
X78211845Y-150805148D01*
X78202487Y-150844135D01*
X78197642Y-150874728D01*
X78194920Y-150909336D01*
X78194500Y-150914680D01*
X78194500Y-152063063D01*
X78196119Y-152089479D01*
X78196414Y-152094284D01*
X78199368Y-152118283D01*
X78205086Y-152149050D01*
X78210818Y-152171976D01*
X78220249Y-152201807D01*
X78228940Y-152224383D01*
X78241939Y-152252823D01*
X78241943Y-152252830D01*
X78538353Y-152808597D01*
X78550000Y-152855185D01*
X78550000Y-154218948D01*
X78531093Y-154277139D01*
X78520999Y-154288956D01*
X78488209Y-154321740D01*
X78452252Y-154371238D01*
X78415963Y-154442471D01*
X78411845Y-154455148D01*
X78402487Y-154494135D01*
X78397642Y-154524728D01*
X78394500Y-154564683D01*
X78394500Y-157692754D01*
X78407000Y-157771695D01*
X78425900Y-157829876D01*
X78462177Y-157901089D01*
X78477760Y-157922542D01*
X78488586Y-157928055D01*
X78489218Y-157928692D01*
X78521617Y-157961666D01*
X78548913Y-158016422D01*
X78550000Y-158031050D01*
X78550000Y-158990000D01*
X77930000Y-158990000D01*
X77930000Y-163530000D01*
X75614680Y-163530000D01*
X75584087Y-163525154D01*
X75571401Y-163521032D01*
X75521901Y-163485068D01*
X75521894Y-163485058D01*
X75518900Y-163480936D01*
X75500000Y-163422756D01*
X75500000Y-150014680D01*
X75504843Y-149984094D01*
X75508965Y-149971405D01*
X75544923Y-149921906D01*
X75545522Y-149921471D01*
X75549063Y-149918900D01*
X75607243Y-149900000D01*
X78435320Y-149900000D01*
X78465908Y-149904843D01*
G37*
G04 #@! TD.AperFunction*
G04 #@! TA.AperFunction,Conductor*
G36*
X80744877Y-142590789D02*
G01*
X80790483Y-142614027D01*
X80803169Y-142618149D01*
X80842151Y-142627508D01*
X80872738Y-142632353D01*
X80872744Y-142632354D01*
X80912717Y-142635500D01*
X80949545Y-142635500D01*
X81007736Y-142654407D01*
X81043700Y-142703907D01*
X81048538Y-142733364D01*
X81095752Y-146848086D01*
X81095753Y-146848097D01*
X81108165Y-146923888D01*
X81126291Y-146979858D01*
X81126290Y-146979858D01*
X81160662Y-147048533D01*
X81160665Y-147048538D01*
X81163813Y-147052996D01*
X81219569Y-147110268D01*
X81219572Y-147110271D01*
X81260261Y-147140675D01*
X81295556Y-147190652D01*
X81300000Y-147219979D01*
X81300000Y-149585319D01*
X81295154Y-149615912D01*
X81291032Y-149628598D01*
X81255080Y-149678089D01*
X81250959Y-149681084D01*
X81192771Y-149700000D01*
X78648106Y-149700000D01*
X78603160Y-149689209D01*
X78557562Y-149665975D01*
X78557556Y-149665972D01*
X78544882Y-149661854D01*
X78544861Y-149661848D01*
X78505865Y-149652487D01*
X78505860Y-149652486D01*
X78475271Y-149647643D01*
X78448965Y-149645573D01*
X78435320Y-149644500D01*
X78435316Y-149644500D01*
X75607244Y-149644500D01*
X75607243Y-149644500D01*
X75544983Y-149654358D01*
X75484552Y-149644785D01*
X75441289Y-149601519D01*
X75430500Y-149556577D01*
X75430500Y-142794729D01*
X75449407Y-142736538D01*
X75498907Y-142700574D01*
X75529560Y-142695729D01*
X76022532Y-142696052D01*
X76022565Y-142696052D01*
X76022764Y-142696052D01*
X76022767Y-142696052D01*
X76062240Y-142689799D01*
X76101716Y-142683547D01*
X76159907Y-142664640D01*
X76231134Y-142628349D01*
X76235248Y-142625360D01*
X76251613Y-142608994D01*
X76306128Y-142581219D01*
X76321615Y-142580000D01*
X80699933Y-142580000D01*
X80744877Y-142590789D01*
G37*
G04 #@! TD.AperFunction*
M02*
