G04 #@! TF.GenerationSoftware,KiCad,Pcbnew,10.0.6-rc2*
G04 #@! TF.CreationDate,2026-08-25T12:55:28+02:00*
G04 #@! TF.ProjectId,unni-usb-power,756e6e69-2d75-4736-922d-706f7765722e,rev?*
G04 #@! TF.SameCoordinates,Original*
G04 #@! TF.FileFunction,Legend,Bot*
G04 #@! TF.FilePolarity,Positive*
%FSLAX46Y46*%
G04 Gerber Fmt 4.6, Leading zero omitted, Abs format (unit mm)*
G04 Created by KiCad (PCBNEW 10.0.6-rc2) date 2026-08-25 12:55:28*
%MOMM*%
%LPD*%
G01*
G04 APERTURE LIST*
%ADD10C,0.100000*%
%ADD11C,0.120000*%
%ADD12C,0.127000*%
%ADD13C,0.200000*%
G04 APERTURE END LIST*
D10*
X88253332Y-128794895D02*
X88519999Y-128413942D01*
X88710475Y-128794895D02*
X88710475Y-127994895D01*
X88710475Y-127994895D02*
X88405713Y-127994895D01*
X88405713Y-127994895D02*
X88329523Y-128032990D01*
X88329523Y-128032990D02*
X88291428Y-128071085D01*
X88291428Y-128071085D02*
X88253332Y-128147276D01*
X88253332Y-128147276D02*
X88253332Y-128261561D01*
X88253332Y-128261561D02*
X88291428Y-128337752D01*
X88291428Y-128337752D02*
X88329523Y-128375847D01*
X88329523Y-128375847D02*
X88405713Y-128413942D01*
X88405713Y-128413942D02*
X88710475Y-128413942D01*
X87948571Y-128071085D02*
X87910475Y-128032990D01*
X87910475Y-128032990D02*
X87834285Y-127994895D01*
X87834285Y-127994895D02*
X87643809Y-127994895D01*
X87643809Y-127994895D02*
X87567618Y-128032990D01*
X87567618Y-128032990D02*
X87529523Y-128071085D01*
X87529523Y-128071085D02*
X87491428Y-128147276D01*
X87491428Y-128147276D02*
X87491428Y-128223466D01*
X87491428Y-128223466D02*
X87529523Y-128337752D01*
X87529523Y-128337752D02*
X87986666Y-128794895D01*
X87986666Y-128794895D02*
X87491428Y-128794895D01*
X75566666Y-129524895D02*
X75566666Y-130096323D01*
X75566666Y-130096323D02*
X75604761Y-130210609D01*
X75604761Y-130210609D02*
X75680952Y-130286800D01*
X75680952Y-130286800D02*
X75795237Y-130324895D01*
X75795237Y-130324895D02*
X75871428Y-130324895D01*
X74766666Y-130324895D02*
X75223809Y-130324895D01*
X74995237Y-130324895D02*
X74995237Y-129524895D01*
X74995237Y-129524895D02*
X75071428Y-129639180D01*
X75071428Y-129639180D02*
X75147618Y-129715371D01*
X75147618Y-129715371D02*
X75223809Y-129753466D01*
X76689523Y-131294895D02*
X76689523Y-131942514D01*
X76689523Y-131942514D02*
X76651428Y-132018704D01*
X76651428Y-132018704D02*
X76613333Y-132056800D01*
X76613333Y-132056800D02*
X76537142Y-132094895D01*
X76537142Y-132094895D02*
X76384761Y-132094895D01*
X76384761Y-132094895D02*
X76308571Y-132056800D01*
X76308571Y-132056800D02*
X76270476Y-132018704D01*
X76270476Y-132018704D02*
X76232380Y-131942514D01*
X76232380Y-131942514D02*
X76232380Y-131294895D01*
X75508571Y-131561561D02*
X75508571Y-132094895D01*
X75699047Y-131256800D02*
X75889524Y-131828228D01*
X75889524Y-131828228D02*
X75394285Y-131828228D01*
X86463332Y-127924895D02*
X86729999Y-127543942D01*
X86920475Y-127924895D02*
X86920475Y-127124895D01*
X86920475Y-127124895D02*
X86615713Y-127124895D01*
X86615713Y-127124895D02*
X86539523Y-127162990D01*
X86539523Y-127162990D02*
X86501428Y-127201085D01*
X86501428Y-127201085D02*
X86463332Y-127277276D01*
X86463332Y-127277276D02*
X86463332Y-127391561D01*
X86463332Y-127391561D02*
X86501428Y-127467752D01*
X86501428Y-127467752D02*
X86539523Y-127505847D01*
X86539523Y-127505847D02*
X86615713Y-127543942D01*
X86615713Y-127543942D02*
X86920475Y-127543942D01*
X85701428Y-127924895D02*
X86158571Y-127924895D01*
X85929999Y-127924895D02*
X85929999Y-127124895D01*
X85929999Y-127124895D02*
X86006190Y-127239180D01*
X86006190Y-127239180D02*
X86082380Y-127315371D01*
X86082380Y-127315371D02*
X86158571Y-127353466D01*
D11*
X86535000Y-131057064D02*
X86535000Y-130602936D01*
X88005000Y-131057064D02*
X88005000Y-130602936D01*
D12*
X76680000Y-123580000D02*
X76680000Y-122230000D01*
X76680000Y-127580000D02*
X76680000Y-126080000D01*
X85620000Y-123580000D02*
X85620000Y-122230000D01*
X85620000Y-127580000D02*
X85620000Y-126080000D01*
D13*
X78050000Y-130730000D02*
G75*
G02*
X77850000Y-130730000I-100000J0D01*
G01*
X77850000Y-130730000D02*
G75*
G02*
X78050000Y-130730000I100000J0D01*
G01*
D11*
X77400000Y-131650000D02*
X77400000Y-132580000D01*
X77400000Y-134810000D02*
X77400000Y-133880000D01*
X77400000Y-134810000D02*
X78860000Y-134810000D01*
X78200000Y-131650000D02*
X77400000Y-131650000D01*
X78200000Y-131650000D02*
X79000000Y-131650000D01*
X79500000Y-131620000D02*
X79740000Y-131290000D01*
X79260000Y-131290000D01*
X79500000Y-131620000D01*
G36*
X79500000Y-131620000D02*
G01*
X79260000Y-131290000D01*
X79740000Y-131290000D01*
X79500000Y-131620000D01*
G37*
X86545000Y-125637064D02*
X86545000Y-125182936D01*
X88015000Y-125637064D02*
X88015000Y-125182936D01*
M02*
