G04 #@! TF.GenerationSoftware,KiCad,Pcbnew,10.0.6-rc2*
G04 #@! TF.CreationDate,2026-08-25T12:43:25+02:00*
G04 #@! TF.ProjectId,unni-usb-power,756e6e69-2d75-4736-922d-706f7765722e,rev?*
G04 #@! TF.SameCoordinates,Original*
G04 #@! TF.FileFunction,Copper,L2,Inr*
G04 #@! TF.FilePolarity,Positive*
%FSLAX46Y46*%
G04 Gerber Fmt 4.6, Leading zero omitted, Abs format (unit mm)*
G04 Created by KiCad (PCBNEW 10.0.6-rc2) date 2026-08-25 12:43:25*
%MOMM*%
%LPD*%
G01*
G04 APERTURE LIST*
G04 Aperture macros list*
%AMRoundRect*
0 Rectangle with rounded corners*
0 $1 Rounding radius*
0 $2 $3 $4 $5 $6 $7 $8 $9 X,Y pos of 4 corners*
0 Add a 4 corners polygon primitive as box body*
4,1,4,$2,$3,$4,$5,$6,$7,$8,$9,$2,$3,0*
0 Add four circle primitives for the rounded corners*
1,1,$1+$1,$2,$3*
1,1,$1+$1,$4,$5*
1,1,$1+$1,$6,$7*
1,1,$1+$1,$8,$9*
0 Add four rect primitives between the rounded corners*
20,1,$1+$1,$2,$3,$4,$5,0*
20,1,$1+$1,$4,$5,$6,$7,0*
20,1,$1+$1,$6,$7,$8,$9,0*
20,1,$1+$1,$8,$9,$2,$3,0*%
G04 Aperture macros list end*
G04 #@! TA.AperFunction,ComponentPad*
%ADD10RoundRect,0.250000X0.350000X0.625000X-0.350000X0.625000X-0.350000X-0.625000X0.350000X-0.625000X0*%
G04 #@! TD*
G04 #@! TA.AperFunction,ComponentPad*
%ADD11O,1.200000X1.750000*%
G04 #@! TD*
G04 #@! TA.AperFunction,ComponentPad*
%ADD12O,1.000000X2.100000*%
G04 #@! TD*
G04 #@! TA.AperFunction,ComponentPad*
%ADD13O,1.000000X1.800000*%
G04 #@! TD*
G04 #@! TA.AperFunction,ViaPad*
%ADD14C,0.600000*%
G04 #@! TD*
G04 APERTURE END LIST*
D10*
X87160000Y-185940000D03*
D11*
X85160000Y-185940000D03*
X83160000Y-185940000D03*
X81160000Y-185940000D03*
X79160000Y-185940000D03*
X77160000Y-185940000D03*
D12*
X76830000Y-129010000D03*
X85470000Y-129010000D03*
D13*
X76830000Y-124830000D03*
X85470000Y-124830000D03*
D14*
X76500000Y-159000000D03*
X76500000Y-162000000D03*
X86100000Y-135800000D03*
X84700000Y-135800000D03*
X84700000Y-144200000D03*
X85400000Y-137200000D03*
X78000000Y-159000000D03*
X75900000Y-150350000D03*
X76900000Y-155300000D03*
X77800000Y-152100000D03*
X75950000Y-157850000D03*
X84700000Y-138600000D03*
X84700000Y-141400000D03*
X75900000Y-152100000D03*
X78000000Y-162000000D03*
X77250000Y-160500000D03*
X86100000Y-138600000D03*
X76900000Y-153200000D03*
X75750000Y-148500000D03*
X79500000Y-147000000D03*
X79500000Y-144000000D03*
X78750000Y-145500000D03*
X80250000Y-145500000D03*
X78000000Y-147000000D03*
X78000000Y-144000000D03*
X77250000Y-145500000D03*
X76500000Y-147000000D03*
X78800000Y-131050000D03*
X83550000Y-131050000D03*
X82260000Y-130890000D03*
X80960000Y-131900000D03*
X81130000Y-181180000D03*
G04 #@! TA.AperFunction,Conductor*
G36*
X91108691Y-123719407D02*
G01*
X91144655Y-123768907D01*
X91149500Y-123799500D01*
X91149500Y-187600500D01*
X91130593Y-187658691D01*
X91081093Y-187694655D01*
X91050500Y-187699500D01*
X73249500Y-187699500D01*
X73191309Y-187680593D01*
X73155345Y-187631093D01*
X73150500Y-187600500D01*
X73150500Y-185581230D01*
X76309500Y-185581230D01*
X76309500Y-186298769D01*
X76342183Y-186463079D01*
X76342185Y-186463085D01*
X76406296Y-186617862D01*
X76406297Y-186617863D01*
X76499374Y-186757162D01*
X76617838Y-186875626D01*
X76757137Y-186968703D01*
X76911918Y-187032816D01*
X77076233Y-187065500D01*
X77076234Y-187065500D01*
X77243766Y-187065500D01*
X77243767Y-187065500D01*
X77408082Y-187032816D01*
X77562863Y-186968703D01*
X77702162Y-186875626D01*
X77820626Y-186757162D01*
X77913703Y-186617863D01*
X77977816Y-186463082D01*
X78010500Y-186298767D01*
X78010500Y-185581233D01*
X78010499Y-185581230D01*
X78309500Y-185581230D01*
X78309500Y-186298769D01*
X78342183Y-186463079D01*
X78342185Y-186463085D01*
X78406296Y-186617862D01*
X78406297Y-186617863D01*
X78499374Y-186757162D01*
X78617838Y-186875626D01*
X78757137Y-186968703D01*
X78911918Y-187032816D01*
X79076233Y-187065500D01*
X79076234Y-187065500D01*
X79243766Y-187065500D01*
X79243767Y-187065500D01*
X79408082Y-187032816D01*
X79562863Y-186968703D01*
X79702162Y-186875626D01*
X79820626Y-186757162D01*
X79913703Y-186617863D01*
X79977816Y-186463082D01*
X80010500Y-186298767D01*
X80010500Y-185581233D01*
X80010499Y-185581230D01*
X80309500Y-185581230D01*
X80309500Y-186298769D01*
X80342183Y-186463079D01*
X80342185Y-186463085D01*
X80406296Y-186617862D01*
X80406297Y-186617863D01*
X80499374Y-186757162D01*
X80617838Y-186875626D01*
X80757137Y-186968703D01*
X80911918Y-187032816D01*
X81076233Y-187065500D01*
X81076234Y-187065500D01*
X81243766Y-187065500D01*
X81243767Y-187065500D01*
X81408082Y-187032816D01*
X81562863Y-186968703D01*
X81702162Y-186875626D01*
X81820626Y-186757162D01*
X81913703Y-186617863D01*
X81977816Y-186463082D01*
X82010500Y-186298767D01*
X82010500Y-185581233D01*
X82010499Y-185581230D01*
X84309500Y-185581230D01*
X84309500Y-186298769D01*
X84342183Y-186463079D01*
X84342185Y-186463085D01*
X84406296Y-186617862D01*
X84406297Y-186617863D01*
X84499374Y-186757162D01*
X84617838Y-186875626D01*
X84757137Y-186968703D01*
X84911918Y-187032816D01*
X85076233Y-187065500D01*
X85076234Y-187065500D01*
X85243766Y-187065500D01*
X85243767Y-187065500D01*
X85408082Y-187032816D01*
X85562863Y-186968703D01*
X85702162Y-186875626D01*
X85820626Y-186757162D01*
X85913703Y-186617863D01*
X85977816Y-186463082D01*
X86010500Y-186298767D01*
X86010500Y-185581233D01*
X85977816Y-185416918D01*
X85915771Y-185267129D01*
X86309500Y-185267129D01*
X86309500Y-186612866D01*
X86309500Y-186612869D01*
X86309501Y-186612872D01*
X86310038Y-186617863D01*
X86315908Y-186672480D01*
X86315909Y-186672485D01*
X86366202Y-186807329D01*
X86452450Y-186922541D01*
X86452454Y-186922546D01*
X86452457Y-186922548D01*
X86452458Y-186922549D01*
X86567670Y-187008797D01*
X86702511Y-187059089D01*
X86702512Y-187059089D01*
X86702517Y-187059091D01*
X86762127Y-187065500D01*
X87557872Y-187065499D01*
X87617483Y-187059091D01*
X87687935Y-187032814D01*
X87752329Y-187008797D01*
X87752329Y-187008796D01*
X87752331Y-187008796D01*
X87867546Y-186922546D01*
X87953796Y-186807331D01*
X88004091Y-186672483D01*
X88010500Y-186612873D01*
X88010499Y-185267128D01*
X88004091Y-185207517D01*
X87972508Y-185122838D01*
X87953797Y-185072670D01*
X87867549Y-184957458D01*
X87867548Y-184957457D01*
X87867546Y-184957454D01*
X87867541Y-184957450D01*
X87752329Y-184871202D01*
X87617488Y-184820910D01*
X87617483Y-184820909D01*
X87617481Y-184820908D01*
X87617477Y-184820908D01*
X87586249Y-184817550D01*
X87557873Y-184814500D01*
X87557870Y-184814500D01*
X86762133Y-184814500D01*
X86762129Y-184814500D01*
X86762128Y-184814501D01*
X86754949Y-184815272D01*
X86702519Y-184820908D01*
X86702514Y-184820909D01*
X86567670Y-184871202D01*
X86452458Y-184957450D01*
X86452450Y-184957458D01*
X86366202Y-185072670D01*
X86315910Y-185207511D01*
X86315908Y-185207522D01*
X86309500Y-185267129D01*
X85915771Y-185267129D01*
X85913703Y-185262137D01*
X85820626Y-185122838D01*
X85702162Y-185004374D01*
X85562863Y-184911297D01*
X85562864Y-184911297D01*
X85562862Y-184911296D01*
X85408085Y-184847185D01*
X85408079Y-184847183D01*
X85243769Y-184814500D01*
X85243767Y-184814500D01*
X85076233Y-184814500D01*
X85076230Y-184814500D01*
X84911920Y-184847183D01*
X84911914Y-184847185D01*
X84757137Y-184911296D01*
X84617838Y-185004374D01*
X84617834Y-185004377D01*
X84499377Y-185122834D01*
X84499374Y-185122838D01*
X84406296Y-185262137D01*
X84342185Y-185416914D01*
X84342183Y-185416920D01*
X84309500Y-185581230D01*
X82010499Y-185581230D01*
X81977816Y-185416918D01*
X81913703Y-185262137D01*
X81820626Y-185122838D01*
X81702162Y-185004374D01*
X81562863Y-184911297D01*
X81562864Y-184911297D01*
X81562862Y-184911296D01*
X81408085Y-184847185D01*
X81408079Y-184847183D01*
X81243769Y-184814500D01*
X81243767Y-184814500D01*
X81076233Y-184814500D01*
X81076230Y-184814500D01*
X80911920Y-184847183D01*
X80911914Y-184847185D01*
X80757137Y-184911296D01*
X80617838Y-185004374D01*
X80617834Y-185004377D01*
X80499377Y-185122834D01*
X80499374Y-185122838D01*
X80406296Y-185262137D01*
X80342185Y-185416914D01*
X80342183Y-185416920D01*
X80309500Y-185581230D01*
X80010499Y-185581230D01*
X79977816Y-185416918D01*
X79913703Y-185262137D01*
X79820626Y-185122838D01*
X79702162Y-185004374D01*
X79562863Y-184911297D01*
X79562864Y-184911297D01*
X79562862Y-184911296D01*
X79408085Y-184847185D01*
X79408079Y-184847183D01*
X79243769Y-184814500D01*
X79243767Y-184814500D01*
X79076233Y-184814500D01*
X79076230Y-184814500D01*
X78911920Y-184847183D01*
X78911914Y-184847185D01*
X78757137Y-184911296D01*
X78617838Y-185004374D01*
X78617834Y-185004377D01*
X78499377Y-185122834D01*
X78499374Y-185122838D01*
X78406296Y-185262137D01*
X78342185Y-185416914D01*
X78342183Y-185416920D01*
X78309500Y-185581230D01*
X78010499Y-185581230D01*
X77977816Y-185416918D01*
X77913703Y-185262137D01*
X77820626Y-185122838D01*
X77702162Y-185004374D01*
X77562863Y-184911297D01*
X77562864Y-184911297D01*
X77562862Y-184911296D01*
X77408085Y-184847185D01*
X77408079Y-184847183D01*
X77243769Y-184814500D01*
X77243767Y-184814500D01*
X77076233Y-184814500D01*
X77076230Y-184814500D01*
X76911920Y-184847183D01*
X76911914Y-184847185D01*
X76757137Y-184911296D01*
X76617838Y-185004374D01*
X76617834Y-185004377D01*
X76499377Y-185122834D01*
X76499374Y-185122838D01*
X76406296Y-185262137D01*
X76342185Y-185416914D01*
X76342183Y-185416920D01*
X76309500Y-185581230D01*
X73150500Y-185581230D01*
X73150500Y-181107525D01*
X80579500Y-181107525D01*
X80579500Y-181252474D01*
X80617017Y-181392489D01*
X80689487Y-181518010D01*
X80689489Y-181518012D01*
X80689491Y-181518015D01*
X80791985Y-181620509D01*
X80791987Y-181620510D01*
X80791989Y-181620512D01*
X80917511Y-181692982D01*
X80917512Y-181692982D01*
X80917515Y-181692984D01*
X81057525Y-181730500D01*
X81057526Y-181730500D01*
X81202474Y-181730500D01*
X81202475Y-181730500D01*
X81342485Y-181692984D01*
X81342487Y-181692982D01*
X81342489Y-181692982D01*
X81468010Y-181620512D01*
X81468010Y-181620511D01*
X81468015Y-181620509D01*
X81570509Y-181518015D01*
X81642984Y-181392485D01*
X81680500Y-181252475D01*
X81680500Y-181107525D01*
X81642984Y-180967515D01*
X81642982Y-180967512D01*
X81642982Y-180967510D01*
X81570512Y-180841989D01*
X81570510Y-180841987D01*
X81570509Y-180841985D01*
X81468015Y-180739491D01*
X81468012Y-180739489D01*
X81468010Y-180739487D01*
X81342488Y-180667017D01*
X81342489Y-180667017D01*
X81312896Y-180659087D01*
X81202475Y-180629500D01*
X81057525Y-180629500D01*
X80995790Y-180646041D01*
X80917510Y-180667017D01*
X80791989Y-180739487D01*
X80689487Y-180841989D01*
X80617017Y-180967510D01*
X80579500Y-181107525D01*
X73150500Y-181107525D01*
X73150500Y-148427525D01*
X75199500Y-148427525D01*
X75199500Y-148572474D01*
X75237017Y-148712489D01*
X75309487Y-148838010D01*
X75309489Y-148838012D01*
X75309491Y-148838015D01*
X75411985Y-148940509D01*
X75411987Y-148940510D01*
X75411989Y-148940512D01*
X75537511Y-149012982D01*
X75537512Y-149012982D01*
X75537515Y-149012984D01*
X75677525Y-149050500D01*
X75677526Y-149050500D01*
X75822474Y-149050500D01*
X75822475Y-149050500D01*
X75962485Y-149012984D01*
X75962487Y-149012982D01*
X75962489Y-149012982D01*
X76088010Y-148940512D01*
X76088010Y-148940511D01*
X76088015Y-148940509D01*
X76190509Y-148838015D01*
X76262984Y-148712485D01*
X76300500Y-148572475D01*
X76300500Y-148427525D01*
X76262984Y-148287515D01*
X76262982Y-148287512D01*
X76262982Y-148287510D01*
X76190512Y-148161989D01*
X76190510Y-148161987D01*
X76190509Y-148161985D01*
X76088015Y-148059491D01*
X76088012Y-148059489D01*
X76088010Y-148059487D01*
X75962488Y-147987017D01*
X75962489Y-147987017D01*
X75932896Y-147979087D01*
X75822475Y-147949500D01*
X75677525Y-147949500D01*
X75615790Y-147966041D01*
X75537510Y-147987017D01*
X75411989Y-148059487D01*
X75309487Y-148161989D01*
X75237017Y-148287510D01*
X75199500Y-148427525D01*
X73150500Y-148427525D01*
X73150500Y-146927525D01*
X75949500Y-146927525D01*
X75949500Y-147072474D01*
X75987017Y-147212489D01*
X76059487Y-147338010D01*
X76059489Y-147338012D01*
X76059491Y-147338015D01*
X76161985Y-147440509D01*
X76161987Y-147440510D01*
X76161989Y-147440512D01*
X76287511Y-147512982D01*
X76287512Y-147512982D01*
X76287515Y-147512984D01*
X76427525Y-147550500D01*
X76427526Y-147550500D01*
X76572474Y-147550500D01*
X76572475Y-147550500D01*
X76712485Y-147512984D01*
X76712487Y-147512982D01*
X76712489Y-147512982D01*
X76838010Y-147440512D01*
X76838010Y-147440511D01*
X76838015Y-147440509D01*
X76940509Y-147338015D01*
X77012984Y-147212485D01*
X77050500Y-147072475D01*
X77050500Y-146927525D01*
X77449500Y-146927525D01*
X77449500Y-147072474D01*
X77487017Y-147212489D01*
X77559487Y-147338010D01*
X77559489Y-147338012D01*
X77559491Y-147338015D01*
X77661985Y-147440509D01*
X77661987Y-147440510D01*
X77661989Y-147440512D01*
X77787511Y-147512982D01*
X77787512Y-147512982D01*
X77787515Y-147512984D01*
X77927525Y-147550500D01*
X77927526Y-147550500D01*
X78072474Y-147550500D01*
X78072475Y-147550500D01*
X78212485Y-147512984D01*
X78212487Y-147512982D01*
X78212489Y-147512982D01*
X78338010Y-147440512D01*
X78338010Y-147440511D01*
X78338015Y-147440509D01*
X78440509Y-147338015D01*
X78512984Y-147212485D01*
X78550500Y-147072475D01*
X78550500Y-146927525D01*
X78949500Y-146927525D01*
X78949500Y-147072474D01*
X78987017Y-147212489D01*
X79059487Y-147338010D01*
X79059489Y-147338012D01*
X79059491Y-147338015D01*
X79161985Y-147440509D01*
X79161987Y-147440510D01*
X79161989Y-147440512D01*
X79287511Y-147512982D01*
X79287512Y-147512982D01*
X79287515Y-147512984D01*
X79427525Y-147550500D01*
X79427526Y-147550500D01*
X79572474Y-147550500D01*
X79572475Y-147550500D01*
X79712485Y-147512984D01*
X79712487Y-147512982D01*
X79712489Y-147512982D01*
X79838010Y-147440512D01*
X79838010Y-147440511D01*
X79838015Y-147440509D01*
X79940509Y-147338015D01*
X80012984Y-147212485D01*
X80050500Y-147072475D01*
X80050500Y-146927525D01*
X80012984Y-146787515D01*
X80012982Y-146787512D01*
X80012982Y-146787510D01*
X79940512Y-146661989D01*
X79940510Y-146661987D01*
X79940509Y-146661985D01*
X79838015Y-146559491D01*
X79838012Y-146559489D01*
X79838010Y-146559487D01*
X79712488Y-146487017D01*
X79712489Y-146487017D01*
X79682896Y-146479087D01*
X79572475Y-146449500D01*
X79427525Y-146449500D01*
X79365790Y-146466041D01*
X79287510Y-146487017D01*
X79161989Y-146559487D01*
X79059487Y-146661989D01*
X78987017Y-146787510D01*
X78949500Y-146927525D01*
X78550500Y-146927525D01*
X78512984Y-146787515D01*
X78512982Y-146787512D01*
X78512982Y-146787510D01*
X78440512Y-146661989D01*
X78440510Y-146661987D01*
X78440509Y-146661985D01*
X78338015Y-146559491D01*
X78338012Y-146559489D01*
X78338010Y-146559487D01*
X78212488Y-146487017D01*
X78212489Y-146487017D01*
X78182896Y-146479087D01*
X78072475Y-146449500D01*
X77927525Y-146449500D01*
X77865790Y-146466041D01*
X77787510Y-146487017D01*
X77661989Y-146559487D01*
X77559487Y-146661989D01*
X77487017Y-146787510D01*
X77449500Y-146927525D01*
X77050500Y-146927525D01*
X77012984Y-146787515D01*
X77012982Y-146787512D01*
X77012982Y-146787510D01*
X76940512Y-146661989D01*
X76940510Y-146661987D01*
X76940509Y-146661985D01*
X76838015Y-146559491D01*
X76838012Y-146559489D01*
X76838010Y-146559487D01*
X76712488Y-146487017D01*
X76712489Y-146487017D01*
X76682896Y-146479087D01*
X76572475Y-146449500D01*
X76427525Y-146449500D01*
X76365790Y-146466041D01*
X76287510Y-146487017D01*
X76161989Y-146559487D01*
X76059487Y-146661989D01*
X75987017Y-146787510D01*
X75949500Y-146927525D01*
X73150500Y-146927525D01*
X73150500Y-145427525D01*
X76699500Y-145427525D01*
X76699500Y-145572474D01*
X76737017Y-145712489D01*
X76809487Y-145838010D01*
X76809489Y-145838012D01*
X76809491Y-145838015D01*
X76911985Y-145940509D01*
X76911987Y-145940510D01*
X76911989Y-145940512D01*
X77037511Y-146012982D01*
X77037512Y-146012982D01*
X77037515Y-146012984D01*
X77177525Y-146050500D01*
X77177526Y-146050500D01*
X77322474Y-146050500D01*
X77322475Y-146050500D01*
X77462485Y-146012984D01*
X77462487Y-146012982D01*
X77462489Y-146012982D01*
X77588010Y-145940512D01*
X77588010Y-145940511D01*
X77588015Y-145940509D01*
X77690509Y-145838015D01*
X77762984Y-145712485D01*
X77800500Y-145572475D01*
X77800500Y-145427525D01*
X78199500Y-145427525D01*
X78199500Y-145572474D01*
X78237017Y-145712489D01*
X78309487Y-145838010D01*
X78309489Y-145838012D01*
X78309491Y-145838015D01*
X78411985Y-145940509D01*
X78411987Y-145940510D01*
X78411989Y-145940512D01*
X78537511Y-146012982D01*
X78537512Y-146012982D01*
X78537515Y-146012984D01*
X78677525Y-146050500D01*
X78677526Y-146050500D01*
X78822474Y-146050500D01*
X78822475Y-146050500D01*
X78962485Y-146012984D01*
X78962487Y-146012982D01*
X78962489Y-146012982D01*
X79088010Y-145940512D01*
X79088010Y-145940511D01*
X79088015Y-145940509D01*
X79190509Y-145838015D01*
X79262984Y-145712485D01*
X79300500Y-145572475D01*
X79300500Y-145427525D01*
X79699500Y-145427525D01*
X79699500Y-145572474D01*
X79737017Y-145712489D01*
X79809487Y-145838010D01*
X79809489Y-145838012D01*
X79809491Y-145838015D01*
X79911985Y-145940509D01*
X79911987Y-145940510D01*
X79911989Y-145940512D01*
X80037511Y-146012982D01*
X80037512Y-146012982D01*
X80037515Y-146012984D01*
X80177525Y-146050500D01*
X80177526Y-146050500D01*
X80322474Y-146050500D01*
X80322475Y-146050500D01*
X80462485Y-146012984D01*
X80462487Y-146012982D01*
X80462489Y-146012982D01*
X80588010Y-145940512D01*
X80588010Y-145940511D01*
X80588015Y-145940509D01*
X80690509Y-145838015D01*
X80762984Y-145712485D01*
X80800500Y-145572475D01*
X80800500Y-145427525D01*
X80762984Y-145287515D01*
X80762982Y-145287512D01*
X80762982Y-145287510D01*
X80690512Y-145161989D01*
X80690510Y-145161987D01*
X80690509Y-145161985D01*
X80588015Y-145059491D01*
X80588012Y-145059489D01*
X80588010Y-145059487D01*
X80462488Y-144987017D01*
X80462489Y-144987017D01*
X80432896Y-144979087D01*
X80322475Y-144949500D01*
X80177525Y-144949500D01*
X80115790Y-144966041D01*
X80037510Y-144987017D01*
X79911989Y-145059487D01*
X79809487Y-145161989D01*
X79737017Y-145287510D01*
X79699500Y-145427525D01*
X79300500Y-145427525D01*
X79262984Y-145287515D01*
X79262982Y-145287512D01*
X79262982Y-145287510D01*
X79190512Y-145161989D01*
X79190510Y-145161987D01*
X79190509Y-145161985D01*
X79088015Y-145059491D01*
X79088012Y-145059489D01*
X79088010Y-145059487D01*
X78962488Y-144987017D01*
X78962489Y-144987017D01*
X78932896Y-144979087D01*
X78822475Y-144949500D01*
X78677525Y-144949500D01*
X78615790Y-144966041D01*
X78537510Y-144987017D01*
X78411989Y-145059487D01*
X78309487Y-145161989D01*
X78237017Y-145287510D01*
X78199500Y-145427525D01*
X77800500Y-145427525D01*
X77762984Y-145287515D01*
X77762982Y-145287512D01*
X77762982Y-145287510D01*
X77690512Y-145161989D01*
X77690510Y-145161987D01*
X77690509Y-145161985D01*
X77588015Y-145059491D01*
X77588012Y-145059489D01*
X77588010Y-145059487D01*
X77462488Y-144987017D01*
X77462489Y-144987017D01*
X77432896Y-144979087D01*
X77322475Y-144949500D01*
X77177525Y-144949500D01*
X77115790Y-144966041D01*
X77037510Y-144987017D01*
X76911989Y-145059487D01*
X76809487Y-145161989D01*
X76737017Y-145287510D01*
X76699500Y-145427525D01*
X73150500Y-145427525D01*
X73150500Y-143927525D01*
X77449500Y-143927525D01*
X77449500Y-144072474D01*
X77487017Y-144212489D01*
X77559487Y-144338010D01*
X77559489Y-144338012D01*
X77559491Y-144338015D01*
X77661985Y-144440509D01*
X77661987Y-144440510D01*
X77661989Y-144440512D01*
X77787511Y-144512982D01*
X77787512Y-144512982D01*
X77787515Y-144512984D01*
X77927525Y-144550500D01*
X77927526Y-144550500D01*
X78072474Y-144550500D01*
X78072475Y-144550500D01*
X78212485Y-144512984D01*
X78212487Y-144512982D01*
X78212489Y-144512982D01*
X78338010Y-144440512D01*
X78338010Y-144440511D01*
X78338015Y-144440509D01*
X78440509Y-144338015D01*
X78512984Y-144212485D01*
X78550500Y-144072475D01*
X78550500Y-143927525D01*
X78949500Y-143927525D01*
X78949500Y-144072474D01*
X78987017Y-144212489D01*
X79059487Y-144338010D01*
X79059489Y-144338012D01*
X79059491Y-144338015D01*
X79161985Y-144440509D01*
X79161987Y-144440510D01*
X79161989Y-144440512D01*
X79287511Y-144512982D01*
X79287512Y-144512982D01*
X79287515Y-144512984D01*
X79427525Y-144550500D01*
X79427526Y-144550500D01*
X79572474Y-144550500D01*
X79572475Y-144550500D01*
X79712485Y-144512984D01*
X79712487Y-144512982D01*
X79712489Y-144512982D01*
X79838010Y-144440512D01*
X79838010Y-144440511D01*
X79838015Y-144440509D01*
X79940509Y-144338015D01*
X80012984Y-144212485D01*
X80050500Y-144072475D01*
X80050500Y-143927525D01*
X80012984Y-143787515D01*
X80012982Y-143787512D01*
X80012982Y-143787510D01*
X79940512Y-143661989D01*
X79940510Y-143661987D01*
X79940509Y-143661985D01*
X79838015Y-143559491D01*
X79838012Y-143559489D01*
X79838010Y-143559487D01*
X79712488Y-143487017D01*
X79712489Y-143487017D01*
X79682896Y-143479087D01*
X79572475Y-143449500D01*
X79427525Y-143449500D01*
X79365790Y-143466041D01*
X79287510Y-143487017D01*
X79161989Y-143559487D01*
X79059487Y-143661989D01*
X78987017Y-143787510D01*
X78949500Y-143927525D01*
X78550500Y-143927525D01*
X78512984Y-143787515D01*
X78512982Y-143787512D01*
X78512982Y-143787510D01*
X78440512Y-143661989D01*
X78440510Y-143661987D01*
X78440509Y-143661985D01*
X78338015Y-143559491D01*
X78338012Y-143559489D01*
X78338010Y-143559487D01*
X78212488Y-143487017D01*
X78212489Y-143487017D01*
X78182896Y-143479087D01*
X78072475Y-143449500D01*
X77927525Y-143449500D01*
X77865790Y-143466041D01*
X77787510Y-143487017D01*
X77661989Y-143559487D01*
X77559487Y-143661989D01*
X77487017Y-143787510D01*
X77449500Y-143927525D01*
X73150500Y-143927525D01*
X73150500Y-136601456D01*
X74149500Y-136601456D01*
X74149500Y-136798543D01*
X74187949Y-136991834D01*
X74187949Y-136991836D01*
X74263367Y-137173913D01*
X74299699Y-137228288D01*
X74372861Y-137337782D01*
X74512218Y-137477139D01*
X74676086Y-137586632D01*
X74858165Y-137662051D01*
X75051459Y-137700500D01*
X75051460Y-137700500D01*
X75248540Y-137700500D01*
X75248541Y-137700500D01*
X75441835Y-137662051D01*
X75623914Y-137586632D01*
X75787782Y-137477139D01*
X75927139Y-137337782D01*
X76036632Y-137173914D01*
X76112051Y-136991835D01*
X76149896Y-136801579D01*
X80899500Y-136801579D01*
X80899500Y-136998420D01*
X80930289Y-137192821D01*
X80991116Y-137380025D01*
X81040597Y-137477139D01*
X81080476Y-137555405D01*
X81196172Y-137714646D01*
X81335354Y-137853828D01*
X81494595Y-137969524D01*
X81669975Y-138058884D01*
X81857174Y-138119709D01*
X81857175Y-138119709D01*
X81857178Y-138119710D01*
X82051580Y-138150500D01*
X82051583Y-138150500D01*
X82248420Y-138150500D01*
X82442821Y-138119710D01*
X82442822Y-138119709D01*
X82442826Y-138119709D01*
X82630025Y-138058884D01*
X82805405Y-137969524D01*
X82964646Y-137853828D01*
X83103828Y-137714646D01*
X83219524Y-137555405D01*
X83308884Y-137380025D01*
X83369709Y-137192826D01*
X83369710Y-137192821D01*
X83400500Y-136998420D01*
X83400500Y-136801579D01*
X83369710Y-136607178D01*
X83352917Y-136555495D01*
X83308884Y-136419975D01*
X83219524Y-136244595D01*
X83172162Y-136179408D01*
X83172162Y-136179406D01*
X83133419Y-136126081D01*
X89399500Y-136126081D01*
X89399500Y-136273918D01*
X89428342Y-136418914D01*
X89484915Y-136555493D01*
X89484916Y-136555495D01*
X89567049Y-136678416D01*
X89671584Y-136782951D01*
X89794505Y-136865084D01*
X89931087Y-136921658D01*
X90076082Y-136950500D01*
X90076083Y-136950500D01*
X90223917Y-136950500D01*
X90223918Y-136950500D01*
X90368913Y-136921658D01*
X90505495Y-136865084D01*
X90628416Y-136782951D01*
X90732951Y-136678416D01*
X90815084Y-136555495D01*
X90871658Y-136418913D01*
X90900500Y-136273918D01*
X90900500Y-136126082D01*
X90871658Y-135981087D01*
X90815084Y-135844505D01*
X90732951Y-135721584D01*
X90628416Y-135617049D01*
X90505495Y-135534916D01*
X90505493Y-135534915D01*
X90368914Y-135478342D01*
X90223918Y-135449500D01*
X90076082Y-135449500D01*
X90076081Y-135449500D01*
X89931085Y-135478342D01*
X89794506Y-135534915D01*
X89671585Y-135617048D01*
X89567048Y-135721585D01*
X89484915Y-135844506D01*
X89428342Y-135981085D01*
X89399500Y-136126081D01*
X83133419Y-136126081D01*
X83103832Y-136085359D01*
X83103830Y-136085357D01*
X83103828Y-136085354D01*
X82964646Y-135946172D01*
X82805405Y-135830476D01*
X82805404Y-135830475D01*
X82805402Y-135830474D01*
X82630025Y-135741116D01*
X82442821Y-135680289D01*
X82248420Y-135649500D01*
X82248417Y-135649500D01*
X82051583Y-135649500D01*
X82051580Y-135649500D01*
X81857178Y-135680289D01*
X81669974Y-135741116D01*
X81494597Y-135830474D01*
X81335355Y-135946171D01*
X81196171Y-136085355D01*
X81080474Y-136244597D01*
X80991116Y-136419974D01*
X80930289Y-136607178D01*
X80899500Y-136801579D01*
X76149896Y-136801579D01*
X76150500Y-136798541D01*
X76150500Y-136601459D01*
X76112051Y-136408165D01*
X76036632Y-136226086D01*
X75927139Y-136062218D01*
X75787782Y-135922861D01*
X75623914Y-135813368D01*
X75623915Y-135813368D01*
X75623913Y-135813367D01*
X75441835Y-135737949D01*
X75248543Y-135699500D01*
X75248541Y-135699500D01*
X75051459Y-135699500D01*
X75051456Y-135699500D01*
X74858165Y-135737949D01*
X74858163Y-135737949D01*
X74676086Y-135813367D01*
X74512218Y-135922861D01*
X74512214Y-135922864D01*
X74372864Y-136062214D01*
X74372861Y-136062218D01*
X74263367Y-136226086D01*
X74187949Y-136408163D01*
X74187949Y-136408165D01*
X74149500Y-136601456D01*
X73150500Y-136601456D01*
X73150500Y-131827525D01*
X80409500Y-131827525D01*
X80409500Y-131972474D01*
X80447017Y-132112489D01*
X80519487Y-132238010D01*
X80519489Y-132238012D01*
X80519491Y-132238015D01*
X80621985Y-132340509D01*
X80621987Y-132340510D01*
X80621989Y-132340512D01*
X80747511Y-132412982D01*
X80747512Y-132412982D01*
X80747515Y-132412984D01*
X80887525Y-132450500D01*
X80887526Y-132450500D01*
X81032474Y-132450500D01*
X81032475Y-132450500D01*
X81172485Y-132412984D01*
X81172487Y-132412982D01*
X81172489Y-132412982D01*
X81298010Y-132340512D01*
X81298010Y-132340511D01*
X81298015Y-132340509D01*
X81400509Y-132238015D01*
X81472984Y-132112485D01*
X81475906Y-132101579D01*
X88399500Y-132101579D01*
X88399500Y-132298420D01*
X88430289Y-132492821D01*
X88430291Y-132492826D01*
X88491116Y-132680025D01*
X88580476Y-132855405D01*
X88696172Y-133014646D01*
X88835354Y-133153828D01*
X88994595Y-133269524D01*
X89169975Y-133358884D01*
X89357174Y-133419709D01*
X89357175Y-133419709D01*
X89357178Y-133419710D01*
X89551580Y-133450500D01*
X89551583Y-133450500D01*
X89748420Y-133450500D01*
X89942821Y-133419710D01*
X89942822Y-133419709D01*
X89942826Y-133419709D01*
X90130025Y-133358884D01*
X90305405Y-133269524D01*
X90464646Y-133153828D01*
X90603828Y-133014646D01*
X90719524Y-132855405D01*
X90808884Y-132680025D01*
X90869709Y-132492826D01*
X90893833Y-132340512D01*
X90900500Y-132298420D01*
X90900500Y-132101579D01*
X90869710Y-131907178D01*
X90843829Y-131827525D01*
X90808884Y-131719975D01*
X90719524Y-131544595D01*
X90603828Y-131385354D01*
X90464646Y-131246172D01*
X90305405Y-131130476D01*
X90305404Y-131130475D01*
X90305402Y-131130474D01*
X90130025Y-131041116D01*
X89942821Y-130980289D01*
X89748420Y-130949500D01*
X89748417Y-130949500D01*
X89551583Y-130949500D01*
X89551580Y-130949500D01*
X89357178Y-130980289D01*
X89169974Y-131041116D01*
X88994597Y-131130474D01*
X88835355Y-131246171D01*
X88696171Y-131385355D01*
X88580474Y-131544597D01*
X88491116Y-131719974D01*
X88430289Y-131907178D01*
X88399500Y-132101579D01*
X81475906Y-132101579D01*
X81510500Y-131972475D01*
X81510500Y-131827525D01*
X81472984Y-131687515D01*
X81472982Y-131687512D01*
X81472982Y-131687510D01*
X81400512Y-131561989D01*
X81400510Y-131561987D01*
X81400509Y-131561985D01*
X81298015Y-131459491D01*
X81298012Y-131459489D01*
X81298010Y-131459487D01*
X81172488Y-131387017D01*
X81172489Y-131387017D01*
X81142896Y-131379087D01*
X81032475Y-131349500D01*
X80887525Y-131349500D01*
X80825790Y-131366041D01*
X80747510Y-131387017D01*
X80621989Y-131459487D01*
X80519487Y-131561989D01*
X80447017Y-131687510D01*
X80409500Y-131827525D01*
X73150500Y-131827525D01*
X73150500Y-130977525D01*
X78249500Y-130977525D01*
X78249500Y-131122475D01*
X78251644Y-131130476D01*
X78287017Y-131262489D01*
X78359487Y-131388010D01*
X78359489Y-131388012D01*
X78359491Y-131388015D01*
X78461985Y-131490509D01*
X78461987Y-131490510D01*
X78461989Y-131490512D01*
X78587511Y-131562982D01*
X78587512Y-131562982D01*
X78587515Y-131562984D01*
X78727525Y-131600500D01*
X78727526Y-131600500D01*
X78872474Y-131600500D01*
X78872475Y-131600500D01*
X79012485Y-131562984D01*
X79012487Y-131562982D01*
X79012489Y-131562982D01*
X79138010Y-131490512D01*
X79138010Y-131490511D01*
X79138015Y-131490509D01*
X79240509Y-131388015D01*
X79262746Y-131349500D01*
X79312982Y-131262489D01*
X79312982Y-131262487D01*
X79312984Y-131262485D01*
X79350500Y-131122475D01*
X79350500Y-130977525D01*
X79312984Y-130837515D01*
X79301443Y-130817525D01*
X81709500Y-130817525D01*
X81709500Y-130962475D01*
X81730572Y-131041116D01*
X81747017Y-131102489D01*
X81819487Y-131228010D01*
X81819489Y-131228012D01*
X81819491Y-131228015D01*
X81921985Y-131330509D01*
X81921987Y-131330510D01*
X81921989Y-131330512D01*
X82047511Y-131402982D01*
X82047512Y-131402982D01*
X82047515Y-131402984D01*
X82187525Y-131440500D01*
X82187526Y-131440500D01*
X82332474Y-131440500D01*
X82332475Y-131440500D01*
X82472485Y-131402984D01*
X82472487Y-131402982D01*
X82472489Y-131402982D01*
X82598010Y-131330512D01*
X82598010Y-131330511D01*
X82598015Y-131330509D01*
X82700509Y-131228015D01*
X82700512Y-131228010D01*
X82772982Y-131102489D01*
X82772982Y-131102487D01*
X82772984Y-131102485D01*
X82806467Y-130977525D01*
X82999500Y-130977525D01*
X82999500Y-131122475D01*
X83001644Y-131130476D01*
X83037017Y-131262489D01*
X83109487Y-131388010D01*
X83109489Y-131388012D01*
X83109491Y-131388015D01*
X83211985Y-131490509D01*
X83211987Y-131490510D01*
X83211989Y-131490512D01*
X83337511Y-131562982D01*
X83337512Y-131562982D01*
X83337515Y-131562984D01*
X83477525Y-131600500D01*
X83477526Y-131600500D01*
X83622474Y-131600500D01*
X83622475Y-131600500D01*
X83762485Y-131562984D01*
X83762487Y-131562982D01*
X83762489Y-131562982D01*
X83888010Y-131490512D01*
X83888010Y-131490511D01*
X83888015Y-131490509D01*
X83990509Y-131388015D01*
X84012746Y-131349500D01*
X84062982Y-131262489D01*
X84062982Y-131262487D01*
X84062984Y-131262485D01*
X84100500Y-131122475D01*
X84100500Y-130977525D01*
X84062984Y-130837515D01*
X84062982Y-130837512D01*
X84062982Y-130837510D01*
X83990512Y-130711989D01*
X83990510Y-130711987D01*
X83990509Y-130711985D01*
X83888015Y-130609491D01*
X83888012Y-130609489D01*
X83888010Y-130609487D01*
X83762488Y-130537017D01*
X83762489Y-130537017D01*
X83732896Y-130529087D01*
X83622475Y-130499500D01*
X83477525Y-130499500D01*
X83415790Y-130516041D01*
X83337510Y-130537017D01*
X83211989Y-130609487D01*
X83109487Y-130711989D01*
X83037018Y-130837509D01*
X83037016Y-130837513D01*
X83037016Y-130837515D01*
X82999500Y-130977525D01*
X82806467Y-130977525D01*
X82810500Y-130962475D01*
X82810500Y-130817525D01*
X82772984Y-130677515D01*
X82772982Y-130677512D01*
X82772982Y-130677510D01*
X82700512Y-130551989D01*
X82700510Y-130551987D01*
X82700509Y-130551985D01*
X82598015Y-130449491D01*
X82598012Y-130449489D01*
X82598010Y-130449487D01*
X82472488Y-130377017D01*
X82472489Y-130377017D01*
X82442896Y-130369087D01*
X82332475Y-130339500D01*
X82187525Y-130339500D01*
X82125790Y-130356041D01*
X82047510Y-130377017D01*
X81921989Y-130449487D01*
X81819487Y-130551989D01*
X81747017Y-130677510D01*
X81709500Y-130817525D01*
X79301443Y-130817525D01*
X79240512Y-130711989D01*
X79240510Y-130711987D01*
X79240509Y-130711985D01*
X79138015Y-130609491D01*
X79138012Y-130609489D01*
X79138010Y-130609487D01*
X79012488Y-130537017D01*
X79012489Y-130537017D01*
X78982896Y-130529087D01*
X78872475Y-130499500D01*
X78727525Y-130499500D01*
X78665790Y-130516041D01*
X78587510Y-130537017D01*
X78461989Y-130609487D01*
X78359487Y-130711989D01*
X78287017Y-130837510D01*
X78257009Y-130949500D01*
X78249500Y-130977525D01*
X73150500Y-130977525D01*
X73150500Y-128434234D01*
X77684500Y-128434234D01*
X77684500Y-128585766D01*
X77719086Y-128714847D01*
X77723720Y-128732139D01*
X77799481Y-128863360D01*
X77799483Y-128863362D01*
X77799485Y-128863365D01*
X77906635Y-128970515D01*
X77906637Y-128970516D01*
X77906639Y-128970518D01*
X78037861Y-129046279D01*
X78037859Y-129046279D01*
X78037863Y-129046280D01*
X78037865Y-129046281D01*
X78184234Y-129085500D01*
X78184236Y-129085500D01*
X78335764Y-129085500D01*
X78335766Y-129085500D01*
X78482135Y-129046281D01*
X78482137Y-129046279D01*
X78482139Y-129046279D01*
X78613360Y-128970518D01*
X78613360Y-128970517D01*
X78613365Y-128970515D01*
X78720515Y-128863365D01*
X78796281Y-128732135D01*
X78835500Y-128585766D01*
X78835500Y-128434234D01*
X83464500Y-128434234D01*
X83464500Y-128585766D01*
X83499086Y-128714847D01*
X83503720Y-128732139D01*
X83579481Y-128863360D01*
X83579483Y-128863362D01*
X83579485Y-128863365D01*
X83686635Y-128970515D01*
X83686637Y-128970516D01*
X83686639Y-128970518D01*
X83817861Y-129046279D01*
X83817859Y-129046279D01*
X83817863Y-129046280D01*
X83817865Y-129046281D01*
X83964234Y-129085500D01*
X83964236Y-129085500D01*
X84115764Y-129085500D01*
X84115766Y-129085500D01*
X84262135Y-129046281D01*
X84262137Y-129046279D01*
X84262139Y-129046279D01*
X84393360Y-128970518D01*
X84393360Y-128970517D01*
X84393365Y-128970515D01*
X84500515Y-128863365D01*
X84576281Y-128732135D01*
X84615500Y-128585766D01*
X84615500Y-128434234D01*
X84576281Y-128287865D01*
X84576279Y-128287862D01*
X84576279Y-128287860D01*
X84500518Y-128156639D01*
X84500516Y-128156637D01*
X84500515Y-128156635D01*
X84393365Y-128049485D01*
X84393362Y-128049483D01*
X84393360Y-128049481D01*
X84262138Y-127973720D01*
X84262140Y-127973720D01*
X84205347Y-127958503D01*
X84115766Y-127934500D01*
X83964234Y-127934500D01*
X83874652Y-127958503D01*
X83817860Y-127973720D01*
X83686639Y-128049481D01*
X83579481Y-128156639D01*
X83503720Y-128287860D01*
X83503719Y-128287865D01*
X83464500Y-128434234D01*
X78835500Y-128434234D01*
X78796281Y-128287865D01*
X78796279Y-128287862D01*
X78796279Y-128287860D01*
X78720518Y-128156639D01*
X78720516Y-128156637D01*
X78720515Y-128156635D01*
X78613365Y-128049485D01*
X78613362Y-128049483D01*
X78613360Y-128049481D01*
X78482138Y-127973720D01*
X78482140Y-127973720D01*
X78425347Y-127958503D01*
X78335766Y-127934500D01*
X78184234Y-127934500D01*
X78094652Y-127958503D01*
X78037860Y-127973720D01*
X77906639Y-128049481D01*
X77799481Y-128156639D01*
X77723720Y-128287860D01*
X77723719Y-128287865D01*
X77684500Y-128434234D01*
X73150500Y-128434234D01*
X73150500Y-123799500D01*
X73169407Y-123741309D01*
X73218907Y-123705345D01*
X73249500Y-123700500D01*
X91050500Y-123700500D01*
X91108691Y-123719407D01*
G37*
G04 #@! TD.AperFunction*
M02*
