G04 #@! TF.GenerationSoftware,KiCad,Pcbnew,10.0.6-rc2*
G04 #@! TF.CreationDate,2026-08-24T12:59:33+02:00*
G04 #@! TF.ProjectId,unni-usb-power,756e6e69-2d75-4736-922d-706f7765722e,rev?*
G04 #@! TF.SameCoordinates,Original*
G04 #@! TF.FileFunction,Soldermask,Top*
G04 #@! TF.FilePolarity,Negative*
%FSLAX46Y46*%
G04 Gerber Fmt 4.6, Leading zero omitted, Abs format (unit mm)*
G04 Created by KiCad (PCBNEW 10.0.6-rc2) date 2026-08-24 12:59:33*
%MOMM*%
%LPD*%
G01*
G04 APERTURE LIST*
G04 Aperture macros list*
%AMRoundRect*
0 Rectangle with rounded corners*
0 $1 Rounding radius*
0 $2 $3 $4 $5 $6 $7 $8 $9 X,Y pos of 4 corners*
0 Add a 4 corners polygon primitive as box body*
4,1,4,$2,$3,$4,$5,$6,$7,$8,$9,$2,$3,0*
0 Add four circle primitives for the rounded corners*
1,1,$1+$1,$2,$3*
1,1,$1+$1,$4,$5*
1,1,$1+$1,$6,$7*
1,1,$1+$1,$8,$9*
0 Add four rect primitives between the rounded corners*
20,1,$1+$1,$2,$3,$4,$5,0*
20,1,$1+$1,$4,$5,$6,$7,0*
20,1,$1+$1,$6,$7,$8,$9,0*
20,1,$1+$1,$8,$9,$2,$3,0*%
G04 Aperture macros list end*
%ADD10RoundRect,0.200000X-0.750000X-0.200000X0.750000X-0.200000X0.750000X0.200000X-0.750000X0.200000X0*%
%ADD11RoundRect,0.250000X0.450000X-0.350000X0.450000X0.350000X-0.450000X0.350000X-0.450000X-0.350000X0*%
%ADD12C,2.000000*%
%ADD13RoundRect,0.200000X0.750000X0.200000X-0.750000X0.200000X-0.750000X-0.200000X0.750000X-0.200000X0*%
%ADD14RoundRect,0.250000X-0.250000X-1.500000X0.250000X-1.500000X0.250000X1.500000X-0.250000X1.500000X0*%
%ADD15RoundRect,0.250001X-0.499999X-1.449999X0.499999X-1.449999X0.499999X1.449999X-0.499999X1.449999X0*%
%ADD16C,1.000000*%
%ADD17RoundRect,0.250000X-1.500000X-0.650000X1.500000X-0.650000X1.500000X0.650000X-1.500000X0.650000X0*%
%ADD18RoundRect,0.250000X-0.350000X-0.450000X0.350000X-0.450000X0.350000X0.450000X-0.350000X0.450000X0*%
%ADD19RoundRect,0.162000X-1.238000X0.513000X-1.238000X-0.513000X1.238000X-0.513000X1.238000X0.513000X0*%
%ADD20RoundRect,0.250000X0.350000X0.625000X-0.350000X0.625000X-0.350000X-0.625000X0.350000X-0.625000X0*%
%ADD21O,1.200000X1.750000*%
%ADD22RoundRect,0.250000X0.650000X-1.500000X0.650000X1.500000X-0.650000X1.500000X-0.650000X-1.500000X0*%
%ADD23RoundRect,0.250000X0.350000X0.450000X-0.350000X0.450000X-0.350000X-0.450000X0.350000X-0.450000X0*%
%ADD24RoundRect,0.250000X0.337500X0.475000X-0.337500X0.475000X-0.337500X-0.475000X0.337500X-0.475000X0*%
%ADD25RoundRect,0.200000X-0.200000X0.750000X-0.200000X-0.750000X0.200000X-0.750000X0.200000X0.750000X0*%
%ADD26C,1.500000*%
%ADD27RoundRect,0.250000X-0.475000X0.337500X-0.475000X-0.337500X0.475000X-0.337500X0.475000X0.337500X0*%
%ADD28RoundRect,0.237500X0.300000X0.237500X-0.300000X0.237500X-0.300000X-0.237500X0.300000X-0.237500X0*%
%ADD29C,0.650000*%
%ADD30O,1.100000X2.200000*%
%ADD31O,1.100000X1.900000*%
G04 APERTURE END LIST*
D10*
X82390000Y-143950000D03*
X82390000Y-145850000D03*
X85390000Y-144900000D03*
D11*
X89750000Y-142300000D03*
X89750000Y-140300000D03*
D12*
X82150000Y-136900000D03*
D13*
X87500000Y-142350000D03*
X87500000Y-140450000D03*
X84500000Y-141400000D03*
D14*
X76940000Y-165970000D03*
X78940000Y-165970000D03*
X80940000Y-165970000D03*
D15*
X74590000Y-171720000D03*
X83290000Y-171720000D03*
D13*
X79800000Y-155150000D03*
X79800000Y-153250000D03*
X76800000Y-154200000D03*
D16*
X90150000Y-136200000D03*
D17*
X84400000Y-163300000D03*
X89400000Y-163300000D03*
D18*
X82500000Y-147700000D03*
X84500000Y-147700000D03*
D19*
X79850000Y-148325000D03*
X79850000Y-151475000D03*
D20*
X87160000Y-185940000D03*
D21*
X85160000Y-185940000D03*
X83160000Y-185940000D03*
X81160000Y-185940000D03*
X79160000Y-185940000D03*
X77160000Y-185940000D03*
D22*
X83750000Y-159450000D03*
X83750000Y-154450000D03*
D23*
X84500000Y-149650000D03*
X82500000Y-149650000D03*
D24*
X79425000Y-157050000D03*
X77350000Y-157050000D03*
D12*
X89650000Y-132200000D03*
D25*
X88800000Y-148750000D03*
X86900000Y-148750000D03*
X87850000Y-151750000D03*
D18*
X87450000Y-146520000D03*
X89450000Y-146520000D03*
D26*
X75150000Y-136700000D03*
D27*
X77050000Y-148762500D03*
X77050000Y-150837500D03*
D28*
X80762500Y-162980000D03*
X79037500Y-162980000D03*
D29*
X78260000Y-128510000D03*
X84040000Y-128510000D03*
D30*
X76830000Y-129010000D03*
X85470000Y-129010000D03*
D31*
X76830000Y-124830000D03*
X85470000Y-124830000D03*
M02*
