G04 #@! TF.GenerationSoftware,KiCad,Pcbnew,10.0.6-rc2*
G04 #@! TF.CreationDate,2026-08-24T12:59:33+02:00*
G04 #@! TF.ProjectId,unni-usb-power,756e6e69-2d75-4736-922d-706f7765722e,rev?*
G04 #@! TF.SameCoordinates,Original*
G04 #@! TF.FileFunction,Legend,Top*
G04 #@! TF.FilePolarity,Positive*
%FSLAX46Y46*%
G04 Gerber Fmt 4.6, Leading zero omitted, Abs format (unit mm)*
G04 Created by KiCad (PCBNEW 10.0.6-rc2) date 2026-08-24 12:59:33*
%MOMM*%
%LPD*%
G01*
G04 APERTURE LIST*
%ADD10C,0.100000*%
%ADD11C,0.120000*%
G04 APERTURE END LIST*
D10*
X85563809Y-144191085D02*
X85487619Y-144152990D01*
X85487619Y-144152990D02*
X85411428Y-144076800D01*
X85411428Y-144076800D02*
X85297142Y-143962514D01*
X85297142Y-143962514D02*
X85220952Y-143924419D01*
X85220952Y-143924419D02*
X85144761Y-143924419D01*
X85182857Y-144114895D02*
X85106666Y-144076800D01*
X85106666Y-144076800D02*
X85030476Y-144000609D01*
X85030476Y-144000609D02*
X84992380Y-143848228D01*
X84992380Y-143848228D02*
X84992380Y-143581561D01*
X84992380Y-143581561D02*
X85030476Y-143429180D01*
X85030476Y-143429180D02*
X85106666Y-143352990D01*
X85106666Y-143352990D02*
X85182857Y-143314895D01*
X85182857Y-143314895D02*
X85335238Y-143314895D01*
X85335238Y-143314895D02*
X85411428Y-143352990D01*
X85411428Y-143352990D02*
X85487619Y-143429180D01*
X85487619Y-143429180D02*
X85525714Y-143581561D01*
X85525714Y-143581561D02*
X85525714Y-143848228D01*
X85525714Y-143848228D02*
X85487619Y-144000609D01*
X85487619Y-144000609D02*
X85411428Y-144076800D01*
X85411428Y-144076800D02*
X85335238Y-144114895D01*
X85335238Y-144114895D02*
X85182857Y-144114895D01*
X85792380Y-143314895D02*
X86287618Y-143314895D01*
X86287618Y-143314895D02*
X86020952Y-143619657D01*
X86020952Y-143619657D02*
X86135237Y-143619657D01*
X86135237Y-143619657D02*
X86211428Y-143657752D01*
X86211428Y-143657752D02*
X86249523Y-143695847D01*
X86249523Y-143695847D02*
X86287618Y-143772038D01*
X86287618Y-143772038D02*
X86287618Y-143962514D01*
X86287618Y-143962514D02*
X86249523Y-144038704D01*
X86249523Y-144038704D02*
X86211428Y-144076800D01*
X86211428Y-144076800D02*
X86135237Y-144114895D01*
X86135237Y-144114895D02*
X85906666Y-144114895D01*
X85906666Y-144114895D02*
X85830475Y-144076800D01*
X85830475Y-144076800D02*
X85792380Y-144038704D01*
X90116667Y-144164895D02*
X89850000Y-143783942D01*
X89659524Y-144164895D02*
X89659524Y-143364895D01*
X89659524Y-143364895D02*
X89964286Y-143364895D01*
X89964286Y-143364895D02*
X90040476Y-143402990D01*
X90040476Y-143402990D02*
X90078571Y-143441085D01*
X90078571Y-143441085D02*
X90116667Y-143517276D01*
X90116667Y-143517276D02*
X90116667Y-143631561D01*
X90116667Y-143631561D02*
X90078571Y-143707752D01*
X90078571Y-143707752D02*
X90040476Y-143745847D01*
X90040476Y-143745847D02*
X89964286Y-143783942D01*
X89964286Y-143783942D02*
X89659524Y-143783942D01*
X90383333Y-143364895D02*
X90916667Y-143364895D01*
X90916667Y-143364895D02*
X90573809Y-144164895D01*
X81540476Y-135214895D02*
X81540476Y-134414895D01*
X81540476Y-134795847D02*
X81997619Y-134795847D01*
X81997619Y-135214895D02*
X81997619Y-134414895D01*
X82302380Y-134414895D02*
X82797618Y-134414895D01*
X82797618Y-134414895D02*
X82530952Y-134719657D01*
X82530952Y-134719657D02*
X82645237Y-134719657D01*
X82645237Y-134719657D02*
X82721428Y-134757752D01*
X82721428Y-134757752D02*
X82759523Y-134795847D01*
X82759523Y-134795847D02*
X82797618Y-134872038D01*
X82797618Y-134872038D02*
X82797618Y-135062514D01*
X82797618Y-135062514D02*
X82759523Y-135138704D01*
X82759523Y-135138704D02*
X82721428Y-135176800D01*
X82721428Y-135176800D02*
X82645237Y-135214895D01*
X82645237Y-135214895D02*
X82416666Y-135214895D01*
X82416666Y-135214895D02*
X82340475Y-135176800D01*
X82340475Y-135176800D02*
X82302380Y-135138704D01*
X84023809Y-140591085D02*
X83947619Y-140552990D01*
X83947619Y-140552990D02*
X83871428Y-140476800D01*
X83871428Y-140476800D02*
X83757142Y-140362514D01*
X83757142Y-140362514D02*
X83680952Y-140324419D01*
X83680952Y-140324419D02*
X83604761Y-140324419D01*
X83642857Y-140514895D02*
X83566666Y-140476800D01*
X83566666Y-140476800D02*
X83490476Y-140400609D01*
X83490476Y-140400609D02*
X83452380Y-140248228D01*
X83452380Y-140248228D02*
X83452380Y-139981561D01*
X83452380Y-139981561D02*
X83490476Y-139829180D01*
X83490476Y-139829180D02*
X83566666Y-139752990D01*
X83566666Y-139752990D02*
X83642857Y-139714895D01*
X83642857Y-139714895D02*
X83795238Y-139714895D01*
X83795238Y-139714895D02*
X83871428Y-139752990D01*
X83871428Y-139752990D02*
X83947619Y-139829180D01*
X83947619Y-139829180D02*
X83985714Y-139981561D01*
X83985714Y-139981561D02*
X83985714Y-140248228D01*
X83985714Y-140248228D02*
X83947619Y-140400609D01*
X83947619Y-140400609D02*
X83871428Y-140476800D01*
X83871428Y-140476800D02*
X83795238Y-140514895D01*
X83795238Y-140514895D02*
X83642857Y-140514895D01*
X84290475Y-139791085D02*
X84328571Y-139752990D01*
X84328571Y-139752990D02*
X84404761Y-139714895D01*
X84404761Y-139714895D02*
X84595237Y-139714895D01*
X84595237Y-139714895D02*
X84671428Y-139752990D01*
X84671428Y-139752990D02*
X84709523Y-139791085D01*
X84709523Y-139791085D02*
X84747618Y-139867276D01*
X84747618Y-139867276D02*
X84747618Y-139943466D01*
X84747618Y-139943466D02*
X84709523Y-140057752D01*
X84709523Y-140057752D02*
X84252380Y-140514895D01*
X84252380Y-140514895D02*
X84747618Y-140514895D01*
X85073333Y-172494895D02*
X85073333Y-173066323D01*
X85073333Y-173066323D02*
X85035238Y-173180609D01*
X85035238Y-173180609D02*
X84959047Y-173256800D01*
X84959047Y-173256800D02*
X84844762Y-173294895D01*
X84844762Y-173294895D02*
X84768571Y-173294895D01*
X85797143Y-172761561D02*
X85797143Y-173294895D01*
X85606667Y-172456800D02*
X85416190Y-173028228D01*
X85416190Y-173028228D02*
X85911429Y-173028228D01*
X75890476Y-154864895D02*
X75890476Y-155512514D01*
X75890476Y-155512514D02*
X75928571Y-155588704D01*
X75928571Y-155588704D02*
X75966666Y-155626800D01*
X75966666Y-155626800D02*
X76042857Y-155664895D01*
X76042857Y-155664895D02*
X76195238Y-155664895D01*
X76195238Y-155664895D02*
X76271428Y-155626800D01*
X76271428Y-155626800D02*
X76309523Y-155588704D01*
X76309523Y-155588704D02*
X76347619Y-155512514D01*
X76347619Y-155512514D02*
X76347619Y-154864895D01*
X76652380Y-154864895D02*
X77147618Y-154864895D01*
X77147618Y-154864895D02*
X76880952Y-155169657D01*
X76880952Y-155169657D02*
X76995237Y-155169657D01*
X76995237Y-155169657D02*
X77071428Y-155207752D01*
X77071428Y-155207752D02*
X77109523Y-155245847D01*
X77109523Y-155245847D02*
X77147618Y-155322038D01*
X77147618Y-155322038D02*
X77147618Y-155512514D01*
X77147618Y-155512514D02*
X77109523Y-155588704D01*
X77109523Y-155588704D02*
X77071428Y-155626800D01*
X77071428Y-155626800D02*
X76995237Y-155664895D01*
X76995237Y-155664895D02*
X76766666Y-155664895D01*
X76766666Y-155664895D02*
X76690475Y-155626800D01*
X76690475Y-155626800D02*
X76652380Y-155588704D01*
X89540476Y-135014895D02*
X89540476Y-134214895D01*
X89540476Y-134595847D02*
X89997619Y-134595847D01*
X89997619Y-135014895D02*
X89997619Y-134214895D01*
X90340475Y-134291085D02*
X90378571Y-134252990D01*
X90378571Y-134252990D02*
X90454761Y-134214895D01*
X90454761Y-134214895D02*
X90645237Y-134214895D01*
X90645237Y-134214895D02*
X90721428Y-134252990D01*
X90721428Y-134252990D02*
X90759523Y-134291085D01*
X90759523Y-134291085D02*
X90797618Y-134367276D01*
X90797618Y-134367276D02*
X90797618Y-134443466D01*
X90797618Y-134443466D02*
X90759523Y-134557752D01*
X90759523Y-134557752D02*
X90302380Y-135014895D01*
X90302380Y-135014895D02*
X90797618Y-135014895D01*
X89949524Y-165614895D02*
X89949524Y-164814895D01*
X89949524Y-164814895D02*
X90140000Y-164814895D01*
X90140000Y-164814895D02*
X90254286Y-164852990D01*
X90254286Y-164852990D02*
X90330476Y-164929180D01*
X90330476Y-164929180D02*
X90368571Y-165005371D01*
X90368571Y-165005371D02*
X90406667Y-165157752D01*
X90406667Y-165157752D02*
X90406667Y-165272038D01*
X90406667Y-165272038D02*
X90368571Y-165424419D01*
X90368571Y-165424419D02*
X90330476Y-165500609D01*
X90330476Y-165500609D02*
X90254286Y-165576800D01*
X90254286Y-165576800D02*
X90140000Y-165614895D01*
X90140000Y-165614895D02*
X89949524Y-165614895D01*
X90673333Y-164814895D02*
X91168571Y-164814895D01*
X91168571Y-164814895D02*
X90901905Y-165119657D01*
X90901905Y-165119657D02*
X91016190Y-165119657D01*
X91016190Y-165119657D02*
X91092381Y-165157752D01*
X91092381Y-165157752D02*
X91130476Y-165195847D01*
X91130476Y-165195847D02*
X91168571Y-165272038D01*
X91168571Y-165272038D02*
X91168571Y-165462514D01*
X91168571Y-165462514D02*
X91130476Y-165538704D01*
X91130476Y-165538704D02*
X91092381Y-165576800D01*
X91092381Y-165576800D02*
X91016190Y-165614895D01*
X91016190Y-165614895D02*
X90787619Y-165614895D01*
X90787619Y-165614895D02*
X90711428Y-165576800D01*
X90711428Y-165576800D02*
X90673333Y-165538704D01*
X84716667Y-151414895D02*
X84450000Y-151033942D01*
X84259524Y-151414895D02*
X84259524Y-150614895D01*
X84259524Y-150614895D02*
X84564286Y-150614895D01*
X84564286Y-150614895D02*
X84640476Y-150652990D01*
X84640476Y-150652990D02*
X84678571Y-150691085D01*
X84678571Y-150691085D02*
X84716667Y-150767276D01*
X84716667Y-150767276D02*
X84716667Y-150881561D01*
X84716667Y-150881561D02*
X84678571Y-150957752D01*
X84678571Y-150957752D02*
X84640476Y-150995847D01*
X84640476Y-150995847D02*
X84564286Y-151033942D01*
X84564286Y-151033942D02*
X84259524Y-151033942D01*
X85097619Y-151414895D02*
X85250000Y-151414895D01*
X85250000Y-151414895D02*
X85326190Y-151376800D01*
X85326190Y-151376800D02*
X85364286Y-151338704D01*
X85364286Y-151338704D02*
X85440476Y-151224419D01*
X85440476Y-151224419D02*
X85478571Y-151072038D01*
X85478571Y-151072038D02*
X85478571Y-150767276D01*
X85478571Y-150767276D02*
X85440476Y-150691085D01*
X85440476Y-150691085D02*
X85402381Y-150652990D01*
X85402381Y-150652990D02*
X85326190Y-150614895D01*
X85326190Y-150614895D02*
X85173809Y-150614895D01*
X85173809Y-150614895D02*
X85097619Y-150652990D01*
X85097619Y-150652990D02*
X85059524Y-150691085D01*
X85059524Y-150691085D02*
X85021428Y-150767276D01*
X85021428Y-150767276D02*
X85021428Y-150957752D01*
X85021428Y-150957752D02*
X85059524Y-151033942D01*
X85059524Y-151033942D02*
X85097619Y-151072038D01*
X85097619Y-151072038D02*
X85173809Y-151110133D01*
X85173809Y-151110133D02*
X85326190Y-151110133D01*
X85326190Y-151110133D02*
X85402381Y-151072038D01*
X85402381Y-151072038D02*
X85440476Y-151033942D01*
X85440476Y-151033942D02*
X85478571Y-150957752D01*
X81856666Y-151624895D02*
X81475714Y-151624895D01*
X81475714Y-151624895D02*
X81475714Y-150824895D01*
X82085237Y-150901085D02*
X82123333Y-150862990D01*
X82123333Y-150862990D02*
X82199523Y-150824895D01*
X82199523Y-150824895D02*
X82389999Y-150824895D01*
X82389999Y-150824895D02*
X82466190Y-150862990D01*
X82466190Y-150862990D02*
X82504285Y-150901085D01*
X82504285Y-150901085D02*
X82542380Y-150977276D01*
X82542380Y-150977276D02*
X82542380Y-151053466D01*
X82542380Y-151053466D02*
X82504285Y-151167752D01*
X82504285Y-151167752D02*
X82047142Y-151624895D01*
X82047142Y-151624895D02*
X82542380Y-151624895D01*
X89833333Y-185514895D02*
X89833333Y-186086323D01*
X89833333Y-186086323D02*
X89795238Y-186200609D01*
X89795238Y-186200609D02*
X89719047Y-186276800D01*
X89719047Y-186276800D02*
X89604762Y-186314895D01*
X89604762Y-186314895D02*
X89528571Y-186314895D01*
X90138095Y-185514895D02*
X90633333Y-185514895D01*
X90633333Y-185514895D02*
X90366667Y-185819657D01*
X90366667Y-185819657D02*
X90480952Y-185819657D01*
X90480952Y-185819657D02*
X90557143Y-185857752D01*
X90557143Y-185857752D02*
X90595238Y-185895847D01*
X90595238Y-185895847D02*
X90633333Y-185972038D01*
X90633333Y-185972038D02*
X90633333Y-186162514D01*
X90633333Y-186162514D02*
X90595238Y-186238704D01*
X90595238Y-186238704D02*
X90557143Y-186276800D01*
X90557143Y-186276800D02*
X90480952Y-186314895D01*
X90480952Y-186314895D02*
X90252381Y-186314895D01*
X90252381Y-186314895D02*
X90176190Y-186276800D01*
X90176190Y-186276800D02*
X90138095Y-186238704D01*
X85009524Y-154014895D02*
X85009524Y-153214895D01*
X85009524Y-153214895D02*
X85200000Y-153214895D01*
X85200000Y-153214895D02*
X85314286Y-153252990D01*
X85314286Y-153252990D02*
X85390476Y-153329180D01*
X85390476Y-153329180D02*
X85428571Y-153405371D01*
X85428571Y-153405371D02*
X85466667Y-153557752D01*
X85466667Y-153557752D02*
X85466667Y-153672038D01*
X85466667Y-153672038D02*
X85428571Y-153824419D01*
X85428571Y-153824419D02*
X85390476Y-153900609D01*
X85390476Y-153900609D02*
X85314286Y-153976800D01*
X85314286Y-153976800D02*
X85200000Y-154014895D01*
X85200000Y-154014895D02*
X85009524Y-154014895D01*
X86152381Y-153481561D02*
X86152381Y-154014895D01*
X85961905Y-153176800D02*
X85771428Y-153748228D01*
X85771428Y-153748228D02*
X86266667Y-153748228D01*
X84716667Y-152514895D02*
X84450000Y-152133942D01*
X84259524Y-152514895D02*
X84259524Y-151714895D01*
X84259524Y-151714895D02*
X84564286Y-151714895D01*
X84564286Y-151714895D02*
X84640476Y-151752990D01*
X84640476Y-151752990D02*
X84678571Y-151791085D01*
X84678571Y-151791085D02*
X84716667Y-151867276D01*
X84716667Y-151867276D02*
X84716667Y-151981561D01*
X84716667Y-151981561D02*
X84678571Y-152057752D01*
X84678571Y-152057752D02*
X84640476Y-152095847D01*
X84640476Y-152095847D02*
X84564286Y-152133942D01*
X84564286Y-152133942D02*
X84259524Y-152133942D01*
X85173809Y-152057752D02*
X85097619Y-152019657D01*
X85097619Y-152019657D02*
X85059524Y-151981561D01*
X85059524Y-151981561D02*
X85021428Y-151905371D01*
X85021428Y-151905371D02*
X85021428Y-151867276D01*
X85021428Y-151867276D02*
X85059524Y-151791085D01*
X85059524Y-151791085D02*
X85097619Y-151752990D01*
X85097619Y-151752990D02*
X85173809Y-151714895D01*
X85173809Y-151714895D02*
X85326190Y-151714895D01*
X85326190Y-151714895D02*
X85402381Y-151752990D01*
X85402381Y-151752990D02*
X85440476Y-151791085D01*
X85440476Y-151791085D02*
X85478571Y-151867276D01*
X85478571Y-151867276D02*
X85478571Y-151905371D01*
X85478571Y-151905371D02*
X85440476Y-151981561D01*
X85440476Y-151981561D02*
X85402381Y-152019657D01*
X85402381Y-152019657D02*
X85326190Y-152057752D01*
X85326190Y-152057752D02*
X85173809Y-152057752D01*
X85173809Y-152057752D02*
X85097619Y-152095847D01*
X85097619Y-152095847D02*
X85059524Y-152133942D01*
X85059524Y-152133942D02*
X85021428Y-152210133D01*
X85021428Y-152210133D02*
X85021428Y-152362514D01*
X85021428Y-152362514D02*
X85059524Y-152438704D01*
X85059524Y-152438704D02*
X85097619Y-152476800D01*
X85097619Y-152476800D02*
X85173809Y-152514895D01*
X85173809Y-152514895D02*
X85326190Y-152514895D01*
X85326190Y-152514895D02*
X85402381Y-152476800D01*
X85402381Y-152476800D02*
X85440476Y-152438704D01*
X85440476Y-152438704D02*
X85478571Y-152362514D01*
X85478571Y-152362514D02*
X85478571Y-152210133D01*
X85478571Y-152210133D02*
X85440476Y-152133942D01*
X85440476Y-152133942D02*
X85402381Y-152095847D01*
X85402381Y-152095847D02*
X85326190Y-152057752D01*
X75666667Y-157788704D02*
X75628571Y-157826800D01*
X75628571Y-157826800D02*
X75514286Y-157864895D01*
X75514286Y-157864895D02*
X75438095Y-157864895D01*
X75438095Y-157864895D02*
X75323809Y-157826800D01*
X75323809Y-157826800D02*
X75247619Y-157750609D01*
X75247619Y-157750609D02*
X75209524Y-157674419D01*
X75209524Y-157674419D02*
X75171428Y-157522038D01*
X75171428Y-157522038D02*
X75171428Y-157407752D01*
X75171428Y-157407752D02*
X75209524Y-157255371D01*
X75209524Y-157255371D02*
X75247619Y-157179180D01*
X75247619Y-157179180D02*
X75323809Y-157102990D01*
X75323809Y-157102990D02*
X75438095Y-157064895D01*
X75438095Y-157064895D02*
X75514286Y-157064895D01*
X75514286Y-157064895D02*
X75628571Y-157102990D01*
X75628571Y-157102990D02*
X75666667Y-157141085D01*
X76123809Y-157407752D02*
X76047619Y-157369657D01*
X76047619Y-157369657D02*
X76009524Y-157331561D01*
X76009524Y-157331561D02*
X75971428Y-157255371D01*
X75971428Y-157255371D02*
X75971428Y-157217276D01*
X75971428Y-157217276D02*
X76009524Y-157141085D01*
X76009524Y-157141085D02*
X76047619Y-157102990D01*
X76047619Y-157102990D02*
X76123809Y-157064895D01*
X76123809Y-157064895D02*
X76276190Y-157064895D01*
X76276190Y-157064895D02*
X76352381Y-157102990D01*
X76352381Y-157102990D02*
X76390476Y-157141085D01*
X76390476Y-157141085D02*
X76428571Y-157217276D01*
X76428571Y-157217276D02*
X76428571Y-157255371D01*
X76428571Y-157255371D02*
X76390476Y-157331561D01*
X76390476Y-157331561D02*
X76352381Y-157369657D01*
X76352381Y-157369657D02*
X76276190Y-157407752D01*
X76276190Y-157407752D02*
X76123809Y-157407752D01*
X76123809Y-157407752D02*
X76047619Y-157445847D01*
X76047619Y-157445847D02*
X76009524Y-157483942D01*
X76009524Y-157483942D02*
X75971428Y-157560133D01*
X75971428Y-157560133D02*
X75971428Y-157712514D01*
X75971428Y-157712514D02*
X76009524Y-157788704D01*
X76009524Y-157788704D02*
X76047619Y-157826800D01*
X76047619Y-157826800D02*
X76123809Y-157864895D01*
X76123809Y-157864895D02*
X76276190Y-157864895D01*
X76276190Y-157864895D02*
X76352381Y-157826800D01*
X76352381Y-157826800D02*
X76390476Y-157788704D01*
X76390476Y-157788704D02*
X76428571Y-157712514D01*
X76428571Y-157712514D02*
X76428571Y-157560133D01*
X76428571Y-157560133D02*
X76390476Y-157483942D01*
X76390476Y-157483942D02*
X76352381Y-157445847D01*
X76352381Y-157445847D02*
X76276190Y-157407752D01*
X89040476Y-130514895D02*
X89040476Y-129714895D01*
X89040476Y-130095847D02*
X89497619Y-130095847D01*
X89497619Y-130514895D02*
X89497619Y-129714895D01*
X90297618Y-130514895D02*
X89840475Y-130514895D01*
X90069047Y-130514895D02*
X90069047Y-129714895D01*
X90069047Y-129714895D02*
X89992856Y-129829180D01*
X89992856Y-129829180D02*
X89916666Y-129905371D01*
X89916666Y-129905371D02*
X89840475Y-129943466D01*
X86523809Y-152591085D02*
X86447619Y-152552990D01*
X86447619Y-152552990D02*
X86371428Y-152476800D01*
X86371428Y-152476800D02*
X86257142Y-152362514D01*
X86257142Y-152362514D02*
X86180952Y-152324419D01*
X86180952Y-152324419D02*
X86104761Y-152324419D01*
X86142857Y-152514895D02*
X86066666Y-152476800D01*
X86066666Y-152476800D02*
X85990476Y-152400609D01*
X85990476Y-152400609D02*
X85952380Y-152248228D01*
X85952380Y-152248228D02*
X85952380Y-151981561D01*
X85952380Y-151981561D02*
X85990476Y-151829180D01*
X85990476Y-151829180D02*
X86066666Y-151752990D01*
X86066666Y-151752990D02*
X86142857Y-151714895D01*
X86142857Y-151714895D02*
X86295238Y-151714895D01*
X86295238Y-151714895D02*
X86371428Y-151752990D01*
X86371428Y-151752990D02*
X86447619Y-151829180D01*
X86447619Y-151829180D02*
X86485714Y-151981561D01*
X86485714Y-151981561D02*
X86485714Y-152248228D01*
X86485714Y-152248228D02*
X86447619Y-152400609D01*
X86447619Y-152400609D02*
X86371428Y-152476800D01*
X86371428Y-152476800D02*
X86295238Y-152514895D01*
X86295238Y-152514895D02*
X86142857Y-152514895D01*
X87171428Y-151981561D02*
X87171428Y-152514895D01*
X86980952Y-151676800D02*
X86790475Y-152248228D01*
X86790475Y-152248228D02*
X87285714Y-152248228D01*
X89185714Y-145284895D02*
X88919047Y-144903942D01*
X88728571Y-145284895D02*
X88728571Y-144484895D01*
X88728571Y-144484895D02*
X89033333Y-144484895D01*
X89033333Y-144484895D02*
X89109523Y-144522990D01*
X89109523Y-144522990D02*
X89147618Y-144561085D01*
X89147618Y-144561085D02*
X89185714Y-144637276D01*
X89185714Y-144637276D02*
X89185714Y-144751561D01*
X89185714Y-144751561D02*
X89147618Y-144827752D01*
X89147618Y-144827752D02*
X89109523Y-144865847D01*
X89109523Y-144865847D02*
X89033333Y-144903942D01*
X89033333Y-144903942D02*
X88728571Y-144903942D01*
X89947618Y-145284895D02*
X89490475Y-145284895D01*
X89719047Y-145284895D02*
X89719047Y-144484895D01*
X89719047Y-144484895D02*
X89642856Y-144599180D01*
X89642856Y-144599180D02*
X89566666Y-144675371D01*
X89566666Y-144675371D02*
X89490475Y-144713466D01*
X90214285Y-144484895D02*
X90709523Y-144484895D01*
X90709523Y-144484895D02*
X90442857Y-144789657D01*
X90442857Y-144789657D02*
X90557142Y-144789657D01*
X90557142Y-144789657D02*
X90633333Y-144827752D01*
X90633333Y-144827752D02*
X90671428Y-144865847D01*
X90671428Y-144865847D02*
X90709523Y-144942038D01*
X90709523Y-144942038D02*
X90709523Y-145132514D01*
X90709523Y-145132514D02*
X90671428Y-145208704D01*
X90671428Y-145208704D02*
X90633333Y-145246800D01*
X90633333Y-145246800D02*
X90557142Y-145284895D01*
X90557142Y-145284895D02*
X90328571Y-145284895D01*
X90328571Y-145284895D02*
X90252380Y-145246800D01*
X90252380Y-145246800D02*
X90214285Y-145208704D01*
X74540476Y-135264895D02*
X74540476Y-134464895D01*
X74540476Y-134845847D02*
X74997619Y-134845847D01*
X74997619Y-135264895D02*
X74997619Y-134464895D01*
X75721428Y-134731561D02*
X75721428Y-135264895D01*
X75530952Y-134426800D02*
X75340475Y-134998228D01*
X75340475Y-134998228D02*
X75835714Y-134998228D01*
X76116667Y-152588704D02*
X76078571Y-152626800D01*
X76078571Y-152626800D02*
X75964286Y-152664895D01*
X75964286Y-152664895D02*
X75888095Y-152664895D01*
X75888095Y-152664895D02*
X75773809Y-152626800D01*
X75773809Y-152626800D02*
X75697619Y-152550609D01*
X75697619Y-152550609D02*
X75659524Y-152474419D01*
X75659524Y-152474419D02*
X75621428Y-152322038D01*
X75621428Y-152322038D02*
X75621428Y-152207752D01*
X75621428Y-152207752D02*
X75659524Y-152055371D01*
X75659524Y-152055371D02*
X75697619Y-151979180D01*
X75697619Y-151979180D02*
X75773809Y-151902990D01*
X75773809Y-151902990D02*
X75888095Y-151864895D01*
X75888095Y-151864895D02*
X75964286Y-151864895D01*
X75964286Y-151864895D02*
X76078571Y-151902990D01*
X76078571Y-151902990D02*
X76116667Y-151941085D01*
X76383333Y-151864895D02*
X76916667Y-151864895D01*
X76916667Y-151864895D02*
X76573809Y-152664895D01*
X80766667Y-162098704D02*
X80728571Y-162136800D01*
X80728571Y-162136800D02*
X80614286Y-162174895D01*
X80614286Y-162174895D02*
X80538095Y-162174895D01*
X80538095Y-162174895D02*
X80423809Y-162136800D01*
X80423809Y-162136800D02*
X80347619Y-162060609D01*
X80347619Y-162060609D02*
X80309524Y-161984419D01*
X80309524Y-161984419D02*
X80271428Y-161832038D01*
X80271428Y-161832038D02*
X80271428Y-161717752D01*
X80271428Y-161717752D02*
X80309524Y-161565371D01*
X80309524Y-161565371D02*
X80347619Y-161489180D01*
X80347619Y-161489180D02*
X80423809Y-161412990D01*
X80423809Y-161412990D02*
X80538095Y-161374895D01*
X80538095Y-161374895D02*
X80614286Y-161374895D01*
X80614286Y-161374895D02*
X80728571Y-161412990D01*
X80728571Y-161412990D02*
X80766667Y-161451085D01*
X81147619Y-162174895D02*
X81300000Y-162174895D01*
X81300000Y-162174895D02*
X81376190Y-162136800D01*
X81376190Y-162136800D02*
X81414286Y-162098704D01*
X81414286Y-162098704D02*
X81490476Y-161984419D01*
X81490476Y-161984419D02*
X81528571Y-161832038D01*
X81528571Y-161832038D02*
X81528571Y-161527276D01*
X81528571Y-161527276D02*
X81490476Y-161451085D01*
X81490476Y-161451085D02*
X81452381Y-161412990D01*
X81452381Y-161412990D02*
X81376190Y-161374895D01*
X81376190Y-161374895D02*
X81223809Y-161374895D01*
X81223809Y-161374895D02*
X81147619Y-161412990D01*
X81147619Y-161412990D02*
X81109524Y-161451085D01*
X81109524Y-161451085D02*
X81071428Y-161527276D01*
X81071428Y-161527276D02*
X81071428Y-161717752D01*
X81071428Y-161717752D02*
X81109524Y-161793942D01*
X81109524Y-161793942D02*
X81147619Y-161832038D01*
X81147619Y-161832038D02*
X81223809Y-161870133D01*
X81223809Y-161870133D02*
X81376190Y-161870133D01*
X81376190Y-161870133D02*
X81452381Y-161832038D01*
X81452381Y-161832038D02*
X81490476Y-161793942D01*
X81490476Y-161793942D02*
X81528571Y-161717752D01*
D11*
X83850000Y-143320000D02*
X83050000Y-143320000D01*
X83850000Y-143320000D02*
X84650000Y-143320000D01*
X84650000Y-143320000D02*
X84650000Y-144250000D01*
X84650000Y-146480000D02*
X83190000Y-146480000D01*
X84650000Y-146480000D02*
X84650000Y-145550000D01*
X82550000Y-143290000D02*
X82310000Y-142960000D01*
X82790000Y-142960000D01*
X82550000Y-143290000D01*
G36*
X82550000Y-143290000D02*
G01*
X82310000Y-142960000D01*
X82790000Y-142960000D01*
X82550000Y-143290000D01*
G37*
X89015000Y-141527064D02*
X89015000Y-141072936D01*
X90485000Y-141527064D02*
X90485000Y-141072936D01*
X85240000Y-139820000D02*
X85240000Y-140750000D01*
X85240000Y-139820000D02*
X86700000Y-139820000D01*
X85240000Y-142980000D02*
X85240000Y-142050000D01*
X86040000Y-142980000D02*
X85240000Y-142980000D01*
X86040000Y-142980000D02*
X86840000Y-142980000D01*
X87340000Y-143010000D02*
X87580000Y-143340000D01*
X87100000Y-143340000D01*
X87340000Y-143010000D01*
G36*
X87580000Y-143340000D02*
G01*
X87100000Y-143340000D01*
X87340000Y-143010000D01*
X87580000Y-143340000D01*
G37*
X73880000Y-165510000D02*
X74900000Y-165510000D01*
X73880000Y-169760000D02*
X73880000Y-165510000D01*
X74900000Y-165510000D02*
X74900000Y-167110000D01*
X74900000Y-167110000D02*
X76180000Y-167110000D01*
X75600000Y-173330000D02*
X82280000Y-173330000D01*
X76180000Y-167110000D02*
X76180000Y-164220000D01*
X82980000Y-165510000D02*
X82980000Y-167110000D01*
X82980000Y-167110000D02*
X81700000Y-167110000D01*
X84000000Y-165510000D02*
X82980000Y-165510000D01*
X84000000Y-169760000D02*
X84000000Y-165510000D01*
X77540000Y-152620000D02*
X77540000Y-153550000D01*
X77540000Y-152620000D02*
X79000000Y-152620000D01*
X77540000Y-155780000D02*
X77540000Y-154850000D01*
X78340000Y-155780000D02*
X77540000Y-155780000D01*
X78340000Y-155780000D02*
X79140000Y-155780000D01*
X79640000Y-155810000D02*
X79880000Y-156140000D01*
X79400000Y-156140000D01*
X79640000Y-155810000D01*
G36*
X79880000Y-156140000D02*
G01*
X79400000Y-156140000D01*
X79640000Y-155810000D01*
X79880000Y-156140000D01*
G37*
X82390000Y-161650000D02*
X82390000Y-164950000D01*
X83272936Y-146965000D02*
X83727064Y-146965000D01*
X83272936Y-148435000D02*
X83727064Y-148435000D01*
X75710000Y-183640000D02*
X75710000Y-187140000D01*
X75710000Y-187140000D02*
X77660000Y-187140000D01*
X77660000Y-187140000D02*
X77660000Y-187750000D01*
X78060000Y-184140000D02*
X78060000Y-183640000D01*
X78160000Y-183640000D02*
X78160000Y-184140000D01*
X78260000Y-183640000D02*
X78260000Y-184140000D01*
X78260000Y-184140000D02*
X78060000Y-184140000D01*
X80060000Y-184140000D02*
X80060000Y-183640000D01*
X80160000Y-183640000D02*
X80160000Y-184140000D01*
X80260000Y-183640000D02*
X80260000Y-184140000D01*
X80260000Y-184140000D02*
X80060000Y-184140000D01*
X82060000Y-184140000D02*
X82060000Y-183640000D01*
X82160000Y-183640000D02*
X82160000Y-184140000D01*
X82260000Y-183640000D02*
X82260000Y-184140000D01*
X82260000Y-184140000D02*
X82060000Y-184140000D01*
X84060000Y-184140000D02*
X84060000Y-183640000D01*
X84160000Y-183640000D02*
X84160000Y-184140000D01*
X84260000Y-183640000D02*
X84260000Y-184140000D01*
X84260000Y-184140000D02*
X84060000Y-184140000D01*
X86060000Y-184140000D02*
X86060000Y-183640000D01*
X86160000Y-183640000D02*
X86160000Y-184140000D01*
X86260000Y-183640000D02*
X86260000Y-184140000D01*
X86260000Y-184140000D02*
X86060000Y-184140000D01*
X86660000Y-187140000D02*
X88610000Y-187140000D01*
X86660000Y-187750000D02*
X86660000Y-187140000D01*
X88610000Y-183640000D02*
X75710000Y-183640000D01*
X88610000Y-187140000D02*
X88610000Y-183640000D01*
X82100000Y-161460000D02*
X85400000Y-161460000D01*
X83727064Y-148915000D02*
X83272936Y-148915000D01*
X83727064Y-150385000D02*
X83272936Y-150385000D01*
X78648752Y-156315000D02*
X78126248Y-156315000D01*
X78648752Y-157785000D02*
X78126248Y-157785000D01*
X86270000Y-151010000D02*
X86270000Y-149550000D01*
X86270000Y-151010000D02*
X87200000Y-151010000D01*
X89430000Y-150210000D02*
X89430000Y-149410000D01*
X89430000Y-150210000D02*
X89430000Y-151010000D01*
X89430000Y-151010000D02*
X88500000Y-151010000D01*
X89460000Y-148910000D02*
X89790000Y-148670000D01*
X89790000Y-149150000D01*
X89460000Y-148910000D01*
G36*
X89790000Y-149150000D02*
G01*
X89460000Y-148910000D01*
X89790000Y-148670000D01*
X89790000Y-149150000D01*
G37*
X88222936Y-145785000D02*
X88677064Y-145785000D01*
X88222936Y-147255000D02*
X88677064Y-147255000D01*
X76315000Y-149538748D02*
X76315000Y-150061252D01*
X77785000Y-149538748D02*
X77785000Y-150061252D01*
X80046267Y-162470000D02*
X79753733Y-162470000D01*
X80046267Y-163490000D02*
X79753733Y-163490000D01*
M02*
