G04 #@! TF.GenerationSoftware,KiCad,Pcbnew,10.0.6-rc2*
G04 #@! TF.CreationDate,2026-08-25T12:43:28+02:00*
G04 #@! TF.ProjectId,unni-esp-interface,756e6e69-2d65-4737-902d-696e74657266,rev?*
G04 #@! TF.SameCoordinates,Original*
G04 #@! TF.FileFunction,Copper,L1,Top*
G04 #@! TF.FilePolarity,Positive*
%FSLAX46Y46*%
G04 Gerber Fmt 4.6, Leading zero omitted, Abs format (unit mm)*
G04 Created by KiCad (PCBNEW 10.0.6-rc2) date 2026-08-25 12:43:28*
%MOMM*%
%LPD*%
G01*
G04 APERTURE LIST*
G04 Aperture macros list*
%AMRoundRect*
0 Rectangle with rounded corners*
0 $1 Rounding radius*
0 $2 $3 $4 $5 $6 $7 $8 $9 X,Y pos of 4 corners*
0 Add a 4 corners polygon primitive as box body*
4,1,4,$2,$3,$4,$5,$6,$7,$8,$9,$2,$3,0*
0 Add four circle primitives for the rounded corners*
1,1,$1+$1,$2,$3*
1,1,$1+$1,$4,$5*
1,1,$1+$1,$6,$7*
1,1,$1+$1,$8,$9*
0 Add four rect primitives between the rounded corners*
20,1,$1+$1,$2,$3,$4,$5,0*
20,1,$1+$1,$4,$5,$6,$7,0*
20,1,$1+$1,$6,$7,$8,$9,0*
20,1,$1+$1,$8,$9,$2,$3,0*%
%AMOutline5P*
0 Free polygon, 5 corners , with rotation*
0 The origin of the aperture is its center*
0 number of corners: always 5*
0 $1 to $10 corner X, Y*
0 $11 Rotation angle, in degrees counterclockwise*
0 create outline with 5 corners*
4,1,5,$1,$2,$3,$4,$5,$6,$7,$8,$9,$10,$1,$2,$11*%
%AMOutline6P*
0 Free polygon, 6 corners , with rotation*
0 The origin of the aperture is its center*
0 number of corners: always 6*
0 $1 to $12 corner X, Y*
0 $13 Rotation angle, in degrees counterclockwise*
0 create outline with 6 corners*
4,1,6,$1,$2,$3,$4,$5,$6,$7,$8,$9,$10,$11,$12,$1,$2,$13*%
%AMOutline7P*
0 Free polygon, 7 corners , with rotation*
0 The origin of the aperture is its center*
0 number of corners: always 7*
0 $1 to $14 corner X, Y*
0 $15 Rotation angle, in degrees counterclockwise*
0 create outline with 7 corners*
4,1,7,$1,$2,$3,$4,$5,$6,$7,$8,$9,$10,$11,$12,$13,$14,$1,$2,$15*%
%AMOutline8P*
0 Free polygon, 8 corners , with rotation*
0 The origin of the aperture is its center*
0 number of corners: always 8*
0 $1 to $16 corner X, Y*
0 $17 Rotation angle, in degrees counterclockwise*
0 create outline with 8 corners*
4,1,8,$1,$2,$3,$4,$5,$6,$7,$8,$9,$10,$11,$12,$13,$14,$15,$16,$1,$2,$17*%
G04 Aperture macros list end*
G04 #@! TA.AperFunction,SMDPad,CuDef*
%ADD10RoundRect,0.250000X0.475000X-0.337500X0.475000X0.337500X-0.475000X0.337500X-0.475000X-0.337500X0*%
G04 #@! TD*
G04 #@! TA.AperFunction,SMDPad,CuDef*
%ADD11RoundRect,0.250000X0.450000X-0.350000X0.450000X0.350000X-0.450000X0.350000X-0.450000X-0.350000X0*%
G04 #@! TD*
G04 #@! TA.AperFunction,SMDPad,CuDef*
%ADD12RoundRect,0.237500X0.250000X0.237500X-0.250000X0.237500X-0.250000X-0.237500X0.250000X-0.237500X0*%
G04 #@! TD*
G04 #@! TA.AperFunction,SMDPad,CuDef*
%ADD13RoundRect,0.237500X-0.300000X-0.237500X0.300000X-0.237500X0.300000X0.237500X-0.300000X0.237500X0*%
G04 #@! TD*
G04 #@! TA.AperFunction,SMDPad,CuDef*
%ADD14RoundRect,0.156000X-0.494000X-1.194000X0.494000X-1.194000X0.494000X1.194000X-0.494000X1.194000X0*%
G04 #@! TD*
G04 #@! TA.AperFunction,SMDPad,CuDef*
%ADD15RoundRect,0.142500X-0.407500X0.332500X-0.407500X-0.332500X0.407500X-0.332500X0.407500X0.332500X0*%
G04 #@! TD*
G04 #@! TA.AperFunction,SMDPad,CuDef*
%ADD16RoundRect,0.062500X-0.062500X0.350000X-0.062500X-0.350000X0.062500X-0.350000X0.062500X0.350000X0*%
G04 #@! TD*
G04 #@! TA.AperFunction,HeatsinkPad*
%ADD17R,2.000000X1.200000*%
G04 #@! TD*
G04 #@! TA.AperFunction,SMDPad,CuDef*
%ADD18RoundRect,0.250000X-0.450000X0.350000X-0.450000X-0.350000X0.450000X-0.350000X0.450000X0.350000X0*%
G04 #@! TD*
G04 #@! TA.AperFunction,ComponentPad*
%ADD19RoundRect,0.250000X-0.625000X0.350000X-0.625000X-0.350000X0.625000X-0.350000X0.625000X0.350000X0*%
G04 #@! TD*
G04 #@! TA.AperFunction,ComponentPad*
%ADD20O,1.750000X1.200000*%
G04 #@! TD*
G04 #@! TA.AperFunction,SMDPad,CuDef*
%ADD21RoundRect,0.237500X-0.237500X0.300000X-0.237500X-0.300000X0.237500X-0.300000X0.237500X0.300000X0*%
G04 #@! TD*
G04 #@! TA.AperFunction,SMDPad,CuDef*
%ADD22RoundRect,0.250000X-0.350000X-0.450000X0.350000X-0.450000X0.350000X0.450000X-0.350000X0.450000X0*%
G04 #@! TD*
G04 #@! TA.AperFunction,SMDPad,CuDef*
%ADD23R,0.800000X0.400000*%
G04 #@! TD*
G04 #@! TA.AperFunction,SMDPad,CuDef*
%ADD24R,0.400000X0.800000*%
G04 #@! TD*
G04 #@! TA.AperFunction,HeatsinkPad*
%ADD25Outline5P,-0.725000X0.130500X-0.130500X0.725000X0.725000X0.725000X0.725000X-0.725000X-0.725000X-0.725000X0.000000*%
G04 #@! TD*
G04 #@! TA.AperFunction,HeatsinkPad*
%ADD26R,1.450000X1.450000*%
G04 #@! TD*
G04 #@! TA.AperFunction,SMDPad,CuDef*
%ADD27R,0.700000X0.700000*%
G04 #@! TD*
G04 #@! TA.AperFunction,ComponentPad*
%ADD28RoundRect,0.250000X0.625000X-0.350000X0.625000X0.350000X-0.625000X0.350000X-0.625000X-0.350000X0*%
G04 #@! TD*
G04 #@! TA.AperFunction,SMDPad,CuDef*
%ADD29RoundRect,0.250000X-0.650000X1.500000X-0.650000X-1.500000X0.650000X-1.500000X0.650000X1.500000X0*%
G04 #@! TD*
G04 #@! TA.AperFunction,ComponentPad*
%ADD30RoundRect,0.250000X-0.350000X-0.625000X0.350000X-0.625000X0.350000X0.625000X-0.350000X0.625000X0*%
G04 #@! TD*
G04 #@! TA.AperFunction,ComponentPad*
%ADD31O,1.200000X1.750000*%
G04 #@! TD*
G04 #@! TA.AperFunction,SMDPad,CuDef*
%ADD32RoundRect,0.250000X0.350000X0.450000X-0.350000X0.450000X-0.350000X-0.450000X0.350000X-0.450000X0*%
G04 #@! TD*
G04 #@! TA.AperFunction,SMDPad,CuDef*
%ADD33RoundRect,0.237500X0.237500X-0.300000X0.237500X0.300000X-0.237500X0.300000X-0.237500X-0.300000X0*%
G04 #@! TD*
G04 #@! TA.AperFunction,SMDPad,CuDef*
%ADD34RoundRect,0.237500X0.300000X0.237500X-0.300000X0.237500X-0.300000X-0.237500X0.300000X-0.237500X0*%
G04 #@! TD*
G04 #@! TA.AperFunction,SMDPad,CuDef*
%ADD35RoundRect,0.200000X-0.200000X0.750000X-0.200000X-0.750000X0.200000X-0.750000X0.200000X0.750000X0*%
G04 #@! TD*
G04 #@! TA.AperFunction,SMDPad,CuDef*
%ADD36RoundRect,0.200000X0.750000X0.200000X-0.750000X0.200000X-0.750000X-0.200000X0.750000X-0.200000X0*%
G04 #@! TD*
G04 #@! TA.AperFunction,SMDPad,CuDef*
%ADD37RoundRect,0.142500X-0.332500X-0.407500X0.332500X-0.407500X0.332500X0.407500X-0.332500X0.407500X0*%
G04 #@! TD*
G04 #@! TA.AperFunction,SMDPad,CuDef*
%ADD38RoundRect,0.162500X-0.617500X-0.162500X0.617500X-0.162500X0.617500X0.162500X-0.617500X0.162500X0*%
G04 #@! TD*
G04 #@! TA.AperFunction,SMDPad,CuDef*
%ADD39RoundRect,0.250000X-0.475000X0.337500X-0.475000X-0.337500X0.475000X-0.337500X0.475000X0.337500X0*%
G04 #@! TD*
G04 #@! TA.AperFunction,ComponentPad*
%ADD40RoundRect,0.250000X0.350000X0.625000X-0.350000X0.625000X-0.350000X-0.625000X0.350000X-0.625000X0*%
G04 #@! TD*
G04 #@! TA.AperFunction,SMDPad,CuDef*
%ADD41RoundRect,0.250000X-0.337500X-0.475000X0.337500X-0.475000X0.337500X0.475000X-0.337500X0.475000X0*%
G04 #@! TD*
G04 #@! TA.AperFunction,ViaPad*
%ADD42C,0.600000*%
G04 #@! TD*
G04 #@! TA.AperFunction,ViaPad*
%ADD43C,0.800000*%
G04 #@! TD*
G04 #@! TA.AperFunction,Conductor*
%ADD44C,0.400000*%
G04 #@! TD*
G04 #@! TA.AperFunction,Conductor*
%ADD45C,0.200000*%
G04 #@! TD*
G04 #@! TA.AperFunction,Conductor*
%ADD46C,0.500000*%
G04 #@! TD*
G04 #@! TA.AperFunction,Conductor*
%ADD47C,0.250000*%
G04 #@! TD*
G04 #@! TA.AperFunction,Conductor*
%ADD48C,0.150000*%
G04 #@! TD*
G04 #@! TA.AperFunction,Conductor*
%ADD49C,0.800000*%
G04 #@! TD*
G04 APERTURE END LIST*
D10*
X120190000Y-151127500D03*
X120190000Y-149052500D03*
D11*
X115490000Y-146740000D03*
X115490000Y-144740000D03*
D12*
X154862500Y-143350000D03*
X153037500Y-143350000D03*
D13*
X152937500Y-133490000D03*
X154662500Y-133490000D03*
D14*
X115185000Y-134095000D03*
X117885000Y-134095000D03*
D15*
X148600000Y-143900000D03*
X148600000Y-147350000D03*
X146350000Y-143900000D03*
X146350000Y-147350000D03*
D16*
X117485000Y-136520000D03*
X116985000Y-136520000D03*
X116485000Y-136520000D03*
X115985000Y-136520000D03*
X115485000Y-136520000D03*
X115485000Y-138945000D03*
X115985000Y-138945000D03*
X116485000Y-138945000D03*
X116985000Y-138945000D03*
X117485000Y-138945000D03*
D17*
X116485000Y-137732500D03*
D18*
X139977500Y-147415000D03*
X139977500Y-149415000D03*
D19*
X153980000Y-146580000D03*
D20*
X153980000Y-148580000D03*
X153980000Y-150580000D03*
X153980000Y-152580000D03*
X153980000Y-154580000D03*
D21*
X138280000Y-148817500D03*
X138280000Y-150542500D03*
D18*
X141952500Y-147415000D03*
X141952500Y-149415000D03*
D22*
X150970000Y-131790000D03*
X152970000Y-131790000D03*
D23*
X136681098Y-132325000D03*
X136681098Y-133125000D03*
X136681098Y-133925000D03*
X136681098Y-134725000D03*
X136681098Y-135525000D03*
X136681098Y-136325000D03*
X136681098Y-137125000D03*
X136681098Y-137925000D03*
X136681098Y-138725000D03*
X136681098Y-139525000D03*
X136681098Y-140325000D03*
D24*
X137781098Y-141225000D03*
X138581098Y-141225000D03*
X139381098Y-141225000D03*
X140181098Y-141225000D03*
X140981098Y-141225000D03*
X141781098Y-141225000D03*
X142581098Y-141225000D03*
X143381098Y-141225000D03*
X144181098Y-141225000D03*
X144981098Y-141225000D03*
X145781098Y-141225000D03*
X146581098Y-141225000D03*
X147381098Y-141225000D03*
D23*
X148481098Y-140325000D03*
X148481098Y-139525000D03*
X148481098Y-138725000D03*
X148481098Y-137925000D03*
X148481098Y-137125000D03*
X148481098Y-136325000D03*
X148481098Y-135525000D03*
X148481098Y-134725000D03*
X148481098Y-133925000D03*
X148481098Y-133125000D03*
X148481098Y-132325000D03*
D24*
X147381098Y-131425000D03*
X146581098Y-131425000D03*
X145781098Y-131425000D03*
X144981098Y-131425000D03*
X144181098Y-131425000D03*
X143381098Y-131425000D03*
X142581098Y-131425000D03*
X141781098Y-131425000D03*
X140981098Y-131425000D03*
X140181098Y-131425000D03*
X139381098Y-131425000D03*
X138581098Y-131425000D03*
X137781098Y-131425000D03*
D25*
X140606098Y-134350000D03*
D26*
X140606098Y-136325000D03*
X140606098Y-138300000D03*
X142581098Y-134350000D03*
X142581098Y-136325000D03*
X142581098Y-138300000D03*
X144556098Y-134350000D03*
X144556098Y-136325000D03*
X144556098Y-138300000D03*
D27*
X148531098Y-131375000D03*
X148531098Y-141275000D03*
X136631098Y-141275000D03*
X136631098Y-131375000D03*
D28*
X125360000Y-137200000D03*
D20*
X125360000Y-135200000D03*
X125360000Y-133200000D03*
D11*
X135110000Y-145410000D03*
X135110000Y-143410000D03*
D29*
X123010000Y-147220000D03*
X123010000Y-152220000D03*
D30*
X112460000Y-153990000D03*
D31*
X114460000Y-153990000D03*
D32*
X131520000Y-133330000D03*
X129520000Y-133330000D03*
D33*
X133100000Y-133382500D03*
X133100000Y-131657500D03*
D34*
X134942500Y-139530000D03*
X133217500Y-139530000D03*
D21*
X125230000Y-142277500D03*
X125230000Y-144002500D03*
D22*
X117340000Y-144840000D03*
X119340000Y-144840000D03*
D35*
X127460000Y-152450000D03*
X125560000Y-152450000D03*
X126510000Y-155450000D03*
D36*
X129380000Y-147790000D03*
X129380000Y-145890000D03*
X126380000Y-146840000D03*
D21*
X133420000Y-145027500D03*
X133420000Y-146752500D03*
D18*
X128940000Y-142110000D03*
X128940000Y-144110000D03*
D22*
X130770000Y-143280000D03*
X132770000Y-143280000D03*
D11*
X129210000Y-153530000D03*
X129210000Y-151530000D03*
D37*
X130875000Y-135305000D03*
X134325000Y-135305000D03*
X130875000Y-137555000D03*
X134325000Y-137555000D03*
D38*
X115452500Y-148690000D03*
X115452500Y-149640000D03*
X115452500Y-150590000D03*
X118152500Y-150590000D03*
X118152500Y-148690000D03*
D33*
X134580000Y-133382500D03*
X134580000Y-131657500D03*
D22*
X117390000Y-146790000D03*
X119390000Y-146790000D03*
D18*
X138956701Y-143407790D03*
X138956701Y-145407790D03*
D12*
X149892500Y-150260000D03*
X148067500Y-150260000D03*
D10*
X113440000Y-150865000D03*
X113440000Y-148790000D03*
D32*
X134860000Y-141340000D03*
X132860000Y-141340000D03*
D12*
X149902500Y-148800000D03*
X148077500Y-148800000D03*
D18*
X127020000Y-142160000D03*
X127020000Y-144160000D03*
D22*
X127150000Y-149630000D03*
X129150000Y-149630000D03*
D39*
X118985000Y-136595000D03*
X118985000Y-138670000D03*
D18*
X144770000Y-145130000D03*
X144770000Y-147130000D03*
D19*
X153640000Y-136680000D03*
D20*
X153640000Y-138680000D03*
D39*
X121085000Y-136607500D03*
X121085000Y-138682500D03*
D40*
X148230000Y-154660000D03*
D31*
X146230000Y-154660000D03*
X144230000Y-154660000D03*
X142230000Y-154660000D03*
X140230000Y-154660000D03*
X138230000Y-154660000D03*
D11*
X137056701Y-145407790D03*
X137056701Y-143407790D03*
D21*
X114250000Y-136527500D03*
X114250000Y-138252500D03*
D12*
X154082500Y-141880000D03*
X152257500Y-141880000D03*
D41*
X112012500Y-140220000D03*
X114087500Y-140220000D03*
D21*
X130790000Y-139137500D03*
X130790000Y-140862500D03*
X143650000Y-148777500D03*
X143650000Y-150502500D03*
D42*
X132100000Y-151600000D03*
X132750000Y-150300000D03*
X134050000Y-150300000D03*
X136650000Y-152900000D03*
X132750000Y-152900000D03*
X136000000Y-151600000D03*
X117150000Y-152900000D03*
X131450000Y-150300000D03*
X119750000Y-152900000D03*
X136650000Y-150300000D03*
X139250000Y-152900000D03*
X137950000Y-152900000D03*
X118450000Y-152900000D03*
X135350000Y-150300000D03*
X117800000Y-151600000D03*
X121050000Y-152900000D03*
X130800000Y-151600000D03*
X135350000Y-152900000D03*
X134050000Y-152900000D03*
X137300000Y-151600000D03*
X140550000Y-152900000D03*
X131450000Y-152900000D03*
X139900000Y-151600000D03*
X133400000Y-151600000D03*
X134700000Y-151600000D03*
X138600000Y-151600000D03*
X122250000Y-139500000D03*
X143556098Y-135350000D03*
D43*
X142390000Y-150830000D03*
D42*
X112500000Y-147000000D03*
D43*
X133420000Y-148000000D03*
D42*
X141606098Y-137300000D03*
X115500000Y-141000000D03*
X123750000Y-139500000D03*
X149985290Y-141253949D03*
X120000000Y-141000000D03*
X145706098Y-137300000D03*
X141606098Y-133200000D03*
X139506098Y-137300000D03*
D43*
X127900000Y-145970000D03*
D42*
X111750000Y-145500000D03*
X114000000Y-147000000D03*
D43*
X140065000Y-144479015D03*
D42*
X111750000Y-148500000D03*
X145706098Y-133200000D03*
X145706098Y-135350000D03*
X111000000Y-147000000D03*
X120770000Y-147000000D03*
X118500000Y-141000000D03*
D43*
X130820000Y-141960000D03*
D42*
X133217500Y-140340000D03*
X117000000Y-141000000D03*
X132400000Y-135120000D03*
X120750000Y-145500000D03*
X141606098Y-139400000D03*
D43*
X130020000Y-144780000D03*
D42*
X145706098Y-139350000D03*
X127010000Y-151020000D03*
X143556098Y-139350000D03*
X143556098Y-133200000D03*
X141606098Y-135350000D03*
X143556098Y-137300000D03*
D43*
X154660000Y-135310000D03*
D42*
X148600000Y-145650000D03*
X139506098Y-135350000D03*
X123000000Y-141000000D03*
X121290000Y-149343823D03*
X139506098Y-133200000D03*
X121500000Y-141000000D03*
X113250000Y-145500000D03*
X136681098Y-140775000D03*
D43*
X139460000Y-150730000D03*
D42*
X139728683Y-138974998D03*
X144720000Y-143920000D03*
X118320000Y-143780000D03*
X137750000Y-135575000D03*
X145530000Y-142550000D03*
X120000000Y-132000000D03*
X118085000Y-136795000D03*
X123750000Y-133500000D03*
X121500000Y-132000000D03*
X122250000Y-133500000D03*
X135850000Y-133770000D03*
X138490000Y-132960000D03*
X117835000Y-139745000D03*
X137700000Y-132980000D03*
X138500000Y-133810000D03*
X120750000Y-133500000D03*
X123000000Y-132000000D03*
X137720000Y-133810000D03*
X112500000Y-135000000D03*
X119250000Y-142500000D03*
X113250000Y-142500000D03*
X120750000Y-142500000D03*
X123000000Y-144000000D03*
X114000000Y-135000000D03*
X111000000Y-135000000D03*
X113250000Y-136500000D03*
X117750000Y-142500000D03*
X113250000Y-133500000D03*
X111750000Y-136500000D03*
X115832975Y-140002131D03*
X112500000Y-138000000D03*
X111750000Y-133500000D03*
X111000000Y-138000000D03*
X116250000Y-142500000D03*
X114750000Y-142500000D03*
X122250000Y-142500000D03*
X111750000Y-142500000D03*
X132070000Y-136760000D03*
X131920000Y-138310000D03*
X140243759Y-142406089D03*
X144740000Y-149380000D03*
X142422166Y-145789323D03*
X143060000Y-143320000D03*
X143700000Y-146120000D03*
X141210817Y-142136899D03*
X145900000Y-148560000D03*
X143097328Y-142219979D03*
X135600000Y-138540000D03*
X137581100Y-138900000D03*
X147600000Y-139550000D03*
X138833677Y-140277916D03*
X151899620Y-139339620D03*
X147200000Y-135530000D03*
X135670000Y-135190000D03*
X115200000Y-151600000D03*
D43*
X138350000Y-147590000D03*
D42*
X111950000Y-155500000D03*
X117150000Y-155500000D03*
X134700000Y-154200000D03*
X130150000Y-155500000D03*
X136000000Y-154200000D03*
X121050000Y-155500000D03*
X136650000Y-155500000D03*
X128850000Y-155500000D03*
X111300000Y-154200000D03*
X118450000Y-155500000D03*
X124950000Y-155500000D03*
X132100000Y-154200000D03*
X131450000Y-155500000D03*
X134050000Y-155500000D03*
X114550000Y-155500000D03*
X133400000Y-154200000D03*
X123650000Y-155500000D03*
X115850000Y-152900000D03*
X115850000Y-155500000D03*
X122350000Y-155500000D03*
X132750000Y-155500000D03*
X119750000Y-155500000D03*
X127550000Y-155500000D03*
X135350000Y-155500000D03*
X113250000Y-155500000D03*
X111300000Y-151600000D03*
D44*
X129210000Y-153530000D02*
X129210000Y-153700000D01*
X129060000Y-153850000D02*
X123890000Y-153850000D01*
X129210000Y-153700000D02*
X129060000Y-153850000D01*
D45*
X135110000Y-145410000D02*
X135110000Y-149240000D01*
D44*
X123010000Y-152970000D02*
X123010000Y-152220000D01*
X123890000Y-153850000D02*
X123010000Y-152970000D01*
D46*
X142717500Y-150502500D02*
X142390000Y-150830000D01*
X130790000Y-140862500D02*
X130790000Y-141930000D01*
X134325000Y-135305000D02*
X133002056Y-135305000D01*
D47*
X139381098Y-141225000D02*
X139381098Y-140675000D01*
D46*
X139272500Y-150542500D02*
X139460000Y-150730000D01*
X128940000Y-144110000D02*
X129350000Y-144110000D01*
D45*
X127150000Y-149630000D02*
X127460000Y-149940000D01*
D46*
X129380000Y-145890000D02*
X127980000Y-145890000D01*
D47*
X133217500Y-140340000D02*
X133217500Y-139530000D01*
D46*
X131060000Y-135120000D02*
X132400000Y-135120000D01*
X154662500Y-133490000D02*
X154662500Y-135307500D01*
X132770000Y-143280000D02*
X132770000Y-141430000D01*
X138956701Y-145407790D02*
X139656701Y-145407790D01*
X143650000Y-150502500D02*
X142717500Y-150502500D01*
X154662500Y-135307500D02*
X154660000Y-135310000D01*
X148600000Y-145650000D02*
X148600000Y-147350000D01*
X138280000Y-150542500D02*
X139272500Y-150542500D01*
X133002056Y-135305000D02*
X132865056Y-135168000D01*
D45*
X127460000Y-150570000D02*
X127010000Y-151020000D01*
D44*
X136681098Y-140325000D02*
X136681098Y-140775000D01*
X136681098Y-140775000D02*
X136681098Y-141225000D01*
D46*
X129350000Y-144110000D02*
X130020000Y-144780000D01*
D47*
X140230000Y-139826098D02*
X140230000Y-139580000D01*
X132860000Y-141340000D02*
X133217500Y-140982500D01*
D45*
X127460000Y-149940000D02*
X127460000Y-150570000D01*
D46*
X139656701Y-145407790D02*
X140065000Y-144999491D01*
X127980000Y-145890000D02*
X127900000Y-145970000D01*
X130875000Y-135305000D02*
X131060000Y-135120000D01*
X130790000Y-141930000D02*
X130820000Y-141960000D01*
X148531098Y-141275000D02*
X149964239Y-141275000D01*
D48*
X149964239Y-141275000D02*
X149985290Y-141253949D01*
D46*
X132770000Y-141430000D02*
X132860000Y-141340000D01*
X133420000Y-146752500D02*
X133420000Y-148000000D01*
D47*
X139381098Y-140675000D02*
X140230000Y-139826098D01*
D46*
X132865056Y-135168000D02*
X132400000Y-135168000D01*
D44*
X136681098Y-141225000D02*
X136631098Y-141275000D01*
D46*
X140065000Y-144999491D02*
X140065000Y-144479015D01*
D47*
X133217500Y-140982500D02*
X133217500Y-140340000D01*
D46*
X148600000Y-143900000D02*
X148600000Y-145650000D01*
D45*
X115452500Y-146777500D02*
X115490000Y-146740000D01*
X115452500Y-148690000D02*
X115452500Y-146777500D01*
X117340000Y-144760000D02*
X118320000Y-143780000D01*
X143381098Y-141225000D02*
X143681098Y-141525000D01*
X117340000Y-144840000D02*
X117340000Y-144760000D01*
X143681098Y-141525000D02*
X143681098Y-141925000D01*
X117240000Y-144740000D02*
X117340000Y-144840000D01*
X143681098Y-141925000D02*
X144720000Y-142963902D01*
X144720000Y-142963902D02*
X144720000Y-143920000D01*
X115490000Y-144740000D02*
X117240000Y-144740000D01*
X155270000Y-147120000D02*
X155270000Y-143817500D01*
X153980000Y-148580000D02*
X153980000Y-148410000D01*
X154862500Y-143410000D02*
X154862500Y-143350000D01*
X155270000Y-143817500D02*
X154862500Y-143410000D01*
X153980000Y-148410000D02*
X155270000Y-147120000D01*
X150440000Y-143410000D02*
X149690000Y-142660000D01*
X149690000Y-142660000D02*
X148616098Y-142660000D01*
X153037500Y-143350000D02*
X152977500Y-143410000D01*
X147381098Y-141425000D02*
X147381098Y-141225000D01*
X152977500Y-143410000D02*
X150440000Y-143410000D01*
X148616098Y-142660000D02*
X147381098Y-141425000D01*
X153640000Y-136680000D02*
X152937500Y-135977500D01*
X152937500Y-131822500D02*
X152970000Y-131790000D01*
X137750000Y-135575000D02*
X136731098Y-135575000D01*
X152937500Y-133490000D02*
X152937500Y-131822500D01*
X136731098Y-135575000D02*
X136681098Y-135525000D01*
X152937500Y-135977500D02*
X152937500Y-133490000D01*
X146350000Y-143900000D02*
X146581098Y-143668902D01*
D47*
X146130000Y-147130000D02*
X146350000Y-147350000D01*
X144770000Y-147130000D02*
X146130000Y-147130000D01*
D45*
X146350000Y-143900000D02*
X146350000Y-147350000D01*
X146581098Y-143668902D02*
X146581098Y-141225000D01*
X145390000Y-144510000D02*
X145390000Y-142690000D01*
X117485000Y-139395000D02*
X117835000Y-139745000D01*
X145390000Y-142690000D02*
X145530000Y-142550000D01*
X117485000Y-138945000D02*
X117485000Y-139395000D01*
X144770000Y-145130000D02*
X145390000Y-144510000D01*
D49*
X123010000Y-148270000D02*
X123010000Y-147220000D01*
D45*
X116485000Y-138945000D02*
X116485000Y-139442596D01*
D49*
X125560000Y-152450000D02*
X125700000Y-152310000D01*
D45*
X115485000Y-139442596D02*
X115485000Y-138945000D01*
X116485000Y-139442596D02*
X116082596Y-139845000D01*
D49*
X125700000Y-152310000D02*
X125700000Y-150960000D01*
D45*
X115887404Y-139845000D02*
X115485000Y-139442596D01*
D49*
X125700000Y-150960000D02*
X123010000Y-148270000D01*
D45*
X141781098Y-141825001D02*
X141781098Y-141225000D01*
X139977500Y-147415000D02*
X139977500Y-146364999D01*
X140765000Y-145577499D02*
X140765000Y-144012156D01*
X141981098Y-142796058D02*
X141981098Y-142025001D01*
X140765000Y-144012156D02*
X141981098Y-142796058D01*
X141981098Y-142025001D02*
X141781098Y-141825001D01*
X139977500Y-146364999D02*
X140765000Y-145577499D01*
X146230000Y-154660000D02*
X146230000Y-154385000D01*
X140765000Y-150302500D02*
X139977500Y-149515000D01*
X146537156Y-152430000D02*
X142047156Y-152430000D01*
X139977500Y-149415000D02*
X138877500Y-149415000D01*
X142047156Y-152430000D02*
X140765000Y-151147844D01*
X147030000Y-153585000D02*
X147030000Y-152922844D01*
X146230000Y-154385000D02*
X147030000Y-153585000D01*
X140765000Y-151147844D02*
X140765000Y-150302500D01*
X138877500Y-149415000D02*
X138280000Y-148817500D01*
X147030000Y-152922844D02*
X146537156Y-152430000D01*
X139977500Y-149515000D02*
X139977500Y-149415000D01*
X153875000Y-142087500D02*
X154082500Y-141880000D01*
X153875000Y-146515000D02*
X153875000Y-142087500D01*
X153940000Y-146580000D02*
X153875000Y-146515000D01*
X153980000Y-146580000D02*
X153940000Y-146580000D01*
X153965000Y-150595000D02*
X153980000Y-150580000D01*
X151497500Y-150595000D02*
X153965000Y-150595000D01*
X149902500Y-148800000D02*
X149902500Y-149000000D01*
X149902500Y-149000000D02*
X151497500Y-150595000D01*
X152027500Y-152595000D02*
X153965000Y-152595000D01*
X149892500Y-150260000D02*
X149892500Y-150460000D01*
X149892500Y-150460000D02*
X152027500Y-152595000D01*
X153965000Y-152595000D02*
X153980000Y-152580000D01*
X141952500Y-147415000D02*
X141952500Y-146364999D01*
X141165000Y-144177844D02*
X142381098Y-142961746D01*
X141165000Y-145577499D02*
X141165000Y-144177844D01*
X142581098Y-141825001D02*
X142581098Y-141225000D01*
X142381098Y-142025001D02*
X142581098Y-141825001D01*
X142381098Y-142961746D02*
X142381098Y-142025001D01*
X141952500Y-146364999D02*
X141165000Y-145577499D01*
X148230000Y-154660000D02*
X148230000Y-154385000D01*
X143012500Y-149415000D02*
X143650000Y-148777500D01*
X146702844Y-152030000D02*
X142212844Y-152030000D01*
X147430000Y-152757156D02*
X146702844Y-152030000D01*
X147430000Y-153585000D02*
X147430000Y-152757156D01*
X141165000Y-150302500D02*
X141952500Y-149515000D01*
X141952500Y-149515000D02*
X141952500Y-149415000D01*
X148230000Y-154385000D02*
X147430000Y-153585000D01*
X141952500Y-149415000D02*
X143012500Y-149415000D01*
X141165000Y-150982156D02*
X141165000Y-150302500D01*
X142212844Y-152030000D02*
X141165000Y-150982156D01*
X150970000Y-131790000D02*
X150970000Y-136870000D01*
X150715000Y-137125000D02*
X148481098Y-137125000D01*
X150970000Y-136870000D02*
X150715000Y-137125000D01*
X132070000Y-136760000D02*
X132505000Y-136325000D01*
X130790000Y-139137500D02*
X130800000Y-139127500D01*
X127020000Y-144160000D02*
X128940000Y-142240000D01*
X130800000Y-139127500D02*
X131102500Y-139127500D01*
X130790000Y-139137500D02*
X128940000Y-140987500D01*
X131102500Y-139127500D02*
X131920000Y-138310000D01*
X128940000Y-142240000D02*
X128940000Y-142110000D01*
X132505000Y-136325000D02*
X136681098Y-136325000D01*
X128940000Y-140987500D02*
X128940000Y-142110000D01*
X129725000Y-133535000D02*
X129725000Y-136605000D01*
X129725000Y-136605000D02*
X130675000Y-137555000D01*
X130875000Y-137555000D02*
X134325000Y-137555000D01*
X129520000Y-133330000D02*
X129725000Y-133535000D01*
X130675000Y-137555000D02*
X130875000Y-137555000D01*
X134325000Y-137755000D02*
X134495000Y-137925000D01*
X134495000Y-137925000D02*
X136681098Y-137925000D01*
X134325000Y-137555000D02*
X134325000Y-137755000D01*
X136927790Y-143407790D02*
X137056701Y-143407790D01*
X134942500Y-139530000D02*
X134942500Y-141257500D01*
X134860000Y-141340000D02*
X136927790Y-143407790D01*
X137781098Y-142683393D02*
X137781098Y-141225000D01*
X137056701Y-143407790D02*
X137781098Y-142683393D01*
X134942500Y-141257500D02*
X134860000Y-141340000D01*
X138006701Y-144357790D02*
X138956701Y-143407790D01*
X138581098Y-143032187D02*
X138581098Y-141225000D01*
X135110000Y-143410000D02*
X136057790Y-144357790D01*
X135110000Y-143410000D02*
X133492500Y-145027500D01*
X138956701Y-143407790D02*
X138581098Y-143032187D01*
X136057790Y-144357790D02*
X138006701Y-144357790D01*
X133492500Y-145027500D02*
X133420000Y-145027500D01*
X140181098Y-141225000D02*
X140181098Y-142343428D01*
X148067500Y-150260000D02*
X145620000Y-150260000D01*
X142422166Y-145207834D02*
X142422166Y-145789323D01*
X145620000Y-150260000D02*
X144740000Y-149380000D01*
X143060000Y-143320000D02*
X143060000Y-144570000D01*
X140181098Y-142343428D02*
X140243759Y-142406089D01*
X143060000Y-144570000D02*
X142422166Y-145207834D01*
X140981098Y-141225000D02*
X140981098Y-141907180D01*
X143700000Y-146120000D02*
X143630000Y-146050000D01*
X143830000Y-142979305D02*
X143097328Y-142246633D01*
X143630000Y-143759239D02*
X143830000Y-143559239D01*
X146140000Y-148800000D02*
X145900000Y-148560000D01*
X143830000Y-143559239D02*
X143830000Y-142979305D01*
X143630000Y-146050000D02*
X143630000Y-143759239D01*
X140981098Y-141907180D02*
X141210817Y-142136899D01*
X148077500Y-148800000D02*
X146140000Y-148800000D01*
X143097328Y-142246633D02*
X143097328Y-142219979D01*
X152257500Y-141880000D02*
X150702500Y-140325000D01*
X150702500Y-140325000D02*
X148481098Y-140325000D01*
X138833677Y-140277916D02*
X138481134Y-139925373D01*
X131820000Y-139623278D02*
X132903278Y-138540000D01*
X132903278Y-138540000D02*
X135600000Y-138540000D01*
X130770000Y-143280000D02*
X131820000Y-142230000D01*
X130770000Y-146400000D02*
X129380000Y-147790000D01*
X138475373Y-139925373D02*
X137581100Y-139031100D01*
X137581100Y-139031100D02*
X137581100Y-138900000D01*
X131820000Y-142230000D02*
X131820000Y-139623278D01*
X148456098Y-139550000D02*
X148481098Y-139525000D01*
X130770000Y-143280000D02*
X130770000Y-146400000D01*
X138481134Y-139925373D02*
X138475373Y-139925373D01*
X147600000Y-139550000D02*
X148456098Y-139550000D01*
X151285000Y-138725000D02*
X151899620Y-139339620D01*
X148481098Y-138725000D02*
X151285000Y-138725000D01*
X129840000Y-131980000D02*
X130610000Y-132750000D01*
X148481098Y-137925000D02*
X147881098Y-137925000D01*
X126580000Y-131980000D02*
X129840000Y-131980000D01*
X130770000Y-134340000D02*
X134820000Y-134340000D01*
X134820000Y-134340000D02*
X135670000Y-135190000D01*
X125360000Y-133200000D02*
X126580000Y-131980000D01*
X130610000Y-132750000D02*
X130610000Y-134180000D01*
X147200000Y-137243902D02*
X147200000Y-135530000D01*
X147881098Y-137925000D02*
X147200000Y-137243902D01*
X130610000Y-134180000D02*
X130770000Y-134340000D01*
X125230000Y-137330000D02*
X125360000Y-137200000D01*
X125230000Y-142277500D02*
X125230000Y-137330000D01*
X127020000Y-142160000D02*
X127020000Y-136860000D01*
X127020000Y-136860000D02*
X125360000Y-135200000D01*
X137056701Y-145407790D02*
X137056701Y-146296701D01*
X137056701Y-146296701D02*
X138350000Y-147590000D01*
X125230000Y-144002500D02*
X125230000Y-145690000D01*
X125230000Y-145690000D02*
X126380000Y-146840000D01*
X127600000Y-152450000D02*
X128530000Y-151520000D01*
X129200000Y-151520000D02*
X129210000Y-151530000D01*
X129380000Y-151530000D02*
X129210000Y-151530000D01*
X129460000Y-149940000D02*
X129460000Y-151450000D01*
X129460000Y-151450000D02*
X129380000Y-151530000D01*
X129150000Y-149630000D02*
X129460000Y-149940000D01*
X127460000Y-152450000D02*
X127600000Y-152450000D01*
X128530000Y-151520000D02*
X129200000Y-151520000D01*
X117390000Y-146790000D02*
X118152500Y-147552500D01*
X118152500Y-147552500D02*
X118152500Y-148690000D01*
G04 #@! TA.AperFunction,Conductor*
G36*
X116529731Y-135999843D02*
G01*
X116542418Y-136003966D01*
X116591918Y-136039927D01*
X116591938Y-136039954D01*
X116592993Y-136041407D01*
X116611466Y-136090502D01*
X116611962Y-136095892D01*
X116611532Y-136117883D01*
X116609511Y-136133235D01*
X116609500Y-136133326D01*
X116609500Y-136906679D01*
X116609501Y-136906686D01*
X116615499Y-136952254D01*
X116615502Y-136952265D01*
X116619095Y-136959970D01*
X116619558Y-136963746D01*
X116621942Y-136966714D01*
X116623358Y-136972445D01*
X116627311Y-136982479D01*
X116632980Y-137003268D01*
X116633781Y-137008328D01*
X116635000Y-137023812D01*
X116635000Y-137145000D01*
X116738828Y-137145000D01*
X116760257Y-137147347D01*
X116780928Y-137151930D01*
X116801325Y-137158852D01*
X116815471Y-137165448D01*
X116815474Y-137165451D01*
X116815474Y-137165450D01*
X116840240Y-137176999D01*
X116885821Y-137183000D01*
X117084178Y-137182999D01*
X117090671Y-137182144D01*
X117129756Y-137177000D01*
X117129757Y-137176999D01*
X117129760Y-137176999D01*
X117168665Y-137158856D01*
X117189073Y-137151928D01*
X117197642Y-137150029D01*
X117209748Y-137147346D01*
X117231172Y-137145000D01*
X117238828Y-137145000D01*
X117260257Y-137147347D01*
X117280928Y-137151930D01*
X117301325Y-137158852D01*
X117315471Y-137165448D01*
X117315474Y-137165451D01*
X117315474Y-137165450D01*
X117340240Y-137176999D01*
X117385821Y-137183000D01*
X117464790Y-137182999D01*
X117522980Y-137201906D01*
X117542536Y-137220709D01*
X117553216Y-137234257D01*
X117553229Y-137234272D01*
X117578167Y-137260209D01*
X117587944Y-137270378D01*
X117674925Y-137319088D01*
X117733116Y-137337995D01*
X117765987Y-137343201D01*
X117805410Y-137358607D01*
X117912668Y-137430112D01*
X117938856Y-137455711D01*
X118074364Y-137649293D01*
X118074370Y-137649300D01*
X118074377Y-137649310D01*
X118101423Y-137681835D01*
X118101439Y-137681853D01*
X118124334Y-137705154D01*
X118124342Y-137705161D01*
X118140658Y-137720378D01*
X118227639Y-137769088D01*
X118285830Y-137787995D01*
X118285831Y-137787995D01*
X118285834Y-137787996D01*
X118364779Y-137800500D01*
X124036000Y-137800500D01*
X124094191Y-137819407D01*
X124130155Y-137868907D01*
X124135000Y-137899500D01*
X124135000Y-141355319D01*
X124130154Y-141385912D01*
X124126032Y-141398598D01*
X124090080Y-141448089D01*
X124085959Y-141451084D01*
X124027771Y-141470000D01*
X113324680Y-141470000D01*
X113294087Y-141465154D01*
X113281401Y-141461032D01*
X113231901Y-141425068D01*
X113231894Y-141425058D01*
X113228900Y-141420936D01*
X113210000Y-141362756D01*
X113210000Y-138558322D01*
X115109500Y-138558322D01*
X115109500Y-138561143D01*
X115109500Y-139331679D01*
X115109501Y-139331691D01*
X115115498Y-139377250D01*
X115115499Y-139377254D01*
X115115501Y-139377263D01*
X115115502Y-139377265D01*
X115120640Y-139388283D01*
X115127568Y-139408689D01*
X115132152Y-139429359D01*
X115134500Y-139450794D01*
X115134500Y-139488740D01*
X115141032Y-139513119D01*
X115146228Y-139532512D01*
X115152348Y-139555350D01*
X115158386Y-139577884D01*
X115204530Y-139657808D01*
X115204531Y-139657809D01*
X115204532Y-139657810D01*
X115271947Y-139725226D01*
X115290151Y-139750281D01*
X115298769Y-139767195D01*
X115309423Y-139817332D01*
X115309202Y-139821560D01*
X115305965Y-139841987D01*
X115282475Y-139929656D01*
X115282475Y-140074605D01*
X115312588Y-140186988D01*
X115319993Y-140214624D01*
X115392460Y-140340139D01*
X115392462Y-140340141D01*
X115392464Y-140340143D01*
X115392466Y-140340146D01*
X115494960Y-140442640D01*
X115494962Y-140442641D01*
X115495069Y-140442748D01*
X115495320Y-140442934D01*
X115497513Y-140444115D01*
X115610082Y-140509106D01*
X115617732Y-140513523D01*
X115620145Y-140515021D01*
X115620483Y-140515111D01*
X115620486Y-140515113D01*
X115620487Y-140515113D01*
X115620490Y-140515115D01*
X115760500Y-140552631D01*
X115760501Y-140552631D01*
X115905449Y-140552631D01*
X115905450Y-140552631D01*
X116045460Y-140515115D01*
X116045461Y-140515114D01*
X116045463Y-140515113D01*
X116045464Y-140515113D01*
X116164855Y-140446182D01*
X116167743Y-140444779D01*
X116168529Y-140444262D01*
X116173538Y-140441168D01*
X116174837Y-140440417D01*
X116180195Y-140433434D01*
X116273484Y-140340146D01*
X116273487Y-140340141D01*
X116345957Y-140214620D01*
X116345957Y-140214617D01*
X116345959Y-140214616D01*
X116374581Y-140107795D01*
X116377673Y-140103034D01*
X116376389Y-140102617D01*
X116395868Y-140042668D01*
X116420017Y-140003259D01*
X116765470Y-139657808D01*
X116811614Y-139577884D01*
X116817652Y-139555350D01*
X116835500Y-139488740D01*
X116835500Y-139455627D01*
X116836385Y-139452900D01*
X116835653Y-139450131D01*
X116840345Y-139425034D01*
X116840346Y-139425030D01*
X116841564Y-139417342D01*
X116843003Y-139417570D01*
X116849622Y-139387718D01*
X116851343Y-139384028D01*
X116854499Y-139377260D01*
X116860500Y-139331679D01*
X116860499Y-138558322D01*
X116860499Y-138558321D01*
X117109500Y-138558321D01*
X117109500Y-139331679D01*
X117109501Y-139331691D01*
X117115498Y-139377250D01*
X117115499Y-139377254D01*
X117115501Y-139377263D01*
X117115502Y-139377265D01*
X117120638Y-139388278D01*
X117127570Y-139408702D01*
X117129067Y-139415457D01*
X117129069Y-139415464D01*
X117133176Y-139433986D01*
X117134323Y-139440487D01*
X117135479Y-139444802D01*
X117136501Y-139448978D01*
X117139293Y-139461566D01*
X117139959Y-139462450D01*
X117141975Y-139469046D01*
X117158385Y-139530286D01*
X117158387Y-139530291D01*
X117204531Y-139610213D01*
X117244418Y-139650101D01*
X117262623Y-139675158D01*
X117273709Y-139696915D01*
X117284500Y-139741861D01*
X117284500Y-139817474D01*
X117314559Y-139929656D01*
X117322018Y-139957493D01*
X117394485Y-140083008D01*
X117394487Y-140083010D01*
X117394489Y-140083012D01*
X117394491Y-140083015D01*
X117496985Y-140185509D01*
X117496987Y-140185510D01*
X117497094Y-140185617D01*
X117497345Y-140185803D01*
X117499538Y-140186984D01*
X117547399Y-140214616D01*
X117619757Y-140256392D01*
X117622170Y-140257890D01*
X117622508Y-140257980D01*
X117622511Y-140257982D01*
X117622512Y-140257982D01*
X117622515Y-140257984D01*
X117762525Y-140295500D01*
X117762526Y-140295500D01*
X117907474Y-140295500D01*
X117907475Y-140295500D01*
X118047485Y-140257984D01*
X118047486Y-140257983D01*
X118047488Y-140257982D01*
X118047489Y-140257982D01*
X118166880Y-140189051D01*
X118169768Y-140187648D01*
X118170554Y-140187131D01*
X118175563Y-140184037D01*
X118176862Y-140183286D01*
X118182220Y-140176303D01*
X118275509Y-140083015D01*
X118284078Y-140068173D01*
X118347982Y-139957489D01*
X118347982Y-139957487D01*
X118347984Y-139957485D01*
X118385500Y-139817475D01*
X118385500Y-139672525D01*
X118347984Y-139532515D01*
X118347982Y-139532512D01*
X118347982Y-139532510D01*
X118347981Y-139532508D01*
X118347890Y-139532168D01*
X118346397Y-139529764D01*
X118276985Y-139409539D01*
X118275805Y-139407347D01*
X118275617Y-139407094D01*
X118275510Y-139406987D01*
X118275509Y-139406985D01*
X118173015Y-139304491D01*
X118173012Y-139304489D01*
X118173010Y-139304487D01*
X118173009Y-139304486D01*
X118047504Y-139232025D01*
X118047492Y-139232019D01*
X118047490Y-139232018D01*
X118047488Y-139232017D01*
X118047484Y-139232015D01*
X118033889Y-139228372D01*
X117949019Y-139205630D01*
X117920722Y-139193031D01*
X117909537Y-139185767D01*
X117871033Y-139138216D01*
X117871031Y-139138211D01*
X117867072Y-139127895D01*
X117860499Y-139092424D01*
X117860499Y-138558325D01*
X117860498Y-138558319D01*
X117855346Y-138519174D01*
X117855102Y-138515463D01*
X117854500Y-138512749D01*
X117854499Y-138512740D01*
X117854499Y-138512738D01*
X117836732Y-138474637D01*
X117808758Y-138414646D01*
X117807943Y-138412795D01*
X117807850Y-138412702D01*
X117807850Y-138412701D01*
X117729799Y-138334650D01*
X117629760Y-138288001D01*
X117584179Y-138282000D01*
X117584178Y-138282000D01*
X117385816Y-138282000D01*
X117385787Y-138282003D01*
X117350816Y-138286607D01*
X117346673Y-138287153D01*
X117342962Y-138287396D01*
X117340240Y-138288000D01*
X117340238Y-138288000D01*
X117340236Y-138288000D01*
X117340235Y-138288001D01*
X117240206Y-138334645D01*
X117162148Y-138412703D01*
X117115501Y-138512737D01*
X117114897Y-138515463D01*
X117114654Y-138519174D01*
X117109500Y-138558321D01*
X116860499Y-138558321D01*
X116855346Y-138519174D01*
X116855102Y-138515463D01*
X116854500Y-138512749D01*
X116854499Y-138512740D01*
X116854499Y-138512738D01*
X116836732Y-138474637D01*
X116808758Y-138414646D01*
X116807943Y-138412795D01*
X116807850Y-138412702D01*
X116807850Y-138412701D01*
X116729799Y-138334650D01*
X116629760Y-138288001D01*
X116584179Y-138282000D01*
X116584178Y-138282000D01*
X116385816Y-138282000D01*
X116385787Y-138282003D01*
X116350816Y-138286607D01*
X116346673Y-138287153D01*
X116342962Y-138287396D01*
X116340240Y-138288000D01*
X116340238Y-138288000D01*
X116340236Y-138288000D01*
X116340235Y-138288001D01*
X116240206Y-138334645D01*
X116162148Y-138412703D01*
X116115501Y-138512737D01*
X116114484Y-138517326D01*
X116114654Y-138519174D01*
X116109500Y-138558321D01*
X116109500Y-139265725D01*
X116104655Y-139296318D01*
X116097109Y-139319542D01*
X116072958Y-139358953D01*
X116066088Y-139365823D01*
X116041031Y-139384028D01*
X116029148Y-139390083D01*
X115968716Y-139399655D01*
X115968708Y-139399654D01*
X115963678Y-139398857D01*
X115909167Y-139371081D01*
X115900581Y-139362495D01*
X115882375Y-139337436D01*
X115871287Y-139315674D01*
X115860499Y-139270732D01*
X115860499Y-138558328D01*
X115860499Y-138558325D01*
X115860498Y-138558315D01*
X115855346Y-138519174D01*
X115855102Y-138515463D01*
X115854500Y-138512749D01*
X115854499Y-138512740D01*
X115854499Y-138512738D01*
X115836732Y-138474637D01*
X115808758Y-138414646D01*
X115807943Y-138412795D01*
X115807850Y-138412702D01*
X115807850Y-138412701D01*
X115729799Y-138334650D01*
X115629760Y-138288001D01*
X115584179Y-138282000D01*
X115584178Y-138282000D01*
X115385816Y-138282000D01*
X115385787Y-138282003D01*
X115350816Y-138286607D01*
X115346673Y-138287153D01*
X115342962Y-138287396D01*
X115340240Y-138288000D01*
X115340238Y-138288000D01*
X115340236Y-138288000D01*
X115340235Y-138288001D01*
X115240206Y-138334645D01*
X115162148Y-138412703D01*
X115115501Y-138512737D01*
X115114897Y-138515463D01*
X115114722Y-138518125D01*
X115114762Y-138518328D01*
X115114713Y-138518720D01*
X115109500Y-138558322D01*
X113210000Y-138558322D01*
X113210000Y-137359680D01*
X113214843Y-137329094D01*
X113218965Y-137316405D01*
X113254923Y-137266906D01*
X113255522Y-137266471D01*
X113259063Y-137263900D01*
X113317243Y-137245000D01*
X113710661Y-137245000D01*
X113735146Y-137248076D01*
X113759439Y-137254277D01*
X113772893Y-137259022D01*
X113772911Y-137258977D01*
X113775465Y-137259929D01*
X113776070Y-137260143D01*
X113776216Y-137260209D01*
X113776217Y-137260209D01*
X113776222Y-137260212D01*
X113906640Y-137308855D01*
X113908163Y-137309444D01*
X113909434Y-137309626D01*
X113912950Y-137309815D01*
X113965826Y-137315500D01*
X113965830Y-137315500D01*
X114534170Y-137315500D01*
X114534174Y-137315500D01*
X114592299Y-137309251D01*
X114723778Y-137260212D01*
X114745763Y-137243753D01*
X114768938Y-137230845D01*
X114792974Y-137221419D01*
X114818746Y-137215131D01*
X115270207Y-137167609D01*
X115296891Y-137168421D01*
X115324280Y-137173003D01*
X115336935Y-137175987D01*
X115340239Y-137176999D01*
X115346240Y-137177788D01*
X115385821Y-137183000D01*
X115584178Y-137182999D01*
X115590671Y-137182144D01*
X115629756Y-137177000D01*
X115629757Y-137176999D01*
X115629760Y-137176999D01*
X115668665Y-137158856D01*
X115689073Y-137151928D01*
X115697642Y-137150029D01*
X115709748Y-137147346D01*
X115731172Y-137145000D01*
X115738828Y-137145000D01*
X115760257Y-137147347D01*
X115780928Y-137151930D01*
X115801325Y-137158852D01*
X115815471Y-137165448D01*
X115815474Y-137165451D01*
X115815474Y-137165450D01*
X115840240Y-137176999D01*
X115885821Y-137183000D01*
X116084178Y-137182999D01*
X116090671Y-137182144D01*
X116129756Y-137177000D01*
X116129757Y-137176999D01*
X116129760Y-137176999D01*
X116168665Y-137158856D01*
X116189073Y-137151928D01*
X116197642Y-137150029D01*
X116209748Y-137147346D01*
X116231172Y-137145000D01*
X116334999Y-137145000D01*
X116335000Y-137145000D01*
X116335000Y-137026862D01*
X116337346Y-137005437D01*
X116341014Y-136988890D01*
X116341927Y-136984772D01*
X116343113Y-136981278D01*
X116343060Y-136980180D01*
X116343944Y-136978830D01*
X116348858Y-136964355D01*
X116354499Y-136952260D01*
X116360500Y-136906679D01*
X116360499Y-136133322D01*
X116359101Y-136122701D01*
X116359099Y-136122682D01*
X116359880Y-136091506D01*
X116362313Y-136078382D01*
X116369907Y-136064397D01*
X116370251Y-136062544D01*
X116371618Y-136061246D01*
X116391507Y-136024618D01*
X116392827Y-136023366D01*
X116439117Y-135998633D01*
X116444403Y-135997437D01*
X116466237Y-135995000D01*
X116499143Y-135995000D01*
X116529731Y-135999843D01*
G37*
G04 #@! TD.AperFunction*
G04 #@! TA.AperFunction,Conductor*
G36*
X136028530Y-132608907D02*
G01*
X136052656Y-132634001D01*
X136076709Y-132670001D01*
X136093316Y-132728889D01*
X136076708Y-132780000D01*
X136045134Y-132827254D01*
X136045131Y-132827263D01*
X136030599Y-132900315D01*
X136030598Y-132900327D01*
X136030598Y-133349672D01*
X136030599Y-133349684D01*
X136045131Y-133422736D01*
X136045133Y-133422742D01*
X136100495Y-133505599D01*
X136100497Y-133505601D01*
X136183358Y-133560966D01*
X136238906Y-133572015D01*
X136256413Y-133575498D01*
X136256418Y-133575498D01*
X136256424Y-133575500D01*
X136256425Y-133575500D01*
X137105771Y-133575500D01*
X137105772Y-133575500D01*
X137178838Y-133560966D01*
X137261699Y-133505601D01*
X137317064Y-133422740D01*
X137331598Y-133349674D01*
X137331598Y-132900326D01*
X137317064Y-132827260D01*
X137317062Y-132827257D01*
X137317062Y-132827256D01*
X137302193Y-132805004D01*
X137285486Y-132780000D01*
X137268878Y-132721114D01*
X137285486Y-132670000D01*
X137309542Y-132633998D01*
X137357592Y-132596119D01*
X137391857Y-132590000D01*
X138691000Y-132590000D01*
X138749191Y-132608907D01*
X138785155Y-132658407D01*
X138790000Y-132689000D01*
X138790000Y-134121000D01*
X138771093Y-134179191D01*
X138721593Y-134215155D01*
X138691000Y-134220000D01*
X136024262Y-134220000D01*
X135236690Y-134220000D01*
X135178499Y-134201093D01*
X135166687Y-134191004D01*
X135035214Y-134059532D01*
X135035212Y-134059530D01*
X134955288Y-134013386D01*
X134866144Y-133989500D01*
X134866142Y-133989500D01*
X131139000Y-133989500D01*
X131080809Y-133970593D01*
X131044845Y-133921093D01*
X131040000Y-133890500D01*
X131040000Y-132689000D01*
X131058907Y-132630809D01*
X131108407Y-132594845D01*
X131139000Y-132590000D01*
X135970339Y-132590000D01*
X136028530Y-132608907D01*
G37*
G04 #@! TD.AperFunction*
G04 #@! TA.AperFunction,Conductor*
G36*
X114305908Y-143894843D02*
G01*
X114318595Y-143898966D01*
X114368095Y-143934927D01*
X114368096Y-143934928D01*
X114371091Y-143939050D01*
X114390000Y-143997240D01*
X114390000Y-149240000D01*
X114390001Y-149240000D01*
X114650316Y-149240000D01*
X114673429Y-149242736D01*
X114694412Y-149247774D01*
X114723060Y-149254652D01*
X114727698Y-149253730D01*
X114731515Y-149254257D01*
X114802497Y-149265500D01*
X116102502Y-149265499D01*
X116102505Y-149265499D01*
X116130634Y-149261043D01*
X116173420Y-149254267D01*
X116179515Y-149255232D01*
X116199363Y-149250467D01*
X116200460Y-149250249D01*
X116201271Y-149250010D01*
X116231576Y-149242735D01*
X116254685Y-149240000D01*
X117350316Y-149240000D01*
X117373429Y-149242736D01*
X117394412Y-149247774D01*
X117423060Y-149254652D01*
X117427698Y-149253730D01*
X117431515Y-149254257D01*
X117502497Y-149265500D01*
X118802502Y-149265499D01*
X118802505Y-149265499D01*
X118828147Y-149261437D01*
X118899215Y-149250182D01*
X119015781Y-149190789D01*
X119108289Y-149098281D01*
X119167682Y-148981715D01*
X119183000Y-148885003D01*
X119182999Y-148494998D01*
X119182999Y-148494997D01*
X119182999Y-148494994D01*
X119177583Y-148460803D01*
X119177583Y-148460801D01*
X119177583Y-148460799D01*
X119167683Y-148398289D01*
X119167682Y-148398287D01*
X119167682Y-148398285D01*
X119108289Y-148281719D01*
X119015781Y-148189211D01*
X118899215Y-148129818D01*
X118875037Y-148125988D01*
X118802508Y-148114500D01*
X118802505Y-148114500D01*
X118802503Y-148114500D01*
X118754680Y-148114500D01*
X118724087Y-148109654D01*
X118711401Y-148105532D01*
X118661901Y-148069568D01*
X118661894Y-148069558D01*
X118658900Y-148065436D01*
X118640000Y-148007256D01*
X118640000Y-144295211D01*
X118644845Y-144264620D01*
X118652392Y-144241391D01*
X118676543Y-144201979D01*
X118760509Y-144118015D01*
X118832984Y-143992485D01*
X118836725Y-143978520D01*
X118849322Y-143950226D01*
X118856590Y-143939035D01*
X118904137Y-143900535D01*
X118914463Y-143896572D01*
X118949933Y-143890000D01*
X121650320Y-143890000D01*
X121680908Y-143894843D01*
X121693595Y-143898966D01*
X121743095Y-143934927D01*
X121743096Y-143934928D01*
X121746091Y-143939050D01*
X121765000Y-143997240D01*
X121765000Y-149625319D01*
X121760154Y-149655912D01*
X121756032Y-149668598D01*
X121720080Y-149718089D01*
X121715959Y-149721084D01*
X121657771Y-149740000D01*
X120790000Y-149740000D01*
X120790000Y-149740001D01*
X120790000Y-149925319D01*
X120785155Y-149955911D01*
X120784736Y-149957201D01*
X120781847Y-149966093D01*
X120745883Y-150015593D01*
X120687692Y-150034500D01*
X118931780Y-150034500D01*
X118908666Y-150031764D01*
X118881918Y-150025341D01*
X118877282Y-150026265D01*
X118873408Y-150025729D01*
X118802508Y-150014500D01*
X118802504Y-150014500D01*
X117502494Y-150014500D01*
X117502490Y-150014500D01*
X117431560Y-150025734D01*
X117425467Y-150024769D01*
X117396335Y-150031764D01*
X117373221Y-150034500D01*
X116789000Y-150034500D01*
X116749035Y-150037645D01*
X116749030Y-150037645D01*
X116749015Y-150037647D01*
X116741861Y-150038781D01*
X116726376Y-150040000D01*
X116425711Y-150040000D01*
X116367524Y-150021095D01*
X116354677Y-150011762D01*
X116354676Y-150011761D01*
X116354674Y-150011760D01*
X116328473Y-149998411D01*
X116300161Y-149983986D01*
X116224141Y-149959287D01*
X116219179Y-149958501D01*
X116210955Y-149957199D01*
X116210951Y-149957198D01*
X116210948Y-149957198D01*
X116189645Y-149955522D01*
X116170989Y-149954054D01*
X116170984Y-149954054D01*
X116140042Y-149954054D01*
X116140036Y-149954054D01*
X116100071Y-149957199D01*
X116100065Y-149957200D01*
X116100056Y-149957201D01*
X116093872Y-149958180D01*
X116090086Y-149958780D01*
X116074600Y-149959999D01*
X114830395Y-149959999D01*
X114814904Y-149958779D01*
X114794939Y-149955616D01*
X114771116Y-149948695D01*
X114767540Y-149947147D01*
X114753673Y-149942153D01*
X114744220Y-149938748D01*
X114744210Y-149938745D01*
X114744207Y-149938744D01*
X114713432Y-149929796D01*
X114700736Y-149926955D01*
X114689815Y-149924511D01*
X114689807Y-149924509D01*
X114689795Y-149924507D01*
X114689790Y-149924506D01*
X114658179Y-149919489D01*
X114658169Y-149919488D01*
X114658162Y-149919487D01*
X114658160Y-149919487D01*
X114653144Y-149919010D01*
X114633495Y-149917145D01*
X114633497Y-149917145D01*
X114619254Y-149916690D01*
X114601461Y-149916123D01*
X114601455Y-149916123D01*
X114601451Y-149916123D01*
X112792054Y-149971967D01*
X112733308Y-149954864D01*
X112695834Y-149906497D01*
X112690000Y-149873014D01*
X112690000Y-149640001D01*
X112690000Y-149640000D01*
X112689999Y-149640000D01*
X110615180Y-149640000D01*
X110584587Y-149635154D01*
X110571901Y-149631032D01*
X110522401Y-149595068D01*
X110522394Y-149595058D01*
X110519400Y-149590936D01*
X110500500Y-149532756D01*
X110500500Y-144004680D01*
X110505343Y-143974094D01*
X110509465Y-143961405D01*
X110545423Y-143911906D01*
X110546022Y-143911471D01*
X110549563Y-143908900D01*
X110607743Y-143890000D01*
X114275320Y-143890000D01*
X114305908Y-143894843D01*
G37*
G04 #@! TD.AperFunction*
G04 #@! TA.AperFunction,Conductor*
G36*
X118475908Y-132749843D02*
G01*
X118488595Y-132753966D01*
X118538095Y-132789927D01*
X118538096Y-132789928D01*
X118541091Y-132794050D01*
X118560000Y-132852240D01*
X118560000Y-135314504D01*
X118555154Y-135345100D01*
X118550215Y-135360299D01*
X118518080Y-135406869D01*
X118510902Y-135412638D01*
X118488477Y-135426209D01*
X117654945Y-135789930D01*
X117626285Y-135797587D01*
X117511305Y-135810364D01*
X117511279Y-135810366D01*
X117420340Y-135820471D01*
X117394732Y-135824644D01*
X117375055Y-135828886D01*
X117371411Y-135829716D01*
X117369260Y-135830207D01*
X117305294Y-135859694D01*
X117278723Y-135871944D01*
X117229229Y-135907903D01*
X117229227Y-135907906D01*
X117185121Y-135948676D01*
X117185118Y-135948680D01*
X117170158Y-135975393D01*
X117168170Y-135977229D01*
X117164885Y-135983792D01*
X117162150Y-135987697D01*
X117158133Y-135996312D01*
X117154792Y-136002833D01*
X117136413Y-136035654D01*
X117136409Y-136035663D01*
X117130521Y-136053783D01*
X117126095Y-136065018D01*
X117115500Y-136087741D01*
X117114907Y-136090414D01*
X117114654Y-136094174D01*
X117109500Y-136133321D01*
X117109500Y-136136592D01*
X117108281Y-136152080D01*
X117104999Y-136172800D01*
X117104999Y-136780280D01*
X117086092Y-136838471D01*
X117064218Y-136860352D01*
X117060477Y-136863072D01*
X117002293Y-136882000D01*
X116975180Y-136882000D01*
X116944586Y-136877154D01*
X116933404Y-136873521D01*
X116883905Y-136837555D01*
X116865000Y-136779367D01*
X116865000Y-136152913D01*
X116865013Y-136152558D01*
X116865001Y-136152520D01*
X116865016Y-136152472D01*
X116865280Y-136145470D01*
X116865949Y-136136592D01*
X116866983Y-136122878D01*
X116867413Y-136100887D01*
X116866387Y-136072479D01*
X116865891Y-136067089D01*
X116865415Y-136065018D01*
X116851128Y-136002833D01*
X116850598Y-136000524D01*
X116835851Y-135961333D01*
X116835735Y-135958793D01*
X116834247Y-135956729D01*
X116834346Y-135928454D01*
X116833054Y-135900214D01*
X116834456Y-135897512D01*
X116834463Y-135895544D01*
X116837948Y-135890782D01*
X116852086Y-135863536D01*
X117235000Y-135398571D01*
X117235000Y-132859680D01*
X117239843Y-132829094D01*
X117243965Y-132816405D01*
X117279923Y-132766906D01*
X117280522Y-132766471D01*
X117284063Y-132763900D01*
X117342243Y-132745000D01*
X118445320Y-132745000D01*
X118475908Y-132749843D01*
G37*
G04 #@! TD.AperFunction*
G04 #@! TA.AperFunction,Conductor*
G36*
X115750908Y-132749843D02*
G01*
X115763595Y-132753966D01*
X115813095Y-132789927D01*
X115813096Y-132789928D01*
X115816091Y-132794050D01*
X115835000Y-132852240D01*
X115835000Y-135420000D01*
X116129283Y-135861425D01*
X116145830Y-135920330D01*
X116135002Y-135959627D01*
X116134870Y-135964673D01*
X116111093Y-136031809D01*
X116111092Y-136031813D01*
X116108662Y-136044920D01*
X116108655Y-136044967D01*
X116104460Y-136085101D01*
X116103679Y-136116283D01*
X116104920Y-136147350D01*
X116104473Y-136148938D01*
X116104999Y-136151301D01*
X116104999Y-136780281D01*
X116086092Y-136838472D01*
X116064204Y-136860363D01*
X116060463Y-136863082D01*
X116002275Y-136882000D01*
X115975180Y-136882000D01*
X115944582Y-136877153D01*
X115932775Y-136873316D01*
X115883277Y-136837350D01*
X115864373Y-136779158D01*
X115864678Y-136771410D01*
X115865000Y-136767319D01*
X115865000Y-136156537D01*
X115865847Y-136143617D01*
X115866453Y-136139014D01*
X115868334Y-136093181D01*
X115866604Y-136057819D01*
X115860257Y-136012382D01*
X115857692Y-136001362D01*
X115851233Y-135978488D01*
X115851232Y-135978485D01*
X115827609Y-135927290D01*
X115796001Y-135874902D01*
X115795998Y-135874899D01*
X115795996Y-135874895D01*
X115744501Y-135813755D01*
X115734415Y-135805020D01*
X115734414Y-135805019D01*
X115702155Y-135781241D01*
X115702138Y-135781229D01*
X115675851Y-135764870D01*
X115640268Y-135746429D01*
X115640260Y-135746425D01*
X115640257Y-135746424D01*
X115409673Y-135649045D01*
X114989941Y-135471788D01*
X114988681Y-135471328D01*
X114965961Y-135463044D01*
X114965957Y-135463042D01*
X114965944Y-135463038D01*
X114947102Y-135457216D01*
X114933762Y-135453814D01*
X114922381Y-135450911D01*
X114922374Y-135450909D01*
X114922347Y-135450903D01*
X114917585Y-135449939D01*
X114917508Y-135449924D01*
X114916832Y-135449787D01*
X114916813Y-135449783D01*
X114903297Y-135447047D01*
X114903288Y-135447045D01*
X114903262Y-135447041D01*
X114878096Y-135443243D01*
X114858450Y-135441273D01*
X114845224Y-135440612D01*
X114832957Y-135439999D01*
X114832944Y-135439999D01*
X114686904Y-135439999D01*
X114671422Y-135438780D01*
X114659236Y-135436850D01*
X114629784Y-135427280D01*
X114615113Y-135419805D01*
X114590053Y-135401599D01*
X114578398Y-135389944D01*
X114560192Y-135364884D01*
X114552718Y-135350215D01*
X114543147Y-135320758D01*
X114541217Y-135308574D01*
X114540000Y-135293095D01*
X114540000Y-135124694D01*
X114543373Y-135099071D01*
X114550500Y-135072473D01*
X114550500Y-134927523D01*
X114543374Y-134900931D01*
X114540000Y-134875306D01*
X114540000Y-132896907D01*
X114541218Y-132881426D01*
X114543147Y-132869242D01*
X114552716Y-132839783D01*
X114571856Y-132802217D01*
X114579871Y-132789707D01*
X114579643Y-132789548D01*
X114581142Y-132787397D01*
X114581550Y-132787087D01*
X114582364Y-132785818D01*
X114583167Y-132784801D01*
X114583854Y-132785343D01*
X114629925Y-132750466D01*
X114662365Y-132745000D01*
X115720320Y-132745000D01*
X115750908Y-132749843D01*
G37*
G04 #@! TD.AperFunction*
G04 #@! TA.AperFunction,Conductor*
G36*
X120934191Y-129398907D02*
G01*
X120970155Y-129448407D01*
X120975000Y-129479000D01*
X120975000Y-130700000D01*
X124054298Y-130701782D01*
X124112475Y-130720722D01*
X124148410Y-130770243D01*
X124153238Y-130800781D01*
X124153238Y-137446000D01*
X124134331Y-137504191D01*
X124084831Y-137540155D01*
X124054238Y-137545000D01*
X118364782Y-137545000D01*
X118306591Y-137526093D01*
X118283678Y-137502773D01*
X117998237Y-137095000D01*
X117812068Y-137095000D01*
X117753877Y-137076093D01*
X117727235Y-137042297D01*
X117726383Y-137042867D01*
X117665602Y-136951900D01*
X117665599Y-136951897D01*
X117582742Y-136896535D01*
X117582740Y-136896534D01*
X117582737Y-136896533D01*
X117582736Y-136896533D01*
X117509684Y-136882001D01*
X117509674Y-136882000D01*
X117509673Y-136882000D01*
X117459500Y-136882000D01*
X117401309Y-136863093D01*
X117365345Y-136813593D01*
X117360500Y-136783000D01*
X117360499Y-136172802D01*
X117379406Y-136114611D01*
X117428906Y-136078647D01*
X117448566Y-136074408D01*
X117536786Y-136064605D01*
X117713237Y-136045000D01*
X117713247Y-136044997D01*
X117713250Y-136044997D01*
X118313243Y-135894998D01*
X118913237Y-135745000D01*
X119024588Y-129477239D01*
X119044526Y-129419396D01*
X119094657Y-129384317D01*
X119123572Y-129380000D01*
X120876000Y-129380000D01*
X120934191Y-129398907D01*
G37*
G04 #@! TD.AperFunction*
G04 #@! TA.AperFunction,Conductor*
G36*
X149241482Y-130716356D02*
G01*
X149272065Y-130721219D01*
X149284749Y-130725349D01*
X149334220Y-130761332D01*
X149337219Y-130765465D01*
X149356098Y-130823616D01*
X149356098Y-131856061D01*
X149351252Y-131886654D01*
X149347130Y-131899340D01*
X149311166Y-131948840D01*
X149311163Y-131948842D01*
X149303043Y-131954741D01*
X149267712Y-131970971D01*
X149187419Y-131990023D01*
X149179790Y-131989402D01*
X149172731Y-131992360D01*
X149156537Y-131992372D01*
X149142104Y-131991198D01*
X149127082Y-131985113D01*
X149126435Y-131985061D01*
X149124411Y-131984032D01*
X149087225Y-131968970D01*
X149083491Y-131965897D01*
X149078188Y-131961533D01*
X149066866Y-131950196D01*
X149064688Y-131948874D01*
X149061699Y-131944399D01*
X149061698Y-131944398D01*
X148978840Y-131889035D01*
X148978838Y-131889034D01*
X148978835Y-131889033D01*
X148978834Y-131889033D01*
X148959959Y-131885278D01*
X148959957Y-131885277D01*
X148905792Y-131874503D01*
X148905782Y-131874501D01*
X148905777Y-131874500D01*
X148905774Y-131874500D01*
X148905772Y-131874500D01*
X148056424Y-131874500D01*
X148056423Y-131874500D01*
X148056420Y-131874500D01*
X148056416Y-131874500D01*
X148056413Y-131874501D01*
X148020137Y-131881717D01*
X147983359Y-131889033D01*
X147983354Y-131889035D01*
X147900501Y-131944394D01*
X147900492Y-131944403D01*
X147845133Y-132027256D01*
X147845131Y-132027261D01*
X147830598Y-132100320D01*
X147830598Y-132218044D01*
X147825752Y-132248637D01*
X147821630Y-132261323D01*
X147785666Y-132310823D01*
X147785663Y-132310825D01*
X147777543Y-132316724D01*
X147742213Y-132332954D01*
X146406099Y-132649998D01*
X146406098Y-132650001D01*
X146406098Y-139835319D01*
X146401252Y-139865912D01*
X146397130Y-139878598D01*
X146361178Y-139928089D01*
X146357057Y-139931084D01*
X146298869Y-139950000D01*
X139340972Y-139950000D01*
X139310378Y-139945154D01*
X139287152Y-139937607D01*
X139247743Y-139913457D01*
X139171689Y-139837404D01*
X139046181Y-139764941D01*
X139046169Y-139764935D01*
X139046167Y-139764934D01*
X139046165Y-139764933D01*
X139046161Y-139764931D01*
X139022148Y-139758496D01*
X138944620Y-139737722D01*
X138916324Y-139725124D01*
X138905137Y-139717859D01*
X138866633Y-139670310D01*
X138866307Y-139669461D01*
X138862671Y-139659986D01*
X138856098Y-139624515D01*
X138856098Y-134483690D01*
X138875005Y-134425499D01*
X138896903Y-134403600D01*
X138921273Y-134385895D01*
X138965378Y-134345124D01*
X139014088Y-134258143D01*
X139032995Y-134199952D01*
X139045500Y-134121000D01*
X139045500Y-133914169D01*
X139048873Y-133888546D01*
X139050500Y-133882474D01*
X139050500Y-133737526D01*
X139050499Y-133737522D01*
X139048873Y-133731452D01*
X139045500Y-133705831D01*
X139045500Y-132689006D01*
X139045500Y-132689000D01*
X139042355Y-132649035D01*
X139037510Y-132618442D01*
X139033595Y-132598761D01*
X138991859Y-132508227D01*
X138980103Y-132492046D01*
X138955898Y-132458730D01*
X138955895Y-132458727D01*
X138932434Y-132433348D01*
X138915124Y-132414622D01*
X138828143Y-132365912D01*
X138790745Y-132353761D01*
X138769947Y-132347003D01*
X138691003Y-132334500D01*
X138691000Y-132334500D01*
X137391857Y-132334500D01*
X137391850Y-132334500D01*
X137346935Y-132338479D01*
X137312691Y-132344594D01*
X137288243Y-132350210D01*
X137288235Y-132350213D01*
X137199417Y-132395467D01*
X137151363Y-132433349D01*
X137097104Y-132492046D01*
X137097100Y-132492051D01*
X137073043Y-132528054D01*
X137042495Y-132591036D01*
X137042486Y-132591058D01*
X137025885Y-132642151D01*
X137015148Y-132691084D01*
X137022971Y-132790470D01*
X137027873Y-132807848D01*
X137039579Y-132849355D01*
X137067004Y-132908845D01*
X137076098Y-132950291D01*
X137076098Y-133221000D01*
X137057191Y-133279191D01*
X137007691Y-133315155D01*
X136977098Y-133320000D01*
X136385098Y-133320000D01*
X136326907Y-133301093D01*
X136290943Y-133251593D01*
X136286098Y-133221000D01*
X136286098Y-132950980D01*
X136296024Y-132907774D01*
X136319697Y-132858969D01*
X136319698Y-132858965D01*
X136319702Y-132858958D01*
X136336310Y-132807847D01*
X136347044Y-132758924D01*
X136339225Y-132659540D01*
X136322618Y-132600652D01*
X136321746Y-132598761D01*
X136289153Y-132528060D01*
X136289153Y-132528059D01*
X136265100Y-132492059D01*
X136236839Y-132456923D01*
X136212719Y-132431835D01*
X136194464Y-132414623D01*
X136194463Y-132414622D01*
X136194461Y-132414621D01*
X136107482Y-132365912D01*
X136070084Y-132353761D01*
X136049286Y-132347003D01*
X135970342Y-132334500D01*
X135970339Y-132334500D01*
X131555098Y-132334500D01*
X131496907Y-132315593D01*
X131460943Y-132266093D01*
X131456098Y-132235500D01*
X131456098Y-130820802D01*
X131460941Y-130790216D01*
X131465063Y-130777527D01*
X131501021Y-130728028D01*
X131505141Y-130725035D01*
X131563327Y-130706126D01*
X149241482Y-130716356D01*
G37*
G04 #@! TD.AperFunction*
G04 #@! TA.AperFunction,Conductor*
G36*
X137513691Y-149018907D02*
G01*
X137549655Y-149068407D01*
X137554500Y-149099000D01*
X137554500Y-149164170D01*
X137554499Y-149164170D01*
X137560748Y-149222293D01*
X137560750Y-149222304D01*
X137609786Y-149353776D01*
X137678074Y-149444997D01*
X137693884Y-149466116D01*
X137693887Y-149466118D01*
X137693888Y-149466119D01*
X137806223Y-149550213D01*
X137905503Y-149587242D01*
X137953418Y-149625292D01*
X137969816Y-149684239D01*
X137948434Y-149741567D01*
X137905503Y-149772758D01*
X137806223Y-149809786D01*
X137693888Y-149893880D01*
X137693880Y-149893888D01*
X137609786Y-150006223D01*
X137560750Y-150137695D01*
X137560748Y-150137706D01*
X137554500Y-150195829D01*
X137554500Y-150889170D01*
X137554499Y-150889170D01*
X137560748Y-150947293D01*
X137560750Y-150947304D01*
X137609786Y-151078776D01*
X137693880Y-151191111D01*
X137693884Y-151191116D01*
X137693887Y-151191118D01*
X137693888Y-151191119D01*
X137806223Y-151275213D01*
X137937695Y-151324249D01*
X137937696Y-151324249D01*
X137937701Y-151324251D01*
X137995826Y-151330500D01*
X137995830Y-151330500D01*
X138564170Y-151330500D01*
X138564174Y-151330500D01*
X138622299Y-151324251D01*
X138732544Y-151283132D01*
X138753776Y-151275213D01*
X138753776Y-151275212D01*
X138753778Y-151275212D01*
X138860347Y-151195434D01*
X138871784Y-151186873D01*
X138873178Y-151188735D01*
X138918137Y-151165817D01*
X138978571Y-151175376D01*
X139003647Y-151193592D01*
X139045322Y-151235268D01*
X139045326Y-151235271D01*
X139045331Y-151235276D01*
X139097979Y-151270454D01*
X139151866Y-151306461D01*
X139151870Y-151306463D01*
X139151873Y-151306465D01*
X139270256Y-151355501D01*
X139395931Y-151380500D01*
X139395932Y-151380500D01*
X139524068Y-151380500D01*
X139524069Y-151380500D01*
X139649744Y-151355501D01*
X139768127Y-151306465D01*
X139874669Y-151235276D01*
X139965276Y-151144669D01*
X140036465Y-151038127D01*
X140085501Y-150919744D01*
X140110500Y-150794069D01*
X140110500Y-150665931D01*
X140085501Y-150540256D01*
X140036465Y-150421873D01*
X140036463Y-150421871D01*
X140036462Y-150421867D01*
X140034880Y-150419500D01*
X140034526Y-150418245D01*
X140034170Y-150417579D01*
X140034316Y-150417500D01*
X140018272Y-150360612D01*
X140039450Y-150303208D01*
X140090324Y-150269216D01*
X140117196Y-150265499D01*
X140191309Y-150265499D01*
X140249500Y-150284406D01*
X140261313Y-150294495D01*
X140385504Y-150418686D01*
X140413281Y-150473203D01*
X140414500Y-150488690D01*
X140414500Y-151193988D01*
X140418690Y-151209626D01*
X140430138Y-151252353D01*
X140438384Y-151283128D01*
X140438385Y-151283130D01*
X140438386Y-151283132D01*
X140484530Y-151363056D01*
X141197619Y-152076144D01*
X141281004Y-152159529D01*
X141308781Y-152214046D01*
X141310000Y-152229533D01*
X141310000Y-156400500D01*
X141291093Y-156458691D01*
X141241593Y-156494655D01*
X141211000Y-156499500D01*
X139399000Y-156499500D01*
X139340809Y-156480593D01*
X139304845Y-156431093D01*
X139300000Y-156400500D01*
X139300000Y-153280001D01*
X139300000Y-153280000D01*
X139299999Y-153280000D01*
X130310001Y-153280000D01*
X130310000Y-153280000D01*
X130310000Y-153280001D01*
X130310000Y-154059034D01*
X130291093Y-154117225D01*
X130241593Y-154153189D01*
X130211088Y-154158034D01*
X116789088Y-154169912D01*
X116730880Y-154151056D01*
X116694873Y-154101588D01*
X116690000Y-154070912D01*
X116690000Y-150389000D01*
X116708907Y-150330809D01*
X116758407Y-150294845D01*
X116789000Y-150290000D01*
X124069046Y-150290000D01*
X124127237Y-150308907D01*
X124139050Y-150318996D01*
X125020504Y-151200450D01*
X125048281Y-151254967D01*
X125049500Y-151270454D01*
X125049500Y-151329488D01*
X125030593Y-151387679D01*
X125030155Y-151388276D01*
X124957207Y-151487116D01*
X124912355Y-151615296D01*
X124912353Y-151615305D01*
X124909500Y-151645725D01*
X124909500Y-153254274D01*
X124912353Y-153284694D01*
X124912355Y-153284703D01*
X124957207Y-153412883D01*
X125037845Y-153522144D01*
X125037847Y-153522146D01*
X125037850Y-153522150D01*
X125037853Y-153522152D01*
X125037855Y-153522154D01*
X125147116Y-153602792D01*
X125147117Y-153602792D01*
X125147118Y-153602793D01*
X125275301Y-153647646D01*
X125305725Y-153650499D01*
X125305727Y-153650500D01*
X125305734Y-153650500D01*
X125814273Y-153650500D01*
X125814273Y-153650499D01*
X125844699Y-153647646D01*
X125972882Y-153602793D01*
X126082150Y-153522150D01*
X126162793Y-153412882D01*
X126207646Y-153284699D01*
X126210499Y-153254273D01*
X126210500Y-153254273D01*
X126210500Y-152746883D01*
X126227184Y-152691882D01*
X126230102Y-152687515D01*
X126276465Y-152618127D01*
X126325501Y-152499744D01*
X126330195Y-152476144D01*
X126350500Y-152374069D01*
X126350500Y-151348185D01*
X126369407Y-151289994D01*
X126418907Y-151254030D01*
X126480093Y-151254030D01*
X126529593Y-151289994D01*
X126535236Y-151298685D01*
X126569487Y-151358010D01*
X126569489Y-151358012D01*
X126569491Y-151358015D01*
X126671985Y-151460509D01*
X126763999Y-151513633D01*
X126804940Y-151559103D01*
X126810189Y-151609049D01*
X126812916Y-151609305D01*
X126809500Y-151645725D01*
X126809500Y-153254274D01*
X126812353Y-153284694D01*
X126812355Y-153284703D01*
X126857207Y-153412883D01*
X126937845Y-153522144D01*
X126937847Y-153522146D01*
X126937850Y-153522150D01*
X126937853Y-153522152D01*
X126937855Y-153522154D01*
X127047116Y-153602792D01*
X127047117Y-153602792D01*
X127047118Y-153602793D01*
X127175301Y-153647646D01*
X127205725Y-153650499D01*
X127205727Y-153650500D01*
X127205734Y-153650500D01*
X127714273Y-153650500D01*
X127714273Y-153650499D01*
X127744699Y-153647646D01*
X127872882Y-153602793D01*
X127982150Y-153522150D01*
X128062793Y-153412882D01*
X128107646Y-153284699D01*
X128110499Y-153254273D01*
X128110500Y-153254273D01*
X128110500Y-152476188D01*
X128129407Y-152417997D01*
X128139484Y-152406196D01*
X128287857Y-152257823D01*
X128342372Y-152230048D01*
X128402804Y-152239619D01*
X128417188Y-152248576D01*
X128517670Y-152323797D01*
X128652511Y-152374089D01*
X128652512Y-152374089D01*
X128652517Y-152374091D01*
X128712127Y-152380500D01*
X129707872Y-152380499D01*
X129767483Y-152374091D01*
X129834907Y-152348943D01*
X129902329Y-152323797D01*
X129902329Y-152323796D01*
X129902331Y-152323796D01*
X130017546Y-152237546D01*
X130103796Y-152122331D01*
X130154091Y-151987483D01*
X130160500Y-151927873D01*
X130160499Y-151132128D01*
X130154091Y-151072517D01*
X130141267Y-151038133D01*
X130103797Y-150937670D01*
X130017549Y-150822458D01*
X130017548Y-150822457D01*
X130017546Y-150822454D01*
X130017541Y-150822450D01*
X129902333Y-150736204D01*
X129874902Y-150725973D01*
X129826988Y-150687921D01*
X129810500Y-150633215D01*
X129810500Y-150522320D01*
X129829407Y-150464129D01*
X129850175Y-150443064D01*
X129857545Y-150437547D01*
X129857550Y-150437541D01*
X129882294Y-150404487D01*
X129938302Y-150329671D01*
X129988311Y-150294418D01*
X130017555Y-150290000D01*
X130799999Y-150290000D01*
X130800000Y-150290000D01*
X130800000Y-149099000D01*
X130818907Y-149040809D01*
X130868407Y-149004845D01*
X130899000Y-149000000D01*
X137455500Y-149000000D01*
X137513691Y-149018907D01*
G37*
G04 #@! TD.AperFunction*
G04 #@! TA.AperFunction,Conductor*
G36*
X114315908Y-132134843D02*
G01*
X114328595Y-132138966D01*
X114378095Y-132174927D01*
X114378096Y-132174928D01*
X114381091Y-132179050D01*
X114400000Y-132237240D01*
X114400000Y-132560433D01*
X114395154Y-132591027D01*
X114387607Y-132614253D01*
X114363463Y-132653656D01*
X114358035Y-132659084D01*
X114358031Y-132659089D01*
X114299579Y-132773813D01*
X114299575Y-132773823D01*
X114284500Y-132869005D01*
X114284500Y-135320995D01*
X114299576Y-135416177D01*
X114299578Y-135416184D01*
X114358030Y-135530907D01*
X114358032Y-135530909D01*
X114358033Y-135530910D01*
X114358035Y-135530913D01*
X114449087Y-135621965D01*
X114449089Y-135621966D01*
X114449090Y-135621967D01*
X114449092Y-135621968D01*
X114449095Y-135621970D01*
X114449298Y-135622073D01*
X114563815Y-135680421D01*
X114563819Y-135680423D01*
X114659009Y-135695500D01*
X114832958Y-135695499D01*
X114852605Y-135697468D01*
X114866121Y-135700204D01*
X114871666Y-135701327D01*
X114890530Y-135707156D01*
X115540857Y-135981796D01*
X115567150Y-135998159D01*
X115577235Y-136006893D01*
X115608843Y-136059281D01*
X115608844Y-136059284D01*
X115611409Y-136070304D01*
X115613139Y-136105666D01*
X115609500Y-136133308D01*
X115609500Y-136767319D01*
X115604657Y-136797905D01*
X115600536Y-136810591D01*
X115564581Y-136860089D01*
X115560460Y-136863084D01*
X115502272Y-136882000D01*
X115460322Y-136882000D01*
X115460318Y-136882000D01*
X115460315Y-136882001D01*
X115424039Y-136889217D01*
X115387261Y-136896533D01*
X115387254Y-136896535D01*
X115384566Y-136898332D01*
X115382257Y-136898982D01*
X115381312Y-136899446D01*
X115381227Y-136899273D01*
X115325676Y-136914935D01*
X115319878Y-136914536D01*
X115304672Y-136913039D01*
X115304659Y-136913038D01*
X115277969Y-136912226D01*
X115243485Y-136913511D01*
X115243462Y-136913512D01*
X115243460Y-136913513D01*
X115243452Y-136913513D01*
X115243450Y-136913514D01*
X114792001Y-136961034D01*
X114758187Y-136966911D01*
X114732406Y-136973201D01*
X114732397Y-136973204D01*
X114699701Y-136983553D01*
X114675664Y-136992979D01*
X114675660Y-136992980D01*
X114675657Y-136992982D01*
X114665910Y-136997581D01*
X114644601Y-137007638D01*
X114621454Y-137020530D01*
X114621442Y-137020538D01*
X114611861Y-137026752D01*
X114592590Y-137036448D01*
X114546178Y-137053758D01*
X114511584Y-137060000D01*
X113988414Y-137060000D01*
X113953817Y-137053758D01*
X113903249Y-137034897D01*
X113903227Y-137034879D01*
X113895316Y-137031930D01*
X113893828Y-137030749D01*
X113863406Y-137020019D01*
X113861752Y-137019419D01*
X113858957Y-137018377D01*
X113858945Y-137018373D01*
X113836301Y-137009927D01*
X113835584Y-137010021D01*
X113825035Y-137007444D01*
X113822627Y-137006713D01*
X113798350Y-137000516D01*
X113798321Y-137000510D01*
X113767003Y-136994570D01*
X113742513Y-136991493D01*
X113742515Y-136991493D01*
X113729769Y-136990695D01*
X113710661Y-136989500D01*
X113710652Y-136989500D01*
X113317245Y-136989500D01*
X113317243Y-136989500D01*
X113264617Y-136997833D01*
X113238303Y-137002000D01*
X113180120Y-137020901D01*
X113108948Y-137057148D01*
X113104803Y-137060157D01*
X113104784Y-137060174D01*
X113048209Y-137116740D01*
X113012252Y-137166238D01*
X112975963Y-137237471D01*
X112971845Y-137250148D01*
X112962487Y-137289135D01*
X112957642Y-137319728D01*
X112954500Y-137359683D01*
X112954500Y-141362754D01*
X112967000Y-141441695D01*
X112985900Y-141499876D01*
X113022177Y-141571089D01*
X113037760Y-141592542D01*
X113048586Y-141598055D01*
X113049219Y-141598693D01*
X113081721Y-141631772D01*
X113081727Y-141631776D01*
X113081729Y-141631778D01*
X113131215Y-141667732D01*
X113131225Y-141667739D01*
X113179019Y-141692090D01*
X113202446Y-141704027D01*
X113215132Y-141708149D01*
X113254114Y-141717508D01*
X113284701Y-141722353D01*
X113284707Y-141722354D01*
X113324680Y-141725500D01*
X123875620Y-141725500D01*
X123933811Y-141744407D01*
X123969775Y-141793907D01*
X123974620Y-141824562D01*
X123970071Y-149065382D01*
X123965207Y-149095969D01*
X123961078Y-149108651D01*
X123925090Y-149158126D01*
X123920959Y-149161124D01*
X123862811Y-149180000D01*
X122124680Y-149180000D01*
X122094073Y-149175150D01*
X122092449Y-149174622D01*
X122088892Y-149173466D01*
X122039398Y-149137494D01*
X122020500Y-149079316D01*
X122020500Y-143997237D01*
X122011219Y-143938644D01*
X122010000Y-143923156D01*
X122010000Y-143640001D01*
X122010000Y-143640000D01*
X122009999Y-143640000D01*
X121712946Y-143640000D01*
X121697463Y-143638782D01*
X121690283Y-143637645D01*
X121690281Y-143637644D01*
X121690276Y-143637644D01*
X121650320Y-143634500D01*
X121650314Y-143634500D01*
X118949939Y-143634500D01*
X118949933Y-143634500D01*
X118940352Y-143635379D01*
X118880677Y-143621870D01*
X118851212Y-143594985D01*
X118841601Y-143581756D01*
X118834652Y-143570256D01*
X118834588Y-143570294D01*
X118832983Y-143567515D01*
X118832982Y-143567511D01*
X118761976Y-143444525D01*
X118760803Y-143442344D01*
X118760617Y-143442094D01*
X118760510Y-143441987D01*
X118760509Y-143441985D01*
X118658015Y-143339491D01*
X118658012Y-143339489D01*
X118658010Y-143339487D01*
X118589774Y-143300091D01*
X118568741Y-143276731D01*
X118502897Y-143259087D01*
X118502896Y-143259087D01*
X118392475Y-143229500D01*
X118392473Y-143229500D01*
X118247523Y-143229500D01*
X118185788Y-143246041D01*
X118185787Y-143246040D01*
X118107512Y-143267015D01*
X118107506Y-143267018D01*
X117981993Y-143339483D01*
X117879485Y-143441991D01*
X117811018Y-143560579D01*
X117808307Y-143565003D01*
X117791445Y-143590965D01*
X117743897Y-143629466D01*
X117738664Y-143631474D01*
X117733580Y-143633425D01*
X117698106Y-143640000D01*
X114337946Y-143640000D01*
X114322463Y-143638782D01*
X114315283Y-143637645D01*
X114315281Y-143637644D01*
X114315276Y-143637644D01*
X114275320Y-143634500D01*
X114275314Y-143634500D01*
X110603855Y-143634500D01*
X110603855Y-143633051D01*
X110549859Y-143620066D01*
X110521517Y-143593852D01*
X110519397Y-143590933D01*
X110500500Y-143532756D01*
X110500500Y-132244680D01*
X110505343Y-132214094D01*
X110509465Y-132201405D01*
X110545423Y-132151906D01*
X110546022Y-132151471D01*
X110549563Y-132148900D01*
X110607743Y-132130000D01*
X114285320Y-132130000D01*
X114315908Y-132134843D01*
G37*
G04 #@! TD.AperFunction*
G04 #@! TA.AperFunction,Conductor*
G36*
X112305908Y-150094843D02*
G01*
X112318595Y-150098966D01*
X112368095Y-150134927D01*
X112368096Y-150134928D01*
X112371091Y-150139050D01*
X112390000Y-150197240D01*
X112390000Y-150240000D01*
X114609343Y-150171501D01*
X114634014Y-150173843D01*
X114657633Y-150179129D01*
X114680953Y-150187529D01*
X114705785Y-150200182D01*
X114802497Y-150215500D01*
X116102502Y-150215499D01*
X116102503Y-150215499D01*
X116102504Y-150215499D01*
X116105060Y-150215093D01*
X116115290Y-150213473D01*
X116140036Y-150209554D01*
X116170989Y-150209554D01*
X116184173Y-150211642D01*
X116238687Y-150239416D01*
X116239467Y-150240196D01*
X116265726Y-150287082D01*
X116267263Y-150293482D01*
X116270000Y-150316600D01*
X116270000Y-154415000D01*
X116716360Y-154415137D01*
X116731716Y-154416341D01*
X116789314Y-154425412D01*
X125371125Y-154417817D01*
X130415619Y-154419379D01*
X130419999Y-154419381D01*
X130420000Y-154419381D01*
X130420000Y-154352625D01*
X130441189Y-154325689D01*
X130442174Y-154325029D01*
X130451794Y-154314202D01*
X130485378Y-154283158D01*
X130534088Y-154196177D01*
X130552995Y-154137986D01*
X130565500Y-154059034D01*
X130565500Y-153634500D01*
X130584407Y-153576309D01*
X130633907Y-153540345D01*
X130664500Y-153535500D01*
X138945500Y-153535500D01*
X139003691Y-153554407D01*
X139039655Y-153603907D01*
X139044500Y-153634500D01*
X139044500Y-156400500D01*
X139025593Y-156458691D01*
X138976093Y-156494655D01*
X138945500Y-156499500D01*
X110615180Y-156499500D01*
X110584587Y-156494654D01*
X110571901Y-156490532D01*
X110522401Y-156454568D01*
X110522394Y-156454558D01*
X110519400Y-156450436D01*
X110500500Y-156392256D01*
X110500500Y-153317132D01*
X111609500Y-153317132D01*
X111609500Y-154662920D01*
X111609584Y-154663648D01*
X111614281Y-154707349D01*
X111615908Y-154722480D01*
X111615909Y-154722485D01*
X111615912Y-154722492D01*
X111666200Y-154857327D01*
X111752449Y-154972541D01*
X111752522Y-154972633D01*
X111752799Y-154972879D01*
X111754588Y-154974144D01*
X111839142Y-155037441D01*
X111867668Y-155058796D01*
X111867669Y-155058796D01*
X111867670Y-155058797D01*
X112001544Y-155108728D01*
X112002985Y-155109285D01*
X112004247Y-155109466D01*
X112007767Y-155109655D01*
X112062127Y-155115500D01*
X112857872Y-155115499D01*
X112917483Y-155109091D01*
X112984907Y-155083943D01*
X112984910Y-155083942D01*
X113050697Y-155059406D01*
X113054030Y-155058230D01*
X113057582Y-155057047D01*
X113065167Y-155049186D01*
X113167546Y-154972546D01*
X113253796Y-154857331D01*
X113253798Y-154857327D01*
X113304089Y-154722488D01*
X113304090Y-154722485D01*
X113304091Y-154722483D01*
X113310500Y-154662873D01*
X113310499Y-153317128D01*
X113304091Y-153257517D01*
X113304089Y-153257511D01*
X113289587Y-153218629D01*
X113253798Y-153122671D01*
X113241461Y-153106191D01*
X113169144Y-153009588D01*
X113167879Y-153007799D01*
X113167633Y-153007522D01*
X113167541Y-153007449D01*
X113052330Y-152921202D01*
X113052328Y-152921201D01*
X112922428Y-152872752D01*
X112918939Y-152871234D01*
X112918025Y-152870996D01*
X112915927Y-152870540D01*
X112912206Y-152870341D01*
X112895312Y-152868524D01*
X112886249Y-152867550D01*
X112886248Y-152867549D01*
X112857876Y-152864500D01*
X112857873Y-152864500D01*
X112857870Y-152864500D01*
X112062133Y-152864500D01*
X112062129Y-152864500D01*
X112053938Y-152864500D01*
X112047975Y-152866021D01*
X112039069Y-152866978D01*
X112002520Y-152870907D01*
X112002514Y-152870908D01*
X112002514Y-152870909D01*
X112002506Y-152870912D01*
X111867671Y-152921200D01*
X111752456Y-153007451D01*
X111752454Y-153007453D01*
X111666200Y-153122671D01*
X111615912Y-153257504D01*
X111615910Y-153257508D01*
X111615910Y-153257511D01*
X111615908Y-153257522D01*
X111609501Y-153317127D01*
X111609500Y-153317132D01*
X110500500Y-153317132D01*
X110500500Y-150204680D01*
X110505343Y-150174094D01*
X110505424Y-150173844D01*
X110509465Y-150161405D01*
X110545423Y-150111906D01*
X110546022Y-150111471D01*
X110549563Y-150108900D01*
X110607743Y-150090000D01*
X112275320Y-150090000D01*
X112305908Y-150094843D01*
G37*
G04 #@! TD.AperFunction*
M02*
