G04 #@! TF.GenerationSoftware,KiCad,Pcbnew,10.0.6-rc2*
G04 #@! TF.CreationDate,2026-08-25T12:43:28+02:00*
G04 #@! TF.ProjectId,unni-esp-interface,756e6e69-2d65-4737-902d-696e74657266,rev?*
G04 #@! TF.SameCoordinates,Original*
G04 #@! TF.FileFunction,Legend,Top*
G04 #@! TF.FilePolarity,Positive*
%FSLAX46Y46*%
G04 Gerber Fmt 4.6, Leading zero omitted, Abs format (unit mm)*
G04 Created by KiCad (PCBNEW 10.0.6-rc2) date 2026-08-25 12:43:28*
%MOMM*%
%LPD*%
G01*
G04 APERTURE LIST*
%ADD10C,0.100000*%
%ADD11C,0.150000*%
%ADD12C,0.120000*%
G04 APERTURE END LIST*
D10*
G36*
X112218780Y-152159501D02*
G01*
X112238029Y-152178750D01*
X112262455Y-152227602D01*
X112262455Y-152303997D01*
X112238029Y-152352847D01*
X112216170Y-152374707D01*
X112167320Y-152399133D01*
X111962455Y-152399133D01*
X111962455Y-152132466D01*
X112137675Y-152132466D01*
X112218780Y-152159501D01*
G37*
G36*
X112182837Y-151823558D02*
G01*
X112204696Y-151845418D01*
X112229122Y-151894269D01*
X112229122Y-151937330D01*
X112204697Y-151986179D01*
X112182836Y-152008040D01*
X112133986Y-152032466D01*
X111962455Y-152032466D01*
X111962455Y-151799133D01*
X112133986Y-151799133D01*
X112182837Y-151823558D01*
G37*
G36*
X113785447Y-152159501D02*
G01*
X113804696Y-152178750D01*
X113829122Y-152227602D01*
X113829122Y-152303997D01*
X113804696Y-152352847D01*
X113782837Y-152374707D01*
X113733987Y-152399133D01*
X113529122Y-152399133D01*
X113529122Y-152132466D01*
X113704342Y-152132466D01*
X113785447Y-152159501D01*
G37*
G36*
X113749504Y-151823558D02*
G01*
X113771363Y-151845418D01*
X113795789Y-151894269D01*
X113795789Y-151937330D01*
X113771364Y-151986179D01*
X113749503Y-152008040D01*
X113700653Y-152032466D01*
X113529122Y-152032466D01*
X113529122Y-151799133D01*
X113700653Y-151799133D01*
X113749504Y-151823558D01*
G37*
G36*
X114836428Y-152576911D02*
G01*
X111784677Y-152576911D01*
X111784677Y-151749133D01*
X111862455Y-151749133D01*
X111862455Y-152449133D01*
X111866261Y-152468267D01*
X111893321Y-152495327D01*
X111912455Y-152499133D01*
X112179122Y-152499133D01*
X112181578Y-152498644D01*
X112182666Y-152499007D01*
X112190390Y-152496891D01*
X112198256Y-152495327D01*
X112199067Y-152494515D01*
X112201482Y-152493854D01*
X112268150Y-152460521D01*
X112274478Y-152455609D01*
X112281145Y-152451155D01*
X112314478Y-152417821D01*
X112318929Y-152411158D01*
X112323843Y-152404827D01*
X112357176Y-152338161D01*
X112357837Y-152335745D01*
X112358649Y-152334934D01*
X112360213Y-152327069D01*
X112362329Y-152319344D01*
X112361966Y-152318256D01*
X112362455Y-152315800D01*
X112362455Y-152215800D01*
X112361966Y-152213343D01*
X112362329Y-152212256D01*
X112360212Y-152204526D01*
X112358649Y-152196666D01*
X112357838Y-152195855D01*
X112357177Y-152193440D01*
X112342123Y-152163332D01*
X112566261Y-152163332D01*
X112566261Y-152201600D01*
X112593321Y-152228660D01*
X112612455Y-152232466D01*
X113145789Y-152232466D01*
X113164923Y-152228660D01*
X113191983Y-152201600D01*
X113191983Y-152163332D01*
X113164923Y-152136272D01*
X113145789Y-152132466D01*
X112612455Y-152132466D01*
X112593321Y-152136272D01*
X112566261Y-152163332D01*
X112342123Y-152163332D01*
X112323843Y-152126773D01*
X112318931Y-152120444D01*
X112314477Y-152113778D01*
X112281144Y-152080445D01*
X112279062Y-152079054D01*
X112278549Y-152078027D01*
X112271583Y-152074056D01*
X112264923Y-152069606D01*
X112263775Y-152069606D01*
X112263086Y-152069213D01*
X112281144Y-152051156D01*
X112285603Y-152044481D01*
X112290510Y-152038160D01*
X112323844Y-151971493D01*
X112324505Y-151969077D01*
X112325316Y-151968267D01*
X112326879Y-151960406D01*
X112328996Y-151952677D01*
X112328633Y-151951589D01*
X112329122Y-151949133D01*
X112329122Y-151882466D01*
X112328633Y-151880009D01*
X112328996Y-151878922D01*
X112326880Y-151871196D01*
X112325316Y-151863332D01*
X112324504Y-151862520D01*
X112323843Y-151860105D01*
X112290510Y-151793439D01*
X112285598Y-151787110D01*
X112281144Y-151780444D01*
X112249832Y-151749133D01*
X113429122Y-151749133D01*
X113429122Y-152449133D01*
X113432928Y-152468267D01*
X113459988Y-152495327D01*
X113479122Y-152499133D01*
X113745789Y-152499133D01*
X113748245Y-152498644D01*
X113749333Y-152499007D01*
X113757057Y-152496891D01*
X113764923Y-152495327D01*
X113765734Y-152494515D01*
X113768149Y-152493854D01*
X113834817Y-152460521D01*
X113841145Y-152455609D01*
X113847812Y-152451155D01*
X113881145Y-152417821D01*
X113885596Y-152411158D01*
X113890510Y-152404827D01*
X113923843Y-152338161D01*
X113924504Y-152335745D01*
X113925316Y-152334934D01*
X113926880Y-152327069D01*
X113928996Y-152319344D01*
X113928633Y-152318256D01*
X113929122Y-152315800D01*
X113929122Y-152215800D01*
X113928633Y-152213343D01*
X113928996Y-152212256D01*
X113926879Y-152204526D01*
X113925316Y-152196666D01*
X113924505Y-152195855D01*
X113923844Y-152193440D01*
X113908790Y-152163332D01*
X114132928Y-152163332D01*
X114132928Y-152201600D01*
X114159988Y-152228660D01*
X114179122Y-152232466D01*
X114395789Y-152232466D01*
X114395789Y-152449133D01*
X114399595Y-152468267D01*
X114426655Y-152495327D01*
X114464923Y-152495327D01*
X114491983Y-152468267D01*
X114495789Y-152449133D01*
X114495789Y-152232466D01*
X114712456Y-152232466D01*
X114731590Y-152228660D01*
X114758650Y-152201600D01*
X114758650Y-152163332D01*
X114731590Y-152136272D01*
X114712456Y-152132466D01*
X114495789Y-152132466D01*
X114495789Y-151915800D01*
X114491983Y-151896666D01*
X114464923Y-151869606D01*
X114426655Y-151869606D01*
X114399595Y-151896666D01*
X114395789Y-151915800D01*
X114395789Y-152132466D01*
X114179122Y-152132466D01*
X114159988Y-152136272D01*
X114132928Y-152163332D01*
X113908790Y-152163332D01*
X113890510Y-152126773D01*
X113885598Y-152120444D01*
X113881144Y-152113778D01*
X113847811Y-152080445D01*
X113845729Y-152079054D01*
X113845216Y-152078027D01*
X113838250Y-152074056D01*
X113831590Y-152069606D01*
X113830442Y-152069606D01*
X113829753Y-152069213D01*
X113847811Y-152051156D01*
X113852270Y-152044481D01*
X113857177Y-152038160D01*
X113890511Y-151971493D01*
X113891172Y-151969077D01*
X113891983Y-151968267D01*
X113893546Y-151960406D01*
X113895663Y-151952677D01*
X113895300Y-151951589D01*
X113895789Y-151949133D01*
X113895789Y-151882466D01*
X113895300Y-151880009D01*
X113895663Y-151878922D01*
X113893547Y-151871196D01*
X113891983Y-151863332D01*
X113891171Y-151862520D01*
X113890510Y-151860105D01*
X113857177Y-151793439D01*
X113852265Y-151787110D01*
X113847811Y-151780444D01*
X113814477Y-151747111D01*
X113807817Y-151742660D01*
X113801483Y-151737745D01*
X113734817Y-151704412D01*
X113732401Y-151703750D01*
X113731590Y-151702939D01*
X113723728Y-151701375D01*
X113716001Y-151699259D01*
X113714912Y-151699621D01*
X113712456Y-151699133D01*
X113479122Y-151699133D01*
X113459988Y-151702939D01*
X113432928Y-151729999D01*
X113429122Y-151749133D01*
X112249832Y-151749133D01*
X112247810Y-151747111D01*
X112241150Y-151742660D01*
X112234816Y-151737745D01*
X112168150Y-151704412D01*
X112165734Y-151703750D01*
X112164923Y-151702939D01*
X112157061Y-151701375D01*
X112149334Y-151699259D01*
X112148245Y-151699621D01*
X112145789Y-151699133D01*
X111912455Y-151699133D01*
X111893321Y-151702939D01*
X111866261Y-151729999D01*
X111862455Y-151749133D01*
X111784677Y-151749133D01*
X111784677Y-151621355D01*
X114836428Y-151621355D01*
X114836428Y-152576911D01*
G37*
G36*
X137536851Y-156388379D02*
G01*
X137556100Y-156407628D01*
X137580526Y-156456480D01*
X137580526Y-156532875D01*
X137556100Y-156581725D01*
X137534241Y-156603585D01*
X137485391Y-156628011D01*
X137280526Y-156628011D01*
X137280526Y-156361344D01*
X137455746Y-156361344D01*
X137536851Y-156388379D01*
G37*
G36*
X137500908Y-156052436D02*
G01*
X137522767Y-156074296D01*
X137547193Y-156123147D01*
X137547193Y-156166208D01*
X137522768Y-156215057D01*
X137500907Y-156236918D01*
X137452057Y-156261344D01*
X137280526Y-156261344D01*
X137280526Y-156028011D01*
X137452057Y-156028011D01*
X137500908Y-156052436D01*
G37*
G36*
X142736850Y-156055045D02*
G01*
X142789434Y-156107630D01*
X142816682Y-156162128D01*
X142847192Y-156284165D01*
X142847192Y-156371857D01*
X142816682Y-156493893D01*
X142789434Y-156548391D01*
X142736850Y-156600976D01*
X142655746Y-156628011D01*
X142547192Y-156628011D01*
X142547192Y-156028011D01*
X142655746Y-156028011D01*
X142736850Y-156055045D01*
G37*
G36*
X145403516Y-156055045D02*
G01*
X145456100Y-156107630D01*
X145483348Y-156162128D01*
X145513858Y-156284165D01*
X145513858Y-156371857D01*
X145483348Y-156493893D01*
X145456100Y-156548391D01*
X145403516Y-156600976D01*
X145322412Y-156628011D01*
X145213858Y-156628011D01*
X145213858Y-156028011D01*
X145322412Y-156028011D01*
X145403516Y-156055045D01*
G37*
G36*
X146636849Y-156055045D02*
G01*
X146689433Y-156107630D01*
X146716681Y-156162128D01*
X146747191Y-156284165D01*
X146747191Y-156371857D01*
X146716681Y-156493893D01*
X146689433Y-156548391D01*
X146636849Y-156600976D01*
X146555745Y-156628011D01*
X146447191Y-156628011D01*
X146447191Y-156028011D01*
X146555745Y-156028011D01*
X146636849Y-156055045D01*
G37*
G36*
X148736849Y-156055045D02*
G01*
X148789433Y-156107630D01*
X148816681Y-156162128D01*
X148847191Y-156284165D01*
X148847191Y-156371857D01*
X148816681Y-156493893D01*
X148789433Y-156548391D01*
X148736849Y-156600976D01*
X148655745Y-156628011D01*
X148547191Y-156628011D01*
X148547191Y-156028011D01*
X148655745Y-156028011D01*
X148736849Y-156055045D01*
G37*
G36*
X149854497Y-156805789D02*
G01*
X136239887Y-156805789D01*
X136239887Y-156392210D01*
X136317665Y-156392210D01*
X136317665Y-156430478D01*
X136344725Y-156457538D01*
X136363859Y-156461344D01*
X136580526Y-156461344D01*
X136580526Y-156678011D01*
X136584332Y-156697145D01*
X136611392Y-156724205D01*
X136649660Y-156724205D01*
X136676720Y-156697145D01*
X136680526Y-156678011D01*
X136680526Y-156461344D01*
X136897193Y-156461344D01*
X136916327Y-156457538D01*
X136943387Y-156430478D01*
X136943387Y-156392210D01*
X136916327Y-156365150D01*
X136897193Y-156361344D01*
X136680526Y-156361344D01*
X136680526Y-156144678D01*
X136676720Y-156125544D01*
X136649660Y-156098484D01*
X136611392Y-156098484D01*
X136584332Y-156125544D01*
X136580526Y-156144678D01*
X136580526Y-156361344D01*
X136363859Y-156361344D01*
X136344725Y-156365150D01*
X136317665Y-156392210D01*
X136239887Y-156392210D01*
X136239887Y-155978011D01*
X137180526Y-155978011D01*
X137180526Y-156678011D01*
X137184332Y-156697145D01*
X137211392Y-156724205D01*
X137230526Y-156728011D01*
X137497193Y-156728011D01*
X137499649Y-156727522D01*
X137500737Y-156727885D01*
X137508461Y-156725769D01*
X137516327Y-156724205D01*
X137517138Y-156723393D01*
X137519553Y-156722732D01*
X137586221Y-156689399D01*
X137592549Y-156684487D01*
X137599216Y-156680033D01*
X137632549Y-156646699D01*
X137637000Y-156640036D01*
X137641914Y-156633705D01*
X137675247Y-156567039D01*
X137675908Y-156564623D01*
X137676720Y-156563812D01*
X137678284Y-156555947D01*
X137680400Y-156548222D01*
X137680037Y-156547134D01*
X137680526Y-156544678D01*
X137680526Y-156444678D01*
X137680037Y-156442221D01*
X137680400Y-156441134D01*
X137678283Y-156433404D01*
X137676720Y-156425544D01*
X137675909Y-156424733D01*
X137675248Y-156422318D01*
X137641914Y-156355651D01*
X137637002Y-156349322D01*
X137632548Y-156342656D01*
X137599215Y-156309323D01*
X137597133Y-156307932D01*
X137596620Y-156306905D01*
X137589654Y-156302934D01*
X137582994Y-156298484D01*
X137581846Y-156298484D01*
X137581157Y-156298091D01*
X137599215Y-156280034D01*
X137603674Y-156273359D01*
X137608581Y-156267038D01*
X137641915Y-156200371D01*
X137642576Y-156197955D01*
X137643387Y-156197145D01*
X137644950Y-156189284D01*
X137647067Y-156181555D01*
X137646704Y-156180467D01*
X137647193Y-156178011D01*
X137647193Y-156111344D01*
X137646704Y-156108887D01*
X137647067Y-156107800D01*
X137644951Y-156100074D01*
X137643387Y-156092210D01*
X137642575Y-156091398D01*
X137641914Y-156088983D01*
X137608581Y-156022317D01*
X137603669Y-156015988D01*
X137599215Y-156009322D01*
X137565881Y-155975989D01*
X137563604Y-155974467D01*
X138313985Y-155974467D01*
X138316425Y-155993822D01*
X138549759Y-156693822D01*
X138559420Y-156710771D01*
X138562762Y-156712441D01*
X138564433Y-156715784D01*
X138579472Y-156720797D01*
X138593649Y-156727885D01*
X138597193Y-156726703D01*
X138600737Y-156727885D01*
X138614913Y-156720797D01*
X138629953Y-156715784D01*
X138631623Y-156712441D01*
X138634966Y-156710771D01*
X138644627Y-156693822D01*
X138783230Y-156278011D01*
X138980526Y-156278011D01*
X138980526Y-156378011D01*
X138981721Y-156384020D01*
X138982019Y-156390138D01*
X139015352Y-156523470D01*
X139017691Y-156528421D01*
X139019138Y-156533705D01*
X139052472Y-156600372D01*
X139057383Y-156606700D01*
X139061837Y-156613366D01*
X139128504Y-156680033D01*
X139130585Y-156681423D01*
X139131099Y-156682451D01*
X139138064Y-156686421D01*
X139144725Y-156690872D01*
X139145873Y-156690872D01*
X139148048Y-156692112D01*
X139248048Y-156725445D01*
X139255996Y-156726447D01*
X139263859Y-156728011D01*
X139330526Y-156728011D01*
X139338388Y-156726447D01*
X139346337Y-156725445D01*
X139446337Y-156692112D01*
X139448512Y-156690872D01*
X139449661Y-156690872D01*
X139456327Y-156686417D01*
X139463286Y-156682451D01*
X139463799Y-156681424D01*
X139465882Y-156680033D01*
X139499215Y-156646699D01*
X139510053Y-156630477D01*
X139510053Y-156592209D01*
X139482993Y-156565150D01*
X139444724Y-156565150D01*
X139428503Y-156575989D01*
X139403515Y-156600977D01*
X139322413Y-156628011D01*
X139271972Y-156628011D01*
X139190869Y-156600977D01*
X139138284Y-156548392D01*
X139111034Y-156493892D01*
X139080526Y-156371856D01*
X139080526Y-156284165D01*
X139082064Y-156278011D01*
X139680526Y-156278011D01*
X139680526Y-156378011D01*
X139681721Y-156384020D01*
X139682019Y-156390138D01*
X139715352Y-156523470D01*
X139717691Y-156528421D01*
X139719138Y-156533705D01*
X139752472Y-156600372D01*
X139757383Y-156606700D01*
X139761837Y-156613366D01*
X139828504Y-156680033D01*
X139830585Y-156681423D01*
X139831099Y-156682451D01*
X139838064Y-156686421D01*
X139844725Y-156690872D01*
X139845873Y-156690872D01*
X139848048Y-156692112D01*
X139948048Y-156725445D01*
X139955996Y-156726447D01*
X139963859Y-156728011D01*
X140030526Y-156728011D01*
X140038388Y-156726447D01*
X140046337Y-156725445D01*
X140146337Y-156692112D01*
X140148512Y-156690872D01*
X140149661Y-156690872D01*
X140156327Y-156686417D01*
X140163286Y-156682451D01*
X140163799Y-156681424D01*
X140165882Y-156680033D01*
X140199215Y-156646699D01*
X140210053Y-156630477D01*
X140210053Y-156592209D01*
X140182993Y-156565150D01*
X140144724Y-156565150D01*
X140128503Y-156575989D01*
X140103515Y-156600977D01*
X140022413Y-156628011D01*
X139971972Y-156628011D01*
X139890869Y-156600977D01*
X139838284Y-156548392D01*
X139811034Y-156493892D01*
X139780526Y-156371856D01*
X139780526Y-156284165D01*
X139782064Y-156278011D01*
X140913859Y-156278011D01*
X140913859Y-156378011D01*
X140915054Y-156384020D01*
X140915352Y-156390138D01*
X140948685Y-156523470D01*
X140951024Y-156528421D01*
X140952471Y-156533705D01*
X140985805Y-156600372D01*
X140990716Y-156606700D01*
X140995170Y-156613366D01*
X141061837Y-156680033D01*
X141063918Y-156681423D01*
X141064432Y-156682451D01*
X141071397Y-156686421D01*
X141078058Y-156690872D01*
X141079206Y-156690872D01*
X141081381Y-156692112D01*
X141181381Y-156725445D01*
X141189329Y-156726447D01*
X141197192Y-156728011D01*
X141263859Y-156728011D01*
X141271721Y-156726447D01*
X141279670Y-156725445D01*
X141379670Y-156692112D01*
X141381845Y-156690872D01*
X141382994Y-156690872D01*
X141389660Y-156686417D01*
X141396619Y-156682451D01*
X141397132Y-156681424D01*
X141399215Y-156680033D01*
X141432548Y-156646699D01*
X141443386Y-156630477D01*
X141443386Y-156592209D01*
X141416326Y-156565150D01*
X141378057Y-156565150D01*
X141361836Y-156575989D01*
X141336848Y-156600977D01*
X141255746Y-156628011D01*
X141205305Y-156628011D01*
X141124202Y-156600977D01*
X141071617Y-156548392D01*
X141044367Y-156493892D01*
X141013859Y-156371856D01*
X141013859Y-156284165D01*
X141044367Y-156162129D01*
X141071617Y-156107629D01*
X141124202Y-156055044D01*
X141205305Y-156028011D01*
X141255746Y-156028011D01*
X141336848Y-156055044D01*
X141361836Y-156080033D01*
X141378057Y-156090872D01*
X141416326Y-156090872D01*
X141443386Y-156063813D01*
X141443386Y-156025545D01*
X141432548Y-156009323D01*
X141401237Y-155978011D01*
X141647192Y-155978011D01*
X141647192Y-156678011D01*
X141650998Y-156697145D01*
X141678058Y-156724205D01*
X141716326Y-156724205D01*
X141743386Y-156697145D01*
X141747192Y-156678011D01*
X141747192Y-156203387D01*
X141885217Y-156499155D01*
X141892839Y-156509544D01*
X141893652Y-156511780D01*
X141894909Y-156512366D01*
X141896757Y-156514885D01*
X141912829Y-156520729D01*
X141928330Y-156527963D01*
X141930526Y-156527164D01*
X141932722Y-156527963D01*
X141948222Y-156520729D01*
X141964295Y-156514885D01*
X141966142Y-156512366D01*
X141967400Y-156511780D01*
X141968212Y-156509544D01*
X141975835Y-156499155D01*
X142113859Y-156203388D01*
X142113859Y-156678011D01*
X142117665Y-156697145D01*
X142144725Y-156724205D01*
X142182993Y-156724205D01*
X142210053Y-156697145D01*
X142213859Y-156678011D01*
X142213859Y-155978011D01*
X142447192Y-155978011D01*
X142447192Y-156678011D01*
X142450998Y-156697145D01*
X142478058Y-156724205D01*
X142497192Y-156728011D01*
X142663859Y-156728011D01*
X142671721Y-156726447D01*
X142679670Y-156725445D01*
X142779670Y-156692112D01*
X142781845Y-156690872D01*
X142782993Y-156690872D01*
X142789653Y-156686421D01*
X142796619Y-156682451D01*
X142797132Y-156681423D01*
X142799214Y-156680033D01*
X142865881Y-156613367D01*
X142870340Y-156606692D01*
X142875247Y-156600371D01*
X142908581Y-156533704D01*
X142910027Y-156528420D01*
X142912366Y-156523471D01*
X142945699Y-156390138D01*
X142945996Y-156384020D01*
X142947192Y-156378011D01*
X142947192Y-156278011D01*
X143647192Y-156278011D01*
X143647192Y-156378011D01*
X143648387Y-156384020D01*
X143648685Y-156390138D01*
X143682018Y-156523470D01*
X143684357Y-156528421D01*
X143685804Y-156533705D01*
X143719138Y-156600372D01*
X143724049Y-156606700D01*
X143728503Y-156613366D01*
X143795170Y-156680033D01*
X143797251Y-156681423D01*
X143797765Y-156682451D01*
X143804730Y-156686421D01*
X143811391Y-156690872D01*
X143812539Y-156690872D01*
X143814714Y-156692112D01*
X143914714Y-156725445D01*
X143922662Y-156726447D01*
X143930525Y-156728011D01*
X143997192Y-156728011D01*
X144005054Y-156726447D01*
X144013003Y-156725445D01*
X144113003Y-156692112D01*
X144115178Y-156690872D01*
X144116327Y-156690872D01*
X144122993Y-156686417D01*
X144129952Y-156682451D01*
X144130465Y-156681424D01*
X144132548Y-156680033D01*
X144165881Y-156646699D01*
X144176716Y-156630480D01*
X144176719Y-156630478D01*
X144180525Y-156611344D01*
X144180525Y-156378011D01*
X144176719Y-156358877D01*
X144149659Y-156331817D01*
X144130525Y-156328011D01*
X143997192Y-156328011D01*
X143978058Y-156331817D01*
X143950998Y-156358877D01*
X143950998Y-156397145D01*
X143978058Y-156424205D01*
X143997192Y-156428011D01*
X144080525Y-156428011D01*
X144080525Y-156590633D01*
X144070181Y-156600977D01*
X143989079Y-156628011D01*
X143938638Y-156628011D01*
X143857535Y-156600977D01*
X143804950Y-156548392D01*
X143777700Y-156493892D01*
X143747192Y-156371856D01*
X143747192Y-156284165D01*
X143777700Y-156162129D01*
X143804950Y-156107629D01*
X143857535Y-156055044D01*
X143938638Y-156028011D01*
X144018723Y-156028011D01*
X144074832Y-156056066D01*
X144093648Y-156061218D01*
X144129953Y-156049116D01*
X144147066Y-156014888D01*
X144134965Y-155978584D01*
X144134227Y-155978011D01*
X144380525Y-155978011D01*
X144380525Y-156678011D01*
X144384331Y-156697145D01*
X144411391Y-156724205D01*
X144449659Y-156724205D01*
X144476719Y-156697145D01*
X144480525Y-156678011D01*
X144480525Y-156166289D01*
X144787113Y-156702818D01*
X144799911Y-156717543D01*
X144806535Y-156719349D01*
X144811391Y-156724205D01*
X144824339Y-156724205D01*
X144836831Y-156727612D01*
X144842793Y-156724205D01*
X144849659Y-156724205D01*
X144858812Y-156715051D01*
X144870057Y-156708626D01*
X144871864Y-156701999D01*
X144876719Y-156697145D01*
X144880525Y-156678011D01*
X144880525Y-155978011D01*
X145113858Y-155978011D01*
X145113858Y-156678011D01*
X145117664Y-156697145D01*
X145144724Y-156724205D01*
X145163858Y-156728011D01*
X145330525Y-156728011D01*
X145338387Y-156726447D01*
X145346336Y-156725445D01*
X145446336Y-156692112D01*
X145448511Y-156690872D01*
X145449659Y-156690872D01*
X145456319Y-156686421D01*
X145463285Y-156682451D01*
X145463798Y-156681423D01*
X145465880Y-156680033D01*
X145532547Y-156613367D01*
X145537006Y-156606692D01*
X145541913Y-156600371D01*
X145575247Y-156533704D01*
X145576693Y-156528420D01*
X145579032Y-156523471D01*
X145612365Y-156390138D01*
X145612662Y-156384020D01*
X145613858Y-156378011D01*
X145613858Y-156278011D01*
X145612662Y-156272001D01*
X145612365Y-156265884D01*
X145579032Y-156132551D01*
X145576693Y-156127601D01*
X145575247Y-156122318D01*
X145541913Y-156055651D01*
X145537006Y-156049329D01*
X145532547Y-156042655D01*
X145467902Y-155978011D01*
X146347191Y-155978011D01*
X146347191Y-156678011D01*
X146350997Y-156697145D01*
X146378057Y-156724205D01*
X146397191Y-156728011D01*
X146563858Y-156728011D01*
X146571720Y-156726447D01*
X146579669Y-156725445D01*
X146679669Y-156692112D01*
X146681844Y-156690872D01*
X146682992Y-156690872D01*
X146689652Y-156686421D01*
X146696618Y-156682451D01*
X146697131Y-156681423D01*
X146699213Y-156680033D01*
X146765880Y-156613367D01*
X146770339Y-156606692D01*
X146775246Y-156600371D01*
X146808580Y-156533704D01*
X146810026Y-156528420D01*
X146812365Y-156523471D01*
X146845180Y-156392210D01*
X147050997Y-156392210D01*
X147050997Y-156430478D01*
X147078057Y-156457538D01*
X147097191Y-156461344D01*
X147313858Y-156461344D01*
X147313858Y-156678011D01*
X147317664Y-156697145D01*
X147344724Y-156724205D01*
X147382992Y-156724205D01*
X147410052Y-156697145D01*
X147413858Y-156678011D01*
X147413858Y-156461344D01*
X147630525Y-156461344D01*
X147649659Y-156457538D01*
X147676719Y-156430478D01*
X147676719Y-156392210D01*
X147649659Y-156365150D01*
X147630525Y-156361344D01*
X147413858Y-156361344D01*
X147413858Y-156144678D01*
X147410052Y-156125544D01*
X147382992Y-156098484D01*
X147344724Y-156098484D01*
X147317664Y-156125544D01*
X147313858Y-156144678D01*
X147313858Y-156361344D01*
X147097191Y-156361344D01*
X147078057Y-156365150D01*
X147050997Y-156392210D01*
X146845180Y-156392210D01*
X146845698Y-156390138D01*
X146845995Y-156384020D01*
X146847191Y-156378011D01*
X146847191Y-156278011D01*
X146845995Y-156272001D01*
X146845698Y-156265884D01*
X146812365Y-156132551D01*
X146810026Y-156127601D01*
X146808580Y-156122318D01*
X146775246Y-156055651D01*
X146770339Y-156049329D01*
X146765880Y-156042655D01*
X146701235Y-155978011D01*
X148447191Y-155978011D01*
X148447191Y-156678011D01*
X148450997Y-156697145D01*
X148478057Y-156724205D01*
X148497191Y-156728011D01*
X148663858Y-156728011D01*
X148671720Y-156726447D01*
X148679669Y-156725445D01*
X148779669Y-156692112D01*
X148781844Y-156690872D01*
X148782992Y-156690872D01*
X148789652Y-156686421D01*
X148796618Y-156682451D01*
X148797131Y-156681423D01*
X148799213Y-156680033D01*
X148865880Y-156613367D01*
X148870339Y-156606692D01*
X148875246Y-156600371D01*
X148908580Y-156533704D01*
X148910026Y-156528420D01*
X148912365Y-156523471D01*
X148945180Y-156392210D01*
X149150997Y-156392210D01*
X149150997Y-156430478D01*
X149178057Y-156457538D01*
X149197191Y-156461344D01*
X149730525Y-156461344D01*
X149749659Y-156457538D01*
X149776719Y-156430478D01*
X149776719Y-156392210D01*
X149749659Y-156365150D01*
X149730525Y-156361344D01*
X149197191Y-156361344D01*
X149178057Y-156365150D01*
X149150997Y-156392210D01*
X148945180Y-156392210D01*
X148945698Y-156390138D01*
X148945995Y-156384020D01*
X148947191Y-156378011D01*
X148947191Y-156278011D01*
X148945995Y-156272001D01*
X148945698Y-156265884D01*
X148912365Y-156132551D01*
X148910026Y-156127601D01*
X148908580Y-156122318D01*
X148875246Y-156055651D01*
X148870339Y-156049329D01*
X148865880Y-156042655D01*
X148799213Y-155975989D01*
X148797131Y-155974598D01*
X148796618Y-155973571D01*
X148789652Y-155969600D01*
X148782992Y-155965150D01*
X148781844Y-155965150D01*
X148779669Y-155963910D01*
X148679669Y-155930577D01*
X148671720Y-155929574D01*
X148663858Y-155928011D01*
X148497191Y-155928011D01*
X148478057Y-155931817D01*
X148450997Y-155958877D01*
X148447191Y-155978011D01*
X146701235Y-155978011D01*
X146699213Y-155975989D01*
X146697131Y-155974598D01*
X146696618Y-155973571D01*
X146689652Y-155969600D01*
X146682992Y-155965150D01*
X146681844Y-155965150D01*
X146679669Y-155963910D01*
X146579669Y-155930577D01*
X146571720Y-155929574D01*
X146563858Y-155928011D01*
X146397191Y-155928011D01*
X146378057Y-155931817D01*
X146350997Y-155958877D01*
X146347191Y-155978011D01*
X145467902Y-155978011D01*
X145465880Y-155975989D01*
X145463798Y-155974598D01*
X145463285Y-155973571D01*
X145456319Y-155969600D01*
X145449659Y-155965150D01*
X145448511Y-155965150D01*
X145446336Y-155963910D01*
X145346336Y-155930577D01*
X145338387Y-155929574D01*
X145330525Y-155928011D01*
X145163858Y-155928011D01*
X145144724Y-155931817D01*
X145117664Y-155958877D01*
X145113858Y-155978011D01*
X144880525Y-155978011D01*
X144876719Y-155958877D01*
X144849659Y-155931817D01*
X144811391Y-155931817D01*
X144784331Y-155958877D01*
X144780525Y-155978011D01*
X144780525Y-156489733D01*
X144473937Y-155953204D01*
X144461140Y-155938479D01*
X144454513Y-155936671D01*
X144449659Y-155931817D01*
X144436712Y-155931817D01*
X144424219Y-155928410D01*
X144418257Y-155931817D01*
X144411391Y-155931817D01*
X144402237Y-155940970D01*
X144390993Y-155947396D01*
X144389185Y-155954022D01*
X144384331Y-155958877D01*
X144380525Y-155978011D01*
X144134227Y-155978011D01*
X144119553Y-155966623D01*
X144052885Y-155933290D01*
X144050470Y-155932628D01*
X144049659Y-155931817D01*
X144041793Y-155930252D01*
X144034069Y-155928137D01*
X144032981Y-155928499D01*
X144030525Y-155928011D01*
X143930525Y-155928011D01*
X143922662Y-155929574D01*
X143914714Y-155930577D01*
X143814714Y-155963910D01*
X143812539Y-155965150D01*
X143811391Y-155965150D01*
X143804730Y-155969600D01*
X143797765Y-155973571D01*
X143797251Y-155974598D01*
X143795170Y-155975989D01*
X143728503Y-156042656D01*
X143724049Y-156049321D01*
X143719138Y-156055650D01*
X143685804Y-156122317D01*
X143684357Y-156127600D01*
X143682018Y-156132552D01*
X143648685Y-156265884D01*
X143648387Y-156272001D01*
X143647192Y-156278011D01*
X142947192Y-156278011D01*
X142945996Y-156272001D01*
X142945699Y-156265884D01*
X142912366Y-156132551D01*
X142910027Y-156127601D01*
X142908581Y-156122318D01*
X142875247Y-156055651D01*
X142870340Y-156049329D01*
X142865881Y-156042655D01*
X142799214Y-155975989D01*
X142797132Y-155974598D01*
X142796619Y-155973571D01*
X142789653Y-155969600D01*
X142782993Y-155965150D01*
X142781845Y-155965150D01*
X142779670Y-155963910D01*
X142679670Y-155930577D01*
X142671721Y-155929574D01*
X142663859Y-155928011D01*
X142497192Y-155928011D01*
X142478058Y-155931817D01*
X142450998Y-155958877D01*
X142447192Y-155978011D01*
X142213859Y-155978011D01*
X142210053Y-155958877D01*
X142203770Y-155952594D01*
X142200733Y-155944242D01*
X142190767Y-155939591D01*
X142182993Y-155931817D01*
X142174108Y-155931817D01*
X142166055Y-155928059D01*
X142155720Y-155931817D01*
X142144725Y-155931817D01*
X142138442Y-155938099D01*
X142130090Y-155941137D01*
X142118550Y-155956866D01*
X141930525Y-156359776D01*
X141742501Y-155956867D01*
X141730961Y-155941137D01*
X141722608Y-155938099D01*
X141716326Y-155931817D01*
X141705331Y-155931817D01*
X141694996Y-155928059D01*
X141686943Y-155931817D01*
X141678058Y-155931817D01*
X141670283Y-155939591D01*
X141660318Y-155944242D01*
X141657280Y-155952594D01*
X141650998Y-155958877D01*
X141647192Y-155978011D01*
X141401237Y-155978011D01*
X141399215Y-155975989D01*
X141397132Y-155974597D01*
X141396619Y-155973571D01*
X141389660Y-155969604D01*
X141382994Y-155965150D01*
X141381845Y-155965150D01*
X141379670Y-155963910D01*
X141279670Y-155930577D01*
X141271721Y-155929574D01*
X141263859Y-155928011D01*
X141197192Y-155928011D01*
X141189329Y-155929574D01*
X141181381Y-155930577D01*
X141081381Y-155963910D01*
X141079206Y-155965150D01*
X141078058Y-155965150D01*
X141071397Y-155969600D01*
X141064432Y-155973571D01*
X141063918Y-155974598D01*
X141061837Y-155975989D01*
X140995170Y-156042656D01*
X140990716Y-156049321D01*
X140985805Y-156055650D01*
X140952471Y-156122317D01*
X140951024Y-156127600D01*
X140948685Y-156132552D01*
X140915352Y-156265884D01*
X140915054Y-156272001D01*
X140913859Y-156278011D01*
X139782064Y-156278011D01*
X139811034Y-156162129D01*
X139838284Y-156107629D01*
X139890869Y-156055044D01*
X139971972Y-156028011D01*
X140022413Y-156028011D01*
X140103515Y-156055044D01*
X140128503Y-156080033D01*
X140144724Y-156090872D01*
X140182993Y-156090872D01*
X140210053Y-156063813D01*
X140210053Y-156025545D01*
X140199215Y-156009323D01*
X140165882Y-155975989D01*
X140163799Y-155974597D01*
X140163286Y-155973571D01*
X140156327Y-155969604D01*
X140149661Y-155965150D01*
X140148512Y-155965150D01*
X140146337Y-155963910D01*
X140046337Y-155930577D01*
X140038388Y-155929574D01*
X140030526Y-155928011D01*
X139963859Y-155928011D01*
X139955996Y-155929574D01*
X139948048Y-155930577D01*
X139848048Y-155963910D01*
X139845873Y-155965150D01*
X139844725Y-155965150D01*
X139838064Y-155969600D01*
X139831099Y-155973571D01*
X139830585Y-155974598D01*
X139828504Y-155975989D01*
X139761837Y-156042656D01*
X139757383Y-156049321D01*
X139752472Y-156055650D01*
X139719138Y-156122317D01*
X139717691Y-156127600D01*
X139715352Y-156132552D01*
X139682019Y-156265884D01*
X139681721Y-156272001D01*
X139680526Y-156278011D01*
X139082064Y-156278011D01*
X139111034Y-156162129D01*
X139138284Y-156107629D01*
X139190869Y-156055044D01*
X139271972Y-156028011D01*
X139322413Y-156028011D01*
X139403515Y-156055044D01*
X139428503Y-156080033D01*
X139444724Y-156090872D01*
X139482993Y-156090872D01*
X139510053Y-156063813D01*
X139510053Y-156025545D01*
X139499215Y-156009323D01*
X139465882Y-155975989D01*
X139463799Y-155974597D01*
X139463286Y-155973571D01*
X139456327Y-155969604D01*
X139449661Y-155965150D01*
X139448512Y-155965150D01*
X139446337Y-155963910D01*
X139346337Y-155930577D01*
X139338388Y-155929574D01*
X139330526Y-155928011D01*
X139263859Y-155928011D01*
X139255996Y-155929574D01*
X139248048Y-155930577D01*
X139148048Y-155963910D01*
X139145873Y-155965150D01*
X139144725Y-155965150D01*
X139138064Y-155969600D01*
X139131099Y-155973571D01*
X139130585Y-155974598D01*
X139128504Y-155975989D01*
X139061837Y-156042656D01*
X139057383Y-156049321D01*
X139052472Y-156055650D01*
X139019138Y-156122317D01*
X139017691Y-156127600D01*
X139015352Y-156132552D01*
X138982019Y-156265884D01*
X138981721Y-156272001D01*
X138980526Y-156278011D01*
X138783230Y-156278011D01*
X138877960Y-155993822D01*
X138880400Y-155974466D01*
X138863286Y-155940238D01*
X138826982Y-155928137D01*
X138792753Y-155945251D01*
X138783092Y-155962199D01*
X138597192Y-156519898D01*
X138411293Y-155962200D01*
X138401632Y-155945251D01*
X138367403Y-155928137D01*
X138331099Y-155940238D01*
X138313985Y-155974467D01*
X137563604Y-155974467D01*
X137559221Y-155971538D01*
X137552887Y-155966623D01*
X137486221Y-155933290D01*
X137483805Y-155932628D01*
X137482994Y-155931817D01*
X137475132Y-155930253D01*
X137467405Y-155928137D01*
X137466316Y-155928499D01*
X137463860Y-155928011D01*
X137230526Y-155928011D01*
X137211392Y-155931817D01*
X137184332Y-155958877D01*
X137180526Y-155978011D01*
X136239887Y-155978011D01*
X136239887Y-155850233D01*
X149854497Y-155850233D01*
X149854497Y-156805789D01*
G37*
G36*
X151155014Y-154084719D02*
G01*
X151209514Y-154111969D01*
X151262099Y-154164554D01*
X151289133Y-154245656D01*
X151289133Y-154354211D01*
X150689133Y-154354211D01*
X150689133Y-154245656D01*
X150716167Y-154164553D01*
X150768750Y-154111970D01*
X150823251Y-154084719D01*
X150945287Y-154054211D01*
X151032978Y-154054211D01*
X151155014Y-154084719D01*
G37*
G36*
X150909514Y-152845303D02*
G01*
X150931374Y-152867163D01*
X150955800Y-152916014D01*
X150955800Y-153120878D01*
X150689133Y-153120878D01*
X150689133Y-152916014D01*
X150713558Y-152867162D01*
X150735418Y-152845303D01*
X150784269Y-152820878D01*
X150860664Y-152820878D01*
X150909514Y-152845303D01*
G37*
G36*
X150909514Y-151078637D02*
G01*
X150931374Y-151100497D01*
X150955800Y-151149348D01*
X150955800Y-151354212D01*
X150689133Y-151354212D01*
X150689133Y-151149348D01*
X150713558Y-151100496D01*
X150735418Y-151078637D01*
X150784269Y-151054212D01*
X150860664Y-151054212D01*
X150909514Y-151078637D01*
G37*
G36*
X151155014Y-148451387D02*
G01*
X151209514Y-148478637D01*
X151262099Y-148531222D01*
X151289133Y-148612324D01*
X151289133Y-148720879D01*
X150689133Y-148720879D01*
X150689133Y-148612324D01*
X150716167Y-148531221D01*
X150768750Y-148478638D01*
X150823251Y-148451387D01*
X150945287Y-148420879D01*
X151032978Y-148420879D01*
X151155014Y-148451387D01*
G37*
G36*
X151089133Y-148034841D02*
G01*
X150797245Y-147937545D01*
X151089133Y-147840249D01*
X151089133Y-148034841D01*
G37*
G36*
X151466911Y-155998655D02*
G01*
X150511355Y-155998655D01*
X150511355Y-155537544D01*
X150589133Y-155537544D01*
X150589133Y-155637544D01*
X150590696Y-155645406D01*
X150591699Y-155653355D01*
X150625032Y-155753355D01*
X150626272Y-155755530D01*
X150626272Y-155756678D01*
X150630722Y-155763338D01*
X150634693Y-155770304D01*
X150635720Y-155770817D01*
X150637111Y-155772899D01*
X150703777Y-155839566D01*
X150710451Y-155844025D01*
X150716773Y-155848932D01*
X150783440Y-155882266D01*
X150788723Y-155883712D01*
X150793673Y-155886051D01*
X150927006Y-155919384D01*
X150933123Y-155919681D01*
X150939133Y-155920877D01*
X151039133Y-155920877D01*
X151045142Y-155919681D01*
X151051260Y-155919384D01*
X151184592Y-155886051D01*
X151189544Y-155883711D01*
X151194826Y-155882265D01*
X151261494Y-155848932D01*
X151267828Y-155844016D01*
X151274488Y-155839566D01*
X151341155Y-155772900D01*
X151342546Y-155770817D01*
X151343573Y-155770304D01*
X151347539Y-155763345D01*
X151351994Y-155756679D01*
X151351994Y-155755530D01*
X151353234Y-155753355D01*
X151386567Y-155653355D01*
X151387569Y-155645406D01*
X151389133Y-155637544D01*
X151389133Y-155570877D01*
X151387569Y-155563014D01*
X151386567Y-155555066D01*
X151353234Y-155455066D01*
X151351994Y-155452890D01*
X151351994Y-155451742D01*
X151347539Y-155445075D01*
X151343573Y-155438117D01*
X151342546Y-155437603D01*
X151341155Y-155435521D01*
X151307821Y-155402188D01*
X151291600Y-155391350D01*
X151272466Y-155387544D01*
X151039133Y-155387544D01*
X151019999Y-155391350D01*
X150992939Y-155418410D01*
X150989133Y-155437544D01*
X150989133Y-155570877D01*
X150992939Y-155590011D01*
X151019999Y-155617071D01*
X151058267Y-155617071D01*
X151085327Y-155590011D01*
X151089133Y-155570877D01*
X151089133Y-155487544D01*
X151251755Y-155487544D01*
X151262099Y-155497887D01*
X151289133Y-155578989D01*
X151289133Y-155629431D01*
X151262098Y-155710534D01*
X151209516Y-155763117D01*
X151155016Y-155790367D01*
X151032978Y-155820877D01*
X150945287Y-155820877D01*
X150823250Y-155790367D01*
X150768752Y-155763119D01*
X150716167Y-155710535D01*
X150689133Y-155629431D01*
X150689133Y-155549346D01*
X150717188Y-155493237D01*
X150722340Y-155474421D01*
X150710238Y-155438116D01*
X150676010Y-155421003D01*
X150639706Y-155433104D01*
X150627745Y-155448516D01*
X150594412Y-155515184D01*
X150593750Y-155517598D01*
X150592939Y-155518410D01*
X150591374Y-155526275D01*
X150589259Y-155534000D01*
X150589621Y-155535087D01*
X150589133Y-155537544D01*
X150511355Y-155537544D01*
X150511355Y-155143850D01*
X150589532Y-155143850D01*
X150592939Y-155149812D01*
X150592939Y-155156678D01*
X150602092Y-155165831D01*
X150608518Y-155177076D01*
X150615144Y-155178883D01*
X150619999Y-155183738D01*
X150639133Y-155187544D01*
X151339133Y-155187544D01*
X151358267Y-155183738D01*
X151385327Y-155156678D01*
X151385327Y-155118410D01*
X151358267Y-155091350D01*
X151339133Y-155087544D01*
X150827411Y-155087544D01*
X151363940Y-154780956D01*
X151378665Y-154768158D01*
X151380471Y-154761533D01*
X151385327Y-154756678D01*
X151385327Y-154743730D01*
X151388734Y-154731238D01*
X151385327Y-154725275D01*
X151385327Y-154718410D01*
X151376173Y-154709256D01*
X151369748Y-154698012D01*
X151363121Y-154696204D01*
X151358267Y-154691350D01*
X151339133Y-154687544D01*
X150639133Y-154687544D01*
X150619999Y-154691350D01*
X150592939Y-154718410D01*
X150592939Y-154756678D01*
X150619999Y-154783738D01*
X150639133Y-154787544D01*
X151150855Y-154787544D01*
X150614326Y-155094132D01*
X150599601Y-155106929D01*
X150597793Y-155113555D01*
X150592939Y-155118410D01*
X150592939Y-155131357D01*
X150589532Y-155143850D01*
X150511355Y-155143850D01*
X150511355Y-154237544D01*
X150589133Y-154237544D01*
X150589133Y-154404211D01*
X150592939Y-154423345D01*
X150619999Y-154450405D01*
X150639133Y-154454211D01*
X151339133Y-154454211D01*
X151358267Y-154450405D01*
X151385327Y-154423345D01*
X151389133Y-154404211D01*
X151389133Y-154237544D01*
X151387569Y-154229681D01*
X151386567Y-154221733D01*
X151353234Y-154121733D01*
X151351994Y-154119557D01*
X151351994Y-154118410D01*
X151347543Y-154111749D01*
X151343573Y-154104784D01*
X151342545Y-154104270D01*
X151341155Y-154102189D01*
X151274488Y-154035522D01*
X151267822Y-154031068D01*
X151261494Y-154026157D01*
X151194827Y-153992823D01*
X151189543Y-153991376D01*
X151184592Y-153989037D01*
X151051260Y-153955704D01*
X151045142Y-153955406D01*
X151039133Y-153954211D01*
X150939133Y-153954211D01*
X150933123Y-153955406D01*
X150927006Y-153955704D01*
X150793673Y-153989037D01*
X150788720Y-153991376D01*
X150783439Y-153992823D01*
X150716772Y-154026157D01*
X150710443Y-154031068D01*
X150703778Y-154035522D01*
X150637111Y-154102188D01*
X150635719Y-154104270D01*
X150634693Y-154104784D01*
X150630726Y-154111742D01*
X150626272Y-154118409D01*
X150626272Y-154119557D01*
X150625032Y-154121733D01*
X150591699Y-154221733D01*
X150590696Y-154229681D01*
X150589133Y-154237544D01*
X150511355Y-154237544D01*
X150511355Y-152904211D01*
X150589133Y-152904211D01*
X150589133Y-153170878D01*
X150592939Y-153190012D01*
X150619999Y-153217072D01*
X150639133Y-153220878D01*
X151339133Y-153220878D01*
X151358267Y-153217072D01*
X151385327Y-153190012D01*
X151385327Y-153151744D01*
X151358267Y-153124684D01*
X151339133Y-153120878D01*
X151055800Y-153120878D01*
X151055800Y-153030244D01*
X151367806Y-152811839D01*
X151381299Y-152797749D01*
X151387949Y-152760063D01*
X151366004Y-152728712D01*
X151328318Y-152722062D01*
X151310460Y-152729916D01*
X151055800Y-152908177D01*
X151055800Y-152904211D01*
X151055311Y-152901754D01*
X151055674Y-152900666D01*
X151053557Y-152892938D01*
X151051994Y-152885077D01*
X151051182Y-152884265D01*
X151050521Y-152881850D01*
X151017187Y-152815184D01*
X151012273Y-152808852D01*
X151007822Y-152802190D01*
X150974489Y-152768856D01*
X150967822Y-152764401D01*
X150961494Y-152759490D01*
X150894826Y-152726157D01*
X150892411Y-152725495D01*
X150891600Y-152724684D01*
X150883734Y-152723119D01*
X150876010Y-152721004D01*
X150874922Y-152721366D01*
X150872466Y-152720878D01*
X150772466Y-152720878D01*
X150770009Y-152721366D01*
X150768922Y-152721004D01*
X150761196Y-152723119D01*
X150753332Y-152724684D01*
X150752520Y-152725495D01*
X150750105Y-152726157D01*
X150683439Y-152759490D01*
X150677110Y-152764401D01*
X150670444Y-152768856D01*
X150637111Y-152802190D01*
X150632660Y-152808849D01*
X150627745Y-152815184D01*
X150594412Y-152881850D01*
X150593750Y-152884265D01*
X150592939Y-152885077D01*
X150591375Y-152892938D01*
X150589259Y-152900666D01*
X150589621Y-152901754D01*
X150589133Y-152904211D01*
X150511355Y-152904211D01*
X150511355Y-152170878D01*
X150589133Y-152170878D01*
X150589133Y-152570878D01*
X150592939Y-152590012D01*
X150619999Y-152617072D01*
X150658267Y-152617072D01*
X150685327Y-152590012D01*
X150689133Y-152570878D01*
X150689133Y-152420878D01*
X151339133Y-152420878D01*
X151358267Y-152417072D01*
X151385327Y-152390012D01*
X151385327Y-152351744D01*
X151358267Y-152324684D01*
X151339133Y-152320878D01*
X150689133Y-152320878D01*
X150689133Y-152170878D01*
X150685327Y-152151744D01*
X150658267Y-152124684D01*
X150619999Y-152124684D01*
X150592939Y-152151744D01*
X150589133Y-152170878D01*
X150511355Y-152170878D01*
X150511355Y-151137545D01*
X150589133Y-151137545D01*
X150589133Y-151404212D01*
X150592939Y-151423346D01*
X150619999Y-151450406D01*
X150639133Y-151454212D01*
X151339133Y-151454212D01*
X151358267Y-151450406D01*
X151385327Y-151423346D01*
X151385327Y-151385078D01*
X151358267Y-151358018D01*
X151339133Y-151354212D01*
X151055800Y-151354212D01*
X151055800Y-151263578D01*
X151367806Y-151045173D01*
X151381299Y-151031083D01*
X151387949Y-150993397D01*
X151366004Y-150962046D01*
X151328318Y-150955396D01*
X151310460Y-150963250D01*
X151055800Y-151141511D01*
X151055800Y-151137545D01*
X151055311Y-151135088D01*
X151055674Y-151134000D01*
X151053557Y-151126272D01*
X151051994Y-151118411D01*
X151051182Y-151117599D01*
X151050521Y-151115184D01*
X151017187Y-151048518D01*
X151012273Y-151042186D01*
X151007822Y-151035524D01*
X150974489Y-151002190D01*
X150967822Y-150997735D01*
X150961494Y-150992824D01*
X150894826Y-150959491D01*
X150892411Y-150958829D01*
X150891600Y-150958018D01*
X150883734Y-150956453D01*
X150876010Y-150954338D01*
X150874922Y-150954700D01*
X150872466Y-150954212D01*
X150772466Y-150954212D01*
X150770009Y-150954700D01*
X150768922Y-150954338D01*
X150761196Y-150956453D01*
X150753332Y-150958018D01*
X150752520Y-150958829D01*
X150750105Y-150959491D01*
X150683439Y-150992824D01*
X150677110Y-150997735D01*
X150670444Y-151002190D01*
X150637111Y-151035524D01*
X150632660Y-151042183D01*
X150627745Y-151048518D01*
X150594412Y-151115184D01*
X150593750Y-151117599D01*
X150592939Y-151118411D01*
X150591375Y-151126272D01*
X150589259Y-151134000D01*
X150589621Y-151135088D01*
X150589133Y-151137545D01*
X150511355Y-151137545D01*
X150511355Y-150285078D01*
X150592939Y-150285078D01*
X150592939Y-150323346D01*
X150619999Y-150350406D01*
X150639133Y-150354212D01*
X150922466Y-150354212D01*
X150922466Y-150654212D01*
X150639133Y-150654212D01*
X150619999Y-150658018D01*
X150592939Y-150685078D01*
X150592939Y-150723346D01*
X150619999Y-150750406D01*
X150639133Y-150754212D01*
X151339133Y-150754212D01*
X151358267Y-150750406D01*
X151385327Y-150723346D01*
X151385327Y-150685078D01*
X151358267Y-150658018D01*
X151339133Y-150654212D01*
X151022466Y-150654212D01*
X151022466Y-150354212D01*
X151339133Y-150354212D01*
X151358267Y-150350406D01*
X151385327Y-150323346D01*
X151385327Y-150285078D01*
X151358267Y-150258018D01*
X151339133Y-150254212D01*
X150639133Y-150254212D01*
X150619999Y-150258018D01*
X150592939Y-150285078D01*
X150511355Y-150285078D01*
X150511355Y-149170879D01*
X150589133Y-149170879D01*
X150589133Y-149337546D01*
X150589621Y-149340002D01*
X150589259Y-149341090D01*
X150591374Y-149348814D01*
X150592939Y-149356680D01*
X150593750Y-149357491D01*
X150594412Y-149359906D01*
X150627745Y-149426574D01*
X150632656Y-149432902D01*
X150637111Y-149439569D01*
X150670445Y-149472902D01*
X150677107Y-149477353D01*
X150683439Y-149482267D01*
X150750105Y-149515600D01*
X150752520Y-149516261D01*
X150753332Y-149517073D01*
X150761196Y-149518637D01*
X150768922Y-149520753D01*
X150770009Y-149520390D01*
X150772466Y-149520879D01*
X150839133Y-149520879D01*
X150841589Y-149520390D01*
X150842677Y-149520753D01*
X150850401Y-149518637D01*
X150858267Y-149517073D01*
X150859078Y-149516261D01*
X150861493Y-149515600D01*
X150928161Y-149482267D01*
X150934495Y-149477351D01*
X150941155Y-149472901D01*
X150974488Y-149439568D01*
X150978942Y-149432901D01*
X150983854Y-149426573D01*
X151017188Y-149359906D01*
X151018634Y-149354623D01*
X151020973Y-149349673D01*
X151052976Y-149221662D01*
X151080226Y-149167162D01*
X151102083Y-149145305D01*
X151150936Y-149120879D01*
X151193997Y-149120879D01*
X151242847Y-149145304D01*
X151264708Y-149167166D01*
X151289133Y-149216015D01*
X151289133Y-149362766D01*
X151258366Y-149455068D01*
X151255926Y-149474423D01*
X151273040Y-149508652D01*
X151309344Y-149520753D01*
X151343573Y-149503639D01*
X151353234Y-149486690D01*
X151386567Y-149386690D01*
X151387569Y-149378741D01*
X151389133Y-149370879D01*
X151389133Y-149204213D01*
X151388644Y-149201756D01*
X151389007Y-149200669D01*
X151386890Y-149192939D01*
X151385327Y-149185079D01*
X151384516Y-149184268D01*
X151383855Y-149181853D01*
X151350521Y-149115186D01*
X151345614Y-149108864D01*
X151341155Y-149102190D01*
X151307821Y-149068857D01*
X151301155Y-149064403D01*
X151294827Y-149059492D01*
X151228161Y-149026158D01*
X151225745Y-149025496D01*
X151224934Y-149024685D01*
X151217072Y-149023121D01*
X151209345Y-149021005D01*
X151208256Y-149021367D01*
X151205800Y-149020879D01*
X151139133Y-149020879D01*
X151136676Y-149021367D01*
X151135588Y-149021005D01*
X151127860Y-149023121D01*
X151119999Y-149024685D01*
X151119187Y-149025496D01*
X151116772Y-149026158D01*
X151050105Y-149059492D01*
X151043770Y-149064407D01*
X151037111Y-149068858D01*
X151003778Y-149102191D01*
X150999327Y-149108850D01*
X150994412Y-149115185D01*
X150961079Y-149181853D01*
X150959633Y-149187131D01*
X150957293Y-149192086D01*
X150925289Y-149320095D01*
X150898040Y-149374595D01*
X150876183Y-149396452D01*
X150827331Y-149420879D01*
X150784269Y-149420879D01*
X150735418Y-149396453D01*
X150713558Y-149374594D01*
X150689133Y-149325743D01*
X150689133Y-149178991D01*
X150719900Y-149086690D01*
X150722340Y-149067335D01*
X150705226Y-149033106D01*
X150668922Y-149021005D01*
X150634693Y-149038119D01*
X150625032Y-149055068D01*
X150591699Y-149155068D01*
X150590696Y-149163016D01*
X150589133Y-149170879D01*
X150511355Y-149170879D01*
X150511355Y-148604212D01*
X150589133Y-148604212D01*
X150589133Y-148770879D01*
X150592939Y-148790013D01*
X150619999Y-148817073D01*
X150639133Y-148820879D01*
X151339133Y-148820879D01*
X151358267Y-148817073D01*
X151385327Y-148790013D01*
X151389133Y-148770879D01*
X151389133Y-148604212D01*
X151387569Y-148596349D01*
X151386567Y-148588401D01*
X151353234Y-148488401D01*
X151351994Y-148486225D01*
X151351994Y-148485078D01*
X151347543Y-148478417D01*
X151343573Y-148471452D01*
X151342545Y-148470938D01*
X151341155Y-148468857D01*
X151274488Y-148402190D01*
X151267822Y-148397736D01*
X151261494Y-148392825D01*
X151194827Y-148359491D01*
X151189543Y-148358044D01*
X151184592Y-148355705D01*
X151051260Y-148322372D01*
X151045142Y-148322074D01*
X151039133Y-148320879D01*
X150939133Y-148320879D01*
X150933123Y-148322074D01*
X150927006Y-148322372D01*
X150793673Y-148355705D01*
X150788720Y-148358044D01*
X150783439Y-148359491D01*
X150716772Y-148392825D01*
X150710443Y-148397736D01*
X150703778Y-148402190D01*
X150637111Y-148468856D01*
X150635719Y-148470938D01*
X150634693Y-148471452D01*
X150630726Y-148478410D01*
X150626272Y-148485077D01*
X150626272Y-148486225D01*
X150625032Y-148488401D01*
X150591699Y-148588401D01*
X150590696Y-148596349D01*
X150589133Y-148604212D01*
X150511355Y-148604212D01*
X150511355Y-147934002D01*
X150589259Y-147934002D01*
X150590440Y-147937546D01*
X150589259Y-147941090D01*
X150596346Y-147955266D01*
X150601360Y-147970306D01*
X150604702Y-147971976D01*
X150606373Y-147975319D01*
X150623322Y-147984980D01*
X151323322Y-148218313D01*
X151342678Y-148220753D01*
X151376906Y-148203639D01*
X151389007Y-148167335D01*
X151371893Y-148133106D01*
X151354945Y-148123445D01*
X151189133Y-148068174D01*
X151189133Y-147806916D01*
X151354944Y-147751646D01*
X151371893Y-147741985D01*
X151389007Y-147707756D01*
X151376906Y-147671452D01*
X151342677Y-147654338D01*
X151323322Y-147656778D01*
X150623322Y-147890112D01*
X150606373Y-147899773D01*
X150604702Y-147903115D01*
X150601360Y-147904786D01*
X150596346Y-147919825D01*
X150589259Y-147934002D01*
X150511355Y-147934002D01*
X150511355Y-146670879D01*
X150589133Y-146670879D01*
X150589133Y-146837546D01*
X150589621Y-146840002D01*
X150589259Y-146841090D01*
X150591374Y-146848814D01*
X150592939Y-146856680D01*
X150593750Y-146857491D01*
X150594412Y-146859906D01*
X150627745Y-146926574D01*
X150632656Y-146932902D01*
X150637111Y-146939569D01*
X150670445Y-146972902D01*
X150677107Y-146977353D01*
X150683439Y-146982267D01*
X150750105Y-147015600D01*
X150752520Y-147016261D01*
X150753332Y-147017073D01*
X150761196Y-147018637D01*
X150768922Y-147020753D01*
X150770009Y-147020390D01*
X150772466Y-147020879D01*
X150839133Y-147020879D01*
X150841589Y-147020390D01*
X150842677Y-147020753D01*
X150850401Y-147018637D01*
X150858267Y-147017073D01*
X150859078Y-147016261D01*
X150861493Y-147015600D01*
X150928161Y-146982267D01*
X150934495Y-146977351D01*
X150941155Y-146972901D01*
X150974488Y-146939568D01*
X150978942Y-146932901D01*
X150983854Y-146926573D01*
X151017188Y-146859906D01*
X151018634Y-146854623D01*
X151020973Y-146849673D01*
X151052976Y-146721662D01*
X151080226Y-146667162D01*
X151102083Y-146645305D01*
X151150936Y-146620879D01*
X151193997Y-146620879D01*
X151242847Y-146645304D01*
X151264708Y-146667166D01*
X151289133Y-146716015D01*
X151289133Y-146862766D01*
X151258366Y-146955068D01*
X151255926Y-146974423D01*
X151273040Y-147008652D01*
X151309344Y-147020753D01*
X151343573Y-147003639D01*
X151353234Y-146986690D01*
X151386567Y-146886690D01*
X151387569Y-146878741D01*
X151389133Y-146870879D01*
X151389133Y-146704213D01*
X151388644Y-146701756D01*
X151389007Y-146700669D01*
X151386890Y-146692939D01*
X151385327Y-146685079D01*
X151384516Y-146684268D01*
X151383855Y-146681853D01*
X151350521Y-146615186D01*
X151345614Y-146608864D01*
X151341155Y-146602190D01*
X151307821Y-146568857D01*
X151301155Y-146564403D01*
X151294827Y-146559492D01*
X151228161Y-146526158D01*
X151225745Y-146525496D01*
X151224934Y-146524685D01*
X151217072Y-146523121D01*
X151209345Y-146521005D01*
X151208256Y-146521367D01*
X151205800Y-146520879D01*
X151139133Y-146520879D01*
X151136676Y-146521367D01*
X151135588Y-146521005D01*
X151127860Y-146523121D01*
X151119999Y-146524685D01*
X151119187Y-146525496D01*
X151116772Y-146526158D01*
X151050105Y-146559492D01*
X151043770Y-146564407D01*
X151037111Y-146568858D01*
X151003778Y-146602191D01*
X150999327Y-146608850D01*
X150994412Y-146615185D01*
X150961079Y-146681853D01*
X150959633Y-146687131D01*
X150957293Y-146692086D01*
X150925289Y-146820095D01*
X150898040Y-146874595D01*
X150876183Y-146896452D01*
X150827331Y-146920879D01*
X150784269Y-146920879D01*
X150735418Y-146896453D01*
X150713558Y-146874594D01*
X150689133Y-146825743D01*
X150689133Y-146678991D01*
X150719900Y-146586690D01*
X150722340Y-146567335D01*
X150705226Y-146533106D01*
X150668922Y-146521005D01*
X150634693Y-146538119D01*
X150625032Y-146555068D01*
X150591699Y-146655068D01*
X150590696Y-146663016D01*
X150589133Y-146670879D01*
X150511355Y-146670879D01*
X150511355Y-146004212D01*
X150589133Y-146004212D01*
X150589133Y-146070879D01*
X150590696Y-146078741D01*
X150591699Y-146086690D01*
X150625032Y-146186690D01*
X150626272Y-146188865D01*
X150626272Y-146190013D01*
X150630722Y-146196673D01*
X150634693Y-146203639D01*
X150635720Y-146204152D01*
X150637111Y-146206234D01*
X150703777Y-146272901D01*
X150710451Y-146277360D01*
X150716773Y-146282267D01*
X150783440Y-146315601D01*
X150788723Y-146317047D01*
X150793673Y-146319386D01*
X150927006Y-146352719D01*
X150933123Y-146353016D01*
X150939133Y-146354212D01*
X151039133Y-146354212D01*
X151045142Y-146353016D01*
X151051260Y-146352719D01*
X151184592Y-146319386D01*
X151189544Y-146317046D01*
X151194826Y-146315600D01*
X151261494Y-146282267D01*
X151267828Y-146277351D01*
X151274488Y-146272901D01*
X151341155Y-146206235D01*
X151342546Y-146204152D01*
X151343573Y-146203639D01*
X151347539Y-146196680D01*
X151351994Y-146190014D01*
X151351994Y-146188865D01*
X151353234Y-146186690D01*
X151386567Y-146086690D01*
X151387569Y-146078741D01*
X151389133Y-146070879D01*
X151389133Y-146004212D01*
X151387569Y-145996349D01*
X151386567Y-145988401D01*
X151353234Y-145888401D01*
X151351994Y-145886225D01*
X151351994Y-145885077D01*
X151347539Y-145878410D01*
X151343573Y-145871452D01*
X151342546Y-145870938D01*
X151341155Y-145868856D01*
X151307821Y-145835523D01*
X151291600Y-145824685D01*
X151253331Y-145824685D01*
X151226272Y-145851745D01*
X151226272Y-145890014D01*
X151237111Y-145906235D01*
X151262099Y-145931222D01*
X151289133Y-146012324D01*
X151289133Y-146062766D01*
X151262098Y-146143869D01*
X151209516Y-146196452D01*
X151155016Y-146223702D01*
X151032978Y-146254212D01*
X150945287Y-146254212D01*
X150823250Y-146223702D01*
X150768752Y-146196454D01*
X150716167Y-146143870D01*
X150689133Y-146062766D01*
X150689133Y-146012324D01*
X150716166Y-145931222D01*
X150741155Y-145906235D01*
X150751994Y-145890014D01*
X150751994Y-145851745D01*
X150724935Y-145824685D01*
X150686667Y-145824685D01*
X150670445Y-145835523D01*
X150637111Y-145868856D01*
X150635719Y-145870938D01*
X150634693Y-145871452D01*
X150630726Y-145878410D01*
X150626272Y-145885077D01*
X150626272Y-145886225D01*
X150625032Y-145888401D01*
X150591699Y-145988401D01*
X150590696Y-145996349D01*
X150589133Y-146004212D01*
X150511355Y-146004212D01*
X150511355Y-145551745D01*
X150592939Y-145551745D01*
X150592939Y-145590013D01*
X150619999Y-145617073D01*
X150639133Y-145620879D01*
X151339133Y-145620879D01*
X151358267Y-145617073D01*
X151385327Y-145590013D01*
X151389133Y-145570879D01*
X151389133Y-145237546D01*
X151385327Y-145218412D01*
X151358267Y-145191352D01*
X151319999Y-145191352D01*
X151292939Y-145218412D01*
X151289133Y-145237546D01*
X151289133Y-145520879D01*
X150639133Y-145520879D01*
X150619999Y-145524685D01*
X150592939Y-145551745D01*
X150511355Y-145551745D01*
X150511355Y-145113574D01*
X151466911Y-145113574D01*
X151466911Y-155998655D01*
G37*
G36*
X128545304Y-134914269D02*
G01*
X128596441Y-134965407D01*
X128620866Y-135014257D01*
X128620866Y-135123985D01*
X128596441Y-135172835D01*
X128545303Y-135223973D01*
X128431378Y-135252455D01*
X128210355Y-135252455D01*
X128096427Y-135223972D01*
X128045292Y-135172837D01*
X128020866Y-135123984D01*
X128020866Y-135014258D01*
X128045291Y-134965406D01*
X128096429Y-134914268D01*
X128210354Y-134885788D01*
X128431378Y-134885788D01*
X128545304Y-134914269D01*
G37*
G36*
X128620866Y-133261009D02*
G01*
X128593831Y-133342112D01*
X128541248Y-133394696D01*
X128486749Y-133421945D01*
X128364711Y-133452455D01*
X128277020Y-133452455D01*
X128154983Y-133421945D01*
X128100485Y-133394697D01*
X128047901Y-133342112D01*
X128020866Y-133261007D01*
X128020866Y-133152455D01*
X128620866Y-133152455D01*
X128620866Y-133261009D01*
G37*
G36*
X128798644Y-137563565D02*
G01*
X127843088Y-137563565D01*
X127843088Y-137016653D01*
X127924672Y-137016653D01*
X127924672Y-137054921D01*
X127951732Y-137081981D01*
X127970866Y-137085787D01*
X128287533Y-137085787D01*
X128287533Y-137385787D01*
X127970866Y-137385787D01*
X127951732Y-137389593D01*
X127924672Y-137416653D01*
X127924672Y-137454921D01*
X127951732Y-137481981D01*
X127970866Y-137485787D01*
X128670866Y-137485787D01*
X128690000Y-137481981D01*
X128717060Y-137454921D01*
X128717060Y-137416653D01*
X128690000Y-137389593D01*
X128670866Y-137385787D01*
X128387533Y-137385787D01*
X128387533Y-137085787D01*
X128670866Y-137085787D01*
X128690000Y-137081981D01*
X128717060Y-137054921D01*
X128717060Y-137016653D01*
X128690000Y-136989593D01*
X128670866Y-136985787D01*
X127970866Y-136985787D01*
X127951732Y-136989593D01*
X127924672Y-137016653D01*
X127843088Y-137016653D01*
X127843088Y-136535787D01*
X127920866Y-136535787D01*
X127920866Y-136602454D01*
X127922429Y-136610315D01*
X127923432Y-136618266D01*
X127956766Y-136718265D01*
X127958006Y-136720440D01*
X127958006Y-136721588D01*
X127962456Y-136728248D01*
X127966427Y-136735214D01*
X127967454Y-136735727D01*
X127968845Y-136737809D01*
X128002178Y-136771142D01*
X128018399Y-136781981D01*
X128056667Y-136781981D01*
X128083727Y-136754921D01*
X128083727Y-136716653D01*
X128072888Y-136700432D01*
X128047901Y-136675445D01*
X128020866Y-136594339D01*
X128020866Y-136543901D01*
X128047901Y-136462795D01*
X128100483Y-136410213D01*
X128154984Y-136382962D01*
X128277020Y-136352454D01*
X128364711Y-136352454D01*
X128486748Y-136382962D01*
X128541246Y-136410212D01*
X128593832Y-136462797D01*
X128620866Y-136543899D01*
X128620866Y-136594341D01*
X128593831Y-136675445D01*
X128568845Y-136700432D01*
X128558006Y-136716653D01*
X128558006Y-136754921D01*
X128585066Y-136781981D01*
X128623334Y-136781981D01*
X128639555Y-136771142D01*
X128672888Y-136737809D01*
X128674278Y-136735727D01*
X128675306Y-136735214D01*
X128679276Y-136728248D01*
X128683727Y-136721588D01*
X128683727Y-136720440D01*
X128684967Y-136718265D01*
X128718300Y-136618265D01*
X128719302Y-136610316D01*
X128720866Y-136602454D01*
X128720866Y-136535787D01*
X128719302Y-136527924D01*
X128718300Y-136519976D01*
X128684967Y-136419976D01*
X128683727Y-136417800D01*
X128683727Y-136416653D01*
X128679276Y-136409992D01*
X128675306Y-136403027D01*
X128674278Y-136402513D01*
X128672888Y-136400432D01*
X128606221Y-136333765D01*
X128599555Y-136329311D01*
X128593227Y-136324400D01*
X128526561Y-136291066D01*
X128521277Y-136289619D01*
X128516326Y-136287280D01*
X128382993Y-136253947D01*
X128376875Y-136253649D01*
X128370866Y-136252454D01*
X128270866Y-136252454D01*
X128264856Y-136253649D01*
X128258739Y-136253947D01*
X128125406Y-136287280D01*
X128120453Y-136289619D01*
X128115172Y-136291066D01*
X128048505Y-136324400D01*
X128042170Y-136329315D01*
X128035511Y-136333766D01*
X127968845Y-136400432D01*
X127967454Y-136402513D01*
X127966427Y-136403027D01*
X127962456Y-136409992D01*
X127958006Y-136416653D01*
X127958006Y-136417800D01*
X127956766Y-136419976D01*
X127923432Y-136519975D01*
X127922429Y-136527925D01*
X127920866Y-136535787D01*
X127843088Y-136535787D01*
X127843088Y-135735788D01*
X127920866Y-135735788D01*
X127920866Y-135869121D01*
X127921354Y-135871577D01*
X127920992Y-135872666D01*
X127923108Y-135880393D01*
X127924672Y-135888255D01*
X127925483Y-135889066D01*
X127926145Y-135891482D01*
X127959479Y-135958149D01*
X127964394Y-135964483D01*
X127968845Y-135971143D01*
X128002178Y-136004476D01*
X128008844Y-136008930D01*
X128015173Y-136013842D01*
X128081840Y-136047176D01*
X128084255Y-136047837D01*
X128085066Y-136048648D01*
X128092926Y-136050211D01*
X128100656Y-136052328D01*
X128101743Y-136051965D01*
X128104200Y-136052454D01*
X128670866Y-136052454D01*
X128690000Y-136048648D01*
X128717060Y-136021588D01*
X128717060Y-135983320D01*
X128690000Y-135956260D01*
X128670866Y-135952454D01*
X128116003Y-135952454D01*
X128067150Y-135928028D01*
X128045292Y-135906170D01*
X128020866Y-135857317D01*
X128020866Y-135747591D01*
X128045292Y-135698738D01*
X128067150Y-135676880D01*
X128116003Y-135652454D01*
X128670866Y-135652454D01*
X128690000Y-135648648D01*
X128717060Y-135621588D01*
X128717060Y-135583320D01*
X128690000Y-135556260D01*
X128670866Y-135552454D01*
X128104200Y-135552454D01*
X128101743Y-135552942D01*
X128100655Y-135552580D01*
X128092927Y-135554696D01*
X128085066Y-135556260D01*
X128084254Y-135557071D01*
X128081839Y-135557733D01*
X128015172Y-135591067D01*
X128008837Y-135595982D01*
X128002178Y-135600433D01*
X127968845Y-135633766D01*
X127964394Y-135640425D01*
X127959479Y-135646760D01*
X127926145Y-135713427D01*
X127925483Y-135715842D01*
X127924672Y-135716654D01*
X127923108Y-135724515D01*
X127920992Y-135732243D01*
X127921354Y-135733331D01*
X127920866Y-135735788D01*
X127843088Y-135735788D01*
X127843088Y-135002455D01*
X127920866Y-135002455D01*
X127920866Y-135135788D01*
X127921354Y-135138244D01*
X127920992Y-135139333D01*
X127923108Y-135147060D01*
X127924672Y-135154922D01*
X127925483Y-135155733D01*
X127926145Y-135158149D01*
X127959479Y-135224816D01*
X127964394Y-135231150D01*
X127968845Y-135237810D01*
X128035511Y-135304476D01*
X128040012Y-135307483D01*
X128041099Y-135309295D01*
X128046640Y-135311912D01*
X128051732Y-135315315D01*
X128053843Y-135315315D01*
X128058739Y-135317628D01*
X128192073Y-135350962D01*
X128198192Y-135351260D01*
X128204200Y-135352455D01*
X128437533Y-135352455D01*
X128443542Y-135351259D01*
X128449660Y-135350962D01*
X128582993Y-135317628D01*
X128587889Y-135315315D01*
X128590000Y-135315315D01*
X128595093Y-135311911D01*
X128600633Y-135309295D01*
X128601719Y-135307484D01*
X128606221Y-135304477D01*
X128672888Y-135237810D01*
X128677342Y-135231143D01*
X128682254Y-135224815D01*
X128715588Y-135158148D01*
X128716249Y-135155732D01*
X128717060Y-135154922D01*
X128718623Y-135147061D01*
X128720740Y-135139332D01*
X128720377Y-135138244D01*
X128720866Y-135135788D01*
X128720866Y-135002455D01*
X128720377Y-134999998D01*
X128720740Y-134998911D01*
X128718623Y-134991181D01*
X128717060Y-134983321D01*
X128716249Y-134982510D01*
X128715588Y-134980095D01*
X128682254Y-134913428D01*
X128677347Y-134907106D01*
X128672888Y-134900432D01*
X128606221Y-134833766D01*
X128601718Y-134830757D01*
X128600632Y-134828947D01*
X128595094Y-134826330D01*
X128590000Y-134822927D01*
X128587888Y-134822927D01*
X128582992Y-134820614D01*
X128449660Y-134787281D01*
X128443542Y-134786983D01*
X128437533Y-134785788D01*
X128204200Y-134785788D01*
X128198190Y-134786983D01*
X128192073Y-134787281D01*
X128058739Y-134820614D01*
X128053843Y-134822927D01*
X128051732Y-134822927D01*
X128046638Y-134826330D01*
X128041100Y-134828947D01*
X128040013Y-134830757D01*
X128035511Y-134833766D01*
X127968844Y-134900433D01*
X127964390Y-134907098D01*
X127959479Y-134913427D01*
X127926145Y-134980094D01*
X127925483Y-134982509D01*
X127924672Y-134983321D01*
X127923108Y-134991182D01*
X127920992Y-134998910D01*
X127921354Y-134999998D01*
X127920866Y-135002455D01*
X127843088Y-135002455D01*
X127843088Y-134416654D01*
X127924672Y-134416654D01*
X127924672Y-134454922D01*
X127951732Y-134481982D01*
X127970866Y-134485788D01*
X128620866Y-134485788D01*
X128620866Y-134635788D01*
X128624672Y-134654922D01*
X128651732Y-134681982D01*
X128690000Y-134681982D01*
X128717060Y-134654922D01*
X128720866Y-134635788D01*
X128720866Y-134235788D01*
X128717060Y-134216654D01*
X128690000Y-134189594D01*
X128651732Y-134189594D01*
X128624672Y-134216654D01*
X128620866Y-134235788D01*
X128620866Y-134385788D01*
X127970866Y-134385788D01*
X127951732Y-134389594D01*
X127924672Y-134416654D01*
X127843088Y-134416654D01*
X127843088Y-133102455D01*
X127920866Y-133102455D01*
X127920866Y-133269122D01*
X127922429Y-133276983D01*
X127923432Y-133284934D01*
X127956766Y-133384933D01*
X127958006Y-133387108D01*
X127958006Y-133388256D01*
X127962459Y-133394921D01*
X127966427Y-133401882D01*
X127967452Y-133402394D01*
X127968844Y-133404477D01*
X128035511Y-133471144D01*
X128042177Y-133475598D01*
X128048506Y-133480510D01*
X128115173Y-133513844D01*
X128120456Y-133515290D01*
X128125406Y-133517629D01*
X128258739Y-133550962D01*
X128264856Y-133551259D01*
X128270866Y-133552455D01*
X128370866Y-133552455D01*
X128376875Y-133551259D01*
X128382993Y-133550962D01*
X128516326Y-133517629D01*
X128521277Y-133515289D01*
X128526561Y-133513843D01*
X128593227Y-133480510D01*
X128599561Y-133475594D01*
X128606221Y-133471144D01*
X128672888Y-133404478D01*
X128674279Y-133402395D01*
X128675306Y-133401882D01*
X128679272Y-133394923D01*
X128683727Y-133388257D01*
X128683727Y-133387108D01*
X128684967Y-133384933D01*
X128718300Y-133284933D01*
X128719302Y-133276984D01*
X128720866Y-133269122D01*
X128720866Y-133102455D01*
X128717060Y-133083321D01*
X128690000Y-133056261D01*
X128670866Y-133052455D01*
X127970866Y-133052455D01*
X127951732Y-133056261D01*
X127924672Y-133083321D01*
X127920866Y-133102455D01*
X127843088Y-133102455D01*
X127843088Y-132469122D01*
X127920866Y-132469122D01*
X127920866Y-132802456D01*
X127924672Y-132821590D01*
X127951732Y-132848650D01*
X127990000Y-132848650D01*
X128017060Y-132821590D01*
X128020866Y-132802456D01*
X128020866Y-132519122D01*
X128287533Y-132519122D01*
X128287533Y-132702456D01*
X128291339Y-132721590D01*
X128318399Y-132748650D01*
X128356667Y-132748650D01*
X128383727Y-132721590D01*
X128387533Y-132702456D01*
X128387533Y-132519122D01*
X128620866Y-132519122D01*
X128620866Y-132802456D01*
X128624672Y-132821590D01*
X128651732Y-132848650D01*
X128690000Y-132848650D01*
X128717060Y-132821590D01*
X128720866Y-132802456D01*
X128720866Y-132469122D01*
X128717060Y-132449988D01*
X128690000Y-132422928D01*
X128670866Y-132419122D01*
X127970866Y-132419122D01*
X127951732Y-132422928D01*
X127924672Y-132449988D01*
X127920866Y-132469122D01*
X127843088Y-132469122D01*
X127843088Y-131902455D01*
X127920866Y-131902455D01*
X127920866Y-132235789D01*
X127924672Y-132254923D01*
X127951732Y-132281983D01*
X127990000Y-132281983D01*
X128017060Y-132254923D01*
X128020866Y-132235789D01*
X128020866Y-131952455D01*
X128670866Y-131952455D01*
X128690000Y-131948649D01*
X128717060Y-131921589D01*
X128717060Y-131883321D01*
X128690000Y-131856261D01*
X128670866Y-131852455D01*
X127970866Y-131852455D01*
X127951732Y-131856261D01*
X127924672Y-131883321D01*
X127920866Y-131902455D01*
X127843088Y-131902455D01*
X127843088Y-131774677D01*
X128798644Y-131774677D01*
X128798644Y-137563565D01*
G37*
X120316667Y-152488704D02*
X120278571Y-152526800D01*
X120278571Y-152526800D02*
X120164286Y-152564895D01*
X120164286Y-152564895D02*
X120088095Y-152564895D01*
X120088095Y-152564895D02*
X119973809Y-152526800D01*
X119973809Y-152526800D02*
X119897619Y-152450609D01*
X119897619Y-152450609D02*
X119859524Y-152374419D01*
X119859524Y-152374419D02*
X119821428Y-152222038D01*
X119821428Y-152222038D02*
X119821428Y-152107752D01*
X119821428Y-152107752D02*
X119859524Y-151955371D01*
X119859524Y-151955371D02*
X119897619Y-151879180D01*
X119897619Y-151879180D02*
X119973809Y-151802990D01*
X119973809Y-151802990D02*
X120088095Y-151764895D01*
X120088095Y-151764895D02*
X120164286Y-151764895D01*
X120164286Y-151764895D02*
X120278571Y-151802990D01*
X120278571Y-151802990D02*
X120316667Y-151841085D01*
X121078571Y-152564895D02*
X120621428Y-152564895D01*
X120850000Y-152564895D02*
X120850000Y-151764895D01*
X120850000Y-151764895D02*
X120773809Y-151879180D01*
X120773809Y-151879180D02*
X120697619Y-151955371D01*
X120697619Y-151955371D02*
X120621428Y-151993466D01*
X112965714Y-144834895D02*
X112699047Y-144453942D01*
X112508571Y-144834895D02*
X112508571Y-144034895D01*
X112508571Y-144034895D02*
X112813333Y-144034895D01*
X112813333Y-144034895D02*
X112889523Y-144072990D01*
X112889523Y-144072990D02*
X112927618Y-144111085D01*
X112927618Y-144111085D02*
X112965714Y-144187276D01*
X112965714Y-144187276D02*
X112965714Y-144301561D01*
X112965714Y-144301561D02*
X112927618Y-144377752D01*
X112927618Y-144377752D02*
X112889523Y-144415847D01*
X112889523Y-144415847D02*
X112813333Y-144453942D01*
X112813333Y-144453942D02*
X112508571Y-144453942D01*
X113727618Y-144834895D02*
X113270475Y-144834895D01*
X113499047Y-144834895D02*
X113499047Y-144034895D01*
X113499047Y-144034895D02*
X113422856Y-144149180D01*
X113422856Y-144149180D02*
X113346666Y-144225371D01*
X113346666Y-144225371D02*
X113270475Y-144263466D01*
X114489523Y-144834895D02*
X114032380Y-144834895D01*
X114260952Y-144834895D02*
X114260952Y-144034895D01*
X114260952Y-144034895D02*
X114184761Y-144149180D01*
X114184761Y-144149180D02*
X114108571Y-144225371D01*
X114108571Y-144225371D02*
X114032380Y-144263466D01*
X150705714Y-143744895D02*
X150439047Y-143363942D01*
X150248571Y-143744895D02*
X150248571Y-142944895D01*
X150248571Y-142944895D02*
X150553333Y-142944895D01*
X150553333Y-142944895D02*
X150629523Y-142982990D01*
X150629523Y-142982990D02*
X150667618Y-143021085D01*
X150667618Y-143021085D02*
X150705714Y-143097276D01*
X150705714Y-143097276D02*
X150705714Y-143211561D01*
X150705714Y-143211561D02*
X150667618Y-143287752D01*
X150667618Y-143287752D02*
X150629523Y-143325847D01*
X150629523Y-143325847D02*
X150553333Y-143363942D01*
X150553333Y-143363942D02*
X150248571Y-143363942D01*
X151391428Y-143211561D02*
X151391428Y-143744895D01*
X151200952Y-142906800D02*
X151010475Y-143478228D01*
X151010475Y-143478228D02*
X151505714Y-143478228D01*
X151962857Y-142944895D02*
X152039047Y-142944895D01*
X152039047Y-142944895D02*
X152115238Y-142982990D01*
X152115238Y-142982990D02*
X152153333Y-143021085D01*
X152153333Y-143021085D02*
X152191428Y-143097276D01*
X152191428Y-143097276D02*
X152229523Y-143249657D01*
X152229523Y-143249657D02*
X152229523Y-143440133D01*
X152229523Y-143440133D02*
X152191428Y-143592514D01*
X152191428Y-143592514D02*
X152153333Y-143668704D01*
X152153333Y-143668704D02*
X152115238Y-143706800D01*
X152115238Y-143706800D02*
X152039047Y-143744895D01*
X152039047Y-143744895D02*
X151962857Y-143744895D01*
X151962857Y-143744895D02*
X151886666Y-143706800D01*
X151886666Y-143706800D02*
X151848571Y-143668704D01*
X151848571Y-143668704D02*
X151810476Y-143592514D01*
X151810476Y-143592514D02*
X151772380Y-143440133D01*
X151772380Y-143440133D02*
X151772380Y-143249657D01*
X151772380Y-143249657D02*
X151810476Y-143097276D01*
X151810476Y-143097276D02*
X151848571Y-143021085D01*
X151848571Y-143021085D02*
X151886666Y-142982990D01*
X151886666Y-142982990D02*
X151962857Y-142944895D01*
X154315714Y-132418704D02*
X154277618Y-132456800D01*
X154277618Y-132456800D02*
X154163333Y-132494895D01*
X154163333Y-132494895D02*
X154087142Y-132494895D01*
X154087142Y-132494895D02*
X153972856Y-132456800D01*
X153972856Y-132456800D02*
X153896666Y-132380609D01*
X153896666Y-132380609D02*
X153858571Y-132304419D01*
X153858571Y-132304419D02*
X153820475Y-132152038D01*
X153820475Y-132152038D02*
X153820475Y-132037752D01*
X153820475Y-132037752D02*
X153858571Y-131885371D01*
X153858571Y-131885371D02*
X153896666Y-131809180D01*
X153896666Y-131809180D02*
X153972856Y-131732990D01*
X153972856Y-131732990D02*
X154087142Y-131694895D01*
X154087142Y-131694895D02*
X154163333Y-131694895D01*
X154163333Y-131694895D02*
X154277618Y-131732990D01*
X154277618Y-131732990D02*
X154315714Y-131771085D01*
X154620475Y-131771085D02*
X154658571Y-131732990D01*
X154658571Y-131732990D02*
X154734761Y-131694895D01*
X154734761Y-131694895D02*
X154925237Y-131694895D01*
X154925237Y-131694895D02*
X155001428Y-131732990D01*
X155001428Y-131732990D02*
X155039523Y-131771085D01*
X155039523Y-131771085D02*
X155077618Y-131847276D01*
X155077618Y-131847276D02*
X155077618Y-131923466D01*
X155077618Y-131923466D02*
X155039523Y-132037752D01*
X155039523Y-132037752D02*
X154582380Y-132494895D01*
X154582380Y-132494895D02*
X155077618Y-132494895D01*
X155839523Y-132494895D02*
X155382380Y-132494895D01*
X155610952Y-132494895D02*
X155610952Y-131694895D01*
X155610952Y-131694895D02*
X155534761Y-131809180D01*
X155534761Y-131809180D02*
X155458571Y-131885371D01*
X155458571Y-131885371D02*
X155382380Y-131923466D01*
X116401666Y-132209895D02*
X116020714Y-132209895D01*
X116020714Y-132209895D02*
X116020714Y-131409895D01*
X117087380Y-132209895D02*
X116630237Y-132209895D01*
X116858809Y-132209895D02*
X116858809Y-131409895D01*
X116858809Y-131409895D02*
X116782618Y-131524180D01*
X116782618Y-131524180D02*
X116706428Y-131600371D01*
X116706428Y-131600371D02*
X116630237Y-131638466D01*
X146433332Y-143136800D02*
X146547618Y-143174895D01*
X146547618Y-143174895D02*
X146738094Y-143174895D01*
X146738094Y-143174895D02*
X146814285Y-143136800D01*
X146814285Y-143136800D02*
X146852380Y-143098704D01*
X146852380Y-143098704D02*
X146890475Y-143022514D01*
X146890475Y-143022514D02*
X146890475Y-142946323D01*
X146890475Y-142946323D02*
X146852380Y-142870133D01*
X146852380Y-142870133D02*
X146814285Y-142832038D01*
X146814285Y-142832038D02*
X146738094Y-142793942D01*
X146738094Y-142793942D02*
X146585713Y-142755847D01*
X146585713Y-142755847D02*
X146509523Y-142717752D01*
X146509523Y-142717752D02*
X146471428Y-142679657D01*
X146471428Y-142679657D02*
X146433332Y-142603466D01*
X146433332Y-142603466D02*
X146433332Y-142527276D01*
X146433332Y-142527276D02*
X146471428Y-142451085D01*
X146471428Y-142451085D02*
X146509523Y-142412990D01*
X146509523Y-142412990D02*
X146585713Y-142374895D01*
X146585713Y-142374895D02*
X146776190Y-142374895D01*
X146776190Y-142374895D02*
X146890475Y-142412990D01*
X147157142Y-142374895D02*
X147347618Y-143174895D01*
X147347618Y-143174895D02*
X147499999Y-142603466D01*
X147499999Y-142603466D02*
X147652380Y-143174895D01*
X147652380Y-143174895D02*
X147842857Y-142374895D01*
X148109523Y-142451085D02*
X148147619Y-142412990D01*
X148147619Y-142412990D02*
X148223809Y-142374895D01*
X148223809Y-142374895D02*
X148414285Y-142374895D01*
X148414285Y-142374895D02*
X148490476Y-142412990D01*
X148490476Y-142412990D02*
X148528571Y-142451085D01*
X148528571Y-142451085D02*
X148566666Y-142527276D01*
X148566666Y-142527276D02*
X148566666Y-142603466D01*
X148566666Y-142603466D02*
X148528571Y-142717752D01*
X148528571Y-142717752D02*
X148071428Y-143174895D01*
X148071428Y-143174895D02*
X148566666Y-143174895D01*
X117125476Y-140109895D02*
X117125476Y-140757514D01*
X117125476Y-140757514D02*
X117163571Y-140833704D01*
X117163571Y-140833704D02*
X117201666Y-140871800D01*
X117201666Y-140871800D02*
X117277857Y-140909895D01*
X117277857Y-140909895D02*
X117430238Y-140909895D01*
X117430238Y-140909895D02*
X117506428Y-140871800D01*
X117506428Y-140871800D02*
X117544523Y-140833704D01*
X117544523Y-140833704D02*
X117582619Y-140757514D01*
X117582619Y-140757514D02*
X117582619Y-140109895D01*
X117925475Y-140186085D02*
X117963571Y-140147990D01*
X117963571Y-140147990D02*
X118039761Y-140109895D01*
X118039761Y-140109895D02*
X118230237Y-140109895D01*
X118230237Y-140109895D02*
X118306428Y-140147990D01*
X118306428Y-140147990D02*
X118344523Y-140186085D01*
X118344523Y-140186085D02*
X118382618Y-140262276D01*
X118382618Y-140262276D02*
X118382618Y-140338466D01*
X118382618Y-140338466D02*
X118344523Y-140452752D01*
X118344523Y-140452752D02*
X117887380Y-140909895D01*
X117887380Y-140909895D02*
X118382618Y-140909895D01*
X137645714Y-147074895D02*
X137379047Y-146693942D01*
X137188571Y-147074895D02*
X137188571Y-146274895D01*
X137188571Y-146274895D02*
X137493333Y-146274895D01*
X137493333Y-146274895D02*
X137569523Y-146312990D01*
X137569523Y-146312990D02*
X137607618Y-146351085D01*
X137607618Y-146351085D02*
X137645714Y-146427276D01*
X137645714Y-146427276D02*
X137645714Y-146541561D01*
X137645714Y-146541561D02*
X137607618Y-146617752D01*
X137607618Y-146617752D02*
X137569523Y-146655847D01*
X137569523Y-146655847D02*
X137493333Y-146693942D01*
X137493333Y-146693942D02*
X137188571Y-146693942D01*
X137950475Y-146351085D02*
X137988571Y-146312990D01*
X137988571Y-146312990D02*
X138064761Y-146274895D01*
X138064761Y-146274895D02*
X138255237Y-146274895D01*
X138255237Y-146274895D02*
X138331428Y-146312990D01*
X138331428Y-146312990D02*
X138369523Y-146351085D01*
X138369523Y-146351085D02*
X138407618Y-146427276D01*
X138407618Y-146427276D02*
X138407618Y-146503466D01*
X138407618Y-146503466D02*
X138369523Y-146617752D01*
X138369523Y-146617752D02*
X137912380Y-147074895D01*
X137912380Y-147074895D02*
X138407618Y-147074895D01*
X138712380Y-146351085D02*
X138750476Y-146312990D01*
X138750476Y-146312990D02*
X138826666Y-146274895D01*
X138826666Y-146274895D02*
X139017142Y-146274895D01*
X139017142Y-146274895D02*
X139093333Y-146312990D01*
X139093333Y-146312990D02*
X139131428Y-146351085D01*
X139131428Y-146351085D02*
X139169523Y-146427276D01*
X139169523Y-146427276D02*
X139169523Y-146503466D01*
X139169523Y-146503466D02*
X139131428Y-146617752D01*
X139131428Y-146617752D02*
X138674285Y-147074895D01*
X138674285Y-147074895D02*
X139169523Y-147074895D01*
X151883333Y-144024895D02*
X151883333Y-144596323D01*
X151883333Y-144596323D02*
X151845238Y-144710609D01*
X151845238Y-144710609D02*
X151769047Y-144786800D01*
X151769047Y-144786800D02*
X151654762Y-144824895D01*
X151654762Y-144824895D02*
X151578571Y-144824895D01*
X152607143Y-144024895D02*
X152454762Y-144024895D01*
X152454762Y-144024895D02*
X152378571Y-144062990D01*
X152378571Y-144062990D02*
X152340476Y-144101085D01*
X152340476Y-144101085D02*
X152264286Y-144215371D01*
X152264286Y-144215371D02*
X152226190Y-144367752D01*
X152226190Y-144367752D02*
X152226190Y-144672514D01*
X152226190Y-144672514D02*
X152264286Y-144748704D01*
X152264286Y-144748704D02*
X152302381Y-144786800D01*
X152302381Y-144786800D02*
X152378571Y-144824895D01*
X152378571Y-144824895D02*
X152530952Y-144824895D01*
X152530952Y-144824895D02*
X152607143Y-144786800D01*
X152607143Y-144786800D02*
X152645238Y-144748704D01*
X152645238Y-144748704D02*
X152683333Y-144672514D01*
X152683333Y-144672514D02*
X152683333Y-144482038D01*
X152683333Y-144482038D02*
X152645238Y-144405847D01*
X152645238Y-144405847D02*
X152607143Y-144367752D01*
X152607143Y-144367752D02*
X152530952Y-144329657D01*
X152530952Y-144329657D02*
X152378571Y-144329657D01*
X152378571Y-144329657D02*
X152302381Y-144367752D01*
X152302381Y-144367752D02*
X152264286Y-144405847D01*
X152264286Y-144405847D02*
X152226190Y-144482038D01*
X136095714Y-149808704D02*
X136057618Y-149846800D01*
X136057618Y-149846800D02*
X135943333Y-149884895D01*
X135943333Y-149884895D02*
X135867142Y-149884895D01*
X135867142Y-149884895D02*
X135752856Y-149846800D01*
X135752856Y-149846800D02*
X135676666Y-149770609D01*
X135676666Y-149770609D02*
X135638571Y-149694419D01*
X135638571Y-149694419D02*
X135600475Y-149542038D01*
X135600475Y-149542038D02*
X135600475Y-149427752D01*
X135600475Y-149427752D02*
X135638571Y-149275371D01*
X135638571Y-149275371D02*
X135676666Y-149199180D01*
X135676666Y-149199180D02*
X135752856Y-149122990D01*
X135752856Y-149122990D02*
X135867142Y-149084895D01*
X135867142Y-149084895D02*
X135943333Y-149084895D01*
X135943333Y-149084895D02*
X136057618Y-149122990D01*
X136057618Y-149122990D02*
X136095714Y-149161085D01*
X136857618Y-149884895D02*
X136400475Y-149884895D01*
X136629047Y-149884895D02*
X136629047Y-149084895D01*
X136629047Y-149084895D02*
X136552856Y-149199180D01*
X136552856Y-149199180D02*
X136476666Y-149275371D01*
X136476666Y-149275371D02*
X136400475Y-149313466D01*
X137162380Y-149161085D02*
X137200476Y-149122990D01*
X137200476Y-149122990D02*
X137276666Y-149084895D01*
X137276666Y-149084895D02*
X137467142Y-149084895D01*
X137467142Y-149084895D02*
X137543333Y-149122990D01*
X137543333Y-149122990D02*
X137581428Y-149161085D01*
X137581428Y-149161085D02*
X137619523Y-149237276D01*
X137619523Y-149237276D02*
X137619523Y-149313466D01*
X137619523Y-149313466D02*
X137581428Y-149427752D01*
X137581428Y-149427752D02*
X137124285Y-149884895D01*
X137124285Y-149884895D02*
X137619523Y-149884895D01*
X142845104Y-146505714D02*
X143226057Y-146239047D01*
X142845104Y-146048571D02*
X143645104Y-146048571D01*
X143645104Y-146048571D02*
X143645104Y-146353333D01*
X143645104Y-146353333D02*
X143607009Y-146429523D01*
X143607009Y-146429523D02*
X143568914Y-146467618D01*
X143568914Y-146467618D02*
X143492723Y-146505714D01*
X143492723Y-146505714D02*
X143378438Y-146505714D01*
X143378438Y-146505714D02*
X143302247Y-146467618D01*
X143302247Y-146467618D02*
X143264152Y-146429523D01*
X143264152Y-146429523D02*
X143226057Y-146353333D01*
X143226057Y-146353333D02*
X143226057Y-146048571D01*
X143568914Y-146810475D02*
X143607009Y-146848571D01*
X143607009Y-146848571D02*
X143645104Y-146924761D01*
X143645104Y-146924761D02*
X143645104Y-147115237D01*
X143645104Y-147115237D02*
X143607009Y-147191428D01*
X143607009Y-147191428D02*
X143568914Y-147229523D01*
X143568914Y-147229523D02*
X143492723Y-147267618D01*
X143492723Y-147267618D02*
X143416533Y-147267618D01*
X143416533Y-147267618D02*
X143302247Y-147229523D01*
X143302247Y-147229523D02*
X142845104Y-146772380D01*
X142845104Y-146772380D02*
X142845104Y-147267618D01*
X143645104Y-147534285D02*
X143645104Y-148029523D01*
X143645104Y-148029523D02*
X143340342Y-147762857D01*
X143340342Y-147762857D02*
X143340342Y-147877142D01*
X143340342Y-147877142D02*
X143302247Y-147953333D01*
X143302247Y-147953333D02*
X143264152Y-147991428D01*
X143264152Y-147991428D02*
X143187961Y-148029523D01*
X143187961Y-148029523D02*
X142997485Y-148029523D01*
X142997485Y-148029523D02*
X142921295Y-147991428D01*
X142921295Y-147991428D02*
X142883200Y-147953333D01*
X142883200Y-147953333D02*
X142845104Y-147877142D01*
X142845104Y-147877142D02*
X142845104Y-147648571D01*
X142845104Y-147648571D02*
X142883200Y-147572380D01*
X142883200Y-147572380D02*
X142921295Y-147534285D01*
X151455714Y-130504895D02*
X151189047Y-130123942D01*
X150998571Y-130504895D02*
X150998571Y-129704895D01*
X150998571Y-129704895D02*
X151303333Y-129704895D01*
X151303333Y-129704895D02*
X151379523Y-129742990D01*
X151379523Y-129742990D02*
X151417618Y-129781085D01*
X151417618Y-129781085D02*
X151455714Y-129857276D01*
X151455714Y-129857276D02*
X151455714Y-129971561D01*
X151455714Y-129971561D02*
X151417618Y-130047752D01*
X151417618Y-130047752D02*
X151379523Y-130085847D01*
X151379523Y-130085847D02*
X151303333Y-130123942D01*
X151303333Y-130123942D02*
X150998571Y-130123942D01*
X151722380Y-129704895D02*
X152217618Y-129704895D01*
X152217618Y-129704895D02*
X151950952Y-130009657D01*
X151950952Y-130009657D02*
X152065237Y-130009657D01*
X152065237Y-130009657D02*
X152141428Y-130047752D01*
X152141428Y-130047752D02*
X152179523Y-130085847D01*
X152179523Y-130085847D02*
X152217618Y-130162038D01*
X152217618Y-130162038D02*
X152217618Y-130352514D01*
X152217618Y-130352514D02*
X152179523Y-130428704D01*
X152179523Y-130428704D02*
X152141428Y-130466800D01*
X152141428Y-130466800D02*
X152065237Y-130504895D01*
X152065237Y-130504895D02*
X151836666Y-130504895D01*
X151836666Y-130504895D02*
X151760475Y-130466800D01*
X151760475Y-130466800D02*
X151722380Y-130428704D01*
X152903333Y-129971561D02*
X152903333Y-130504895D01*
X152712857Y-129666800D02*
X152522380Y-130238228D01*
X152522380Y-130238228D02*
X153017619Y-130238228D01*
X143409524Y-142764895D02*
X143409524Y-143412514D01*
X143409524Y-143412514D02*
X143447619Y-143488704D01*
X143447619Y-143488704D02*
X143485714Y-143526800D01*
X143485714Y-143526800D02*
X143561905Y-143564895D01*
X143561905Y-143564895D02*
X143714286Y-143564895D01*
X143714286Y-143564895D02*
X143790476Y-143526800D01*
X143790476Y-143526800D02*
X143828571Y-143488704D01*
X143828571Y-143488704D02*
X143866667Y-143412514D01*
X143866667Y-143412514D02*
X143866667Y-142764895D01*
X144666666Y-143564895D02*
X144209523Y-143564895D01*
X144438095Y-143564895D02*
X144438095Y-142764895D01*
X144438095Y-142764895D02*
X144361904Y-142879180D01*
X144361904Y-142879180D02*
X144285714Y-142955371D01*
X144285714Y-142955371D02*
X144209523Y-142993466D01*
X145161905Y-142764895D02*
X145238095Y-142764895D01*
X145238095Y-142764895D02*
X145314286Y-142802990D01*
X145314286Y-142802990D02*
X145352381Y-142841085D01*
X145352381Y-142841085D02*
X145390476Y-142917276D01*
X145390476Y-142917276D02*
X145428571Y-143069657D01*
X145428571Y-143069657D02*
X145428571Y-143260133D01*
X145428571Y-143260133D02*
X145390476Y-143412514D01*
X145390476Y-143412514D02*
X145352381Y-143488704D01*
X145352381Y-143488704D02*
X145314286Y-143526800D01*
X145314286Y-143526800D02*
X145238095Y-143564895D01*
X145238095Y-143564895D02*
X145161905Y-143564895D01*
X145161905Y-143564895D02*
X145085714Y-143526800D01*
X145085714Y-143526800D02*
X145047619Y-143488704D01*
X145047619Y-143488704D02*
X145009524Y-143412514D01*
X145009524Y-143412514D02*
X144971428Y-143260133D01*
X144971428Y-143260133D02*
X144971428Y-143069657D01*
X144971428Y-143069657D02*
X145009524Y-142917276D01*
X145009524Y-142917276D02*
X145047619Y-142841085D01*
X145047619Y-142841085D02*
X145085714Y-142802990D01*
X145085714Y-142802990D02*
X145161905Y-142764895D01*
D11*
X121914819Y-135533333D02*
X122629104Y-135533333D01*
X122629104Y-135533333D02*
X122771961Y-135580952D01*
X122771961Y-135580952D02*
X122867200Y-135676190D01*
X122867200Y-135676190D02*
X122914819Y-135819047D01*
X122914819Y-135819047D02*
X122914819Y-135914285D01*
X121914819Y-134580952D02*
X121914819Y-135057142D01*
X121914819Y-135057142D02*
X122391009Y-135104761D01*
X122391009Y-135104761D02*
X122343390Y-135057142D01*
X122343390Y-135057142D02*
X122295771Y-134961904D01*
X122295771Y-134961904D02*
X122295771Y-134723809D01*
X122295771Y-134723809D02*
X122343390Y-134628571D01*
X122343390Y-134628571D02*
X122391009Y-134580952D01*
X122391009Y-134580952D02*
X122486247Y-134533333D01*
X122486247Y-134533333D02*
X122724342Y-134533333D01*
X122724342Y-134533333D02*
X122819580Y-134580952D01*
X122819580Y-134580952D02*
X122867200Y-134628571D01*
X122867200Y-134628571D02*
X122914819Y-134723809D01*
X122914819Y-134723809D02*
X122914819Y-134961904D01*
X122914819Y-134961904D02*
X122867200Y-135057142D01*
X122867200Y-135057142D02*
X122819580Y-135104761D01*
D10*
X134585714Y-146994895D02*
X134319047Y-146613942D01*
X134128571Y-146994895D02*
X134128571Y-146194895D01*
X134128571Y-146194895D02*
X134433333Y-146194895D01*
X134433333Y-146194895D02*
X134509523Y-146232990D01*
X134509523Y-146232990D02*
X134547618Y-146271085D01*
X134547618Y-146271085D02*
X134585714Y-146347276D01*
X134585714Y-146347276D02*
X134585714Y-146461561D01*
X134585714Y-146461561D02*
X134547618Y-146537752D01*
X134547618Y-146537752D02*
X134509523Y-146575847D01*
X134509523Y-146575847D02*
X134433333Y-146613942D01*
X134433333Y-146613942D02*
X134128571Y-146613942D01*
X134852380Y-146194895D02*
X135347618Y-146194895D01*
X135347618Y-146194895D02*
X135080952Y-146499657D01*
X135080952Y-146499657D02*
X135195237Y-146499657D01*
X135195237Y-146499657D02*
X135271428Y-146537752D01*
X135271428Y-146537752D02*
X135309523Y-146575847D01*
X135309523Y-146575847D02*
X135347618Y-146652038D01*
X135347618Y-146652038D02*
X135347618Y-146842514D01*
X135347618Y-146842514D02*
X135309523Y-146918704D01*
X135309523Y-146918704D02*
X135271428Y-146956800D01*
X135271428Y-146956800D02*
X135195237Y-146994895D01*
X135195237Y-146994895D02*
X134966666Y-146994895D01*
X134966666Y-146994895D02*
X134890475Y-146956800D01*
X134890475Y-146956800D02*
X134852380Y-146918704D01*
X135652380Y-146271085D02*
X135690476Y-146232990D01*
X135690476Y-146232990D02*
X135766666Y-146194895D01*
X135766666Y-146194895D02*
X135957142Y-146194895D01*
X135957142Y-146194895D02*
X136033333Y-146232990D01*
X136033333Y-146232990D02*
X136071428Y-146271085D01*
X136071428Y-146271085D02*
X136109523Y-146347276D01*
X136109523Y-146347276D02*
X136109523Y-146423466D01*
X136109523Y-146423466D02*
X136071428Y-146537752D01*
X136071428Y-146537752D02*
X135614285Y-146994895D01*
X135614285Y-146994895D02*
X136109523Y-146994895D01*
X120549524Y-154114895D02*
X120549524Y-153314895D01*
X120549524Y-153314895D02*
X120740000Y-153314895D01*
X120740000Y-153314895D02*
X120854286Y-153352990D01*
X120854286Y-153352990D02*
X120930476Y-153429180D01*
X120930476Y-153429180D02*
X120968571Y-153505371D01*
X120968571Y-153505371D02*
X121006667Y-153657752D01*
X121006667Y-153657752D02*
X121006667Y-153772038D01*
X121006667Y-153772038D02*
X120968571Y-153924419D01*
X120968571Y-153924419D02*
X120930476Y-154000609D01*
X120930476Y-154000609D02*
X120854286Y-154076800D01*
X120854286Y-154076800D02*
X120740000Y-154114895D01*
X120740000Y-154114895D02*
X120549524Y-154114895D01*
X121768571Y-154114895D02*
X121311428Y-154114895D01*
X121540000Y-154114895D02*
X121540000Y-153314895D01*
X121540000Y-153314895D02*
X121463809Y-153429180D01*
X121463809Y-153429180D02*
X121387619Y-153505371D01*
X121387619Y-153505371D02*
X121311428Y-153543466D01*
X116493333Y-153804895D02*
X116493333Y-154376323D01*
X116493333Y-154376323D02*
X116455238Y-154490609D01*
X116455238Y-154490609D02*
X116379047Y-154566800D01*
X116379047Y-154566800D02*
X116264762Y-154604895D01*
X116264762Y-154604895D02*
X116188571Y-154604895D01*
X116836190Y-153881085D02*
X116874286Y-153842990D01*
X116874286Y-153842990D02*
X116950476Y-153804895D01*
X116950476Y-153804895D02*
X117140952Y-153804895D01*
X117140952Y-153804895D02*
X117217143Y-153842990D01*
X117217143Y-153842990D02*
X117255238Y-153881085D01*
X117255238Y-153881085D02*
X117293333Y-153957276D01*
X117293333Y-153957276D02*
X117293333Y-154033466D01*
X117293333Y-154033466D02*
X117255238Y-154147752D01*
X117255238Y-154147752D02*
X116798095Y-154604895D01*
X116798095Y-154604895D02*
X117293333Y-154604895D01*
X129510714Y-132074895D02*
X129244047Y-131693942D01*
X129053571Y-132074895D02*
X129053571Y-131274895D01*
X129053571Y-131274895D02*
X129358333Y-131274895D01*
X129358333Y-131274895D02*
X129434523Y-131312990D01*
X129434523Y-131312990D02*
X129472618Y-131351085D01*
X129472618Y-131351085D02*
X129510714Y-131427276D01*
X129510714Y-131427276D02*
X129510714Y-131541561D01*
X129510714Y-131541561D02*
X129472618Y-131617752D01*
X129472618Y-131617752D02*
X129434523Y-131655847D01*
X129434523Y-131655847D02*
X129358333Y-131693942D01*
X129358333Y-131693942D02*
X129053571Y-131693942D01*
X129815475Y-131351085D02*
X129853571Y-131312990D01*
X129853571Y-131312990D02*
X129929761Y-131274895D01*
X129929761Y-131274895D02*
X130120237Y-131274895D01*
X130120237Y-131274895D02*
X130196428Y-131312990D01*
X130196428Y-131312990D02*
X130234523Y-131351085D01*
X130234523Y-131351085D02*
X130272618Y-131427276D01*
X130272618Y-131427276D02*
X130272618Y-131503466D01*
X130272618Y-131503466D02*
X130234523Y-131617752D01*
X130234523Y-131617752D02*
X129777380Y-132074895D01*
X129777380Y-132074895D02*
X130272618Y-132074895D01*
X130767857Y-131274895D02*
X130844047Y-131274895D01*
X130844047Y-131274895D02*
X130920238Y-131312990D01*
X130920238Y-131312990D02*
X130958333Y-131351085D01*
X130958333Y-131351085D02*
X130996428Y-131427276D01*
X130996428Y-131427276D02*
X131034523Y-131579657D01*
X131034523Y-131579657D02*
X131034523Y-131770133D01*
X131034523Y-131770133D02*
X130996428Y-131922514D01*
X130996428Y-131922514D02*
X130958333Y-131998704D01*
X130958333Y-131998704D02*
X130920238Y-132036800D01*
X130920238Y-132036800D02*
X130844047Y-132074895D01*
X130844047Y-132074895D02*
X130767857Y-132074895D01*
X130767857Y-132074895D02*
X130691666Y-132036800D01*
X130691666Y-132036800D02*
X130653571Y-131998704D01*
X130653571Y-131998704D02*
X130615476Y-131922514D01*
X130615476Y-131922514D02*
X130577380Y-131770133D01*
X130577380Y-131770133D02*
X130577380Y-131579657D01*
X130577380Y-131579657D02*
X130615476Y-131427276D01*
X130615476Y-131427276D02*
X130653571Y-131351085D01*
X130653571Y-131351085D02*
X130691666Y-131312990D01*
X130691666Y-131312990D02*
X130767857Y-131274895D01*
X132209616Y-130488704D02*
X132171520Y-130526800D01*
X132171520Y-130526800D02*
X132057235Y-130564895D01*
X132057235Y-130564895D02*
X131981044Y-130564895D01*
X131981044Y-130564895D02*
X131866758Y-130526800D01*
X131866758Y-130526800D02*
X131790568Y-130450609D01*
X131790568Y-130450609D02*
X131752473Y-130374419D01*
X131752473Y-130374419D02*
X131714377Y-130222038D01*
X131714377Y-130222038D02*
X131714377Y-130107752D01*
X131714377Y-130107752D02*
X131752473Y-129955371D01*
X131752473Y-129955371D02*
X131790568Y-129879180D01*
X131790568Y-129879180D02*
X131866758Y-129802990D01*
X131866758Y-129802990D02*
X131981044Y-129764895D01*
X131981044Y-129764895D02*
X132057235Y-129764895D01*
X132057235Y-129764895D02*
X132171520Y-129802990D01*
X132171520Y-129802990D02*
X132209616Y-129841085D01*
X132971520Y-130564895D02*
X132514377Y-130564895D01*
X132742949Y-130564895D02*
X132742949Y-129764895D01*
X132742949Y-129764895D02*
X132666758Y-129879180D01*
X132666758Y-129879180D02*
X132590568Y-129955371D01*
X132590568Y-129955371D02*
X132514377Y-129993466D01*
X133733425Y-130564895D02*
X133276282Y-130564895D01*
X133504854Y-130564895D02*
X133504854Y-129764895D01*
X133504854Y-129764895D02*
X133428663Y-129879180D01*
X133428663Y-129879180D02*
X133352473Y-129955371D01*
X133352473Y-129955371D02*
X133276282Y-129993466D01*
X131165714Y-144878704D02*
X131127618Y-144916800D01*
X131127618Y-144916800D02*
X131013333Y-144954895D01*
X131013333Y-144954895D02*
X130937142Y-144954895D01*
X130937142Y-144954895D02*
X130822856Y-144916800D01*
X130822856Y-144916800D02*
X130746666Y-144840609D01*
X130746666Y-144840609D02*
X130708571Y-144764419D01*
X130708571Y-144764419D02*
X130670475Y-144612038D01*
X130670475Y-144612038D02*
X130670475Y-144497752D01*
X130670475Y-144497752D02*
X130708571Y-144345371D01*
X130708571Y-144345371D02*
X130746666Y-144269180D01*
X130746666Y-144269180D02*
X130822856Y-144192990D01*
X130822856Y-144192990D02*
X130937142Y-144154895D01*
X130937142Y-144154895D02*
X131013333Y-144154895D01*
X131013333Y-144154895D02*
X131127618Y-144192990D01*
X131127618Y-144192990D02*
X131165714Y-144231085D01*
X131470475Y-144231085D02*
X131508571Y-144192990D01*
X131508571Y-144192990D02*
X131584761Y-144154895D01*
X131584761Y-144154895D02*
X131775237Y-144154895D01*
X131775237Y-144154895D02*
X131851428Y-144192990D01*
X131851428Y-144192990D02*
X131889523Y-144231085D01*
X131889523Y-144231085D02*
X131927618Y-144307276D01*
X131927618Y-144307276D02*
X131927618Y-144383466D01*
X131927618Y-144383466D02*
X131889523Y-144497752D01*
X131889523Y-144497752D02*
X131432380Y-144954895D01*
X131432380Y-144954895D02*
X131927618Y-144954895D01*
X132422857Y-144154895D02*
X132499047Y-144154895D01*
X132499047Y-144154895D02*
X132575238Y-144192990D01*
X132575238Y-144192990D02*
X132613333Y-144231085D01*
X132613333Y-144231085D02*
X132651428Y-144307276D01*
X132651428Y-144307276D02*
X132689523Y-144459657D01*
X132689523Y-144459657D02*
X132689523Y-144650133D01*
X132689523Y-144650133D02*
X132651428Y-144802514D01*
X132651428Y-144802514D02*
X132613333Y-144878704D01*
X132613333Y-144878704D02*
X132575238Y-144916800D01*
X132575238Y-144916800D02*
X132499047Y-144954895D01*
X132499047Y-144954895D02*
X132422857Y-144954895D01*
X132422857Y-144954895D02*
X132346666Y-144916800D01*
X132346666Y-144916800D02*
X132308571Y-144878704D01*
X132308571Y-144878704D02*
X132270476Y-144802514D01*
X132270476Y-144802514D02*
X132232380Y-144650133D01*
X132232380Y-144650133D02*
X132232380Y-144459657D01*
X132232380Y-144459657D02*
X132270476Y-144307276D01*
X132270476Y-144307276D02*
X132308571Y-144231085D01*
X132308571Y-144231085D02*
X132346666Y-144192990D01*
X132346666Y-144192990D02*
X132422857Y-144154895D01*
X126758704Y-143654285D02*
X126796800Y-143692381D01*
X126796800Y-143692381D02*
X126834895Y-143806666D01*
X126834895Y-143806666D02*
X126834895Y-143882857D01*
X126834895Y-143882857D02*
X126796800Y-143997143D01*
X126796800Y-143997143D02*
X126720609Y-144073333D01*
X126720609Y-144073333D02*
X126644419Y-144111428D01*
X126644419Y-144111428D02*
X126492038Y-144149524D01*
X126492038Y-144149524D02*
X126377752Y-144149524D01*
X126377752Y-144149524D02*
X126225371Y-144111428D01*
X126225371Y-144111428D02*
X126149180Y-144073333D01*
X126149180Y-144073333D02*
X126072990Y-143997143D01*
X126072990Y-143997143D02*
X126034895Y-143882857D01*
X126034895Y-143882857D02*
X126034895Y-143806666D01*
X126034895Y-143806666D02*
X126072990Y-143692381D01*
X126072990Y-143692381D02*
X126111085Y-143654285D01*
X126034895Y-143387619D02*
X126034895Y-142892381D01*
X126034895Y-142892381D02*
X126339657Y-143159047D01*
X126339657Y-143159047D02*
X126339657Y-143044762D01*
X126339657Y-143044762D02*
X126377752Y-142968571D01*
X126377752Y-142968571D02*
X126415847Y-142930476D01*
X126415847Y-142930476D02*
X126492038Y-142892381D01*
X126492038Y-142892381D02*
X126682514Y-142892381D01*
X126682514Y-142892381D02*
X126758704Y-142930476D01*
X126758704Y-142930476D02*
X126796800Y-142968571D01*
X126796800Y-142968571D02*
X126834895Y-143044762D01*
X126834895Y-143044762D02*
X126834895Y-143273333D01*
X126834895Y-143273333D02*
X126796800Y-143349524D01*
X126796800Y-143349524D02*
X126758704Y-143387619D01*
X126111085Y-142587619D02*
X126072990Y-142549523D01*
X126072990Y-142549523D02*
X126034895Y-142473333D01*
X126034895Y-142473333D02*
X126034895Y-142282857D01*
X126034895Y-142282857D02*
X126072990Y-142206666D01*
X126072990Y-142206666D02*
X126111085Y-142168571D01*
X126111085Y-142168571D02*
X126187276Y-142130476D01*
X126187276Y-142130476D02*
X126263466Y-142130476D01*
X126263466Y-142130476D02*
X126377752Y-142168571D01*
X126377752Y-142168571D02*
X126834895Y-142625714D01*
X126834895Y-142625714D02*
X126834895Y-142130476D01*
X120025104Y-142725714D02*
X120406057Y-142459047D01*
X120025104Y-142268571D02*
X120825104Y-142268571D01*
X120825104Y-142268571D02*
X120825104Y-142573333D01*
X120825104Y-142573333D02*
X120787009Y-142649523D01*
X120787009Y-142649523D02*
X120748914Y-142687618D01*
X120748914Y-142687618D02*
X120672723Y-142725714D01*
X120672723Y-142725714D02*
X120558438Y-142725714D01*
X120558438Y-142725714D02*
X120482247Y-142687618D01*
X120482247Y-142687618D02*
X120444152Y-142649523D01*
X120444152Y-142649523D02*
X120406057Y-142573333D01*
X120406057Y-142573333D02*
X120406057Y-142268571D01*
X120025104Y-143487618D02*
X120025104Y-143030475D01*
X120025104Y-143259047D02*
X120825104Y-143259047D01*
X120825104Y-143259047D02*
X120710819Y-143182856D01*
X120710819Y-143182856D02*
X120634628Y-143106666D01*
X120634628Y-143106666D02*
X120596533Y-143030475D01*
X120748914Y-143792380D02*
X120787009Y-143830476D01*
X120787009Y-143830476D02*
X120825104Y-143906666D01*
X120825104Y-143906666D02*
X120825104Y-144097142D01*
X120825104Y-144097142D02*
X120787009Y-144173333D01*
X120787009Y-144173333D02*
X120748914Y-144211428D01*
X120748914Y-144211428D02*
X120672723Y-144249523D01*
X120672723Y-144249523D02*
X120596533Y-144249523D01*
X120596533Y-144249523D02*
X120482247Y-144211428D01*
X120482247Y-144211428D02*
X120025104Y-143754285D01*
X120025104Y-143754285D02*
X120025104Y-144249523D01*
X125503809Y-150171085D02*
X125427619Y-150132990D01*
X125427619Y-150132990D02*
X125351428Y-150056800D01*
X125351428Y-150056800D02*
X125237142Y-149942514D01*
X125237142Y-149942514D02*
X125160952Y-149904419D01*
X125160952Y-149904419D02*
X125084761Y-149904419D01*
X125122857Y-150094895D02*
X125046666Y-150056800D01*
X125046666Y-150056800D02*
X124970476Y-149980609D01*
X124970476Y-149980609D02*
X124932380Y-149828228D01*
X124932380Y-149828228D02*
X124932380Y-149561561D01*
X124932380Y-149561561D02*
X124970476Y-149409180D01*
X124970476Y-149409180D02*
X125046666Y-149332990D01*
X125046666Y-149332990D02*
X125122857Y-149294895D01*
X125122857Y-149294895D02*
X125275238Y-149294895D01*
X125275238Y-149294895D02*
X125351428Y-149332990D01*
X125351428Y-149332990D02*
X125427619Y-149409180D01*
X125427619Y-149409180D02*
X125465714Y-149561561D01*
X125465714Y-149561561D02*
X125465714Y-149828228D01*
X125465714Y-149828228D02*
X125427619Y-149980609D01*
X125427619Y-149980609D02*
X125351428Y-150056800D01*
X125351428Y-150056800D02*
X125275238Y-150094895D01*
X125275238Y-150094895D02*
X125122857Y-150094895D01*
X126227618Y-150094895D02*
X125770475Y-150094895D01*
X125999047Y-150094895D02*
X125999047Y-149294895D01*
X125999047Y-149294895D02*
X125922856Y-149409180D01*
X125922856Y-149409180D02*
X125846666Y-149485371D01*
X125846666Y-149485371D02*
X125770475Y-149523466D01*
X126761085Y-149037142D02*
X126722990Y-149113332D01*
X126722990Y-149113332D02*
X126646800Y-149189523D01*
X126646800Y-149189523D02*
X126532514Y-149303809D01*
X126532514Y-149303809D02*
X126494419Y-149379999D01*
X126494419Y-149379999D02*
X126494419Y-149456190D01*
X126684895Y-149418094D02*
X126646800Y-149494285D01*
X126646800Y-149494285D02*
X126570609Y-149570475D01*
X126570609Y-149570475D02*
X126418228Y-149608571D01*
X126418228Y-149608571D02*
X126151561Y-149608571D01*
X126151561Y-149608571D02*
X125999180Y-149570475D01*
X125999180Y-149570475D02*
X125922990Y-149494285D01*
X125922990Y-149494285D02*
X125884895Y-149418094D01*
X125884895Y-149418094D02*
X125884895Y-149265713D01*
X125884895Y-149265713D02*
X125922990Y-149189523D01*
X125922990Y-149189523D02*
X125999180Y-149113332D01*
X125999180Y-149113332D02*
X126151561Y-149075237D01*
X126151561Y-149075237D02*
X126418228Y-149075237D01*
X126418228Y-149075237D02*
X126570609Y-149113332D01*
X126570609Y-149113332D02*
X126646800Y-149189523D01*
X126646800Y-149189523D02*
X126684895Y-149265713D01*
X126684895Y-149265713D02*
X126684895Y-149418094D01*
X126684895Y-148313333D02*
X126684895Y-148770476D01*
X126684895Y-148541904D02*
X125884895Y-148541904D01*
X125884895Y-148541904D02*
X125999180Y-148618095D01*
X125999180Y-148618095D02*
X126075371Y-148694285D01*
X126075371Y-148694285D02*
X126113466Y-148770476D01*
X125884895Y-147818094D02*
X125884895Y-147741904D01*
X125884895Y-147741904D02*
X125922990Y-147665713D01*
X125922990Y-147665713D02*
X125961085Y-147627618D01*
X125961085Y-147627618D02*
X126037276Y-147589523D01*
X126037276Y-147589523D02*
X126189657Y-147551428D01*
X126189657Y-147551428D02*
X126380133Y-147551428D01*
X126380133Y-147551428D02*
X126532514Y-147589523D01*
X126532514Y-147589523D02*
X126608704Y-147627618D01*
X126608704Y-147627618D02*
X126646800Y-147665713D01*
X126646800Y-147665713D02*
X126684895Y-147741904D01*
X126684895Y-147741904D02*
X126684895Y-147818094D01*
X126684895Y-147818094D02*
X126646800Y-147894285D01*
X126646800Y-147894285D02*
X126608704Y-147932380D01*
X126608704Y-147932380D02*
X126532514Y-147970475D01*
X126532514Y-147970475D02*
X126380133Y-148008571D01*
X126380133Y-148008571D02*
X126189657Y-148008571D01*
X126189657Y-148008571D02*
X126037276Y-147970475D01*
X126037276Y-147970475D02*
X125961085Y-147932380D01*
X125961085Y-147932380D02*
X125922990Y-147894285D01*
X125922990Y-147894285D02*
X125884895Y-147818094D01*
X132678704Y-148024285D02*
X132716800Y-148062381D01*
X132716800Y-148062381D02*
X132754895Y-148176666D01*
X132754895Y-148176666D02*
X132754895Y-148252857D01*
X132754895Y-148252857D02*
X132716800Y-148367143D01*
X132716800Y-148367143D02*
X132640609Y-148443333D01*
X132640609Y-148443333D02*
X132564419Y-148481428D01*
X132564419Y-148481428D02*
X132412038Y-148519524D01*
X132412038Y-148519524D02*
X132297752Y-148519524D01*
X132297752Y-148519524D02*
X132145371Y-148481428D01*
X132145371Y-148481428D02*
X132069180Y-148443333D01*
X132069180Y-148443333D02*
X131992990Y-148367143D01*
X131992990Y-148367143D02*
X131954895Y-148252857D01*
X131954895Y-148252857D02*
X131954895Y-148176666D01*
X131954895Y-148176666D02*
X131992990Y-148062381D01*
X131992990Y-148062381D02*
X132031085Y-148024285D01*
X132031085Y-147719524D02*
X131992990Y-147681428D01*
X131992990Y-147681428D02*
X131954895Y-147605238D01*
X131954895Y-147605238D02*
X131954895Y-147414762D01*
X131954895Y-147414762D02*
X131992990Y-147338571D01*
X131992990Y-147338571D02*
X132031085Y-147300476D01*
X132031085Y-147300476D02*
X132107276Y-147262381D01*
X132107276Y-147262381D02*
X132183466Y-147262381D01*
X132183466Y-147262381D02*
X132297752Y-147300476D01*
X132297752Y-147300476D02*
X132754895Y-147757619D01*
X132754895Y-147757619D02*
X132754895Y-147262381D01*
X132031085Y-146957619D02*
X131992990Y-146919523D01*
X131992990Y-146919523D02*
X131954895Y-146843333D01*
X131954895Y-146843333D02*
X131954895Y-146652857D01*
X131954895Y-146652857D02*
X131992990Y-146576666D01*
X131992990Y-146576666D02*
X132031085Y-146538571D01*
X132031085Y-146538571D02*
X132107276Y-146500476D01*
X132107276Y-146500476D02*
X132183466Y-146500476D01*
X132183466Y-146500476D02*
X132297752Y-146538571D01*
X132297752Y-146538571D02*
X132754895Y-146995714D01*
X132754895Y-146995714D02*
X132754895Y-146500476D01*
X131654895Y-143044285D02*
X131273942Y-143310952D01*
X131654895Y-143501428D02*
X130854895Y-143501428D01*
X130854895Y-143501428D02*
X130854895Y-143196666D01*
X130854895Y-143196666D02*
X130892990Y-143120476D01*
X130892990Y-143120476D02*
X130931085Y-143082381D01*
X130931085Y-143082381D02*
X131007276Y-143044285D01*
X131007276Y-143044285D02*
X131121561Y-143044285D01*
X131121561Y-143044285D02*
X131197752Y-143082381D01*
X131197752Y-143082381D02*
X131235847Y-143120476D01*
X131235847Y-143120476D02*
X131273942Y-143196666D01*
X131273942Y-143196666D02*
X131273942Y-143501428D01*
X130854895Y-142320476D02*
X130854895Y-142701428D01*
X130854895Y-142701428D02*
X131235847Y-142739524D01*
X131235847Y-142739524D02*
X131197752Y-142701428D01*
X131197752Y-142701428D02*
X131159657Y-142625238D01*
X131159657Y-142625238D02*
X131159657Y-142434762D01*
X131159657Y-142434762D02*
X131197752Y-142358571D01*
X131197752Y-142358571D02*
X131235847Y-142320476D01*
X131235847Y-142320476D02*
X131312038Y-142282381D01*
X131312038Y-142282381D02*
X131502514Y-142282381D01*
X131502514Y-142282381D02*
X131578704Y-142320476D01*
X131578704Y-142320476D02*
X131616800Y-142358571D01*
X131616800Y-142358571D02*
X131654895Y-142434762D01*
X131654895Y-142434762D02*
X131654895Y-142625238D01*
X131654895Y-142625238D02*
X131616800Y-142701428D01*
X131616800Y-142701428D02*
X131578704Y-142739524D01*
X131654895Y-141520476D02*
X131654895Y-141977619D01*
X131654895Y-141749047D02*
X130854895Y-141749047D01*
X130854895Y-141749047D02*
X130969180Y-141825238D01*
X130969180Y-141825238D02*
X131045371Y-141901428D01*
X131045371Y-141901428D02*
X131083466Y-141977619D01*
X129385714Y-148604895D02*
X129119047Y-148223942D01*
X128928571Y-148604895D02*
X128928571Y-147804895D01*
X128928571Y-147804895D02*
X129233333Y-147804895D01*
X129233333Y-147804895D02*
X129309523Y-147842990D01*
X129309523Y-147842990D02*
X129347618Y-147881085D01*
X129347618Y-147881085D02*
X129385714Y-147957276D01*
X129385714Y-147957276D02*
X129385714Y-148071561D01*
X129385714Y-148071561D02*
X129347618Y-148147752D01*
X129347618Y-148147752D02*
X129309523Y-148185847D01*
X129309523Y-148185847D02*
X129233333Y-148223942D01*
X129233333Y-148223942D02*
X128928571Y-148223942D01*
X130109523Y-147804895D02*
X129728571Y-147804895D01*
X129728571Y-147804895D02*
X129690475Y-148185847D01*
X129690475Y-148185847D02*
X129728571Y-148147752D01*
X129728571Y-148147752D02*
X129804761Y-148109657D01*
X129804761Y-148109657D02*
X129995237Y-148109657D01*
X129995237Y-148109657D02*
X130071428Y-148147752D01*
X130071428Y-148147752D02*
X130109523Y-148185847D01*
X130109523Y-148185847D02*
X130147618Y-148262038D01*
X130147618Y-148262038D02*
X130147618Y-148452514D01*
X130147618Y-148452514D02*
X130109523Y-148528704D01*
X130109523Y-148528704D02*
X130071428Y-148566800D01*
X130071428Y-148566800D02*
X129995237Y-148604895D01*
X129995237Y-148604895D02*
X129804761Y-148604895D01*
X129804761Y-148604895D02*
X129728571Y-148566800D01*
X129728571Y-148566800D02*
X129690475Y-148528704D01*
X130452380Y-147881085D02*
X130490476Y-147842990D01*
X130490476Y-147842990D02*
X130566666Y-147804895D01*
X130566666Y-147804895D02*
X130757142Y-147804895D01*
X130757142Y-147804895D02*
X130833333Y-147842990D01*
X130833333Y-147842990D02*
X130871428Y-147881085D01*
X130871428Y-147881085D02*
X130909523Y-147957276D01*
X130909523Y-147957276D02*
X130909523Y-148033466D01*
X130909523Y-148033466D02*
X130871428Y-148147752D01*
X130871428Y-148147752D02*
X130414285Y-148604895D01*
X130414285Y-148604895D02*
X130909523Y-148604895D01*
X129116667Y-155164895D02*
X128850000Y-154783942D01*
X128659524Y-155164895D02*
X128659524Y-154364895D01*
X128659524Y-154364895D02*
X128964286Y-154364895D01*
X128964286Y-154364895D02*
X129040476Y-154402990D01*
X129040476Y-154402990D02*
X129078571Y-154441085D01*
X129078571Y-154441085D02*
X129116667Y-154517276D01*
X129116667Y-154517276D02*
X129116667Y-154631561D01*
X129116667Y-154631561D02*
X129078571Y-154707752D01*
X129078571Y-154707752D02*
X129040476Y-154745847D01*
X129040476Y-154745847D02*
X128964286Y-154783942D01*
X128964286Y-154783942D02*
X128659524Y-154783942D01*
X129840476Y-154364895D02*
X129459524Y-154364895D01*
X129459524Y-154364895D02*
X129421428Y-154745847D01*
X129421428Y-154745847D02*
X129459524Y-154707752D01*
X129459524Y-154707752D02*
X129535714Y-154669657D01*
X129535714Y-154669657D02*
X129726190Y-154669657D01*
X129726190Y-154669657D02*
X129802381Y-154707752D01*
X129802381Y-154707752D02*
X129840476Y-154745847D01*
X129840476Y-154745847D02*
X129878571Y-154822038D01*
X129878571Y-154822038D02*
X129878571Y-155012514D01*
X129878571Y-155012514D02*
X129840476Y-155088704D01*
X129840476Y-155088704D02*
X129802381Y-155126800D01*
X129802381Y-155126800D02*
X129726190Y-155164895D01*
X129726190Y-155164895D02*
X129535714Y-155164895D01*
X129535714Y-155164895D02*
X129459524Y-155126800D01*
X129459524Y-155126800D02*
X129421428Y-155088704D01*
X130056800Y-137216667D02*
X130094895Y-137102381D01*
X130094895Y-137102381D02*
X130094895Y-136911905D01*
X130094895Y-136911905D02*
X130056800Y-136835714D01*
X130056800Y-136835714D02*
X130018704Y-136797619D01*
X130018704Y-136797619D02*
X129942514Y-136759524D01*
X129942514Y-136759524D02*
X129866323Y-136759524D01*
X129866323Y-136759524D02*
X129790133Y-136797619D01*
X129790133Y-136797619D02*
X129752038Y-136835714D01*
X129752038Y-136835714D02*
X129713942Y-136911905D01*
X129713942Y-136911905D02*
X129675847Y-137064286D01*
X129675847Y-137064286D02*
X129637752Y-137140476D01*
X129637752Y-137140476D02*
X129599657Y-137178571D01*
X129599657Y-137178571D02*
X129523466Y-137216667D01*
X129523466Y-137216667D02*
X129447276Y-137216667D01*
X129447276Y-137216667D02*
X129371085Y-137178571D01*
X129371085Y-137178571D02*
X129332990Y-137140476D01*
X129332990Y-137140476D02*
X129294895Y-137064286D01*
X129294895Y-137064286D02*
X129294895Y-136873809D01*
X129294895Y-136873809D02*
X129332990Y-136759524D01*
X129294895Y-136492857D02*
X130094895Y-136302381D01*
X130094895Y-136302381D02*
X129523466Y-136150000D01*
X129523466Y-136150000D02*
X130094895Y-135997619D01*
X130094895Y-135997619D02*
X129294895Y-135807143D01*
X130094895Y-135083333D02*
X130094895Y-135540476D01*
X130094895Y-135311904D02*
X129294895Y-135311904D01*
X129294895Y-135311904D02*
X129409180Y-135388095D01*
X129409180Y-135388095D02*
X129485371Y-135464285D01*
X129485371Y-135464285D02*
X129523466Y-135540476D01*
X118210476Y-151394895D02*
X118210476Y-152042514D01*
X118210476Y-152042514D02*
X118248571Y-152118704D01*
X118248571Y-152118704D02*
X118286666Y-152156800D01*
X118286666Y-152156800D02*
X118362857Y-152194895D01*
X118362857Y-152194895D02*
X118515238Y-152194895D01*
X118515238Y-152194895D02*
X118591428Y-152156800D01*
X118591428Y-152156800D02*
X118629523Y-152118704D01*
X118629523Y-152118704D02*
X118667619Y-152042514D01*
X118667619Y-152042514D02*
X118667619Y-151394895D01*
X119467618Y-152194895D02*
X119010475Y-152194895D01*
X119239047Y-152194895D02*
X119239047Y-151394895D01*
X119239047Y-151394895D02*
X119162856Y-151509180D01*
X119162856Y-151509180D02*
X119086666Y-151585371D01*
X119086666Y-151585371D02*
X119010475Y-151623466D01*
X134679616Y-130508704D02*
X134641520Y-130546800D01*
X134641520Y-130546800D02*
X134527235Y-130584895D01*
X134527235Y-130584895D02*
X134451044Y-130584895D01*
X134451044Y-130584895D02*
X134336758Y-130546800D01*
X134336758Y-130546800D02*
X134260568Y-130470609D01*
X134260568Y-130470609D02*
X134222473Y-130394419D01*
X134222473Y-130394419D02*
X134184377Y-130242038D01*
X134184377Y-130242038D02*
X134184377Y-130127752D01*
X134184377Y-130127752D02*
X134222473Y-129975371D01*
X134222473Y-129975371D02*
X134260568Y-129899180D01*
X134260568Y-129899180D02*
X134336758Y-129822990D01*
X134336758Y-129822990D02*
X134451044Y-129784895D01*
X134451044Y-129784895D02*
X134527235Y-129784895D01*
X134527235Y-129784895D02*
X134641520Y-129822990D01*
X134641520Y-129822990D02*
X134679616Y-129861085D01*
X135441520Y-130584895D02*
X134984377Y-130584895D01*
X135212949Y-130584895D02*
X135212949Y-129784895D01*
X135212949Y-129784895D02*
X135136758Y-129899180D01*
X135136758Y-129899180D02*
X135060568Y-129975371D01*
X135060568Y-129975371D02*
X134984377Y-130013466D01*
X135936759Y-129784895D02*
X136012949Y-129784895D01*
X136012949Y-129784895D02*
X136089140Y-129822990D01*
X136089140Y-129822990D02*
X136127235Y-129861085D01*
X136127235Y-129861085D02*
X136165330Y-129937276D01*
X136165330Y-129937276D02*
X136203425Y-130089657D01*
X136203425Y-130089657D02*
X136203425Y-130280133D01*
X136203425Y-130280133D02*
X136165330Y-130432514D01*
X136165330Y-130432514D02*
X136127235Y-130508704D01*
X136127235Y-130508704D02*
X136089140Y-130546800D01*
X136089140Y-130546800D02*
X136012949Y-130584895D01*
X136012949Y-130584895D02*
X135936759Y-130584895D01*
X135936759Y-130584895D02*
X135860568Y-130546800D01*
X135860568Y-130546800D02*
X135822473Y-130508704D01*
X135822473Y-130508704D02*
X135784378Y-130432514D01*
X135784378Y-130432514D02*
X135746282Y-130280133D01*
X135746282Y-130280133D02*
X135746282Y-130089657D01*
X135746282Y-130089657D02*
X135784378Y-129937276D01*
X135784378Y-129937276D02*
X135822473Y-129861085D01*
X135822473Y-129861085D02*
X135860568Y-129822990D01*
X135860568Y-129822990D02*
X135936759Y-129784895D01*
X120125104Y-147256667D02*
X120506057Y-146990000D01*
X120125104Y-146799524D02*
X120925104Y-146799524D01*
X120925104Y-146799524D02*
X120925104Y-147104286D01*
X120925104Y-147104286D02*
X120887009Y-147180476D01*
X120887009Y-147180476D02*
X120848914Y-147218571D01*
X120848914Y-147218571D02*
X120772723Y-147256667D01*
X120772723Y-147256667D02*
X120658438Y-147256667D01*
X120658438Y-147256667D02*
X120582247Y-147218571D01*
X120582247Y-147218571D02*
X120544152Y-147180476D01*
X120544152Y-147180476D02*
X120506057Y-147104286D01*
X120506057Y-147104286D02*
X120506057Y-146799524D01*
X120925104Y-147523333D02*
X120925104Y-148018571D01*
X120925104Y-148018571D02*
X120620342Y-147751905D01*
X120620342Y-147751905D02*
X120620342Y-147866190D01*
X120620342Y-147866190D02*
X120582247Y-147942381D01*
X120582247Y-147942381D02*
X120544152Y-147980476D01*
X120544152Y-147980476D02*
X120467961Y-148018571D01*
X120467961Y-148018571D02*
X120277485Y-148018571D01*
X120277485Y-148018571D02*
X120201295Y-147980476D01*
X120201295Y-147980476D02*
X120163200Y-147942381D01*
X120163200Y-147942381D02*
X120125104Y-147866190D01*
X120125104Y-147866190D02*
X120125104Y-147637619D01*
X120125104Y-147637619D02*
X120163200Y-147561428D01*
X120163200Y-147561428D02*
X120201295Y-147523333D01*
X140365714Y-143864895D02*
X140099047Y-143483942D01*
X139908571Y-143864895D02*
X139908571Y-143064895D01*
X139908571Y-143064895D02*
X140213333Y-143064895D01*
X140213333Y-143064895D02*
X140289523Y-143102990D01*
X140289523Y-143102990D02*
X140327618Y-143141085D01*
X140327618Y-143141085D02*
X140365714Y-143217276D01*
X140365714Y-143217276D02*
X140365714Y-143331561D01*
X140365714Y-143331561D02*
X140327618Y-143407752D01*
X140327618Y-143407752D02*
X140289523Y-143445847D01*
X140289523Y-143445847D02*
X140213333Y-143483942D01*
X140213333Y-143483942D02*
X139908571Y-143483942D01*
X140632380Y-143064895D02*
X141127618Y-143064895D01*
X141127618Y-143064895D02*
X140860952Y-143369657D01*
X140860952Y-143369657D02*
X140975237Y-143369657D01*
X140975237Y-143369657D02*
X141051428Y-143407752D01*
X141051428Y-143407752D02*
X141089523Y-143445847D01*
X141089523Y-143445847D02*
X141127618Y-143522038D01*
X141127618Y-143522038D02*
X141127618Y-143712514D01*
X141127618Y-143712514D02*
X141089523Y-143788704D01*
X141089523Y-143788704D02*
X141051428Y-143826800D01*
X141051428Y-143826800D02*
X140975237Y-143864895D01*
X140975237Y-143864895D02*
X140746666Y-143864895D01*
X140746666Y-143864895D02*
X140670475Y-143826800D01*
X140670475Y-143826800D02*
X140632380Y-143788704D01*
X141394285Y-143064895D02*
X141889523Y-143064895D01*
X141889523Y-143064895D02*
X141622857Y-143369657D01*
X141622857Y-143369657D02*
X141737142Y-143369657D01*
X141737142Y-143369657D02*
X141813333Y-143407752D01*
X141813333Y-143407752D02*
X141851428Y-143445847D01*
X141851428Y-143445847D02*
X141889523Y-143522038D01*
X141889523Y-143522038D02*
X141889523Y-143712514D01*
X141889523Y-143712514D02*
X141851428Y-143788704D01*
X141851428Y-143788704D02*
X141813333Y-143826800D01*
X141813333Y-143826800D02*
X141737142Y-143864895D01*
X141737142Y-143864895D02*
X141508571Y-143864895D01*
X141508571Y-143864895D02*
X141432380Y-143826800D01*
X141432380Y-143826800D02*
X141394285Y-143788704D01*
X145915714Y-150544895D02*
X145649047Y-150163942D01*
X145458571Y-150544895D02*
X145458571Y-149744895D01*
X145458571Y-149744895D02*
X145763333Y-149744895D01*
X145763333Y-149744895D02*
X145839523Y-149782990D01*
X145839523Y-149782990D02*
X145877618Y-149821085D01*
X145877618Y-149821085D02*
X145915714Y-149897276D01*
X145915714Y-149897276D02*
X145915714Y-150011561D01*
X145915714Y-150011561D02*
X145877618Y-150087752D01*
X145877618Y-150087752D02*
X145839523Y-150125847D01*
X145839523Y-150125847D02*
X145763333Y-150163942D01*
X145763333Y-150163942D02*
X145458571Y-150163942D01*
X146601428Y-150011561D02*
X146601428Y-150544895D01*
X146410952Y-149706800D02*
X146220475Y-150278228D01*
X146220475Y-150278228D02*
X146715714Y-150278228D01*
X146982380Y-149821085D02*
X147020476Y-149782990D01*
X147020476Y-149782990D02*
X147096666Y-149744895D01*
X147096666Y-149744895D02*
X147287142Y-149744895D01*
X147287142Y-149744895D02*
X147363333Y-149782990D01*
X147363333Y-149782990D02*
X147401428Y-149821085D01*
X147401428Y-149821085D02*
X147439523Y-149897276D01*
X147439523Y-149897276D02*
X147439523Y-149973466D01*
X147439523Y-149973466D02*
X147401428Y-150087752D01*
X147401428Y-150087752D02*
X146944285Y-150544895D01*
X146944285Y-150544895D02*
X147439523Y-150544895D01*
X111626667Y-150116204D02*
X111588571Y-150154300D01*
X111588571Y-150154300D02*
X111474286Y-150192395D01*
X111474286Y-150192395D02*
X111398095Y-150192395D01*
X111398095Y-150192395D02*
X111283809Y-150154300D01*
X111283809Y-150154300D02*
X111207619Y-150078109D01*
X111207619Y-150078109D02*
X111169524Y-150001919D01*
X111169524Y-150001919D02*
X111131428Y-149849538D01*
X111131428Y-149849538D02*
X111131428Y-149735252D01*
X111131428Y-149735252D02*
X111169524Y-149582871D01*
X111169524Y-149582871D02*
X111207619Y-149506680D01*
X111207619Y-149506680D02*
X111283809Y-149430490D01*
X111283809Y-149430490D02*
X111398095Y-149392395D01*
X111398095Y-149392395D02*
X111474286Y-149392395D01*
X111474286Y-149392395D02*
X111588571Y-149430490D01*
X111588571Y-149430490D02*
X111626667Y-149468585D01*
X111931428Y-149468585D02*
X111969524Y-149430490D01*
X111969524Y-149430490D02*
X112045714Y-149392395D01*
X112045714Y-149392395D02*
X112236190Y-149392395D01*
X112236190Y-149392395D02*
X112312381Y-149430490D01*
X112312381Y-149430490D02*
X112350476Y-149468585D01*
X112350476Y-149468585D02*
X112388571Y-149544776D01*
X112388571Y-149544776D02*
X112388571Y-149620966D01*
X112388571Y-149620966D02*
X112350476Y-149735252D01*
X112350476Y-149735252D02*
X111893333Y-150192395D01*
X111893333Y-150192395D02*
X112388571Y-150192395D01*
X131005714Y-146144895D02*
X130739047Y-145763942D01*
X130548571Y-146144895D02*
X130548571Y-145344895D01*
X130548571Y-145344895D02*
X130853333Y-145344895D01*
X130853333Y-145344895D02*
X130929523Y-145382990D01*
X130929523Y-145382990D02*
X130967618Y-145421085D01*
X130967618Y-145421085D02*
X131005714Y-145497276D01*
X131005714Y-145497276D02*
X131005714Y-145611561D01*
X131005714Y-145611561D02*
X130967618Y-145687752D01*
X130967618Y-145687752D02*
X130929523Y-145725847D01*
X130929523Y-145725847D02*
X130853333Y-145763942D01*
X130853333Y-145763942D02*
X130548571Y-145763942D01*
X131272380Y-145344895D02*
X131767618Y-145344895D01*
X131767618Y-145344895D02*
X131500952Y-145649657D01*
X131500952Y-145649657D02*
X131615237Y-145649657D01*
X131615237Y-145649657D02*
X131691428Y-145687752D01*
X131691428Y-145687752D02*
X131729523Y-145725847D01*
X131729523Y-145725847D02*
X131767618Y-145802038D01*
X131767618Y-145802038D02*
X131767618Y-145992514D01*
X131767618Y-145992514D02*
X131729523Y-146068704D01*
X131729523Y-146068704D02*
X131691428Y-146106800D01*
X131691428Y-146106800D02*
X131615237Y-146144895D01*
X131615237Y-146144895D02*
X131386666Y-146144895D01*
X131386666Y-146144895D02*
X131310475Y-146106800D01*
X131310475Y-146106800D02*
X131272380Y-146068704D01*
X132529523Y-146144895D02*
X132072380Y-146144895D01*
X132300952Y-146144895D02*
X132300952Y-145344895D01*
X132300952Y-145344895D02*
X132224761Y-145459180D01*
X132224761Y-145459180D02*
X132148571Y-145535371D01*
X132148571Y-145535371D02*
X132072380Y-145573466D01*
X145925714Y-149344895D02*
X145659047Y-148963942D01*
X145468571Y-149344895D02*
X145468571Y-148544895D01*
X145468571Y-148544895D02*
X145773333Y-148544895D01*
X145773333Y-148544895D02*
X145849523Y-148582990D01*
X145849523Y-148582990D02*
X145887618Y-148621085D01*
X145887618Y-148621085D02*
X145925714Y-148697276D01*
X145925714Y-148697276D02*
X145925714Y-148811561D01*
X145925714Y-148811561D02*
X145887618Y-148887752D01*
X145887618Y-148887752D02*
X145849523Y-148925847D01*
X145849523Y-148925847D02*
X145773333Y-148963942D01*
X145773333Y-148963942D02*
X145468571Y-148963942D01*
X146611428Y-148811561D02*
X146611428Y-149344895D01*
X146420952Y-148506800D02*
X146230475Y-149078228D01*
X146230475Y-149078228D02*
X146725714Y-149078228D01*
X146954285Y-148544895D02*
X147449523Y-148544895D01*
X147449523Y-148544895D02*
X147182857Y-148849657D01*
X147182857Y-148849657D02*
X147297142Y-148849657D01*
X147297142Y-148849657D02*
X147373333Y-148887752D01*
X147373333Y-148887752D02*
X147411428Y-148925847D01*
X147411428Y-148925847D02*
X147449523Y-149002038D01*
X147449523Y-149002038D02*
X147449523Y-149192514D01*
X147449523Y-149192514D02*
X147411428Y-149268704D01*
X147411428Y-149268704D02*
X147373333Y-149306800D01*
X147373333Y-149306800D02*
X147297142Y-149344895D01*
X147297142Y-149344895D02*
X147068571Y-149344895D01*
X147068571Y-149344895D02*
X146992380Y-149306800D01*
X146992380Y-149306800D02*
X146954285Y-149268704D01*
X123425104Y-143235714D02*
X123806057Y-142969047D01*
X123425104Y-142778571D02*
X124225104Y-142778571D01*
X124225104Y-142778571D02*
X124225104Y-143083333D01*
X124225104Y-143083333D02*
X124187009Y-143159523D01*
X124187009Y-143159523D02*
X124148914Y-143197618D01*
X124148914Y-143197618D02*
X124072723Y-143235714D01*
X124072723Y-143235714D02*
X123958438Y-143235714D01*
X123958438Y-143235714D02*
X123882247Y-143197618D01*
X123882247Y-143197618D02*
X123844152Y-143159523D01*
X123844152Y-143159523D02*
X123806057Y-143083333D01*
X123806057Y-143083333D02*
X123806057Y-142778571D01*
X124225104Y-143959523D02*
X124225104Y-143578571D01*
X124225104Y-143578571D02*
X123844152Y-143540475D01*
X123844152Y-143540475D02*
X123882247Y-143578571D01*
X123882247Y-143578571D02*
X123920342Y-143654761D01*
X123920342Y-143654761D02*
X123920342Y-143845237D01*
X123920342Y-143845237D02*
X123882247Y-143921428D01*
X123882247Y-143921428D02*
X123844152Y-143959523D01*
X123844152Y-143959523D02*
X123767961Y-143997618D01*
X123767961Y-143997618D02*
X123577485Y-143997618D01*
X123577485Y-143997618D02*
X123501295Y-143959523D01*
X123501295Y-143959523D02*
X123463200Y-143921428D01*
X123463200Y-143921428D02*
X123425104Y-143845237D01*
X123425104Y-143845237D02*
X123425104Y-143654761D01*
X123425104Y-143654761D02*
X123463200Y-143578571D01*
X123463200Y-143578571D02*
X123501295Y-143540475D01*
X124225104Y-144492857D02*
X124225104Y-144569047D01*
X124225104Y-144569047D02*
X124187009Y-144645238D01*
X124187009Y-144645238D02*
X124148914Y-144683333D01*
X124148914Y-144683333D02*
X124072723Y-144721428D01*
X124072723Y-144721428D02*
X123920342Y-144759523D01*
X123920342Y-144759523D02*
X123729866Y-144759523D01*
X123729866Y-144759523D02*
X123577485Y-144721428D01*
X123577485Y-144721428D02*
X123501295Y-144683333D01*
X123501295Y-144683333D02*
X123463200Y-144645238D01*
X123463200Y-144645238D02*
X123425104Y-144569047D01*
X123425104Y-144569047D02*
X123425104Y-144492857D01*
X123425104Y-144492857D02*
X123463200Y-144416666D01*
X123463200Y-144416666D02*
X123501295Y-144378571D01*
X123501295Y-144378571D02*
X123577485Y-144340476D01*
X123577485Y-144340476D02*
X123729866Y-144302380D01*
X123729866Y-144302380D02*
X123920342Y-144302380D01*
X123920342Y-144302380D02*
X124072723Y-144340476D01*
X124072723Y-144340476D02*
X124148914Y-144378571D01*
X124148914Y-144378571D02*
X124187009Y-144416666D01*
X124187009Y-144416666D02*
X124225104Y-144492857D01*
X126026667Y-148734895D02*
X125760000Y-148353942D01*
X125569524Y-148734895D02*
X125569524Y-147934895D01*
X125569524Y-147934895D02*
X125874286Y-147934895D01*
X125874286Y-147934895D02*
X125950476Y-147972990D01*
X125950476Y-147972990D02*
X125988571Y-148011085D01*
X125988571Y-148011085D02*
X126026667Y-148087276D01*
X126026667Y-148087276D02*
X126026667Y-148201561D01*
X126026667Y-148201561D02*
X125988571Y-148277752D01*
X125988571Y-148277752D02*
X125950476Y-148315847D01*
X125950476Y-148315847D02*
X125874286Y-148353942D01*
X125874286Y-148353942D02*
X125569524Y-148353942D01*
X126712381Y-147934895D02*
X126560000Y-147934895D01*
X126560000Y-147934895D02*
X126483809Y-147972990D01*
X126483809Y-147972990D02*
X126445714Y-148011085D01*
X126445714Y-148011085D02*
X126369524Y-148125371D01*
X126369524Y-148125371D02*
X126331428Y-148277752D01*
X126331428Y-148277752D02*
X126331428Y-148582514D01*
X126331428Y-148582514D02*
X126369524Y-148658704D01*
X126369524Y-148658704D02*
X126407619Y-148696800D01*
X126407619Y-148696800D02*
X126483809Y-148734895D01*
X126483809Y-148734895D02*
X126636190Y-148734895D01*
X126636190Y-148734895D02*
X126712381Y-148696800D01*
X126712381Y-148696800D02*
X126750476Y-148658704D01*
X126750476Y-148658704D02*
X126788571Y-148582514D01*
X126788571Y-148582514D02*
X126788571Y-148392038D01*
X126788571Y-148392038D02*
X126750476Y-148315847D01*
X126750476Y-148315847D02*
X126712381Y-148277752D01*
X126712381Y-148277752D02*
X126636190Y-148239657D01*
X126636190Y-148239657D02*
X126483809Y-148239657D01*
X126483809Y-148239657D02*
X126407619Y-148277752D01*
X126407619Y-148277752D02*
X126369524Y-148315847D01*
X126369524Y-148315847D02*
X126331428Y-148392038D01*
X119101667Y-140283704D02*
X119063571Y-140321800D01*
X119063571Y-140321800D02*
X118949286Y-140359895D01*
X118949286Y-140359895D02*
X118873095Y-140359895D01*
X118873095Y-140359895D02*
X118758809Y-140321800D01*
X118758809Y-140321800D02*
X118682619Y-140245609D01*
X118682619Y-140245609D02*
X118644524Y-140169419D01*
X118644524Y-140169419D02*
X118606428Y-140017038D01*
X118606428Y-140017038D02*
X118606428Y-139902752D01*
X118606428Y-139902752D02*
X118644524Y-139750371D01*
X118644524Y-139750371D02*
X118682619Y-139674180D01*
X118682619Y-139674180D02*
X118758809Y-139597990D01*
X118758809Y-139597990D02*
X118873095Y-139559895D01*
X118873095Y-139559895D02*
X118949286Y-139559895D01*
X118949286Y-139559895D02*
X119063571Y-139597990D01*
X119063571Y-139597990D02*
X119101667Y-139636085D01*
X119825476Y-139559895D02*
X119444524Y-139559895D01*
X119444524Y-139559895D02*
X119406428Y-139940847D01*
X119406428Y-139940847D02*
X119444524Y-139902752D01*
X119444524Y-139902752D02*
X119520714Y-139864657D01*
X119520714Y-139864657D02*
X119711190Y-139864657D01*
X119711190Y-139864657D02*
X119787381Y-139902752D01*
X119787381Y-139902752D02*
X119825476Y-139940847D01*
X119825476Y-139940847D02*
X119863571Y-140017038D01*
X119863571Y-140017038D02*
X119863571Y-140207514D01*
X119863571Y-140207514D02*
X119825476Y-140283704D01*
X119825476Y-140283704D02*
X119787381Y-140321800D01*
X119787381Y-140321800D02*
X119711190Y-140359895D01*
X119711190Y-140359895D02*
X119520714Y-140359895D01*
X119520714Y-140359895D02*
X119444524Y-140321800D01*
X119444524Y-140321800D02*
X119406428Y-140283704D01*
X142405714Y-145184895D02*
X142139047Y-144803942D01*
X141948571Y-145184895D02*
X141948571Y-144384895D01*
X141948571Y-144384895D02*
X142253333Y-144384895D01*
X142253333Y-144384895D02*
X142329523Y-144422990D01*
X142329523Y-144422990D02*
X142367618Y-144461085D01*
X142367618Y-144461085D02*
X142405714Y-144537276D01*
X142405714Y-144537276D02*
X142405714Y-144651561D01*
X142405714Y-144651561D02*
X142367618Y-144727752D01*
X142367618Y-144727752D02*
X142329523Y-144765847D01*
X142329523Y-144765847D02*
X142253333Y-144803942D01*
X142253333Y-144803942D02*
X141948571Y-144803942D01*
X142710475Y-144461085D02*
X142748571Y-144422990D01*
X142748571Y-144422990D02*
X142824761Y-144384895D01*
X142824761Y-144384895D02*
X143015237Y-144384895D01*
X143015237Y-144384895D02*
X143091428Y-144422990D01*
X143091428Y-144422990D02*
X143129523Y-144461085D01*
X143129523Y-144461085D02*
X143167618Y-144537276D01*
X143167618Y-144537276D02*
X143167618Y-144613466D01*
X143167618Y-144613466D02*
X143129523Y-144727752D01*
X143129523Y-144727752D02*
X142672380Y-145184895D01*
X142672380Y-145184895D02*
X143167618Y-145184895D01*
X143929523Y-145184895D02*
X143472380Y-145184895D01*
X143700952Y-145184895D02*
X143700952Y-144384895D01*
X143700952Y-144384895D02*
X143624761Y-144499180D01*
X143624761Y-144499180D02*
X143548571Y-144575371D01*
X143548571Y-144575371D02*
X143472380Y-144613466D01*
X150611905Y-134154895D02*
X150345238Y-133773942D01*
X150154762Y-134154895D02*
X150154762Y-133354895D01*
X150154762Y-133354895D02*
X150459524Y-133354895D01*
X150459524Y-133354895D02*
X150535714Y-133392990D01*
X150535714Y-133392990D02*
X150573809Y-133431085D01*
X150573809Y-133431085D02*
X150611905Y-133507276D01*
X150611905Y-133507276D02*
X150611905Y-133621561D01*
X150611905Y-133621561D02*
X150573809Y-133697752D01*
X150573809Y-133697752D02*
X150535714Y-133735847D01*
X150535714Y-133735847D02*
X150459524Y-133773942D01*
X150459524Y-133773942D02*
X150154762Y-133773942D01*
X150840476Y-133354895D02*
X151297619Y-133354895D01*
X151069047Y-134154895D02*
X151069047Y-133354895D01*
X151983333Y-134154895D02*
X151526190Y-134154895D01*
X151754762Y-134154895D02*
X151754762Y-133354895D01*
X151754762Y-133354895D02*
X151678571Y-133469180D01*
X151678571Y-133469180D02*
X151602381Y-133545371D01*
X151602381Y-133545371D02*
X151526190Y-133583466D01*
X122751667Y-136483704D02*
X122713571Y-136521800D01*
X122713571Y-136521800D02*
X122599286Y-136559895D01*
X122599286Y-136559895D02*
X122523095Y-136559895D01*
X122523095Y-136559895D02*
X122408809Y-136521800D01*
X122408809Y-136521800D02*
X122332619Y-136445609D01*
X122332619Y-136445609D02*
X122294524Y-136369419D01*
X122294524Y-136369419D02*
X122256428Y-136217038D01*
X122256428Y-136217038D02*
X122256428Y-136102752D01*
X122256428Y-136102752D02*
X122294524Y-135950371D01*
X122294524Y-135950371D02*
X122332619Y-135874180D01*
X122332619Y-135874180D02*
X122408809Y-135797990D01*
X122408809Y-135797990D02*
X122523095Y-135759895D01*
X122523095Y-135759895D02*
X122599286Y-135759895D01*
X122599286Y-135759895D02*
X122713571Y-135797990D01*
X122713571Y-135797990D02*
X122751667Y-135836085D01*
X123437381Y-135759895D02*
X123285000Y-135759895D01*
X123285000Y-135759895D02*
X123208809Y-135797990D01*
X123208809Y-135797990D02*
X123170714Y-135836085D01*
X123170714Y-135836085D02*
X123094524Y-135950371D01*
X123094524Y-135950371D02*
X123056428Y-136102752D01*
X123056428Y-136102752D02*
X123056428Y-136407514D01*
X123056428Y-136407514D02*
X123094524Y-136483704D01*
X123094524Y-136483704D02*
X123132619Y-136521800D01*
X123132619Y-136521800D02*
X123208809Y-136559895D01*
X123208809Y-136559895D02*
X123361190Y-136559895D01*
X123361190Y-136559895D02*
X123437381Y-136521800D01*
X123437381Y-136521800D02*
X123475476Y-136483704D01*
X123475476Y-136483704D02*
X123513571Y-136407514D01*
X123513571Y-136407514D02*
X123513571Y-136217038D01*
X123513571Y-136217038D02*
X123475476Y-136140847D01*
X123475476Y-136140847D02*
X123437381Y-136102752D01*
X123437381Y-136102752D02*
X123361190Y-136064657D01*
X123361190Y-136064657D02*
X123208809Y-136064657D01*
X123208809Y-136064657D02*
X123132619Y-136102752D01*
X123132619Y-136102752D02*
X123094524Y-136140847D01*
X123094524Y-136140847D02*
X123056428Y-136217038D01*
X148052380Y-151254895D02*
X148052380Y-151826323D01*
X148052380Y-151826323D02*
X148014285Y-151940609D01*
X148014285Y-151940609D02*
X147938094Y-152016800D01*
X147938094Y-152016800D02*
X147823809Y-152054895D01*
X147823809Y-152054895D02*
X147747618Y-152054895D01*
X148852380Y-152054895D02*
X148395237Y-152054895D01*
X148623809Y-152054895D02*
X148623809Y-151254895D01*
X148623809Y-151254895D02*
X148547618Y-151369180D01*
X148547618Y-151369180D02*
X148471428Y-151445371D01*
X148471428Y-151445371D02*
X148395237Y-151483466D01*
X149347619Y-151254895D02*
X149423809Y-151254895D01*
X149423809Y-151254895D02*
X149500000Y-151292990D01*
X149500000Y-151292990D02*
X149538095Y-151331085D01*
X149538095Y-151331085D02*
X149576190Y-151407276D01*
X149576190Y-151407276D02*
X149614285Y-151559657D01*
X149614285Y-151559657D02*
X149614285Y-151750133D01*
X149614285Y-151750133D02*
X149576190Y-151902514D01*
X149576190Y-151902514D02*
X149538095Y-151978704D01*
X149538095Y-151978704D02*
X149500000Y-152016800D01*
X149500000Y-152016800D02*
X149423809Y-152054895D01*
X149423809Y-152054895D02*
X149347619Y-152054895D01*
X149347619Y-152054895D02*
X149271428Y-152016800D01*
X149271428Y-152016800D02*
X149233333Y-151978704D01*
X149233333Y-151978704D02*
X149195238Y-151902514D01*
X149195238Y-151902514D02*
X149157142Y-151750133D01*
X149157142Y-151750133D02*
X149157142Y-151559657D01*
X149157142Y-151559657D02*
X149195238Y-151407276D01*
X149195238Y-151407276D02*
X149233333Y-151331085D01*
X149233333Y-151331085D02*
X149271428Y-151292990D01*
X149271428Y-151292990D02*
X149347619Y-151254895D01*
X136245104Y-146745714D02*
X136626057Y-146479047D01*
X136245104Y-146288571D02*
X137045104Y-146288571D01*
X137045104Y-146288571D02*
X137045104Y-146593333D01*
X137045104Y-146593333D02*
X137007009Y-146669523D01*
X137007009Y-146669523D02*
X136968914Y-146707618D01*
X136968914Y-146707618D02*
X136892723Y-146745714D01*
X136892723Y-146745714D02*
X136778438Y-146745714D01*
X136778438Y-146745714D02*
X136702247Y-146707618D01*
X136702247Y-146707618D02*
X136664152Y-146669523D01*
X136664152Y-146669523D02*
X136626057Y-146593333D01*
X136626057Y-146593333D02*
X136626057Y-146288571D01*
X137045104Y-147012380D02*
X137045104Y-147507618D01*
X137045104Y-147507618D02*
X136740342Y-147240952D01*
X136740342Y-147240952D02*
X136740342Y-147355237D01*
X136740342Y-147355237D02*
X136702247Y-147431428D01*
X136702247Y-147431428D02*
X136664152Y-147469523D01*
X136664152Y-147469523D02*
X136587961Y-147507618D01*
X136587961Y-147507618D02*
X136397485Y-147507618D01*
X136397485Y-147507618D02*
X136321295Y-147469523D01*
X136321295Y-147469523D02*
X136283200Y-147431428D01*
X136283200Y-147431428D02*
X136245104Y-147355237D01*
X136245104Y-147355237D02*
X136245104Y-147126666D01*
X136245104Y-147126666D02*
X136283200Y-147050475D01*
X136283200Y-147050475D02*
X136321295Y-147012380D01*
X137045104Y-148002857D02*
X137045104Y-148079047D01*
X137045104Y-148079047D02*
X137007009Y-148155238D01*
X137007009Y-148155238D02*
X136968914Y-148193333D01*
X136968914Y-148193333D02*
X136892723Y-148231428D01*
X136892723Y-148231428D02*
X136740342Y-148269523D01*
X136740342Y-148269523D02*
X136549866Y-148269523D01*
X136549866Y-148269523D02*
X136397485Y-148231428D01*
X136397485Y-148231428D02*
X136321295Y-148193333D01*
X136321295Y-148193333D02*
X136283200Y-148155238D01*
X136283200Y-148155238D02*
X136245104Y-148079047D01*
X136245104Y-148079047D02*
X136245104Y-148002857D01*
X136245104Y-148002857D02*
X136283200Y-147926666D01*
X136283200Y-147926666D02*
X136321295Y-147888571D01*
X136321295Y-147888571D02*
X136397485Y-147850476D01*
X136397485Y-147850476D02*
X136549866Y-147812380D01*
X136549866Y-147812380D02*
X136740342Y-147812380D01*
X136740342Y-147812380D02*
X136892723Y-147850476D01*
X136892723Y-147850476D02*
X136968914Y-147888571D01*
X136968914Y-147888571D02*
X137007009Y-147926666D01*
X137007009Y-147926666D02*
X137045104Y-148002857D01*
X115186295Y-137854167D02*
X115148200Y-137816071D01*
X115148200Y-137816071D02*
X115110104Y-137701786D01*
X115110104Y-137701786D02*
X115110104Y-137625595D01*
X115110104Y-137625595D02*
X115148200Y-137511309D01*
X115148200Y-137511309D02*
X115224390Y-137435119D01*
X115224390Y-137435119D02*
X115300580Y-137397024D01*
X115300580Y-137397024D02*
X115452961Y-137358928D01*
X115452961Y-137358928D02*
X115567247Y-137358928D01*
X115567247Y-137358928D02*
X115719628Y-137397024D01*
X115719628Y-137397024D02*
X115795819Y-137435119D01*
X115795819Y-137435119D02*
X115872009Y-137511309D01*
X115872009Y-137511309D02*
X115910104Y-137625595D01*
X115910104Y-137625595D02*
X115910104Y-137701786D01*
X115910104Y-137701786D02*
X115872009Y-137816071D01*
X115872009Y-137816071D02*
X115833914Y-137854167D01*
X115643438Y-138539881D02*
X115110104Y-138539881D01*
X115948200Y-138349405D02*
X115376771Y-138158928D01*
X115376771Y-138158928D02*
X115376771Y-138654167D01*
X150075714Y-142304895D02*
X149809047Y-141923942D01*
X149618571Y-142304895D02*
X149618571Y-141504895D01*
X149618571Y-141504895D02*
X149923333Y-141504895D01*
X149923333Y-141504895D02*
X149999523Y-141542990D01*
X149999523Y-141542990D02*
X150037618Y-141581085D01*
X150037618Y-141581085D02*
X150075714Y-141657276D01*
X150075714Y-141657276D02*
X150075714Y-141771561D01*
X150075714Y-141771561D02*
X150037618Y-141847752D01*
X150037618Y-141847752D02*
X149999523Y-141885847D01*
X149999523Y-141885847D02*
X149923333Y-141923942D01*
X149923333Y-141923942D02*
X149618571Y-141923942D01*
X150761428Y-141771561D02*
X150761428Y-142304895D01*
X150570952Y-141466800D02*
X150380475Y-142038228D01*
X150380475Y-142038228D02*
X150875714Y-142038228D01*
X151599523Y-142304895D02*
X151142380Y-142304895D01*
X151370952Y-142304895D02*
X151370952Y-141504895D01*
X151370952Y-141504895D02*
X151294761Y-141619180D01*
X151294761Y-141619180D02*
X151218571Y-141695371D01*
X151218571Y-141695371D02*
X151142380Y-141733466D01*
X111906667Y-142023704D02*
X111868571Y-142061800D01*
X111868571Y-142061800D02*
X111754286Y-142099895D01*
X111754286Y-142099895D02*
X111678095Y-142099895D01*
X111678095Y-142099895D02*
X111563809Y-142061800D01*
X111563809Y-142061800D02*
X111487619Y-141985609D01*
X111487619Y-141985609D02*
X111449524Y-141909419D01*
X111449524Y-141909419D02*
X111411428Y-141757038D01*
X111411428Y-141757038D02*
X111411428Y-141642752D01*
X111411428Y-141642752D02*
X111449524Y-141490371D01*
X111449524Y-141490371D02*
X111487619Y-141414180D01*
X111487619Y-141414180D02*
X111563809Y-141337990D01*
X111563809Y-141337990D02*
X111678095Y-141299895D01*
X111678095Y-141299895D02*
X111754286Y-141299895D01*
X111754286Y-141299895D02*
X111868571Y-141337990D01*
X111868571Y-141337990D02*
X111906667Y-141376085D01*
X112173333Y-141299895D02*
X112668571Y-141299895D01*
X112668571Y-141299895D02*
X112401905Y-141604657D01*
X112401905Y-141604657D02*
X112516190Y-141604657D01*
X112516190Y-141604657D02*
X112592381Y-141642752D01*
X112592381Y-141642752D02*
X112630476Y-141680847D01*
X112630476Y-141680847D02*
X112668571Y-141757038D01*
X112668571Y-141757038D02*
X112668571Y-141947514D01*
X112668571Y-141947514D02*
X112630476Y-142023704D01*
X112630476Y-142023704D02*
X112592381Y-142061800D01*
X112592381Y-142061800D02*
X112516190Y-142099895D01*
X112516190Y-142099895D02*
X112287619Y-142099895D01*
X112287619Y-142099895D02*
X112211428Y-142061800D01*
X112211428Y-142061800D02*
X112173333Y-142023704D01*
X128851295Y-145735714D02*
X128813200Y-145697618D01*
X128813200Y-145697618D02*
X128775104Y-145583333D01*
X128775104Y-145583333D02*
X128775104Y-145507142D01*
X128775104Y-145507142D02*
X128813200Y-145392856D01*
X128813200Y-145392856D02*
X128889390Y-145316666D01*
X128889390Y-145316666D02*
X128965580Y-145278571D01*
X128965580Y-145278571D02*
X129117961Y-145240475D01*
X129117961Y-145240475D02*
X129232247Y-145240475D01*
X129232247Y-145240475D02*
X129384628Y-145278571D01*
X129384628Y-145278571D02*
X129460819Y-145316666D01*
X129460819Y-145316666D02*
X129537009Y-145392856D01*
X129537009Y-145392856D02*
X129575104Y-145507142D01*
X129575104Y-145507142D02*
X129575104Y-145583333D01*
X129575104Y-145583333D02*
X129537009Y-145697618D01*
X129537009Y-145697618D02*
X129498914Y-145735714D01*
X129575104Y-146002380D02*
X129575104Y-146497618D01*
X129575104Y-146497618D02*
X129270342Y-146230952D01*
X129270342Y-146230952D02*
X129270342Y-146345237D01*
X129270342Y-146345237D02*
X129232247Y-146421428D01*
X129232247Y-146421428D02*
X129194152Y-146459523D01*
X129194152Y-146459523D02*
X129117961Y-146497618D01*
X129117961Y-146497618D02*
X128927485Y-146497618D01*
X128927485Y-146497618D02*
X128851295Y-146459523D01*
X128851295Y-146459523D02*
X128813200Y-146421428D01*
X128813200Y-146421428D02*
X128775104Y-146345237D01*
X128775104Y-146345237D02*
X128775104Y-146116666D01*
X128775104Y-146116666D02*
X128813200Y-146040475D01*
X128813200Y-146040475D02*
X128851295Y-146002380D01*
X129575104Y-146764285D02*
X129575104Y-147259523D01*
X129575104Y-147259523D02*
X129270342Y-146992857D01*
X129270342Y-146992857D02*
X129270342Y-147107142D01*
X129270342Y-147107142D02*
X129232247Y-147183333D01*
X129232247Y-147183333D02*
X129194152Y-147221428D01*
X129194152Y-147221428D02*
X129117961Y-147259523D01*
X129117961Y-147259523D02*
X128927485Y-147259523D01*
X128927485Y-147259523D02*
X128851295Y-147221428D01*
X128851295Y-147221428D02*
X128813200Y-147183333D01*
X128813200Y-147183333D02*
X128775104Y-147107142D01*
X128775104Y-147107142D02*
X128775104Y-146878571D01*
X128775104Y-146878571D02*
X128813200Y-146802380D01*
X128813200Y-146802380D02*
X128851295Y-146764285D01*
X144805714Y-151498704D02*
X144767618Y-151536800D01*
X144767618Y-151536800D02*
X144653333Y-151574895D01*
X144653333Y-151574895D02*
X144577142Y-151574895D01*
X144577142Y-151574895D02*
X144462856Y-151536800D01*
X144462856Y-151536800D02*
X144386666Y-151460609D01*
X144386666Y-151460609D02*
X144348571Y-151384419D01*
X144348571Y-151384419D02*
X144310475Y-151232038D01*
X144310475Y-151232038D02*
X144310475Y-151117752D01*
X144310475Y-151117752D02*
X144348571Y-150965371D01*
X144348571Y-150965371D02*
X144386666Y-150889180D01*
X144386666Y-150889180D02*
X144462856Y-150812990D01*
X144462856Y-150812990D02*
X144577142Y-150774895D01*
X144577142Y-150774895D02*
X144653333Y-150774895D01*
X144653333Y-150774895D02*
X144767618Y-150812990D01*
X144767618Y-150812990D02*
X144805714Y-150851085D01*
X145567618Y-151574895D02*
X145110475Y-151574895D01*
X145339047Y-151574895D02*
X145339047Y-150774895D01*
X145339047Y-150774895D02*
X145262856Y-150889180D01*
X145262856Y-150889180D02*
X145186666Y-150965371D01*
X145186666Y-150965371D02*
X145110475Y-151003466D01*
X145834285Y-150774895D02*
X146329523Y-150774895D01*
X146329523Y-150774895D02*
X146062857Y-151079657D01*
X146062857Y-151079657D02*
X146177142Y-151079657D01*
X146177142Y-151079657D02*
X146253333Y-151117752D01*
X146253333Y-151117752D02*
X146291428Y-151155847D01*
X146291428Y-151155847D02*
X146329523Y-151232038D01*
X146329523Y-151232038D02*
X146329523Y-151422514D01*
X146329523Y-151422514D02*
X146291428Y-151498704D01*
X146291428Y-151498704D02*
X146253333Y-151536800D01*
X146253333Y-151536800D02*
X146177142Y-151574895D01*
X146177142Y-151574895D02*
X145948571Y-151574895D01*
X145948571Y-151574895D02*
X145872380Y-151536800D01*
X145872380Y-151536800D02*
X145834285Y-151498704D01*
D12*
X119455000Y-150351252D02*
X119455000Y-149828748D01*
X120925000Y-150351252D02*
X120925000Y-149828748D01*
X114755000Y-145967064D02*
X114755000Y-145512936D01*
X116225000Y-145967064D02*
X116225000Y-145512936D01*
X154204724Y-142827500D02*
X153695276Y-142827500D01*
X154204724Y-143872500D02*
X153695276Y-143872500D01*
X153653733Y-132980000D02*
X153946267Y-132980000D01*
X153653733Y-134000000D02*
X153946267Y-134000000D01*
X145975000Y-144625000D02*
X145975000Y-146625000D01*
X148975000Y-144625000D02*
X148975000Y-146625000D01*
X115100000Y-139092500D02*
X115100000Y-136372500D01*
X117870000Y-136372500D02*
X117870000Y-139092500D01*
X117485000Y-135842500D02*
X117245000Y-135512500D01*
X117725000Y-135512500D01*
X117485000Y-135842500D01*
G36*
X117485000Y-135842500D02*
G01*
X117245000Y-135512500D01*
X117725000Y-135512500D01*
X117485000Y-135842500D01*
G37*
X139242500Y-148187936D02*
X139242500Y-148642064D01*
X140712500Y-148187936D02*
X140712500Y-148642064D01*
X151680000Y-145130000D02*
X151680000Y-156030000D01*
X151680000Y-147480000D02*
X152180000Y-147480000D01*
X151680000Y-147580000D02*
X152180000Y-147580000D01*
X151680000Y-149480000D02*
X152180000Y-149480000D01*
X151680000Y-149580000D02*
X152180000Y-149580000D01*
X151680000Y-151480000D02*
X152180000Y-151480000D01*
X151680000Y-151580000D02*
X152180000Y-151580000D01*
X151680000Y-153480000D02*
X152180000Y-153480000D01*
X151680000Y-153580000D02*
X152180000Y-153580000D01*
X151680000Y-156030000D02*
X155180000Y-156030000D01*
X152180000Y-147480000D02*
X152180000Y-147680000D01*
X152180000Y-147680000D02*
X151680000Y-147680000D01*
X152180000Y-149480000D02*
X152180000Y-149680000D01*
X152180000Y-149680000D02*
X151680000Y-149680000D01*
X152180000Y-151480000D02*
X152180000Y-151680000D01*
X152180000Y-151680000D02*
X151680000Y-151680000D01*
X152180000Y-153480000D02*
X152180000Y-153680000D01*
X152180000Y-153680000D02*
X151680000Y-153680000D01*
X155180000Y-145130000D02*
X151680000Y-145130000D01*
X155180000Y-147080000D02*
X155180000Y-145130000D01*
X155180000Y-154080000D02*
X155790000Y-154080000D01*
X155180000Y-156030000D02*
X155180000Y-154080000D01*
X155790000Y-147080000D02*
X155180000Y-147080000D01*
X137770000Y-149533733D02*
X137770000Y-149826267D01*
X138790000Y-149533733D02*
X138790000Y-149826267D01*
X141217500Y-148187936D02*
X141217500Y-148642064D01*
X142687500Y-148187936D02*
X142687500Y-148642064D01*
X151742936Y-131055000D02*
X152197064Y-131055000D01*
X151742936Y-132525000D02*
X152197064Y-132525000D01*
X135481098Y-132325000D02*
X135145098Y-132565000D01*
X135145098Y-132085000D01*
X135481098Y-132325000D01*
G36*
X135481098Y-132325000D02*
G01*
X135145098Y-132565000D01*
X135145098Y-132085000D01*
X135481098Y-132325000D01*
G37*
X123250000Y-138310000D02*
X123250000Y-139560000D01*
X123250000Y-139560000D02*
X124500000Y-139560000D01*
X123350000Y-137500000D02*
X123350000Y-137800000D01*
X123350000Y-137800000D02*
X123550000Y-137800000D01*
X123450000Y-137500000D02*
X123450000Y-137800000D01*
X123550000Y-136700000D02*
X124160000Y-136700000D01*
X123550000Y-137500000D02*
X123350000Y-137500000D01*
X124160000Y-131750000D02*
X124160000Y-133700000D01*
X124160000Y-133700000D02*
X123550000Y-133700000D01*
X124160000Y-136700000D02*
X124160000Y-138650000D01*
X124160000Y-138650000D02*
X127660000Y-138650000D01*
X124860000Y-131140000D02*
X124860000Y-131750000D01*
X124860000Y-139260000D02*
X124860000Y-138650000D01*
X126160000Y-131140000D02*
X126160000Y-131750000D01*
X126160000Y-139260000D02*
X126160000Y-138650000D01*
X127160000Y-134100000D02*
X127660000Y-134100000D01*
X127160000Y-134300000D02*
X127160000Y-134100000D01*
X127160000Y-136100000D02*
X127660000Y-136100000D01*
X127160000Y-136300000D02*
X127160000Y-136100000D01*
X127660000Y-131750000D02*
X124160000Y-131750000D01*
X127660000Y-134200000D02*
X127160000Y-134200000D01*
X127660000Y-134300000D02*
X127160000Y-134300000D01*
X127660000Y-136200000D02*
X127160000Y-136200000D01*
X127660000Y-136300000D02*
X127160000Y-136300000D01*
X127660000Y-138650000D02*
X127660000Y-131750000D01*
X123550000Y-131140000D02*
X128270000Y-131140000D01*
X128270000Y-139260000D01*
X123550000Y-139260000D01*
X123550000Y-131140000D01*
X134375000Y-144637064D02*
X134375000Y-144182936D01*
X135845000Y-144637064D02*
X135845000Y-144182936D01*
X124660000Y-145210000D02*
X121360000Y-145210000D01*
X111010000Y-152790000D02*
X111010000Y-156290000D01*
X111010000Y-156290000D02*
X115910000Y-156290000D01*
X112960000Y-152790000D02*
X111010000Y-152790000D01*
X113360000Y-155790000D02*
X113560000Y-155790000D01*
X113360000Y-156290000D02*
X113360000Y-155790000D01*
X113460000Y-156290000D02*
X113460000Y-155790000D01*
X113560000Y-155790000D02*
X113560000Y-156290000D01*
X115910000Y-152790000D02*
X113960000Y-152790000D01*
X115910000Y-156290000D02*
X115910000Y-152790000D01*
X130747064Y-132595000D02*
X130292936Y-132595000D01*
X130747064Y-134065000D02*
X130292936Y-134065000D01*
X132590000Y-132666267D02*
X132590000Y-132373733D01*
X133610000Y-132666267D02*
X133610000Y-132373733D01*
X134226267Y-139020000D02*
X133933733Y-139020000D01*
X134226267Y-140040000D02*
X133933733Y-140040000D01*
X124720000Y-142993733D02*
X124720000Y-143286267D01*
X125740000Y-142993733D02*
X125740000Y-143286267D01*
X118112936Y-144105000D02*
X118567064Y-144105000D01*
X118112936Y-145575000D02*
X118567064Y-145575000D01*
X124930000Y-154710000D02*
X124930000Y-153250000D01*
X124930000Y-154710000D02*
X125860000Y-154710000D01*
X128090000Y-153910000D02*
X128090000Y-153110000D01*
X128090000Y-153910000D02*
X128090000Y-154710000D01*
X128090000Y-154710000D02*
X127160000Y-154710000D01*
X128120000Y-152610000D02*
X128450000Y-152370000D01*
X128450000Y-152850000D01*
X128120000Y-152610000D01*
G36*
X128450000Y-152850000D02*
G01*
X128120000Y-152610000D01*
X128450000Y-152370000D01*
X128450000Y-152850000D01*
G37*
X127120000Y-145260000D02*
X127120000Y-146190000D01*
X127120000Y-145260000D02*
X128580000Y-145260000D01*
X127120000Y-148420000D02*
X127120000Y-147490000D01*
X127920000Y-148420000D02*
X127120000Y-148420000D01*
X127920000Y-148420000D02*
X128720000Y-148420000D01*
X129220000Y-148450000D02*
X129460000Y-148780000D01*
X128980000Y-148780000D01*
X129220000Y-148450000D01*
G36*
X129460000Y-148780000D02*
G01*
X128980000Y-148780000D01*
X129220000Y-148450000D01*
X129460000Y-148780000D01*
G37*
X132910000Y-145743733D02*
X132910000Y-146036267D01*
X133930000Y-145743733D02*
X133930000Y-146036267D01*
X128205000Y-142882936D02*
X128205000Y-143337064D01*
X129675000Y-142882936D02*
X129675000Y-143337064D01*
X131542936Y-142545000D02*
X131997064Y-142545000D01*
X131542936Y-144015000D02*
X131997064Y-144015000D01*
X131600000Y-134930000D02*
X133600000Y-134930000D01*
X131600000Y-137930000D02*
X133600000Y-137930000D01*
X115902500Y-151250000D02*
X117702500Y-151250000D01*
X116902500Y-148030000D02*
X116102500Y-148030000D01*
X116902500Y-148030000D02*
X117702500Y-148030000D01*
X115602500Y-148080000D02*
X115362500Y-147750000D01*
X115842500Y-147750000D01*
X115602500Y-148080000D01*
G36*
X115602500Y-148080000D02*
G01*
X115362500Y-147750000D01*
X115842500Y-147750000D01*
X115602500Y-148080000D01*
G37*
X118162936Y-146055000D02*
X118617064Y-146055000D01*
X118162936Y-147525000D02*
X118617064Y-147525000D01*
X138221701Y-144180726D02*
X138221701Y-144634854D01*
X139691701Y-144180726D02*
X139691701Y-144634854D01*
X149234724Y-149737500D02*
X148725276Y-149737500D01*
X149234724Y-150782500D02*
X148725276Y-150782500D01*
X112705000Y-150088752D02*
X112705000Y-149566248D01*
X114175000Y-150088752D02*
X114175000Y-149566248D01*
X134087064Y-140605000D02*
X133632936Y-140605000D01*
X134087064Y-142075000D02*
X133632936Y-142075000D01*
X149244724Y-148277500D02*
X148735276Y-148277500D01*
X149244724Y-149322500D02*
X148735276Y-149322500D01*
X126285000Y-142932936D02*
X126285000Y-143387064D01*
X127755000Y-142932936D02*
X127755000Y-143387064D01*
X127922936Y-148895000D02*
X128377064Y-148895000D01*
X127922936Y-150365000D02*
X128377064Y-150365000D01*
X118250000Y-137371248D02*
X118250000Y-137893752D01*
X119720000Y-137371248D02*
X119720000Y-137893752D01*
X144035000Y-145902936D02*
X144035000Y-146357064D01*
X145505000Y-145902936D02*
X145505000Y-146357064D01*
X151340000Y-135230000D02*
X151340000Y-140130000D01*
X151340000Y-137580000D02*
X151840000Y-137580000D01*
X151340000Y-137680000D02*
X151840000Y-137680000D01*
X151340000Y-140130000D02*
X154840000Y-140130000D01*
X151840000Y-137580000D02*
X151840000Y-137780000D01*
X151840000Y-137780000D02*
X151340000Y-137780000D01*
X154840000Y-135230000D02*
X151340000Y-135230000D01*
X154840000Y-137180000D02*
X154840000Y-135230000D01*
X154840000Y-138180000D02*
X155450000Y-138180000D01*
X154840000Y-140130000D02*
X154840000Y-138180000D01*
X155450000Y-137180000D02*
X154840000Y-137180000D01*
X120350000Y-137383748D02*
X120350000Y-137906252D01*
X121820000Y-137383748D02*
X121820000Y-137906252D01*
X136780000Y-152360000D02*
X136780000Y-155860000D01*
X136780000Y-155860000D02*
X138730000Y-155860000D01*
X138730000Y-155860000D02*
X138730000Y-156470000D01*
X139130000Y-152860000D02*
X139130000Y-152360000D01*
X139230000Y-152360000D02*
X139230000Y-152860000D01*
X139330000Y-152360000D02*
X139330000Y-152860000D01*
X139330000Y-152860000D02*
X139130000Y-152860000D01*
X141130000Y-152860000D02*
X141130000Y-152360000D01*
X141230000Y-152360000D02*
X141230000Y-152860000D01*
X141330000Y-152360000D02*
X141330000Y-152860000D01*
X141330000Y-152860000D02*
X141130000Y-152860000D01*
X143130000Y-152860000D02*
X143130000Y-152360000D01*
X143230000Y-152360000D02*
X143230000Y-152860000D01*
X143330000Y-152360000D02*
X143330000Y-152860000D01*
X143330000Y-152860000D02*
X143130000Y-152860000D01*
X145130000Y-152860000D02*
X145130000Y-152360000D01*
X145230000Y-152360000D02*
X145230000Y-152860000D01*
X145330000Y-152360000D02*
X145330000Y-152860000D01*
X145330000Y-152860000D02*
X145130000Y-152860000D01*
X147130000Y-152860000D02*
X147130000Y-152360000D01*
X147230000Y-152360000D02*
X147230000Y-152860000D01*
X147330000Y-152360000D02*
X147330000Y-152860000D01*
X147330000Y-152860000D02*
X147130000Y-152860000D01*
X147730000Y-155860000D02*
X149680000Y-155860000D01*
X147730000Y-156470000D02*
X147730000Y-155860000D01*
X149680000Y-152360000D02*
X136780000Y-152360000D01*
X149680000Y-155860000D02*
X149680000Y-152360000D01*
X136321701Y-144634854D02*
X136321701Y-144180726D01*
X137791701Y-144634854D02*
X137791701Y-144180726D01*
X113740000Y-137243733D02*
X113740000Y-137536267D01*
X114760000Y-137243733D02*
X114760000Y-137536267D01*
X153424724Y-141357500D02*
X152915276Y-141357500D01*
X153424724Y-142402500D02*
X152915276Y-142402500D01*
X112788748Y-139485000D02*
X113311252Y-139485000D01*
X112788748Y-140955000D02*
X113311252Y-140955000D01*
X130280000Y-139853733D02*
X130280000Y-140146267D01*
X131300000Y-139853733D02*
X131300000Y-140146267D01*
X143140000Y-149493733D02*
X143140000Y-149786267D01*
X144160000Y-149493733D02*
X144160000Y-149786267D01*
M02*
