G04 #@! TF.GenerationSoftware,KiCad,Pcbnew,10.0.6-rc2*
G04 #@! TF.CreationDate,2026-08-25T13:57:15+02:00*
G04 #@! TF.ProjectId,unni-esp-interface,756e6e69-2d65-4737-902d-696e74657266,rev?*
G04 #@! TF.SameCoordinates,Original*
G04 #@! TF.FileFunction,Soldermask,Top*
G04 #@! TF.FilePolarity,Negative*
%FSLAX46Y46*%
G04 Gerber Fmt 4.6, Leading zero omitted, Abs format (unit mm)*
G04 Created by KiCad (PCBNEW 10.0.6-rc2) date 2026-08-25 13:57:15*
%MOMM*%
%LPD*%
G01*
G04 APERTURE LIST*
G04 Aperture macros list*
%AMRoundRect*
0 Rectangle with rounded corners*
0 $1 Rounding radius*
0 $2 $3 $4 $5 $6 $7 $8 $9 X,Y pos of 4 corners*
0 Add a 4 corners polygon primitive as box body*
4,1,4,$2,$3,$4,$5,$6,$7,$8,$9,$2,$3,0*
0 Add four circle primitives for the rounded corners*
1,1,$1+$1,$2,$3*
1,1,$1+$1,$4,$5*
1,1,$1+$1,$6,$7*
1,1,$1+$1,$8,$9*
0 Add four rect primitives between the rounded corners*
20,1,$1+$1,$2,$3,$4,$5,0*
20,1,$1+$1,$4,$5,$6,$7,0*
20,1,$1+$1,$6,$7,$8,$9,0*
20,1,$1+$1,$8,$9,$2,$3,0*%
%AMOutline5P*
0 Free polygon, 5 corners , with rotation*
0 The origin of the aperture is its center*
0 number of corners: always 5*
0 $1 to $10 corner X, Y*
0 $11 Rotation angle, in degrees counterclockwise*
0 create outline with 5 corners*
4,1,5,$1,$2,$3,$4,$5,$6,$7,$8,$9,$10,$1,$2,$11*%
%AMOutline6P*
0 Free polygon, 6 corners , with rotation*
0 The origin of the aperture is its center*
0 number of corners: always 6*
0 $1 to $12 corner X, Y*
0 $13 Rotation angle, in degrees counterclockwise*
0 create outline with 6 corners*
4,1,6,$1,$2,$3,$4,$5,$6,$7,$8,$9,$10,$11,$12,$1,$2,$13*%
%AMOutline7P*
0 Free polygon, 7 corners , with rotation*
0 The origin of the aperture is its center*
0 number of corners: always 7*
0 $1 to $14 corner X, Y*
0 $15 Rotation angle, in degrees counterclockwise*
0 create outline with 7 corners*
4,1,7,$1,$2,$3,$4,$5,$6,$7,$8,$9,$10,$11,$12,$13,$14,$1,$2,$15*%
%AMOutline8P*
0 Free polygon, 8 corners , with rotation*
0 The origin of the aperture is its center*
0 number of corners: always 8*
0 $1 to $16 corner X, Y*
0 $17 Rotation angle, in degrees counterclockwise*
0 create outline with 8 corners*
4,1,8,$1,$2,$3,$4,$5,$6,$7,$8,$9,$10,$11,$12,$13,$14,$15,$16,$1,$2,$17*%
G04 Aperture macros list end*
%ADD10RoundRect,0.250000X0.475000X-0.337500X0.475000X0.337500X-0.475000X0.337500X-0.475000X-0.337500X0*%
%ADD11RoundRect,0.250000X0.450000X-0.350000X0.450000X0.350000X-0.450000X0.350000X-0.450000X-0.350000X0*%
%ADD12RoundRect,0.237500X0.250000X0.237500X-0.250000X0.237500X-0.250000X-0.237500X0.250000X-0.237500X0*%
%ADD13RoundRect,0.237500X-0.300000X-0.237500X0.300000X-0.237500X0.300000X0.237500X-0.300000X0.237500X0*%
%ADD14RoundRect,0.156000X-0.494000X-1.194000X0.494000X-1.194000X0.494000X1.194000X-0.494000X1.194000X0*%
%ADD15RoundRect,0.142500X-0.407500X0.332500X-0.407500X-0.332500X0.407500X-0.332500X0.407500X0.332500X0*%
%ADD16RoundRect,0.062500X-0.062500X0.350000X-0.062500X-0.350000X0.062500X-0.350000X0.062500X0.350000X0*%
%ADD17R,2.000000X1.200000*%
%ADD18RoundRect,0.250000X-0.450000X0.350000X-0.450000X-0.350000X0.450000X-0.350000X0.450000X0.350000X0*%
%ADD19RoundRect,0.250000X-0.625000X0.350000X-0.625000X-0.350000X0.625000X-0.350000X0.625000X0.350000X0*%
%ADD20O,1.750000X1.200000*%
%ADD21RoundRect,0.237500X-0.237500X0.300000X-0.237500X-0.300000X0.237500X-0.300000X0.237500X0.300000X0*%
%ADD22RoundRect,0.250000X-0.350000X-0.450000X0.350000X-0.450000X0.350000X0.450000X-0.350000X0.450000X0*%
%ADD23R,0.800000X0.400000*%
%ADD24R,0.400000X0.800000*%
%ADD25Outline5P,-0.725000X0.130500X-0.130500X0.725000X0.725000X0.725000X0.725000X-0.725000X-0.725000X-0.725000X0.000000*%
%ADD26R,1.450000X1.450000*%
%ADD27R,0.700000X0.700000*%
%ADD28RoundRect,0.250000X0.625000X-0.350000X0.625000X0.350000X-0.625000X0.350000X-0.625000X-0.350000X0*%
%ADD29RoundRect,0.250000X-0.650000X1.500000X-0.650000X-1.500000X0.650000X-1.500000X0.650000X1.500000X0*%
%ADD30RoundRect,0.250000X-0.350000X-0.625000X0.350000X-0.625000X0.350000X0.625000X-0.350000X0.625000X0*%
%ADD31O,1.200000X1.750000*%
%ADD32RoundRect,0.250000X0.350000X0.450000X-0.350000X0.450000X-0.350000X-0.450000X0.350000X-0.450000X0*%
%ADD33RoundRect,0.237500X0.237500X-0.300000X0.237500X0.300000X-0.237500X0.300000X-0.237500X-0.300000X0*%
%ADD34RoundRect,0.237500X0.300000X0.237500X-0.300000X0.237500X-0.300000X-0.237500X0.300000X-0.237500X0*%
%ADD35RoundRect,0.200000X-0.200000X0.750000X-0.200000X-0.750000X0.200000X-0.750000X0.200000X0.750000X0*%
%ADD36RoundRect,0.200000X0.750000X0.200000X-0.750000X0.200000X-0.750000X-0.200000X0.750000X-0.200000X0*%
%ADD37RoundRect,0.142500X-0.332500X-0.407500X0.332500X-0.407500X0.332500X0.407500X-0.332500X0.407500X0*%
%ADD38RoundRect,0.162500X-0.617500X-0.162500X0.617500X-0.162500X0.617500X0.162500X-0.617500X0.162500X0*%
%ADD39RoundRect,0.250000X-0.475000X0.337500X-0.475000X-0.337500X0.475000X-0.337500X0.475000X0.337500X0*%
%ADD40RoundRect,0.250000X0.350000X0.625000X-0.350000X0.625000X-0.350000X-0.625000X0.350000X-0.625000X0*%
%ADD41RoundRect,0.250000X-0.337500X-0.475000X0.337500X-0.475000X0.337500X0.475000X-0.337500X0.475000X0*%
G04 APERTURE END LIST*
D10*
X120190000Y-151127500D03*
X120190000Y-149052500D03*
D11*
X115490000Y-146740000D03*
X115490000Y-144740000D03*
D12*
X154862500Y-143350000D03*
X153037500Y-143350000D03*
D13*
X152937500Y-133490000D03*
X154662500Y-133490000D03*
D14*
X115185000Y-134095000D03*
X117885000Y-134095000D03*
D15*
X148600000Y-143900000D03*
X148600000Y-147350000D03*
X146350000Y-143900000D03*
X146350000Y-147350000D03*
D16*
X117485000Y-136520000D03*
X116985000Y-136520000D03*
X116485000Y-136520000D03*
X115985000Y-136520000D03*
X115485000Y-136520000D03*
X115485000Y-138945000D03*
X115985000Y-138945000D03*
X116485000Y-138945000D03*
X116985000Y-138945000D03*
X117485000Y-138945000D03*
D17*
X116485000Y-137732500D03*
D18*
X139977500Y-147415000D03*
X139977500Y-149415000D03*
D19*
X153980000Y-146580000D03*
D20*
X153980000Y-148580000D03*
X153980000Y-150580000D03*
X153980000Y-152580000D03*
X153980000Y-154580000D03*
D21*
X138280000Y-148817500D03*
X138280000Y-150542500D03*
D18*
X141952500Y-147415000D03*
X141952500Y-149415000D03*
D22*
X150970000Y-131790000D03*
X152970000Y-131790000D03*
D23*
X136681098Y-132325000D03*
X136681098Y-133125000D03*
X136681098Y-133925000D03*
X136681098Y-134725000D03*
X136681098Y-135525000D03*
X136681098Y-136325000D03*
X136681098Y-137125000D03*
X136681098Y-137925000D03*
X136681098Y-138725000D03*
X136681098Y-139525000D03*
X136681098Y-140325000D03*
D24*
X137781098Y-141225000D03*
X138581098Y-141225000D03*
X139381098Y-141225000D03*
X140181098Y-141225000D03*
X140981098Y-141225000D03*
X141781098Y-141225000D03*
X142581098Y-141225000D03*
X143381098Y-141225000D03*
X144181098Y-141225000D03*
X144981098Y-141225000D03*
X145781098Y-141225000D03*
X146581098Y-141225000D03*
X147381098Y-141225000D03*
D23*
X148481098Y-140325000D03*
X148481098Y-139525000D03*
X148481098Y-138725000D03*
X148481098Y-137925000D03*
X148481098Y-137125000D03*
X148481098Y-136325000D03*
X148481098Y-135525000D03*
X148481098Y-134725000D03*
X148481098Y-133925000D03*
X148481098Y-133125000D03*
X148481098Y-132325000D03*
D24*
X147381098Y-131425000D03*
X146581098Y-131425000D03*
X145781098Y-131425000D03*
X144981098Y-131425000D03*
X144181098Y-131425000D03*
X143381098Y-131425000D03*
X142581098Y-131425000D03*
X141781098Y-131425000D03*
X140981098Y-131425000D03*
X140181098Y-131425000D03*
X139381098Y-131425000D03*
X138581098Y-131425000D03*
X137781098Y-131425000D03*
D25*
X140606098Y-134350000D03*
D26*
X140606098Y-136325000D03*
X140606098Y-138300000D03*
X142581098Y-134350000D03*
X142581098Y-136325000D03*
X142581098Y-138300000D03*
X144556098Y-134350000D03*
X144556098Y-136325000D03*
X144556098Y-138300000D03*
D27*
X148531098Y-131375000D03*
X148531098Y-141275000D03*
X136631098Y-141275000D03*
X136631098Y-131375000D03*
D28*
X125360000Y-137200000D03*
D20*
X125360000Y-135200000D03*
X125360000Y-133200000D03*
D11*
X135110000Y-145410000D03*
X135110000Y-143410000D03*
D29*
X123010000Y-147220000D03*
X123010000Y-152220000D03*
D30*
X112440000Y-153750000D03*
D31*
X114440000Y-153750000D03*
D32*
X131520000Y-133330000D03*
X129520000Y-133330000D03*
D33*
X133100000Y-133382500D03*
X133100000Y-131657500D03*
D34*
X134942500Y-139530000D03*
X133217500Y-139530000D03*
D21*
X125230000Y-142277500D03*
X125230000Y-144002500D03*
D22*
X117340000Y-144840000D03*
X119340000Y-144840000D03*
D35*
X127460000Y-152450000D03*
X125560000Y-152450000D03*
X126510000Y-155450000D03*
D36*
X129380000Y-147790000D03*
X129380000Y-145890000D03*
X126380000Y-146840000D03*
D21*
X133420000Y-145027500D03*
X133420000Y-146752500D03*
D18*
X128940000Y-142110000D03*
X128940000Y-144110000D03*
D22*
X130770000Y-143280000D03*
X132770000Y-143280000D03*
D11*
X129210000Y-153530000D03*
X129210000Y-151530000D03*
D37*
X130875000Y-135305000D03*
X134325000Y-135305000D03*
X130875000Y-137555000D03*
X134325000Y-137555000D03*
D38*
X115452500Y-148690000D03*
X115452500Y-149640000D03*
X115452500Y-150590000D03*
X118152500Y-150590000D03*
X118152500Y-148690000D03*
D33*
X134580000Y-133382500D03*
X134580000Y-131657500D03*
D22*
X117390000Y-146790000D03*
X119390000Y-146790000D03*
D18*
X138956701Y-143407790D03*
X138956701Y-145407790D03*
D12*
X149892500Y-150260000D03*
X148067500Y-150260000D03*
D10*
X113420000Y-150687500D03*
X113420000Y-148612500D03*
D32*
X134860000Y-141340000D03*
X132860000Y-141340000D03*
D12*
X149902500Y-148800000D03*
X148077500Y-148800000D03*
D18*
X127020000Y-142160000D03*
X127020000Y-144160000D03*
D22*
X127150000Y-149630000D03*
X129150000Y-149630000D03*
D39*
X118985000Y-136595000D03*
X118985000Y-138670000D03*
D18*
X144770000Y-145130000D03*
X144770000Y-147130000D03*
D19*
X153640000Y-136680000D03*
D20*
X153640000Y-138680000D03*
D39*
X121085000Y-136607500D03*
X121085000Y-138682500D03*
D40*
X148230000Y-154630000D03*
D31*
X146230000Y-154630000D03*
X144230000Y-154630000D03*
X142230000Y-154630000D03*
X140230000Y-154630000D03*
X138230000Y-154630000D03*
D11*
X137056701Y-145407790D03*
X137056701Y-143407790D03*
D21*
X114250000Y-136527500D03*
X114250000Y-138252500D03*
D12*
X154082500Y-141880000D03*
X152257500Y-141880000D03*
D41*
X112012500Y-140220000D03*
X114087500Y-140220000D03*
D21*
X130790000Y-139137500D03*
X130790000Y-140862500D03*
X143650000Y-148777500D03*
X143650000Y-150502500D03*
M02*
