G04 #@! TF.GenerationSoftware,KiCad,Pcbnew,10.0.6-rc2*
G04 #@! TF.CreationDate,2026-08-25T12:43:28+02:00*
G04 #@! TF.ProjectId,unni-esp-interface,756e6e69-2d65-4737-902d-696e74657266,rev?*
G04 #@! TF.SameCoordinates,Original*
G04 #@! TF.FileFunction,Copper,L4,Bot*
G04 #@! TF.FilePolarity,Positive*
%FSLAX46Y46*%
G04 Gerber Fmt 4.6, Leading zero omitted, Abs format (unit mm)*
G04 Created by KiCad (PCBNEW 10.0.6-rc2) date 2026-08-25 12:43:28*
%MOMM*%
%LPD*%
G01*
G04 APERTURE LIST*
G04 Aperture macros list*
%AMRoundRect*
0 Rectangle with rounded corners*
0 $1 Rounding radius*
0 $2 $3 $4 $5 $6 $7 $8 $9 X,Y pos of 4 corners*
0 Add a 4 corners polygon primitive as box body*
4,1,4,$2,$3,$4,$5,$6,$7,$8,$9,$2,$3,0*
0 Add four circle primitives for the rounded corners*
1,1,$1+$1,$2,$3*
1,1,$1+$1,$4,$5*
1,1,$1+$1,$6,$7*
1,1,$1+$1,$8,$9*
0 Add four rect primitives between the rounded corners*
20,1,$1+$1,$2,$3,$4,$5,0*
20,1,$1+$1,$4,$5,$6,$7,0*
20,1,$1+$1,$6,$7,$8,$9,0*
20,1,$1+$1,$8,$9,$2,$3,0*%
G04 Aperture macros list end*
G04 #@! TA.AperFunction,ComponentPad*
%ADD10RoundRect,0.250000X-0.625000X0.350000X-0.625000X-0.350000X0.625000X-0.350000X0.625000X0.350000X0*%
G04 #@! TD*
G04 #@! TA.AperFunction,ComponentPad*
%ADD11O,1.750000X1.200000*%
G04 #@! TD*
G04 #@! TA.AperFunction,ComponentPad*
%ADD12RoundRect,0.250000X0.625000X-0.350000X0.625000X0.350000X-0.625000X0.350000X-0.625000X-0.350000X0*%
G04 #@! TD*
G04 #@! TA.AperFunction,ComponentPad*
%ADD13RoundRect,0.250000X-0.350000X-0.625000X0.350000X-0.625000X0.350000X0.625000X-0.350000X0.625000X0*%
G04 #@! TD*
G04 #@! TA.AperFunction,ComponentPad*
%ADD14O,1.200000X1.750000*%
G04 #@! TD*
G04 #@! TA.AperFunction,ComponentPad*
%ADD15RoundRect,0.250000X0.350000X0.625000X-0.350000X0.625000X-0.350000X-0.625000X0.350000X-0.625000X0*%
G04 #@! TD*
G04 #@! TA.AperFunction,ViaPad*
%ADD16C,0.600000*%
G04 #@! TD*
G04 #@! TA.AperFunction,ViaPad*
%ADD17C,0.800000*%
G04 #@! TD*
G04 #@! TA.AperFunction,Conductor*
%ADD18C,0.200000*%
G04 #@! TD*
G04 APERTURE END LIST*
D10*
X153980000Y-146580000D03*
D11*
X153980000Y-148580000D03*
X153980000Y-150580000D03*
X153980000Y-152580000D03*
X153980000Y-154580000D03*
D12*
X125360000Y-137200000D03*
D11*
X125360000Y-135200000D03*
X125360000Y-133200000D03*
D13*
X112460000Y-153990000D03*
D14*
X114460000Y-153990000D03*
D10*
X153640000Y-136680000D03*
D11*
X153640000Y-138680000D03*
D15*
X148230000Y-154660000D03*
D14*
X146230000Y-154660000D03*
X144230000Y-154660000D03*
X142230000Y-154660000D03*
X140230000Y-154660000D03*
X138230000Y-154660000D03*
D16*
X132100000Y-151600000D03*
X132750000Y-150300000D03*
X134050000Y-150300000D03*
X136650000Y-152900000D03*
X132750000Y-152900000D03*
X136000000Y-151600000D03*
X117150000Y-152900000D03*
X131450000Y-150300000D03*
X119750000Y-152900000D03*
X136650000Y-150300000D03*
X139250000Y-152900000D03*
X137950000Y-152900000D03*
X118450000Y-152900000D03*
X135350000Y-150300000D03*
X117800000Y-151600000D03*
X121050000Y-152900000D03*
X130800000Y-151600000D03*
X135350000Y-152900000D03*
X134050000Y-152900000D03*
X137300000Y-151600000D03*
X140550000Y-152900000D03*
X131450000Y-152900000D03*
X139900000Y-151600000D03*
X133400000Y-151600000D03*
X134700000Y-151600000D03*
X138600000Y-151600000D03*
X122250000Y-139500000D03*
X143556098Y-135350000D03*
D17*
X142390000Y-150830000D03*
D16*
X112500000Y-147000000D03*
D17*
X133420000Y-148000000D03*
D16*
X141606098Y-137300000D03*
X115500000Y-141000000D03*
X123750000Y-139500000D03*
X149985290Y-141253949D03*
X120000000Y-141000000D03*
X145706098Y-137300000D03*
X141606098Y-133200000D03*
X139506098Y-137300000D03*
D17*
X127900000Y-145970000D03*
D16*
X111750000Y-145500000D03*
X114000000Y-147000000D03*
D17*
X140065000Y-144479015D03*
D16*
X111750000Y-148500000D03*
X145706098Y-133200000D03*
X145706098Y-135350000D03*
X111000000Y-147000000D03*
X120770000Y-147000000D03*
X118500000Y-141000000D03*
D17*
X130820000Y-141960000D03*
D16*
X133217500Y-140340000D03*
X117000000Y-141000000D03*
X132400000Y-135120000D03*
X120750000Y-145500000D03*
X141606098Y-139400000D03*
D17*
X130020000Y-144780000D03*
D16*
X145706098Y-139350000D03*
X127010000Y-151020000D03*
X143556098Y-139350000D03*
X143556098Y-133200000D03*
X141606098Y-135350000D03*
X143556098Y-137300000D03*
D17*
X154660000Y-135310000D03*
D16*
X148600000Y-145650000D03*
X139506098Y-135350000D03*
X123000000Y-141000000D03*
X121290000Y-149343823D03*
X139506098Y-133200000D03*
X121500000Y-141000000D03*
X113250000Y-145500000D03*
X136681098Y-140775000D03*
D17*
X139460000Y-150730000D03*
D16*
X139728683Y-138974998D03*
X144720000Y-143920000D03*
X118320000Y-143780000D03*
X137750000Y-135575000D03*
X145530000Y-142550000D03*
X120000000Y-132000000D03*
X118085000Y-136795000D03*
X123750000Y-133500000D03*
X121500000Y-132000000D03*
X122250000Y-133500000D03*
X135850000Y-133770000D03*
X138490000Y-132960000D03*
X117835000Y-139745000D03*
X137700000Y-132980000D03*
X138500000Y-133810000D03*
X120750000Y-133500000D03*
X123000000Y-132000000D03*
X137720000Y-133810000D03*
X112500000Y-135000000D03*
X119250000Y-142500000D03*
X113250000Y-142500000D03*
X120750000Y-142500000D03*
X123000000Y-144000000D03*
X114000000Y-135000000D03*
X111000000Y-135000000D03*
X113250000Y-136500000D03*
X117750000Y-142500000D03*
X113250000Y-133500000D03*
X111750000Y-136500000D03*
X115832975Y-140002131D03*
X112500000Y-138000000D03*
X111750000Y-133500000D03*
X111000000Y-138000000D03*
X116250000Y-142500000D03*
X114750000Y-142500000D03*
X122250000Y-142500000D03*
X111750000Y-142500000D03*
X132070000Y-136760000D03*
X131920000Y-138310000D03*
X140243759Y-142406089D03*
X144740000Y-149380000D03*
X142422166Y-145789323D03*
X143060000Y-143320000D03*
X143700000Y-146120000D03*
X141210817Y-142136899D03*
X145900000Y-148560000D03*
X143097328Y-142219979D03*
X135600000Y-138540000D03*
X137581100Y-138900000D03*
X147600000Y-139550000D03*
X138833677Y-140277916D03*
X151899620Y-139339620D03*
X147200000Y-135530000D03*
X135670000Y-135190000D03*
X115200000Y-151600000D03*
D17*
X138350000Y-147590000D03*
D16*
X111950000Y-155500000D03*
X117150000Y-155500000D03*
X134700000Y-154200000D03*
X130150000Y-155500000D03*
X136000000Y-154200000D03*
X121050000Y-155500000D03*
X136650000Y-155500000D03*
X128850000Y-155500000D03*
X111300000Y-154200000D03*
X118450000Y-155500000D03*
X124950000Y-155500000D03*
X132100000Y-154200000D03*
X131450000Y-155500000D03*
X134050000Y-155500000D03*
X114550000Y-155500000D03*
X133400000Y-154200000D03*
X123650000Y-155500000D03*
X115850000Y-152900000D03*
X115850000Y-155500000D03*
X122350000Y-155500000D03*
X132750000Y-155500000D03*
X119750000Y-155500000D03*
X127550000Y-155500000D03*
X135350000Y-155500000D03*
X113250000Y-155500000D03*
X111300000Y-151600000D03*
D18*
X121890000Y-149350000D02*
X122170000Y-149630000D01*
X141730677Y-145139323D02*
X143500677Y-145139323D01*
X118320000Y-143780000D02*
X121490000Y-143780000D01*
X133500000Y-145530000D02*
X141340000Y-145530000D01*
X129410000Y-149620000D02*
X133500000Y-145530000D01*
X141340000Y-145530000D02*
X141730677Y-145139323D01*
X122170000Y-149630000D02*
X122180000Y-149620000D01*
X121890000Y-144180000D02*
X121890000Y-149350000D01*
X122180000Y-149620000D02*
X129410000Y-149620000D01*
X143500677Y-145139323D02*
X144720000Y-143920000D01*
X121490000Y-143780000D02*
X121890000Y-144180000D01*
X144179239Y-143210000D02*
X143419239Y-143970000D01*
X140888431Y-143970000D02*
X138183677Y-141265246D01*
X143419239Y-143970000D02*
X140888431Y-143970000D01*
X146740000Y-143210000D02*
X144179239Y-143210000D01*
X138325000Y-139867354D02*
X138325000Y-136150000D01*
X153040000Y-136910000D02*
X146740000Y-143210000D01*
X153410000Y-136910000D02*
X153040000Y-136910000D01*
X138183677Y-141265246D02*
X138183677Y-140008677D01*
X138325000Y-136150000D02*
X137750000Y-135575000D01*
X138183677Y-140008677D02*
X138325000Y-139867354D01*
X117835000Y-137045000D02*
X118085000Y-136795000D01*
X117835000Y-139745000D02*
X117835000Y-137045000D01*
X145530000Y-142550000D02*
X149490000Y-138590000D01*
X149490000Y-138590000D02*
X149490000Y-134000000D01*
X115832975Y-140002131D02*
X114985000Y-139154156D01*
X114985000Y-139154156D02*
X114985000Y-136495000D01*
X131920000Y-136910000D02*
X132070000Y-136760000D01*
X131920000Y-138310000D02*
X131920000Y-136910000D01*
X141080000Y-143290000D02*
X143030000Y-143290000D01*
X143030000Y-143290000D02*
X143060000Y-143320000D01*
X140243759Y-142406089D02*
X140243759Y-142453759D01*
X142853441Y-146220598D02*
X142422166Y-145789323D01*
X142853441Y-147493441D02*
X142853441Y-146220598D01*
X140243759Y-142453759D02*
X141080000Y-143290000D01*
X144740000Y-149380000D02*
X142853441Y-147493441D01*
X143700000Y-146120000D02*
X143700000Y-146360000D01*
X142960695Y-142110000D02*
X141237716Y-142110000D01*
X141237716Y-142110000D02*
X141210817Y-142136899D01*
X143070674Y-142219979D02*
X142960695Y-142110000D01*
X143097328Y-142219979D02*
X143070674Y-142219979D01*
X143700000Y-146360000D02*
X145900000Y-148560000D01*
X138854412Y-140298651D02*
X138833677Y-140277916D01*
X146851349Y-140298651D02*
X138854412Y-140298651D01*
X135960000Y-138900000D02*
X137581100Y-138900000D01*
X147600000Y-139550000D02*
X146851349Y-140298651D01*
X135600000Y-138540000D02*
X135960000Y-138900000D01*
X142230000Y-154660000D02*
X142230000Y-153490000D01*
X151899620Y-143820380D02*
X151899620Y-139339620D01*
X142230000Y-153490000D02*
X151899620Y-143820380D01*
X146360000Y-134690000D02*
X147200000Y-135530000D01*
X136170000Y-134690000D02*
X146360000Y-134690000D01*
X135670000Y-135190000D02*
X136170000Y-134690000D01*
X140450000Y-147590000D02*
X141180000Y-148320000D01*
X138350000Y-147590000D02*
X140450000Y-147590000D01*
X141180000Y-156650000D02*
X138890000Y-156650000D01*
X141180000Y-148320000D02*
X141180000Y-156650000D01*
G04 #@! TA.AperFunction,Conductor*
G36*
X140745408Y-149004843D02*
G01*
X140758095Y-149008966D01*
X140807595Y-149044927D01*
X140807596Y-149044928D01*
X140810591Y-149049050D01*
X140829500Y-149107240D01*
X140829500Y-156184819D01*
X140824654Y-156215412D01*
X140820532Y-156228098D01*
X140784580Y-156277589D01*
X140780459Y-156280584D01*
X140722271Y-156299500D01*
X139414680Y-156299500D01*
X139384087Y-156294654D01*
X139371401Y-156290532D01*
X139321901Y-156254568D01*
X139321894Y-156254558D01*
X139318900Y-156250436D01*
X139300000Y-156192256D01*
X139300000Y-153280001D01*
X139300000Y-153280000D01*
X139299999Y-153280000D01*
X130310001Y-153280000D01*
X130310000Y-153280000D01*
X130310000Y-153280001D01*
X130310000Y-154043353D01*
X130305154Y-154073946D01*
X130301032Y-154086632D01*
X130265068Y-154136132D01*
X130260936Y-154139134D01*
X130202834Y-154158041D01*
X116804769Y-154169898D01*
X116774170Y-154165079D01*
X116761480Y-154160968D01*
X116711949Y-154125048D01*
X116711944Y-154125040D01*
X116708953Y-154120930D01*
X116690000Y-154062754D01*
X116690000Y-150404680D01*
X116694846Y-150374085D01*
X116698154Y-150363905D01*
X116734120Y-150314406D01*
X116792308Y-150295500D01*
X121640994Y-150295500D01*
X121641000Y-150295500D01*
X121680965Y-150292355D01*
X121685701Y-150291605D01*
X121688139Y-150291219D01*
X121703624Y-150290000D01*
X126839769Y-150290000D01*
X126870364Y-150294846D01*
X126877399Y-150297132D01*
X126926898Y-150333097D01*
X126945804Y-150391288D01*
X126926895Y-150449479D01*
X126889319Y-150480692D01*
X126889176Y-150480760D01*
X126872287Y-150486979D01*
X126837953Y-150496179D01*
X126798969Y-150506626D01*
X126797606Y-150506969D01*
X126797519Y-150507012D01*
X126671989Y-150579487D01*
X126569483Y-150681993D01*
X126497018Y-150807505D01*
X126476042Y-150885787D01*
X126459500Y-150947525D01*
X126459500Y-151092474D01*
X126492585Y-151215949D01*
X126497018Y-151232493D01*
X126569485Y-151358008D01*
X126569487Y-151358010D01*
X126569489Y-151358012D01*
X126569491Y-151358015D01*
X126671985Y-151460509D01*
X126671987Y-151460510D01*
X126672094Y-151460617D01*
X126672345Y-151460803D01*
X126674538Y-151461984D01*
X126787107Y-151526975D01*
X126794757Y-151531392D01*
X126797170Y-151532890D01*
X126797508Y-151532980D01*
X126797511Y-151532982D01*
X126797512Y-151532982D01*
X126797515Y-151532984D01*
X126937525Y-151570500D01*
X126937526Y-151570500D01*
X127082474Y-151570500D01*
X127082475Y-151570500D01*
X127222485Y-151532984D01*
X127222486Y-151532983D01*
X127222488Y-151532982D01*
X127222489Y-151532982D01*
X127341880Y-151464051D01*
X127344768Y-151462648D01*
X127345554Y-151462131D01*
X127350563Y-151459037D01*
X127351862Y-151458286D01*
X127357220Y-151451303D01*
X127450509Y-151358015D01*
X127450512Y-151358010D01*
X127522982Y-151232489D01*
X127522982Y-151232487D01*
X127522984Y-151232485D01*
X127560500Y-151092475D01*
X127560500Y-150947525D01*
X127522984Y-150807515D01*
X127498975Y-150765931D01*
X127467011Y-150710567D01*
X127467010Y-150710565D01*
X127451991Y-150684552D01*
X127450908Y-150682539D01*
X127450510Y-150681987D01*
X127450509Y-150681985D01*
X127434451Y-150665927D01*
X138809500Y-150665927D01*
X138809500Y-150665930D01*
X138809500Y-150794069D01*
X138834499Y-150919742D01*
X138834500Y-150919747D01*
X138870307Y-151006193D01*
X138883535Y-151038128D01*
X138883537Y-151038132D01*
X138883538Y-151038133D01*
X138919848Y-151092474D01*
X138954724Y-151144669D01*
X139045331Y-151235276D01*
X139108848Y-151277717D01*
X139151866Y-151306461D01*
X139151870Y-151306463D01*
X139151873Y-151306465D01*
X139270256Y-151355501D01*
X139395931Y-151380500D01*
X139395932Y-151380500D01*
X139524068Y-151380500D01*
X139524069Y-151380500D01*
X139649744Y-151355501D01*
X139768127Y-151306465D01*
X139874669Y-151235276D01*
X139965276Y-151144669D01*
X140036465Y-151038127D01*
X140085501Y-150919744D01*
X140110500Y-150794069D01*
X140110500Y-150665931D01*
X140085501Y-150540256D01*
X140036465Y-150421873D01*
X140036463Y-150421870D01*
X140036461Y-150421866D01*
X139994058Y-150358407D01*
X139975618Y-150330809D01*
X139965280Y-150315336D01*
X139965278Y-150315334D01*
X139965276Y-150315331D01*
X139874669Y-150224724D01*
X139874665Y-150224721D01*
X139874663Y-150224719D01*
X139832228Y-150196366D01*
X139832227Y-150196365D01*
X139768135Y-150153539D01*
X139768130Y-150153536D01*
X139652987Y-150105842D01*
X139650365Y-150104645D01*
X139642768Y-150102851D01*
X139640183Y-150102597D01*
X139524069Y-150079500D01*
X139395927Y-150079500D01*
X139333092Y-150091999D01*
X139333091Y-150091998D01*
X139271994Y-150104153D01*
X139270468Y-150104428D01*
X139270256Y-150104499D01*
X139270255Y-150104499D01*
X139270252Y-150104500D01*
X139270247Y-150104501D01*
X139270247Y-150104502D01*
X139151868Y-150153536D01*
X139151863Y-150153539D01*
X139045331Y-150224723D01*
X138954723Y-150315331D01*
X138883539Y-150421863D01*
X138883536Y-150421868D01*
X138834502Y-150540247D01*
X138834428Y-150540468D01*
X138834153Y-150541994D01*
X138821998Y-150603091D01*
X138821999Y-150603092D01*
X138809500Y-150665927D01*
X127434451Y-150665927D01*
X127348015Y-150579491D01*
X127348012Y-150579489D01*
X127348010Y-150579487D01*
X127348009Y-150579486D01*
X127222490Y-150507017D01*
X127154070Y-150488684D01*
X127125767Y-150476081D01*
X127119564Y-150472052D01*
X127081063Y-150424499D01*
X127077865Y-150363397D01*
X127111194Y-150312085D01*
X127155891Y-150291605D01*
X127156046Y-150291577D01*
X127173645Y-150290000D01*
X130799999Y-150290000D01*
X130800000Y-150290000D01*
X130800000Y-149114680D01*
X130804843Y-149084094D01*
X130808965Y-149071405D01*
X130844923Y-149021906D01*
X130845522Y-149021471D01*
X130849063Y-149018900D01*
X130907243Y-149000000D01*
X140714820Y-149000000D01*
X140745408Y-149004843D01*
G37*
G04 #@! TD.AperFunction*
G04 #@! TA.AperFunction,Conductor*
G36*
X114315908Y-132134843D02*
G01*
X114328595Y-132138966D01*
X114378095Y-132174927D01*
X114378096Y-132174928D01*
X114381091Y-132179050D01*
X114400000Y-132237240D01*
X114400000Y-135500000D01*
X115580074Y-135998358D01*
X115606368Y-136014721D01*
X115618207Y-136024975D01*
X115648768Y-136073264D01*
X115651375Y-136082631D01*
X115655000Y-136109176D01*
X115655000Y-136857813D01*
X115650154Y-136888406D01*
X115646032Y-136901092D01*
X115610068Y-136950592D01*
X115610065Y-136950594D01*
X115603422Y-136955420D01*
X115561843Y-136972922D01*
X114595044Y-137137439D01*
X114584968Y-137138626D01*
X114579149Y-137139011D01*
X114574884Y-137139293D01*
X114564746Y-137139442D01*
X113301878Y-137093353D01*
X113210003Y-137090000D01*
X113210000Y-137090000D01*
X113209999Y-137090000D01*
X113218045Y-141549988D01*
X115413958Y-141549989D01*
X115420410Y-141550202D01*
X115424938Y-141550500D01*
X115427525Y-141550500D01*
X115575070Y-141550500D01*
X115575072Y-141550500D01*
X115577636Y-141550331D01*
X115579592Y-141550203D01*
X115586079Y-141549990D01*
X116913976Y-141549991D01*
X116920421Y-141550203D01*
X116924930Y-141550500D01*
X116924932Y-141550500D01*
X117075086Y-141550500D01*
X117075087Y-141550500D01*
X117076155Y-141550429D01*
X117079580Y-141550204D01*
X117086068Y-141549992D01*
X118413988Y-141549992D01*
X118420444Y-141550205D01*
X118424913Y-141550500D01*
X118427525Y-141550500D01*
X118575094Y-141550500D01*
X118575096Y-141550500D01*
X118576791Y-141550388D01*
X118579569Y-141550206D01*
X118586059Y-141549993D01*
X119913998Y-141549994D01*
X119920456Y-141550208D01*
X119924893Y-141550500D01*
X119927525Y-141550500D01*
X120075110Y-141550500D01*
X120075111Y-141550500D01*
X120076146Y-141550431D01*
X120079555Y-141550208D01*
X120086043Y-141549995D01*
X121414012Y-141549996D01*
X121420457Y-141550208D01*
X121424890Y-141550500D01*
X121424892Y-141550500D01*
X121575119Y-141550500D01*
X121575120Y-141550500D01*
X121575870Y-141550450D01*
X121579540Y-141550209D01*
X121586024Y-141549997D01*
X122914022Y-141549997D01*
X122920479Y-141550210D01*
X122924871Y-141550500D01*
X122924876Y-141550500D01*
X123075139Y-141550500D01*
X123075140Y-141550500D01*
X123076434Y-141550414D01*
X123079525Y-141550211D01*
X123086016Y-141549999D01*
X123860053Y-141549999D01*
X123890642Y-141554843D01*
X123903326Y-141558965D01*
X123952825Y-141594927D01*
X123952831Y-141594934D01*
X123955821Y-141599050D01*
X123974724Y-141657242D01*
X123974724Y-141657297D01*
X123970071Y-149065382D01*
X123965207Y-149095969D01*
X123961078Y-149108651D01*
X123925090Y-149158126D01*
X123920959Y-149161124D01*
X123862811Y-149180000D01*
X122355180Y-149180000D01*
X122324587Y-149175154D01*
X122311901Y-149171032D01*
X122262401Y-149135068D01*
X122262394Y-149135058D01*
X122259400Y-149130936D01*
X122240500Y-149072756D01*
X122240500Y-144133857D01*
X122240500Y-144133856D01*
X122216614Y-144044712D01*
X122170469Y-143964788D01*
X122170468Y-143964787D01*
X122105217Y-143899535D01*
X122105216Y-143899534D01*
X122103641Y-143897959D01*
X122103618Y-143897937D01*
X122050083Y-143844401D01*
X122031878Y-143819343D01*
X122020788Y-143797579D01*
X122010000Y-143752637D01*
X122010000Y-143640001D01*
X122010000Y-143640000D01*
X122009999Y-143640000D01*
X121902370Y-143640000D01*
X121871777Y-143635154D01*
X121848550Y-143627607D01*
X121809140Y-143603457D01*
X121705214Y-143499532D01*
X121705213Y-143499531D01*
X121705212Y-143499530D01*
X121625288Y-143453386D01*
X121536144Y-143429500D01*
X121536142Y-143429500D01*
X118804712Y-143429500D01*
X118774119Y-143424654D01*
X118750892Y-143417107D01*
X118711482Y-143392957D01*
X118658019Y-143339495D01*
X118658015Y-143339491D01*
X118658010Y-143339487D01*
X118589774Y-143300091D01*
X118568741Y-143276731D01*
X118502897Y-143259087D01*
X118502896Y-143259087D01*
X118392475Y-143229500D01*
X118392473Y-143229500D01*
X118247523Y-143229500D01*
X118185788Y-143246041D01*
X118185787Y-143246040D01*
X118107512Y-143267015D01*
X118107506Y-143267018D01*
X117981993Y-143339483D01*
X117879485Y-143441991D01*
X117811018Y-143560579D01*
X117808307Y-143565003D01*
X117791445Y-143590965D01*
X117743897Y-143629466D01*
X117739817Y-143631032D01*
X117733580Y-143633425D01*
X117698106Y-143640000D01*
X110615180Y-143640000D01*
X110584587Y-143635154D01*
X110571901Y-143631032D01*
X110522401Y-143595068D01*
X110522394Y-143595058D01*
X110519400Y-143590936D01*
X110500500Y-143532756D01*
X110500500Y-132244680D01*
X110505343Y-132214094D01*
X110509465Y-132201405D01*
X110545423Y-132151906D01*
X110546022Y-132151471D01*
X110549563Y-132148900D01*
X110607743Y-132130000D01*
X114285320Y-132130000D01*
X114315908Y-132134843D01*
G37*
G04 #@! TD.AperFunction*
G04 #@! TA.AperFunction,Conductor*
G36*
X116229191Y-150314407D02*
G01*
X116265155Y-150363907D01*
X116270000Y-150394500D01*
X116270000Y-154415000D01*
X116713032Y-154415136D01*
X116732446Y-154417439D01*
X116732495Y-154417193D01*
X116732500Y-154417165D01*
X116732501Y-154417165D01*
X116732516Y-154417090D01*
X116734402Y-154417463D01*
X116734422Y-154417468D01*
X116765021Y-154422287D01*
X116804995Y-154425398D01*
X116805006Y-154425397D01*
X116805007Y-154425398D01*
X119195487Y-154423282D01*
X125370925Y-154417817D01*
X130415619Y-154419379D01*
X130419999Y-154419381D01*
X130420000Y-154419381D01*
X130420000Y-154346353D01*
X130439516Y-154320071D01*
X130439768Y-154319891D01*
X130448998Y-154309086D01*
X130471767Y-154286317D01*
X130471767Y-154286316D01*
X130471772Y-154286312D01*
X130507736Y-154236812D01*
X130544027Y-154165587D01*
X130548149Y-154152901D01*
X130557508Y-154113919D01*
X130562354Y-154083326D01*
X130565500Y-154043353D01*
X130565500Y-153634500D01*
X130584407Y-153576309D01*
X130633907Y-153540345D01*
X130664500Y-153535500D01*
X138945500Y-153535500D01*
X139003691Y-153554407D01*
X139039655Y-153603907D01*
X139044500Y-153634500D01*
X139044500Y-156192254D01*
X139057001Y-156271199D01*
X139057002Y-156271204D01*
X139075899Y-156329374D01*
X139075900Y-156329376D01*
X139089240Y-156355563D01*
X139098806Y-156415996D01*
X139071023Y-156470510D01*
X139016504Y-156498283D01*
X139001026Y-156499500D01*
X110615180Y-156499500D01*
X110584587Y-156494654D01*
X110571901Y-156490532D01*
X110522401Y-156454568D01*
X110522394Y-156454558D01*
X110519400Y-156450436D01*
X110500500Y-156392256D01*
X110500500Y-153317132D01*
X111609500Y-153317132D01*
X111609500Y-154662920D01*
X111609584Y-154663648D01*
X111614281Y-154707349D01*
X111615908Y-154722480D01*
X111615909Y-154722485D01*
X111615912Y-154722492D01*
X111666200Y-154857327D01*
X111752449Y-154972541D01*
X111752522Y-154972633D01*
X111752799Y-154972879D01*
X111754588Y-154974144D01*
X111839142Y-155037441D01*
X111867668Y-155058796D01*
X111867669Y-155058796D01*
X111867670Y-155058797D01*
X112001544Y-155108728D01*
X112002985Y-155109285D01*
X112004247Y-155109466D01*
X112007767Y-155109655D01*
X112062127Y-155115500D01*
X112857872Y-155115499D01*
X112917483Y-155109091D01*
X112984907Y-155083943D01*
X112984910Y-155083942D01*
X113050697Y-155059406D01*
X113054030Y-155058230D01*
X113057582Y-155057047D01*
X113065167Y-155049186D01*
X113167546Y-154972546D01*
X113253796Y-154857331D01*
X113253798Y-154857327D01*
X113304089Y-154722488D01*
X113304090Y-154722485D01*
X113304091Y-154722483D01*
X113310500Y-154662873D01*
X113310499Y-153317128D01*
X113304091Y-153257517D01*
X113296817Y-153238015D01*
X113296817Y-153238014D01*
X113253798Y-153122671D01*
X113231998Y-153093551D01*
X113169156Y-153009605D01*
X113167881Y-153007802D01*
X113167633Y-153007522D01*
X113167541Y-153007449D01*
X113052330Y-152921202D01*
X113052328Y-152921201D01*
X112922428Y-152872752D01*
X112918939Y-152871234D01*
X112918025Y-152870996D01*
X112915927Y-152870540D01*
X112912206Y-152870341D01*
X112895312Y-152868524D01*
X112886249Y-152867550D01*
X112886248Y-152867549D01*
X112857876Y-152864500D01*
X112857873Y-152864500D01*
X112857870Y-152864500D01*
X112062133Y-152864500D01*
X112062129Y-152864500D01*
X112053938Y-152864500D01*
X112047975Y-152866021D01*
X112039069Y-152866978D01*
X112002520Y-152870907D01*
X112002514Y-152870908D01*
X112002514Y-152870909D01*
X112002506Y-152870912D01*
X111867671Y-152921200D01*
X111752456Y-153007451D01*
X111752454Y-153007453D01*
X111752451Y-153007456D01*
X111752450Y-153007458D01*
X111737758Y-153027082D01*
X111666200Y-153122671D01*
X111615912Y-153257504D01*
X111615910Y-153257508D01*
X111615910Y-153257511D01*
X111615909Y-153257514D01*
X111615908Y-153257520D01*
X111615908Y-153257521D01*
X111609500Y-153317132D01*
X110500500Y-153317132D01*
X110500500Y-150394500D01*
X110519407Y-150336309D01*
X110568907Y-150300345D01*
X110599500Y-150295500D01*
X116171000Y-150295500D01*
X116229191Y-150314407D01*
G37*
G04 #@! TD.AperFunction*
G04 #@! TA.AperFunction,Conductor*
G36*
X117711623Y-143918916D02*
G01*
X117769756Y-143937989D01*
X117805579Y-143987591D01*
X117806961Y-143992281D01*
X117807015Y-143992484D01*
X117807017Y-143992488D01*
X117879487Y-144118010D01*
X117879489Y-144118012D01*
X117879491Y-144118015D01*
X117981985Y-144220509D01*
X117981987Y-144220510D01*
X117981989Y-144220512D01*
X118107511Y-144292982D01*
X118107512Y-144292982D01*
X118107515Y-144292984D01*
X118247525Y-144330500D01*
X118247526Y-144330500D01*
X118392474Y-144330500D01*
X118392475Y-144330500D01*
X118532485Y-144292984D01*
X118532487Y-144292982D01*
X118532489Y-144292982D01*
X118658010Y-144220512D01*
X118658010Y-144220511D01*
X118658015Y-144220509D01*
X118688522Y-144190002D01*
X118719029Y-144159496D01*
X118773546Y-144131719D01*
X118789032Y-144130500D01*
X121303811Y-144130500D01*
X121362002Y-144149407D01*
X121373814Y-144159496D01*
X121510503Y-144296184D01*
X121538281Y-144350701D01*
X121539500Y-144366188D01*
X121539500Y-149396145D01*
X121544495Y-149414785D01*
X121544495Y-149414788D01*
X121544496Y-149414788D01*
X121563386Y-149485288D01*
X121609530Y-149565212D01*
X121711005Y-149666687D01*
X121738781Y-149721202D01*
X121740000Y-149736689D01*
X121740000Y-149941000D01*
X121721093Y-149999191D01*
X121671593Y-150035155D01*
X121641000Y-150040000D01*
X110599500Y-150040000D01*
X110541309Y-150021093D01*
X110505345Y-149971593D01*
X110500500Y-149941000D01*
X110500500Y-143997595D01*
X110519407Y-143939404D01*
X110568907Y-143903440D01*
X110599773Y-143898596D01*
X117711623Y-143918916D01*
G37*
G04 #@! TD.AperFunction*
G04 #@! TA.AperFunction,Conductor*
G36*
X120934191Y-129408907D02*
G01*
X120970155Y-129458407D01*
X120975000Y-129489000D01*
X120975000Y-130700000D01*
X155400559Y-130719921D01*
X155458737Y-130738862D01*
X155494672Y-130788383D01*
X155499500Y-130818921D01*
X155499500Y-134645792D01*
X155480593Y-134703983D01*
X155431093Y-134739947D01*
X155400596Y-134744792D01*
X155014782Y-134745166D01*
X154972908Y-134734699D01*
X154972620Y-134735396D01*
X154849747Y-134684500D01*
X154849745Y-134684499D01*
X154849744Y-134684499D01*
X154724069Y-134659500D01*
X154595931Y-134659500D01*
X154595930Y-134659500D01*
X154533093Y-134671999D01*
X154470256Y-134684499D01*
X154470255Y-134684499D01*
X154470252Y-134684500D01*
X154351871Y-134733535D01*
X154350690Y-134734167D01*
X154349819Y-134734385D01*
X154347380Y-134735396D01*
X154347230Y-134735035D01*
X154304121Y-134745855D01*
X146959752Y-134752968D01*
X146901543Y-134734117D01*
X146889652Y-134723971D01*
X146850181Y-134684500D01*
X146575212Y-134409530D01*
X146495288Y-134363386D01*
X146406144Y-134339500D01*
X136216144Y-134339500D01*
X136123856Y-134339500D01*
X136034712Y-134363386D01*
X135954785Y-134409532D01*
X135753813Y-134610504D01*
X135699297Y-134638281D01*
X135683810Y-134639500D01*
X135597525Y-134639500D01*
X135535790Y-134656041D01*
X135457510Y-134677017D01*
X135329343Y-134751016D01*
X135279939Y-134764280D01*
X132866245Y-134766618D01*
X132808036Y-134747767D01*
X132796151Y-134737627D01*
X132738015Y-134679491D01*
X132738012Y-134679489D01*
X132738010Y-134679487D01*
X132612488Y-134607017D01*
X132612489Y-134607017D01*
X132582896Y-134599087D01*
X132472475Y-134569500D01*
X132327525Y-134569500D01*
X132265790Y-134586041D01*
X132187510Y-134607017D01*
X132061985Y-134679490D01*
X132002948Y-134738526D01*
X131948431Y-134766302D01*
X131933042Y-134767521D01*
X126425490Y-134772855D01*
X126367281Y-134754004D01*
X126343080Y-134728858D01*
X126295626Y-134657838D01*
X126177162Y-134539374D01*
X126037863Y-134446297D01*
X126037864Y-134446297D01*
X126037862Y-134446296D01*
X125883085Y-134382185D01*
X125883079Y-134382183D01*
X125718769Y-134349500D01*
X125718767Y-134349500D01*
X125001233Y-134349500D01*
X125001230Y-134349500D01*
X124836920Y-134382183D01*
X124836914Y-134382185D01*
X124682137Y-134446296D01*
X124542838Y-134539374D01*
X124542834Y-134539377D01*
X124424373Y-134657838D01*
X124375539Y-134730923D01*
X124327489Y-134768802D01*
X124293320Y-134774921D01*
X119108993Y-134779942D01*
X119050784Y-134761091D01*
X119014772Y-134711626D01*
X119009897Y-134681042D01*
X119008375Y-133116230D01*
X124234500Y-133116230D01*
X124234500Y-133283769D01*
X124267183Y-133448079D01*
X124267185Y-133448085D01*
X124331296Y-133602862D01*
X124331297Y-133602863D01*
X124424374Y-133742162D01*
X124542838Y-133860626D01*
X124682137Y-133953703D01*
X124836918Y-134017816D01*
X125001233Y-134050500D01*
X125001234Y-134050500D01*
X125718766Y-134050500D01*
X125718767Y-134050500D01*
X125883082Y-134017816D01*
X126037863Y-133953703D01*
X126177162Y-133860626D01*
X126295626Y-133742162D01*
X126388703Y-133602863D01*
X126452816Y-133448082D01*
X126485500Y-133283767D01*
X126485500Y-133127525D01*
X138955598Y-133127525D01*
X138955598Y-133272474D01*
X138993115Y-133412489D01*
X139065585Y-133538010D01*
X139065587Y-133538012D01*
X139065589Y-133538015D01*
X139168083Y-133640509D01*
X139168085Y-133640510D01*
X139168087Y-133640512D01*
X139293609Y-133712982D01*
X139293610Y-133712982D01*
X139293613Y-133712984D01*
X139433623Y-133750500D01*
X139433624Y-133750500D01*
X139578572Y-133750500D01*
X139578573Y-133750500D01*
X139718583Y-133712984D01*
X139718585Y-133712982D01*
X139718587Y-133712982D01*
X139844108Y-133640512D01*
X139844108Y-133640511D01*
X139844113Y-133640509D01*
X139946607Y-133538015D01*
X139946610Y-133538010D01*
X140019080Y-133412489D01*
X140019080Y-133412487D01*
X140019082Y-133412485D01*
X140056598Y-133272475D01*
X140056598Y-133127525D01*
X141055598Y-133127525D01*
X141055598Y-133272474D01*
X141093115Y-133412489D01*
X141165585Y-133538010D01*
X141165587Y-133538012D01*
X141165589Y-133538015D01*
X141268083Y-133640509D01*
X141268085Y-133640510D01*
X141268087Y-133640512D01*
X141393609Y-133712982D01*
X141393610Y-133712982D01*
X141393613Y-133712984D01*
X141533623Y-133750500D01*
X141533624Y-133750500D01*
X141678572Y-133750500D01*
X141678573Y-133750500D01*
X141818583Y-133712984D01*
X141818585Y-133712982D01*
X141818587Y-133712982D01*
X141944108Y-133640512D01*
X141944108Y-133640511D01*
X141944113Y-133640509D01*
X142046607Y-133538015D01*
X142046610Y-133538010D01*
X142119080Y-133412489D01*
X142119080Y-133412487D01*
X142119082Y-133412485D01*
X142156598Y-133272475D01*
X142156598Y-133127525D01*
X143005598Y-133127525D01*
X143005598Y-133272474D01*
X143043115Y-133412489D01*
X143115585Y-133538010D01*
X143115587Y-133538012D01*
X143115589Y-133538015D01*
X143218083Y-133640509D01*
X143218085Y-133640510D01*
X143218087Y-133640512D01*
X143343609Y-133712982D01*
X143343610Y-133712982D01*
X143343613Y-133712984D01*
X143483623Y-133750500D01*
X143483624Y-133750500D01*
X143628572Y-133750500D01*
X143628573Y-133750500D01*
X143768583Y-133712984D01*
X143768585Y-133712982D01*
X143768587Y-133712982D01*
X143894108Y-133640512D01*
X143894108Y-133640511D01*
X143894113Y-133640509D01*
X143996607Y-133538015D01*
X143996610Y-133538010D01*
X144069080Y-133412489D01*
X144069080Y-133412487D01*
X144069082Y-133412485D01*
X144106598Y-133272475D01*
X144106598Y-133127525D01*
X145155598Y-133127525D01*
X145155598Y-133272474D01*
X145193115Y-133412489D01*
X145265585Y-133538010D01*
X145265587Y-133538012D01*
X145265589Y-133538015D01*
X145368083Y-133640509D01*
X145368085Y-133640510D01*
X145368087Y-133640512D01*
X145493609Y-133712982D01*
X145493610Y-133712982D01*
X145493613Y-133712984D01*
X145633623Y-133750500D01*
X145633624Y-133750500D01*
X145778572Y-133750500D01*
X145778573Y-133750500D01*
X145918583Y-133712984D01*
X145918585Y-133712982D01*
X145918587Y-133712982D01*
X146044108Y-133640512D01*
X146044108Y-133640511D01*
X146044113Y-133640509D01*
X146146607Y-133538015D01*
X146146610Y-133538010D01*
X146219080Y-133412489D01*
X146219080Y-133412487D01*
X146219082Y-133412485D01*
X146256598Y-133272475D01*
X146256598Y-133127525D01*
X146219082Y-132987515D01*
X146219080Y-132987512D01*
X146219080Y-132987510D01*
X146146610Y-132861989D01*
X146146608Y-132861987D01*
X146146607Y-132861985D01*
X146044113Y-132759491D01*
X146044110Y-132759489D01*
X146044108Y-132759487D01*
X145918586Y-132687017D01*
X145918587Y-132687017D01*
X145809690Y-132657838D01*
X145778573Y-132649500D01*
X145633623Y-132649500D01*
X145602506Y-132657838D01*
X145493608Y-132687017D01*
X145368087Y-132759487D01*
X145265585Y-132861989D01*
X145193115Y-132987510D01*
X145155598Y-133127525D01*
X144106598Y-133127525D01*
X144069082Y-132987515D01*
X144069080Y-132987512D01*
X144069080Y-132987510D01*
X143996610Y-132861989D01*
X143996608Y-132861987D01*
X143996607Y-132861985D01*
X143894113Y-132759491D01*
X143894110Y-132759489D01*
X143894108Y-132759487D01*
X143768586Y-132687017D01*
X143768587Y-132687017D01*
X143659690Y-132657838D01*
X143628573Y-132649500D01*
X143483623Y-132649500D01*
X143452506Y-132657838D01*
X143343608Y-132687017D01*
X143218087Y-132759487D01*
X143115585Y-132861989D01*
X143043115Y-132987510D01*
X143005598Y-133127525D01*
X142156598Y-133127525D01*
X142119082Y-132987515D01*
X142119080Y-132987512D01*
X142119080Y-132987510D01*
X142046610Y-132861989D01*
X142046608Y-132861987D01*
X142046607Y-132861985D01*
X141944113Y-132759491D01*
X141944110Y-132759489D01*
X141944108Y-132759487D01*
X141818586Y-132687017D01*
X141818587Y-132687017D01*
X141709690Y-132657838D01*
X141678573Y-132649500D01*
X141533623Y-132649500D01*
X141502506Y-132657838D01*
X141393608Y-132687017D01*
X141268087Y-132759487D01*
X141165585Y-132861989D01*
X141093115Y-132987510D01*
X141055598Y-133127525D01*
X140056598Y-133127525D01*
X140019082Y-132987515D01*
X140019080Y-132987512D01*
X140019080Y-132987510D01*
X139946610Y-132861989D01*
X139946608Y-132861987D01*
X139946607Y-132861985D01*
X139844113Y-132759491D01*
X139844110Y-132759489D01*
X139844108Y-132759487D01*
X139718586Y-132687017D01*
X139718587Y-132687017D01*
X139609690Y-132657838D01*
X139578573Y-132649500D01*
X139433623Y-132649500D01*
X139402506Y-132657838D01*
X139293608Y-132687017D01*
X139168087Y-132759487D01*
X139065585Y-132861989D01*
X138993115Y-132987510D01*
X138955598Y-133127525D01*
X126485500Y-133127525D01*
X126485500Y-133116233D01*
X126452816Y-132951918D01*
X126388703Y-132797137D01*
X126295626Y-132657838D01*
X126177162Y-132539374D01*
X126037863Y-132446297D01*
X126037864Y-132446297D01*
X126037862Y-132446296D01*
X125883085Y-132382185D01*
X125883079Y-132382183D01*
X125718769Y-132349500D01*
X125718767Y-132349500D01*
X125001233Y-132349500D01*
X125001230Y-132349500D01*
X124836920Y-132382183D01*
X124836914Y-132382185D01*
X124682137Y-132446296D01*
X124542838Y-132539374D01*
X124542834Y-132539377D01*
X124424377Y-132657834D01*
X124424374Y-132657838D01*
X124331296Y-132797137D01*
X124267185Y-132951914D01*
X124267183Y-132951920D01*
X124234500Y-133116230D01*
X119008375Y-133116230D01*
X119004846Y-129489095D01*
X119023697Y-129430888D01*
X119073162Y-129394876D01*
X119103840Y-129390001D01*
X120876002Y-129390000D01*
X120934191Y-129408907D01*
G37*
G04 #@! TD.AperFunction*
M02*
