M48
; DRILL file KiCad 10.0.6-rc2 date 2026-08-25T13:57:16
; FORMAT={-:-/ absolute / metric / decimal}
; #@! TF.CreationDate,2026-08-25T13:57:16+02:00
; #@! TF.GenerationSoftware,Kicad,Pcbnew,10.0.6-rc2
; #@! TF.FileFunction,Plated,1,4,PTH
FMAT,2
METRIC
; #@! TA.AperFunction,Plated,PTH,ViaDrill
T1C0.300
; #@! TA.AperFunction,Plated,PTH,ViaDrill
T2C0.400
; #@! TA.AperFunction,Plated,PTH,ComponentDrill
T3C0.750
%
G90
G05
T1
X111.0Y-135.0
X111.0Y-138.0
X111.0Y-147.0
X111.3Y-151.6
X111.3Y-154.2
X111.75Y-133.5
X111.75Y-136.5
X111.75Y-142.5
X111.75Y-145.5
X111.75Y-148.5
X111.95Y-155.5
X112.5Y-135.0
X112.5Y-138.0
X112.5Y-147.0
X113.25Y-133.5
X113.25Y-136.5
X113.25Y-142.5
X113.25Y-145.5
X113.25Y-155.5
X114.0Y-135.0
X114.0Y-147.0
X114.55Y-155.5
X114.75Y-142.5
X115.2Y-151.6
X115.33Y-139.88
X115.5Y-141.0
X115.85Y-152.9
X115.85Y-155.5
X116.25Y-142.5
X117.0Y-141.0
X117.15Y-152.9
X117.15Y-155.5
X117.75Y-142.5
X117.8Y-151.6
X117.835Y-139.745
X118.085Y-136.795
X118.32Y-143.78
X118.45Y-152.9
X118.45Y-155.5
X118.5Y-141.0
X119.25Y-142.5
X119.75Y-152.9
X119.75Y-155.5
X120.0Y-132.0
X120.0Y-141.0
X120.75Y-133.5
X120.75Y-142.5
X120.75Y-145.5
X120.77Y-147.0
X121.05Y-152.9
X121.05Y-155.5
X121.29Y-149.344
X121.5Y-132.0
X121.5Y-141.0
X122.25Y-133.5
X122.25Y-139.5
X122.25Y-142.5
X122.35Y-155.5
X123.0Y-132.0
X123.0Y-141.0
X123.0Y-144.0
X123.65Y-155.5
X123.75Y-133.5
X123.75Y-139.5
X124.95Y-155.5
X127.01Y-151.02
X127.55Y-155.5
X128.85Y-155.5
X130.15Y-155.5
X130.8Y-151.6
X131.45Y-150.3
X131.45Y-152.9
X131.45Y-155.5
X131.92Y-138.31
X132.07Y-136.76
X132.1Y-151.6
X132.1Y-154.2
X132.4Y-135.12
X132.75Y-150.3
X132.75Y-152.9
X132.75Y-155.5
X133.218Y-140.34
X133.4Y-151.6
X133.4Y-154.2
X134.05Y-150.3
X134.05Y-152.9
X134.05Y-155.5
X134.7Y-151.6
X134.7Y-154.2
X135.35Y-150.3
X135.35Y-152.9
X135.35Y-155.5
X135.6Y-138.54
X135.67Y-135.19
X135.85Y-133.77
X136.0Y-151.6
X136.0Y-154.2
X136.65Y-150.3
X136.65Y-152.9
X136.65Y-155.5
X136.681Y-140.775
X137.3Y-151.6
X137.581Y-138.9
X137.7Y-132.98
X137.72Y-133.81
X137.75Y-135.575
X137.95Y-152.9
X138.49Y-132.96
X138.5Y-133.81
X138.6Y-151.6
X138.834Y-140.278
X139.25Y-152.9
X139.506Y-133.2
X139.506Y-135.35
X139.506Y-137.3
X139.729Y-138.975
X139.9Y-151.6
X140.244Y-142.406
X140.55Y-152.9
X141.211Y-142.137
X141.606Y-133.2
X141.606Y-135.35
X141.606Y-137.3
X141.606Y-139.4
X142.422Y-145.789
X143.06Y-143.32
X143.097Y-142.22
X143.556Y-133.2
X143.556Y-135.35
X143.556Y-137.3
X143.556Y-139.35
X143.7Y-146.12
X144.72Y-143.92
X144.74Y-149.38
X145.53Y-142.55
X145.706Y-133.2
X145.706Y-135.35
X145.706Y-137.3
X145.706Y-139.35
X145.9Y-148.56
X147.2Y-135.53
X147.26Y-137.53
X147.6Y-139.55
X148.6Y-145.65
X149.985Y-141.254
X151.9Y-139.34
T2
X127.9Y-145.97
X130.02Y-144.78
X130.82Y-141.96
X133.42Y-148.0
X138.35Y-147.59
X138.69Y-146.45
X139.46Y-150.73
X142.734Y-150.553
X154.66Y-135.31
T3
X112.44Y-153.75
X114.44Y-153.75
X125.36Y-133.2
X125.36Y-135.2
X125.36Y-137.2
X138.23Y-154.63
X140.23Y-154.63
X142.23Y-154.63
X144.23Y-154.63
X146.23Y-154.63
X148.23Y-154.63
X153.64Y-136.68
X153.64Y-138.68
X153.98Y-146.58
X153.98Y-148.58
X153.98Y-150.58
X153.98Y-152.58
X153.98Y-154.58
M30
