%TF.GenerationSoftware,KiCad,Pcbnew,10.99.0-2756-gace8bf0470*%
%TF.CreationDate,2026-08-21T20:09:25+02:00*%
%TF.ProjectId,unni-smartification-c6,756e6e69-2d73-46d6-9172-746966696361,rev?*%
%TF.SameCoordinates,Original*%
%TF.FileFunction,Copper,L2,Bot*%
%TF.FilePolarity,Positive*%
%FSLAX46Y46*%
G04 Gerber Fmt 4.6, Leading zero omitted, Abs format (unit mm)*
G04 Created by KiCad (PCBNEW 10.99.0-2756-gace8bf0470) date 2026-08-21 20:09:25*
%MOMM*%
%LPD*%
G01*
G04 APERTURE LIST*
G04 Aperture macros list*
%AMRoundRect*
0 Rectangle with rounded corners*
0 $1 Rounding radius*
0 $2 $3 $4 $5 $6 $7 $8 $9 X,Y pos of 4 corners*
0 Add a 4 corners polygon primitive as box body*
4,1,4,$2,$3,$4,$5,$6,$7,$8,$9,$2,$3,0*
0 Add four circle primitives for the rounded corners*
1,1,$1+$1,$2,$3*
1,1,$1+$1,$4,$5*
1,1,$1+$1,$6,$7*
1,1,$1+$1,$8,$9*
0 Add four rect primitives between the rounded corners*
20,1,$1+$1,$2,$3,$4,$5,0*
20,1,$1+$1,$4,$5,$6,$7,0*
20,1,$1+$1,$6,$7,$8,$9,0*
20,1,$1+$1,$8,$9,$2,$3,0*%
G04 Aperture macros list end*
%TA.AperFunction,ComponentPad*%
%ADD10RoundRect,0.250000X-0.600000X-0.725000X0.600000X-0.725000X0.600000X0.725000X-0.600000X0.725000X0*%
%TD*%
%TA.AperFunction,ComponentPad*%
%ADD11O,1.700000X1.950000*%
%TD*%
%TA.AperFunction,ComponentPad*%
%ADD12RoundRect,0.250000X-0.725000X0.600000X-0.725000X-0.600000X0.725000X-0.600000X0.725000X0.600000X0*%
%TD*%
%TA.AperFunction,ComponentPad*%
%ADD13O,1.950000X1.700000*%
%TD*%
%TA.AperFunction,ComponentPad*%
%ADD14RoundRect,0.250000X-0.350000X-0.625000X0.350000X-0.625000X0.350000X0.625000X-0.350000X0.625000X0*%
%TD*%
%TA.AperFunction,ComponentPad*%
%ADD15O,1.200000X1.750000*%
%TD*%
%TA.AperFunction,ComponentPad*%
%ADD16RoundRect,0.250000X-0.600000X-0.725000X0.600000X-0.725000X0.600000X0.725000X-0.600000X0.725000X0*%
%TD*%
%TA.AperFunction,ComponentPad*%
%ADD17O,1.000000X2.100000*%
%TD*%
%TA.AperFunction,ComponentPad*%
%ADD18O,1.000000X1.800000*%
%TD*%
G04 APERTURE END LIST*
D10*
%TO.P,J4,1,Pin_1_1*%
%TO.N,+BATT*%
X234650000Y-140700000D03*
D11*
%TO.P,J4,2,Pin_2_2*%
%TO.N,UNNI_AC*%
X232150000Y-140700000D03*
%TO.P,J4,3,Pin_3_3*%
%TO.N,GND*%
X229650000Y-140700000D03*
%TD*%
D12*
%TO.P,J20,1,Pin_1_1*%
%TO.N,Net-(J20-Pin_1)*%
X262700000Y-83000000D03*
D13*
%TO.P,J20,2,Pin_2_2*%
%TO.N,Net-(J20-Pin_2)*%
X265200000Y-83000000D03*
%TO.P,J20,3,Pin_3_3*%
%TO.N,GND*%
X267700000Y-83000000D03*
%TD*%
D14*
%TO.P,J2,1,Pin_1_1*%
%TO.N,+BATT*%
X284000000Y-108000000D03*
D15*
%TO.P,J2,2,Pin_2_2*%
%TO.N,GND*%
X282000000Y-108000000D03*
%TD*%
D16*
%TO.P,J10,1,Pin_1_1*%
%TO.N,Net-(J10-Pin_1)*%
X276500000Y-103000000D03*
D11*
%TO.P,J10,2,Pin_2_2*%
%TO.N,Net-(J10-Pin_2)*%
X279000000Y-103000000D03*
%TO.P,J10,3,Pin_3_3*%
%TO.N,GND*%
X281500000Y-103000000D03*
%TD*%
D17*
%TO.P,J1,SH,SHIELD_SH*%
%TO.N,GND*%
X237470000Y-84980000D03*
D18*
X237470000Y-80800000D03*
D17*
X228830000Y-84980000D03*
D18*
X228830000Y-80800000D03*
%TD*%
D12*
%TO.P,J21,1,Pin_1_1*%
%TO.N,Net-(J21-Pin_1)*%
X273700000Y-83000000D03*
D13*
%TO.P,J21,2,Pin_2_2*%
%TO.N,Net-(J21-Pin_2)*%
X276200000Y-83000000D03*
%TO.P,J21,3,Pin_3_3*%
%TO.N,GND*%
X278700000Y-83000000D03*
%TD*%
D12*
%TO.P,J22,1,Pin_1_1*%
%TO.N,Net-(J22-Pin_1)*%
X262700000Y-96000000D03*
D13*
%TO.P,J22,2,Pin_2_2*%
%TO.N,Net-(J22-Pin_2)*%
X265200000Y-96000000D03*
%TO.P,J22,3,Pin_3_3*%
%TO.N,Net-(J22-Pin_3)*%
X267700000Y-96000000D03*
%TO.P,J22,4,Pin_4_4*%
%TO.N,GND*%
X270200000Y-96000000D03*
%TD*%
%TA.AperFunction,Conductor*%
%TO.N,GND*%
G36*
X241108691Y-78719407D02*
G01*
X241144655Y-78768907D01*
X241149500Y-78799500D01*
X241149500Y-142600500D01*
X241130593Y-142658691D01*
X241081093Y-142694655D01*
X241050500Y-142699500D01*
X223249500Y-142699500D01*
X223191309Y-142680593D01*
X223155345Y-142631093D01*
X223150500Y-142600500D01*
X223150500Y-140484489D01*
X228500000Y-140484489D01*
X228500000Y-140524999D01*
X228500001Y-140525000D01*
X229205135Y-140525000D01*
X229175000Y-140637465D01*
X229175000Y-140762535D01*
X229205135Y-140875000D01*
X228500001Y-140875000D01*
X228500000Y-140875001D01*
X228500000Y-140915510D01*
X228528316Y-141094289D01*
X228584250Y-141266440D01*
X228666431Y-141427730D01*
X228666433Y-141427734D01*
X228772824Y-141574169D01*
X228900830Y-141702175D01*
X229047265Y-141808566D01*
X229047269Y-141808568D01*
X229208559Y-141890749D01*
X229380710Y-141946683D01*
X229380707Y-141946683D01*
X229475000Y-141961617D01*
X229475000Y-141144865D01*
X229587465Y-141175000D01*
X229712535Y-141175000D01*
X229825000Y-141144865D01*
X229825000Y-141961616D01*
X229919290Y-141946683D01*
X230091440Y-141890749D01*
X230252730Y-141808568D01*
X230252734Y-141808566D01*
X230399169Y-141702175D01*
X230527175Y-141574169D01*
X230633566Y-141427734D01*
X230633568Y-141427730D01*
X230715749Y-141266440D01*
X230771683Y-141094289D01*
X230800000Y-140915510D01*
X230800000Y-140875001D01*
X230799999Y-140875000D01*
X230094865Y-140875000D01*
X230125000Y-140762535D01*
X230125000Y-140637465D01*
X230094865Y-140525000D01*
X230799999Y-140525000D01*
X230800000Y-140524999D01*
X230800000Y-140488385D01*
X231049500Y-140488385D01*
X231049500Y-140911614D01*
X231076597Y-141082702D01*
X231076598Y-141082706D01*
X231130123Y-141247438D01*
X231130125Y-141247441D01*
X231130126Y-141247444D01*
X231130127Y-141247445D01*
X231208768Y-141401788D01*
X231310586Y-141541928D01*
X231433072Y-141664414D01*
X231573212Y-141766232D01*
X231727555Y-141844873D01*
X231727557Y-141844873D01*
X231727558Y-141844874D01*
X231727561Y-141844876D01*
X231892293Y-141898401D01*
X231892297Y-141898402D01*
X232063386Y-141925500D01*
X232063389Y-141925500D01*
X232236614Y-141925500D01*
X232407702Y-141898402D01*
X232407706Y-141898401D01*
X232572438Y-141844876D01*
X232572440Y-141844874D01*
X232572445Y-141844873D01*
X232726788Y-141766232D01*
X232866928Y-141664414D01*
X232989414Y-141541928D01*
X233091232Y-141401788D01*
X233169873Y-141247445D01*
X233169874Y-141247440D01*
X233169876Y-141247438D01*
X233223401Y-141082706D01*
X233223402Y-141082702D01*
X233250500Y-140911614D01*
X233250500Y-140488385D01*
X233223402Y-140317297D01*
X233223401Y-140317293D01*
X233169876Y-140152561D01*
X233169874Y-140152558D01*
X233169873Y-140152557D01*
X233169873Y-140152555D01*
X233091232Y-139998212D01*
X233039587Y-139927129D01*
X233549500Y-139927129D01*
X233549500Y-141472866D01*
X233549501Y-141472870D01*
X233555908Y-141532480D01*
X233555909Y-141532485D01*
X233606202Y-141667329D01*
X233632288Y-141702175D01*
X233692454Y-141782546D01*
X233692457Y-141782548D01*
X233692458Y-141782549D01*
X233807670Y-141868797D01*
X233942511Y-141919089D01*
X233942512Y-141919089D01*
X233942517Y-141919091D01*
X234002127Y-141925500D01*
X235297872Y-141925499D01*
X235357483Y-141919091D01*
X235433472Y-141890749D01*
X235492329Y-141868797D01*
X235492329Y-141868796D01*
X235492331Y-141868796D01*
X235607546Y-141782546D01*
X235693796Y-141667331D01*
X235744091Y-141532483D01*
X235750500Y-141472873D01*
X235750499Y-139927128D01*
X235744091Y-139867517D01*
X235728543Y-139825830D01*
X235693797Y-139732670D01*
X235607549Y-139617458D01*
X235607548Y-139617457D01*
X235607546Y-139617454D01*
X235607541Y-139617450D01*
X235492329Y-139531202D01*
X235357488Y-139480910D01*
X235357483Y-139480909D01*
X235357481Y-139480908D01*
X235357477Y-139480908D01*
X235326249Y-139477550D01*
X235297873Y-139474500D01*
X235297870Y-139474500D01*
X234002133Y-139474500D01*
X234002129Y-139474500D01*
X234002128Y-139474501D01*
X233994949Y-139475272D01*
X233942519Y-139480908D01*
X233942514Y-139480909D01*
X233807670Y-139531202D01*
X233692458Y-139617450D01*
X233692450Y-139617458D01*
X233606202Y-139732670D01*
X233555910Y-139867511D01*
X233555908Y-139867522D01*
X233549500Y-139927129D01*
X233039587Y-139927129D01*
X232989414Y-139858072D01*
X232866928Y-139735586D01*
X232726788Y-139633768D01*
X232726787Y-139633767D01*
X232726785Y-139633766D01*
X232572441Y-139555125D01*
X232572438Y-139555123D01*
X232407706Y-139501598D01*
X232407702Y-139501597D01*
X232236614Y-139474500D01*
X232236611Y-139474500D01*
X232063389Y-139474500D01*
X232063386Y-139474500D01*
X231892297Y-139501597D01*
X231892293Y-139501598D01*
X231727561Y-139555123D01*
X231727558Y-139555125D01*
X231573214Y-139633766D01*
X231433073Y-139735585D01*
X231310585Y-139858073D01*
X231208766Y-139998214D01*
X231130125Y-140152558D01*
X231130123Y-140152561D01*
X231076598Y-140317293D01*
X231076597Y-140317297D01*
X231049500Y-140488385D01*
X230800000Y-140488385D01*
X230800000Y-140484489D01*
X230771683Y-140305710D01*
X230715749Y-140133559D01*
X230633568Y-139972269D01*
X230633566Y-139972265D01*
X230527175Y-139825830D01*
X230399169Y-139697824D01*
X230252734Y-139591433D01*
X230252730Y-139591431D01*
X230091440Y-139509250D01*
X229919289Y-139453316D01*
X229825000Y-139438381D01*
X229825000Y-140255134D01*
X229712535Y-140225000D01*
X229587465Y-140225000D01*
X229475000Y-140255134D01*
X229475000Y-139438382D01*
X229474999Y-139438381D01*
X229380710Y-139453316D01*
X229208559Y-139509250D01*
X229047269Y-139591431D01*
X229047265Y-139591433D01*
X228900830Y-139697824D01*
X228772824Y-139825830D01*
X228666433Y-139972265D01*
X228666431Y-139972269D01*
X228584250Y-140133559D01*
X228528316Y-140305710D01*
X228500000Y-140484489D01*
X223150500Y-140484489D01*
X223150500Y-91126081D01*
X223399500Y-91126081D01*
X223399500Y-91273918D01*
X223428342Y-91418914D01*
X223484915Y-91555493D01*
X223484916Y-91555495D01*
X223567049Y-91678416D01*
X223671584Y-91782951D01*
X223794505Y-91865084D01*
X223931087Y-91921658D01*
X224076082Y-91950500D01*
X224076083Y-91950500D01*
X224223917Y-91950500D01*
X224223918Y-91950500D01*
X224368913Y-91921658D01*
X224505495Y-91865084D01*
X224600537Y-91801579D01*
X230899500Y-91801579D01*
X230899500Y-91998420D01*
X230930289Y-92192821D01*
X230991116Y-92380025D01*
X231040597Y-92477139D01*
X231080476Y-92555405D01*
X231196172Y-92714646D01*
X231335354Y-92853828D01*
X231494595Y-92969524D01*
X231669975Y-93058884D01*
X231857174Y-93119709D01*
X231857175Y-93119709D01*
X231857178Y-93119710D01*
X232051580Y-93150500D01*
X232051583Y-93150500D01*
X232248420Y-93150500D01*
X232442821Y-93119710D01*
X232442822Y-93119709D01*
X232442826Y-93119709D01*
X232630025Y-93058884D01*
X232805405Y-92969524D01*
X232964646Y-92853828D01*
X233103828Y-92714646D01*
X233219524Y-92555405D01*
X233308884Y-92380025D01*
X233369709Y-92192826D01*
X233369710Y-92192821D01*
X233400500Y-91998420D01*
X233400500Y-91801579D01*
X233370487Y-91612082D01*
X233369710Y-91607177D01*
X233367851Y-91601456D01*
X238149500Y-91601456D01*
X238149500Y-91798543D01*
X238187949Y-91991834D01*
X238187949Y-91991836D01*
X238263367Y-92173913D01*
X238299699Y-92228288D01*
X238372861Y-92337782D01*
X238512218Y-92477139D01*
X238676086Y-92586632D01*
X238858165Y-92662051D01*
X239051459Y-92700500D01*
X239051460Y-92700500D01*
X239248540Y-92700500D01*
X239248541Y-92700500D01*
X239441835Y-92662051D01*
X239623914Y-92586632D01*
X239787782Y-92477139D01*
X239927139Y-92337782D01*
X240036632Y-92173914D01*
X240112051Y-91991835D01*
X240150500Y-91798541D01*
X240150500Y-91601459D01*
X240112051Y-91408165D01*
X240036632Y-91226086D01*
X239927139Y-91062218D01*
X239787782Y-90922861D01*
X239623914Y-90813368D01*
X239623915Y-90813368D01*
X239623913Y-90813367D01*
X239441835Y-90737949D01*
X239248543Y-90699500D01*
X239248541Y-90699500D01*
X239051459Y-90699500D01*
X239051456Y-90699500D01*
X238858165Y-90737949D01*
X238858163Y-90737949D01*
X238676086Y-90813367D01*
X238512218Y-90922861D01*
X238512214Y-90922864D01*
X238372864Y-91062214D01*
X238372861Y-91062218D01*
X238263367Y-91226086D01*
X238187949Y-91408163D01*
X238187949Y-91408165D01*
X238149500Y-91601456D01*
X233367851Y-91601456D01*
X233352917Y-91555493D01*
X233308884Y-91419975D01*
X233219524Y-91244595D01*
X233103828Y-91085354D01*
X232964646Y-90946172D01*
X232805405Y-90830476D01*
X232805404Y-90830475D01*
X232805402Y-90830474D01*
X232630025Y-90741116D01*
X232442821Y-90680289D01*
X232248420Y-90649500D01*
X232248417Y-90649500D01*
X232051583Y-90649500D01*
X232051580Y-90649500D01*
X231857178Y-90680289D01*
X231669974Y-90741116D01*
X231494597Y-90830474D01*
X231335355Y-90946171D01*
X231196171Y-91085355D01*
X231080474Y-91244597D01*
X230991116Y-91419974D01*
X230930289Y-91607178D01*
X230899500Y-91801579D01*
X224600537Y-91801579D01*
X224628416Y-91782951D01*
X224732951Y-91678416D01*
X224815084Y-91555495D01*
X224871658Y-91418913D01*
X224900500Y-91273918D01*
X224900500Y-91126082D01*
X224871658Y-90981087D01*
X224815084Y-90844505D01*
X224732951Y-90721584D01*
X224628416Y-90617049D01*
X224505495Y-90534916D01*
X224505493Y-90534915D01*
X224368914Y-90478342D01*
X224223918Y-90449500D01*
X224076082Y-90449500D01*
X224076081Y-90449500D01*
X223931085Y-90478342D01*
X223794506Y-90534915D01*
X223671585Y-90617048D01*
X223567048Y-90721585D01*
X223484915Y-90844506D01*
X223428342Y-90981085D01*
X223399500Y-91126081D01*
X223150500Y-91126081D01*
X223150500Y-87101579D01*
X223399500Y-87101579D01*
X223399500Y-87298420D01*
X223430289Y-87492821D01*
X223430291Y-87492826D01*
X223491116Y-87680025D01*
X223580476Y-87855405D01*
X223696172Y-88014646D01*
X223835354Y-88153828D01*
X223994595Y-88269524D01*
X224169975Y-88358884D01*
X224357174Y-88419709D01*
X224357175Y-88419709D01*
X224357178Y-88419710D01*
X224551580Y-88450500D01*
X224551583Y-88450500D01*
X224748420Y-88450500D01*
X224942821Y-88419710D01*
X224942822Y-88419709D01*
X224942826Y-88419709D01*
X225130025Y-88358884D01*
X225305405Y-88269524D01*
X225464646Y-88153828D01*
X225603828Y-88014646D01*
X225719524Y-87855405D01*
X225808884Y-87680025D01*
X225869709Y-87492826D01*
X225900500Y-87298417D01*
X225900500Y-87101583D01*
X225900500Y-87101579D01*
X225869710Y-86907178D01*
X225869709Y-86907174D01*
X225808884Y-86719975D01*
X225719524Y-86544595D01*
X225603828Y-86385354D01*
X225464646Y-86246172D01*
X225305405Y-86130476D01*
X225305404Y-86130475D01*
X225305402Y-86130474D01*
X225130025Y-86041116D01*
X224942821Y-85980289D01*
X224748420Y-85949500D01*
X224748417Y-85949500D01*
X224551583Y-85949500D01*
X224551580Y-85949500D01*
X224357178Y-85980289D01*
X224169974Y-86041116D01*
X223994597Y-86130474D01*
X223835355Y-86246171D01*
X223696171Y-86385355D01*
X223580474Y-86544597D01*
X223491116Y-86719974D01*
X223430289Y-86907178D01*
X223399500Y-87101579D01*
X223150500Y-87101579D01*
X223150500Y-84351204D01*
X228030000Y-84351204D01*
X228030000Y-84804999D01*
X228030001Y-84805000D01*
X228530000Y-84805000D01*
X228530000Y-85155000D01*
X228030001Y-85155000D01*
X228030000Y-85155001D01*
X228030000Y-85608795D01*
X228060742Y-85763349D01*
X228121048Y-85908940D01*
X228121052Y-85908949D01*
X228208599Y-86039969D01*
X228208602Y-86039973D01*
X228320026Y-86151397D01*
X228320030Y-86151400D01*
X228451050Y-86238947D01*
X228451059Y-86238951D01*
X228596646Y-86299255D01*
X228596653Y-86299257D01*
X228655000Y-86310862D01*
X228655000Y-85775374D01*
X228714204Y-85809556D01*
X228790504Y-85830000D01*
X228869496Y-85830000D01*
X228945796Y-85809556D01*
X229005000Y-85775374D01*
X229005000Y-86310861D01*
X229063346Y-86299257D01*
X229063353Y-86299255D01*
X229208940Y-86238951D01*
X229208949Y-86238947D01*
X229339969Y-86151400D01*
X229339973Y-86151397D01*
X229451397Y-86039973D01*
X229451400Y-86039969D01*
X229538947Y-85908949D01*
X229538951Y-85908940D01*
X229599257Y-85763349D01*
X229629999Y-85608795D01*
X229630000Y-85608792D01*
X229630000Y-85155001D01*
X229629999Y-85155000D01*
X229130000Y-85155000D01*
X229130000Y-84805000D01*
X229629998Y-84805000D01*
X229635834Y-84799164D01*
X229690351Y-84771386D01*
X229750783Y-84780957D01*
X229791574Y-84819665D01*
X229799481Y-84833360D01*
X229799483Y-84833362D01*
X229799485Y-84833365D01*
X229906635Y-84940515D01*
X229906637Y-84940516D01*
X229906639Y-84940518D01*
X230037861Y-85016279D01*
X230037859Y-85016279D01*
X230037863Y-85016280D01*
X230037865Y-85016281D01*
X230184234Y-85055500D01*
X230184236Y-85055500D01*
X230335764Y-85055500D01*
X230335766Y-85055500D01*
X230482135Y-85016281D01*
X230482137Y-85016279D01*
X230482139Y-85016279D01*
X230613360Y-84940518D01*
X230613360Y-84940517D01*
X230613365Y-84940515D01*
X230720515Y-84833365D01*
X230796281Y-84702135D01*
X230835500Y-84555766D01*
X230835500Y-84404234D01*
X235464500Y-84404234D01*
X235464500Y-84555766D01*
X235499086Y-84684847D01*
X235503720Y-84702139D01*
X235579481Y-84833360D01*
X235579483Y-84833362D01*
X235579485Y-84833365D01*
X235686635Y-84940515D01*
X235686637Y-84940516D01*
X235686639Y-84940518D01*
X235817861Y-85016279D01*
X235817859Y-85016279D01*
X235817863Y-85016280D01*
X235817865Y-85016281D01*
X235964234Y-85055500D01*
X235964236Y-85055500D01*
X236115764Y-85055500D01*
X236115766Y-85055500D01*
X236262135Y-85016281D01*
X236262137Y-85016279D01*
X236262139Y-85016279D01*
X236393360Y-84940518D01*
X236393360Y-84940517D01*
X236393365Y-84940515D01*
X236500515Y-84833365D01*
X236508423Y-84819667D01*
X236553892Y-84778726D01*
X236614742Y-84772330D01*
X236664164Y-84799163D01*
X236670001Y-84805000D01*
X237170000Y-84805000D01*
X237170000Y-85155000D01*
X236670001Y-85155000D01*
X236670000Y-85155001D01*
X236670000Y-85608795D01*
X236700742Y-85763349D01*
X236761048Y-85908940D01*
X236761052Y-85908949D01*
X236848599Y-86039969D01*
X236848602Y-86039973D01*
X236960026Y-86151397D01*
X236960030Y-86151400D01*
X237091050Y-86238947D01*
X237091059Y-86238951D01*
X237236646Y-86299255D01*
X237236653Y-86299257D01*
X237295000Y-86310862D01*
X237295000Y-85775374D01*
X237354204Y-85809556D01*
X237430504Y-85830000D01*
X237509496Y-85830000D01*
X237585796Y-85809556D01*
X237645000Y-85775374D01*
X237645000Y-86310861D01*
X237703346Y-86299257D01*
X237703353Y-86299255D01*
X237848940Y-86238951D01*
X237848949Y-86238947D01*
X237979969Y-86151400D01*
X237979973Y-86151397D01*
X238091397Y-86039973D01*
X238091400Y-86039969D01*
X238178947Y-85908949D01*
X238178951Y-85908940D01*
X238239257Y-85763349D01*
X238269999Y-85608795D01*
X238270000Y-85608792D01*
X238270000Y-85155001D01*
X238269999Y-85155000D01*
X237770000Y-85155000D01*
X237770000Y-84805000D01*
X238269999Y-84805000D01*
X238270000Y-84804999D01*
X238270000Y-84351207D01*
X238269999Y-84351204D01*
X238239257Y-84196650D01*
X238178951Y-84051059D01*
X238178947Y-84051050D01*
X238091400Y-83920030D01*
X238091397Y-83920026D01*
X237979973Y-83808602D01*
X237979969Y-83808599D01*
X237848949Y-83721052D01*
X237848940Y-83721048D01*
X237703354Y-83660744D01*
X237703348Y-83660742D01*
X237645000Y-83649136D01*
X237645000Y-84184625D01*
X237585796Y-84150444D01*
X237509496Y-84130000D01*
X237430504Y-84130000D01*
X237354204Y-84150444D01*
X237295000Y-84184625D01*
X237295000Y-83649136D01*
X237236651Y-83660742D01*
X237236645Y-83660744D01*
X237091059Y-83721048D01*
X237091050Y-83721052D01*
X236960030Y-83808599D01*
X236960026Y-83808602D01*
X236848602Y-83920026D01*
X236848599Y-83920030D01*
X236761052Y-84051050D01*
X236761048Y-84051059D01*
X236710811Y-84172343D01*
X236671074Y-84218868D01*
X236611580Y-84233152D01*
X236555052Y-84209737D01*
X236533611Y-84183957D01*
X236500518Y-84126639D01*
X236500516Y-84126637D01*
X236500515Y-84126635D01*
X236393365Y-84019485D01*
X236393362Y-84019483D01*
X236393360Y-84019481D01*
X236262138Y-83943720D01*
X236262140Y-83943720D01*
X236173710Y-83920026D01*
X236115766Y-83904500D01*
X235964234Y-83904500D01*
X235906290Y-83920026D01*
X235817860Y-83943720D01*
X235686639Y-84019481D01*
X235579481Y-84126639D01*
X235503720Y-84257860D01*
X235503719Y-84257865D01*
X235464500Y-84404234D01*
X230835500Y-84404234D01*
X230796281Y-84257865D01*
X230796279Y-84257862D01*
X230796279Y-84257860D01*
X230720518Y-84126639D01*
X230720516Y-84126637D01*
X230720515Y-84126635D01*
X230613365Y-84019485D01*
X230613362Y-84019483D01*
X230613360Y-84019481D01*
X230482138Y-83943720D01*
X230482140Y-83943720D01*
X230393710Y-83920026D01*
X230335766Y-83904500D01*
X230184234Y-83904500D01*
X230126290Y-83920026D01*
X230037860Y-83943720D01*
X229906639Y-84019481D01*
X229799483Y-84126637D01*
X229766388Y-84183958D01*
X229720917Y-84224899D01*
X229660067Y-84231293D01*
X229607080Y-84200700D01*
X229589188Y-84172342D01*
X229538953Y-84051062D01*
X229538947Y-84051050D01*
X229451400Y-83920030D01*
X229451397Y-83920026D01*
X229339973Y-83808602D01*
X229339969Y-83808599D01*
X229208949Y-83721052D01*
X229208940Y-83721048D01*
X229063354Y-83660744D01*
X229063348Y-83660742D01*
X229005000Y-83649136D01*
X229005000Y-84184625D01*
X228945796Y-84150444D01*
X228869496Y-84130000D01*
X228790504Y-84130000D01*
X228714204Y-84150444D01*
X228655000Y-84184625D01*
X228655000Y-83649136D01*
X228596651Y-83660742D01*
X228596645Y-83660744D01*
X228451059Y-83721048D01*
X228451050Y-83721052D01*
X228320030Y-83808599D01*
X228320026Y-83808602D01*
X228208602Y-83920026D01*
X228208599Y-83920030D01*
X228121052Y-84051050D01*
X228121048Y-84051059D01*
X228060742Y-84196650D01*
X228030000Y-84351204D01*
X223150500Y-84351204D01*
X223150500Y-80321204D01*
X228030000Y-80321204D01*
X228030000Y-80624999D01*
X228030001Y-80625000D01*
X228530000Y-80625000D01*
X228530000Y-80975000D01*
X228030001Y-80975000D01*
X228030000Y-80975001D01*
X228030000Y-81278795D01*
X228060742Y-81433349D01*
X228121048Y-81578940D01*
X228121052Y-81578949D01*
X228208599Y-81709969D01*
X228208602Y-81709973D01*
X228320026Y-81821397D01*
X228320030Y-81821400D01*
X228451050Y-81908947D01*
X228451059Y-81908951D01*
X228596646Y-81969255D01*
X228596653Y-81969257D01*
X228655000Y-81980862D01*
X228655000Y-81445374D01*
X228714204Y-81479556D01*
X228790504Y-81500000D01*
X228869496Y-81500000D01*
X228945796Y-81479556D01*
X229005000Y-81445374D01*
X229005000Y-81980861D01*
X229063346Y-81969257D01*
X229063353Y-81969255D01*
X229208940Y-81908951D01*
X229208949Y-81908947D01*
X229339969Y-81821400D01*
X229339973Y-81821397D01*
X229451397Y-81709973D01*
X229451400Y-81709969D01*
X229538947Y-81578949D01*
X229538951Y-81578940D01*
X229599257Y-81433349D01*
X229629999Y-81278795D01*
X229630000Y-81278792D01*
X229630000Y-80975001D01*
X229629999Y-80975000D01*
X229130000Y-80975000D01*
X229130000Y-80625000D01*
X229629999Y-80625000D01*
X229630000Y-80624999D01*
X229630000Y-80321207D01*
X229629999Y-80321204D01*
X236670000Y-80321204D01*
X236670000Y-80624999D01*
X236670001Y-80625000D01*
X237170000Y-80625000D01*
X237170000Y-80975000D01*
X236670001Y-80975000D01*
X236670000Y-80975001D01*
X236670000Y-81278795D01*
X236700742Y-81433349D01*
X236761048Y-81578940D01*
X236761052Y-81578949D01*
X236848599Y-81709969D01*
X236848602Y-81709973D01*
X236960026Y-81821397D01*
X236960030Y-81821400D01*
X237091050Y-81908947D01*
X237091059Y-81908951D01*
X237236646Y-81969255D01*
X237236653Y-81969257D01*
X237295000Y-81980862D01*
X237295000Y-81445374D01*
X237354204Y-81479556D01*
X237430504Y-81500000D01*
X237509496Y-81500000D01*
X237585796Y-81479556D01*
X237645000Y-81445374D01*
X237645000Y-81980861D01*
X237703346Y-81969257D01*
X237703353Y-81969255D01*
X237848940Y-81908951D01*
X237848949Y-81908947D01*
X237979969Y-81821400D01*
X237979973Y-81821397D01*
X238091397Y-81709973D01*
X238091400Y-81709969D01*
X238178947Y-81578949D01*
X238178951Y-81578940D01*
X238239257Y-81433349D01*
X238269999Y-81278795D01*
X238270000Y-81278792D01*
X238270000Y-80975001D01*
X238269999Y-80975000D01*
X237770000Y-80975000D01*
X237770000Y-80625000D01*
X238269999Y-80625000D01*
X238270000Y-80624999D01*
X238270000Y-80321207D01*
X238269999Y-80321204D01*
X238239257Y-80166650D01*
X238178951Y-80021059D01*
X238178947Y-80021050D01*
X238091400Y-79890030D01*
X238091397Y-79890026D01*
X237979973Y-79778602D01*
X237979969Y-79778599D01*
X237848949Y-79691052D01*
X237848940Y-79691048D01*
X237703354Y-79630744D01*
X237703348Y-79630742D01*
X237645000Y-79619136D01*
X237645000Y-80154625D01*
X237585796Y-80120444D01*
X237509496Y-80100000D01*
X237430504Y-80100000D01*
X237354204Y-80120444D01*
X237295000Y-80154625D01*
X237295000Y-79619136D01*
X237236651Y-79630742D01*
X237236645Y-79630744D01*
X237091059Y-79691048D01*
X237091050Y-79691052D01*
X236960030Y-79778599D01*
X236960026Y-79778602D01*
X236848602Y-79890026D01*
X236848599Y-79890030D01*
X236761052Y-80021050D01*
X236761048Y-80021059D01*
X236700742Y-80166650D01*
X236670000Y-80321204D01*
X229629999Y-80321204D01*
X229599257Y-80166650D01*
X229538951Y-80021059D01*
X229538947Y-80021050D01*
X229451400Y-79890030D01*
X229451397Y-79890026D01*
X229339973Y-79778602D01*
X229339969Y-79778599D01*
X229208949Y-79691052D01*
X229208940Y-79691048D01*
X229063354Y-79630744D01*
X229063348Y-79630742D01*
X229005000Y-79619136D01*
X229005000Y-80154625D01*
X228945796Y-80120444D01*
X228869496Y-80100000D01*
X228790504Y-80100000D01*
X228714204Y-80120444D01*
X228655000Y-80154625D01*
X228655000Y-79619136D01*
X228596651Y-79630742D01*
X228596645Y-79630744D01*
X228451059Y-79691048D01*
X228451050Y-79691052D01*
X228320030Y-79778599D01*
X228320026Y-79778602D01*
X228208602Y-79890026D01*
X228208599Y-79890030D01*
X228121052Y-80021050D01*
X228121048Y-80021059D01*
X228060742Y-80166650D01*
X228030000Y-80321204D01*
X223150500Y-80321204D01*
X223150500Y-78799500D01*
X223169407Y-78741309D01*
X223218907Y-78705345D01*
X223249500Y-78700500D01*
X241050500Y-78700500D01*
X241108691Y-78719407D01*
G37*
%TD.AperFunction*%
%TD*%
%TA.AperFunction,Conductor*%
%TO.N,GND*%
G36*
X300559191Y-80519407D02*
G01*
X300595155Y-80568907D01*
X300600000Y-80599500D01*
X300600000Y-111400500D01*
X300581093Y-111458691D01*
X300531593Y-111494655D01*
X300501000Y-111499500D01*
X260599500Y-111499500D01*
X260541309Y-111480593D01*
X260505345Y-111431093D01*
X260500500Y-111400500D01*
X260500500Y-107636355D01*
X281100000Y-107636355D01*
X281100000Y-107824999D01*
X281100001Y-107825000D01*
X281668024Y-107825000D01*
X281650556Y-107855255D01*
X281625000Y-107950630D01*
X281625000Y-108049370D01*
X281650556Y-108144745D01*
X281668024Y-108175000D01*
X281100001Y-108175000D01*
X281100000Y-108175001D01*
X281100000Y-108363644D01*
X281134586Y-108537519D01*
X281134586Y-108537521D01*
X281202429Y-108701308D01*
X281300923Y-108848715D01*
X281426284Y-108974076D01*
X281573691Y-109072570D01*
X281737473Y-109140411D01*
X281737484Y-109140414D01*
X281825000Y-109157821D01*
X281825000Y-108331976D01*
X281855255Y-108349444D01*
X281950630Y-108375000D01*
X282049370Y-108375000D01*
X282144745Y-108349444D01*
X282175000Y-108331976D01*
X282175000Y-109157820D01*
X282262515Y-109140414D01*
X282262526Y-109140411D01*
X282426308Y-109072570D01*
X282573715Y-108974076D01*
X282699076Y-108848715D01*
X282797570Y-108701308D01*
X282865413Y-108537521D01*
X282865413Y-108537519D01*
X282899999Y-108363644D01*
X282900000Y-108363641D01*
X282900000Y-108175001D01*
X282899999Y-108175000D01*
X282331976Y-108175000D01*
X282349444Y-108144745D01*
X282375000Y-108049370D01*
X282375000Y-107950630D01*
X282349444Y-107855255D01*
X282331976Y-107825000D01*
X282899999Y-107825000D01*
X282900000Y-107824999D01*
X282900000Y-107636358D01*
X282899999Y-107636355D01*
X282865413Y-107462480D01*
X282865413Y-107462478D01*
X282823944Y-107362361D01*
X282809350Y-107327129D01*
X283149500Y-107327129D01*
X283149500Y-108672866D01*
X283149501Y-108672870D01*
X283155908Y-108732480D01*
X283155909Y-108732485D01*
X283206202Y-108867329D01*
X283286113Y-108974076D01*
X283292454Y-108982546D01*
X283292457Y-108982548D01*
X283292458Y-108982549D01*
X283407670Y-109068797D01*
X283542511Y-109119089D01*
X283542512Y-109119089D01*
X283542517Y-109119091D01*
X283602127Y-109125500D01*
X284397872Y-109125499D01*
X284457483Y-109119091D01*
X284524907Y-109093943D01*
X284592329Y-109068797D01*
X284592329Y-109068796D01*
X284592331Y-109068796D01*
X284707546Y-108982546D01*
X284793796Y-108867331D01*
X284800740Y-108848715D01*
X284844089Y-108732488D01*
X284844090Y-108732485D01*
X284844091Y-108732483D01*
X284850500Y-108672873D01*
X284850499Y-107327128D01*
X284844091Y-107267517D01*
X284800739Y-107151284D01*
X284793797Y-107132670D01*
X284707549Y-107017458D01*
X284707548Y-107017457D01*
X284707546Y-107017454D01*
X284707541Y-107017450D01*
X284592329Y-106931202D01*
X284457488Y-106880910D01*
X284457483Y-106880909D01*
X284457481Y-106880908D01*
X284457477Y-106880908D01*
X284426249Y-106877550D01*
X284397873Y-106874500D01*
X284397870Y-106874500D01*
X283602133Y-106874500D01*
X283602129Y-106874500D01*
X283602128Y-106874501D01*
X283594949Y-106875272D01*
X283542519Y-106880908D01*
X283542514Y-106880909D01*
X283407670Y-106931202D01*
X283292458Y-107017450D01*
X283292450Y-107017458D01*
X283206202Y-107132670D01*
X283155910Y-107267511D01*
X283155908Y-107267522D01*
X283149500Y-107327129D01*
X282809350Y-107327129D01*
X282797569Y-107298689D01*
X282699076Y-107151284D01*
X282573715Y-107025923D01*
X282426308Y-106927429D01*
X282262520Y-106859586D01*
X282175000Y-106842177D01*
X282175000Y-107668023D01*
X282144745Y-107650556D01*
X282049370Y-107625000D01*
X281950630Y-107625000D01*
X281855255Y-107650556D01*
X281825000Y-107668023D01*
X281825000Y-106842177D01*
X281737480Y-106859586D01*
X281737478Y-106859586D01*
X281573691Y-106927429D01*
X281426284Y-107025923D01*
X281300923Y-107151284D01*
X281202429Y-107298691D01*
X281134586Y-107462478D01*
X281134586Y-107462480D01*
X281100000Y-107636355D01*
X260500500Y-107636355D01*
X260500500Y-102227129D01*
X275399500Y-102227129D01*
X275399500Y-103772866D01*
X275399501Y-103772870D01*
X275405908Y-103832480D01*
X275405909Y-103832485D01*
X275456202Y-103967329D01*
X275482288Y-104002175D01*
X275542454Y-104082546D01*
X275542457Y-104082548D01*
X275542458Y-104082549D01*
X275657670Y-104168797D01*
X275792511Y-104219089D01*
X275792512Y-104219089D01*
X275792517Y-104219091D01*
X275852127Y-104225500D01*
X277147872Y-104225499D01*
X277207483Y-104219091D01*
X277283472Y-104190749D01*
X277342329Y-104168797D01*
X277342329Y-104168796D01*
X277342331Y-104168796D01*
X277457546Y-104082546D01*
X277543796Y-103967331D01*
X277594091Y-103832483D01*
X277600500Y-103772873D01*
X277600499Y-102788384D01*
X277899500Y-102788384D01*
X277899500Y-103211614D01*
X277926597Y-103382702D01*
X277926598Y-103382706D01*
X277980123Y-103547438D01*
X277980125Y-103547441D01*
X277980126Y-103547444D01*
X277980127Y-103547445D01*
X278058768Y-103701788D01*
X278160586Y-103841928D01*
X278283072Y-103964414D01*
X278423212Y-104066232D01*
X278577555Y-104144873D01*
X278577557Y-104144873D01*
X278577558Y-104144874D01*
X278577561Y-104144876D01*
X278742293Y-104198401D01*
X278742297Y-104198402D01*
X278913386Y-104225500D01*
X278913389Y-104225500D01*
X279086614Y-104225500D01*
X279257702Y-104198402D01*
X279257706Y-104198401D01*
X279422438Y-104144876D01*
X279422440Y-104144874D01*
X279422445Y-104144873D01*
X279576788Y-104066232D01*
X279716928Y-103964414D01*
X279839414Y-103841928D01*
X279941232Y-103701788D01*
X280019873Y-103547445D01*
X280019874Y-103547440D01*
X280019876Y-103547438D01*
X280073401Y-103382706D01*
X280073402Y-103382702D01*
X280100500Y-103211614D01*
X280100500Y-102788385D01*
X280099883Y-102784489D01*
X280350000Y-102784489D01*
X280350000Y-102824999D01*
X280350001Y-102825000D01*
X281055135Y-102825000D01*
X281025000Y-102937465D01*
X281025000Y-103062535D01*
X281055135Y-103175000D01*
X280350001Y-103175000D01*
X280350000Y-103175001D01*
X280350000Y-103215510D01*
X280378316Y-103394289D01*
X280434250Y-103566440D01*
X280516431Y-103727730D01*
X280516433Y-103727734D01*
X280622824Y-103874169D01*
X280750830Y-104002175D01*
X280897265Y-104108566D01*
X280897269Y-104108568D01*
X281058559Y-104190749D01*
X281230710Y-104246683D01*
X281230707Y-104246683D01*
X281325000Y-104261617D01*
X281325000Y-103444865D01*
X281437465Y-103475000D01*
X281562535Y-103475000D01*
X281675000Y-103444865D01*
X281675000Y-104261616D01*
X281769290Y-104246683D01*
X281941440Y-104190749D01*
X282102730Y-104108568D01*
X282102734Y-104108566D01*
X282249169Y-104002175D01*
X282377175Y-103874169D01*
X282483566Y-103727734D01*
X282483568Y-103727730D01*
X282565749Y-103566440D01*
X282621683Y-103394289D01*
X282650000Y-103215510D01*
X282650000Y-103175001D01*
X282649999Y-103175000D01*
X281944865Y-103175000D01*
X281975000Y-103062535D01*
X281975000Y-102937465D01*
X281944865Y-102825000D01*
X282649999Y-102825000D01*
X282650000Y-102824999D01*
X282650000Y-102784489D01*
X282621683Y-102605710D01*
X282565749Y-102433559D01*
X282483568Y-102272269D01*
X282483566Y-102272265D01*
X282377175Y-102125830D01*
X282249169Y-101997824D01*
X282102734Y-101891433D01*
X282102730Y-101891431D01*
X281941440Y-101809250D01*
X281769289Y-101753316D01*
X281675000Y-101738381D01*
X281675000Y-102555134D01*
X281562535Y-102525000D01*
X281437465Y-102525000D01*
X281325000Y-102555134D01*
X281325000Y-101738382D01*
X281324999Y-101738381D01*
X281230710Y-101753316D01*
X281058559Y-101809250D01*
X280897269Y-101891431D01*
X280897265Y-101891433D01*
X280750830Y-101997824D01*
X280622824Y-102125830D01*
X280516433Y-102272265D01*
X280516431Y-102272269D01*
X280434250Y-102433559D01*
X280378316Y-102605710D01*
X280350000Y-102784489D01*
X280099883Y-102784489D01*
X280073402Y-102617297D01*
X280073401Y-102617293D01*
X280019876Y-102452561D01*
X280019874Y-102452558D01*
X280019873Y-102452557D01*
X280019873Y-102452555D01*
X279941232Y-102298212D01*
X279839414Y-102158072D01*
X279716928Y-102035586D01*
X279576788Y-101933768D01*
X279576787Y-101933767D01*
X279576785Y-101933766D01*
X279422441Y-101855125D01*
X279422438Y-101855123D01*
X279257706Y-101801598D01*
X279257702Y-101801597D01*
X279086614Y-101774500D01*
X279086611Y-101774500D01*
X278913389Y-101774500D01*
X278913386Y-101774500D01*
X278742297Y-101801597D01*
X278742293Y-101801598D01*
X278577561Y-101855123D01*
X278577558Y-101855125D01*
X278423214Y-101933766D01*
X278283073Y-102035585D01*
X278160585Y-102158073D01*
X278058766Y-102298214D01*
X277980125Y-102452558D01*
X277980123Y-102452561D01*
X277926598Y-102617293D01*
X277926597Y-102617297D01*
X277899501Y-102788378D01*
X277899500Y-102788384D01*
X277600499Y-102788384D01*
X277600499Y-102227128D01*
X277594091Y-102167517D01*
X277578543Y-102125830D01*
X277543797Y-102032670D01*
X277457549Y-101917458D01*
X277457548Y-101917457D01*
X277457546Y-101917454D01*
X277457541Y-101917450D01*
X277342329Y-101831202D01*
X277207488Y-101780910D01*
X277207483Y-101780909D01*
X277207481Y-101780908D01*
X277207477Y-101780908D01*
X277176249Y-101777550D01*
X277147873Y-101774500D01*
X277147870Y-101774500D01*
X275852133Y-101774500D01*
X275852129Y-101774500D01*
X275852128Y-101774501D01*
X275844949Y-101775272D01*
X275792519Y-101780908D01*
X275792514Y-101780909D01*
X275657670Y-101831202D01*
X275542458Y-101917450D01*
X275542450Y-101917458D01*
X275456202Y-102032670D01*
X275405910Y-102167511D01*
X275405908Y-102167522D01*
X275399500Y-102227129D01*
X260500500Y-102227129D01*
X260500500Y-95352129D01*
X261474500Y-95352129D01*
X261474500Y-96647866D01*
X261474501Y-96647870D01*
X261480908Y-96707480D01*
X261480909Y-96707485D01*
X261531202Y-96842329D01*
X261557288Y-96877175D01*
X261617454Y-96957546D01*
X261617457Y-96957548D01*
X261617458Y-96957549D01*
X261732670Y-97043797D01*
X261867511Y-97094089D01*
X261867512Y-97094089D01*
X261867517Y-97094091D01*
X261927127Y-97100500D01*
X263472872Y-97100499D01*
X263532483Y-97094091D01*
X263608472Y-97065749D01*
X263667329Y-97043797D01*
X263667329Y-97043796D01*
X263667331Y-97043796D01*
X263782546Y-96957546D01*
X263868796Y-96842331D01*
X263919091Y-96707483D01*
X263925500Y-96647873D01*
X263925499Y-96580401D01*
X263944405Y-96522213D01*
X263993905Y-96486249D01*
X264055090Y-96486248D01*
X264104591Y-96522211D01*
X264112708Y-96535457D01*
X264133764Y-96576782D01*
X264133765Y-96576784D01*
X264133766Y-96576785D01*
X264133768Y-96576788D01*
X264235586Y-96716928D01*
X264358072Y-96839414D01*
X264498212Y-96941232D01*
X264652555Y-97019873D01*
X264652557Y-97019873D01*
X264652558Y-97019874D01*
X264652561Y-97019876D01*
X264817293Y-97073401D01*
X264817297Y-97073402D01*
X264988386Y-97100500D01*
X264988389Y-97100500D01*
X265411614Y-97100500D01*
X265582702Y-97073402D01*
X265582706Y-97073401D01*
X265747438Y-97019876D01*
X265747440Y-97019874D01*
X265747445Y-97019873D01*
X265901788Y-96941232D01*
X266041928Y-96839414D01*
X266164414Y-96716928D01*
X266266232Y-96576788D01*
X266344873Y-96422445D01*
X266355845Y-96388677D01*
X266391809Y-96339176D01*
X266450000Y-96320269D01*
X266508191Y-96339176D01*
X266544155Y-96388676D01*
X266544155Y-96388677D01*
X266555126Y-96422443D01*
X266633765Y-96576784D01*
X266633768Y-96576788D01*
X266735586Y-96716928D01*
X266858072Y-96839414D01*
X266998212Y-96941232D01*
X267152555Y-97019873D01*
X267152557Y-97019873D01*
X267152558Y-97019874D01*
X267152561Y-97019876D01*
X267317293Y-97073401D01*
X267317297Y-97073402D01*
X267488386Y-97100500D01*
X267488389Y-97100500D01*
X267911614Y-97100500D01*
X268082702Y-97073402D01*
X268082706Y-97073401D01*
X268247438Y-97019876D01*
X268247440Y-97019874D01*
X268247445Y-97019873D01*
X268401788Y-96941232D01*
X268541928Y-96839414D01*
X268664414Y-96716928D01*
X268766232Y-96576788D01*
X268834012Y-96443760D01*
X268877276Y-96400496D01*
X268937708Y-96390924D01*
X268992225Y-96418701D01*
X269010432Y-96443760D01*
X269091431Y-96602730D01*
X269091433Y-96602734D01*
X269197824Y-96749169D01*
X269325830Y-96877175D01*
X269472265Y-96983566D01*
X269472269Y-96983568D01*
X269633559Y-97065749D01*
X269805710Y-97121683D01*
X269984490Y-97150000D01*
X270024999Y-97150000D01*
X270025000Y-97149999D01*
X270025000Y-96444865D01*
X270137465Y-96475000D01*
X270262535Y-96475000D01*
X270375000Y-96444865D01*
X270375000Y-97149999D01*
X270375001Y-97150000D01*
X270415510Y-97150000D01*
X270594289Y-97121683D01*
X270766440Y-97065749D01*
X270927730Y-96983568D01*
X270927734Y-96983566D01*
X271074169Y-96877175D01*
X271202175Y-96749169D01*
X271308566Y-96602734D01*
X271308568Y-96602730D01*
X271390749Y-96441440D01*
X271446683Y-96269289D01*
X271461618Y-96175000D01*
X270644865Y-96175000D01*
X270675000Y-96062535D01*
X270675000Y-95937465D01*
X270644865Y-95825000D01*
X271461618Y-95825000D01*
X271461618Y-95824999D01*
X271446683Y-95730710D01*
X271390749Y-95558559D01*
X271308568Y-95397269D01*
X271308566Y-95397265D01*
X271202175Y-95250830D01*
X271074169Y-95122824D01*
X270927734Y-95016433D01*
X270927730Y-95016431D01*
X270766440Y-94934250D01*
X270594289Y-94878316D01*
X270415510Y-94850000D01*
X270375001Y-94850000D01*
X270375000Y-94850001D01*
X270375000Y-95555134D01*
X270262535Y-95525000D01*
X270137465Y-95525000D01*
X270025000Y-95555134D01*
X270025000Y-94850001D01*
X270024999Y-94850000D01*
X269984490Y-94850000D01*
X269805710Y-94878316D01*
X269633559Y-94934250D01*
X269472269Y-95016431D01*
X269472265Y-95016433D01*
X269325830Y-95122824D01*
X269197824Y-95250830D01*
X269091433Y-95397265D01*
X269091425Y-95397279D01*
X269010431Y-95556239D01*
X268967167Y-95599504D01*
X268906735Y-95609075D01*
X268852218Y-95581297D01*
X268834012Y-95556239D01*
X268766233Y-95423214D01*
X268766232Y-95423212D01*
X268664414Y-95283072D01*
X268541928Y-95160586D01*
X268401788Y-95058768D01*
X268401787Y-95058767D01*
X268401785Y-95058766D01*
X268247441Y-94980125D01*
X268247438Y-94980123D01*
X268082706Y-94926598D01*
X268082702Y-94926597D01*
X267911614Y-94899500D01*
X267911611Y-94899500D01*
X267488389Y-94899500D01*
X267488386Y-94899500D01*
X267317297Y-94926597D01*
X267317293Y-94926598D01*
X267152561Y-94980123D01*
X267152558Y-94980125D01*
X266998214Y-95058766D01*
X266858073Y-95160585D01*
X266735585Y-95283073D01*
X266633766Y-95423214D01*
X266555125Y-95577558D01*
X266555123Y-95577561D01*
X266544154Y-95611323D01*
X266508190Y-95660823D01*
X266449999Y-95679730D01*
X266391809Y-95660822D01*
X266355846Y-95611323D01*
X266344876Y-95577561D01*
X266344874Y-95577558D01*
X266344873Y-95577557D01*
X266344873Y-95577555D01*
X266266232Y-95423212D01*
X266164414Y-95283072D01*
X266041928Y-95160586D01*
X265901788Y-95058768D01*
X265901787Y-95058767D01*
X265901785Y-95058766D01*
X265747441Y-94980125D01*
X265747438Y-94980123D01*
X265582706Y-94926598D01*
X265582702Y-94926597D01*
X265411614Y-94899500D01*
X265411611Y-94899500D01*
X264988389Y-94899500D01*
X264988386Y-94899500D01*
X264817297Y-94926597D01*
X264817293Y-94926598D01*
X264652561Y-94980123D01*
X264652558Y-94980125D01*
X264498214Y-95058766D01*
X264358073Y-95160585D01*
X264235585Y-95283073D01*
X264133765Y-95423215D01*
X264133764Y-95423217D01*
X264112708Y-95464543D01*
X264069444Y-95507807D01*
X264009011Y-95517378D01*
X263954495Y-95489600D01*
X263926718Y-95435083D01*
X263925499Y-95419597D01*
X263925499Y-95352133D01*
X263925499Y-95352128D01*
X263919091Y-95292517D01*
X263903543Y-95250830D01*
X263868797Y-95157670D01*
X263782549Y-95042458D01*
X263782548Y-95042457D01*
X263782546Y-95042454D01*
X263782541Y-95042450D01*
X263667329Y-94956202D01*
X263532488Y-94905910D01*
X263532483Y-94905909D01*
X263532481Y-94905908D01*
X263532477Y-94905908D01*
X263501249Y-94902550D01*
X263472873Y-94899500D01*
X263472870Y-94899500D01*
X261927133Y-94899500D01*
X261927129Y-94899500D01*
X261927128Y-94899501D01*
X261919949Y-94900272D01*
X261867519Y-94905908D01*
X261867514Y-94905909D01*
X261732670Y-94956202D01*
X261617458Y-95042450D01*
X261617450Y-95042458D01*
X261531202Y-95157670D01*
X261480910Y-95292511D01*
X261480908Y-95292522D01*
X261474500Y-95352129D01*
X260500500Y-95352129D01*
X260500500Y-82352129D01*
X261474500Y-82352129D01*
X261474500Y-83647866D01*
X261474501Y-83647870D01*
X261480908Y-83707480D01*
X261480909Y-83707485D01*
X261531202Y-83842329D01*
X261557288Y-83877175D01*
X261617454Y-83957546D01*
X261617457Y-83957548D01*
X261617458Y-83957549D01*
X261732670Y-84043797D01*
X261867511Y-84094089D01*
X261867512Y-84094089D01*
X261867517Y-84094091D01*
X261927127Y-84100500D01*
X263472872Y-84100499D01*
X263532483Y-84094091D01*
X263608472Y-84065749D01*
X263667329Y-84043797D01*
X263667329Y-84043796D01*
X263667331Y-84043796D01*
X263782546Y-83957546D01*
X263868796Y-83842331D01*
X263919091Y-83707483D01*
X263925500Y-83647873D01*
X263925499Y-83580401D01*
X263944405Y-83522213D01*
X263993905Y-83486249D01*
X264055090Y-83486248D01*
X264104591Y-83522211D01*
X264112708Y-83535457D01*
X264133764Y-83576782D01*
X264133765Y-83576784D01*
X264133768Y-83576788D01*
X264235586Y-83716928D01*
X264358072Y-83839414D01*
X264498212Y-83941232D01*
X264652555Y-84019873D01*
X264652557Y-84019873D01*
X264652558Y-84019874D01*
X264652561Y-84019876D01*
X264817293Y-84073401D01*
X264817297Y-84073402D01*
X264988386Y-84100500D01*
X264988389Y-84100500D01*
X265411614Y-84100500D01*
X265582702Y-84073402D01*
X265582706Y-84073401D01*
X265747438Y-84019876D01*
X265747440Y-84019874D01*
X265747445Y-84019873D01*
X265901788Y-83941232D01*
X266041928Y-83839414D01*
X266164414Y-83716928D01*
X266266232Y-83576788D01*
X266334012Y-83443760D01*
X266377276Y-83400496D01*
X266437708Y-83390924D01*
X266492225Y-83418701D01*
X266510432Y-83443760D01*
X266591431Y-83602730D01*
X266591433Y-83602734D01*
X266697824Y-83749169D01*
X266825830Y-83877175D01*
X266972265Y-83983566D01*
X266972269Y-83983568D01*
X267133559Y-84065749D01*
X267305710Y-84121683D01*
X267484490Y-84150000D01*
X267524999Y-84150000D01*
X267525000Y-84149999D01*
X267525000Y-83444865D01*
X267637465Y-83475000D01*
X267762535Y-83475000D01*
X267875000Y-83444865D01*
X267875000Y-84149999D01*
X267875001Y-84150000D01*
X267915510Y-84150000D01*
X268094289Y-84121683D01*
X268266440Y-84065749D01*
X268427730Y-83983568D01*
X268427734Y-83983566D01*
X268574169Y-83877175D01*
X268702175Y-83749169D01*
X268808566Y-83602734D01*
X268808568Y-83602730D01*
X268890749Y-83441440D01*
X268946683Y-83269289D01*
X268961618Y-83175000D01*
X268144865Y-83175000D01*
X268175000Y-83062535D01*
X268175000Y-82937465D01*
X268144865Y-82825000D01*
X268961618Y-82825000D01*
X268961618Y-82824999D01*
X268946683Y-82730710D01*
X268890749Y-82558559D01*
X268808568Y-82397270D01*
X268808566Y-82397265D01*
X268775773Y-82352129D01*
X272474500Y-82352129D01*
X272474500Y-83647866D01*
X272474501Y-83647870D01*
X272480908Y-83707480D01*
X272480909Y-83707485D01*
X272531202Y-83842329D01*
X272557288Y-83877175D01*
X272617454Y-83957546D01*
X272617457Y-83957548D01*
X272617458Y-83957549D01*
X272732670Y-84043797D01*
X272867511Y-84094089D01*
X272867512Y-84094089D01*
X272867517Y-84094091D01*
X272927127Y-84100500D01*
X274472872Y-84100499D01*
X274532483Y-84094091D01*
X274608472Y-84065749D01*
X274667329Y-84043797D01*
X274667329Y-84043796D01*
X274667331Y-84043796D01*
X274782546Y-83957546D01*
X274868796Y-83842331D01*
X274919091Y-83707483D01*
X274925500Y-83647873D01*
X274925499Y-83580401D01*
X274944405Y-83522213D01*
X274993905Y-83486249D01*
X275055090Y-83486248D01*
X275104591Y-83522211D01*
X275112708Y-83535457D01*
X275133764Y-83576782D01*
X275133765Y-83576784D01*
X275133768Y-83576788D01*
X275235586Y-83716928D01*
X275358072Y-83839414D01*
X275498212Y-83941232D01*
X275652555Y-84019873D01*
X275652557Y-84019873D01*
X275652558Y-84019874D01*
X275652561Y-84019876D01*
X275817293Y-84073401D01*
X275817297Y-84073402D01*
X275988386Y-84100500D01*
X275988389Y-84100500D01*
X276411614Y-84100500D01*
X276582702Y-84073402D01*
X276582706Y-84073401D01*
X276747438Y-84019876D01*
X276747440Y-84019874D01*
X276747445Y-84019873D01*
X276901788Y-83941232D01*
X277041928Y-83839414D01*
X277164414Y-83716928D01*
X277266232Y-83576788D01*
X277334012Y-83443760D01*
X277377276Y-83400496D01*
X277437708Y-83390924D01*
X277492225Y-83418701D01*
X277510432Y-83443760D01*
X277591431Y-83602730D01*
X277591433Y-83602734D01*
X277697824Y-83749169D01*
X277825830Y-83877175D01*
X277972265Y-83983566D01*
X277972269Y-83983568D01*
X278133559Y-84065749D01*
X278305710Y-84121683D01*
X278484490Y-84150000D01*
X278524999Y-84150000D01*
X278525000Y-84149999D01*
X278525000Y-83444865D01*
X278637465Y-83475000D01*
X278762535Y-83475000D01*
X278875000Y-83444865D01*
X278875000Y-84149999D01*
X278875001Y-84150000D01*
X278915510Y-84150000D01*
X279094289Y-84121683D01*
X279266440Y-84065749D01*
X279427730Y-83983568D01*
X279427734Y-83983566D01*
X279574169Y-83877175D01*
X279702175Y-83749169D01*
X279808566Y-83602734D01*
X279808568Y-83602730D01*
X279890749Y-83441440D01*
X279946683Y-83269289D01*
X279961618Y-83175000D01*
X279144865Y-83175000D01*
X279175000Y-83062535D01*
X279175000Y-82937465D01*
X279144865Y-82825000D01*
X279961618Y-82825000D01*
X279961618Y-82824999D01*
X279946683Y-82730710D01*
X279890749Y-82558559D01*
X279808568Y-82397269D01*
X279808566Y-82397265D01*
X279702175Y-82250830D01*
X279574169Y-82122824D01*
X279427734Y-82016433D01*
X279427730Y-82016431D01*
X279266440Y-81934250D01*
X279094289Y-81878316D01*
X278915510Y-81850000D01*
X278875001Y-81850000D01*
X278875000Y-81850001D01*
X278875000Y-82555134D01*
X278762535Y-82525000D01*
X278637465Y-82525000D01*
X278525000Y-82555134D01*
X278525000Y-81850001D01*
X278524999Y-81850000D01*
X278484490Y-81850000D01*
X278305710Y-81878316D01*
X278133559Y-81934250D01*
X277972269Y-82016431D01*
X277972265Y-82016433D01*
X277825830Y-82122824D01*
X277697824Y-82250830D01*
X277591433Y-82397265D01*
X277591425Y-82397279D01*
X277510431Y-82556239D01*
X277467167Y-82599504D01*
X277406735Y-82609075D01*
X277352218Y-82581297D01*
X277334012Y-82556239D01*
X277266233Y-82423214D01*
X277266232Y-82423212D01*
X277164414Y-82283072D01*
X277041928Y-82160586D01*
X276901788Y-82058768D01*
X276901787Y-82058767D01*
X276901785Y-82058766D01*
X276747441Y-81980125D01*
X276747438Y-81980123D01*
X276582706Y-81926598D01*
X276582702Y-81926597D01*
X276411614Y-81899500D01*
X276411611Y-81899500D01*
X275988389Y-81899500D01*
X275988386Y-81899500D01*
X275817297Y-81926597D01*
X275817293Y-81926598D01*
X275652561Y-81980123D01*
X275652558Y-81980125D01*
X275498214Y-82058766D01*
X275358073Y-82160585D01*
X275235585Y-82283073D01*
X275133765Y-82423215D01*
X275133764Y-82423217D01*
X275112708Y-82464543D01*
X275069444Y-82507807D01*
X275009011Y-82517378D01*
X274954495Y-82489600D01*
X274926718Y-82435083D01*
X274925499Y-82419597D01*
X274925499Y-82352133D01*
X274925499Y-82352128D01*
X274919091Y-82292517D01*
X274903543Y-82250830D01*
X274868797Y-82157670D01*
X274782549Y-82042458D01*
X274782548Y-82042457D01*
X274782546Y-82042454D01*
X274782541Y-82042450D01*
X274667329Y-81956202D01*
X274532488Y-81905910D01*
X274532483Y-81905909D01*
X274532481Y-81905908D01*
X274532477Y-81905908D01*
X274501249Y-81902550D01*
X274472873Y-81899500D01*
X274472870Y-81899500D01*
X272927133Y-81899500D01*
X272927129Y-81899500D01*
X272927128Y-81899501D01*
X272919949Y-81900272D01*
X272867519Y-81905908D01*
X272867514Y-81905909D01*
X272732670Y-81956202D01*
X272617458Y-82042450D01*
X272617450Y-82042458D01*
X272531202Y-82157670D01*
X272480910Y-82292511D01*
X272480908Y-82292522D01*
X272474500Y-82352129D01*
X268775773Y-82352129D01*
X268702175Y-82250830D01*
X268574169Y-82122824D01*
X268427734Y-82016433D01*
X268427730Y-82016431D01*
X268266440Y-81934250D01*
X268094289Y-81878316D01*
X267915510Y-81850000D01*
X267875001Y-81850000D01*
X267875000Y-81850001D01*
X267875000Y-82555134D01*
X267762535Y-82525000D01*
X267637465Y-82525000D01*
X267525000Y-82555134D01*
X267525000Y-81850001D01*
X267524999Y-81850000D01*
X267484490Y-81850000D01*
X267305710Y-81878316D01*
X267133559Y-81934250D01*
X266972269Y-82016431D01*
X266972265Y-82016433D01*
X266825830Y-82122824D01*
X266697824Y-82250830D01*
X266591433Y-82397265D01*
X266591425Y-82397279D01*
X266510431Y-82556239D01*
X266467167Y-82599504D01*
X266406735Y-82609075D01*
X266352218Y-82581297D01*
X266334012Y-82556239D01*
X266266233Y-82423214D01*
X266266232Y-82423212D01*
X266164414Y-82283072D01*
X266041928Y-82160586D01*
X265901788Y-82058768D01*
X265901787Y-82058767D01*
X265901785Y-82058766D01*
X265747441Y-81980125D01*
X265747438Y-81980123D01*
X265582706Y-81926598D01*
X265582702Y-81926597D01*
X265411614Y-81899500D01*
X265411611Y-81899500D01*
X264988389Y-81899500D01*
X264988386Y-81899500D01*
X264817297Y-81926597D01*
X264817293Y-81926598D01*
X264652561Y-81980123D01*
X264652558Y-81980125D01*
X264498214Y-82058766D01*
X264358073Y-82160585D01*
X264235585Y-82283073D01*
X264133765Y-82423215D01*
X264133764Y-82423217D01*
X264112708Y-82464543D01*
X264069444Y-82507807D01*
X264009011Y-82517378D01*
X263954495Y-82489600D01*
X263926718Y-82435083D01*
X263925499Y-82419597D01*
X263925499Y-82352133D01*
X263925499Y-82352128D01*
X263919091Y-82292517D01*
X263903543Y-82250830D01*
X263868797Y-82157670D01*
X263782549Y-82042458D01*
X263782548Y-82042457D01*
X263782546Y-82042454D01*
X263782541Y-82042450D01*
X263667329Y-81956202D01*
X263532488Y-81905910D01*
X263532483Y-81905909D01*
X263532481Y-81905908D01*
X263532477Y-81905908D01*
X263501249Y-81902550D01*
X263472873Y-81899500D01*
X263472870Y-81899500D01*
X261927133Y-81899500D01*
X261927129Y-81899500D01*
X261927128Y-81899501D01*
X261919949Y-81900272D01*
X261867519Y-81905908D01*
X261867514Y-81905909D01*
X261732670Y-81956202D01*
X261617458Y-82042450D01*
X261617450Y-82042458D01*
X261531202Y-82157670D01*
X261480910Y-82292511D01*
X261480908Y-82292522D01*
X261474500Y-82352129D01*
X260500500Y-82352129D01*
X260500500Y-80599500D01*
X260519407Y-80541309D01*
X260568907Y-80505345D01*
X260599500Y-80500500D01*
X300501000Y-80500500D01*
X300559191Y-80519407D01*
G37*
%TD.AperFunction*%
%TD*%
M02*
